G04 #@! TF.GenerationSoftware,KiCad,Pcbnew,7.0.10*
G04 #@! TF.CreationDate,2024-02-21T12:16:34-05:00*
G04 #@! TF.ProjectId,CBM-SD,43424d2d-5344-42e6-9b69-6361645f7063,rev?*
G04 #@! TF.SameCoordinates,Original*
G04 #@! TF.FileFunction,Legend,Top*
G04 #@! TF.FilePolarity,Positive*
%FSLAX46Y46*%
G04 Gerber Fmt 4.6, Leading zero omitted, Abs format (unit mm)*
G04 Created by KiCad (PCBNEW 7.0.10) date 2024-02-21 12:16:34*
%MOMM*%
%LPD*%
G01*
G04 APERTURE LIST*
G04 Aperture macros list*
%AMRoundRect*
0 Rectangle with rounded corners*
0 $1 Rounding radius*
0 $2 $3 $4 $5 $6 $7 $8 $9 X,Y pos of 4 corners*
0 Add a 4 corners polygon primitive as box body*
4,1,4,$2,$3,$4,$5,$6,$7,$8,$9,$2,$3,0*
0 Add four circle primitives for the rounded corners*
1,1,$1+$1,$2,$3*
1,1,$1+$1,$4,$5*
1,1,$1+$1,$6,$7*
1,1,$1+$1,$8,$9*
0 Add four rect primitives between the rounded corners*
20,1,$1+$1,$2,$3,$4,$5,0*
20,1,$1+$1,$4,$5,$6,$7,0*
20,1,$1+$1,$6,$7,$8,$9,0*
20,1,$1+$1,$8,$9,$2,$3,0*%
G04 Aperture macros list end*
%ADD10C,0.381000*%
%ADD11C,0.203200*%
%ADD12C,0.250000*%
%ADD13C,0.200000*%
%ADD14C,0.400000*%
%ADD15C,0.150000*%
%ADD16C,0.120000*%
%ADD17C,0.100000*%
%ADD18C,1.600000*%
%ADD19O,1.600000X1.600000*%
%ADD20R,1.600000X1.600000*%
%ADD21C,1.500000*%
%ADD22R,1.800000X1.800000*%
%ADD23C,1.800000*%
%ADD24R,3.500000X3.500000*%
%ADD25RoundRect,0.750000X0.750000X1.000000X-0.750000X1.000000X-0.750000X-1.000000X0.750000X-1.000000X0*%
%ADD26RoundRect,0.875000X0.875000X0.875000X-0.875000X0.875000X-0.875000X-0.875000X0.875000X-0.875000X0*%
%ADD27R,1.700000X1.700000*%
%ADD28O,1.700000X1.700000*%
%ADD29O,2.410000X8.760000*%
%ADD30C,2.200000*%
%ADD31C,1.700000*%
G04 #@! TA.AperFunction,Profile*
%ADD32C,0.200660*%
G04 #@! TD*
G04 APERTURE END LIST*
D10*
X117729999Y-71476985D02*
X126492000Y-71475600D01*
X126492000Y-77304900D02*
X117729999Y-77306285D01*
X126492000Y-71539100D02*
X126492000Y-71475600D01*
X126492000Y-77304900D02*
X126492000Y-71539100D01*
D11*
X179249476Y-67268453D02*
X178765666Y-67268453D01*
X178765666Y-67268453D02*
X178717285Y-67752263D01*
X178717285Y-67752263D02*
X178765666Y-67703882D01*
X178765666Y-67703882D02*
X178862428Y-67655501D01*
X178862428Y-67655501D02*
X179104333Y-67655501D01*
X179104333Y-67655501D02*
X179201095Y-67703882D01*
X179201095Y-67703882D02*
X179249476Y-67752263D01*
X179249476Y-67752263D02*
X179297857Y-67849025D01*
X179297857Y-67849025D02*
X179297857Y-68090930D01*
X179297857Y-68090930D02*
X179249476Y-68187692D01*
X179249476Y-68187692D02*
X179201095Y-68236073D01*
X179201095Y-68236073D02*
X179104333Y-68284453D01*
X179104333Y-68284453D02*
X178862428Y-68284453D01*
X178862428Y-68284453D02*
X178765666Y-68236073D01*
X178765666Y-68236073D02*
X178717285Y-68187692D01*
X179588142Y-67268453D02*
X179926809Y-68284453D01*
X179926809Y-68284453D02*
X180265476Y-67268453D01*
X181378237Y-68284453D02*
X181378237Y-67268453D01*
X181378237Y-67268453D02*
X181620142Y-67268453D01*
X181620142Y-67268453D02*
X181765285Y-67316834D01*
X181765285Y-67316834D02*
X181862047Y-67413596D01*
X181862047Y-67413596D02*
X181910428Y-67510358D01*
X181910428Y-67510358D02*
X181958809Y-67703882D01*
X181958809Y-67703882D02*
X181958809Y-67849025D01*
X181958809Y-67849025D02*
X181910428Y-68042549D01*
X181910428Y-68042549D02*
X181862047Y-68139311D01*
X181862047Y-68139311D02*
X181765285Y-68236073D01*
X181765285Y-68236073D02*
X181620142Y-68284453D01*
X181620142Y-68284453D02*
X181378237Y-68284453D01*
X182974809Y-68187692D02*
X182926428Y-68236073D01*
X182926428Y-68236073D02*
X182781285Y-68284453D01*
X182781285Y-68284453D02*
X182684523Y-68284453D01*
X182684523Y-68284453D02*
X182539380Y-68236073D01*
X182539380Y-68236073D02*
X182442618Y-68139311D01*
X182442618Y-68139311D02*
X182394237Y-68042549D01*
X182394237Y-68042549D02*
X182345856Y-67849025D01*
X182345856Y-67849025D02*
X182345856Y-67703882D01*
X182345856Y-67703882D02*
X182394237Y-67510358D01*
X182394237Y-67510358D02*
X182442618Y-67413596D01*
X182442618Y-67413596D02*
X182539380Y-67316834D01*
X182539380Y-67316834D02*
X182684523Y-67268453D01*
X182684523Y-67268453D02*
X182781285Y-67268453D01*
X182781285Y-67268453D02*
X182926428Y-67316834D01*
X182926428Y-67316834D02*
X182974809Y-67365215D01*
X183410237Y-67897406D02*
X184184333Y-67897406D01*
D12*
X117866852Y-95904090D02*
X119106852Y-95904090D01*
X119106852Y-95904090D02*
X119106852Y-96376471D01*
X119106852Y-96376471D02*
X119047804Y-96494566D01*
X119047804Y-96494566D02*
X118988757Y-96553613D01*
X118988757Y-96553613D02*
X118870661Y-96612661D01*
X118870661Y-96612661D02*
X118693519Y-96612661D01*
X118693519Y-96612661D02*
X118575423Y-96553613D01*
X118575423Y-96553613D02*
X118516376Y-96494566D01*
X118516376Y-96494566D02*
X118457328Y-96376471D01*
X118457328Y-96376471D02*
X118457328Y-95904090D01*
X119106852Y-97380280D02*
X119106852Y-97616471D01*
X119106852Y-97616471D02*
X119047804Y-97734566D01*
X119047804Y-97734566D02*
X118929709Y-97852661D01*
X118929709Y-97852661D02*
X118693519Y-97911709D01*
X118693519Y-97911709D02*
X118280185Y-97911709D01*
X118280185Y-97911709D02*
X118043995Y-97852661D01*
X118043995Y-97852661D02*
X117925900Y-97734566D01*
X117925900Y-97734566D02*
X117866852Y-97616471D01*
X117866852Y-97616471D02*
X117866852Y-97380280D01*
X117866852Y-97380280D02*
X117925900Y-97262185D01*
X117925900Y-97262185D02*
X118043995Y-97144090D01*
X118043995Y-97144090D02*
X118280185Y-97085042D01*
X118280185Y-97085042D02*
X118693519Y-97085042D01*
X118693519Y-97085042D02*
X118929709Y-97144090D01*
X118929709Y-97144090D02*
X119047804Y-97262185D01*
X119047804Y-97262185D02*
X119106852Y-97380280D01*
X119106852Y-98325042D02*
X117866852Y-98620280D01*
X117866852Y-98620280D02*
X118752566Y-98856471D01*
X118752566Y-98856471D02*
X117866852Y-99092661D01*
X117866852Y-99092661D02*
X119106852Y-99387900D01*
X118516376Y-99860281D02*
X118516376Y-100273614D01*
X117866852Y-100450757D02*
X117866852Y-99860281D01*
X117866852Y-99860281D02*
X119106852Y-99860281D01*
X119106852Y-99860281D02*
X119106852Y-100450757D01*
X117866852Y-101690757D02*
X118457328Y-101277424D01*
X117866852Y-100982186D02*
X119106852Y-100982186D01*
X119106852Y-100982186D02*
X119106852Y-101454567D01*
X119106852Y-101454567D02*
X119047804Y-101572662D01*
X119047804Y-101572662D02*
X118988757Y-101631709D01*
X118988757Y-101631709D02*
X118870661Y-101690757D01*
X118870661Y-101690757D02*
X118693519Y-101690757D01*
X118693519Y-101690757D02*
X118575423Y-101631709D01*
X118575423Y-101631709D02*
X118516376Y-101572662D01*
X118516376Y-101572662D02*
X118457328Y-101454567D01*
X118457328Y-101454567D02*
X118457328Y-100982186D01*
D11*
X120637905Y-75272734D02*
X120541143Y-75224353D01*
X120541143Y-75224353D02*
X120396000Y-75224353D01*
X120396000Y-75224353D02*
X120250857Y-75272734D01*
X120250857Y-75272734D02*
X120154095Y-75369496D01*
X120154095Y-75369496D02*
X120105714Y-75466258D01*
X120105714Y-75466258D02*
X120057333Y-75659782D01*
X120057333Y-75659782D02*
X120057333Y-75804925D01*
X120057333Y-75804925D02*
X120105714Y-75998449D01*
X120105714Y-75998449D02*
X120154095Y-76095211D01*
X120154095Y-76095211D02*
X120250857Y-76191973D01*
X120250857Y-76191973D02*
X120396000Y-76240353D01*
X120396000Y-76240353D02*
X120492762Y-76240353D01*
X120492762Y-76240353D02*
X120637905Y-76191973D01*
X120637905Y-76191973D02*
X120686286Y-76143592D01*
X120686286Y-76143592D02*
X120686286Y-75804925D01*
X120686286Y-75804925D02*
X120492762Y-75804925D01*
X121121714Y-76240353D02*
X121121714Y-75224353D01*
X121121714Y-75224353D02*
X121702286Y-76240353D01*
X121702286Y-76240353D02*
X121702286Y-75224353D01*
X122186095Y-76240353D02*
X122186095Y-75224353D01*
X122186095Y-75224353D02*
X122428000Y-75224353D01*
X122428000Y-75224353D02*
X122573143Y-75272734D01*
X122573143Y-75272734D02*
X122669905Y-75369496D01*
X122669905Y-75369496D02*
X122718286Y-75466258D01*
X122718286Y-75466258D02*
X122766667Y-75659782D01*
X122766667Y-75659782D02*
X122766667Y-75804925D01*
X122766667Y-75804925D02*
X122718286Y-75998449D01*
X122718286Y-75998449D02*
X122669905Y-76095211D01*
X122669905Y-76095211D02*
X122573143Y-76191973D01*
X122573143Y-76191973D02*
X122428000Y-76240353D01*
X122428000Y-76240353D02*
X122186095Y-76240353D01*
D12*
X118567176Y-103853486D02*
X118567176Y-104266819D01*
X117917652Y-104443962D02*
X117917652Y-103853486D01*
X117917652Y-103853486D02*
X119157652Y-103853486D01*
X119157652Y-103853486D02*
X119157652Y-104443962D01*
X117917652Y-105683962D02*
X118508128Y-105270629D01*
X117917652Y-104975391D02*
X119157652Y-104975391D01*
X119157652Y-104975391D02*
X119157652Y-105447772D01*
X119157652Y-105447772D02*
X119098604Y-105565867D01*
X119098604Y-105565867D02*
X119039557Y-105624914D01*
X119039557Y-105624914D02*
X118921461Y-105683962D01*
X118921461Y-105683962D02*
X118744319Y-105683962D01*
X118744319Y-105683962D02*
X118626223Y-105624914D01*
X118626223Y-105624914D02*
X118567176Y-105565867D01*
X118567176Y-105565867D02*
X118508128Y-105447772D01*
X118508128Y-105447772D02*
X118508128Y-104975391D01*
X117917652Y-106923962D02*
X118508128Y-106510629D01*
X117917652Y-106215391D02*
X119157652Y-106215391D01*
X119157652Y-106215391D02*
X119157652Y-106687772D01*
X119157652Y-106687772D02*
X119098604Y-106805867D01*
X119098604Y-106805867D02*
X119039557Y-106864914D01*
X119039557Y-106864914D02*
X118921461Y-106923962D01*
X118921461Y-106923962D02*
X118744319Y-106923962D01*
X118744319Y-106923962D02*
X118626223Y-106864914D01*
X118626223Y-106864914D02*
X118567176Y-106805867D01*
X118567176Y-106805867D02*
X118508128Y-106687772D01*
X118508128Y-106687772D02*
X118508128Y-106215391D01*
X181791143Y-113330857D02*
X181734000Y-113388000D01*
X181734000Y-113388000D02*
X181562572Y-113445142D01*
X181562572Y-113445142D02*
X181448286Y-113445142D01*
X181448286Y-113445142D02*
X181276857Y-113388000D01*
X181276857Y-113388000D02*
X181162572Y-113273714D01*
X181162572Y-113273714D02*
X181105429Y-113159428D01*
X181105429Y-113159428D02*
X181048286Y-112930857D01*
X181048286Y-112930857D02*
X181048286Y-112759428D01*
X181048286Y-112759428D02*
X181105429Y-112530857D01*
X181105429Y-112530857D02*
X181162572Y-112416571D01*
X181162572Y-112416571D02*
X181276857Y-112302285D01*
X181276857Y-112302285D02*
X181448286Y-112245142D01*
X181448286Y-112245142D02*
X181562572Y-112245142D01*
X181562572Y-112245142D02*
X181734000Y-112302285D01*
X181734000Y-112302285D02*
X181791143Y-112359428D01*
X182248286Y-113102285D02*
X182819715Y-113102285D01*
X182134000Y-113445142D02*
X182534000Y-112245142D01*
X182534000Y-112245142D02*
X182934000Y-113445142D01*
X184019714Y-113445142D02*
X183619714Y-112873714D01*
X183334000Y-113445142D02*
X183334000Y-112245142D01*
X183334000Y-112245142D02*
X183791143Y-112245142D01*
X183791143Y-112245142D02*
X183905428Y-112302285D01*
X183905428Y-112302285D02*
X183962571Y-112359428D01*
X183962571Y-112359428D02*
X184019714Y-112473714D01*
X184019714Y-112473714D02*
X184019714Y-112645142D01*
X184019714Y-112645142D02*
X183962571Y-112759428D01*
X183962571Y-112759428D02*
X183905428Y-112816571D01*
X183905428Y-112816571D02*
X183791143Y-112873714D01*
X183791143Y-112873714D02*
X183334000Y-112873714D01*
X184534000Y-113445142D02*
X184534000Y-112245142D01*
X184534000Y-112245142D02*
X184819714Y-112245142D01*
X184819714Y-112245142D02*
X184991143Y-112302285D01*
X184991143Y-112302285D02*
X185105428Y-112416571D01*
X185105428Y-112416571D02*
X185162571Y-112530857D01*
X185162571Y-112530857D02*
X185219714Y-112759428D01*
X185219714Y-112759428D02*
X185219714Y-112930857D01*
X185219714Y-112930857D02*
X185162571Y-113159428D01*
X185162571Y-113159428D02*
X185105428Y-113273714D01*
X185105428Y-113273714D02*
X184991143Y-113388000D01*
X184991143Y-113388000D02*
X184819714Y-113445142D01*
X184819714Y-113445142D02*
X184534000Y-113445142D01*
D13*
X187632381Y-114290480D02*
X187265714Y-113766671D01*
X187003809Y-114290480D02*
X187003809Y-113190480D01*
X187003809Y-113190480D02*
X187422857Y-113190480D01*
X187422857Y-113190480D02*
X187527619Y-113242861D01*
X187527619Y-113242861D02*
X187580000Y-113295242D01*
X187580000Y-113295242D02*
X187632381Y-113400004D01*
X187632381Y-113400004D02*
X187632381Y-113557147D01*
X187632381Y-113557147D02*
X187580000Y-113661909D01*
X187580000Y-113661909D02*
X187527619Y-113714290D01*
X187527619Y-113714290D02*
X187422857Y-113766671D01*
X187422857Y-113766671D02*
X187003809Y-113766671D01*
X188103809Y-113714290D02*
X188470476Y-113714290D01*
X188627619Y-114290480D02*
X188103809Y-114290480D01*
X188103809Y-114290480D02*
X188103809Y-113190480D01*
X188103809Y-113190480D02*
X188627619Y-113190480D01*
X189046666Y-114238100D02*
X189203809Y-114290480D01*
X189203809Y-114290480D02*
X189465714Y-114290480D01*
X189465714Y-114290480D02*
X189570476Y-114238100D01*
X189570476Y-114238100D02*
X189622857Y-114185719D01*
X189622857Y-114185719D02*
X189675238Y-114080957D01*
X189675238Y-114080957D02*
X189675238Y-113976195D01*
X189675238Y-113976195D02*
X189622857Y-113871433D01*
X189622857Y-113871433D02*
X189570476Y-113819052D01*
X189570476Y-113819052D02*
X189465714Y-113766671D01*
X189465714Y-113766671D02*
X189256190Y-113714290D01*
X189256190Y-113714290D02*
X189151428Y-113661909D01*
X189151428Y-113661909D02*
X189099047Y-113609528D01*
X189099047Y-113609528D02*
X189046666Y-113504766D01*
X189046666Y-113504766D02*
X189046666Y-113400004D01*
X189046666Y-113400004D02*
X189099047Y-113295242D01*
X189099047Y-113295242D02*
X189151428Y-113242861D01*
X189151428Y-113242861D02*
X189256190Y-113190480D01*
X189256190Y-113190480D02*
X189518095Y-113190480D01*
X189518095Y-113190480D02*
X189675238Y-113242861D01*
X190146666Y-113714290D02*
X190513333Y-113714290D01*
X190670476Y-114290480D02*
X190146666Y-114290480D01*
X190146666Y-114290480D02*
X190146666Y-113190480D01*
X190146666Y-113190480D02*
X190670476Y-113190480D01*
X190984761Y-113190480D02*
X191613333Y-113190480D01*
X191299047Y-114290480D02*
X191299047Y-113190480D01*
D14*
X141296490Y-118919200D02*
X141106014Y-119014438D01*
X141106014Y-119014438D02*
X140725061Y-119014438D01*
X140725061Y-119014438D02*
X140534585Y-118919200D01*
X140534585Y-118919200D02*
X140439347Y-118823961D01*
X140439347Y-118823961D02*
X140344109Y-118633485D01*
X140344109Y-118633485D02*
X140344109Y-118062057D01*
X140344109Y-118062057D02*
X140439347Y-117871580D01*
X140439347Y-117871580D02*
X140534585Y-117776342D01*
X140534585Y-117776342D02*
X140725061Y-117681104D01*
X140725061Y-117681104D02*
X141106014Y-117681104D01*
X141106014Y-117681104D02*
X141296490Y-117776342D01*
X142153633Y-119014438D02*
X142153633Y-117014438D01*
X142153633Y-117776342D02*
X142344109Y-117681104D01*
X142344109Y-117681104D02*
X142725062Y-117681104D01*
X142725062Y-117681104D02*
X142915538Y-117776342D01*
X142915538Y-117776342D02*
X143010776Y-117871580D01*
X143010776Y-117871580D02*
X143106014Y-118062057D01*
X143106014Y-118062057D02*
X143106014Y-118633485D01*
X143106014Y-118633485D02*
X143010776Y-118823961D01*
X143010776Y-118823961D02*
X142915538Y-118919200D01*
X142915538Y-118919200D02*
X142725062Y-119014438D01*
X142725062Y-119014438D02*
X142344109Y-119014438D01*
X142344109Y-119014438D02*
X142153633Y-118919200D01*
X143963157Y-119014438D02*
X143963157Y-117681104D01*
X143963157Y-117871580D02*
X144058395Y-117776342D01*
X144058395Y-117776342D02*
X144248871Y-117681104D01*
X144248871Y-117681104D02*
X144534586Y-117681104D01*
X144534586Y-117681104D02*
X144725062Y-117776342D01*
X144725062Y-117776342D02*
X144820300Y-117966819D01*
X144820300Y-117966819D02*
X144820300Y-119014438D01*
X144820300Y-117966819D02*
X144915538Y-117776342D01*
X144915538Y-117776342D02*
X145106014Y-117681104D01*
X145106014Y-117681104D02*
X145391728Y-117681104D01*
X145391728Y-117681104D02*
X145582205Y-117776342D01*
X145582205Y-117776342D02*
X145677443Y-117966819D01*
X145677443Y-117966819D02*
X145677443Y-119014438D01*
X146534586Y-118919200D02*
X146820300Y-119014438D01*
X146820300Y-119014438D02*
X147296491Y-119014438D01*
X147296491Y-119014438D02*
X147486967Y-118919200D01*
X147486967Y-118919200D02*
X147582205Y-118823961D01*
X147582205Y-118823961D02*
X147677443Y-118633485D01*
X147677443Y-118633485D02*
X147677443Y-118443009D01*
X147677443Y-118443009D02*
X147582205Y-118252533D01*
X147582205Y-118252533D02*
X147486967Y-118157295D01*
X147486967Y-118157295D02*
X147296491Y-118062057D01*
X147296491Y-118062057D02*
X146915538Y-117966819D01*
X146915538Y-117966819D02*
X146725062Y-117871580D01*
X146725062Y-117871580D02*
X146629824Y-117776342D01*
X146629824Y-117776342D02*
X146534586Y-117585866D01*
X146534586Y-117585866D02*
X146534586Y-117395390D01*
X146534586Y-117395390D02*
X146629824Y-117204914D01*
X146629824Y-117204914D02*
X146725062Y-117109676D01*
X146725062Y-117109676D02*
X146915538Y-117014438D01*
X146915538Y-117014438D02*
X147391729Y-117014438D01*
X147391729Y-117014438D02*
X147677443Y-117109676D01*
X148534586Y-119014438D02*
X148534586Y-117014438D01*
X148534586Y-117014438D02*
X149010776Y-117014438D01*
X149010776Y-117014438D02*
X149296491Y-117109676D01*
X149296491Y-117109676D02*
X149486967Y-117300152D01*
X149486967Y-117300152D02*
X149582205Y-117490628D01*
X149582205Y-117490628D02*
X149677443Y-117871580D01*
X149677443Y-117871580D02*
X149677443Y-118157295D01*
X149677443Y-118157295D02*
X149582205Y-118538247D01*
X149582205Y-118538247D02*
X149486967Y-118728723D01*
X149486967Y-118728723D02*
X149296491Y-118919200D01*
X149296491Y-118919200D02*
X149010776Y-119014438D01*
X149010776Y-119014438D02*
X148534586Y-119014438D01*
X150534586Y-118252533D02*
X152058396Y-118252533D01*
X153010776Y-119014438D02*
X153010776Y-117681104D01*
X153010776Y-117871580D02*
X153106014Y-117776342D01*
X153106014Y-117776342D02*
X153296490Y-117681104D01*
X153296490Y-117681104D02*
X153582205Y-117681104D01*
X153582205Y-117681104D02*
X153772681Y-117776342D01*
X153772681Y-117776342D02*
X153867919Y-117966819D01*
X153867919Y-117966819D02*
X153867919Y-119014438D01*
X153867919Y-117966819D02*
X153963157Y-117776342D01*
X153963157Y-117776342D02*
X154153633Y-117681104D01*
X154153633Y-117681104D02*
X154439347Y-117681104D01*
X154439347Y-117681104D02*
X154629824Y-117776342D01*
X154629824Y-117776342D02*
X154725062Y-117966819D01*
X154725062Y-117966819D02*
X154725062Y-119014438D01*
X155677443Y-119014438D02*
X155677443Y-117681104D01*
X155677443Y-117014438D02*
X155582205Y-117109676D01*
X155582205Y-117109676D02*
X155677443Y-117204914D01*
X155677443Y-117204914D02*
X155772681Y-117109676D01*
X155772681Y-117109676D02*
X155677443Y-117014438D01*
X155677443Y-117014438D02*
X155677443Y-117204914D01*
X156629824Y-117681104D02*
X156629824Y-119014438D01*
X156629824Y-117871580D02*
X156725062Y-117776342D01*
X156725062Y-117776342D02*
X156915538Y-117681104D01*
X156915538Y-117681104D02*
X157201253Y-117681104D01*
X157201253Y-117681104D02*
X157391729Y-117776342D01*
X157391729Y-117776342D02*
X157486967Y-117966819D01*
X157486967Y-117966819D02*
X157486967Y-119014438D01*
X158439348Y-119014438D02*
X158439348Y-117681104D01*
X158439348Y-117014438D02*
X158344110Y-117109676D01*
X158344110Y-117109676D02*
X158439348Y-117204914D01*
X158439348Y-117204914D02*
X158534586Y-117109676D01*
X158534586Y-117109676D02*
X158439348Y-117014438D01*
X158439348Y-117014438D02*
X158439348Y-117204914D01*
D13*
X141463142Y-119594219D02*
X141796475Y-120594219D01*
X141796475Y-120594219D02*
X142129808Y-119594219D01*
X142986951Y-120594219D02*
X142415523Y-120594219D01*
X142701237Y-120594219D02*
X142701237Y-119594219D01*
X142701237Y-119594219D02*
X142605999Y-119737076D01*
X142605999Y-119737076D02*
X142510761Y-119832314D01*
X142510761Y-119832314D02*
X142415523Y-119879933D01*
X143415523Y-120498980D02*
X143463142Y-120546600D01*
X143463142Y-120546600D02*
X143415523Y-120594219D01*
X143415523Y-120594219D02*
X143367904Y-120546600D01*
X143367904Y-120546600D02*
X143415523Y-120498980D01*
X143415523Y-120498980D02*
X143415523Y-120594219D01*
X143844094Y-119689457D02*
X143891713Y-119641838D01*
X143891713Y-119641838D02*
X143986951Y-119594219D01*
X143986951Y-119594219D02*
X144225046Y-119594219D01*
X144225046Y-119594219D02*
X144320284Y-119641838D01*
X144320284Y-119641838D02*
X144367903Y-119689457D01*
X144367903Y-119689457D02*
X144415522Y-119784695D01*
X144415522Y-119784695D02*
X144415522Y-119879933D01*
X144415522Y-119879933D02*
X144367903Y-120022790D01*
X144367903Y-120022790D02*
X143796475Y-120594219D01*
X143796475Y-120594219D02*
X144415522Y-120594219D01*
X145605999Y-120594219D02*
X145605999Y-119594219D01*
X145605999Y-119975171D02*
X145701237Y-119927552D01*
X145701237Y-119927552D02*
X145891713Y-119927552D01*
X145891713Y-119927552D02*
X145986951Y-119975171D01*
X145986951Y-119975171D02*
X146034570Y-120022790D01*
X146034570Y-120022790D02*
X146082189Y-120118028D01*
X146082189Y-120118028D02*
X146082189Y-120403742D01*
X146082189Y-120403742D02*
X146034570Y-120498980D01*
X146034570Y-120498980D02*
X145986951Y-120546600D01*
X145986951Y-120546600D02*
X145891713Y-120594219D01*
X145891713Y-120594219D02*
X145701237Y-120594219D01*
X145701237Y-120594219D02*
X145605999Y-120546600D01*
X146415523Y-119927552D02*
X146653618Y-120594219D01*
X146891713Y-119927552D02*
X146653618Y-120594219D01*
X146653618Y-120594219D02*
X146558380Y-120832314D01*
X146558380Y-120832314D02*
X146510761Y-120879933D01*
X146510761Y-120879933D02*
X146415523Y-120927552D01*
X147986952Y-120546600D02*
X148129809Y-120594219D01*
X148129809Y-120594219D02*
X148367904Y-120594219D01*
X148367904Y-120594219D02*
X148463142Y-120546600D01*
X148463142Y-120546600D02*
X148510761Y-120498980D01*
X148510761Y-120498980D02*
X148558380Y-120403742D01*
X148558380Y-120403742D02*
X148558380Y-120308504D01*
X148558380Y-120308504D02*
X148510761Y-120213266D01*
X148510761Y-120213266D02*
X148463142Y-120165647D01*
X148463142Y-120165647D02*
X148367904Y-120118028D01*
X148367904Y-120118028D02*
X148177428Y-120070409D01*
X148177428Y-120070409D02*
X148082190Y-120022790D01*
X148082190Y-120022790D02*
X148034571Y-119975171D01*
X148034571Y-119975171D02*
X147986952Y-119879933D01*
X147986952Y-119879933D02*
X147986952Y-119784695D01*
X147986952Y-119784695D02*
X148034571Y-119689457D01*
X148034571Y-119689457D02*
X148082190Y-119641838D01*
X148082190Y-119641838D02*
X148177428Y-119594219D01*
X148177428Y-119594219D02*
X148415523Y-119594219D01*
X148415523Y-119594219D02*
X148558380Y-119641838D01*
X148844095Y-119927552D02*
X149225047Y-119927552D01*
X148986952Y-119594219D02*
X148986952Y-120451361D01*
X148986952Y-120451361D02*
X149034571Y-120546600D01*
X149034571Y-120546600D02*
X149129809Y-120594219D01*
X149129809Y-120594219D02*
X149225047Y-120594219D01*
X149939333Y-120546600D02*
X149844095Y-120594219D01*
X149844095Y-120594219D02*
X149653619Y-120594219D01*
X149653619Y-120594219D02*
X149558381Y-120546600D01*
X149558381Y-120546600D02*
X149510762Y-120451361D01*
X149510762Y-120451361D02*
X149510762Y-120070409D01*
X149510762Y-120070409D02*
X149558381Y-119975171D01*
X149558381Y-119975171D02*
X149653619Y-119927552D01*
X149653619Y-119927552D02*
X149844095Y-119927552D01*
X149844095Y-119927552D02*
X149939333Y-119975171D01*
X149939333Y-119975171D02*
X149986952Y-120070409D01*
X149986952Y-120070409D02*
X149986952Y-120165647D01*
X149986952Y-120165647D02*
X149510762Y-120260885D01*
X150320286Y-119927552D02*
X150558381Y-120594219D01*
X150558381Y-120594219D02*
X150796476Y-119927552D01*
X151558381Y-120546600D02*
X151463143Y-120594219D01*
X151463143Y-120594219D02*
X151272667Y-120594219D01*
X151272667Y-120594219D02*
X151177429Y-120546600D01*
X151177429Y-120546600D02*
X151129810Y-120451361D01*
X151129810Y-120451361D02*
X151129810Y-120070409D01*
X151129810Y-120070409D02*
X151177429Y-119975171D01*
X151177429Y-119975171D02*
X151272667Y-119927552D01*
X151272667Y-119927552D02*
X151463143Y-119927552D01*
X151463143Y-119927552D02*
X151558381Y-119975171D01*
X151558381Y-119975171D02*
X151606000Y-120070409D01*
X151606000Y-120070409D02*
X151606000Y-120165647D01*
X151606000Y-120165647D02*
X151129810Y-120260885D01*
X153082191Y-119594219D02*
X153082191Y-120308504D01*
X153082191Y-120308504D02*
X153034572Y-120451361D01*
X153034572Y-120451361D02*
X152939334Y-120546600D01*
X152939334Y-120546600D02*
X152796477Y-120594219D01*
X152796477Y-120594219D02*
X152701239Y-120594219D01*
X153558382Y-120498980D02*
X153606001Y-120546600D01*
X153606001Y-120546600D02*
X153558382Y-120594219D01*
X153558382Y-120594219D02*
X153510763Y-120546600D01*
X153510763Y-120546600D02*
X153558382Y-120498980D01*
X153558382Y-120498980D02*
X153558382Y-120594219D01*
X155320286Y-119641838D02*
X155225048Y-119594219D01*
X155225048Y-119594219D02*
X155082191Y-119594219D01*
X155082191Y-119594219D02*
X154939334Y-119641838D01*
X154939334Y-119641838D02*
X154844096Y-119737076D01*
X154844096Y-119737076D02*
X154796477Y-119832314D01*
X154796477Y-119832314D02*
X154748858Y-120022790D01*
X154748858Y-120022790D02*
X154748858Y-120165647D01*
X154748858Y-120165647D02*
X154796477Y-120356123D01*
X154796477Y-120356123D02*
X154844096Y-120451361D01*
X154844096Y-120451361D02*
X154939334Y-120546600D01*
X154939334Y-120546600D02*
X155082191Y-120594219D01*
X155082191Y-120594219D02*
X155177429Y-120594219D01*
X155177429Y-120594219D02*
X155320286Y-120546600D01*
X155320286Y-120546600D02*
X155367905Y-120498980D01*
X155367905Y-120498980D02*
X155367905Y-120165647D01*
X155367905Y-120165647D02*
X155177429Y-120165647D01*
X155796477Y-120594219D02*
X155796477Y-119927552D01*
X155796477Y-120118028D02*
X155844096Y-120022790D01*
X155844096Y-120022790D02*
X155891715Y-119975171D01*
X155891715Y-119975171D02*
X155986953Y-119927552D01*
X155986953Y-119927552D02*
X156082191Y-119927552D01*
X156844096Y-120594219D02*
X156844096Y-120070409D01*
X156844096Y-120070409D02*
X156796477Y-119975171D01*
X156796477Y-119975171D02*
X156701239Y-119927552D01*
X156701239Y-119927552D02*
X156510763Y-119927552D01*
X156510763Y-119927552D02*
X156415525Y-119975171D01*
X156844096Y-120546600D02*
X156748858Y-120594219D01*
X156748858Y-120594219D02*
X156510763Y-120594219D01*
X156510763Y-120594219D02*
X156415525Y-120546600D01*
X156415525Y-120546600D02*
X156367906Y-120451361D01*
X156367906Y-120451361D02*
X156367906Y-120356123D01*
X156367906Y-120356123D02*
X156415525Y-120260885D01*
X156415525Y-120260885D02*
X156510763Y-120213266D01*
X156510763Y-120213266D02*
X156748858Y-120213266D01*
X156748858Y-120213266D02*
X156844096Y-120165647D01*
X157225049Y-119927552D02*
X157463144Y-120594219D01*
X157701239Y-119927552D02*
X157463144Y-120594219D01*
X157463144Y-120594219D02*
X157367906Y-120832314D01*
X157367906Y-120832314D02*
X157320287Y-120879933D01*
X157320287Y-120879933D02*
X157225049Y-120927552D01*
X133996894Y-112178809D02*
X134139751Y-112226428D01*
X134139751Y-112226428D02*
X134187370Y-112274047D01*
X134187370Y-112274047D02*
X134234989Y-112369285D01*
X134234989Y-112369285D02*
X134234989Y-112512142D01*
X134234989Y-112512142D02*
X134187370Y-112607380D01*
X134187370Y-112607380D02*
X134139751Y-112655000D01*
X134139751Y-112655000D02*
X134044513Y-112702619D01*
X134044513Y-112702619D02*
X133663561Y-112702619D01*
X133663561Y-112702619D02*
X133663561Y-111702619D01*
X133663561Y-111702619D02*
X133996894Y-111702619D01*
X133996894Y-111702619D02*
X134092132Y-111750238D01*
X134092132Y-111750238D02*
X134139751Y-111797857D01*
X134139751Y-111797857D02*
X134187370Y-111893095D01*
X134187370Y-111893095D02*
X134187370Y-111988333D01*
X134187370Y-111988333D02*
X134139751Y-112083571D01*
X134139751Y-112083571D02*
X134092132Y-112131190D01*
X134092132Y-112131190D02*
X133996894Y-112178809D01*
X133996894Y-112178809D02*
X133663561Y-112178809D01*
X135092132Y-112702619D02*
X135092132Y-112178809D01*
X135092132Y-112178809D02*
X135044513Y-112083571D01*
X135044513Y-112083571D02*
X134949275Y-112035952D01*
X134949275Y-112035952D02*
X134758799Y-112035952D01*
X134758799Y-112035952D02*
X134663561Y-112083571D01*
X135092132Y-112655000D02*
X134996894Y-112702619D01*
X134996894Y-112702619D02*
X134758799Y-112702619D01*
X134758799Y-112702619D02*
X134663561Y-112655000D01*
X134663561Y-112655000D02*
X134615942Y-112559761D01*
X134615942Y-112559761D02*
X134615942Y-112464523D01*
X134615942Y-112464523D02*
X134663561Y-112369285D01*
X134663561Y-112369285D02*
X134758799Y-112321666D01*
X134758799Y-112321666D02*
X134996894Y-112321666D01*
X134996894Y-112321666D02*
X135092132Y-112274047D01*
X135520704Y-112655000D02*
X135615942Y-112702619D01*
X135615942Y-112702619D02*
X135806418Y-112702619D01*
X135806418Y-112702619D02*
X135901656Y-112655000D01*
X135901656Y-112655000D02*
X135949275Y-112559761D01*
X135949275Y-112559761D02*
X135949275Y-112512142D01*
X135949275Y-112512142D02*
X135901656Y-112416904D01*
X135901656Y-112416904D02*
X135806418Y-112369285D01*
X135806418Y-112369285D02*
X135663561Y-112369285D01*
X135663561Y-112369285D02*
X135568323Y-112321666D01*
X135568323Y-112321666D02*
X135520704Y-112226428D01*
X135520704Y-112226428D02*
X135520704Y-112178809D01*
X135520704Y-112178809D02*
X135568323Y-112083571D01*
X135568323Y-112083571D02*
X135663561Y-112035952D01*
X135663561Y-112035952D02*
X135806418Y-112035952D01*
X135806418Y-112035952D02*
X135901656Y-112083571D01*
X136758799Y-112655000D02*
X136663561Y-112702619D01*
X136663561Y-112702619D02*
X136473085Y-112702619D01*
X136473085Y-112702619D02*
X136377847Y-112655000D01*
X136377847Y-112655000D02*
X136330228Y-112559761D01*
X136330228Y-112559761D02*
X136330228Y-112178809D01*
X136330228Y-112178809D02*
X136377847Y-112083571D01*
X136377847Y-112083571D02*
X136473085Y-112035952D01*
X136473085Y-112035952D02*
X136663561Y-112035952D01*
X136663561Y-112035952D02*
X136758799Y-112083571D01*
X136758799Y-112083571D02*
X136806418Y-112178809D01*
X136806418Y-112178809D02*
X136806418Y-112274047D01*
X136806418Y-112274047D02*
X136330228Y-112369285D01*
X137663561Y-112702619D02*
X137663561Y-111702619D01*
X137663561Y-112655000D02*
X137568323Y-112702619D01*
X137568323Y-112702619D02*
X137377847Y-112702619D01*
X137377847Y-112702619D02*
X137282609Y-112655000D01*
X137282609Y-112655000D02*
X137234990Y-112607380D01*
X137234990Y-112607380D02*
X137187371Y-112512142D01*
X137187371Y-112512142D02*
X137187371Y-112226428D01*
X137187371Y-112226428D02*
X137234990Y-112131190D01*
X137234990Y-112131190D02*
X137282609Y-112083571D01*
X137282609Y-112083571D02*
X137377847Y-112035952D01*
X137377847Y-112035952D02*
X137568323Y-112035952D01*
X137568323Y-112035952D02*
X137663561Y-112083571D01*
X139044514Y-112702619D02*
X138949276Y-112655000D01*
X138949276Y-112655000D02*
X138901657Y-112607380D01*
X138901657Y-112607380D02*
X138854038Y-112512142D01*
X138854038Y-112512142D02*
X138854038Y-112226428D01*
X138854038Y-112226428D02*
X138901657Y-112131190D01*
X138901657Y-112131190D02*
X138949276Y-112083571D01*
X138949276Y-112083571D02*
X139044514Y-112035952D01*
X139044514Y-112035952D02*
X139187371Y-112035952D01*
X139187371Y-112035952D02*
X139282609Y-112083571D01*
X139282609Y-112083571D02*
X139330228Y-112131190D01*
X139330228Y-112131190D02*
X139377847Y-112226428D01*
X139377847Y-112226428D02*
X139377847Y-112512142D01*
X139377847Y-112512142D02*
X139330228Y-112607380D01*
X139330228Y-112607380D02*
X139282609Y-112655000D01*
X139282609Y-112655000D02*
X139187371Y-112702619D01*
X139187371Y-112702619D02*
X139044514Y-112702619D01*
X139806419Y-112035952D02*
X139806419Y-112702619D01*
X139806419Y-112131190D02*
X139854038Y-112083571D01*
X139854038Y-112083571D02*
X139949276Y-112035952D01*
X139949276Y-112035952D02*
X140092133Y-112035952D01*
X140092133Y-112035952D02*
X140187371Y-112083571D01*
X140187371Y-112083571D02*
X140234990Y-112178809D01*
X140234990Y-112178809D02*
X140234990Y-112702619D01*
X141473086Y-112702619D02*
X141473086Y-111702619D01*
X141473086Y-111702619D02*
X141854038Y-111702619D01*
X141854038Y-111702619D02*
X141949276Y-111750238D01*
X141949276Y-111750238D02*
X141996895Y-111797857D01*
X141996895Y-111797857D02*
X142044514Y-111893095D01*
X142044514Y-111893095D02*
X142044514Y-112035952D01*
X142044514Y-112035952D02*
X141996895Y-112131190D01*
X141996895Y-112131190D02*
X141949276Y-112178809D01*
X141949276Y-112178809D02*
X141854038Y-112226428D01*
X141854038Y-112226428D02*
X141473086Y-112226428D01*
X142473086Y-112178809D02*
X142806419Y-112178809D01*
X142949276Y-112702619D02*
X142473086Y-112702619D01*
X142473086Y-112702619D02*
X142473086Y-111702619D01*
X142473086Y-111702619D02*
X142949276Y-111702619D01*
X143234991Y-111702619D02*
X143806419Y-111702619D01*
X143520705Y-112702619D02*
X143520705Y-111702619D01*
X144092134Y-112655000D02*
X144234991Y-112702619D01*
X144234991Y-112702619D02*
X144473086Y-112702619D01*
X144473086Y-112702619D02*
X144568324Y-112655000D01*
X144568324Y-112655000D02*
X144615943Y-112607380D01*
X144615943Y-112607380D02*
X144663562Y-112512142D01*
X144663562Y-112512142D02*
X144663562Y-112416904D01*
X144663562Y-112416904D02*
X144615943Y-112321666D01*
X144615943Y-112321666D02*
X144568324Y-112274047D01*
X144568324Y-112274047D02*
X144473086Y-112226428D01*
X144473086Y-112226428D02*
X144282610Y-112178809D01*
X144282610Y-112178809D02*
X144187372Y-112131190D01*
X144187372Y-112131190D02*
X144139753Y-112083571D01*
X144139753Y-112083571D02*
X144092134Y-111988333D01*
X144092134Y-111988333D02*
X144092134Y-111893095D01*
X144092134Y-111893095D02*
X144139753Y-111797857D01*
X144139753Y-111797857D02*
X144187372Y-111750238D01*
X144187372Y-111750238D02*
X144282610Y-111702619D01*
X144282610Y-111702619D02*
X144520705Y-111702619D01*
X144520705Y-111702619D02*
X144663562Y-111750238D01*
X145092134Y-112702619D02*
X145092134Y-111702619D01*
X145092134Y-111702619D02*
X145330229Y-111702619D01*
X145330229Y-111702619D02*
X145473086Y-111750238D01*
X145473086Y-111750238D02*
X145568324Y-111845476D01*
X145568324Y-111845476D02*
X145615943Y-111940714D01*
X145615943Y-111940714D02*
X145663562Y-112131190D01*
X145663562Y-112131190D02*
X145663562Y-112274047D01*
X145663562Y-112274047D02*
X145615943Y-112464523D01*
X145615943Y-112464523D02*
X145568324Y-112559761D01*
X145568324Y-112559761D02*
X145473086Y-112655000D01*
X145473086Y-112655000D02*
X145330229Y-112702619D01*
X145330229Y-112702619D02*
X145092134Y-112702619D01*
X146092134Y-112321666D02*
X146854039Y-112321666D01*
X146473086Y-112702619D02*
X146473086Y-111940714D01*
X135377847Y-114312619D02*
X135377847Y-113312619D01*
X135377847Y-113693571D02*
X135473085Y-113645952D01*
X135473085Y-113645952D02*
X135663561Y-113645952D01*
X135663561Y-113645952D02*
X135758799Y-113693571D01*
X135758799Y-113693571D02*
X135806418Y-113741190D01*
X135806418Y-113741190D02*
X135854037Y-113836428D01*
X135854037Y-113836428D02*
X135854037Y-114122142D01*
X135854037Y-114122142D02*
X135806418Y-114217380D01*
X135806418Y-114217380D02*
X135758799Y-114265000D01*
X135758799Y-114265000D02*
X135663561Y-114312619D01*
X135663561Y-114312619D02*
X135473085Y-114312619D01*
X135473085Y-114312619D02*
X135377847Y-114265000D01*
X136187371Y-113645952D02*
X136425466Y-114312619D01*
X136663561Y-113645952D02*
X136425466Y-114312619D01*
X136425466Y-114312619D02*
X136330228Y-114550714D01*
X136330228Y-114550714D02*
X136282609Y-114598333D01*
X136282609Y-114598333D02*
X136187371Y-114645952D01*
X137806419Y-114312619D02*
X137806419Y-113312619D01*
X137806419Y-113312619D02*
X138377847Y-114312619D01*
X138377847Y-114312619D02*
X138377847Y-113312619D01*
X138854038Y-114312619D02*
X138854038Y-113645952D01*
X138854038Y-113312619D02*
X138806419Y-113360238D01*
X138806419Y-113360238D02*
X138854038Y-113407857D01*
X138854038Y-113407857D02*
X138901657Y-113360238D01*
X138901657Y-113360238D02*
X138854038Y-113312619D01*
X138854038Y-113312619D02*
X138854038Y-113407857D01*
X139473085Y-114312619D02*
X139377847Y-114265000D01*
X139377847Y-114265000D02*
X139330228Y-114169761D01*
X139330228Y-114169761D02*
X139330228Y-113312619D01*
X139806419Y-114265000D02*
X139901657Y-114312619D01*
X139901657Y-114312619D02*
X140092133Y-114312619D01*
X140092133Y-114312619D02*
X140187371Y-114265000D01*
X140187371Y-114265000D02*
X140234990Y-114169761D01*
X140234990Y-114169761D02*
X140234990Y-114122142D01*
X140234990Y-114122142D02*
X140187371Y-114026904D01*
X140187371Y-114026904D02*
X140092133Y-113979285D01*
X140092133Y-113979285D02*
X139949276Y-113979285D01*
X139949276Y-113979285D02*
X139854038Y-113931666D01*
X139854038Y-113931666D02*
X139806419Y-113836428D01*
X139806419Y-113836428D02*
X139806419Y-113788809D01*
X139806419Y-113788809D02*
X139854038Y-113693571D01*
X139854038Y-113693571D02*
X139949276Y-113645952D01*
X139949276Y-113645952D02*
X140092133Y-113645952D01*
X140092133Y-113645952D02*
X140187371Y-113693571D01*
X141425467Y-113788809D02*
X141758800Y-113788809D01*
X141901657Y-114312619D02*
X141425467Y-114312619D01*
X141425467Y-114312619D02*
X141425467Y-113312619D01*
X141425467Y-113312619D02*
X141901657Y-113312619D01*
X142330229Y-114312619D02*
X142330229Y-113645952D01*
X142330229Y-113312619D02*
X142282610Y-113360238D01*
X142282610Y-113360238D02*
X142330229Y-113407857D01*
X142330229Y-113407857D02*
X142377848Y-113360238D01*
X142377848Y-113360238D02*
X142330229Y-113312619D01*
X142330229Y-113312619D02*
X142330229Y-113407857D01*
X142949276Y-114312619D02*
X142854038Y-114265000D01*
X142854038Y-114265000D02*
X142806419Y-114169761D01*
X142806419Y-114169761D02*
X142806419Y-113312619D01*
X143711181Y-114265000D02*
X143615943Y-114312619D01*
X143615943Y-114312619D02*
X143425467Y-114312619D01*
X143425467Y-114312619D02*
X143330229Y-114265000D01*
X143330229Y-114265000D02*
X143282610Y-114169761D01*
X143282610Y-114169761D02*
X143282610Y-113788809D01*
X143282610Y-113788809D02*
X143330229Y-113693571D01*
X143330229Y-113693571D02*
X143425467Y-113645952D01*
X143425467Y-113645952D02*
X143615943Y-113645952D01*
X143615943Y-113645952D02*
X143711181Y-113693571D01*
X143711181Y-113693571D02*
X143758800Y-113788809D01*
X143758800Y-113788809D02*
X143758800Y-113884047D01*
X143758800Y-113884047D02*
X143282610Y-113979285D01*
X144187372Y-114312619D02*
X144187372Y-113645952D01*
X144187372Y-113836428D02*
X144234991Y-113741190D01*
X144234991Y-113741190D02*
X144282610Y-113693571D01*
X144282610Y-113693571D02*
X144377848Y-113645952D01*
X144377848Y-113645952D02*
X144473086Y-113645952D01*
X144758801Y-114265000D02*
X144854039Y-114312619D01*
X144854039Y-114312619D02*
X145044515Y-114312619D01*
X145044515Y-114312619D02*
X145139753Y-114265000D01*
X145139753Y-114265000D02*
X145187372Y-114169761D01*
X145187372Y-114169761D02*
X145187372Y-114122142D01*
X145187372Y-114122142D02*
X145139753Y-114026904D01*
X145139753Y-114026904D02*
X145044515Y-113979285D01*
X145044515Y-113979285D02*
X144901658Y-113979285D01*
X144901658Y-113979285D02*
X144806420Y-113931666D01*
X144806420Y-113931666D02*
X144758801Y-113836428D01*
X144758801Y-113836428D02*
X144758801Y-113788809D01*
X144758801Y-113788809D02*
X144806420Y-113693571D01*
X144806420Y-113693571D02*
X144901658Y-113645952D01*
X144901658Y-113645952D02*
X145044515Y-113645952D01*
X145044515Y-113645952D02*
X145139753Y-113693571D01*
D12*
X162181373Y-76227871D02*
X162581373Y-76227871D01*
X162752801Y-76856442D02*
X162181373Y-76856442D01*
X162181373Y-76856442D02*
X162181373Y-75656442D01*
X162181373Y-75656442D02*
X162752801Y-75656442D01*
X163781373Y-76856442D02*
X163781373Y-75656442D01*
X163781373Y-76799300D02*
X163667087Y-76856442D01*
X163667087Y-76856442D02*
X163438515Y-76856442D01*
X163438515Y-76856442D02*
X163324230Y-76799300D01*
X163324230Y-76799300D02*
X163267087Y-76742157D01*
X163267087Y-76742157D02*
X163209944Y-76627871D01*
X163209944Y-76627871D02*
X163209944Y-76285014D01*
X163209944Y-76285014D02*
X163267087Y-76170728D01*
X163267087Y-76170728D02*
X163324230Y-76113585D01*
X163324230Y-76113585D02*
X163438515Y-76056442D01*
X163438515Y-76056442D02*
X163667087Y-76056442D01*
X163667087Y-76056442D02*
X163781373Y-76113585D01*
X164867087Y-76056442D02*
X164867087Y-77027871D01*
X164867087Y-77027871D02*
X164809944Y-77142157D01*
X164809944Y-77142157D02*
X164752801Y-77199300D01*
X164752801Y-77199300D02*
X164638515Y-77256442D01*
X164638515Y-77256442D02*
X164467087Y-77256442D01*
X164467087Y-77256442D02*
X164352801Y-77199300D01*
X164867087Y-76799300D02*
X164752801Y-76856442D01*
X164752801Y-76856442D02*
X164524229Y-76856442D01*
X164524229Y-76856442D02*
X164409944Y-76799300D01*
X164409944Y-76799300D02*
X164352801Y-76742157D01*
X164352801Y-76742157D02*
X164295658Y-76627871D01*
X164295658Y-76627871D02*
X164295658Y-76285014D01*
X164295658Y-76285014D02*
X164352801Y-76170728D01*
X164352801Y-76170728D02*
X164409944Y-76113585D01*
X164409944Y-76113585D02*
X164524229Y-76056442D01*
X164524229Y-76056442D02*
X164752801Y-76056442D01*
X164752801Y-76056442D02*
X164867087Y-76113585D01*
X165895658Y-76799300D02*
X165781372Y-76856442D01*
X165781372Y-76856442D02*
X165552801Y-76856442D01*
X165552801Y-76856442D02*
X165438515Y-76799300D01*
X165438515Y-76799300D02*
X165381372Y-76685014D01*
X165381372Y-76685014D02*
X165381372Y-76227871D01*
X165381372Y-76227871D02*
X165438515Y-76113585D01*
X165438515Y-76113585D02*
X165552801Y-76056442D01*
X165552801Y-76056442D02*
X165781372Y-76056442D01*
X165781372Y-76056442D02*
X165895658Y-76113585D01*
X165895658Y-76113585D02*
X165952801Y-76227871D01*
X165952801Y-76227871D02*
X165952801Y-76342157D01*
X165952801Y-76342157D02*
X165381372Y-76456442D01*
X168067086Y-76742157D02*
X168009943Y-76799300D01*
X168009943Y-76799300D02*
X167838515Y-76856442D01*
X167838515Y-76856442D02*
X167724229Y-76856442D01*
X167724229Y-76856442D02*
X167552800Y-76799300D01*
X167552800Y-76799300D02*
X167438515Y-76685014D01*
X167438515Y-76685014D02*
X167381372Y-76570728D01*
X167381372Y-76570728D02*
X167324229Y-76342157D01*
X167324229Y-76342157D02*
X167324229Y-76170728D01*
X167324229Y-76170728D02*
X167381372Y-75942157D01*
X167381372Y-75942157D02*
X167438515Y-75827871D01*
X167438515Y-75827871D02*
X167552800Y-75713585D01*
X167552800Y-75713585D02*
X167724229Y-75656442D01*
X167724229Y-75656442D02*
X167838515Y-75656442D01*
X167838515Y-75656442D02*
X168009943Y-75713585D01*
X168009943Y-75713585D02*
X168067086Y-75770728D01*
X168752800Y-76856442D02*
X168638515Y-76799300D01*
X168638515Y-76799300D02*
X168581372Y-76742157D01*
X168581372Y-76742157D02*
X168524229Y-76627871D01*
X168524229Y-76627871D02*
X168524229Y-76285014D01*
X168524229Y-76285014D02*
X168581372Y-76170728D01*
X168581372Y-76170728D02*
X168638515Y-76113585D01*
X168638515Y-76113585D02*
X168752800Y-76056442D01*
X168752800Y-76056442D02*
X168924229Y-76056442D01*
X168924229Y-76056442D02*
X169038515Y-76113585D01*
X169038515Y-76113585D02*
X169095658Y-76170728D01*
X169095658Y-76170728D02*
X169152800Y-76285014D01*
X169152800Y-76285014D02*
X169152800Y-76627871D01*
X169152800Y-76627871D02*
X169095658Y-76742157D01*
X169095658Y-76742157D02*
X169038515Y-76799300D01*
X169038515Y-76799300D02*
X168924229Y-76856442D01*
X168924229Y-76856442D02*
X168752800Y-76856442D01*
X169667086Y-76056442D02*
X169667086Y-76856442D01*
X169667086Y-76170728D02*
X169724229Y-76113585D01*
X169724229Y-76113585D02*
X169838514Y-76056442D01*
X169838514Y-76056442D02*
X170009943Y-76056442D01*
X170009943Y-76056442D02*
X170124229Y-76113585D01*
X170124229Y-76113585D02*
X170181372Y-76227871D01*
X170181372Y-76227871D02*
X170181372Y-76856442D01*
X170752800Y-76056442D02*
X170752800Y-76856442D01*
X170752800Y-76170728D02*
X170809943Y-76113585D01*
X170809943Y-76113585D02*
X170924228Y-76056442D01*
X170924228Y-76056442D02*
X171095657Y-76056442D01*
X171095657Y-76056442D02*
X171209943Y-76113585D01*
X171209943Y-76113585D02*
X171267086Y-76227871D01*
X171267086Y-76227871D02*
X171267086Y-76856442D01*
X172295657Y-76799300D02*
X172181371Y-76856442D01*
X172181371Y-76856442D02*
X171952800Y-76856442D01*
X171952800Y-76856442D02*
X171838514Y-76799300D01*
X171838514Y-76799300D02*
X171781371Y-76685014D01*
X171781371Y-76685014D02*
X171781371Y-76227871D01*
X171781371Y-76227871D02*
X171838514Y-76113585D01*
X171838514Y-76113585D02*
X171952800Y-76056442D01*
X171952800Y-76056442D02*
X172181371Y-76056442D01*
X172181371Y-76056442D02*
X172295657Y-76113585D01*
X172295657Y-76113585D02*
X172352800Y-76227871D01*
X172352800Y-76227871D02*
X172352800Y-76342157D01*
X172352800Y-76342157D02*
X171781371Y-76456442D01*
X173381371Y-76799300D02*
X173267085Y-76856442D01*
X173267085Y-76856442D02*
X173038513Y-76856442D01*
X173038513Y-76856442D02*
X172924228Y-76799300D01*
X172924228Y-76799300D02*
X172867085Y-76742157D01*
X172867085Y-76742157D02*
X172809942Y-76627871D01*
X172809942Y-76627871D02*
X172809942Y-76285014D01*
X172809942Y-76285014D02*
X172867085Y-76170728D01*
X172867085Y-76170728D02*
X172924228Y-76113585D01*
X172924228Y-76113585D02*
X173038513Y-76056442D01*
X173038513Y-76056442D02*
X173267085Y-76056442D01*
X173267085Y-76056442D02*
X173381371Y-76113585D01*
X173724227Y-76056442D02*
X174181370Y-76056442D01*
X173895656Y-75656442D02*
X173895656Y-76685014D01*
X173895656Y-76685014D02*
X173952799Y-76799300D01*
X173952799Y-76799300D02*
X174067084Y-76856442D01*
X174067084Y-76856442D02*
X174181370Y-76856442D01*
X174752798Y-76856442D02*
X174638513Y-76799300D01*
X174638513Y-76799300D02*
X174581370Y-76742157D01*
X174581370Y-76742157D02*
X174524227Y-76627871D01*
X174524227Y-76627871D02*
X174524227Y-76285014D01*
X174524227Y-76285014D02*
X174581370Y-76170728D01*
X174581370Y-76170728D02*
X174638513Y-76113585D01*
X174638513Y-76113585D02*
X174752798Y-76056442D01*
X174752798Y-76056442D02*
X174924227Y-76056442D01*
X174924227Y-76056442D02*
X175038513Y-76113585D01*
X175038513Y-76113585D02*
X175095656Y-76170728D01*
X175095656Y-76170728D02*
X175152798Y-76285014D01*
X175152798Y-76285014D02*
X175152798Y-76627871D01*
X175152798Y-76627871D02*
X175095656Y-76742157D01*
X175095656Y-76742157D02*
X175038513Y-76799300D01*
X175038513Y-76799300D02*
X174924227Y-76856442D01*
X174924227Y-76856442D02*
X174752798Y-76856442D01*
X175667084Y-76856442D02*
X175667084Y-76056442D01*
X175667084Y-76285014D02*
X175724227Y-76170728D01*
X175724227Y-76170728D02*
X175781370Y-76113585D01*
X175781370Y-76113585D02*
X175895655Y-76056442D01*
X175895655Y-76056442D02*
X176009941Y-76056442D01*
X181293269Y-98624314D02*
X181245650Y-98698600D01*
X181245650Y-98698600D02*
X181102793Y-98772885D01*
X181102793Y-98772885D02*
X181007555Y-98772885D01*
X181007555Y-98772885D02*
X180864698Y-98698600D01*
X180864698Y-98698600D02*
X180769460Y-98550028D01*
X180769460Y-98550028D02*
X180721841Y-98401457D01*
X180721841Y-98401457D02*
X180674222Y-98104314D01*
X180674222Y-98104314D02*
X180674222Y-97881457D01*
X180674222Y-97881457D02*
X180721841Y-97584314D01*
X180721841Y-97584314D02*
X180769460Y-97435742D01*
X180769460Y-97435742D02*
X180864698Y-97287171D01*
X180864698Y-97287171D02*
X181007555Y-97212885D01*
X181007555Y-97212885D02*
X181102793Y-97212885D01*
X181102793Y-97212885D02*
X181245650Y-97287171D01*
X181245650Y-97287171D02*
X181293269Y-97361457D01*
X181674222Y-98698600D02*
X181817079Y-98772885D01*
X181817079Y-98772885D02*
X182055174Y-98772885D01*
X182055174Y-98772885D02*
X182150412Y-98698600D01*
X182150412Y-98698600D02*
X182198031Y-98624314D01*
X182198031Y-98624314D02*
X182245650Y-98475742D01*
X182245650Y-98475742D02*
X182245650Y-98327171D01*
X182245650Y-98327171D02*
X182198031Y-98178600D01*
X182198031Y-98178600D02*
X182150412Y-98104314D01*
X182150412Y-98104314D02*
X182055174Y-98030028D01*
X182055174Y-98030028D02*
X181864698Y-97955742D01*
X181864698Y-97955742D02*
X181769460Y-97881457D01*
X181769460Y-97881457D02*
X181721841Y-97807171D01*
X181721841Y-97807171D02*
X181674222Y-97658600D01*
X181674222Y-97658600D02*
X181674222Y-97510028D01*
X181674222Y-97510028D02*
X181721841Y-97361457D01*
X181721841Y-97361457D02*
X181769460Y-97287171D01*
X181769460Y-97287171D02*
X181864698Y-97212885D01*
X181864698Y-97212885D02*
X182102793Y-97212885D01*
X182102793Y-97212885D02*
X182245650Y-97287171D01*
X180436126Y-101135914D02*
X180388507Y-101210200D01*
X180388507Y-101210200D02*
X180245650Y-101284485D01*
X180245650Y-101284485D02*
X180150412Y-101284485D01*
X180150412Y-101284485D02*
X180007555Y-101210200D01*
X180007555Y-101210200D02*
X179912317Y-101061628D01*
X179912317Y-101061628D02*
X179864698Y-100913057D01*
X179864698Y-100913057D02*
X179817079Y-100615914D01*
X179817079Y-100615914D02*
X179817079Y-100393057D01*
X179817079Y-100393057D02*
X179864698Y-100095914D01*
X179864698Y-100095914D02*
X179912317Y-99947342D01*
X179912317Y-99947342D02*
X180007555Y-99798771D01*
X180007555Y-99798771D02*
X180150412Y-99724485D01*
X180150412Y-99724485D02*
X180245650Y-99724485D01*
X180245650Y-99724485D02*
X180388507Y-99798771D01*
X180388507Y-99798771D02*
X180436126Y-99873057D01*
X181340888Y-101284485D02*
X180864698Y-101284485D01*
X180864698Y-101284485D02*
X180864698Y-99724485D01*
X181674222Y-101284485D02*
X181674222Y-99724485D01*
X182245650Y-101284485D02*
X181817079Y-100393057D01*
X182245650Y-99724485D02*
X181674222Y-100615914D01*
X180483746Y-103796085D02*
X180483746Y-102236085D01*
X180483746Y-102236085D02*
X180817079Y-103350371D01*
X180817079Y-103350371D02*
X181150412Y-102236085D01*
X181150412Y-102236085D02*
X181150412Y-103796085D01*
X181817079Y-102236085D02*
X182007555Y-102236085D01*
X182007555Y-102236085D02*
X182102793Y-102310371D01*
X182102793Y-102310371D02*
X182198031Y-102458942D01*
X182198031Y-102458942D02*
X182245650Y-102756085D01*
X182245650Y-102756085D02*
X182245650Y-103276085D01*
X182245650Y-103276085D02*
X182198031Y-103573228D01*
X182198031Y-103573228D02*
X182102793Y-103721800D01*
X182102793Y-103721800D02*
X182007555Y-103796085D01*
X182007555Y-103796085D02*
X181817079Y-103796085D01*
X181817079Y-103796085D02*
X181721841Y-103721800D01*
X181721841Y-103721800D02*
X181626603Y-103573228D01*
X181626603Y-103573228D02*
X181578984Y-103276085D01*
X181578984Y-103276085D02*
X181578984Y-102756085D01*
X181578984Y-102756085D02*
X181626603Y-102458942D01*
X181626603Y-102458942D02*
X181721841Y-102310371D01*
X181721841Y-102310371D02*
X181817079Y-102236085D01*
X180102794Y-106307685D02*
X180102794Y-104747685D01*
X180102794Y-104747685D02*
X180436127Y-105861971D01*
X180436127Y-105861971D02*
X180769460Y-104747685D01*
X180769460Y-104747685D02*
X180769460Y-106307685D01*
X181245651Y-106307685D02*
X181245651Y-104747685D01*
X181674222Y-106233400D02*
X181817079Y-106307685D01*
X181817079Y-106307685D02*
X182055174Y-106307685D01*
X182055174Y-106307685D02*
X182150412Y-106233400D01*
X182150412Y-106233400D02*
X182198031Y-106159114D01*
X182198031Y-106159114D02*
X182245650Y-106010542D01*
X182245650Y-106010542D02*
X182245650Y-105861971D01*
X182245650Y-105861971D02*
X182198031Y-105713400D01*
X182198031Y-105713400D02*
X182150412Y-105639114D01*
X182150412Y-105639114D02*
X182055174Y-105564828D01*
X182055174Y-105564828D02*
X181864698Y-105490542D01*
X181864698Y-105490542D02*
X181769460Y-105416257D01*
X181769460Y-105416257D02*
X181721841Y-105341971D01*
X181721841Y-105341971D02*
X181674222Y-105193400D01*
X181674222Y-105193400D02*
X181674222Y-105044828D01*
X181674222Y-105044828D02*
X181721841Y-104896257D01*
X181721841Y-104896257D02*
X181769460Y-104821971D01*
X181769460Y-104821971D02*
X181864698Y-104747685D01*
X181864698Y-104747685D02*
X182102793Y-104747685D01*
X182102793Y-104747685D02*
X182245650Y-104821971D01*
X181340888Y-107259285D02*
X180864698Y-107259285D01*
X180864698Y-107259285D02*
X180817079Y-108002142D01*
X180817079Y-108002142D02*
X180864698Y-107927857D01*
X180864698Y-107927857D02*
X180959936Y-107853571D01*
X180959936Y-107853571D02*
X181198031Y-107853571D01*
X181198031Y-107853571D02*
X181293269Y-107927857D01*
X181293269Y-107927857D02*
X181340888Y-108002142D01*
X181340888Y-108002142D02*
X181388507Y-108150714D01*
X181388507Y-108150714D02*
X181388507Y-108522142D01*
X181388507Y-108522142D02*
X181340888Y-108670714D01*
X181340888Y-108670714D02*
X181293269Y-108745000D01*
X181293269Y-108745000D02*
X181198031Y-108819285D01*
X181198031Y-108819285D02*
X180959936Y-108819285D01*
X180959936Y-108819285D02*
X180864698Y-108745000D01*
X180864698Y-108745000D02*
X180817079Y-108670714D01*
X181674222Y-107259285D02*
X182007555Y-108819285D01*
X182007555Y-108819285D02*
X182340888Y-107259285D01*
X180150412Y-109845171D02*
X180055174Y-109770885D01*
X180055174Y-109770885D02*
X179912317Y-109770885D01*
X179912317Y-109770885D02*
X179769460Y-109845171D01*
X179769460Y-109845171D02*
X179674222Y-109993742D01*
X179674222Y-109993742D02*
X179626603Y-110142314D01*
X179626603Y-110142314D02*
X179578984Y-110439457D01*
X179578984Y-110439457D02*
X179578984Y-110662314D01*
X179578984Y-110662314D02*
X179626603Y-110959457D01*
X179626603Y-110959457D02*
X179674222Y-111108028D01*
X179674222Y-111108028D02*
X179769460Y-111256600D01*
X179769460Y-111256600D02*
X179912317Y-111330885D01*
X179912317Y-111330885D02*
X180007555Y-111330885D01*
X180007555Y-111330885D02*
X180150412Y-111256600D01*
X180150412Y-111256600D02*
X180198031Y-111182314D01*
X180198031Y-111182314D02*
X180198031Y-110662314D01*
X180198031Y-110662314D02*
X180007555Y-110662314D01*
X180626603Y-111330885D02*
X180626603Y-109770885D01*
X180626603Y-109770885D02*
X181198031Y-111330885D01*
X181198031Y-111330885D02*
X181198031Y-109770885D01*
X181674222Y-111330885D02*
X181674222Y-109770885D01*
X181674222Y-109770885D02*
X181912317Y-109770885D01*
X181912317Y-109770885D02*
X182055174Y-109845171D01*
X182055174Y-109845171D02*
X182150412Y-109993742D01*
X182150412Y-109993742D02*
X182198031Y-110142314D01*
X182198031Y-110142314D02*
X182245650Y-110439457D01*
X182245650Y-110439457D02*
X182245650Y-110662314D01*
X182245650Y-110662314D02*
X182198031Y-110959457D01*
X182198031Y-110959457D02*
X182150412Y-111108028D01*
X182150412Y-111108028D02*
X182055174Y-111256600D01*
X182055174Y-111256600D02*
X181912317Y-111330885D01*
X181912317Y-111330885D02*
X181674222Y-111330885D01*
X165610027Y-121585842D02*
X165610027Y-120385842D01*
X166181456Y-120957271D02*
X166581456Y-120957271D01*
X166752884Y-121585842D02*
X166181456Y-121585842D01*
X166181456Y-121585842D02*
X166181456Y-120385842D01*
X166181456Y-120385842D02*
X166752884Y-120385842D01*
X167267170Y-120957271D02*
X167667170Y-120957271D01*
X167838598Y-121585842D02*
X167267170Y-121585842D01*
X167267170Y-121585842D02*
X167267170Y-120385842D01*
X167267170Y-120385842D02*
X167838598Y-120385842D01*
X168352884Y-120957271D02*
X168752884Y-120957271D01*
X168924312Y-121585842D02*
X168352884Y-121585842D01*
X168352884Y-121585842D02*
X168352884Y-120385842D01*
X168352884Y-120385842D02*
X168924312Y-120385842D01*
X170352884Y-121585842D02*
X170352884Y-120385842D01*
X170352884Y-120385842D02*
X170638598Y-120385842D01*
X170638598Y-120385842D02*
X170810027Y-120442985D01*
X170810027Y-120442985D02*
X170924312Y-120557271D01*
X170924312Y-120557271D02*
X170981455Y-120671557D01*
X170981455Y-120671557D02*
X171038598Y-120900128D01*
X171038598Y-120900128D02*
X171038598Y-121071557D01*
X171038598Y-121071557D02*
X170981455Y-121300128D01*
X170981455Y-121300128D02*
X170924312Y-121414414D01*
X170924312Y-121414414D02*
X170810027Y-121528700D01*
X170810027Y-121528700D02*
X170638598Y-121585842D01*
X170638598Y-121585842D02*
X170352884Y-121585842D01*
X172010027Y-121528700D02*
X171895741Y-121585842D01*
X171895741Y-121585842D02*
X171667170Y-121585842D01*
X171667170Y-121585842D02*
X171552884Y-121528700D01*
X171552884Y-121528700D02*
X171495741Y-121414414D01*
X171495741Y-121414414D02*
X171495741Y-120957271D01*
X171495741Y-120957271D02*
X171552884Y-120842985D01*
X171552884Y-120842985D02*
X171667170Y-120785842D01*
X171667170Y-120785842D02*
X171895741Y-120785842D01*
X171895741Y-120785842D02*
X172010027Y-120842985D01*
X172010027Y-120842985D02*
X172067170Y-120957271D01*
X172067170Y-120957271D02*
X172067170Y-121071557D01*
X172067170Y-121071557D02*
X171495741Y-121185842D01*
X172467169Y-120785842D02*
X172752883Y-121585842D01*
X172752883Y-121585842D02*
X173038598Y-120785842D01*
X173495741Y-121585842D02*
X173495741Y-120785842D01*
X173495741Y-120385842D02*
X173438598Y-120442985D01*
X173438598Y-120442985D02*
X173495741Y-120500128D01*
X173495741Y-120500128D02*
X173552884Y-120442985D01*
X173552884Y-120442985D02*
X173495741Y-120385842D01*
X173495741Y-120385842D02*
X173495741Y-120500128D01*
X174581456Y-121528700D02*
X174467170Y-121585842D01*
X174467170Y-121585842D02*
X174238598Y-121585842D01*
X174238598Y-121585842D02*
X174124313Y-121528700D01*
X174124313Y-121528700D02*
X174067170Y-121471557D01*
X174067170Y-121471557D02*
X174010027Y-121357271D01*
X174010027Y-121357271D02*
X174010027Y-121014414D01*
X174010027Y-121014414D02*
X174067170Y-120900128D01*
X174067170Y-120900128D02*
X174124313Y-120842985D01*
X174124313Y-120842985D02*
X174238598Y-120785842D01*
X174238598Y-120785842D02*
X174467170Y-120785842D01*
X174467170Y-120785842D02*
X174581456Y-120842985D01*
X175552884Y-121528700D02*
X175438598Y-121585842D01*
X175438598Y-121585842D02*
X175210027Y-121585842D01*
X175210027Y-121585842D02*
X175095741Y-121528700D01*
X175095741Y-121528700D02*
X175038598Y-121414414D01*
X175038598Y-121414414D02*
X175038598Y-120957271D01*
X175038598Y-120957271D02*
X175095741Y-120842985D01*
X175095741Y-120842985D02*
X175210027Y-120785842D01*
X175210027Y-120785842D02*
X175438598Y-120785842D01*
X175438598Y-120785842D02*
X175552884Y-120842985D01*
X175552884Y-120842985D02*
X175610027Y-120957271D01*
X175610027Y-120957271D02*
X175610027Y-121071557D01*
X175610027Y-121071557D02*
X175038598Y-121185842D01*
X176067169Y-121528700D02*
X176181455Y-121585842D01*
X176181455Y-121585842D02*
X176410026Y-121585842D01*
X176410026Y-121585842D02*
X176524312Y-121528700D01*
X176524312Y-121528700D02*
X176581455Y-121414414D01*
X176581455Y-121414414D02*
X176581455Y-121357271D01*
X176581455Y-121357271D02*
X176524312Y-121242985D01*
X176524312Y-121242985D02*
X176410026Y-121185842D01*
X176410026Y-121185842D02*
X176238598Y-121185842D01*
X176238598Y-121185842D02*
X176124312Y-121128700D01*
X176124312Y-121128700D02*
X176067169Y-121014414D01*
X176067169Y-121014414D02*
X176067169Y-120957271D01*
X176067169Y-120957271D02*
X176124312Y-120842985D01*
X176124312Y-120842985D02*
X176238598Y-120785842D01*
X176238598Y-120785842D02*
X176410026Y-120785842D01*
X176410026Y-120785842D02*
X176524312Y-120842985D01*
D15*
X184114228Y-67138095D02*
X184161847Y-67090476D01*
X184161847Y-67090476D02*
X184304704Y-66995238D01*
X184304704Y-66995238D02*
X184399942Y-66947619D01*
X184399942Y-66947619D02*
X184542800Y-66900000D01*
X184542800Y-66900000D02*
X184780895Y-66852381D01*
X184780895Y-66852381D02*
X184971371Y-66852381D01*
X184971371Y-66852381D02*
X185209466Y-66900000D01*
X185209466Y-66900000D02*
X185352323Y-66947619D01*
X185352323Y-66947619D02*
X185447561Y-66995238D01*
X185447561Y-66995238D02*
X185590419Y-67090476D01*
X185590419Y-67090476D02*
X185638038Y-67138095D01*
X184876133Y-67519048D02*
X184876133Y-68280953D01*
X184495180Y-67900000D02*
X185257085Y-67900000D01*
X184114228Y-68661905D02*
X184161847Y-68709524D01*
X184161847Y-68709524D02*
X184304704Y-68804762D01*
X184304704Y-68804762D02*
X184399942Y-68852381D01*
X184399942Y-68852381D02*
X184542800Y-68900000D01*
X184542800Y-68900000D02*
X184780895Y-68947619D01*
X184780895Y-68947619D02*
X184971371Y-68947619D01*
X184971371Y-68947619D02*
X185209466Y-68900000D01*
X185209466Y-68900000D02*
X185352323Y-68852381D01*
X185352323Y-68852381D02*
X185447561Y-68804762D01*
X185447561Y-68804762D02*
X185590419Y-68709524D01*
X185590419Y-68709524D02*
X185638038Y-68661905D01*
D11*
X119851714Y-72970406D02*
X120625810Y-72970406D01*
X120238762Y-73357453D02*
X120238762Y-72583358D01*
X121593429Y-72341453D02*
X121109619Y-72341453D01*
X121109619Y-72341453D02*
X121061238Y-72825263D01*
X121061238Y-72825263D02*
X121109619Y-72776882D01*
X121109619Y-72776882D02*
X121206381Y-72728501D01*
X121206381Y-72728501D02*
X121448286Y-72728501D01*
X121448286Y-72728501D02*
X121545048Y-72776882D01*
X121545048Y-72776882D02*
X121593429Y-72825263D01*
X121593429Y-72825263D02*
X121641810Y-72922025D01*
X121641810Y-72922025D02*
X121641810Y-73163930D01*
X121641810Y-73163930D02*
X121593429Y-73260692D01*
X121593429Y-73260692D02*
X121545048Y-73309073D01*
X121545048Y-73309073D02*
X121448286Y-73357453D01*
X121448286Y-73357453D02*
X121206381Y-73357453D01*
X121206381Y-73357453D02*
X121109619Y-73309073D01*
X121109619Y-73309073D02*
X121061238Y-73260692D01*
X121932095Y-72341453D02*
X122270762Y-73357453D01*
X122270762Y-73357453D02*
X122609429Y-72341453D01*
D14*
X136747809Y-87486938D02*
X138081142Y-87486938D01*
X138081142Y-87486938D02*
X137223999Y-89486938D01*
X139795428Y-87486938D02*
X138843047Y-87486938D01*
X138843047Y-87486938D02*
X138747809Y-88439319D01*
X138747809Y-88439319D02*
X138843047Y-88344080D01*
X138843047Y-88344080D02*
X139033523Y-88248842D01*
X139033523Y-88248842D02*
X139509714Y-88248842D01*
X139509714Y-88248842D02*
X139700190Y-88344080D01*
X139700190Y-88344080D02*
X139795428Y-88439319D01*
X139795428Y-88439319D02*
X139890666Y-88629795D01*
X139890666Y-88629795D02*
X139890666Y-89105985D01*
X139890666Y-89105985D02*
X139795428Y-89296461D01*
X139795428Y-89296461D02*
X139700190Y-89391700D01*
X139700190Y-89391700D02*
X139509714Y-89486938D01*
X139509714Y-89486938D02*
X139033523Y-89486938D01*
X139033523Y-89486938D02*
X138843047Y-89391700D01*
X138843047Y-89391700D02*
X138747809Y-89296461D01*
X141795428Y-89486938D02*
X140652571Y-89486938D01*
X141223999Y-89486938D02*
X141223999Y-87486938D01*
X141223999Y-87486938D02*
X141033523Y-87772652D01*
X141033523Y-87772652D02*
X140843047Y-87963128D01*
X140843047Y-87963128D02*
X140652571Y-88058366D01*
X143509714Y-87486938D02*
X143128761Y-87486938D01*
X143128761Y-87486938D02*
X142938285Y-87582176D01*
X142938285Y-87582176D02*
X142843047Y-87677414D01*
X142843047Y-87677414D02*
X142652571Y-87963128D01*
X142652571Y-87963128D02*
X142557333Y-88344080D01*
X142557333Y-88344080D02*
X142557333Y-89105985D01*
X142557333Y-89105985D02*
X142652571Y-89296461D01*
X142652571Y-89296461D02*
X142747809Y-89391700D01*
X142747809Y-89391700D02*
X142938285Y-89486938D01*
X142938285Y-89486938D02*
X143319238Y-89486938D01*
X143319238Y-89486938D02*
X143509714Y-89391700D01*
X143509714Y-89391700D02*
X143604952Y-89296461D01*
X143604952Y-89296461D02*
X143700190Y-89105985D01*
X143700190Y-89105985D02*
X143700190Y-88629795D01*
X143700190Y-88629795D02*
X143604952Y-88439319D01*
X143604952Y-88439319D02*
X143509714Y-88344080D01*
X143509714Y-88344080D02*
X143319238Y-88248842D01*
X143319238Y-88248842D02*
X142938285Y-88248842D01*
X142938285Y-88248842D02*
X142747809Y-88344080D01*
X142747809Y-88344080D02*
X142652571Y-88439319D01*
X142652571Y-88439319D02*
X142557333Y-88629795D01*
X144938285Y-87486938D02*
X145128762Y-87486938D01*
X145128762Y-87486938D02*
X145319238Y-87582176D01*
X145319238Y-87582176D02*
X145414476Y-87677414D01*
X145414476Y-87677414D02*
X145509714Y-87867890D01*
X145509714Y-87867890D02*
X145604952Y-88248842D01*
X145604952Y-88248842D02*
X145604952Y-88725033D01*
X145604952Y-88725033D02*
X145509714Y-89105985D01*
X145509714Y-89105985D02*
X145414476Y-89296461D01*
X145414476Y-89296461D02*
X145319238Y-89391700D01*
X145319238Y-89391700D02*
X145128762Y-89486938D01*
X145128762Y-89486938D02*
X144938285Y-89486938D01*
X144938285Y-89486938D02*
X144747809Y-89391700D01*
X144747809Y-89391700D02*
X144652571Y-89296461D01*
X144652571Y-89296461D02*
X144557333Y-89105985D01*
X144557333Y-89105985D02*
X144462095Y-88725033D01*
X144462095Y-88725033D02*
X144462095Y-88248842D01*
X144462095Y-88248842D02*
X144557333Y-87867890D01*
X144557333Y-87867890D02*
X144652571Y-87677414D01*
X144652571Y-87677414D02*
X144747809Y-87582176D01*
X144747809Y-87582176D02*
X144938285Y-87486938D01*
D12*
X131695114Y-77766003D02*
X131769400Y-77813622D01*
X131769400Y-77813622D02*
X131843685Y-77956479D01*
X131843685Y-77956479D02*
X131843685Y-78051717D01*
X131843685Y-78051717D02*
X131769400Y-78194574D01*
X131769400Y-78194574D02*
X131620828Y-78289812D01*
X131620828Y-78289812D02*
X131472257Y-78337431D01*
X131472257Y-78337431D02*
X131175114Y-78385050D01*
X131175114Y-78385050D02*
X130952257Y-78385050D01*
X130952257Y-78385050D02*
X130655114Y-78337431D01*
X130655114Y-78337431D02*
X130506542Y-78289812D01*
X130506542Y-78289812D02*
X130357971Y-78194574D01*
X130357971Y-78194574D02*
X130283685Y-78051717D01*
X130283685Y-78051717D02*
X130283685Y-77956479D01*
X130283685Y-77956479D02*
X130357971Y-77813622D01*
X130357971Y-77813622D02*
X130432257Y-77766003D01*
X131769400Y-77385050D02*
X131843685Y-77242193D01*
X131843685Y-77242193D02*
X131843685Y-77004098D01*
X131843685Y-77004098D02*
X131769400Y-76908860D01*
X131769400Y-76908860D02*
X131695114Y-76861241D01*
X131695114Y-76861241D02*
X131546542Y-76813622D01*
X131546542Y-76813622D02*
X131397971Y-76813622D01*
X131397971Y-76813622D02*
X131249400Y-76861241D01*
X131249400Y-76861241D02*
X131175114Y-76908860D01*
X131175114Y-76908860D02*
X131100828Y-77004098D01*
X131100828Y-77004098D02*
X131026542Y-77194574D01*
X131026542Y-77194574D02*
X130952257Y-77289812D01*
X130952257Y-77289812D02*
X130877971Y-77337431D01*
X130877971Y-77337431D02*
X130729400Y-77385050D01*
X130729400Y-77385050D02*
X130580828Y-77385050D01*
X130580828Y-77385050D02*
X130432257Y-77337431D01*
X130432257Y-77337431D02*
X130357971Y-77289812D01*
X130357971Y-77289812D02*
X130283685Y-77194574D01*
X130283685Y-77194574D02*
X130283685Y-76956479D01*
X130283685Y-76956479D02*
X130357971Y-76813622D01*
X134206714Y-77766003D02*
X134281000Y-77813622D01*
X134281000Y-77813622D02*
X134355285Y-77956479D01*
X134355285Y-77956479D02*
X134355285Y-78051717D01*
X134355285Y-78051717D02*
X134281000Y-78194574D01*
X134281000Y-78194574D02*
X134132428Y-78289812D01*
X134132428Y-78289812D02*
X133983857Y-78337431D01*
X133983857Y-78337431D02*
X133686714Y-78385050D01*
X133686714Y-78385050D02*
X133463857Y-78385050D01*
X133463857Y-78385050D02*
X133166714Y-78337431D01*
X133166714Y-78337431D02*
X133018142Y-78289812D01*
X133018142Y-78289812D02*
X132869571Y-78194574D01*
X132869571Y-78194574D02*
X132795285Y-78051717D01*
X132795285Y-78051717D02*
X132795285Y-77956479D01*
X132795285Y-77956479D02*
X132869571Y-77813622D01*
X132869571Y-77813622D02*
X132943857Y-77766003D01*
X134355285Y-76861241D02*
X134355285Y-77337431D01*
X134355285Y-77337431D02*
X132795285Y-77337431D01*
X134355285Y-76527907D02*
X132795285Y-76527907D01*
X134355285Y-75956479D02*
X133463857Y-76385050D01*
X132795285Y-75956479D02*
X133686714Y-76527907D01*
X136866885Y-78337431D02*
X135306885Y-78337431D01*
X135306885Y-78337431D02*
X136421171Y-78004098D01*
X136421171Y-78004098D02*
X135306885Y-77670765D01*
X135306885Y-77670765D02*
X136866885Y-77670765D01*
X135306885Y-77004098D02*
X135306885Y-76813622D01*
X135306885Y-76813622D02*
X135381171Y-76718384D01*
X135381171Y-76718384D02*
X135529742Y-76623146D01*
X135529742Y-76623146D02*
X135826885Y-76575527D01*
X135826885Y-76575527D02*
X136346885Y-76575527D01*
X136346885Y-76575527D02*
X136644028Y-76623146D01*
X136644028Y-76623146D02*
X136792600Y-76718384D01*
X136792600Y-76718384D02*
X136866885Y-76813622D01*
X136866885Y-76813622D02*
X136866885Y-77004098D01*
X136866885Y-77004098D02*
X136792600Y-77099336D01*
X136792600Y-77099336D02*
X136644028Y-77194574D01*
X136644028Y-77194574D02*
X136346885Y-77242193D01*
X136346885Y-77242193D02*
X135826885Y-77242193D01*
X135826885Y-77242193D02*
X135529742Y-77194574D01*
X135529742Y-77194574D02*
X135381171Y-77099336D01*
X135381171Y-77099336D02*
X135306885Y-77004098D01*
X139378485Y-78337431D02*
X137818485Y-78337431D01*
X137818485Y-78337431D02*
X138932771Y-78004098D01*
X138932771Y-78004098D02*
X137818485Y-77670765D01*
X137818485Y-77670765D02*
X139378485Y-77670765D01*
X139378485Y-77194574D02*
X137818485Y-77194574D01*
X139304200Y-76766003D02*
X139378485Y-76623146D01*
X139378485Y-76623146D02*
X139378485Y-76385051D01*
X139378485Y-76385051D02*
X139304200Y-76289813D01*
X139304200Y-76289813D02*
X139229914Y-76242194D01*
X139229914Y-76242194D02*
X139081342Y-76194575D01*
X139081342Y-76194575D02*
X138932771Y-76194575D01*
X138932771Y-76194575D02*
X138784200Y-76242194D01*
X138784200Y-76242194D02*
X138709914Y-76289813D01*
X138709914Y-76289813D02*
X138635628Y-76385051D01*
X138635628Y-76385051D02*
X138561342Y-76575527D01*
X138561342Y-76575527D02*
X138487057Y-76670765D01*
X138487057Y-76670765D02*
X138412771Y-76718384D01*
X138412771Y-76718384D02*
X138264200Y-76766003D01*
X138264200Y-76766003D02*
X138115628Y-76766003D01*
X138115628Y-76766003D02*
X137967057Y-76718384D01*
X137967057Y-76718384D02*
X137892771Y-76670765D01*
X137892771Y-76670765D02*
X137818485Y-76575527D01*
X137818485Y-76575527D02*
X137818485Y-76337432D01*
X137818485Y-76337432D02*
X137892771Y-76194575D01*
X140330085Y-77861241D02*
X140330085Y-78337431D01*
X140330085Y-78337431D02*
X141072942Y-78385050D01*
X141072942Y-78385050D02*
X140998657Y-78337431D01*
X140998657Y-78337431D02*
X140924371Y-78242193D01*
X140924371Y-78242193D02*
X140924371Y-78004098D01*
X140924371Y-78004098D02*
X140998657Y-77908860D01*
X140998657Y-77908860D02*
X141072942Y-77861241D01*
X141072942Y-77861241D02*
X141221514Y-77813622D01*
X141221514Y-77813622D02*
X141592942Y-77813622D01*
X141592942Y-77813622D02*
X141741514Y-77861241D01*
X141741514Y-77861241D02*
X141815800Y-77908860D01*
X141815800Y-77908860D02*
X141890085Y-78004098D01*
X141890085Y-78004098D02*
X141890085Y-78242193D01*
X141890085Y-78242193D02*
X141815800Y-78337431D01*
X141815800Y-78337431D02*
X141741514Y-78385050D01*
X140330085Y-77527907D02*
X141890085Y-77194574D01*
X141890085Y-77194574D02*
X140330085Y-76861241D01*
X142915971Y-77813622D02*
X142841685Y-77908860D01*
X142841685Y-77908860D02*
X142841685Y-78051717D01*
X142841685Y-78051717D02*
X142915971Y-78194574D01*
X142915971Y-78194574D02*
X143064542Y-78289812D01*
X143064542Y-78289812D02*
X143213114Y-78337431D01*
X143213114Y-78337431D02*
X143510257Y-78385050D01*
X143510257Y-78385050D02*
X143733114Y-78385050D01*
X143733114Y-78385050D02*
X144030257Y-78337431D01*
X144030257Y-78337431D02*
X144178828Y-78289812D01*
X144178828Y-78289812D02*
X144327400Y-78194574D01*
X144327400Y-78194574D02*
X144401685Y-78051717D01*
X144401685Y-78051717D02*
X144401685Y-77956479D01*
X144401685Y-77956479D02*
X144327400Y-77813622D01*
X144327400Y-77813622D02*
X144253114Y-77766003D01*
X144253114Y-77766003D02*
X143733114Y-77766003D01*
X143733114Y-77766003D02*
X143733114Y-77956479D01*
X144401685Y-77337431D02*
X142841685Y-77337431D01*
X142841685Y-77337431D02*
X144401685Y-76766003D01*
X144401685Y-76766003D02*
X142841685Y-76766003D01*
X144401685Y-76289812D02*
X142841685Y-76289812D01*
X142841685Y-76289812D02*
X142841685Y-76051717D01*
X142841685Y-76051717D02*
X142915971Y-75908860D01*
X142915971Y-75908860D02*
X143064542Y-75813622D01*
X143064542Y-75813622D02*
X143213114Y-75766003D01*
X143213114Y-75766003D02*
X143510257Y-75718384D01*
X143510257Y-75718384D02*
X143733114Y-75718384D01*
X143733114Y-75718384D02*
X144030257Y-75766003D01*
X144030257Y-75766003D02*
X144178828Y-75813622D01*
X144178828Y-75813622D02*
X144327400Y-75908860D01*
X144327400Y-75908860D02*
X144401685Y-76051717D01*
X144401685Y-76051717D02*
X144401685Y-76289812D01*
D13*
X159617857Y-118747457D02*
X159665476Y-118699838D01*
X159665476Y-118699838D02*
X159760714Y-118652219D01*
X159760714Y-118652219D02*
X159998809Y-118652219D01*
X159998809Y-118652219D02*
X160094047Y-118699838D01*
X160094047Y-118699838D02*
X160141666Y-118747457D01*
X160141666Y-118747457D02*
X160189285Y-118842695D01*
X160189285Y-118842695D02*
X160189285Y-118937933D01*
X160189285Y-118937933D02*
X160141666Y-119080790D01*
X160141666Y-119080790D02*
X159570238Y-119652219D01*
X159570238Y-119652219D02*
X160189285Y-119652219D01*
X160808333Y-118652219D02*
X160903571Y-118652219D01*
X160903571Y-118652219D02*
X160998809Y-118699838D01*
X160998809Y-118699838D02*
X161046428Y-118747457D01*
X161046428Y-118747457D02*
X161094047Y-118842695D01*
X161094047Y-118842695D02*
X161141666Y-119033171D01*
X161141666Y-119033171D02*
X161141666Y-119271266D01*
X161141666Y-119271266D02*
X161094047Y-119461742D01*
X161094047Y-119461742D02*
X161046428Y-119556980D01*
X161046428Y-119556980D02*
X160998809Y-119604600D01*
X160998809Y-119604600D02*
X160903571Y-119652219D01*
X160903571Y-119652219D02*
X160808333Y-119652219D01*
X160808333Y-119652219D02*
X160713095Y-119604600D01*
X160713095Y-119604600D02*
X160665476Y-119556980D01*
X160665476Y-119556980D02*
X160617857Y-119461742D01*
X160617857Y-119461742D02*
X160570238Y-119271266D01*
X160570238Y-119271266D02*
X160570238Y-119033171D01*
X160570238Y-119033171D02*
X160617857Y-118842695D01*
X160617857Y-118842695D02*
X160665476Y-118747457D01*
X160665476Y-118747457D02*
X160713095Y-118699838D01*
X160713095Y-118699838D02*
X160808333Y-118652219D01*
X161522619Y-118747457D02*
X161570238Y-118699838D01*
X161570238Y-118699838D02*
X161665476Y-118652219D01*
X161665476Y-118652219D02*
X161903571Y-118652219D01*
X161903571Y-118652219D02*
X161998809Y-118699838D01*
X161998809Y-118699838D02*
X162046428Y-118747457D01*
X162046428Y-118747457D02*
X162094047Y-118842695D01*
X162094047Y-118842695D02*
X162094047Y-118937933D01*
X162094047Y-118937933D02*
X162046428Y-119080790D01*
X162046428Y-119080790D02*
X161475000Y-119652219D01*
X161475000Y-119652219D02*
X162094047Y-119652219D01*
X162951190Y-118985552D02*
X162951190Y-119652219D01*
X162713095Y-118604600D02*
X162475000Y-119318885D01*
X162475000Y-119318885D02*
X163094047Y-119318885D01*
X163475000Y-119271266D02*
X164236905Y-119271266D01*
X164903571Y-118652219D02*
X164998809Y-118652219D01*
X164998809Y-118652219D02*
X165094047Y-118699838D01*
X165094047Y-118699838D02*
X165141666Y-118747457D01*
X165141666Y-118747457D02*
X165189285Y-118842695D01*
X165189285Y-118842695D02*
X165236904Y-119033171D01*
X165236904Y-119033171D02*
X165236904Y-119271266D01*
X165236904Y-119271266D02*
X165189285Y-119461742D01*
X165189285Y-119461742D02*
X165141666Y-119556980D01*
X165141666Y-119556980D02*
X165094047Y-119604600D01*
X165094047Y-119604600D02*
X164998809Y-119652219D01*
X164998809Y-119652219D02*
X164903571Y-119652219D01*
X164903571Y-119652219D02*
X164808333Y-119604600D01*
X164808333Y-119604600D02*
X164760714Y-119556980D01*
X164760714Y-119556980D02*
X164713095Y-119461742D01*
X164713095Y-119461742D02*
X164665476Y-119271266D01*
X164665476Y-119271266D02*
X164665476Y-119033171D01*
X164665476Y-119033171D02*
X164713095Y-118842695D01*
X164713095Y-118842695D02*
X164760714Y-118747457D01*
X164760714Y-118747457D02*
X164808333Y-118699838D01*
X164808333Y-118699838D02*
X164903571Y-118652219D01*
X165617857Y-118747457D02*
X165665476Y-118699838D01*
X165665476Y-118699838D02*
X165760714Y-118652219D01*
X165760714Y-118652219D02*
X165998809Y-118652219D01*
X165998809Y-118652219D02*
X166094047Y-118699838D01*
X166094047Y-118699838D02*
X166141666Y-118747457D01*
X166141666Y-118747457D02*
X166189285Y-118842695D01*
X166189285Y-118842695D02*
X166189285Y-118937933D01*
X166189285Y-118937933D02*
X166141666Y-119080790D01*
X166141666Y-119080790D02*
X165570238Y-119652219D01*
X165570238Y-119652219D02*
X166189285Y-119652219D01*
X166617857Y-119271266D02*
X167379762Y-119271266D01*
X167808333Y-118747457D02*
X167855952Y-118699838D01*
X167855952Y-118699838D02*
X167951190Y-118652219D01*
X167951190Y-118652219D02*
X168189285Y-118652219D01*
X168189285Y-118652219D02*
X168284523Y-118699838D01*
X168284523Y-118699838D02*
X168332142Y-118747457D01*
X168332142Y-118747457D02*
X168379761Y-118842695D01*
X168379761Y-118842695D02*
X168379761Y-118937933D01*
X168379761Y-118937933D02*
X168332142Y-119080790D01*
X168332142Y-119080790D02*
X167760714Y-119652219D01*
X167760714Y-119652219D02*
X168379761Y-119652219D01*
X169332142Y-119652219D02*
X168760714Y-119652219D01*
X169046428Y-119652219D02*
X169046428Y-118652219D01*
X169046428Y-118652219D02*
X168951190Y-118795076D01*
X168951190Y-118795076D02*
X168855952Y-118890314D01*
X168855952Y-118890314D02*
X168760714Y-118937933D01*
D14*
X133186904Y-101073009D02*
X134139285Y-101073009D01*
X132996428Y-101644438D02*
X133663094Y-99644438D01*
X133663094Y-99644438D02*
X134329761Y-101644438D01*
X134710714Y-99644438D02*
X135853571Y-99644438D01*
X135282142Y-101644438D02*
X135282142Y-99644438D01*
X136520238Y-101644438D02*
X136520238Y-100311104D01*
X136520238Y-100501580D02*
X136615476Y-100406342D01*
X136615476Y-100406342D02*
X136805952Y-100311104D01*
X136805952Y-100311104D02*
X137091667Y-100311104D01*
X137091667Y-100311104D02*
X137282143Y-100406342D01*
X137282143Y-100406342D02*
X137377381Y-100596819D01*
X137377381Y-100596819D02*
X137377381Y-101644438D01*
X137377381Y-100596819D02*
X137472619Y-100406342D01*
X137472619Y-100406342D02*
X137663095Y-100311104D01*
X137663095Y-100311104D02*
X137948809Y-100311104D01*
X137948809Y-100311104D02*
X138139286Y-100406342D01*
X138139286Y-100406342D02*
X138234524Y-100596819D01*
X138234524Y-100596819D02*
X138234524Y-101644438D01*
X139948810Y-101549200D02*
X139758334Y-101644438D01*
X139758334Y-101644438D02*
X139377381Y-101644438D01*
X139377381Y-101644438D02*
X139186905Y-101549200D01*
X139186905Y-101549200D02*
X139091667Y-101358723D01*
X139091667Y-101358723D02*
X139091667Y-100596819D01*
X139091667Y-100596819D02*
X139186905Y-100406342D01*
X139186905Y-100406342D02*
X139377381Y-100311104D01*
X139377381Y-100311104D02*
X139758334Y-100311104D01*
X139758334Y-100311104D02*
X139948810Y-100406342D01*
X139948810Y-100406342D02*
X140044048Y-100596819D01*
X140044048Y-100596819D02*
X140044048Y-100787295D01*
X140044048Y-100787295D02*
X139091667Y-100977771D01*
X141758334Y-100311104D02*
X141758334Y-101930152D01*
X141758334Y-101930152D02*
X141663096Y-102120628D01*
X141663096Y-102120628D02*
X141567858Y-102215866D01*
X141567858Y-102215866D02*
X141377381Y-102311104D01*
X141377381Y-102311104D02*
X141091667Y-102311104D01*
X141091667Y-102311104D02*
X140901191Y-102215866D01*
X141758334Y-101549200D02*
X141567858Y-101644438D01*
X141567858Y-101644438D02*
X141186905Y-101644438D01*
X141186905Y-101644438D02*
X140996429Y-101549200D01*
X140996429Y-101549200D02*
X140901191Y-101453961D01*
X140901191Y-101453961D02*
X140805953Y-101263485D01*
X140805953Y-101263485D02*
X140805953Y-100692057D01*
X140805953Y-100692057D02*
X140901191Y-100501580D01*
X140901191Y-100501580D02*
X140996429Y-100406342D01*
X140996429Y-100406342D02*
X141186905Y-100311104D01*
X141186905Y-100311104D02*
X141567858Y-100311104D01*
X141567858Y-100311104D02*
X141758334Y-100406342D01*
X143567858Y-101644438D02*
X143567858Y-100596819D01*
X143567858Y-100596819D02*
X143472620Y-100406342D01*
X143472620Y-100406342D02*
X143282144Y-100311104D01*
X143282144Y-100311104D02*
X142901191Y-100311104D01*
X142901191Y-100311104D02*
X142710715Y-100406342D01*
X143567858Y-101549200D02*
X143377382Y-101644438D01*
X143377382Y-101644438D02*
X142901191Y-101644438D01*
X142901191Y-101644438D02*
X142710715Y-101549200D01*
X142710715Y-101549200D02*
X142615477Y-101358723D01*
X142615477Y-101358723D02*
X142615477Y-101168247D01*
X142615477Y-101168247D02*
X142710715Y-100977771D01*
X142710715Y-100977771D02*
X142901191Y-100882533D01*
X142901191Y-100882533D02*
X143377382Y-100882533D01*
X143377382Y-100882533D02*
X143567858Y-100787295D01*
X135139285Y-104864438D02*
X133996428Y-104864438D01*
X134567856Y-104864438D02*
X134567856Y-102864438D01*
X134567856Y-102864438D02*
X134377380Y-103150152D01*
X134377380Y-103150152D02*
X134186904Y-103340628D01*
X134186904Y-103340628D02*
X133996428Y-103435866D01*
X135901190Y-103054914D02*
X135996428Y-102959676D01*
X135996428Y-102959676D02*
X136186904Y-102864438D01*
X136186904Y-102864438D02*
X136663095Y-102864438D01*
X136663095Y-102864438D02*
X136853571Y-102959676D01*
X136853571Y-102959676D02*
X136948809Y-103054914D01*
X136948809Y-103054914D02*
X137044047Y-103245390D01*
X137044047Y-103245390D02*
X137044047Y-103435866D01*
X137044047Y-103435866D02*
X136948809Y-103721580D01*
X136948809Y-103721580D02*
X135805952Y-104864438D01*
X135805952Y-104864438D02*
X137044047Y-104864438D01*
X138186904Y-103721580D02*
X137996428Y-103626342D01*
X137996428Y-103626342D02*
X137901190Y-103531104D01*
X137901190Y-103531104D02*
X137805952Y-103340628D01*
X137805952Y-103340628D02*
X137805952Y-103245390D01*
X137805952Y-103245390D02*
X137901190Y-103054914D01*
X137901190Y-103054914D02*
X137996428Y-102959676D01*
X137996428Y-102959676D02*
X138186904Y-102864438D01*
X138186904Y-102864438D02*
X138567857Y-102864438D01*
X138567857Y-102864438D02*
X138758333Y-102959676D01*
X138758333Y-102959676D02*
X138853571Y-103054914D01*
X138853571Y-103054914D02*
X138948809Y-103245390D01*
X138948809Y-103245390D02*
X138948809Y-103340628D01*
X138948809Y-103340628D02*
X138853571Y-103531104D01*
X138853571Y-103531104D02*
X138758333Y-103626342D01*
X138758333Y-103626342D02*
X138567857Y-103721580D01*
X138567857Y-103721580D02*
X138186904Y-103721580D01*
X138186904Y-103721580D02*
X137996428Y-103816819D01*
X137996428Y-103816819D02*
X137901190Y-103912057D01*
X137901190Y-103912057D02*
X137805952Y-104102533D01*
X137805952Y-104102533D02*
X137805952Y-104483485D01*
X137805952Y-104483485D02*
X137901190Y-104673961D01*
X137901190Y-104673961D02*
X137996428Y-104769200D01*
X137996428Y-104769200D02*
X138186904Y-104864438D01*
X138186904Y-104864438D02*
X138567857Y-104864438D01*
X138567857Y-104864438D02*
X138758333Y-104769200D01*
X138758333Y-104769200D02*
X138853571Y-104673961D01*
X138853571Y-104673961D02*
X138948809Y-104483485D01*
X138948809Y-104483485D02*
X138948809Y-104102533D01*
X138948809Y-104102533D02*
X138853571Y-103912057D01*
X138853571Y-103912057D02*
X138758333Y-103816819D01*
X138758333Y-103816819D02*
X138567857Y-103721580D01*
X140663095Y-103531104D02*
X140663095Y-104864438D01*
X140186904Y-102769200D02*
X139710714Y-104197771D01*
X139710714Y-104197771D02*
X140948809Y-104197771D01*
X141710714Y-104864438D02*
X141710714Y-102864438D01*
X141710714Y-102864438D02*
X142472619Y-102864438D01*
X142472619Y-102864438D02*
X142663095Y-102959676D01*
X142663095Y-102959676D02*
X142758333Y-103054914D01*
X142758333Y-103054914D02*
X142853571Y-103245390D01*
X142853571Y-103245390D02*
X142853571Y-103531104D01*
X142853571Y-103531104D02*
X142758333Y-103721580D01*
X142758333Y-103721580D02*
X142663095Y-103816819D01*
X142663095Y-103816819D02*
X142472619Y-103912057D01*
X142472619Y-103912057D02*
X141710714Y-103912057D01*
D12*
X118516376Y-110356543D02*
X118457328Y-110533686D01*
X118457328Y-110533686D02*
X118398280Y-110592733D01*
X118398280Y-110592733D02*
X118280185Y-110651781D01*
X118280185Y-110651781D02*
X118103042Y-110651781D01*
X118103042Y-110651781D02*
X117984947Y-110592733D01*
X117984947Y-110592733D02*
X117925900Y-110533686D01*
X117925900Y-110533686D02*
X117866852Y-110415591D01*
X117866852Y-110415591D02*
X117866852Y-109943210D01*
X117866852Y-109943210D02*
X119106852Y-109943210D01*
X119106852Y-109943210D02*
X119106852Y-110356543D01*
X119106852Y-110356543D02*
X119047804Y-110474638D01*
X119047804Y-110474638D02*
X118988757Y-110533686D01*
X118988757Y-110533686D02*
X118870661Y-110592733D01*
X118870661Y-110592733D02*
X118752566Y-110592733D01*
X118752566Y-110592733D02*
X118634471Y-110533686D01*
X118634471Y-110533686D02*
X118575423Y-110474638D01*
X118575423Y-110474638D02*
X118516376Y-110356543D01*
X118516376Y-110356543D02*
X118516376Y-109943210D01*
X119106852Y-111183210D02*
X118103042Y-111183210D01*
X118103042Y-111183210D02*
X117984947Y-111242257D01*
X117984947Y-111242257D02*
X117925900Y-111301305D01*
X117925900Y-111301305D02*
X117866852Y-111419400D01*
X117866852Y-111419400D02*
X117866852Y-111655591D01*
X117866852Y-111655591D02*
X117925900Y-111773686D01*
X117925900Y-111773686D02*
X117984947Y-111832733D01*
X117984947Y-111832733D02*
X118103042Y-111891781D01*
X118103042Y-111891781D02*
X119106852Y-111891781D01*
X117925900Y-112423210D02*
X117866852Y-112600353D01*
X117866852Y-112600353D02*
X117866852Y-112895591D01*
X117866852Y-112895591D02*
X117925900Y-113013686D01*
X117925900Y-113013686D02*
X117984947Y-113072734D01*
X117984947Y-113072734D02*
X118103042Y-113131781D01*
X118103042Y-113131781D02*
X118221138Y-113131781D01*
X118221138Y-113131781D02*
X118339233Y-113072734D01*
X118339233Y-113072734D02*
X118398280Y-113013686D01*
X118398280Y-113013686D02*
X118457328Y-112895591D01*
X118457328Y-112895591D02*
X118516376Y-112659400D01*
X118516376Y-112659400D02*
X118575423Y-112541305D01*
X118575423Y-112541305D02*
X118634471Y-112482258D01*
X118634471Y-112482258D02*
X118752566Y-112423210D01*
X118752566Y-112423210D02*
X118870661Y-112423210D01*
X118870661Y-112423210D02*
X118988757Y-112482258D01*
X118988757Y-112482258D02*
X119047804Y-112541305D01*
X119047804Y-112541305D02*
X119106852Y-112659400D01*
X119106852Y-112659400D02*
X119106852Y-112954639D01*
X119106852Y-112954639D02*
X119047804Y-113131781D01*
X118457328Y-113899400D02*
X117866852Y-113899400D01*
X119106852Y-113486067D02*
X118457328Y-113899400D01*
X118457328Y-113899400D02*
X119106852Y-114312733D01*
X146485143Y-80437857D02*
X146428000Y-80495000D01*
X146428000Y-80495000D02*
X146256572Y-80552142D01*
X146256572Y-80552142D02*
X146142286Y-80552142D01*
X146142286Y-80552142D02*
X145970857Y-80495000D01*
X145970857Y-80495000D02*
X145856572Y-80380714D01*
X145856572Y-80380714D02*
X145799429Y-80266428D01*
X145799429Y-80266428D02*
X145742286Y-80037857D01*
X145742286Y-80037857D02*
X145742286Y-79866428D01*
X145742286Y-79866428D02*
X145799429Y-79637857D01*
X145799429Y-79637857D02*
X145856572Y-79523571D01*
X145856572Y-79523571D02*
X145970857Y-79409285D01*
X145970857Y-79409285D02*
X146142286Y-79352142D01*
X146142286Y-79352142D02*
X146256572Y-79352142D01*
X146256572Y-79352142D02*
X146428000Y-79409285D01*
X146428000Y-79409285D02*
X146485143Y-79466428D01*
X146942286Y-80209285D02*
X147513715Y-80209285D01*
X146828000Y-80552142D02*
X147228000Y-79352142D01*
X147228000Y-79352142D02*
X147628000Y-80552142D01*
X148713714Y-80552142D02*
X148313714Y-79980714D01*
X148028000Y-80552142D02*
X148028000Y-79352142D01*
X148028000Y-79352142D02*
X148485143Y-79352142D01*
X148485143Y-79352142D02*
X148599428Y-79409285D01*
X148599428Y-79409285D02*
X148656571Y-79466428D01*
X148656571Y-79466428D02*
X148713714Y-79580714D01*
X148713714Y-79580714D02*
X148713714Y-79752142D01*
X148713714Y-79752142D02*
X148656571Y-79866428D01*
X148656571Y-79866428D02*
X148599428Y-79923571D01*
X148599428Y-79923571D02*
X148485143Y-79980714D01*
X148485143Y-79980714D02*
X148028000Y-79980714D01*
X149228000Y-80552142D02*
X149228000Y-79352142D01*
X149228000Y-79352142D02*
X149513714Y-79352142D01*
X149513714Y-79352142D02*
X149685143Y-79409285D01*
X149685143Y-79409285D02*
X149799428Y-79523571D01*
X149799428Y-79523571D02*
X149856571Y-79637857D01*
X149856571Y-79637857D02*
X149913714Y-79866428D01*
X149913714Y-79866428D02*
X149913714Y-80037857D01*
X149913714Y-80037857D02*
X149856571Y-80266428D01*
X149856571Y-80266428D02*
X149799428Y-80380714D01*
X149799428Y-80380714D02*
X149685143Y-80495000D01*
X149685143Y-80495000D02*
X149513714Y-80552142D01*
X149513714Y-80552142D02*
X149228000Y-80552142D01*
D14*
X167227809Y-87486938D02*
X168561142Y-87486938D01*
X168561142Y-87486938D02*
X167703999Y-89486938D01*
X170275428Y-87486938D02*
X169323047Y-87486938D01*
X169323047Y-87486938D02*
X169227809Y-88439319D01*
X169227809Y-88439319D02*
X169323047Y-88344080D01*
X169323047Y-88344080D02*
X169513523Y-88248842D01*
X169513523Y-88248842D02*
X169989714Y-88248842D01*
X169989714Y-88248842D02*
X170180190Y-88344080D01*
X170180190Y-88344080D02*
X170275428Y-88439319D01*
X170275428Y-88439319D02*
X170370666Y-88629795D01*
X170370666Y-88629795D02*
X170370666Y-89105985D01*
X170370666Y-89105985D02*
X170275428Y-89296461D01*
X170275428Y-89296461D02*
X170180190Y-89391700D01*
X170180190Y-89391700D02*
X169989714Y-89486938D01*
X169989714Y-89486938D02*
X169513523Y-89486938D01*
X169513523Y-89486938D02*
X169323047Y-89391700D01*
X169323047Y-89391700D02*
X169227809Y-89296461D01*
X172275428Y-89486938D02*
X171132571Y-89486938D01*
X171703999Y-89486938D02*
X171703999Y-87486938D01*
X171703999Y-87486938D02*
X171513523Y-87772652D01*
X171513523Y-87772652D02*
X171323047Y-87963128D01*
X171323047Y-87963128D02*
X171132571Y-88058366D01*
X173989714Y-87486938D02*
X173608761Y-87486938D01*
X173608761Y-87486938D02*
X173418285Y-87582176D01*
X173418285Y-87582176D02*
X173323047Y-87677414D01*
X173323047Y-87677414D02*
X173132571Y-87963128D01*
X173132571Y-87963128D02*
X173037333Y-88344080D01*
X173037333Y-88344080D02*
X173037333Y-89105985D01*
X173037333Y-89105985D02*
X173132571Y-89296461D01*
X173132571Y-89296461D02*
X173227809Y-89391700D01*
X173227809Y-89391700D02*
X173418285Y-89486938D01*
X173418285Y-89486938D02*
X173799238Y-89486938D01*
X173799238Y-89486938D02*
X173989714Y-89391700D01*
X173989714Y-89391700D02*
X174084952Y-89296461D01*
X174084952Y-89296461D02*
X174180190Y-89105985D01*
X174180190Y-89105985D02*
X174180190Y-88629795D01*
X174180190Y-88629795D02*
X174084952Y-88439319D01*
X174084952Y-88439319D02*
X173989714Y-88344080D01*
X173989714Y-88344080D02*
X173799238Y-88248842D01*
X173799238Y-88248842D02*
X173418285Y-88248842D01*
X173418285Y-88248842D02*
X173227809Y-88344080D01*
X173227809Y-88344080D02*
X173132571Y-88439319D01*
X173132571Y-88439319D02*
X173037333Y-88629795D01*
X176084952Y-89486938D02*
X174942095Y-89486938D01*
X175513523Y-89486938D02*
X175513523Y-87486938D01*
X175513523Y-87486938D02*
X175323047Y-87772652D01*
X175323047Y-87772652D02*
X175132571Y-87963128D01*
X175132571Y-87963128D02*
X174942095Y-88058366D01*
D15*
X128369219Y-114060266D02*
X128369219Y-114536456D01*
X128369219Y-114536456D02*
X127369219Y-114536456D01*
X128369219Y-113203123D02*
X128369219Y-113774551D01*
X128369219Y-113488837D02*
X127369219Y-113488837D01*
X127369219Y-113488837D02*
X127512076Y-113584075D01*
X127512076Y-113584075D02*
X127607314Y-113679313D01*
X127607314Y-113679313D02*
X127654933Y-113774551D01*
X164208333Y-82104819D02*
X163875000Y-81628628D01*
X163636905Y-82104819D02*
X163636905Y-81104819D01*
X163636905Y-81104819D02*
X164017857Y-81104819D01*
X164017857Y-81104819D02*
X164113095Y-81152438D01*
X164113095Y-81152438D02*
X164160714Y-81200057D01*
X164160714Y-81200057D02*
X164208333Y-81295295D01*
X164208333Y-81295295D02*
X164208333Y-81438152D01*
X164208333Y-81438152D02*
X164160714Y-81533390D01*
X164160714Y-81533390D02*
X164113095Y-81581009D01*
X164113095Y-81581009D02*
X164017857Y-81628628D01*
X164017857Y-81628628D02*
X163636905Y-81628628D01*
X165208333Y-82104819D02*
X164875000Y-81628628D01*
X164636905Y-82104819D02*
X164636905Y-81104819D01*
X164636905Y-81104819D02*
X165017857Y-81104819D01*
X165017857Y-81104819D02*
X165113095Y-81152438D01*
X165113095Y-81152438D02*
X165160714Y-81200057D01*
X165160714Y-81200057D02*
X165208333Y-81295295D01*
X165208333Y-81295295D02*
X165208333Y-81438152D01*
X165208333Y-81438152D02*
X165160714Y-81533390D01*
X165160714Y-81533390D02*
X165113095Y-81581009D01*
X165113095Y-81581009D02*
X165017857Y-81628628D01*
X165017857Y-81628628D02*
X164636905Y-81628628D01*
X166160714Y-82104819D02*
X165589286Y-82104819D01*
X165875000Y-82104819D02*
X165875000Y-81104819D01*
X165875000Y-81104819D02*
X165779762Y-81247676D01*
X165779762Y-81247676D02*
X165684524Y-81342914D01*
X165684524Y-81342914D02*
X165589286Y-81390533D01*
X130388519Y-113447389D02*
X129388519Y-113447389D01*
X130293280Y-112399771D02*
X130340900Y-112447390D01*
X130340900Y-112447390D02*
X130388519Y-112590247D01*
X130388519Y-112590247D02*
X130388519Y-112685485D01*
X130388519Y-112685485D02*
X130340900Y-112828342D01*
X130340900Y-112828342D02*
X130245661Y-112923580D01*
X130245661Y-112923580D02*
X130150423Y-112971199D01*
X130150423Y-112971199D02*
X129959947Y-113018818D01*
X129959947Y-113018818D02*
X129817090Y-113018818D01*
X129817090Y-113018818D02*
X129626614Y-112971199D01*
X129626614Y-112971199D02*
X129531376Y-112923580D01*
X129531376Y-112923580D02*
X129436138Y-112828342D01*
X129436138Y-112828342D02*
X129388519Y-112685485D01*
X129388519Y-112685485D02*
X129388519Y-112590247D01*
X129388519Y-112590247D02*
X129436138Y-112447390D01*
X129436138Y-112447390D02*
X129483757Y-112399771D01*
X130388519Y-111447390D02*
X130388519Y-112018818D01*
X130388519Y-111733104D02*
X129388519Y-111733104D01*
X129388519Y-111733104D02*
X129531376Y-111828342D01*
X129531376Y-111828342D02*
X129626614Y-111923580D01*
X129626614Y-111923580D02*
X129674233Y-112018818D01*
X128305719Y-85723289D02*
X127305719Y-85723289D01*
X128210480Y-84675671D02*
X128258100Y-84723290D01*
X128258100Y-84723290D02*
X128305719Y-84866147D01*
X128305719Y-84866147D02*
X128305719Y-84961385D01*
X128305719Y-84961385D02*
X128258100Y-85104242D01*
X128258100Y-85104242D02*
X128162861Y-85199480D01*
X128162861Y-85199480D02*
X128067623Y-85247099D01*
X128067623Y-85247099D02*
X127877147Y-85294718D01*
X127877147Y-85294718D02*
X127734290Y-85294718D01*
X127734290Y-85294718D02*
X127543814Y-85247099D01*
X127543814Y-85247099D02*
X127448576Y-85199480D01*
X127448576Y-85199480D02*
X127353338Y-85104242D01*
X127353338Y-85104242D02*
X127305719Y-84961385D01*
X127305719Y-84961385D02*
X127305719Y-84866147D01*
X127305719Y-84866147D02*
X127353338Y-84723290D01*
X127353338Y-84723290D02*
X127400957Y-84675671D01*
X127400957Y-84294718D02*
X127353338Y-84247099D01*
X127353338Y-84247099D02*
X127305719Y-84151861D01*
X127305719Y-84151861D02*
X127305719Y-83913766D01*
X127305719Y-83913766D02*
X127353338Y-83818528D01*
X127353338Y-83818528D02*
X127400957Y-83770909D01*
X127400957Y-83770909D02*
X127496195Y-83723290D01*
X127496195Y-83723290D02*
X127591433Y-83723290D01*
X127591433Y-83723290D02*
X127734290Y-83770909D01*
X127734290Y-83770909D02*
X128305719Y-84342337D01*
X128305719Y-84342337D02*
X128305719Y-83723290D01*
X185874819Y-89622189D02*
X184874819Y-89622189D01*
X185779580Y-88574571D02*
X185827200Y-88622190D01*
X185827200Y-88622190D02*
X185874819Y-88765047D01*
X185874819Y-88765047D02*
X185874819Y-88860285D01*
X185874819Y-88860285D02*
X185827200Y-89003142D01*
X185827200Y-89003142D02*
X185731961Y-89098380D01*
X185731961Y-89098380D02*
X185636723Y-89145999D01*
X185636723Y-89145999D02*
X185446247Y-89193618D01*
X185446247Y-89193618D02*
X185303390Y-89193618D01*
X185303390Y-89193618D02*
X185112914Y-89145999D01*
X185112914Y-89145999D02*
X185017676Y-89098380D01*
X185017676Y-89098380D02*
X184922438Y-89003142D01*
X184922438Y-89003142D02*
X184874819Y-88860285D01*
X184874819Y-88860285D02*
X184874819Y-88765047D01*
X184874819Y-88765047D02*
X184922438Y-88622190D01*
X184922438Y-88622190D02*
X184970057Y-88574571D01*
X184874819Y-88241237D02*
X184874819Y-87622190D01*
X184874819Y-87622190D02*
X185255771Y-87955523D01*
X185255771Y-87955523D02*
X185255771Y-87812666D01*
X185255771Y-87812666D02*
X185303390Y-87717428D01*
X185303390Y-87717428D02*
X185351009Y-87669809D01*
X185351009Y-87669809D02*
X185446247Y-87622190D01*
X185446247Y-87622190D02*
X185684342Y-87622190D01*
X185684342Y-87622190D02*
X185779580Y-87669809D01*
X185779580Y-87669809D02*
X185827200Y-87717428D01*
X185827200Y-87717428D02*
X185874819Y-87812666D01*
X185874819Y-87812666D02*
X185874819Y-88098380D01*
X185874819Y-88098380D02*
X185827200Y-88193618D01*
X185827200Y-88193618D02*
X185779580Y-88241237D01*
X119858333Y-79659580D02*
X119810714Y-79707200D01*
X119810714Y-79707200D02*
X119667857Y-79754819D01*
X119667857Y-79754819D02*
X119572619Y-79754819D01*
X119572619Y-79754819D02*
X119429762Y-79707200D01*
X119429762Y-79707200D02*
X119334524Y-79611961D01*
X119334524Y-79611961D02*
X119286905Y-79516723D01*
X119286905Y-79516723D02*
X119239286Y-79326247D01*
X119239286Y-79326247D02*
X119239286Y-79183390D01*
X119239286Y-79183390D02*
X119286905Y-78992914D01*
X119286905Y-78992914D02*
X119334524Y-78897676D01*
X119334524Y-78897676D02*
X119429762Y-78802438D01*
X119429762Y-78802438D02*
X119572619Y-78754819D01*
X119572619Y-78754819D02*
X119667857Y-78754819D01*
X119667857Y-78754819D02*
X119810714Y-78802438D01*
X119810714Y-78802438D02*
X119858333Y-78850057D01*
X120715476Y-78754819D02*
X120525000Y-78754819D01*
X120525000Y-78754819D02*
X120429762Y-78802438D01*
X120429762Y-78802438D02*
X120382143Y-78850057D01*
X120382143Y-78850057D02*
X120286905Y-78992914D01*
X120286905Y-78992914D02*
X120239286Y-79183390D01*
X120239286Y-79183390D02*
X120239286Y-79564342D01*
X120239286Y-79564342D02*
X120286905Y-79659580D01*
X120286905Y-79659580D02*
X120334524Y-79707200D01*
X120334524Y-79707200D02*
X120429762Y-79754819D01*
X120429762Y-79754819D02*
X120620238Y-79754819D01*
X120620238Y-79754819D02*
X120715476Y-79707200D01*
X120715476Y-79707200D02*
X120763095Y-79659580D01*
X120763095Y-79659580D02*
X120810714Y-79564342D01*
X120810714Y-79564342D02*
X120810714Y-79326247D01*
X120810714Y-79326247D02*
X120763095Y-79231009D01*
X120763095Y-79231009D02*
X120715476Y-79183390D01*
X120715476Y-79183390D02*
X120620238Y-79135771D01*
X120620238Y-79135771D02*
X120429762Y-79135771D01*
X120429762Y-79135771D02*
X120334524Y-79183390D01*
X120334524Y-79183390D02*
X120286905Y-79231009D01*
X120286905Y-79231009D02*
X120239286Y-79326247D01*
X160282533Y-117952580D02*
X160234914Y-118000200D01*
X160234914Y-118000200D02*
X160092057Y-118047819D01*
X160092057Y-118047819D02*
X159996819Y-118047819D01*
X159996819Y-118047819D02*
X159853962Y-118000200D01*
X159853962Y-118000200D02*
X159758724Y-117904961D01*
X159758724Y-117904961D02*
X159711105Y-117809723D01*
X159711105Y-117809723D02*
X159663486Y-117619247D01*
X159663486Y-117619247D02*
X159663486Y-117476390D01*
X159663486Y-117476390D02*
X159711105Y-117285914D01*
X159711105Y-117285914D02*
X159758724Y-117190676D01*
X159758724Y-117190676D02*
X159853962Y-117095438D01*
X159853962Y-117095438D02*
X159996819Y-117047819D01*
X159996819Y-117047819D02*
X160092057Y-117047819D01*
X160092057Y-117047819D02*
X160234914Y-117095438D01*
X160234914Y-117095438D02*
X160282533Y-117143057D01*
X160615867Y-117047819D02*
X161234914Y-117047819D01*
X161234914Y-117047819D02*
X160901581Y-117428771D01*
X160901581Y-117428771D02*
X161044438Y-117428771D01*
X161044438Y-117428771D02*
X161139676Y-117476390D01*
X161139676Y-117476390D02*
X161187295Y-117524009D01*
X161187295Y-117524009D02*
X161234914Y-117619247D01*
X161234914Y-117619247D02*
X161234914Y-117857342D01*
X161234914Y-117857342D02*
X161187295Y-117952580D01*
X161187295Y-117952580D02*
X161139676Y-118000200D01*
X161139676Y-118000200D02*
X161044438Y-118047819D01*
X161044438Y-118047819D02*
X160758724Y-118047819D01*
X160758724Y-118047819D02*
X160663486Y-118000200D01*
X160663486Y-118000200D02*
X160615867Y-117952580D01*
X155909580Y-80616666D02*
X155957200Y-80664285D01*
X155957200Y-80664285D02*
X156004819Y-80807142D01*
X156004819Y-80807142D02*
X156004819Y-80902380D01*
X156004819Y-80902380D02*
X155957200Y-81045237D01*
X155957200Y-81045237D02*
X155861961Y-81140475D01*
X155861961Y-81140475D02*
X155766723Y-81188094D01*
X155766723Y-81188094D02*
X155576247Y-81235713D01*
X155576247Y-81235713D02*
X155433390Y-81235713D01*
X155433390Y-81235713D02*
X155242914Y-81188094D01*
X155242914Y-81188094D02*
X155147676Y-81140475D01*
X155147676Y-81140475D02*
X155052438Y-81045237D01*
X155052438Y-81045237D02*
X155004819Y-80902380D01*
X155004819Y-80902380D02*
X155004819Y-80807142D01*
X155004819Y-80807142D02*
X155052438Y-80664285D01*
X155052438Y-80664285D02*
X155100057Y-80616666D01*
X155338152Y-79759523D02*
X156004819Y-79759523D01*
X154957200Y-79997618D02*
X155671485Y-80235713D01*
X155671485Y-80235713D02*
X155671485Y-79616666D01*
X158434580Y-85066666D02*
X158482200Y-85114285D01*
X158482200Y-85114285D02*
X158529819Y-85257142D01*
X158529819Y-85257142D02*
X158529819Y-85352380D01*
X158529819Y-85352380D02*
X158482200Y-85495237D01*
X158482200Y-85495237D02*
X158386961Y-85590475D01*
X158386961Y-85590475D02*
X158291723Y-85638094D01*
X158291723Y-85638094D02*
X158101247Y-85685713D01*
X158101247Y-85685713D02*
X157958390Y-85685713D01*
X157958390Y-85685713D02*
X157767914Y-85638094D01*
X157767914Y-85638094D02*
X157672676Y-85590475D01*
X157672676Y-85590475D02*
X157577438Y-85495237D01*
X157577438Y-85495237D02*
X157529819Y-85352380D01*
X157529819Y-85352380D02*
X157529819Y-85257142D01*
X157529819Y-85257142D02*
X157577438Y-85114285D01*
X157577438Y-85114285D02*
X157625057Y-85066666D01*
X157529819Y-84161904D02*
X157529819Y-84638094D01*
X157529819Y-84638094D02*
X158006009Y-84685713D01*
X158006009Y-84685713D02*
X157958390Y-84638094D01*
X157958390Y-84638094D02*
X157910771Y-84542856D01*
X157910771Y-84542856D02*
X157910771Y-84304761D01*
X157910771Y-84304761D02*
X157958390Y-84209523D01*
X157958390Y-84209523D02*
X158006009Y-84161904D01*
X158006009Y-84161904D02*
X158101247Y-84114285D01*
X158101247Y-84114285D02*
X158339342Y-84114285D01*
X158339342Y-84114285D02*
X158434580Y-84161904D01*
X158434580Y-84161904D02*
X158482200Y-84209523D01*
X158482200Y-84209523D02*
X158529819Y-84304761D01*
X158529819Y-84304761D02*
X158529819Y-84542856D01*
X158529819Y-84542856D02*
X158482200Y-84638094D01*
X158482200Y-84638094D02*
X158434580Y-84685713D01*
X122261333Y-93926819D02*
X121928000Y-93450628D01*
X121689905Y-93926819D02*
X121689905Y-92926819D01*
X121689905Y-92926819D02*
X122070857Y-92926819D01*
X122070857Y-92926819D02*
X122166095Y-92974438D01*
X122166095Y-92974438D02*
X122213714Y-93022057D01*
X122213714Y-93022057D02*
X122261333Y-93117295D01*
X122261333Y-93117295D02*
X122261333Y-93260152D01*
X122261333Y-93260152D02*
X122213714Y-93355390D01*
X122213714Y-93355390D02*
X122166095Y-93403009D01*
X122166095Y-93403009D02*
X122070857Y-93450628D01*
X122070857Y-93450628D02*
X121689905Y-93450628D01*
X122594667Y-92926819D02*
X123213714Y-92926819D01*
X123213714Y-92926819D02*
X122880381Y-93307771D01*
X122880381Y-93307771D02*
X123023238Y-93307771D01*
X123023238Y-93307771D02*
X123118476Y-93355390D01*
X123118476Y-93355390D02*
X123166095Y-93403009D01*
X123166095Y-93403009D02*
X123213714Y-93498247D01*
X123213714Y-93498247D02*
X123213714Y-93736342D01*
X123213714Y-93736342D02*
X123166095Y-93831580D01*
X123166095Y-93831580D02*
X123118476Y-93879200D01*
X123118476Y-93879200D02*
X123023238Y-93926819D01*
X123023238Y-93926819D02*
X122737524Y-93926819D01*
X122737524Y-93926819D02*
X122642286Y-93879200D01*
X122642286Y-93879200D02*
X122594667Y-93831580D01*
X178658333Y-118334580D02*
X178610714Y-118382200D01*
X178610714Y-118382200D02*
X178467857Y-118429819D01*
X178467857Y-118429819D02*
X178372619Y-118429819D01*
X178372619Y-118429819D02*
X178229762Y-118382200D01*
X178229762Y-118382200D02*
X178134524Y-118286961D01*
X178134524Y-118286961D02*
X178086905Y-118191723D01*
X178086905Y-118191723D02*
X178039286Y-118001247D01*
X178039286Y-118001247D02*
X178039286Y-117858390D01*
X178039286Y-117858390D02*
X178086905Y-117667914D01*
X178086905Y-117667914D02*
X178134524Y-117572676D01*
X178134524Y-117572676D02*
X178229762Y-117477438D01*
X178229762Y-117477438D02*
X178372619Y-117429819D01*
X178372619Y-117429819D02*
X178467857Y-117429819D01*
X178467857Y-117429819D02*
X178610714Y-117477438D01*
X178610714Y-117477438D02*
X178658333Y-117525057D01*
X179610714Y-118429819D02*
X179039286Y-118429819D01*
X179325000Y-118429819D02*
X179325000Y-117429819D01*
X179325000Y-117429819D02*
X179229762Y-117572676D01*
X179229762Y-117572676D02*
X179134524Y-117667914D01*
X179134524Y-117667914D02*
X179039286Y-117715533D01*
X170065476Y-117604819D02*
X170732142Y-118604819D01*
X170732142Y-117604819D02*
X170065476Y-118604819D01*
X171636904Y-118604819D02*
X171065476Y-118604819D01*
X171351190Y-118604819D02*
X171351190Y-117604819D01*
X171351190Y-117604819D02*
X171255952Y-117747676D01*
X171255952Y-117747676D02*
X171160714Y-117842914D01*
X171160714Y-117842914D02*
X171065476Y-117890533D01*
X119314933Y-93876019D02*
X118981600Y-93399828D01*
X118743505Y-93876019D02*
X118743505Y-92876019D01*
X118743505Y-92876019D02*
X119124457Y-92876019D01*
X119124457Y-92876019D02*
X119219695Y-92923638D01*
X119219695Y-92923638D02*
X119267314Y-92971257D01*
X119267314Y-92971257D02*
X119314933Y-93066495D01*
X119314933Y-93066495D02*
X119314933Y-93209352D01*
X119314933Y-93209352D02*
X119267314Y-93304590D01*
X119267314Y-93304590D02*
X119219695Y-93352209D01*
X119219695Y-93352209D02*
X119124457Y-93399828D01*
X119124457Y-93399828D02*
X118743505Y-93399828D01*
X120267314Y-93876019D02*
X119695886Y-93876019D01*
X119981600Y-93876019D02*
X119981600Y-92876019D01*
X119981600Y-92876019D02*
X119886362Y-93018876D01*
X119886362Y-93018876D02*
X119791124Y-93114114D01*
X119791124Y-93114114D02*
X119695886Y-93161733D01*
X121588305Y-115669219D02*
X121588305Y-114669219D01*
X121588305Y-114669219D02*
X121826400Y-114669219D01*
X121826400Y-114669219D02*
X121969257Y-114716838D01*
X121969257Y-114716838D02*
X122064495Y-114812076D01*
X122064495Y-114812076D02*
X122112114Y-114907314D01*
X122112114Y-114907314D02*
X122159733Y-115097790D01*
X122159733Y-115097790D02*
X122159733Y-115240647D01*
X122159733Y-115240647D02*
X122112114Y-115431123D01*
X122112114Y-115431123D02*
X122064495Y-115526361D01*
X122064495Y-115526361D02*
X121969257Y-115621600D01*
X121969257Y-115621600D02*
X121826400Y-115669219D01*
X121826400Y-115669219D02*
X121588305Y-115669219D01*
X122540686Y-114764457D02*
X122588305Y-114716838D01*
X122588305Y-114716838D02*
X122683543Y-114669219D01*
X122683543Y-114669219D02*
X122921638Y-114669219D01*
X122921638Y-114669219D02*
X123016876Y-114716838D01*
X123016876Y-114716838D02*
X123064495Y-114764457D01*
X123064495Y-114764457D02*
X123112114Y-114859695D01*
X123112114Y-114859695D02*
X123112114Y-114954933D01*
X123112114Y-114954933D02*
X123064495Y-115097790D01*
X123064495Y-115097790D02*
X122493067Y-115669219D01*
X122493067Y-115669219D02*
X123112114Y-115669219D01*
X121639105Y-108963619D02*
X121639105Y-107963619D01*
X121639105Y-107963619D02*
X121877200Y-107963619D01*
X121877200Y-107963619D02*
X122020057Y-108011238D01*
X122020057Y-108011238D02*
X122115295Y-108106476D01*
X122115295Y-108106476D02*
X122162914Y-108201714D01*
X122162914Y-108201714D02*
X122210533Y-108392190D01*
X122210533Y-108392190D02*
X122210533Y-108535047D01*
X122210533Y-108535047D02*
X122162914Y-108725523D01*
X122162914Y-108725523D02*
X122115295Y-108820761D01*
X122115295Y-108820761D02*
X122020057Y-108916000D01*
X122020057Y-108916000D02*
X121877200Y-108963619D01*
X121877200Y-108963619D02*
X121639105Y-108963619D01*
X123162914Y-108963619D02*
X122591486Y-108963619D01*
X122877200Y-108963619D02*
X122877200Y-107963619D01*
X122877200Y-107963619D02*
X122781962Y-108106476D01*
X122781962Y-108106476D02*
X122686724Y-108201714D01*
X122686724Y-108201714D02*
X122591486Y-108249333D01*
X176990476Y-72098819D02*
X176990476Y-72813104D01*
X176990476Y-72813104D02*
X176942857Y-72955961D01*
X176942857Y-72955961D02*
X176847619Y-73051200D01*
X176847619Y-73051200D02*
X176704762Y-73098819D01*
X176704762Y-73098819D02*
X176609524Y-73098819D01*
X177990476Y-73098819D02*
X177419048Y-73098819D01*
X177704762Y-73098819D02*
X177704762Y-72098819D01*
X177704762Y-72098819D02*
X177609524Y-72241676D01*
X177609524Y-72241676D02*
X177514286Y-72336914D01*
X177514286Y-72336914D02*
X177419048Y-72384533D01*
X178609524Y-72098819D02*
X178704762Y-72098819D01*
X178704762Y-72098819D02*
X178800000Y-72146438D01*
X178800000Y-72146438D02*
X178847619Y-72194057D01*
X178847619Y-72194057D02*
X178895238Y-72289295D01*
X178895238Y-72289295D02*
X178942857Y-72479771D01*
X178942857Y-72479771D02*
X178942857Y-72717866D01*
X178942857Y-72717866D02*
X178895238Y-72908342D01*
X178895238Y-72908342D02*
X178847619Y-73003580D01*
X178847619Y-73003580D02*
X178800000Y-73051200D01*
X178800000Y-73051200D02*
X178704762Y-73098819D01*
X178704762Y-73098819D02*
X178609524Y-73098819D01*
X178609524Y-73098819D02*
X178514286Y-73051200D01*
X178514286Y-73051200D02*
X178466667Y-73003580D01*
X178466667Y-73003580D02*
X178419048Y-72908342D01*
X178419048Y-72908342D02*
X178371429Y-72717866D01*
X178371429Y-72717866D02*
X178371429Y-72479771D01*
X178371429Y-72479771D02*
X178419048Y-72289295D01*
X178419048Y-72289295D02*
X178466667Y-72194057D01*
X178466667Y-72194057D02*
X178514286Y-72146438D01*
X178514286Y-72146438D02*
X178609524Y-72098819D01*
X121791505Y-102461219D02*
X121791505Y-101461219D01*
X121791505Y-101461219D02*
X122029600Y-101461219D01*
X122029600Y-101461219D02*
X122172457Y-101508838D01*
X122172457Y-101508838D02*
X122267695Y-101604076D01*
X122267695Y-101604076D02*
X122315314Y-101699314D01*
X122315314Y-101699314D02*
X122362933Y-101889790D01*
X122362933Y-101889790D02*
X122362933Y-102032647D01*
X122362933Y-102032647D02*
X122315314Y-102223123D01*
X122315314Y-102223123D02*
X122267695Y-102318361D01*
X122267695Y-102318361D02*
X122172457Y-102413600D01*
X122172457Y-102413600D02*
X122029600Y-102461219D01*
X122029600Y-102461219D02*
X121791505Y-102461219D01*
X122696267Y-101461219D02*
X123315314Y-101461219D01*
X123315314Y-101461219D02*
X122981981Y-101842171D01*
X122981981Y-101842171D02*
X123124838Y-101842171D01*
X123124838Y-101842171D02*
X123220076Y-101889790D01*
X123220076Y-101889790D02*
X123267695Y-101937409D01*
X123267695Y-101937409D02*
X123315314Y-102032647D01*
X123315314Y-102032647D02*
X123315314Y-102270742D01*
X123315314Y-102270742D02*
X123267695Y-102365980D01*
X123267695Y-102365980D02*
X123220076Y-102413600D01*
X123220076Y-102413600D02*
X123124838Y-102461219D01*
X123124838Y-102461219D02*
X122839124Y-102461219D01*
X122839124Y-102461219D02*
X122743886Y-102413600D01*
X122743886Y-102413600D02*
X122696267Y-102365980D01*
X183638866Y-95276319D02*
X183638866Y-95990604D01*
X183638866Y-95990604D02*
X183591247Y-96133461D01*
X183591247Y-96133461D02*
X183496009Y-96228700D01*
X183496009Y-96228700D02*
X183353152Y-96276319D01*
X183353152Y-96276319D02*
X183257914Y-96276319D01*
X184019819Y-95276319D02*
X184638866Y-95276319D01*
X184638866Y-95276319D02*
X184305533Y-95657271D01*
X184305533Y-95657271D02*
X184448390Y-95657271D01*
X184448390Y-95657271D02*
X184543628Y-95704890D01*
X184543628Y-95704890D02*
X184591247Y-95752509D01*
X184591247Y-95752509D02*
X184638866Y-95847747D01*
X184638866Y-95847747D02*
X184638866Y-96085842D01*
X184638866Y-96085842D02*
X184591247Y-96181080D01*
X184591247Y-96181080D02*
X184543628Y-96228700D01*
X184543628Y-96228700D02*
X184448390Y-96276319D01*
X184448390Y-96276319D02*
X184162676Y-96276319D01*
X184162676Y-96276319D02*
X184067438Y-96228700D01*
X184067438Y-96228700D02*
X184019819Y-96181080D01*
X188453733Y-102512019D02*
X188120400Y-102035828D01*
X187882305Y-102512019D02*
X187882305Y-101512019D01*
X187882305Y-101512019D02*
X188263257Y-101512019D01*
X188263257Y-101512019D02*
X188358495Y-101559638D01*
X188358495Y-101559638D02*
X188406114Y-101607257D01*
X188406114Y-101607257D02*
X188453733Y-101702495D01*
X188453733Y-101702495D02*
X188453733Y-101845352D01*
X188453733Y-101845352D02*
X188406114Y-101940590D01*
X188406114Y-101940590D02*
X188358495Y-101988209D01*
X188358495Y-101988209D02*
X188263257Y-102035828D01*
X188263257Y-102035828D02*
X187882305Y-102035828D01*
X189358495Y-101512019D02*
X188882305Y-101512019D01*
X188882305Y-101512019D02*
X188834686Y-101988209D01*
X188834686Y-101988209D02*
X188882305Y-101940590D01*
X188882305Y-101940590D02*
X188977543Y-101892971D01*
X188977543Y-101892971D02*
X189215638Y-101892971D01*
X189215638Y-101892971D02*
X189310876Y-101940590D01*
X189310876Y-101940590D02*
X189358495Y-101988209D01*
X189358495Y-101988209D02*
X189406114Y-102083447D01*
X189406114Y-102083447D02*
X189406114Y-102321542D01*
X189406114Y-102321542D02*
X189358495Y-102416780D01*
X189358495Y-102416780D02*
X189310876Y-102464400D01*
X189310876Y-102464400D02*
X189215638Y-102512019D01*
X189215638Y-102512019D02*
X188977543Y-102512019D01*
X188977543Y-102512019D02*
X188882305Y-102464400D01*
X188882305Y-102464400D02*
X188834686Y-102416780D01*
X190841333Y-102816819D02*
X190508000Y-102340628D01*
X190269905Y-102816819D02*
X190269905Y-101816819D01*
X190269905Y-101816819D02*
X190650857Y-101816819D01*
X190650857Y-101816819D02*
X190746095Y-101864438D01*
X190746095Y-101864438D02*
X190793714Y-101912057D01*
X190793714Y-101912057D02*
X190841333Y-102007295D01*
X190841333Y-102007295D02*
X190841333Y-102150152D01*
X190841333Y-102150152D02*
X190793714Y-102245390D01*
X190793714Y-102245390D02*
X190746095Y-102293009D01*
X190746095Y-102293009D02*
X190650857Y-102340628D01*
X190650857Y-102340628D02*
X190269905Y-102340628D01*
X191698476Y-102150152D02*
X191698476Y-102816819D01*
X191460381Y-101769200D02*
X191222286Y-102483485D01*
X191222286Y-102483485D02*
X191841333Y-102483485D01*
X163532933Y-117825580D02*
X163485314Y-117873200D01*
X163485314Y-117873200D02*
X163342457Y-117920819D01*
X163342457Y-117920819D02*
X163247219Y-117920819D01*
X163247219Y-117920819D02*
X163104362Y-117873200D01*
X163104362Y-117873200D02*
X163009124Y-117777961D01*
X163009124Y-117777961D02*
X162961505Y-117682723D01*
X162961505Y-117682723D02*
X162913886Y-117492247D01*
X162913886Y-117492247D02*
X162913886Y-117349390D01*
X162913886Y-117349390D02*
X162961505Y-117158914D01*
X162961505Y-117158914D02*
X163009124Y-117063676D01*
X163009124Y-117063676D02*
X163104362Y-116968438D01*
X163104362Y-116968438D02*
X163247219Y-116920819D01*
X163247219Y-116920819D02*
X163342457Y-116920819D01*
X163342457Y-116920819D02*
X163485314Y-116968438D01*
X163485314Y-116968438D02*
X163532933Y-117016057D01*
X163913886Y-117016057D02*
X163961505Y-116968438D01*
X163961505Y-116968438D02*
X164056743Y-116920819D01*
X164056743Y-116920819D02*
X164294838Y-116920819D01*
X164294838Y-116920819D02*
X164390076Y-116968438D01*
X164390076Y-116968438D02*
X164437695Y-117016057D01*
X164437695Y-117016057D02*
X164485314Y-117111295D01*
X164485314Y-117111295D02*
X164485314Y-117206533D01*
X164485314Y-117206533D02*
X164437695Y-117349390D01*
X164437695Y-117349390D02*
X163866267Y-117920819D01*
X163866267Y-117920819D02*
X164485314Y-117920819D01*
X125461733Y-93977619D02*
X125128400Y-93501428D01*
X124890305Y-93977619D02*
X124890305Y-92977619D01*
X124890305Y-92977619D02*
X125271257Y-92977619D01*
X125271257Y-92977619D02*
X125366495Y-93025238D01*
X125366495Y-93025238D02*
X125414114Y-93072857D01*
X125414114Y-93072857D02*
X125461733Y-93168095D01*
X125461733Y-93168095D02*
X125461733Y-93310952D01*
X125461733Y-93310952D02*
X125414114Y-93406190D01*
X125414114Y-93406190D02*
X125366495Y-93453809D01*
X125366495Y-93453809D02*
X125271257Y-93501428D01*
X125271257Y-93501428D02*
X124890305Y-93501428D01*
X125842686Y-93072857D02*
X125890305Y-93025238D01*
X125890305Y-93025238D02*
X125985543Y-92977619D01*
X125985543Y-92977619D02*
X126223638Y-92977619D01*
X126223638Y-92977619D02*
X126318876Y-93025238D01*
X126318876Y-93025238D02*
X126366495Y-93072857D01*
X126366495Y-93072857D02*
X126414114Y-93168095D01*
X126414114Y-93168095D02*
X126414114Y-93263333D01*
X126414114Y-93263333D02*
X126366495Y-93406190D01*
X126366495Y-93406190D02*
X125795067Y-93977619D01*
X125795067Y-93977619D02*
X126414114Y-93977619D01*
X124416666Y-69504819D02*
X124416666Y-70219104D01*
X124416666Y-70219104D02*
X124369047Y-70361961D01*
X124369047Y-70361961D02*
X124273809Y-70457200D01*
X124273809Y-70457200D02*
X124130952Y-70504819D01*
X124130952Y-70504819D02*
X124035714Y-70504819D01*
X124845238Y-69600057D02*
X124892857Y-69552438D01*
X124892857Y-69552438D02*
X124988095Y-69504819D01*
X124988095Y-69504819D02*
X125226190Y-69504819D01*
X125226190Y-69504819D02*
X125321428Y-69552438D01*
X125321428Y-69552438D02*
X125369047Y-69600057D01*
X125369047Y-69600057D02*
X125416666Y-69695295D01*
X125416666Y-69695295D02*
X125416666Y-69790533D01*
X125416666Y-69790533D02*
X125369047Y-69933390D01*
X125369047Y-69933390D02*
X124797619Y-70504819D01*
X124797619Y-70504819D02*
X125416666Y-70504819D01*
X126356280Y-97345166D02*
X126403900Y-97392785D01*
X126403900Y-97392785D02*
X126451519Y-97535642D01*
X126451519Y-97535642D02*
X126451519Y-97630880D01*
X126451519Y-97630880D02*
X126403900Y-97773737D01*
X126403900Y-97773737D02*
X126308661Y-97868975D01*
X126308661Y-97868975D02*
X126213423Y-97916594D01*
X126213423Y-97916594D02*
X126022947Y-97964213D01*
X126022947Y-97964213D02*
X125880090Y-97964213D01*
X125880090Y-97964213D02*
X125689614Y-97916594D01*
X125689614Y-97916594D02*
X125594376Y-97868975D01*
X125594376Y-97868975D02*
X125499138Y-97773737D01*
X125499138Y-97773737D02*
X125451519Y-97630880D01*
X125451519Y-97630880D02*
X125451519Y-97535642D01*
X125451519Y-97535642D02*
X125499138Y-97392785D01*
X125499138Y-97392785D02*
X125546757Y-97345166D01*
X125451519Y-97011832D02*
X125451519Y-96345166D01*
X125451519Y-96345166D02*
X126451519Y-96773737D01*
X187892763Y-81049580D02*
X187845144Y-81097200D01*
X187845144Y-81097200D02*
X187702287Y-81144819D01*
X187702287Y-81144819D02*
X187607049Y-81144819D01*
X187607049Y-81144819D02*
X187464192Y-81097200D01*
X187464192Y-81097200D02*
X187368954Y-81001961D01*
X187368954Y-81001961D02*
X187321335Y-80906723D01*
X187321335Y-80906723D02*
X187273716Y-80716247D01*
X187273716Y-80716247D02*
X187273716Y-80573390D01*
X187273716Y-80573390D02*
X187321335Y-80382914D01*
X187321335Y-80382914D02*
X187368954Y-80287676D01*
X187368954Y-80287676D02*
X187464192Y-80192438D01*
X187464192Y-80192438D02*
X187607049Y-80144819D01*
X187607049Y-80144819D02*
X187702287Y-80144819D01*
X187702287Y-80144819D02*
X187845144Y-80192438D01*
X187845144Y-80192438D02*
X187892763Y-80240057D01*
X188845144Y-81144819D02*
X188273716Y-81144819D01*
X188559430Y-81144819D02*
X188559430Y-80144819D01*
X188559430Y-80144819D02*
X188464192Y-80287676D01*
X188464192Y-80287676D02*
X188368954Y-80382914D01*
X188368954Y-80382914D02*
X188273716Y-80430533D01*
X189178478Y-80144819D02*
X189845144Y-80144819D01*
X189845144Y-80144819D02*
X189416573Y-81144819D01*
X155952323Y-133404780D02*
X155904704Y-133452400D01*
X155904704Y-133452400D02*
X155761847Y-133500019D01*
X155761847Y-133500019D02*
X155666609Y-133500019D01*
X155666609Y-133500019D02*
X155523752Y-133452400D01*
X155523752Y-133452400D02*
X155428514Y-133357161D01*
X155428514Y-133357161D02*
X155380895Y-133261923D01*
X155380895Y-133261923D02*
X155333276Y-133071447D01*
X155333276Y-133071447D02*
X155333276Y-132928590D01*
X155333276Y-132928590D02*
X155380895Y-132738114D01*
X155380895Y-132738114D02*
X155428514Y-132642876D01*
X155428514Y-132642876D02*
X155523752Y-132547638D01*
X155523752Y-132547638D02*
X155666609Y-132500019D01*
X155666609Y-132500019D02*
X155761847Y-132500019D01*
X155761847Y-132500019D02*
X155904704Y-132547638D01*
X155904704Y-132547638D02*
X155952323Y-132595257D01*
X156380895Y-133500019D02*
X156380895Y-132500019D01*
X156380895Y-132500019D02*
X156952323Y-133500019D01*
X156952323Y-133500019D02*
X156952323Y-132500019D01*
X157380895Y-132595257D02*
X157428514Y-132547638D01*
X157428514Y-132547638D02*
X157523752Y-132500019D01*
X157523752Y-132500019D02*
X157761847Y-132500019D01*
X157761847Y-132500019D02*
X157857085Y-132547638D01*
X157857085Y-132547638D02*
X157904704Y-132595257D01*
X157904704Y-132595257D02*
X157952323Y-132690495D01*
X157952323Y-132690495D02*
X157952323Y-132785733D01*
X157952323Y-132785733D02*
X157904704Y-132928590D01*
X157904704Y-132928590D02*
X157333276Y-133500019D01*
X157333276Y-133500019D02*
X157952323Y-133500019D01*
X187757600Y-108158304D02*
X187805219Y-108015447D01*
X187805219Y-108015447D02*
X187805219Y-107777352D01*
X187805219Y-107777352D02*
X187757600Y-107682114D01*
X187757600Y-107682114D02*
X187709980Y-107634495D01*
X187709980Y-107634495D02*
X187614742Y-107586876D01*
X187614742Y-107586876D02*
X187519504Y-107586876D01*
X187519504Y-107586876D02*
X187424266Y-107634495D01*
X187424266Y-107634495D02*
X187376647Y-107682114D01*
X187376647Y-107682114D02*
X187329028Y-107777352D01*
X187329028Y-107777352D02*
X187281409Y-107967828D01*
X187281409Y-107967828D02*
X187233790Y-108063066D01*
X187233790Y-108063066D02*
X187186171Y-108110685D01*
X187186171Y-108110685D02*
X187090933Y-108158304D01*
X187090933Y-108158304D02*
X186995695Y-108158304D01*
X186995695Y-108158304D02*
X186900457Y-108110685D01*
X186900457Y-108110685D02*
X186852838Y-108063066D01*
X186852838Y-108063066D02*
X186805219Y-107967828D01*
X186805219Y-107967828D02*
X186805219Y-107729733D01*
X186805219Y-107729733D02*
X186852838Y-107586876D01*
X187138552Y-106729733D02*
X187805219Y-106729733D01*
X186757600Y-106967828D02*
X187471885Y-107205923D01*
X187471885Y-107205923D02*
X187471885Y-106586876D01*
X128188819Y-80343333D02*
X128903104Y-80343333D01*
X128903104Y-80343333D02*
X129045961Y-80390952D01*
X129045961Y-80390952D02*
X129141200Y-80486190D01*
X129141200Y-80486190D02*
X129188819Y-80629047D01*
X129188819Y-80629047D02*
X129188819Y-80724285D01*
X128522152Y-79438571D02*
X129188819Y-79438571D01*
X128141200Y-79676666D02*
X128855485Y-79914761D01*
X128855485Y-79914761D02*
X128855485Y-79295714D01*
X155760822Y-76889780D02*
X155713203Y-76937400D01*
X155713203Y-76937400D02*
X155570346Y-76985019D01*
X155570346Y-76985019D02*
X155475108Y-76985019D01*
X155475108Y-76985019D02*
X155332251Y-76937400D01*
X155332251Y-76937400D02*
X155237013Y-76842161D01*
X155237013Y-76842161D02*
X155189394Y-76746923D01*
X155189394Y-76746923D02*
X155141775Y-76556447D01*
X155141775Y-76556447D02*
X155141775Y-76413590D01*
X155141775Y-76413590D02*
X155189394Y-76223114D01*
X155189394Y-76223114D02*
X155237013Y-76127876D01*
X155237013Y-76127876D02*
X155332251Y-76032638D01*
X155332251Y-76032638D02*
X155475108Y-75985019D01*
X155475108Y-75985019D02*
X155570346Y-75985019D01*
X155570346Y-75985019D02*
X155713203Y-76032638D01*
X155713203Y-76032638D02*
X155760822Y-76080257D01*
X156189394Y-76985019D02*
X156189394Y-75985019D01*
X156189394Y-75985019D02*
X156760822Y-76985019D01*
X156760822Y-76985019D02*
X156760822Y-75985019D01*
X157760822Y-76985019D02*
X157189394Y-76985019D01*
X157475108Y-76985019D02*
X157475108Y-75985019D01*
X157475108Y-75985019D02*
X157379870Y-76127876D01*
X157379870Y-76127876D02*
X157284632Y-76223114D01*
X157284632Y-76223114D02*
X157189394Y-76270733D01*
D16*
X125996700Y-105116500D02*
X125996700Y-105536500D01*
X127766700Y-105536500D02*
X124226700Y-105536500D01*
X124226700Y-112776500D02*
X127766700Y-112776500D01*
X124226700Y-105536500D02*
X124226700Y-112776500D01*
X125996700Y-113196500D02*
X125996700Y-112776500D01*
X127766700Y-112776500D02*
X127766700Y-105536500D01*
X184574000Y-83632500D02*
X184574000Y-80832500D01*
X181864000Y-83632500D02*
X181864000Y-80832500D01*
X166454000Y-83632500D02*
X184574000Y-83632500D01*
X166454000Y-80832500D02*
X166454000Y-83632500D01*
X184574000Y-80832500D02*
X166454000Y-80832500D01*
X179384000Y-96092500D02*
X128464000Y-96092500D01*
X179384000Y-109012500D02*
X179384000Y-96092500D01*
X128464000Y-109012500D02*
X179384000Y-109012500D01*
X128464000Y-96092500D02*
X128464000Y-101552500D01*
X128464000Y-103552500D02*
X128464000Y-109012500D01*
X128464000Y-103552500D02*
G75*
G03*
X128464000Y-101552500I0J1000000D01*
G01*
X153984000Y-91232500D02*
X153984000Y-85932500D01*
X153984000Y-85932500D02*
X128464000Y-85932500D01*
X128464000Y-85932500D02*
X128464000Y-87582500D01*
X128464000Y-89582500D02*
X128464000Y-91232500D01*
X128464000Y-91232500D02*
X153984000Y-91232500D01*
X128464000Y-89582500D02*
G75*
G03*
X128464000Y-87582500I0J1000000D01*
G01*
X158944000Y-85932500D02*
X158944000Y-91232500D01*
X158944000Y-91232500D02*
X184464000Y-91232500D01*
X184464000Y-91232500D02*
X184464000Y-89582500D01*
X184464000Y-87582500D02*
X184464000Y-85932500D01*
X184464000Y-85932500D02*
X158944000Y-85932500D01*
X184464000Y-87582500D02*
G75*
G03*
X184464000Y-89582500I0J-1000000D01*
G01*
X125464000Y-77828000D02*
X121424000Y-77828000D01*
X121424000Y-80668000D02*
X121424000Y-80043000D01*
X121424000Y-78453000D02*
X121424000Y-77828000D01*
X125464000Y-80668000D02*
X125464000Y-80043000D01*
X125464000Y-78453000D02*
X125464000Y-77828000D01*
X125464000Y-80668000D02*
X121424000Y-80668000D01*
X159080000Y-112505000D02*
X159080000Y-116545000D01*
X161920000Y-116545000D02*
X161295000Y-116545000D01*
X159705000Y-116545000D02*
X159080000Y-116545000D01*
X161920000Y-112505000D02*
X161295000Y-112505000D01*
X159705000Y-112505000D02*
X159080000Y-112505000D01*
X161920000Y-112505000D02*
X161920000Y-116545000D01*
X156895000Y-85695000D02*
X156895000Y-81655000D01*
X154055000Y-81655000D02*
X154680000Y-81655000D01*
X156270000Y-81655000D02*
X156895000Y-81655000D01*
X154055000Y-85695000D02*
X154680000Y-85695000D01*
X156270000Y-85695000D02*
X156895000Y-85695000D01*
X154055000Y-85695000D02*
X154055000Y-81655000D01*
X158720000Y-90320000D02*
X158720000Y-86280000D01*
X155880000Y-86280000D02*
X156505000Y-86280000D01*
X158095000Y-86280000D02*
X158720000Y-86280000D01*
X155880000Y-90320000D02*
X156505000Y-90320000D01*
X158095000Y-90320000D02*
X158720000Y-90320000D01*
X155880000Y-90320000D02*
X155880000Y-86280000D01*
X122428000Y-82574000D02*
X122428000Y-83344000D01*
X122428000Y-90654000D02*
X122428000Y-89884000D01*
X121058000Y-89884000D02*
X123798000Y-89884000D01*
X123798000Y-83344000D02*
X121058000Y-83344000D01*
X123798000Y-89884000D02*
X123798000Y-83344000D01*
X121058000Y-83344000D02*
X121058000Y-89884000D01*
X177455000Y-112730000D02*
X177455000Y-116770000D01*
X180295000Y-116770000D02*
X179670000Y-116770000D01*
X178080000Y-116770000D02*
X177455000Y-116770000D01*
X180295000Y-112730000D02*
X179670000Y-112730000D01*
X178080000Y-112730000D02*
X177455000Y-112730000D01*
X180295000Y-112730000D02*
X180295000Y-116770000D01*
X167965000Y-112250000D02*
X174365000Y-112250000D01*
X167965000Y-117300000D02*
X174365000Y-117300000D01*
X167965000Y-112250000D02*
G75*
G03*
X167965000Y-117300000I0J-2525000D01*
G01*
X174365000Y-117300000D02*
G75*
G03*
X174365000Y-112250000I0J2525000D01*
G01*
X119380000Y-90654000D02*
X119380000Y-89884000D01*
X119380000Y-82574000D02*
X119380000Y-83344000D01*
X120750000Y-83344000D02*
X118010000Y-83344000D01*
X118010000Y-89884000D02*
X120750000Y-89884000D01*
X118010000Y-83344000D02*
X118010000Y-89884000D01*
X120750000Y-89884000D02*
X120750000Y-83344000D01*
X122530100Y-113612100D02*
X122686100Y-113612100D01*
X120214100Y-113612100D02*
X120370100Y-113612100D01*
X122530099Y-113093060D02*
G75*
G03*
X122529936Y-111010971I-1079999J1040960D01*
G01*
X120371492Y-110379766D02*
G75*
G03*
X120214585Y-113612099I1078608J-1672334D01*
G01*
X122685615Y-113612099D02*
G75*
G03*
X122528708Y-110379766I-1235515J1559999D01*
G01*
X120370264Y-111010971D02*
G75*
G03*
X120370101Y-113093060I1079836J-1041129D01*
G01*
X122530100Y-106906500D02*
X122686100Y-106906500D01*
X120214100Y-106906500D02*
X120370100Y-106906500D01*
X122530099Y-106387460D02*
G75*
G03*
X122529936Y-104305371I-1079999J1040960D01*
G01*
X120371492Y-103674166D02*
G75*
G03*
X120214585Y-106906499I1078608J-1672334D01*
G01*
X122685615Y-106906499D02*
G75*
G03*
X122528708Y-103674166I-1235515J1559999D01*
G01*
X120370264Y-104305371D02*
G75*
G03*
X120370101Y-106387460I1079836J-1041129D01*
G01*
X193982000Y-80487500D02*
X179282000Y-80487500D01*
X193982000Y-71287500D02*
X193982000Y-80487500D01*
X179282000Y-71287500D02*
X181182000Y-71287500D01*
X179282000Y-73987500D02*
X179282000Y-71287500D01*
X179282000Y-80487500D02*
X179282000Y-77887500D01*
X185182000Y-71287500D02*
X193982000Y-71287500D01*
X179082000Y-79637500D02*
X179082000Y-80687500D01*
X180132000Y-80687500D02*
X179082000Y-80687500D01*
X122542800Y-100327900D02*
X122698800Y-100327900D01*
X120226800Y-100327900D02*
X120382800Y-100327900D01*
X122542799Y-99808860D02*
G75*
G03*
X122542636Y-97726771I-1079999J1040960D01*
G01*
X120384192Y-97095566D02*
G75*
G03*
X120227285Y-100327899I1078608J-1672334D01*
G01*
X122698315Y-100327899D02*
G75*
G03*
X122541408Y-97095566I-1235515J1559999D01*
G01*
X120382964Y-97726771D02*
G75*
G03*
X120382801Y-99808860I1079836J-1041129D01*
G01*
X182667600Y-99161600D02*
X182667600Y-111921600D01*
X182667600Y-97891600D02*
X182667600Y-96561600D01*
X182667600Y-96561600D02*
X183997600Y-96561600D01*
X182667600Y-99161600D02*
X185327600Y-99161600D01*
X182667600Y-111921600D02*
X185327600Y-111921600D01*
X185327600Y-99161600D02*
X185327600Y-111921600D01*
X187198000Y-91464000D02*
X187198000Y-92234000D01*
X187198000Y-99544000D02*
X187198000Y-98774000D01*
X185828000Y-98774000D02*
X188568000Y-98774000D01*
X188568000Y-92234000D02*
X185828000Y-92234000D01*
X188568000Y-98774000D02*
X188568000Y-92234000D01*
X185828000Y-92234000D02*
X185828000Y-98774000D01*
X190093600Y-99544000D02*
X190093600Y-98774000D01*
X190093600Y-91464000D02*
X190093600Y-92234000D01*
X191463600Y-92234000D02*
X188723600Y-92234000D01*
X188723600Y-98774000D02*
X191463600Y-98774000D01*
X188723600Y-92234000D02*
X188723600Y-98774000D01*
X191463600Y-98774000D02*
X191463600Y-92234000D01*
X162305000Y-112505000D02*
X162305000Y-116545000D01*
X165145000Y-116545000D02*
X164520000Y-116545000D01*
X162930000Y-116545000D02*
X162305000Y-116545000D01*
X165145000Y-112505000D02*
X164520000Y-112505000D01*
X162930000Y-112505000D02*
X162305000Y-112505000D01*
X165145000Y-112505000D02*
X165145000Y-116545000D01*
X125476000Y-90654000D02*
X125476000Y-89884000D01*
X125476000Y-82574000D02*
X125476000Y-83344000D01*
X126846000Y-83344000D02*
X124106000Y-83344000D01*
X124106000Y-89884000D02*
X126846000Y-89884000D01*
X124106000Y-83344000D02*
X124106000Y-89884000D01*
X126846000Y-89884000D02*
X126846000Y-83344000D01*
X123561800Y-73126600D02*
X123561800Y-71796600D01*
X123561800Y-76996600D02*
X126221800Y-76996600D01*
X123561800Y-74396600D02*
X123561800Y-76996600D01*
X123561800Y-74396600D02*
X126221800Y-74396600D01*
X123561800Y-71796600D02*
X124891800Y-71796600D01*
X126221800Y-74396600D02*
X126221800Y-76996600D01*
X124589400Y-98520500D02*
X124589400Y-102560500D01*
X127429400Y-102560500D02*
X126804400Y-102560500D01*
X125214400Y-102560500D02*
X124589400Y-102560500D01*
X127429400Y-98520500D02*
X126804400Y-98520500D01*
X125214400Y-98520500D02*
X124589400Y-98520500D01*
X127429400Y-98520500D02*
X127429400Y-102560500D01*
X190536621Y-86130000D02*
X190536621Y-87638000D01*
X190016621Y-86130000D02*
X190016621Y-87966000D01*
X189616621Y-82043000D02*
X189616621Y-84050000D01*
X191176621Y-83200000D02*
X191176621Y-86980000D01*
X189336621Y-81959000D02*
X189336621Y-84050000D01*
X188615621Y-81860000D02*
X188615621Y-88320000D01*
X189416621Y-86130000D02*
X189416621Y-88200000D01*
X189536621Y-86130000D02*
X189536621Y-88164000D01*
X188575621Y-81860000D02*
X188575621Y-88320000D01*
X191216621Y-83256000D02*
X191216621Y-86924000D01*
X191096621Y-83095000D02*
X191096621Y-87085000D01*
X189095621Y-86130000D02*
X189095621Y-88272000D01*
X190136621Y-86130000D02*
X190136621Y-87902000D01*
X190056621Y-82234000D02*
X190056621Y-84050000D01*
X190816621Y-82785000D02*
X190816621Y-84050000D01*
X189095621Y-81908000D02*
X189095621Y-84050000D01*
X191696621Y-84288000D02*
X191696621Y-85892000D01*
X188655621Y-81862000D02*
X188655621Y-88318000D01*
X190176621Y-86130000D02*
X190176621Y-87880000D01*
X185035380Y-83251000D02*
X185665380Y-83251000D01*
X190256621Y-86130000D02*
X190256621Y-87832000D01*
X191776621Y-84688000D02*
X191776621Y-85492000D01*
X189175621Y-86130000D02*
X189175621Y-88257000D01*
X189776621Y-86130000D02*
X189776621Y-88076000D01*
X190136621Y-82278000D02*
X190136621Y-84050000D01*
X190296621Y-86130000D02*
X190296621Y-87806000D01*
X189055621Y-86130000D02*
X189055621Y-88279000D01*
X191416621Y-83581000D02*
X191416621Y-86599000D01*
X190896621Y-82866000D02*
X190896621Y-87314000D01*
X189696621Y-86130000D02*
X189696621Y-88108000D01*
X190616621Y-82606000D02*
X190616621Y-84050000D01*
X191336621Y-83440000D02*
X191336621Y-86740000D01*
X189135621Y-86130000D02*
X189135621Y-88265000D01*
X188815621Y-86130000D02*
X188815621Y-88308000D01*
X190376621Y-82426000D02*
X190376621Y-84050000D01*
X191456621Y-83658000D02*
X191456621Y-86522000D01*
X188975621Y-81889000D02*
X188975621Y-84050000D01*
X190096621Y-82256000D02*
X190096621Y-84050000D01*
X189336621Y-86130000D02*
X189336621Y-88221000D01*
X188775621Y-81868000D02*
X188775621Y-84050000D01*
X190696621Y-82674000D02*
X190696621Y-84050000D01*
X190336621Y-82400000D02*
X190336621Y-84050000D01*
X191256621Y-83314000D02*
X191256621Y-86866000D01*
X190416621Y-86130000D02*
X190416621Y-87726000D01*
X191736621Y-84457000D02*
X191736621Y-85723000D01*
X190816621Y-86130000D02*
X190816621Y-87395000D01*
X190496621Y-86130000D02*
X190496621Y-87668000D01*
X188855621Y-86130000D02*
X188855621Y-88305000D01*
X189816621Y-82120000D02*
X189816621Y-84050000D01*
X188855621Y-81875000D02*
X188855621Y-84050000D01*
X190176621Y-82300000D02*
X190176621Y-84050000D01*
X189856621Y-82138000D02*
X189856621Y-84050000D01*
X190216621Y-86130000D02*
X190216621Y-87856000D01*
X190976621Y-82953000D02*
X190976621Y-87227000D01*
X190456621Y-82483000D02*
X190456621Y-84050000D01*
X189296621Y-86130000D02*
X189296621Y-88231000D01*
X189816621Y-86130000D02*
X189816621Y-88060000D01*
X189936621Y-86130000D02*
X189936621Y-88006000D01*
X191056621Y-83046000D02*
X191056621Y-87134000D01*
X191016621Y-82998000D02*
X191016621Y-87182000D01*
X189856621Y-86130000D02*
X189856621Y-88042000D01*
X190776621Y-82747000D02*
X190776621Y-84050000D01*
X189496621Y-86130000D02*
X189496621Y-88176000D01*
X191496621Y-83740000D02*
X191496621Y-86440000D01*
X189256621Y-81940000D02*
X189256621Y-84050000D01*
X189896621Y-82156000D02*
X189896621Y-84050000D01*
X190776621Y-86130000D02*
X190776621Y-87433000D01*
X189696621Y-82072000D02*
X189696621Y-84050000D01*
X190056621Y-86130000D02*
X190056621Y-87946000D01*
X189015621Y-86130000D02*
X189015621Y-88285000D01*
X189416621Y-81980000D02*
X189416621Y-84050000D01*
X190456621Y-86130000D02*
X190456621Y-87697000D01*
X190696621Y-86130000D02*
X190696621Y-87506000D01*
X189656621Y-82057000D02*
X189656621Y-84050000D01*
X189256621Y-86130000D02*
X189256621Y-88240000D01*
X185350380Y-82936000D02*
X185350380Y-83566000D01*
X190096621Y-86130000D02*
X190096621Y-87924000D01*
X191296621Y-83376000D02*
X191296621Y-86804000D01*
X190736621Y-82710000D02*
X190736621Y-84050000D01*
X191376621Y-83509000D02*
X191376621Y-86671000D01*
X189135621Y-81915000D02*
X189135621Y-84050000D01*
X191616621Y-84031000D02*
X191616621Y-86149000D01*
X191656621Y-84150000D02*
X191656621Y-86030000D01*
X188975621Y-86130000D02*
X188975621Y-88291000D01*
X189976621Y-82194000D02*
X189976621Y-84050000D01*
X189576621Y-86130000D02*
X189576621Y-88151000D01*
X189055621Y-81901000D02*
X189055621Y-84050000D01*
X189215621Y-81931000D02*
X189215621Y-84050000D01*
X189456621Y-81992000D02*
X189456621Y-84050000D01*
X188535621Y-81860000D02*
X188535621Y-88320000D01*
X189376621Y-86130000D02*
X189376621Y-88211000D01*
X190216621Y-82324000D02*
X190216621Y-84050000D01*
X189376621Y-81969000D02*
X189376621Y-84050000D01*
X189656621Y-86130000D02*
X189656621Y-88123000D01*
X189296621Y-81949000D02*
X189296621Y-84050000D01*
X188815621Y-81872000D02*
X188815621Y-84050000D01*
X190656621Y-82640000D02*
X190656621Y-84050000D01*
X190856621Y-82825000D02*
X190856621Y-87355000D01*
X189976621Y-86130000D02*
X189976621Y-87986000D01*
X190496621Y-82512000D02*
X190496621Y-84050000D01*
X188775621Y-86130000D02*
X188775621Y-88312000D01*
X189496621Y-82004000D02*
X189496621Y-84050000D01*
X189456621Y-86130000D02*
X189456621Y-88188000D01*
X191576621Y-83925000D02*
X191576621Y-86255000D01*
X190416621Y-82454000D02*
X190416621Y-84050000D01*
X190576621Y-86130000D02*
X190576621Y-87606000D01*
X189616621Y-86130000D02*
X189616621Y-88137000D01*
X190936621Y-82908000D02*
X190936621Y-87272000D01*
X191136621Y-83146000D02*
X191136621Y-87034000D01*
X191536621Y-83828000D02*
X191536621Y-86352000D01*
X188935621Y-86130000D02*
X188935621Y-88296000D01*
X190736621Y-86130000D02*
X190736621Y-87470000D01*
X190256621Y-82348000D02*
X190256621Y-84050000D01*
X189175621Y-81923000D02*
X189175621Y-84050000D01*
X189896621Y-86130000D02*
X189896621Y-88024000D01*
X188695621Y-81863000D02*
X188695621Y-88317000D01*
X190616621Y-86130000D02*
X190616621Y-87574000D01*
X190336621Y-86130000D02*
X190336621Y-87780000D01*
X190536621Y-82542000D02*
X190536621Y-84050000D01*
X188895621Y-86130000D02*
X188895621Y-88301000D01*
X190016621Y-82214000D02*
X190016621Y-84050000D01*
X190376621Y-86130000D02*
X190376621Y-87754000D01*
X188935621Y-81884000D02*
X188935621Y-84050000D01*
X190576621Y-82574000D02*
X190576621Y-84050000D01*
X189776621Y-82104000D02*
X189776621Y-84050000D01*
X189536621Y-82016000D02*
X189536621Y-84050000D01*
X189576621Y-82029000D02*
X189576621Y-84050000D01*
X188895621Y-81879000D02*
X188895621Y-84050000D01*
X189736621Y-82088000D02*
X189736621Y-84050000D01*
X189736621Y-86130000D02*
X189736621Y-88092000D01*
X189015621Y-81895000D02*
X189015621Y-84050000D01*
X189936621Y-82174000D02*
X189936621Y-84050000D01*
X189215621Y-86130000D02*
X189215621Y-88249000D01*
X190656621Y-86130000D02*
X190656621Y-87540000D01*
X190296621Y-82374000D02*
X190296621Y-84050000D01*
X188735621Y-81866000D02*
X188735621Y-88314000D01*
X191805621Y-85090000D02*
G75*
G03*
X185265621Y-85090000I-3270000J0D01*
G01*
X185265621Y-85090000D02*
G75*
G03*
X191805621Y-85090000I3270000J0D01*
G01*
X185730400Y-104416400D02*
X186080400Y-104416400D01*
X185730400Y-104416400D02*
X185730400Y-103526400D01*
X192520400Y-103526400D02*
X188670400Y-103526400D01*
X192520400Y-111266400D02*
X192520400Y-103526400D01*
X186030400Y-111266400D02*
X185730400Y-111266400D01*
X185730400Y-111266400D02*
X185730400Y-110376400D01*
X186030400Y-103526400D02*
X185730400Y-103526400D01*
X185730400Y-110376400D02*
X186080400Y-110376400D01*
X188280400Y-104906400D02*
X188280400Y-109886400D01*
X188670400Y-111266400D02*
X192520400Y-111266400D01*
X132334000Y-81340000D02*
X145094000Y-81340000D01*
X131064000Y-81340000D02*
X129734000Y-81340000D01*
X129734000Y-81340000D02*
X129734000Y-80010000D01*
X132334000Y-81340000D02*
X132334000Y-78680000D01*
X145094000Y-81340000D02*
X145094000Y-78680000D01*
X132334000Y-78680000D02*
X145094000Y-78680000D01*
%LPC*%
D17*
X177215800Y-131597400D02*
X128003300Y-131597400D01*
X127939800Y-121945400D01*
X177215800Y-121945400D01*
X177215800Y-131597400D01*
G36*
X177215800Y-131597400D02*
G01*
X128003300Y-131597400D01*
X127939800Y-121945400D01*
X177215800Y-121945400D01*
X177215800Y-131597400D01*
G37*
X176117250Y-65862200D02*
X176002950Y-75361800D01*
X128739900Y-75298300D01*
X128790700Y-65798700D01*
X176117250Y-65862200D01*
G36*
X176117250Y-65862200D02*
G01*
X176002950Y-75361800D01*
X128739900Y-75298300D01*
X128790700Y-65798700D01*
X176117250Y-65862200D01*
G37*
D18*
X125996700Y-104076500D03*
D19*
X125996700Y-114236500D03*
D20*
X183134000Y-82232500D03*
D19*
X180594000Y-82232500D03*
X178054000Y-82232500D03*
X175514000Y-82232500D03*
X172974000Y-82232500D03*
X170434000Y-82232500D03*
X167894000Y-82232500D03*
D20*
X129794000Y-110172500D03*
D19*
X132334000Y-110172500D03*
X134874000Y-110172500D03*
X137414000Y-110172500D03*
X139954000Y-110172500D03*
X142494000Y-110172500D03*
X145034000Y-110172500D03*
X147574000Y-110172500D03*
X150114000Y-110172500D03*
X152654000Y-110172500D03*
X155194000Y-110172500D03*
X157734000Y-110172500D03*
X160274000Y-110172500D03*
X162814000Y-110172500D03*
X165354000Y-110172500D03*
X167894000Y-110172500D03*
X170434000Y-110172500D03*
X172974000Y-110172500D03*
X175514000Y-110172500D03*
X178054000Y-110172500D03*
X178054000Y-94932500D03*
X175514000Y-94932500D03*
X172974000Y-94932500D03*
X170434000Y-94932500D03*
X167894000Y-94932500D03*
X165354000Y-94932500D03*
X162814000Y-94932500D03*
X160274000Y-94932500D03*
X157734000Y-94932500D03*
X155194000Y-94932500D03*
X152654000Y-94932500D03*
X150114000Y-94932500D03*
X147574000Y-94932500D03*
X145034000Y-94932500D03*
X142494000Y-94932500D03*
X139954000Y-94932500D03*
X137414000Y-94932500D03*
X134874000Y-94932500D03*
X132334000Y-94932500D03*
X129794000Y-94932500D03*
D20*
X129794000Y-92392500D03*
D19*
X132334000Y-92392500D03*
X134874000Y-92392500D03*
X137414000Y-92392500D03*
X139954000Y-92392500D03*
X142494000Y-92392500D03*
X145034000Y-92392500D03*
X147574000Y-92392500D03*
X150114000Y-92392500D03*
X152654000Y-92392500D03*
X152654000Y-84772500D03*
X150114000Y-84772500D03*
X147574000Y-84772500D03*
X145034000Y-84772500D03*
X142494000Y-84772500D03*
X139954000Y-84772500D03*
X137414000Y-84772500D03*
X134874000Y-84772500D03*
X132334000Y-84772500D03*
X129794000Y-84772500D03*
D20*
X183134000Y-84772500D03*
D19*
X180594000Y-84772500D03*
X178054000Y-84772500D03*
X175514000Y-84772500D03*
X172974000Y-84772500D03*
X170434000Y-84772500D03*
X167894000Y-84772500D03*
X165354000Y-84772500D03*
X162814000Y-84772500D03*
X160274000Y-84772500D03*
X160274000Y-92392500D03*
X162814000Y-92392500D03*
X165354000Y-92392500D03*
X167894000Y-92392500D03*
X170434000Y-92392500D03*
X172974000Y-92392500D03*
X175514000Y-92392500D03*
X178054000Y-92392500D03*
X180594000Y-92392500D03*
X183134000Y-92392500D03*
D18*
X124694000Y-79248000D03*
X122194000Y-79248000D03*
X160500000Y-113275000D03*
X160500000Y-115775000D03*
X155475000Y-84925000D03*
X155475000Y-82425000D03*
X157300000Y-89550000D03*
X157300000Y-87050000D03*
X122428000Y-91694000D03*
D19*
X122428000Y-81534000D03*
D18*
X178875000Y-113500000D03*
X178875000Y-116000000D03*
D21*
X168725000Y-114775000D03*
X173605000Y-114775000D03*
D18*
X119380000Y-81534000D03*
D19*
X119380000Y-91694000D03*
D22*
X121450100Y-113322100D03*
D23*
X121450100Y-110782100D03*
D22*
X121450100Y-106616500D03*
D23*
X121450100Y-104076500D03*
D24*
X180182000Y-75887500D03*
D25*
X186182000Y-75887500D03*
D26*
X183182000Y-71187500D03*
D22*
X121462800Y-100037900D03*
D23*
X121462800Y-97497900D03*
D27*
X183997600Y-97891600D03*
D28*
X183997600Y-100431600D03*
X183997600Y-102971600D03*
X183997600Y-105511600D03*
X183997600Y-108051600D03*
X183997600Y-110591600D03*
D18*
X187198000Y-100584000D03*
D19*
X187198000Y-90424000D03*
D18*
X190093600Y-90424000D03*
D19*
X190093600Y-100584000D03*
D18*
X163725000Y-113275000D03*
X163725000Y-115775000D03*
X125476000Y-81534000D03*
D19*
X125476000Y-91694000D03*
D27*
X124891800Y-73126600D03*
D28*
X124891800Y-75666600D03*
D18*
X126009400Y-99290500D03*
X126009400Y-101790500D03*
D20*
X187285621Y-85090000D03*
D18*
X189785621Y-85090000D03*
D29*
X131052300Y-126923800D03*
X135012300Y-126923800D03*
X138972300Y-126923800D03*
X142932300Y-126923800D03*
X146892300Y-126923800D03*
X150852300Y-126923800D03*
X154812300Y-126923800D03*
X158772300Y-126923800D03*
X162732300Y-126923800D03*
X166692300Y-126923800D03*
X170652300Y-126923800D03*
X174612300Y-126923800D03*
X135012300Y-126923800D03*
X138972300Y-126923800D03*
X142932300Y-126923800D03*
X146892300Y-126923800D03*
X150852300Y-126923800D03*
X154812300Y-126923800D03*
X158772300Y-126923800D03*
X162732300Y-126923800D03*
X166692300Y-126923800D03*
X170652300Y-126923800D03*
X174612300Y-126923800D03*
D30*
X187350400Y-110896400D03*
X187350400Y-103896400D03*
D31*
X189850400Y-105146400D03*
X189850400Y-109646400D03*
D27*
X131064000Y-80010000D03*
D28*
X133604000Y-80010000D03*
X136144000Y-80010000D03*
X138684000Y-80010000D03*
X141224000Y-80010000D03*
X143764000Y-80010000D03*
D29*
X130860799Y-70408800D03*
X134820799Y-70408800D03*
X138780799Y-70408800D03*
X142740799Y-70408800D03*
X146700799Y-70408800D03*
X150660799Y-70408800D03*
X154620799Y-70408800D03*
X158580799Y-70408800D03*
X162540799Y-70408800D03*
X166500799Y-70408800D03*
X170460799Y-70408800D03*
X174420799Y-70408800D03*
X134820799Y-70408800D03*
X138780799Y-70408800D03*
X142740799Y-70408800D03*
X146700799Y-70408800D03*
X150660799Y-70408800D03*
X154620799Y-70408800D03*
X158580799Y-70408800D03*
X162540799Y-70408800D03*
X166500799Y-70408800D03*
X170460799Y-70408800D03*
X174420799Y-70408800D03*
%LPD*%
D32*
X192151000Y-65786000D02*
X192151000Y-114109500D01*
X138669428Y-117106700D02*
G75*
G03*
X135294972Y-117106700I-1687228J0D01*
G01*
X135294972Y-117106700D02*
G75*
G03*
X138669428Y-117106700I1687228J0D01*
G01*
X192151000Y-114109500D02*
X192151000Y-120142000D01*
X129400300Y-131432300D02*
X135051800Y-131432300D01*
X177152300Y-130035300D02*
X177152300Y-120192800D01*
X138925300Y-131432300D02*
X162801300Y-131432300D01*
X166674800Y-131432300D02*
X175755300Y-131432300D01*
X165277800Y-130035300D02*
X165277800Y-122351800D01*
X136448800Y-122415300D02*
X136448800Y-130035300D01*
X137528300Y-130035300D02*
G75*
G03*
X138925300Y-131432300I1397000J0D01*
G01*
X165277800Y-122351800D02*
X164198300Y-122351800D01*
X135051800Y-131432300D02*
G75*
G03*
X136448800Y-130035300I0J1397000D01*
G01*
X136448800Y-122415300D02*
X137528300Y-122415300D01*
X164198300Y-122351800D02*
X164198300Y-130035300D01*
X175755300Y-131432300D02*
G75*
G03*
X177152300Y-130035300I0J1397000D01*
G01*
X162801300Y-131432300D02*
G75*
G03*
X164198300Y-130035300I0J1397000D01*
G01*
X137528300Y-130035300D02*
X137528300Y-122415300D01*
X165277800Y-130035300D02*
G75*
G03*
X166674800Y-131432300I1397000J0D01*
G01*
X128003300Y-130035300D02*
G75*
G03*
X129400300Y-131432300I1397000J0D01*
G01*
X177152300Y-120142000D02*
X177152300Y-120192800D01*
X117221000Y-120230900D02*
X117221000Y-65786000D01*
X192151000Y-65786000D02*
X117221000Y-65786000D01*
X192151000Y-120142000D02*
X181165500Y-120142000D01*
X121762228Y-68675000D02*
G75*
G03*
X118387772Y-68675000I-1687228J0D01*
G01*
X118387772Y-68675000D02*
G75*
G03*
X121762228Y-68675000I1687228J0D01*
G01*
X121762228Y-117348000D02*
G75*
G03*
X118387772Y-117348000I-1687228J0D01*
G01*
X118387772Y-117348000D02*
G75*
G03*
X121762228Y-117348000I1687228J0D01*
G01*
X128003300Y-120230900D02*
X117221000Y-120230900D01*
X129637228Y-117106700D02*
G75*
G03*
X126262772Y-117106700I-1687228J0D01*
G01*
X126262772Y-117106700D02*
G75*
G03*
X129637228Y-117106700I1687228J0D01*
G01*
X181165500Y-120142000D02*
X177152300Y-120142000D01*
X149515228Y-114717227D02*
G75*
G03*
X146140772Y-114717227I-1687228J0D01*
G01*
X146140772Y-114717227D02*
G75*
G03*
X149515228Y-114717227I1687228J0D01*
G01*
X128003300Y-130035300D02*
X128003300Y-120230900D01*
X190887228Y-68625000D02*
G75*
G03*
X187512772Y-68625000I-1687228J0D01*
G01*
X187512772Y-68625000D02*
G75*
G03*
X190887228Y-68625000I1687228J0D01*
G01*
X190887228Y-117348000D02*
G75*
G03*
X187512772Y-117348000I-1687228J0D01*
G01*
X187512772Y-117348000D02*
G75*
G03*
X190887228Y-117348000I1687228J0D01*
G01*
M02*
