M48
; DRILL file {KiCad 7.0.10} date Wed Feb 21 12:14:20 2024
; FORMAT={-:-/ absolute / inch / decimal}
; #@! TF.CreationDate,2024-02-21T12:14:20-05:00
; #@! TF.GenerationSoftware,Kicad,Pcbnew,7.0.10
; #@! TF.FileFunction,Plated,1,2,PTH
FMAT,2
INCH
; #@! TA.AperFunction,Plated,PTH,ViaDrill
T1C0.0157
; #@! TA.AperFunction,Plated,PTH,ViaDrill
T2C0.0315
; #@! TA.AperFunction,Plated,PTH,ComponentDrill
T3C0.0315
; #@! TA.AperFunction,Plated,PTH,ComponentDrill
T4C0.0354
; #@! TA.AperFunction,Plated,PTH,ComponentDrill
T5C0.0394
; #@! TA.AperFunction,Plated,PTH,ComponentDrill
T6C0.0512
%
G90
G05
T1
X4.98Y-3.83
X5.0215Y-3.878
X5.1235Y-4.43
X5.1235Y-4.731
X5.15Y-3.874
X5.22Y-4.43
X5.2687Y-4.7352
X5.4636Y-4.4321
X5.4724Y-4.7333
X5.5125Y-4.014
X5.5485Y-4.1425
X5.61Y-3.43
X5.622Y-4.1437
X5.6545Y-4.7136
X5.6619Y-4.6137
X5.689Y-4.1447
X5.7075Y-3.4875
X5.805Y-3.485
X5.8085Y-4.022
X5.8597Y-3.0881
X5.8656Y-4.1324
X5.9Y-3.4875
X5.9144Y-4.2087
X5.9285Y-4.1015
X5.98Y-3.14
X6.01Y-3.06
X6.0575Y-3.54
X6.065Y-3.9625
X6.087Y-3.0525
X6.11Y-3.6344
X6.15Y-4.43
X6.156Y-3.8865
X6.1575Y-4.0025
X6.17Y-3.809
X6.21Y-3.6375
X6.2375Y-3.0525
X6.2509Y-4.7265
X6.32Y-3.5475
X6.411Y-3.8745
X6.51Y-3.9225
X6.57Y-4.0625
X6.5735Y-3.9195
X6.6175Y-3.5125
X6.66Y-3.923
X6.72Y-3.53
X6.7575Y-3.7975
X6.7844Y-4.6959
X6.813Y-3.5245
X6.9125Y-3.4865
X6.9535Y-3.8175
X7.1075Y-3.738
X7.1519Y-4.1953
X7.164Y-3.699
X7.21Y-3.565
X7.31Y-4.0059
X7.3219Y-3.7579
T2
X5.0705Y-3.97
X6.001Y-3.946
X6.007Y-4.111
X6.328Y-2.9975
X6.912Y-4.1105
X7.148Y-4.642
X7.248Y-4.642
T3
X4.7Y-3.21
X4.7Y-3.61
X4.8108Y-3.12
X4.82Y-3.21
X4.82Y-3.61
X4.9092Y-3.12
X4.94Y-3.21
X4.94Y-3.61
X4.9605Y-4.0975
X4.9605Y-4.4975
X4.961Y-3.9091
X4.961Y-4.0075
X5.11Y-3.3375
X5.11Y-3.6375
X5.11Y-3.7375
X5.11Y-4.3375
X5.21Y-3.3375
X5.21Y-3.6375
X5.21Y-3.7375
X5.21Y-4.3375
X5.31Y-3.3375
X5.31Y-3.6375
X5.31Y-3.7375
X5.31Y-4.3375
X5.41Y-3.3375
X5.41Y-3.6375
X5.41Y-3.7375
X5.41Y-4.3375
X5.51Y-3.3375
X5.51Y-3.6375
X5.51Y-3.7375
X5.51Y-4.3375
X5.61Y-3.3375
X5.61Y-3.6375
X5.61Y-3.7375
X5.61Y-4.3375
X5.71Y-3.3375
X5.71Y-3.6375
X5.71Y-3.7375
X5.71Y-4.3375
X5.81Y-3.3375
X5.81Y-3.6375
X5.81Y-3.7375
X5.81Y-4.3375
X5.91Y-3.3375
X5.91Y-3.6375
X5.91Y-3.7375
X5.91Y-4.3375
X6.01Y-3.3375
X6.01Y-3.6375
X6.01Y-3.7375
X6.01Y-4.3375
X6.11Y-3.7375
X6.11Y-4.3375
X6.1211Y-3.2451
X6.1211Y-3.3435
X6.1929Y-3.4272
X6.1929Y-3.5256
X6.21Y-3.7375
X6.21Y-4.3375
X6.31Y-3.3375
X6.31Y-3.6375
X6.31Y-3.7375
X6.31Y-4.3375
X6.3189Y-4.4596
X6.3189Y-4.5581
X6.41Y-3.3375
X6.41Y-3.6375
X6.41Y-3.7375
X6.41Y-4.3375
X6.4459Y-4.4596
X6.4459Y-4.5581
X6.51Y-3.3375
X6.51Y-3.6375
X6.51Y-3.7375
X6.51Y-4.3375
X6.61Y-3.2375
X6.61Y-3.3375
X6.61Y-3.6375
X6.61Y-3.7375
X6.61Y-4.3375
X6.6427Y-4.5187
X6.71Y-3.2375
X6.71Y-3.3375
X6.71Y-3.6375
X6.71Y-3.7375
X6.71Y-4.3375
X6.81Y-3.2375
X6.81Y-3.3375
X6.81Y-3.6375
X6.81Y-3.7375
X6.81Y-4.3375
X6.8348Y-4.5187
X6.91Y-3.2375
X6.91Y-3.3375
X6.91Y-3.6375
X6.91Y-3.7375
X6.91Y-4.3375
X7.01Y-3.2375
X7.01Y-3.3375
X7.01Y-3.6375
X7.01Y-3.7375
X7.01Y-4.3375
X7.0423Y-4.4685
X7.0423Y-4.5669
X7.11Y-3.2375
X7.11Y-3.3375
X7.11Y-3.6375
X7.21Y-3.2375
X7.21Y-3.3375
X7.21Y-3.6375
X7.37Y-3.56
X7.37Y-3.96
X7.3734Y-3.35
X7.4719Y-3.35
X7.484Y-3.56
X7.484Y-3.96
T4
X4.7815Y-4.0975
X4.7815Y-4.1975
X4.7815Y-4.3615
X4.7815Y-4.4615
X4.782Y-3.8385
X4.782Y-3.9385
T5
X4.917Y-2.879
X4.917Y-2.979
X5.16Y-3.15
X5.26Y-3.15
X5.36Y-3.15
X5.46Y-3.15
X5.56Y-3.15
X5.66Y-3.15
X7.244Y-3.854
X7.244Y-3.954
X7.244Y-4.054
X7.244Y-4.154
X7.244Y-4.254
X7.244Y-4.354
X7.4744Y-4.1396
X7.4744Y-4.3168
T6
X7.376Y-4.0904
X7.376Y-4.366
T5
G00X7.0938Y-3.0271
M15
G01X7.0938Y-2.9483
M16
G05
G00X7.2513Y-2.8027
M15
G01X7.1725Y-2.8027
M16
G05
G00X7.33Y-3.0271
M15
G01X7.33Y-2.9483
M16
G05
M30
