G04 #@! TF.GenerationSoftware,KiCad,Pcbnew,(5.1.9)-1*
G04 #@! TF.CreationDate,2021-05-14T21:12:05-04:00*
G04 #@! TF.ProjectId,CBM-SD,43424d2d-5344-42e6-9b69-6361645f7063,rev?*
G04 #@! TF.SameCoordinates,Original*
G04 #@! TF.FileFunction,Legend,Top*
G04 #@! TF.FilePolarity,Positive*
%FSLAX46Y46*%
G04 Gerber Fmt 4.6, Leading zero omitted, Abs format (unit mm)*
G04 Created by KiCad (PCBNEW (5.1.9)-1) date 2021-05-14 21:12:05*
%MOMM*%
%LPD*%
G01*
G04 APERTURE LIST*
%ADD10C,0.203200*%
G04 #@! TA.AperFunction,Profile*
%ADD11C,0.200660*%
G04 #@! TD*
%ADD12C,0.381000*%
%ADD13C,0.150000*%
%ADD14C,0.250000*%
%ADD15C,0.200000*%
%ADD16C,0.400000*%
%ADD17C,0.120000*%
%ADD18C,0.100000*%
%ADD19O,1.600000X1.600000*%
%ADD20R,1.600000X1.600000*%
%ADD21O,1.700000X1.700000*%
%ADD22R,1.700000X1.700000*%
%ADD23C,1.600000*%
%ADD24C,2.400000*%
%ADD25R,3.500000X3.500000*%
%ADD26C,1.800000*%
%ADD27R,1.800000X1.800000*%
%ADD28C,1.500000*%
%ADD29O,2.410000X8.760000*%
G04 APERTURE END LIST*
D10*
X122912414Y-73122971D02*
X123686509Y-73122971D01*
X123299461Y-73510019D02*
X123299461Y-72735923D01*
X124654128Y-72494019D02*
X124170319Y-72494019D01*
X124121938Y-72977828D01*
X124170319Y-72929447D01*
X124267080Y-72881066D01*
X124508985Y-72881066D01*
X124605747Y-72929447D01*
X124654128Y-72977828D01*
X124702509Y-73074590D01*
X124702509Y-73316495D01*
X124654128Y-73413257D01*
X124605747Y-73461638D01*
X124508985Y-73510019D01*
X124267080Y-73510019D01*
X124170319Y-73461638D01*
X124121938Y-73413257D01*
X124992795Y-72494019D02*
X125331461Y-73510019D01*
X125670128Y-72494019D01*
D11*
X122337228Y-69011800D02*
G75*
G03*
X122337228Y-69011800I-1687228J0D01*
G01*
X122337228Y-117104827D02*
G75*
G03*
X122337228Y-117104827I-1687228J0D01*
G01*
D12*
X180200300Y-116408200D02*
X185750200Y-116408200D01*
X185750200Y-116293900D02*
X185750200Y-119862600D01*
D11*
X192151000Y-120142000D02*
X181165500Y-120142000D01*
X192151000Y-65786000D02*
X117221000Y-65786000D01*
D10*
X181373538Y-114721519D02*
X180889728Y-114721519D01*
X180841347Y-115205328D01*
X180889728Y-115156947D01*
X180986490Y-115108566D01*
X181228395Y-115108566D01*
X181325157Y-115156947D01*
X181373538Y-115205328D01*
X181421919Y-115302090D01*
X181421919Y-115543995D01*
X181373538Y-115640757D01*
X181325157Y-115689138D01*
X181228395Y-115737519D01*
X180986490Y-115737519D01*
X180889728Y-115689138D01*
X180841347Y-115640757D01*
X181712204Y-114721519D02*
X182050871Y-115737519D01*
X182389538Y-114721519D01*
X184034490Y-114769900D02*
X183937728Y-114721519D01*
X183792585Y-114721519D01*
X183647442Y-114769900D01*
X183550680Y-114866661D01*
X183502300Y-114963423D01*
X183453919Y-115156947D01*
X183453919Y-115302090D01*
X183502300Y-115495614D01*
X183550680Y-115592376D01*
X183647442Y-115689138D01*
X183792585Y-115737519D01*
X183889347Y-115737519D01*
X184034490Y-115689138D01*
X184082871Y-115640757D01*
X184082871Y-115302090D01*
X183889347Y-115302090D01*
X184518300Y-115737519D02*
X184518300Y-114721519D01*
X185098871Y-115737519D01*
X185098871Y-114721519D01*
X185582680Y-115737519D02*
X185582680Y-114721519D01*
X185824585Y-114721519D01*
X185969728Y-114769900D01*
X186066490Y-114866661D01*
X186114871Y-114963423D01*
X186163252Y-115156947D01*
X186163252Y-115302090D01*
X186114871Y-115495614D01*
X186066490Y-115592376D01*
X185969728Y-115689138D01*
X185824585Y-115737519D01*
X185582680Y-115737519D01*
D12*
X180200300Y-116484400D02*
X180200300Y-120053100D01*
D13*
X190382614Y-67000428D02*
X191144519Y-67000428D01*
X190763566Y-67381380D02*
X190763566Y-66619476D01*
X191525471Y-67762333D02*
X191573090Y-67714714D01*
X191668328Y-67571857D01*
X191715947Y-67476619D01*
X191763566Y-67333761D01*
X191811185Y-67095666D01*
X191811185Y-66905190D01*
X191763566Y-66667095D01*
X191715947Y-66524238D01*
X191668328Y-66429000D01*
X191573090Y-66286142D01*
X191525471Y-66238523D01*
X191536533Y-67779804D02*
X191488914Y-67827423D01*
X191346057Y-67922661D01*
X191250819Y-67970280D01*
X191107961Y-68017900D01*
X190869866Y-68065519D01*
X190679390Y-68065519D01*
X190441295Y-68017900D01*
X190298438Y-67970280D01*
X190203200Y-67922661D01*
X190060342Y-67827423D01*
X190012723Y-67779804D01*
X190774628Y-67398852D02*
X190774628Y-66636947D01*
X191155580Y-67017900D02*
X190393676Y-67017900D01*
X191536533Y-66255995D02*
X191488914Y-66208376D01*
X191346057Y-66113138D01*
X191250819Y-66065519D01*
X191107961Y-66017900D01*
X190869866Y-65970280D01*
X190679390Y-65970280D01*
X190441295Y-66017900D01*
X190298438Y-66065519D01*
X190203200Y-66113138D01*
X190060342Y-66208376D01*
X190012723Y-66255995D01*
D11*
X117221000Y-120230900D02*
X117221000Y-65786000D01*
X128003300Y-120230900D02*
X117221000Y-120230900D01*
X128003300Y-130035300D02*
X128003300Y-120230900D01*
X138669428Y-117106700D02*
G75*
G03*
X138669428Y-117106700I-1687228J0D01*
G01*
X177152300Y-120142000D02*
X177152300Y-120192800D01*
X181165500Y-120142000D02*
X177152300Y-120142000D01*
X192151000Y-114109500D02*
X192151000Y-120142000D01*
D14*
X181295242Y-98628914D02*
X181247623Y-98700342D01*
X181104766Y-98771771D01*
X181009528Y-98771771D01*
X180866671Y-98700342D01*
X180771433Y-98557485D01*
X180723814Y-98414628D01*
X180676195Y-98128914D01*
X180676195Y-97914628D01*
X180723814Y-97628914D01*
X180771433Y-97486057D01*
X180866671Y-97343200D01*
X181009528Y-97271771D01*
X181104766Y-97271771D01*
X181247623Y-97343200D01*
X181295242Y-97414628D01*
X181676195Y-98700342D02*
X181819052Y-98771771D01*
X182057147Y-98771771D01*
X182152385Y-98700342D01*
X182200004Y-98628914D01*
X182247623Y-98486057D01*
X182247623Y-98343200D01*
X182200004Y-98200342D01*
X182152385Y-98128914D01*
X182057147Y-98057485D01*
X181866671Y-97986057D01*
X181771433Y-97914628D01*
X181723814Y-97843200D01*
X181676195Y-97700342D01*
X181676195Y-97557485D01*
X181723814Y-97414628D01*
X181771433Y-97343200D01*
X181866671Y-97271771D01*
X182104766Y-97271771D01*
X182247623Y-97343200D01*
X180438100Y-101128914D02*
X180390480Y-101200342D01*
X180247623Y-101271771D01*
X180152385Y-101271771D01*
X180009528Y-101200342D01*
X179914290Y-101057485D01*
X179866671Y-100914628D01*
X179819052Y-100628914D01*
X179819052Y-100414628D01*
X179866671Y-100128914D01*
X179914290Y-99986057D01*
X180009528Y-99843200D01*
X180152385Y-99771771D01*
X180247623Y-99771771D01*
X180390480Y-99843200D01*
X180438100Y-99914628D01*
X181342861Y-101271771D02*
X180866671Y-101271771D01*
X180866671Y-99771771D01*
X181676195Y-101271771D02*
X181676195Y-99771771D01*
X182247623Y-101271771D02*
X181819052Y-100414628D01*
X182247623Y-99771771D02*
X181676195Y-100628914D01*
X180485719Y-103771771D02*
X180485719Y-102271771D01*
X180819052Y-103343200D01*
X181152385Y-102271771D01*
X181152385Y-103771771D01*
X181819052Y-102271771D02*
X182009528Y-102271771D01*
X182104766Y-102343200D01*
X182200004Y-102486057D01*
X182247623Y-102771771D01*
X182247623Y-103271771D01*
X182200004Y-103557485D01*
X182104766Y-103700342D01*
X182009528Y-103771771D01*
X181819052Y-103771771D01*
X181723814Y-103700342D01*
X181628576Y-103557485D01*
X181580957Y-103271771D01*
X181580957Y-102771771D01*
X181628576Y-102486057D01*
X181723814Y-102343200D01*
X181819052Y-102271771D01*
X180104766Y-106271771D02*
X180104766Y-104771771D01*
X180438100Y-105843200D01*
X180771433Y-104771771D01*
X180771433Y-106271771D01*
X181247623Y-106271771D02*
X181247623Y-104771771D01*
X181676195Y-106200342D02*
X181819052Y-106271771D01*
X182057147Y-106271771D01*
X182152385Y-106200342D01*
X182200004Y-106128914D01*
X182247623Y-105986057D01*
X182247623Y-105843200D01*
X182200004Y-105700342D01*
X182152385Y-105628914D01*
X182057147Y-105557485D01*
X181866671Y-105486057D01*
X181771433Y-105414628D01*
X181723814Y-105343200D01*
X181676195Y-105200342D01*
X181676195Y-105057485D01*
X181723814Y-104914628D01*
X181771433Y-104843200D01*
X181866671Y-104771771D01*
X182104766Y-104771771D01*
X182247623Y-104843200D01*
X181342861Y-107271771D02*
X180866671Y-107271771D01*
X180819052Y-107986057D01*
X180866671Y-107914628D01*
X180961909Y-107843200D01*
X181200004Y-107843200D01*
X181295242Y-107914628D01*
X181342861Y-107986057D01*
X181390480Y-108128914D01*
X181390480Y-108486057D01*
X181342861Y-108628914D01*
X181295242Y-108700342D01*
X181200004Y-108771771D01*
X180961909Y-108771771D01*
X180866671Y-108700342D01*
X180819052Y-108628914D01*
X181676195Y-107271771D02*
X182009528Y-108771771D01*
X182342861Y-107271771D01*
X180152385Y-109843200D02*
X180057147Y-109771771D01*
X179914290Y-109771771D01*
X179771433Y-109843200D01*
X179676195Y-109986057D01*
X179628576Y-110128914D01*
X179580957Y-110414628D01*
X179580957Y-110628914D01*
X179628576Y-110914628D01*
X179676195Y-111057485D01*
X179771433Y-111200342D01*
X179914290Y-111271771D01*
X180009528Y-111271771D01*
X180152385Y-111200342D01*
X180200004Y-111128914D01*
X180200004Y-110628914D01*
X180009528Y-110628914D01*
X180628576Y-111271771D02*
X180628576Y-109771771D01*
X181200004Y-111271771D01*
X181200004Y-109771771D01*
X181676195Y-111271771D02*
X181676195Y-109771771D01*
X181914290Y-109771771D01*
X182057147Y-109843200D01*
X182152385Y-109986057D01*
X182200004Y-110128914D01*
X182247623Y-110414628D01*
X182247623Y-110628914D01*
X182200004Y-110914628D01*
X182152385Y-111057485D01*
X182057147Y-111200342D01*
X181914290Y-111271771D01*
X181676195Y-111271771D01*
D12*
X121970800Y-71551800D02*
X119164100Y-71551800D01*
X121970800Y-71615300D02*
X121970800Y-71551800D01*
X121970800Y-77381100D02*
X121970800Y-71615300D01*
X119126000Y-77381100D02*
X121970800Y-77381100D01*
D15*
X188140119Y-115732519D02*
X187616309Y-116099185D01*
X188140119Y-116361090D02*
X187040119Y-116361090D01*
X187040119Y-115942042D01*
X187092500Y-115837280D01*
X187144880Y-115784900D01*
X187249642Y-115732519D01*
X187406785Y-115732519D01*
X187511547Y-115784900D01*
X187563928Y-115837280D01*
X187616309Y-115942042D01*
X187616309Y-116361090D01*
X187563928Y-115261090D02*
X187563928Y-114894423D01*
X188140119Y-114737280D02*
X188140119Y-115261090D01*
X187040119Y-115261090D01*
X187040119Y-114737280D01*
X188087738Y-114318233D02*
X188140119Y-114161090D01*
X188140119Y-113899185D01*
X188087738Y-113794423D01*
X188035357Y-113742042D01*
X187930595Y-113689661D01*
X187825833Y-113689661D01*
X187721071Y-113742042D01*
X187668690Y-113794423D01*
X187616309Y-113899185D01*
X187563928Y-114108709D01*
X187511547Y-114213471D01*
X187459166Y-114265852D01*
X187354404Y-114318233D01*
X187249642Y-114318233D01*
X187144880Y-114265852D01*
X187092500Y-114213471D01*
X187040119Y-114108709D01*
X187040119Y-113846804D01*
X187092500Y-113689661D01*
X187563928Y-113218233D02*
X187563928Y-112851566D01*
X188140119Y-112694423D02*
X188140119Y-113218233D01*
X187040119Y-113218233D01*
X187040119Y-112694423D01*
X187040119Y-112380138D02*
X187040119Y-111751566D01*
X188140119Y-112065852D02*
X187040119Y-112065852D01*
D14*
X187059433Y-98850852D02*
X187059433Y-99736566D01*
X187000385Y-99913709D01*
X186882290Y-100031804D01*
X186705147Y-100090852D01*
X186587052Y-100090852D01*
X187472766Y-98850852D02*
X188181338Y-98850852D01*
X187827052Y-100090852D02*
X187827052Y-98850852D01*
X188535623Y-99736566D02*
X189126100Y-99736566D01*
X188417528Y-100090852D02*
X188830861Y-98850852D01*
X189244195Y-100090852D01*
X190307052Y-98909900D02*
X190188957Y-98850852D01*
X190011814Y-98850852D01*
X189834671Y-98909900D01*
X189716576Y-99027995D01*
X189657528Y-99146090D01*
X189598480Y-99382280D01*
X189598480Y-99559423D01*
X189657528Y-99795614D01*
X189716576Y-99913709D01*
X189834671Y-100031804D01*
X190011814Y-100090852D01*
X190129909Y-100090852D01*
X190307052Y-100031804D01*
X190366100Y-99972757D01*
X190366100Y-99559423D01*
X190129909Y-99559423D01*
D15*
X124669919Y-115665471D02*
X124812776Y-115713090D01*
X124860395Y-115760709D01*
X124908014Y-115855947D01*
X124908014Y-115998804D01*
X124860395Y-116094042D01*
X124812776Y-116141661D01*
X124717538Y-116189280D01*
X124336585Y-116189280D01*
X124336585Y-115189280D01*
X124669919Y-115189280D01*
X124765157Y-115236900D01*
X124812776Y-115284519D01*
X124860395Y-115379757D01*
X124860395Y-115474995D01*
X124812776Y-115570233D01*
X124765157Y-115617852D01*
X124669919Y-115665471D01*
X124336585Y-115665471D01*
X125765157Y-116189280D02*
X125765157Y-115665471D01*
X125717538Y-115570233D01*
X125622300Y-115522614D01*
X125431823Y-115522614D01*
X125336585Y-115570233D01*
X125765157Y-116141661D02*
X125669919Y-116189280D01*
X125431823Y-116189280D01*
X125336585Y-116141661D01*
X125288966Y-116046423D01*
X125288966Y-115951185D01*
X125336585Y-115855947D01*
X125431823Y-115808328D01*
X125669919Y-115808328D01*
X125765157Y-115760709D01*
X126193728Y-116141661D02*
X126288966Y-116189280D01*
X126479442Y-116189280D01*
X126574680Y-116141661D01*
X126622300Y-116046423D01*
X126622300Y-115998804D01*
X126574680Y-115903566D01*
X126479442Y-115855947D01*
X126336585Y-115855947D01*
X126241347Y-115808328D01*
X126193728Y-115713090D01*
X126193728Y-115665471D01*
X126241347Y-115570233D01*
X126336585Y-115522614D01*
X126479442Y-115522614D01*
X126574680Y-115570233D01*
X127431823Y-116141661D02*
X127336585Y-116189280D01*
X127146109Y-116189280D01*
X127050871Y-116141661D01*
X127003252Y-116046423D01*
X127003252Y-115665471D01*
X127050871Y-115570233D01*
X127146109Y-115522614D01*
X127336585Y-115522614D01*
X127431823Y-115570233D01*
X127479442Y-115665471D01*
X127479442Y-115760709D01*
X127003252Y-115855947D01*
X128336585Y-116189280D02*
X128336585Y-115189280D01*
X128336585Y-116141661D02*
X128241347Y-116189280D01*
X128050871Y-116189280D01*
X127955633Y-116141661D01*
X127908014Y-116094042D01*
X127860395Y-115998804D01*
X127860395Y-115713090D01*
X127908014Y-115617852D01*
X127955633Y-115570233D01*
X128050871Y-115522614D01*
X128241347Y-115522614D01*
X128336585Y-115570233D01*
X129717538Y-116189280D02*
X129622300Y-116141661D01*
X129574680Y-116094042D01*
X129527061Y-115998804D01*
X129527061Y-115713090D01*
X129574680Y-115617852D01*
X129622300Y-115570233D01*
X129717538Y-115522614D01*
X129860395Y-115522614D01*
X129955633Y-115570233D01*
X130003252Y-115617852D01*
X130050871Y-115713090D01*
X130050871Y-115998804D01*
X130003252Y-116094042D01*
X129955633Y-116141661D01*
X129860395Y-116189280D01*
X129717538Y-116189280D01*
X130479442Y-115522614D02*
X130479442Y-116189280D01*
X130479442Y-115617852D02*
X130527061Y-115570233D01*
X130622300Y-115522614D01*
X130765157Y-115522614D01*
X130860395Y-115570233D01*
X130908014Y-115665471D01*
X130908014Y-116189280D01*
X124931823Y-117889280D02*
X124931823Y-116889280D01*
X125312776Y-116889280D01*
X125408014Y-116936900D01*
X125455633Y-116984519D01*
X125503252Y-117079757D01*
X125503252Y-117222614D01*
X125455633Y-117317852D01*
X125408014Y-117365471D01*
X125312776Y-117413090D01*
X124931823Y-117413090D01*
X125931823Y-117365471D02*
X126265157Y-117365471D01*
X126408014Y-117889280D02*
X125931823Y-117889280D01*
X125931823Y-116889280D01*
X126408014Y-116889280D01*
X126693728Y-116889280D02*
X127265157Y-116889280D01*
X126979442Y-117889280D02*
X126979442Y-116889280D01*
X127550871Y-117841661D02*
X127693728Y-117889280D01*
X127931823Y-117889280D01*
X128027061Y-117841661D01*
X128074680Y-117794042D01*
X128122300Y-117698804D01*
X128122300Y-117603566D01*
X128074680Y-117508328D01*
X128027061Y-117460709D01*
X127931823Y-117413090D01*
X127741347Y-117365471D01*
X127646109Y-117317852D01*
X127598490Y-117270233D01*
X127550871Y-117174995D01*
X127550871Y-117079757D01*
X127598490Y-116984519D01*
X127646109Y-116936900D01*
X127741347Y-116889280D01*
X127979442Y-116889280D01*
X128122300Y-116936900D01*
X128550871Y-117889280D02*
X128550871Y-116889280D01*
X128788966Y-116889280D01*
X128931823Y-116936900D01*
X129027061Y-117032138D01*
X129074680Y-117127376D01*
X129122300Y-117317852D01*
X129122300Y-117460709D01*
X129074680Y-117651185D01*
X129027061Y-117746423D01*
X128931823Y-117841661D01*
X128788966Y-117889280D01*
X128550871Y-117889280D01*
X129550871Y-117508328D02*
X130312776Y-117508328D01*
X129931823Y-117889280D02*
X129931823Y-117127376D01*
X122741347Y-119589280D02*
X122741347Y-118589280D01*
X122741347Y-118970233D02*
X122836585Y-118922614D01*
X123027061Y-118922614D01*
X123122300Y-118970233D01*
X123169919Y-119017852D01*
X123217538Y-119113090D01*
X123217538Y-119398804D01*
X123169919Y-119494042D01*
X123122300Y-119541661D01*
X123027061Y-119589280D01*
X122836585Y-119589280D01*
X122741347Y-119541661D01*
X123550871Y-118922614D02*
X123788966Y-119589280D01*
X124027061Y-118922614D02*
X123788966Y-119589280D01*
X123693728Y-119827376D01*
X123646109Y-119874995D01*
X123550871Y-119922614D01*
X125169919Y-119589280D02*
X125169919Y-118589280D01*
X125741347Y-119589280D01*
X125741347Y-118589280D01*
X126217538Y-119589280D02*
X126217538Y-118922614D01*
X126217538Y-118589280D02*
X126169919Y-118636900D01*
X126217538Y-118684519D01*
X126265157Y-118636900D01*
X126217538Y-118589280D01*
X126217538Y-118684519D01*
X126836585Y-119589280D02*
X126741347Y-119541661D01*
X126693728Y-119446423D01*
X126693728Y-118589280D01*
X127169919Y-119541661D02*
X127265157Y-119589280D01*
X127455633Y-119589280D01*
X127550871Y-119541661D01*
X127598490Y-119446423D01*
X127598490Y-119398804D01*
X127550871Y-119303566D01*
X127455633Y-119255947D01*
X127312776Y-119255947D01*
X127217538Y-119208328D01*
X127169919Y-119113090D01*
X127169919Y-119065471D01*
X127217538Y-118970233D01*
X127312776Y-118922614D01*
X127455633Y-118922614D01*
X127550871Y-118970233D01*
X128788966Y-119065471D02*
X129122300Y-119065471D01*
X129265157Y-119589280D02*
X128788966Y-119589280D01*
X128788966Y-118589280D01*
X129265157Y-118589280D01*
X129693728Y-119589280D02*
X129693728Y-118922614D01*
X129693728Y-118589280D02*
X129646109Y-118636900D01*
X129693728Y-118684519D01*
X129741347Y-118636900D01*
X129693728Y-118589280D01*
X129693728Y-118684519D01*
X130312776Y-119589280D02*
X130217538Y-119541661D01*
X130169919Y-119446423D01*
X130169919Y-118589280D01*
X131074680Y-119541661D02*
X130979442Y-119589280D01*
X130788966Y-119589280D01*
X130693728Y-119541661D01*
X130646109Y-119446423D01*
X130646109Y-119065471D01*
X130693728Y-118970233D01*
X130788966Y-118922614D01*
X130979442Y-118922614D01*
X131074680Y-118970233D01*
X131122300Y-119065471D01*
X131122300Y-119160709D01*
X130646109Y-119255947D01*
X131550871Y-119589280D02*
X131550871Y-118922614D01*
X131550871Y-119113090D02*
X131598490Y-119017852D01*
X131646109Y-118970233D01*
X131741347Y-118922614D01*
X131836585Y-118922614D01*
X132122300Y-119541661D02*
X132217538Y-119589280D01*
X132408014Y-119589280D01*
X132503252Y-119541661D01*
X132550871Y-119446423D01*
X132550871Y-119398804D01*
X132503252Y-119303566D01*
X132408014Y-119255947D01*
X132265157Y-119255947D01*
X132169919Y-119208328D01*
X132122300Y-119113090D01*
X132122300Y-119065471D01*
X132169919Y-118970233D01*
X132265157Y-118922614D01*
X132408014Y-118922614D01*
X132503252Y-118970233D01*
D14*
X182832542Y-113331571D02*
X182775400Y-113388714D01*
X182603971Y-113445857D01*
X182489685Y-113445857D01*
X182318257Y-113388714D01*
X182203971Y-113274428D01*
X182146828Y-113160142D01*
X182089685Y-112931571D01*
X182089685Y-112760142D01*
X182146828Y-112531571D01*
X182203971Y-112417285D01*
X182318257Y-112303000D01*
X182489685Y-112245857D01*
X182603971Y-112245857D01*
X182775400Y-112303000D01*
X182832542Y-112360142D01*
X183289685Y-113103000D02*
X183861114Y-113103000D01*
X183175400Y-113445857D02*
X183575400Y-112245857D01*
X183975400Y-113445857D01*
X185061114Y-113445857D02*
X184661114Y-112874428D01*
X184375400Y-113445857D02*
X184375400Y-112245857D01*
X184832542Y-112245857D01*
X184946828Y-112303000D01*
X185003971Y-112360142D01*
X185061114Y-112474428D01*
X185061114Y-112645857D01*
X185003971Y-112760142D01*
X184946828Y-112817285D01*
X184832542Y-112874428D01*
X184375400Y-112874428D01*
X185575400Y-113445857D02*
X185575400Y-112245857D01*
X185861114Y-112245857D01*
X186032542Y-112303000D01*
X186146828Y-112417285D01*
X186203971Y-112531571D01*
X186261114Y-112760142D01*
X186261114Y-112931571D01*
X186203971Y-113160142D01*
X186146828Y-113274428D01*
X186032542Y-113388714D01*
X185861114Y-113445857D01*
X185575400Y-113445857D01*
D16*
X143907785Y-115427261D02*
X145241119Y-115427261D01*
X144383976Y-117427261D01*
X146860166Y-116093928D02*
X146860166Y-117427261D01*
X146383976Y-115332023D02*
X145907785Y-116760595D01*
X147145880Y-116760595D01*
X147907785Y-117427261D02*
X147907785Y-115427261D01*
X147907785Y-116379642D02*
X149050642Y-116379642D01*
X149050642Y-117427261D02*
X149050642Y-115427261D01*
X151145880Y-117236785D02*
X151050642Y-117332023D01*
X150764928Y-117427261D01*
X150574452Y-117427261D01*
X150288738Y-117332023D01*
X150098261Y-117141547D01*
X150003023Y-116951071D01*
X149907785Y-116570119D01*
X149907785Y-116284404D01*
X150003023Y-115903452D01*
X150098261Y-115712976D01*
X150288738Y-115522500D01*
X150574452Y-115427261D01*
X150764928Y-115427261D01*
X151050642Y-115522500D01*
X151145880Y-115617738D01*
X151717309Y-115427261D02*
X152860166Y-115427261D01*
X152288738Y-117427261D02*
X152288738Y-115427261D01*
X154574452Y-117427261D02*
X153431595Y-117427261D01*
X154003023Y-117427261D02*
X154003023Y-115427261D01*
X153812547Y-115712976D01*
X153622071Y-115903452D01*
X153431595Y-115998690D01*
X155336357Y-115617738D02*
X155431595Y-115522500D01*
X155622071Y-115427261D01*
X156098261Y-115427261D01*
X156288738Y-115522500D01*
X156383976Y-115617738D01*
X156479214Y-115808214D01*
X156479214Y-115998690D01*
X156383976Y-116284404D01*
X155241119Y-117427261D01*
X156479214Y-117427261D01*
X158288738Y-115427261D02*
X157336357Y-115427261D01*
X157241119Y-116379642D01*
X157336357Y-116284404D01*
X157526833Y-116189166D01*
X158003023Y-116189166D01*
X158193500Y-116284404D01*
X158288738Y-116379642D01*
X158383976Y-116570119D01*
X158383976Y-117046309D01*
X158288738Y-117236785D01*
X158193500Y-117332023D01*
X158003023Y-117427261D01*
X157526833Y-117427261D01*
X157336357Y-117332023D01*
X157241119Y-117236785D01*
D14*
X165612000Y-121586557D02*
X165612000Y-120386557D01*
X166183428Y-120957985D02*
X166583428Y-120957985D01*
X166754857Y-121586557D02*
X166183428Y-121586557D01*
X166183428Y-120386557D01*
X166754857Y-120386557D01*
X167269142Y-120957985D02*
X167669142Y-120957985D01*
X167840571Y-121586557D02*
X167269142Y-121586557D01*
X167269142Y-120386557D01*
X167840571Y-120386557D01*
X168354857Y-120957985D02*
X168754857Y-120957985D01*
X168926285Y-121586557D02*
X168354857Y-121586557D01*
X168354857Y-120386557D01*
X168926285Y-120386557D01*
X170354857Y-121586557D02*
X170354857Y-120386557D01*
X170640571Y-120386557D01*
X170812000Y-120443700D01*
X170926285Y-120557985D01*
X170983428Y-120672271D01*
X171040571Y-120900842D01*
X171040571Y-121072271D01*
X170983428Y-121300842D01*
X170926285Y-121415128D01*
X170812000Y-121529414D01*
X170640571Y-121586557D01*
X170354857Y-121586557D01*
X172012000Y-121529414D02*
X171897714Y-121586557D01*
X171669142Y-121586557D01*
X171554857Y-121529414D01*
X171497714Y-121415128D01*
X171497714Y-120957985D01*
X171554857Y-120843700D01*
X171669142Y-120786557D01*
X171897714Y-120786557D01*
X172012000Y-120843700D01*
X172069142Y-120957985D01*
X172069142Y-121072271D01*
X171497714Y-121186557D01*
X172469142Y-120786557D02*
X172754857Y-121586557D01*
X173040571Y-120786557D01*
X173497714Y-121586557D02*
X173497714Y-120786557D01*
X173497714Y-120386557D02*
X173440571Y-120443700D01*
X173497714Y-120500842D01*
X173554857Y-120443700D01*
X173497714Y-120386557D01*
X173497714Y-120500842D01*
X174583428Y-121529414D02*
X174469142Y-121586557D01*
X174240571Y-121586557D01*
X174126285Y-121529414D01*
X174069142Y-121472271D01*
X174012000Y-121357985D01*
X174012000Y-121015128D01*
X174069142Y-120900842D01*
X174126285Y-120843700D01*
X174240571Y-120786557D01*
X174469142Y-120786557D01*
X174583428Y-120843700D01*
X175554857Y-121529414D02*
X175440571Y-121586557D01*
X175212000Y-121586557D01*
X175097714Y-121529414D01*
X175040571Y-121415128D01*
X175040571Y-120957985D01*
X175097714Y-120843700D01*
X175212000Y-120786557D01*
X175440571Y-120786557D01*
X175554857Y-120843700D01*
X175612000Y-120957985D01*
X175612000Y-121072271D01*
X175040571Y-121186557D01*
X176069142Y-121529414D02*
X176183428Y-121586557D01*
X176412000Y-121586557D01*
X176526285Y-121529414D01*
X176583428Y-121415128D01*
X176583428Y-121357985D01*
X176526285Y-121243700D01*
X176412000Y-121186557D01*
X176240571Y-121186557D01*
X176126285Y-121129414D01*
X176069142Y-121015128D01*
X176069142Y-120957985D01*
X176126285Y-120843700D01*
X176240571Y-120786557D01*
X176412000Y-120786557D01*
X176526285Y-120843700D01*
D11*
X177152300Y-130035300D02*
X177152300Y-120192800D01*
X166674800Y-131432300D02*
X175755300Y-131432300D01*
X138925300Y-131432300D02*
X162801300Y-131432300D01*
X129400300Y-131432300D02*
X135051800Y-131432300D01*
D14*
X163840485Y-76742871D02*
X163783342Y-76800014D01*
X163611914Y-76857157D01*
X163497628Y-76857157D01*
X163326200Y-76800014D01*
X163211914Y-76685728D01*
X163154771Y-76571442D01*
X163097628Y-76342871D01*
X163097628Y-76171442D01*
X163154771Y-75942871D01*
X163211914Y-75828585D01*
X163326200Y-75714300D01*
X163497628Y-75657157D01*
X163611914Y-75657157D01*
X163783342Y-75714300D01*
X163840485Y-75771442D01*
X164526200Y-76857157D02*
X164411914Y-76800014D01*
X164354771Y-76742871D01*
X164297628Y-76628585D01*
X164297628Y-76285728D01*
X164354771Y-76171442D01*
X164411914Y-76114300D01*
X164526200Y-76057157D01*
X164697628Y-76057157D01*
X164811914Y-76114300D01*
X164869057Y-76171442D01*
X164926200Y-76285728D01*
X164926200Y-76628585D01*
X164869057Y-76742871D01*
X164811914Y-76800014D01*
X164697628Y-76857157D01*
X164526200Y-76857157D01*
X165440485Y-76857157D02*
X165440485Y-76057157D01*
X165440485Y-76171442D02*
X165497628Y-76114300D01*
X165611914Y-76057157D01*
X165783342Y-76057157D01*
X165897628Y-76114300D01*
X165954771Y-76228585D01*
X165954771Y-76857157D01*
X165954771Y-76228585D02*
X166011914Y-76114300D01*
X166126200Y-76057157D01*
X166297628Y-76057157D01*
X166411914Y-76114300D01*
X166469057Y-76228585D01*
X166469057Y-76857157D01*
X167040485Y-76057157D02*
X167040485Y-77257157D01*
X167040485Y-76114300D02*
X167154771Y-76057157D01*
X167383342Y-76057157D01*
X167497628Y-76114300D01*
X167554771Y-76171442D01*
X167611914Y-76285728D01*
X167611914Y-76628585D01*
X167554771Y-76742871D01*
X167497628Y-76800014D01*
X167383342Y-76857157D01*
X167154771Y-76857157D01*
X167040485Y-76800014D01*
X168640485Y-76057157D02*
X168640485Y-76857157D01*
X168126200Y-76057157D02*
X168126200Y-76685728D01*
X168183342Y-76800014D01*
X168297628Y-76857157D01*
X168469057Y-76857157D01*
X168583342Y-76800014D01*
X168640485Y-76742871D01*
X169040485Y-76057157D02*
X169497628Y-76057157D01*
X169211914Y-75657157D02*
X169211914Y-76685728D01*
X169269057Y-76800014D01*
X169383342Y-76857157D01*
X169497628Y-76857157D01*
X170354771Y-76800014D02*
X170240485Y-76857157D01*
X170011914Y-76857157D01*
X169897628Y-76800014D01*
X169840485Y-76685728D01*
X169840485Y-76228585D01*
X169897628Y-76114300D01*
X170011914Y-76057157D01*
X170240485Y-76057157D01*
X170354771Y-76114300D01*
X170411914Y-76228585D01*
X170411914Y-76342871D01*
X169840485Y-76457157D01*
X170926200Y-76857157D02*
X170926200Y-76057157D01*
X170926200Y-76285728D02*
X170983342Y-76171442D01*
X171040485Y-76114300D01*
X171154771Y-76057157D01*
X171269057Y-76057157D01*
X172583342Y-76857157D02*
X172583342Y-75657157D01*
X173154771Y-76228585D02*
X173554771Y-76228585D01*
X173726200Y-76857157D02*
X173154771Y-76857157D01*
X173154771Y-75657157D01*
X173726200Y-75657157D01*
X174240485Y-76228585D02*
X174640485Y-76228585D01*
X174811914Y-76857157D02*
X174240485Y-76857157D01*
X174240485Y-75657157D01*
X174811914Y-75657157D01*
X175326200Y-76228585D02*
X175726200Y-76228585D01*
X175897628Y-76857157D02*
X175326200Y-76857157D01*
X175326200Y-75657157D01*
X175897628Y-75657157D01*
D11*
X136448800Y-122415300D02*
X136448800Y-130035300D01*
X137528300Y-130035300D02*
X137528300Y-122415300D01*
X164198300Y-122351800D02*
X164198300Y-130035300D01*
X165277800Y-130035300D02*
X165277800Y-122351800D01*
X129400300Y-131432300D02*
G75*
G02*
X128003300Y-130035300I0J1397000D01*
G01*
X136448800Y-130035300D02*
G75*
G02*
X135051800Y-131432300I-1397000J0D01*
G01*
X138925300Y-131432300D02*
G75*
G02*
X137528300Y-130035300I0J1397000D01*
G01*
X164198300Y-130035300D02*
G75*
G02*
X162801300Y-131432300I-1397000J0D01*
G01*
X166674800Y-131432300D02*
G75*
G02*
X165277800Y-130035300I0J1397000D01*
G01*
X177152300Y-130035300D02*
G75*
G02*
X175755300Y-131432300I-1397000J0D01*
G01*
X136448800Y-122415300D02*
X137528300Y-122415300D01*
X165277800Y-122351800D02*
X164198300Y-122351800D01*
D10*
X123698604Y-75272900D02*
X123601842Y-75224519D01*
X123456700Y-75224519D01*
X123311557Y-75272900D01*
X123214795Y-75369661D01*
X123166414Y-75466423D01*
X123118033Y-75659947D01*
X123118033Y-75805090D01*
X123166414Y-75998614D01*
X123214795Y-76095376D01*
X123311557Y-76192138D01*
X123456700Y-76240519D01*
X123553461Y-76240519D01*
X123698604Y-76192138D01*
X123746985Y-76143757D01*
X123746985Y-75805090D01*
X123553461Y-75805090D01*
X124182414Y-76240519D02*
X124182414Y-75224519D01*
X124762985Y-76240519D01*
X124762985Y-75224519D01*
X125246795Y-76240519D02*
X125246795Y-75224519D01*
X125488700Y-75224519D01*
X125633842Y-75272900D01*
X125730604Y-75369661D01*
X125778985Y-75466423D01*
X125827366Y-75659947D01*
X125827366Y-75805090D01*
X125778985Y-75998614D01*
X125730604Y-76095376D01*
X125633842Y-76192138D01*
X125488700Y-76240519D01*
X125246795Y-76240519D01*
D15*
X131973847Y-80859380D02*
X132307180Y-81859380D01*
X132640514Y-80859380D01*
X133497657Y-81859380D02*
X132926228Y-81859380D01*
X133211942Y-81859380D02*
X133211942Y-80859380D01*
X133116704Y-81002238D01*
X133021466Y-81097476D01*
X132926228Y-81145095D01*
X133926228Y-81764142D02*
X133973847Y-81811761D01*
X133926228Y-81859380D01*
X133878609Y-81811761D01*
X133926228Y-81764142D01*
X133926228Y-81859380D01*
X134926228Y-81859380D02*
X134354800Y-81859380D01*
X134640514Y-81859380D02*
X134640514Y-80859380D01*
X134545276Y-81002238D01*
X134450038Y-81097476D01*
X134354800Y-81145095D01*
X136116704Y-81859380D02*
X136116704Y-80859380D01*
X136116704Y-81240333D02*
X136211942Y-81192714D01*
X136402419Y-81192714D01*
X136497657Y-81240333D01*
X136545276Y-81287952D01*
X136592895Y-81383190D01*
X136592895Y-81668904D01*
X136545276Y-81764142D01*
X136497657Y-81811761D01*
X136402419Y-81859380D01*
X136211942Y-81859380D01*
X136116704Y-81811761D01*
X136926228Y-81192714D02*
X137164323Y-81859380D01*
X137402419Y-81192714D02*
X137164323Y-81859380D01*
X137069085Y-82097476D01*
X137021466Y-82145095D01*
X136926228Y-82192714D01*
X138497657Y-81811761D02*
X138640514Y-81859380D01*
X138878609Y-81859380D01*
X138973847Y-81811761D01*
X139021466Y-81764142D01*
X139069085Y-81668904D01*
X139069085Y-81573666D01*
X139021466Y-81478428D01*
X138973847Y-81430809D01*
X138878609Y-81383190D01*
X138688133Y-81335571D01*
X138592895Y-81287952D01*
X138545276Y-81240333D01*
X138497657Y-81145095D01*
X138497657Y-81049857D01*
X138545276Y-80954619D01*
X138592895Y-80907000D01*
X138688133Y-80859380D01*
X138926228Y-80859380D01*
X139069085Y-80907000D01*
X139354800Y-81192714D02*
X139735752Y-81192714D01*
X139497657Y-80859380D02*
X139497657Y-81716523D01*
X139545276Y-81811761D01*
X139640514Y-81859380D01*
X139735752Y-81859380D01*
X140450038Y-81811761D02*
X140354800Y-81859380D01*
X140164323Y-81859380D01*
X140069085Y-81811761D01*
X140021466Y-81716523D01*
X140021466Y-81335571D01*
X140069085Y-81240333D01*
X140164323Y-81192714D01*
X140354800Y-81192714D01*
X140450038Y-81240333D01*
X140497657Y-81335571D01*
X140497657Y-81430809D01*
X140021466Y-81526047D01*
X140830990Y-81192714D02*
X141069085Y-81859380D01*
X141307180Y-81192714D01*
X142069085Y-81811761D02*
X141973847Y-81859380D01*
X141783371Y-81859380D01*
X141688133Y-81811761D01*
X141640514Y-81716523D01*
X141640514Y-81335571D01*
X141688133Y-81240333D01*
X141783371Y-81192714D01*
X141973847Y-81192714D01*
X142069085Y-81240333D01*
X142116704Y-81335571D01*
X142116704Y-81430809D01*
X141640514Y-81526047D01*
X143592895Y-80859380D02*
X143592895Y-81573666D01*
X143545276Y-81716523D01*
X143450038Y-81811761D01*
X143307180Y-81859380D01*
X143211942Y-81859380D01*
X144069085Y-81764142D02*
X144116704Y-81811761D01*
X144069085Y-81859380D01*
X144021466Y-81811761D01*
X144069085Y-81764142D01*
X144069085Y-81859380D01*
X145830990Y-80907000D02*
X145735752Y-80859380D01*
X145592895Y-80859380D01*
X145450038Y-80907000D01*
X145354800Y-81002238D01*
X145307180Y-81097476D01*
X145259561Y-81287952D01*
X145259561Y-81430809D01*
X145307180Y-81621285D01*
X145354800Y-81716523D01*
X145450038Y-81811761D01*
X145592895Y-81859380D01*
X145688133Y-81859380D01*
X145830990Y-81811761D01*
X145878609Y-81764142D01*
X145878609Y-81430809D01*
X145688133Y-81430809D01*
X146307180Y-81859380D02*
X146307180Y-81192714D01*
X146307180Y-81383190D02*
X146354800Y-81287952D01*
X146402419Y-81240333D01*
X146497657Y-81192714D01*
X146592895Y-81192714D01*
X147354800Y-81859380D02*
X147354800Y-81335571D01*
X147307180Y-81240333D01*
X147211942Y-81192714D01*
X147021466Y-81192714D01*
X146926228Y-81240333D01*
X147354800Y-81811761D02*
X147259561Y-81859380D01*
X147021466Y-81859380D01*
X146926228Y-81811761D01*
X146878609Y-81716523D01*
X146878609Y-81621285D01*
X146926228Y-81526047D01*
X147021466Y-81478428D01*
X147259561Y-81478428D01*
X147354800Y-81430809D01*
X147735752Y-81192714D02*
X147973847Y-81859380D01*
X148211942Y-81192714D02*
X147973847Y-81859380D01*
X147878609Y-82097476D01*
X147830990Y-82145095D01*
X147735752Y-82192714D01*
X149354800Y-81478428D02*
X150116704Y-81478428D01*
X151307180Y-80954619D02*
X151354800Y-80907000D01*
X151450038Y-80859380D01*
X151688133Y-80859380D01*
X151783371Y-80907000D01*
X151830990Y-80954619D01*
X151878609Y-81049857D01*
X151878609Y-81145095D01*
X151830990Y-81287952D01*
X151259561Y-81859380D01*
X151878609Y-81859380D01*
X152497657Y-80859380D02*
X152592895Y-80859380D01*
X152688133Y-80907000D01*
X152735752Y-80954619D01*
X152783371Y-81049857D01*
X152830990Y-81240333D01*
X152830990Y-81478428D01*
X152783371Y-81668904D01*
X152735752Y-81764142D01*
X152688133Y-81811761D01*
X152592895Y-81859380D01*
X152497657Y-81859380D01*
X152402419Y-81811761D01*
X152354800Y-81764142D01*
X152307180Y-81668904D01*
X152259561Y-81478428D01*
X152259561Y-81240333D01*
X152307180Y-81049857D01*
X152354800Y-80954619D01*
X152402419Y-80907000D01*
X152497657Y-80859380D01*
X153211942Y-80954619D02*
X153259561Y-80907000D01*
X153354800Y-80859380D01*
X153592895Y-80859380D01*
X153688133Y-80907000D01*
X153735752Y-80954619D01*
X153783371Y-81049857D01*
X153783371Y-81145095D01*
X153735752Y-81287952D01*
X153164323Y-81859380D01*
X153783371Y-81859380D01*
X154735752Y-81859380D02*
X154164323Y-81859380D01*
X154450038Y-81859380D02*
X154450038Y-80859380D01*
X154354800Y-81002238D01*
X154259561Y-81097476D01*
X154164323Y-81145095D01*
X155878609Y-80811761D02*
X155021466Y-82097476D01*
X156402419Y-80859380D02*
X156497657Y-80859380D01*
X156592895Y-80907000D01*
X156640514Y-80954619D01*
X156688133Y-81049857D01*
X156735752Y-81240333D01*
X156735752Y-81478428D01*
X156688133Y-81668904D01*
X156640514Y-81764142D01*
X156592895Y-81811761D01*
X156497657Y-81859380D01*
X156402419Y-81859380D01*
X156307180Y-81811761D01*
X156259561Y-81764142D01*
X156211942Y-81668904D01*
X156164323Y-81478428D01*
X156164323Y-81240333D01*
X156211942Y-81049857D01*
X156259561Y-80954619D01*
X156307180Y-80907000D01*
X156402419Y-80859380D01*
X157640514Y-80859380D02*
X157164323Y-80859380D01*
X157116704Y-81335571D01*
X157164323Y-81287952D01*
X157259561Y-81240333D01*
X157497657Y-81240333D01*
X157592895Y-81287952D01*
X157640514Y-81335571D01*
X157688133Y-81430809D01*
X157688133Y-81668904D01*
X157640514Y-81764142D01*
X157592895Y-81811761D01*
X157497657Y-81859380D01*
X157259561Y-81859380D01*
X157164323Y-81811761D01*
X157116704Y-81764142D01*
X158830990Y-80811761D02*
X157973847Y-82097476D01*
X159688133Y-81859380D02*
X159116704Y-81859380D01*
X159402419Y-81859380D02*
X159402419Y-80859380D01*
X159307180Y-81002238D01*
X159211942Y-81097476D01*
X159116704Y-81145095D01*
X160545276Y-81192714D02*
X160545276Y-81859380D01*
X160307180Y-80811761D02*
X160069085Y-81526047D01*
X160688133Y-81526047D01*
D16*
X133457366Y-80152733D02*
X133190700Y-80286066D01*
X132657366Y-80286066D01*
X132390700Y-80152733D01*
X132257366Y-80019400D01*
X132124033Y-79752733D01*
X132124033Y-78952733D01*
X132257366Y-78686066D01*
X132390700Y-78552733D01*
X132657366Y-78419400D01*
X133190700Y-78419400D01*
X133457366Y-78552733D01*
X134657366Y-80286066D02*
X134657366Y-77486066D01*
X134657366Y-78552733D02*
X134924033Y-78419400D01*
X135457366Y-78419400D01*
X135724033Y-78552733D01*
X135857366Y-78686066D01*
X135990700Y-78952733D01*
X135990700Y-79752733D01*
X135857366Y-80019400D01*
X135724033Y-80152733D01*
X135457366Y-80286066D01*
X134924033Y-80286066D01*
X134657366Y-80152733D01*
X137190700Y-80286066D02*
X137190700Y-78419400D01*
X137190700Y-78686066D02*
X137324033Y-78552733D01*
X137590700Y-78419400D01*
X137990700Y-78419400D01*
X138257366Y-78552733D01*
X138390700Y-78819400D01*
X138390700Y-80286066D01*
X138390700Y-78819400D02*
X138524033Y-78552733D01*
X138790700Y-78419400D01*
X139190700Y-78419400D01*
X139457366Y-78552733D01*
X139590700Y-78819400D01*
X139590700Y-80286066D01*
X140790700Y-80152733D02*
X141190700Y-80286066D01*
X141857366Y-80286066D01*
X142124033Y-80152733D01*
X142257366Y-80019400D01*
X142390700Y-79752733D01*
X142390700Y-79486066D01*
X142257366Y-79219400D01*
X142124033Y-79086066D01*
X141857366Y-78952733D01*
X141324033Y-78819400D01*
X141057366Y-78686066D01*
X140924033Y-78552733D01*
X140790700Y-78286066D01*
X140790700Y-78019400D01*
X140924033Y-77752733D01*
X141057366Y-77619400D01*
X141324033Y-77486066D01*
X141990700Y-77486066D01*
X142390700Y-77619400D01*
X143590700Y-80286066D02*
X143590700Y-77486066D01*
X144257366Y-77486066D01*
X144657366Y-77619400D01*
X144924033Y-77886066D01*
X145057366Y-78152733D01*
X145190700Y-78686066D01*
X145190700Y-79086066D01*
X145057366Y-79619400D01*
X144924033Y-79886066D01*
X144657366Y-80152733D01*
X144257366Y-80286066D01*
X143590700Y-80286066D01*
X146390700Y-79219400D02*
X148524033Y-79219400D01*
X149857366Y-80286066D02*
X149857366Y-78419400D01*
X149857366Y-78686066D02*
X149990700Y-78552733D01*
X150257366Y-78419400D01*
X150657366Y-78419400D01*
X150924033Y-78552733D01*
X151057366Y-78819400D01*
X151057366Y-80286066D01*
X151057366Y-78819400D02*
X151190700Y-78552733D01*
X151457366Y-78419400D01*
X151857366Y-78419400D01*
X152124033Y-78552733D01*
X152257366Y-78819400D01*
X152257366Y-80286066D01*
X153590700Y-80286066D02*
X153590700Y-78419400D01*
X153590700Y-77486066D02*
X153457366Y-77619400D01*
X153590700Y-77752733D01*
X153724033Y-77619400D01*
X153590700Y-77486066D01*
X153590700Y-77752733D01*
X154924033Y-78419400D02*
X154924033Y-80286066D01*
X154924033Y-78686066D02*
X155057366Y-78552733D01*
X155324033Y-78419400D01*
X155724033Y-78419400D01*
X155990700Y-78552733D01*
X156124033Y-78819400D01*
X156124033Y-80286066D01*
X157457366Y-80286066D02*
X157457366Y-78419400D01*
X157457366Y-77486066D02*
X157324033Y-77619400D01*
X157457366Y-77752733D01*
X157590700Y-77619400D01*
X157457366Y-77486066D01*
X157457366Y-77752733D01*
D11*
X192151000Y-65786000D02*
X192151000Y-114109500D01*
D14*
X118516071Y-110356542D02*
X118457023Y-110533685D01*
X118397976Y-110592733D01*
X118279880Y-110651780D01*
X118102738Y-110651780D01*
X117984642Y-110592733D01*
X117925595Y-110533685D01*
X117866547Y-110415590D01*
X117866547Y-109943209D01*
X119106547Y-109943209D01*
X119106547Y-110356542D01*
X119047500Y-110474638D01*
X118988452Y-110533685D01*
X118870357Y-110592733D01*
X118752261Y-110592733D01*
X118634166Y-110533685D01*
X118575119Y-110474638D01*
X118516071Y-110356542D01*
X118516071Y-109943209D01*
X119106547Y-111183209D02*
X118102738Y-111183209D01*
X117984642Y-111242257D01*
X117925595Y-111301304D01*
X117866547Y-111419400D01*
X117866547Y-111655590D01*
X117925595Y-111773685D01*
X117984642Y-111832733D01*
X118102738Y-111891780D01*
X119106547Y-111891780D01*
X117925595Y-112423209D02*
X117866547Y-112600352D01*
X117866547Y-112895590D01*
X117925595Y-113013685D01*
X117984642Y-113072733D01*
X118102738Y-113131780D01*
X118220833Y-113131780D01*
X118338928Y-113072733D01*
X118397976Y-113013685D01*
X118457023Y-112895590D01*
X118516071Y-112659400D01*
X118575119Y-112541304D01*
X118634166Y-112482257D01*
X118752261Y-112423209D01*
X118870357Y-112423209D01*
X118988452Y-112482257D01*
X119047500Y-112541304D01*
X119106547Y-112659400D01*
X119106547Y-112954638D01*
X119047500Y-113131780D01*
X118457023Y-113899400D02*
X117866547Y-113899400D01*
X119106547Y-113486066D02*
X118457023Y-113899400D01*
X119106547Y-114312733D01*
D16*
X148812904Y-101693833D02*
X149765285Y-101693833D01*
X148622428Y-102265261D02*
X149289095Y-100265261D01*
X149955761Y-102265261D01*
X150336714Y-100265261D02*
X151479571Y-100265261D01*
X150908142Y-102265261D02*
X150908142Y-100265261D01*
X152146238Y-102265261D02*
X152146238Y-100931928D01*
X152146238Y-101122404D02*
X152241476Y-101027166D01*
X152431952Y-100931928D01*
X152717666Y-100931928D01*
X152908142Y-101027166D01*
X153003380Y-101217642D01*
X153003380Y-102265261D01*
X153003380Y-101217642D02*
X153098619Y-101027166D01*
X153289095Y-100931928D01*
X153574809Y-100931928D01*
X153765285Y-101027166D01*
X153860523Y-101217642D01*
X153860523Y-102265261D01*
X155574809Y-102170023D02*
X155384333Y-102265261D01*
X155003380Y-102265261D01*
X154812904Y-102170023D01*
X154717666Y-101979547D01*
X154717666Y-101217642D01*
X154812904Y-101027166D01*
X155003380Y-100931928D01*
X155384333Y-100931928D01*
X155574809Y-101027166D01*
X155670047Y-101217642D01*
X155670047Y-101408119D01*
X154717666Y-101598595D01*
X157384333Y-100931928D02*
X157384333Y-102550976D01*
X157289095Y-102741452D01*
X157193857Y-102836690D01*
X157003380Y-102931928D01*
X156717666Y-102931928D01*
X156527190Y-102836690D01*
X157384333Y-102170023D02*
X157193857Y-102265261D01*
X156812904Y-102265261D01*
X156622428Y-102170023D01*
X156527190Y-102074785D01*
X156431952Y-101884309D01*
X156431952Y-101312880D01*
X156527190Y-101122404D01*
X156622428Y-101027166D01*
X156812904Y-100931928D01*
X157193857Y-100931928D01*
X157384333Y-101027166D01*
X159193857Y-102265261D02*
X159193857Y-101217642D01*
X159098619Y-101027166D01*
X158908142Y-100931928D01*
X158527190Y-100931928D01*
X158336714Y-101027166D01*
X159193857Y-102170023D02*
X159003380Y-102265261D01*
X158527190Y-102265261D01*
X158336714Y-102170023D01*
X158241476Y-101979547D01*
X158241476Y-101789071D01*
X158336714Y-101598595D01*
X158527190Y-101503357D01*
X159003380Y-101503357D01*
X159193857Y-101408119D01*
X150765285Y-105665261D02*
X149622428Y-105665261D01*
X150193857Y-105665261D02*
X150193857Y-103665261D01*
X150003380Y-103950976D01*
X149812904Y-104141452D01*
X149622428Y-104236690D01*
X151527190Y-103855738D02*
X151622428Y-103760500D01*
X151812904Y-103665261D01*
X152289095Y-103665261D01*
X152479571Y-103760500D01*
X152574809Y-103855738D01*
X152670047Y-104046214D01*
X152670047Y-104236690D01*
X152574809Y-104522404D01*
X151431952Y-105665261D01*
X152670047Y-105665261D01*
X153812904Y-104522404D02*
X153622428Y-104427166D01*
X153527190Y-104331928D01*
X153431952Y-104141452D01*
X153431952Y-104046214D01*
X153527190Y-103855738D01*
X153622428Y-103760500D01*
X153812904Y-103665261D01*
X154193857Y-103665261D01*
X154384333Y-103760500D01*
X154479571Y-103855738D01*
X154574809Y-104046214D01*
X154574809Y-104141452D01*
X154479571Y-104331928D01*
X154384333Y-104427166D01*
X154193857Y-104522404D01*
X153812904Y-104522404D01*
X153622428Y-104617642D01*
X153527190Y-104712880D01*
X153431952Y-104903357D01*
X153431952Y-105284309D01*
X153527190Y-105474785D01*
X153622428Y-105570023D01*
X153812904Y-105665261D01*
X154193857Y-105665261D01*
X154384333Y-105570023D01*
X154479571Y-105474785D01*
X154574809Y-105284309D01*
X154574809Y-104903357D01*
X154479571Y-104712880D01*
X154384333Y-104617642D01*
X154193857Y-104522404D01*
X156289095Y-104331928D02*
X156289095Y-105665261D01*
X155812904Y-103570023D02*
X155336714Y-104998595D01*
X156574809Y-104998595D01*
X157336714Y-105665261D02*
X157336714Y-103665261D01*
X158098619Y-103665261D01*
X158289095Y-103760500D01*
X158384333Y-103855738D01*
X158479571Y-104046214D01*
X158479571Y-104331928D01*
X158384333Y-104522404D01*
X158289095Y-104617642D01*
X158098619Y-104712880D01*
X157336714Y-104712880D01*
X167227809Y-87487261D02*
X168561142Y-87487261D01*
X167704000Y-89487261D01*
X170275428Y-87487261D02*
X169323047Y-87487261D01*
X169227809Y-88439642D01*
X169323047Y-88344404D01*
X169513523Y-88249166D01*
X169989714Y-88249166D01*
X170180190Y-88344404D01*
X170275428Y-88439642D01*
X170370666Y-88630119D01*
X170370666Y-89106309D01*
X170275428Y-89296785D01*
X170180190Y-89392023D01*
X169989714Y-89487261D01*
X169513523Y-89487261D01*
X169323047Y-89392023D01*
X169227809Y-89296785D01*
X172275428Y-89487261D02*
X171132571Y-89487261D01*
X171704000Y-89487261D02*
X171704000Y-87487261D01*
X171513523Y-87772976D01*
X171323047Y-87963452D01*
X171132571Y-88058690D01*
X173989714Y-87487261D02*
X173608761Y-87487261D01*
X173418285Y-87582500D01*
X173323047Y-87677738D01*
X173132571Y-87963452D01*
X173037333Y-88344404D01*
X173037333Y-89106309D01*
X173132571Y-89296785D01*
X173227809Y-89392023D01*
X173418285Y-89487261D01*
X173799238Y-89487261D01*
X173989714Y-89392023D01*
X174084952Y-89296785D01*
X174180190Y-89106309D01*
X174180190Y-88630119D01*
X174084952Y-88439642D01*
X173989714Y-88344404D01*
X173799238Y-88249166D01*
X173418285Y-88249166D01*
X173227809Y-88344404D01*
X173132571Y-88439642D01*
X173037333Y-88630119D01*
X176084952Y-89487261D02*
X174942095Y-89487261D01*
X175513523Y-89487261D02*
X175513523Y-87487261D01*
X175323047Y-87772976D01*
X175132571Y-87963452D01*
X174942095Y-88058690D01*
X136747809Y-87487261D02*
X138081142Y-87487261D01*
X137224000Y-89487261D01*
X139795428Y-87487261D02*
X138843047Y-87487261D01*
X138747809Y-88439642D01*
X138843047Y-88344404D01*
X139033523Y-88249166D01*
X139509714Y-88249166D01*
X139700190Y-88344404D01*
X139795428Y-88439642D01*
X139890666Y-88630119D01*
X139890666Y-89106309D01*
X139795428Y-89296785D01*
X139700190Y-89392023D01*
X139509714Y-89487261D01*
X139033523Y-89487261D01*
X138843047Y-89392023D01*
X138747809Y-89296785D01*
X141795428Y-89487261D02*
X140652571Y-89487261D01*
X141224000Y-89487261D02*
X141224000Y-87487261D01*
X141033523Y-87772976D01*
X140843047Y-87963452D01*
X140652571Y-88058690D01*
X143509714Y-87487261D02*
X143128761Y-87487261D01*
X142938285Y-87582500D01*
X142843047Y-87677738D01*
X142652571Y-87963452D01*
X142557333Y-88344404D01*
X142557333Y-89106309D01*
X142652571Y-89296785D01*
X142747809Y-89392023D01*
X142938285Y-89487261D01*
X143319238Y-89487261D01*
X143509714Y-89392023D01*
X143604952Y-89296785D01*
X143700190Y-89106309D01*
X143700190Y-88630119D01*
X143604952Y-88439642D01*
X143509714Y-88344404D01*
X143319238Y-88249166D01*
X142938285Y-88249166D01*
X142747809Y-88344404D01*
X142652571Y-88439642D01*
X142557333Y-88630119D01*
X144938285Y-87487261D02*
X145128761Y-87487261D01*
X145319238Y-87582500D01*
X145414476Y-87677738D01*
X145509714Y-87868214D01*
X145604952Y-88249166D01*
X145604952Y-88725357D01*
X145509714Y-89106309D01*
X145414476Y-89296785D01*
X145319238Y-89392023D01*
X145128761Y-89487261D01*
X144938285Y-89487261D01*
X144747809Y-89392023D01*
X144652571Y-89296785D01*
X144557333Y-89106309D01*
X144462095Y-88725357D01*
X144462095Y-88249166D01*
X144557333Y-87868214D01*
X144652571Y-87677738D01*
X144747809Y-87582500D01*
X144938285Y-87487261D01*
D10*
X184870876Y-66334519D02*
X184387066Y-66334519D01*
X184338685Y-66818328D01*
X184387066Y-66769947D01*
X184483828Y-66721566D01*
X184725733Y-66721566D01*
X184822495Y-66769947D01*
X184870876Y-66818328D01*
X184919257Y-66915090D01*
X184919257Y-67156995D01*
X184870876Y-67253757D01*
X184822495Y-67302138D01*
X184725733Y-67350519D01*
X184483828Y-67350519D01*
X184387066Y-67302138D01*
X184338685Y-67253757D01*
X185209542Y-66334519D02*
X185548209Y-67350519D01*
X185886876Y-66334519D01*
X186999638Y-67350519D02*
X186999638Y-66334519D01*
X187241542Y-66334519D01*
X187386685Y-66382900D01*
X187483447Y-66479661D01*
X187531828Y-66576423D01*
X187580209Y-66769947D01*
X187580209Y-66915090D01*
X187531828Y-67108614D01*
X187483447Y-67205376D01*
X187386685Y-67302138D01*
X187241542Y-67350519D01*
X186999638Y-67350519D01*
X188596209Y-67253757D02*
X188547828Y-67302138D01*
X188402685Y-67350519D01*
X188305923Y-67350519D01*
X188160780Y-67302138D01*
X188064019Y-67205376D01*
X188015638Y-67108614D01*
X187967257Y-66915090D01*
X187967257Y-66769947D01*
X188015638Y-66576423D01*
X188064019Y-66479661D01*
X188160780Y-66382900D01*
X188305923Y-66334519D01*
X188402685Y-66334519D01*
X188547828Y-66382900D01*
X188596209Y-66431280D01*
X189031638Y-66963471D02*
X189805733Y-66963471D01*
D14*
X118566871Y-103853485D02*
X118566871Y-104266819D01*
X117917347Y-104443961D02*
X117917347Y-103853485D01*
X119157347Y-103853485D01*
X119157347Y-104443961D01*
X117917347Y-105683961D02*
X118507823Y-105270628D01*
X117917347Y-104975390D02*
X119157347Y-104975390D01*
X119157347Y-105447771D01*
X119098300Y-105565866D01*
X119039252Y-105624914D01*
X118921157Y-105683961D01*
X118744014Y-105683961D01*
X118625919Y-105624914D01*
X118566871Y-105565866D01*
X118507823Y-105447771D01*
X118507823Y-104975390D01*
X117917347Y-106923961D02*
X118507823Y-106510628D01*
X117917347Y-106215390D02*
X119157347Y-106215390D01*
X119157347Y-106687771D01*
X119098300Y-106805866D01*
X119039252Y-106864914D01*
X118921157Y-106923961D01*
X118744014Y-106923961D01*
X118625919Y-106864914D01*
X118566871Y-106805866D01*
X118507823Y-106687771D01*
X118507823Y-106215390D01*
X117866547Y-95904090D02*
X119106547Y-95904090D01*
X119106547Y-96376471D01*
X119047500Y-96494566D01*
X118988452Y-96553614D01*
X118870357Y-96612661D01*
X118693214Y-96612661D01*
X118575119Y-96553614D01*
X118516071Y-96494566D01*
X118457023Y-96376471D01*
X118457023Y-95904090D01*
X119106547Y-97380280D02*
X119106547Y-97616471D01*
X119047500Y-97734566D01*
X118929404Y-97852661D01*
X118693214Y-97911709D01*
X118279880Y-97911709D01*
X118043690Y-97852661D01*
X117925595Y-97734566D01*
X117866547Y-97616471D01*
X117866547Y-97380280D01*
X117925595Y-97262185D01*
X118043690Y-97144090D01*
X118279880Y-97085042D01*
X118693214Y-97085042D01*
X118929404Y-97144090D01*
X119047500Y-97262185D01*
X119106547Y-97380280D01*
X119106547Y-98325042D02*
X117866547Y-98620280D01*
X118752261Y-98856471D01*
X117866547Y-99092661D01*
X119106547Y-99387900D01*
X118516071Y-99860280D02*
X118516071Y-100273614D01*
X117866547Y-100450757D02*
X117866547Y-99860280D01*
X119106547Y-99860280D01*
X119106547Y-100450757D01*
X117866547Y-101690757D02*
X118457023Y-101277423D01*
X117866547Y-100982185D02*
X119106547Y-100982185D01*
X119106547Y-101454566D01*
X119047500Y-101572661D01*
X118988452Y-101631709D01*
X118870357Y-101690757D01*
X118693214Y-101690757D01*
X118575119Y-101631709D01*
X118516071Y-101572661D01*
X118457023Y-101454566D01*
X118457023Y-100982185D01*
D17*
X128464000Y-101552500D02*
G75*
G02*
X128464000Y-103552500I0J-1000000D01*
G01*
X128464000Y-103552500D02*
X128464000Y-109012500D01*
X128464000Y-109012500D02*
X179384000Y-109012500D01*
X179384000Y-109012500D02*
X179384000Y-96092500D01*
X179384000Y-96092500D02*
X128464000Y-96092500D01*
X128464000Y-96092500D02*
X128464000Y-101552500D01*
X185429200Y-119236800D02*
X185429200Y-116576800D01*
X182829200Y-119236800D02*
X185429200Y-119236800D01*
X182829200Y-116576800D02*
X185429200Y-116576800D01*
X182829200Y-119236800D02*
X182829200Y-116576800D01*
X181559200Y-119236800D02*
X180229200Y-119236800D01*
X180229200Y-119236800D02*
X180229200Y-117906800D01*
X186143900Y-100330000D02*
X187413900Y-100330000D01*
X186143900Y-101600000D02*
X186143900Y-100330000D01*
X188323900Y-107060000D02*
X189043900Y-107060000D01*
X188323900Y-106300000D02*
X189043900Y-106300000D01*
X190863900Y-107060000D02*
X191293900Y-107060000D01*
X190863900Y-106300000D02*
X191293900Y-106300000D01*
X188323900Y-104520000D02*
X189043900Y-104520000D01*
X188323900Y-103760000D02*
X189043900Y-103760000D01*
X190863900Y-104520000D02*
X191293900Y-104520000D01*
X190863900Y-103760000D02*
X191293900Y-103760000D01*
X188323900Y-101980000D02*
X189043900Y-101980000D01*
X188323900Y-101220000D02*
X189043900Y-101220000D01*
X190863900Y-101980000D02*
X191293900Y-101980000D01*
X190863900Y-101220000D02*
X191293900Y-101220000D01*
D13*
X198843900Y-97790000D02*
X191223900Y-97790000D01*
X198843900Y-110490000D02*
X198843900Y-97790000D01*
X191223900Y-110490000D02*
X198843900Y-110490000D01*
X191223900Y-97790000D02*
X191223900Y-110490000D01*
X192493900Y-105410000D02*
X198843900Y-105410000D01*
X192493900Y-102870000D02*
X192493900Y-105410000D01*
X198843900Y-102870000D02*
X192493900Y-102870000D01*
X196938900Y-99695000D02*
X198208900Y-99060000D01*
X198208900Y-100330000D02*
X196938900Y-99695000D01*
X198208900Y-99060000D02*
X198208900Y-100330000D01*
D17*
X160080000Y-117332000D02*
G75*
G02*
X160080000Y-115332000I0J1000000D01*
G01*
X160080000Y-115332000D02*
X160080000Y-113682000D01*
X160080000Y-113682000D02*
X142180000Y-113682000D01*
X142180000Y-113682000D02*
X142180000Y-118982000D01*
X142180000Y-118982000D02*
X160080000Y-118982000D01*
X160080000Y-118982000D02*
X160080000Y-117332000D01*
X127766700Y-105536500D02*
X124226700Y-105536500D01*
X124226700Y-105536500D02*
X124226700Y-112776500D01*
X124226700Y-112776500D02*
X127766700Y-112776500D01*
X127766700Y-112776500D02*
X127766700Y-105536500D01*
X125996700Y-105116500D02*
X125996700Y-105536500D01*
X125996700Y-113196500D02*
X125996700Y-112776500D01*
X184574000Y-83632500D02*
X184574000Y-80832500D01*
X184574000Y-80832500D02*
X166454000Y-80832500D01*
X166454000Y-80832500D02*
X166454000Y-83632500D01*
X166454000Y-83632500D02*
X184574000Y-83632500D01*
X181864000Y-83632500D02*
X181864000Y-80832500D01*
X177093700Y-76648000D02*
X177093700Y-77698000D01*
X178143700Y-77698000D02*
X177093700Y-77698000D01*
X183193700Y-68298000D02*
X191993700Y-68298000D01*
X191993700Y-68298000D02*
X191993700Y-77498000D01*
X177293700Y-70998000D02*
X177293700Y-68298000D01*
X177293700Y-68298000D02*
X179193700Y-68298000D01*
X191993700Y-77498000D02*
X177293700Y-77498000D01*
X177293700Y-77498000D02*
X177293700Y-74898000D01*
X122542637Y-97726770D02*
G75*
G02*
X122542800Y-99808861I-1079837J-1041130D01*
G01*
X120382963Y-97726770D02*
G75*
G03*
X120382800Y-99808861I1079837J-1041130D01*
G01*
X122541408Y-97095565D02*
G75*
G02*
X122698316Y-100327900I-1078608J-1672335D01*
G01*
X120384192Y-97095565D02*
G75*
G03*
X120227284Y-100327900I1078608J-1672335D01*
G01*
X120226800Y-100327900D02*
X120382800Y-100327900D01*
X122542800Y-100327900D02*
X122698800Y-100327900D01*
X122529937Y-111010970D02*
G75*
G02*
X122530100Y-113093061I-1079837J-1041130D01*
G01*
X120370263Y-111010970D02*
G75*
G03*
X120370100Y-113093061I1079837J-1041130D01*
G01*
X122528708Y-110379765D02*
G75*
G02*
X122685616Y-113612100I-1078608J-1672335D01*
G01*
X120371492Y-110379765D02*
G75*
G03*
X120214584Y-113612100I1078608J-1672335D01*
G01*
X120214100Y-113612100D02*
X120370100Y-113612100D01*
X122530100Y-113612100D02*
X122686100Y-113612100D01*
X122529937Y-104305370D02*
G75*
G02*
X122530100Y-106387461I-1079837J-1041130D01*
G01*
X120370263Y-104305370D02*
G75*
G03*
X120370100Y-106387461I1079837J-1041130D01*
G01*
X122528708Y-103674165D02*
G75*
G02*
X122685616Y-106906500I-1078608J-1672335D01*
G01*
X120371492Y-103674165D02*
G75*
G03*
X120214584Y-106906500I1078608J-1672335D01*
G01*
X120214100Y-106906500D02*
X120370100Y-106906500D01*
X122530100Y-106906500D02*
X122686100Y-106906500D01*
X121502500Y-93186000D02*
X124242500Y-93186000D01*
X124242500Y-93186000D02*
X124242500Y-86646000D01*
X124242500Y-86646000D02*
X121502500Y-86646000D01*
X121502500Y-86646000D02*
X121502500Y-93186000D01*
X122872500Y-93956000D02*
X122872500Y-93186000D01*
X122872500Y-85876000D02*
X122872500Y-86646000D01*
X127061900Y-86646000D02*
X124321900Y-86646000D01*
X124321900Y-86646000D02*
X124321900Y-93186000D01*
X124321900Y-93186000D02*
X127061900Y-93186000D01*
X127061900Y-93186000D02*
X127061900Y-86646000D01*
X125691900Y-85876000D02*
X125691900Y-86646000D01*
X125691900Y-93956000D02*
X125691900Y-93186000D01*
X121385000Y-86646000D02*
X118645000Y-86646000D01*
X118645000Y-86646000D02*
X118645000Y-93186000D01*
X118645000Y-93186000D02*
X121385000Y-93186000D01*
X121385000Y-93186000D02*
X121385000Y-86646000D01*
X120015000Y-85876000D02*
X120015000Y-86646000D01*
X120015000Y-93956000D02*
X120015000Y-93186000D01*
X175121500Y-117333000D02*
G75*
G03*
X175121500Y-112283000I0J2525000D01*
G01*
X168721500Y-117333000D02*
G75*
G02*
X168721500Y-112283000I0J2525000D01*
G01*
X168721500Y-112283000D02*
X175121500Y-112283000D01*
X168721500Y-117333000D02*
X175121500Y-117333000D01*
X127429400Y-98520500D02*
X127429400Y-102560500D01*
X124589400Y-98520500D02*
X124589400Y-102560500D01*
X127429400Y-98520500D02*
X126804400Y-98520500D01*
X125214400Y-98520500D02*
X124589400Y-98520500D01*
X127429400Y-102560500D02*
X126804400Y-102560500D01*
X125214400Y-102560500D02*
X124589400Y-102560500D01*
X131239400Y-79049500D02*
X131239400Y-83089500D01*
X128399400Y-79049500D02*
X128399400Y-83089500D01*
X131239400Y-79049500D02*
X130614400Y-79049500D01*
X129024400Y-79049500D02*
X128399400Y-79049500D01*
X131239400Y-83089500D02*
X130614400Y-83089500D01*
X129024400Y-83089500D02*
X128399400Y-83089500D01*
X156301300Y-88055200D02*
X156301300Y-84015200D01*
X159141300Y-88055200D02*
X159141300Y-84015200D01*
X156301300Y-88055200D02*
X156926300Y-88055200D01*
X158516300Y-88055200D02*
X159141300Y-88055200D01*
X156301300Y-84015200D02*
X156926300Y-84015200D01*
X158516300Y-84015200D02*
X159141300Y-84015200D01*
X153774000Y-88017100D02*
X153774000Y-83977100D01*
X156614000Y-88017100D02*
X156614000Y-83977100D01*
X153774000Y-88017100D02*
X154399000Y-88017100D01*
X155989000Y-88017100D02*
X156614000Y-88017100D01*
X153774000Y-83977100D02*
X154399000Y-83977100D01*
X155989000Y-83977100D02*
X156614000Y-83977100D01*
X166266000Y-112285400D02*
X166266000Y-116325400D01*
X163426000Y-112285400D02*
X163426000Y-116325400D01*
X166266000Y-112285400D02*
X165641000Y-112285400D01*
X164051000Y-112285400D02*
X163426000Y-112285400D01*
X166266000Y-116325400D02*
X165641000Y-116325400D01*
X164051000Y-116325400D02*
X163426000Y-116325400D01*
X163472000Y-112323500D02*
X163472000Y-116363500D01*
X160632000Y-112323500D02*
X160632000Y-116363500D01*
X163472000Y-112323500D02*
X162847000Y-112323500D01*
X161257000Y-112323500D02*
X160632000Y-112323500D01*
X163472000Y-116363500D02*
X162847000Y-116363500D01*
X161257000Y-116363500D02*
X160632000Y-116363500D01*
X180566200Y-112336200D02*
X180566200Y-116376200D01*
X177726200Y-112336200D02*
X177726200Y-116376200D01*
X180566200Y-112336200D02*
X179941200Y-112336200D01*
X178351200Y-112336200D02*
X177726200Y-112336200D01*
X180566200Y-116376200D02*
X179941200Y-116376200D01*
X178351200Y-116376200D02*
X177726200Y-116376200D01*
X186069300Y-94735400D02*
X188809300Y-94735400D01*
X188809300Y-94735400D02*
X188809300Y-88195400D01*
X188809300Y-88195400D02*
X186069300Y-88195400D01*
X186069300Y-88195400D02*
X186069300Y-94735400D01*
X187439300Y-95505400D02*
X187439300Y-94735400D01*
X187439300Y-87425400D02*
X187439300Y-88195400D01*
X191921200Y-81051400D02*
G75*
G03*
X191921200Y-81051400I-3270000J0D01*
G01*
X188651200Y-77821400D02*
X188651200Y-84281400D01*
X188691200Y-77821400D02*
X188691200Y-84281400D01*
X188731200Y-77821400D02*
X188731200Y-84281400D01*
X188771200Y-77823400D02*
X188771200Y-84279400D01*
X188811200Y-77824400D02*
X188811200Y-84278400D01*
X188851200Y-77827400D02*
X188851200Y-84275400D01*
X188891200Y-77829400D02*
X188891200Y-80011400D01*
X188891200Y-82091400D02*
X188891200Y-84273400D01*
X188931200Y-77833400D02*
X188931200Y-80011400D01*
X188931200Y-82091400D02*
X188931200Y-84269400D01*
X188971200Y-77836400D02*
X188971200Y-80011400D01*
X188971200Y-82091400D02*
X188971200Y-84266400D01*
X189011200Y-77840400D02*
X189011200Y-80011400D01*
X189011200Y-82091400D02*
X189011200Y-84262400D01*
X189051200Y-77845400D02*
X189051200Y-80011400D01*
X189051200Y-82091400D02*
X189051200Y-84257400D01*
X189091200Y-77850400D02*
X189091200Y-80011400D01*
X189091200Y-82091400D02*
X189091200Y-84252400D01*
X189131200Y-77856400D02*
X189131200Y-80011400D01*
X189131200Y-82091400D02*
X189131200Y-84246400D01*
X189171200Y-77862400D02*
X189171200Y-80011400D01*
X189171200Y-82091400D02*
X189171200Y-84240400D01*
X189211200Y-77869400D02*
X189211200Y-80011400D01*
X189211200Y-82091400D02*
X189211200Y-84233400D01*
X189251200Y-77876400D02*
X189251200Y-80011400D01*
X189251200Y-82091400D02*
X189251200Y-84226400D01*
X189291200Y-77884400D02*
X189291200Y-80011400D01*
X189291200Y-82091400D02*
X189291200Y-84218400D01*
X189331200Y-77892400D02*
X189331200Y-80011400D01*
X189331200Y-82091400D02*
X189331200Y-84210400D01*
X189372200Y-77901400D02*
X189372200Y-80011400D01*
X189372200Y-82091400D02*
X189372200Y-84201400D01*
X189412200Y-77910400D02*
X189412200Y-80011400D01*
X189412200Y-82091400D02*
X189412200Y-84192400D01*
X189452200Y-77920400D02*
X189452200Y-80011400D01*
X189452200Y-82091400D02*
X189452200Y-84182400D01*
X189492200Y-77930400D02*
X189492200Y-80011400D01*
X189492200Y-82091400D02*
X189492200Y-84172400D01*
X189532200Y-77941400D02*
X189532200Y-80011400D01*
X189532200Y-82091400D02*
X189532200Y-84161400D01*
X189572200Y-77953400D02*
X189572200Y-80011400D01*
X189572200Y-82091400D02*
X189572200Y-84149400D01*
X189612200Y-77965400D02*
X189612200Y-80011400D01*
X189612200Y-82091400D02*
X189612200Y-84137400D01*
X189652200Y-77977400D02*
X189652200Y-80011400D01*
X189652200Y-82091400D02*
X189652200Y-84125400D01*
X189692200Y-77990400D02*
X189692200Y-80011400D01*
X189692200Y-82091400D02*
X189692200Y-84112400D01*
X189732200Y-78004400D02*
X189732200Y-80011400D01*
X189732200Y-82091400D02*
X189732200Y-84098400D01*
X189772200Y-78018400D02*
X189772200Y-80011400D01*
X189772200Y-82091400D02*
X189772200Y-84084400D01*
X189812200Y-78033400D02*
X189812200Y-80011400D01*
X189812200Y-82091400D02*
X189812200Y-84069400D01*
X189852200Y-78049400D02*
X189852200Y-80011400D01*
X189852200Y-82091400D02*
X189852200Y-84053400D01*
X189892200Y-78065400D02*
X189892200Y-80011400D01*
X189892200Y-82091400D02*
X189892200Y-84037400D01*
X189932200Y-78081400D02*
X189932200Y-80011400D01*
X189932200Y-82091400D02*
X189932200Y-84021400D01*
X189972200Y-78099400D02*
X189972200Y-80011400D01*
X189972200Y-82091400D02*
X189972200Y-84003400D01*
X190012200Y-78117400D02*
X190012200Y-80011400D01*
X190012200Y-82091400D02*
X190012200Y-83985400D01*
X190052200Y-78135400D02*
X190052200Y-80011400D01*
X190052200Y-82091400D02*
X190052200Y-83967400D01*
X190092200Y-78155400D02*
X190092200Y-80011400D01*
X190092200Y-82091400D02*
X190092200Y-83947400D01*
X190132200Y-78175400D02*
X190132200Y-80011400D01*
X190132200Y-82091400D02*
X190132200Y-83927400D01*
X190172200Y-78195400D02*
X190172200Y-80011400D01*
X190172200Y-82091400D02*
X190172200Y-83907400D01*
X190212200Y-78217400D02*
X190212200Y-80011400D01*
X190212200Y-82091400D02*
X190212200Y-83885400D01*
X190252200Y-78239400D02*
X190252200Y-80011400D01*
X190252200Y-82091400D02*
X190252200Y-83863400D01*
X190292200Y-78261400D02*
X190292200Y-80011400D01*
X190292200Y-82091400D02*
X190292200Y-83841400D01*
X190332200Y-78285400D02*
X190332200Y-80011400D01*
X190332200Y-82091400D02*
X190332200Y-83817400D01*
X190372200Y-78309400D02*
X190372200Y-80011400D01*
X190372200Y-82091400D02*
X190372200Y-83793400D01*
X190412200Y-78335400D02*
X190412200Y-80011400D01*
X190412200Y-82091400D02*
X190412200Y-83767400D01*
X190452200Y-78361400D02*
X190452200Y-80011400D01*
X190452200Y-82091400D02*
X190452200Y-83741400D01*
X190492200Y-78387400D02*
X190492200Y-80011400D01*
X190492200Y-82091400D02*
X190492200Y-83715400D01*
X190532200Y-78415400D02*
X190532200Y-80011400D01*
X190532200Y-82091400D02*
X190532200Y-83687400D01*
X190572200Y-78444400D02*
X190572200Y-80011400D01*
X190572200Y-82091400D02*
X190572200Y-83658400D01*
X190612200Y-78473400D02*
X190612200Y-80011400D01*
X190612200Y-82091400D02*
X190612200Y-83629400D01*
X190652200Y-78503400D02*
X190652200Y-80011400D01*
X190652200Y-82091400D02*
X190652200Y-83599400D01*
X190692200Y-78535400D02*
X190692200Y-80011400D01*
X190692200Y-82091400D02*
X190692200Y-83567400D01*
X190732200Y-78567400D02*
X190732200Y-80011400D01*
X190732200Y-82091400D02*
X190732200Y-83535400D01*
X190772200Y-78601400D02*
X190772200Y-80011400D01*
X190772200Y-82091400D02*
X190772200Y-83501400D01*
X190812200Y-78635400D02*
X190812200Y-80011400D01*
X190812200Y-82091400D02*
X190812200Y-83467400D01*
X190852200Y-78671400D02*
X190852200Y-80011400D01*
X190852200Y-82091400D02*
X190852200Y-83431400D01*
X190892200Y-78708400D02*
X190892200Y-80011400D01*
X190892200Y-82091400D02*
X190892200Y-83394400D01*
X190932200Y-78746400D02*
X190932200Y-80011400D01*
X190932200Y-82091400D02*
X190932200Y-83356400D01*
X190972200Y-78786400D02*
X190972200Y-83316400D01*
X191012200Y-78827400D02*
X191012200Y-83275400D01*
X191052200Y-78869400D02*
X191052200Y-83233400D01*
X191092200Y-78914400D02*
X191092200Y-83188400D01*
X191132200Y-78959400D02*
X191132200Y-83143400D01*
X191172200Y-79007400D02*
X191172200Y-83095400D01*
X191212200Y-79056400D02*
X191212200Y-83046400D01*
X191252200Y-79107400D02*
X191252200Y-82995400D01*
X191292200Y-79161400D02*
X191292200Y-82941400D01*
X191332200Y-79217400D02*
X191332200Y-82885400D01*
X191372200Y-79275400D02*
X191372200Y-82827400D01*
X191412200Y-79337400D02*
X191412200Y-82765400D01*
X191452200Y-79401400D02*
X191452200Y-82701400D01*
X191492200Y-79470400D02*
X191492200Y-82632400D01*
X191532200Y-79542400D02*
X191532200Y-82560400D01*
X191572200Y-79619400D02*
X191572200Y-82483400D01*
X191612200Y-79701400D02*
X191612200Y-82401400D01*
X191652200Y-79789400D02*
X191652200Y-82313400D01*
X191692200Y-79886400D02*
X191692200Y-82216400D01*
X191732200Y-79992400D02*
X191732200Y-82110400D01*
X191772200Y-80111400D02*
X191772200Y-81991400D01*
X191812200Y-80249400D02*
X191812200Y-81853400D01*
X191852200Y-80418400D02*
X191852200Y-81684400D01*
X191892200Y-80649400D02*
X191892200Y-81453400D01*
X185150959Y-79212400D02*
X185780959Y-79212400D01*
X185465959Y-78897400D02*
X185465959Y-79527400D01*
X184464000Y-89582500D02*
G75*
G02*
X184464000Y-87582500I0J1000000D01*
G01*
X184464000Y-87582500D02*
X184464000Y-85932500D01*
X184464000Y-85932500D02*
X158944000Y-85932500D01*
X158944000Y-85932500D02*
X158944000Y-91232500D01*
X158944000Y-91232500D02*
X184464000Y-91232500D01*
X184464000Y-91232500D02*
X184464000Y-89582500D01*
X128464000Y-87582500D02*
G75*
G02*
X128464000Y-89582500I0J-1000000D01*
G01*
X128464000Y-89582500D02*
X128464000Y-91232500D01*
X128464000Y-91232500D02*
X153984000Y-91232500D01*
X153984000Y-91232500D02*
X153984000Y-85932500D01*
X153984000Y-85932500D02*
X128464000Y-85932500D01*
X128464000Y-85932500D02*
X128464000Y-87582500D01*
X191463600Y-88182700D02*
X188723600Y-88182700D01*
X188723600Y-88182700D02*
X188723600Y-94722700D01*
X188723600Y-94722700D02*
X191463600Y-94722700D01*
X191463600Y-94722700D02*
X191463600Y-88182700D01*
X190093600Y-87412700D02*
X190093600Y-88182700D01*
X190093600Y-95492700D02*
X190093600Y-94722700D01*
X182667600Y-111921600D02*
X185327600Y-111921600D01*
X182667600Y-99161600D02*
X182667600Y-111921600D01*
X185327600Y-99161600D02*
X185327600Y-111921600D01*
X182667600Y-99161600D02*
X185327600Y-99161600D01*
X182667600Y-97891600D02*
X182667600Y-96561600D01*
X182667600Y-96561600D02*
X183997600Y-96561600D01*
X119040600Y-77072800D02*
X121700600Y-77072800D01*
X119040600Y-74472800D02*
X119040600Y-77072800D01*
X121700600Y-74472800D02*
X121700600Y-77072800D01*
X119040600Y-74472800D02*
X121700600Y-74472800D01*
X119040600Y-73202800D02*
X119040600Y-71872800D01*
X119040600Y-71872800D02*
X120370600Y-71872800D01*
D13*
X130386080Y-113447390D02*
X129386080Y-113447390D01*
X130290842Y-112399771D02*
X130338461Y-112447390D01*
X130386080Y-112590247D01*
X130386080Y-112685485D01*
X130338461Y-112828342D01*
X130243223Y-112923580D01*
X130147985Y-112971200D01*
X129957509Y-113018819D01*
X129814652Y-113018819D01*
X129624176Y-112971200D01*
X129528938Y-112923580D01*
X129433700Y-112828342D01*
X129386080Y-112685485D01*
X129386080Y-112590247D01*
X129433700Y-112447390D01*
X129481319Y-112399771D01*
X130386080Y-111447390D02*
X130386080Y-112018819D01*
X130386080Y-111733104D02*
X129386080Y-111733104D01*
X129528938Y-111828342D01*
X129624176Y-111923580D01*
X129671795Y-112018819D01*
X178863666Y-118895880D02*
X178863666Y-119610166D01*
X178816047Y-119753023D01*
X178720809Y-119848261D01*
X178577952Y-119895880D01*
X178482714Y-119895880D01*
X179863666Y-119895880D02*
X179292238Y-119895880D01*
X179577952Y-119895880D02*
X179577952Y-118895880D01*
X179482714Y-119038738D01*
X179387476Y-119133976D01*
X179292238Y-119181595D01*
X191085101Y-119496744D02*
X191132720Y-119353887D01*
X191132720Y-119115792D01*
X191085101Y-119020554D01*
X191037482Y-118972935D01*
X190942244Y-118925316D01*
X190847006Y-118925316D01*
X190751768Y-118972935D01*
X190704149Y-119020554D01*
X190656530Y-119115792D01*
X190608911Y-119306268D01*
X190561292Y-119401506D01*
X190513673Y-119449125D01*
X190418435Y-119496744D01*
X190323197Y-119496744D01*
X190227959Y-119449125D01*
X190180340Y-119401506D01*
X190132720Y-119306268D01*
X190132720Y-119068173D01*
X190180340Y-118925316D01*
X190466054Y-118068173D02*
X191132720Y-118068173D01*
X190085101Y-118306268D02*
X190799387Y-118544363D01*
X190799387Y-117925316D01*
X189950766Y-108558080D02*
X189950766Y-109272366D01*
X189903147Y-109415223D01*
X189807909Y-109510461D01*
X189665052Y-109558080D01*
X189569814Y-109558080D01*
X190903147Y-108558080D02*
X190426957Y-108558080D01*
X190379338Y-109034271D01*
X190426957Y-108986652D01*
X190522195Y-108939033D01*
X190760290Y-108939033D01*
X190855528Y-108986652D01*
X190903147Y-109034271D01*
X190950766Y-109129509D01*
X190950766Y-109367604D01*
X190903147Y-109462842D01*
X190855528Y-109510461D01*
X190760290Y-109558080D01*
X190522195Y-109558080D01*
X190426957Y-109510461D01*
X190379338Y-109462842D01*
X141600180Y-120787990D02*
X140600180Y-120787990D01*
X141504942Y-119740371D02*
X141552561Y-119787990D01*
X141600180Y-119930847D01*
X141600180Y-120026085D01*
X141552561Y-120168942D01*
X141457323Y-120264180D01*
X141362085Y-120311800D01*
X141171609Y-120359419D01*
X141028752Y-120359419D01*
X140838276Y-120311800D01*
X140743038Y-120264180D01*
X140647800Y-120168942D01*
X140600180Y-120026085D01*
X140600180Y-119930847D01*
X140647800Y-119787990D01*
X140695419Y-119740371D01*
X140933514Y-118883228D02*
X141600180Y-118883228D01*
X140552561Y-119121323D02*
X141266847Y-119359419D01*
X141266847Y-118740371D01*
X126436380Y-102109566D02*
X126436380Y-102585757D01*
X125436380Y-102585757D01*
X126436380Y-101252423D02*
X126436380Y-101823852D01*
X126436380Y-101538138D02*
X125436380Y-101538138D01*
X125579238Y-101633376D01*
X125674476Y-101728614D01*
X125722095Y-101823852D01*
X182530833Y-80449680D02*
X182197500Y-79973490D01*
X181959404Y-80449680D02*
X181959404Y-79449680D01*
X182340357Y-79449680D01*
X182435595Y-79497300D01*
X182483214Y-79544919D01*
X182530833Y-79640157D01*
X182530833Y-79783014D01*
X182483214Y-79878252D01*
X182435595Y-79925871D01*
X182340357Y-79973490D01*
X181959404Y-79973490D01*
X183530833Y-80449680D02*
X183197500Y-79973490D01*
X182959404Y-80449680D02*
X182959404Y-79449680D01*
X183340357Y-79449680D01*
X183435595Y-79497300D01*
X183483214Y-79544919D01*
X183530833Y-79640157D01*
X183530833Y-79783014D01*
X183483214Y-79878252D01*
X183435595Y-79925871D01*
X183340357Y-79973490D01*
X182959404Y-79973490D01*
X184483214Y-80449680D02*
X183911785Y-80449680D01*
X184197500Y-80449680D02*
X184197500Y-79449680D01*
X184102261Y-79592538D01*
X184007023Y-79687776D01*
X183911785Y-79735395D01*
X177231776Y-77887580D02*
X177231776Y-78601866D01*
X177184157Y-78744723D01*
X177088919Y-78839961D01*
X176946061Y-78887580D01*
X176850823Y-78887580D01*
X178231776Y-78887580D02*
X177660347Y-78887580D01*
X177946061Y-78887580D02*
X177946061Y-77887580D01*
X177850823Y-78030438D01*
X177755585Y-78125676D01*
X177660347Y-78173295D01*
X178850823Y-77887580D02*
X178946061Y-77887580D01*
X179041300Y-77935200D01*
X179088919Y-77982819D01*
X179136538Y-78078057D01*
X179184157Y-78268533D01*
X179184157Y-78506628D01*
X179136538Y-78697104D01*
X179088919Y-78792342D01*
X179041300Y-78839961D01*
X178946061Y-78887580D01*
X178850823Y-78887580D01*
X178755585Y-78839961D01*
X178707966Y-78792342D01*
X178660347Y-78697104D01*
X178612728Y-78506628D01*
X178612728Y-78268533D01*
X178660347Y-78078057D01*
X178707966Y-77982819D01*
X178755585Y-77935200D01*
X178850823Y-77887580D01*
X123909080Y-102109495D02*
X122909080Y-102109495D01*
X122909080Y-101871400D01*
X122956700Y-101728542D01*
X123051938Y-101633304D01*
X123147176Y-101585685D01*
X123337652Y-101538066D01*
X123480509Y-101538066D01*
X123670985Y-101585685D01*
X123766223Y-101633304D01*
X123861461Y-101728542D01*
X123909080Y-101871400D01*
X123909080Y-102109495D01*
X122909080Y-101204733D02*
X122909080Y-100585685D01*
X123290033Y-100919019D01*
X123290033Y-100776161D01*
X123337652Y-100680923D01*
X123385271Y-100633304D01*
X123480509Y-100585685D01*
X123718604Y-100585685D01*
X123813842Y-100633304D01*
X123861461Y-100680923D01*
X123909080Y-100776161D01*
X123909080Y-101061876D01*
X123861461Y-101157114D01*
X123813842Y-101204733D01*
X123731280Y-115279395D02*
X122731280Y-115279395D01*
X122731280Y-115041300D01*
X122778900Y-114898442D01*
X122874138Y-114803204D01*
X122969376Y-114755585D01*
X123159852Y-114707966D01*
X123302709Y-114707966D01*
X123493185Y-114755585D01*
X123588423Y-114803204D01*
X123683661Y-114898442D01*
X123731280Y-115041300D01*
X123731280Y-115279395D01*
X122826519Y-114327014D02*
X122778900Y-114279395D01*
X122731280Y-114184157D01*
X122731280Y-113946061D01*
X122778900Y-113850823D01*
X122826519Y-113803204D01*
X122921757Y-113755585D01*
X123016995Y-113755585D01*
X123159852Y-113803204D01*
X123731280Y-114374633D01*
X123731280Y-113755585D01*
X123845580Y-108522995D02*
X122845580Y-108522995D01*
X122845580Y-108284900D01*
X122893200Y-108142042D01*
X122988438Y-108046804D01*
X123083676Y-107999185D01*
X123274152Y-107951566D01*
X123417009Y-107951566D01*
X123607485Y-107999185D01*
X123702723Y-108046804D01*
X123797961Y-108142042D01*
X123845580Y-108284900D01*
X123845580Y-108522995D01*
X123845580Y-106999185D02*
X123845580Y-107570614D01*
X123845580Y-107284900D02*
X122845580Y-107284900D01*
X122988438Y-107380138D01*
X123083676Y-107475376D01*
X123131295Y-107570614D01*
X123350280Y-82919866D02*
X122874090Y-83253200D01*
X123350280Y-83491295D02*
X122350280Y-83491295D01*
X122350280Y-83110342D01*
X122397900Y-83015104D01*
X122445519Y-82967485D01*
X122540757Y-82919866D01*
X122683614Y-82919866D01*
X122778852Y-82967485D01*
X122826471Y-83015104D01*
X122874090Y-83110342D01*
X122874090Y-83491295D01*
X122350280Y-82586533D02*
X122350280Y-81967485D01*
X122731233Y-82300819D01*
X122731233Y-82157961D01*
X122778852Y-82062723D01*
X122826471Y-82015104D01*
X122921709Y-81967485D01*
X123159804Y-81967485D01*
X123255042Y-82015104D01*
X123302661Y-82062723D01*
X123350280Y-82157961D01*
X123350280Y-82443676D01*
X123302661Y-82538914D01*
X123255042Y-82586533D01*
X126156980Y-82805566D02*
X125680790Y-83138900D01*
X126156980Y-83376995D02*
X125156980Y-83376995D01*
X125156980Y-82996042D01*
X125204600Y-82900804D01*
X125252219Y-82853185D01*
X125347457Y-82805566D01*
X125490314Y-82805566D01*
X125585552Y-82853185D01*
X125633171Y-82900804D01*
X125680790Y-82996042D01*
X125680790Y-83376995D01*
X125252219Y-82424614D02*
X125204600Y-82376995D01*
X125156980Y-82281757D01*
X125156980Y-82043661D01*
X125204600Y-81948423D01*
X125252219Y-81900804D01*
X125347457Y-81853185D01*
X125442695Y-81853185D01*
X125585552Y-81900804D01*
X126156980Y-82472233D01*
X126156980Y-81853185D01*
X120454680Y-82881766D02*
X119978490Y-83215100D01*
X120454680Y-83453195D02*
X119454680Y-83453195D01*
X119454680Y-83072242D01*
X119502300Y-82977004D01*
X119549919Y-82929385D01*
X119645157Y-82881766D01*
X119788014Y-82881766D01*
X119883252Y-82929385D01*
X119930871Y-82977004D01*
X119978490Y-83072242D01*
X119978490Y-83453195D01*
X120454680Y-81929385D02*
X120454680Y-82500814D01*
X120454680Y-82215100D02*
X119454680Y-82215100D01*
X119597538Y-82310338D01*
X119692776Y-82405576D01*
X119740395Y-82500814D01*
X171084976Y-117663980D02*
X171751642Y-118663980D01*
X171751642Y-117663980D02*
X171084976Y-118663980D01*
X172656404Y-118663980D02*
X172084976Y-118663980D01*
X172370690Y-118663980D02*
X172370690Y-117663980D01*
X172275452Y-117806838D01*
X172180214Y-117902076D01*
X172084976Y-117949695D01*
X126353842Y-97345166D02*
X126401461Y-97392785D01*
X126449080Y-97535642D01*
X126449080Y-97630880D01*
X126401461Y-97773738D01*
X126306223Y-97868976D01*
X126210985Y-97916595D01*
X126020509Y-97964214D01*
X125877652Y-97964214D01*
X125687176Y-97916595D01*
X125591938Y-97868976D01*
X125496700Y-97773738D01*
X125449080Y-97630880D01*
X125449080Y-97535642D01*
X125496700Y-97392785D01*
X125544319Y-97345166D01*
X125449080Y-97011833D02*
X125449080Y-96345166D01*
X126449080Y-96773738D01*
X127227033Y-79554342D02*
X127179414Y-79601961D01*
X127036557Y-79649580D01*
X126941319Y-79649580D01*
X126798461Y-79601961D01*
X126703223Y-79506723D01*
X126655604Y-79411485D01*
X126607985Y-79221009D01*
X126607985Y-79078152D01*
X126655604Y-78887676D01*
X126703223Y-78792438D01*
X126798461Y-78697200D01*
X126941319Y-78649580D01*
X127036557Y-78649580D01*
X127179414Y-78697200D01*
X127227033Y-78744819D01*
X128084176Y-78649580D02*
X127893700Y-78649580D01*
X127798461Y-78697200D01*
X127750842Y-78744819D01*
X127655604Y-78887676D01*
X127607985Y-79078152D01*
X127607985Y-79459104D01*
X127655604Y-79554342D01*
X127703223Y-79601961D01*
X127798461Y-79649580D01*
X127988938Y-79649580D01*
X128084176Y-79601961D01*
X128131795Y-79554342D01*
X128179414Y-79459104D01*
X128179414Y-79221009D01*
X128131795Y-79125771D01*
X128084176Y-79078152D01*
X127988938Y-79030533D01*
X127798461Y-79030533D01*
X127703223Y-79078152D01*
X127655604Y-79125771D01*
X127607985Y-79221009D01*
X158167342Y-89663566D02*
X158214961Y-89711185D01*
X158262580Y-89854042D01*
X158262580Y-89949280D01*
X158214961Y-90092138D01*
X158119723Y-90187376D01*
X158024485Y-90234995D01*
X157834009Y-90282614D01*
X157691152Y-90282614D01*
X157500676Y-90234995D01*
X157405438Y-90187376D01*
X157310200Y-90092138D01*
X157262580Y-89949280D01*
X157262580Y-89854042D01*
X157310200Y-89711185D01*
X157357819Y-89663566D01*
X157262580Y-88758804D02*
X157262580Y-89234995D01*
X157738771Y-89282614D01*
X157691152Y-89234995D01*
X157643533Y-89139757D01*
X157643533Y-88901661D01*
X157691152Y-88806423D01*
X157738771Y-88758804D01*
X157834009Y-88711185D01*
X158072104Y-88711185D01*
X158167342Y-88758804D01*
X158214961Y-88806423D01*
X158262580Y-88901661D01*
X158262580Y-89139757D01*
X158214961Y-89234995D01*
X158167342Y-89282614D01*
X155474942Y-89701666D02*
X155522561Y-89749285D01*
X155570180Y-89892142D01*
X155570180Y-89987380D01*
X155522561Y-90130238D01*
X155427323Y-90225476D01*
X155332085Y-90273095D01*
X155141609Y-90320714D01*
X154998752Y-90320714D01*
X154808276Y-90273095D01*
X154713038Y-90225476D01*
X154617800Y-90130238D01*
X154570180Y-89987380D01*
X154570180Y-89892142D01*
X154617800Y-89749285D01*
X154665419Y-89701666D01*
X154903514Y-88844523D02*
X155570180Y-88844523D01*
X154522561Y-89082619D02*
X155236847Y-89320714D01*
X155236847Y-88701666D01*
X164628533Y-117730542D02*
X164580914Y-117778161D01*
X164438057Y-117825780D01*
X164342819Y-117825780D01*
X164199961Y-117778161D01*
X164104723Y-117682923D01*
X164057104Y-117587685D01*
X164009485Y-117397209D01*
X164009485Y-117254352D01*
X164057104Y-117063876D01*
X164104723Y-116968638D01*
X164199961Y-116873400D01*
X164342819Y-116825780D01*
X164438057Y-116825780D01*
X164580914Y-116873400D01*
X164628533Y-116921019D01*
X164961866Y-116825780D02*
X165580914Y-116825780D01*
X165247580Y-117206733D01*
X165390438Y-117206733D01*
X165485676Y-117254352D01*
X165533295Y-117301971D01*
X165580914Y-117397209D01*
X165580914Y-117635304D01*
X165533295Y-117730542D01*
X165485676Y-117778161D01*
X165390438Y-117825780D01*
X165104723Y-117825780D01*
X165009485Y-117778161D01*
X164961866Y-117730542D01*
X161859933Y-117641642D02*
X161812314Y-117689261D01*
X161669457Y-117736880D01*
X161574219Y-117736880D01*
X161431361Y-117689261D01*
X161336123Y-117594023D01*
X161288504Y-117498785D01*
X161240885Y-117308309D01*
X161240885Y-117165452D01*
X161288504Y-116974976D01*
X161336123Y-116879738D01*
X161431361Y-116784500D01*
X161574219Y-116736880D01*
X161669457Y-116736880D01*
X161812314Y-116784500D01*
X161859933Y-116832119D01*
X162240885Y-116832119D02*
X162288504Y-116784500D01*
X162383742Y-116736880D01*
X162621838Y-116736880D01*
X162717076Y-116784500D01*
X162764695Y-116832119D01*
X162812314Y-116927357D01*
X162812314Y-117022595D01*
X162764695Y-117165452D01*
X162193266Y-117736880D01*
X162812314Y-117736880D01*
X177773033Y-117501942D02*
X177725414Y-117549561D01*
X177582557Y-117597180D01*
X177487319Y-117597180D01*
X177344461Y-117549561D01*
X177249223Y-117454323D01*
X177201604Y-117359085D01*
X177153985Y-117168609D01*
X177153985Y-117025752D01*
X177201604Y-116835276D01*
X177249223Y-116740038D01*
X177344461Y-116644800D01*
X177487319Y-116597180D01*
X177582557Y-116597180D01*
X177725414Y-116644800D01*
X177773033Y-116692419D01*
X178725414Y-117597180D02*
X178153985Y-117597180D01*
X178439700Y-117597180D02*
X178439700Y-116597180D01*
X178344461Y-116740038D01*
X178249223Y-116835276D01*
X178153985Y-116882895D01*
X187259933Y-85186780D02*
X186926600Y-84710590D01*
X186688504Y-85186780D02*
X186688504Y-84186780D01*
X187069457Y-84186780D01*
X187164695Y-84234400D01*
X187212314Y-84282019D01*
X187259933Y-84377257D01*
X187259933Y-84520114D01*
X187212314Y-84615352D01*
X187164695Y-84662971D01*
X187069457Y-84710590D01*
X186688504Y-84710590D01*
X188164695Y-84186780D02*
X187688504Y-84186780D01*
X187640885Y-84662971D01*
X187688504Y-84615352D01*
X187783742Y-84567733D01*
X188021838Y-84567733D01*
X188117076Y-84615352D01*
X188164695Y-84662971D01*
X188212314Y-84758209D01*
X188212314Y-84996304D01*
X188164695Y-85091542D01*
X188117076Y-85139161D01*
X188021838Y-85186780D01*
X187783742Y-85186780D01*
X187688504Y-85139161D01*
X187640885Y-85091542D01*
X184205642Y-78678042D02*
X184158023Y-78725661D01*
X184015166Y-78773280D01*
X183919928Y-78773280D01*
X183777071Y-78725661D01*
X183681833Y-78630423D01*
X183634214Y-78535185D01*
X183586595Y-78344709D01*
X183586595Y-78201852D01*
X183634214Y-78011376D01*
X183681833Y-77916138D01*
X183777071Y-77820900D01*
X183919928Y-77773280D01*
X184015166Y-77773280D01*
X184158023Y-77820900D01*
X184205642Y-77868519D01*
X185158023Y-78773280D02*
X184586595Y-78773280D01*
X184872309Y-78773280D02*
X184872309Y-77773280D01*
X184777071Y-77916138D01*
X184681833Y-78011376D01*
X184586595Y-78058995D01*
X185491357Y-77773280D02*
X186158023Y-77773280D01*
X185729452Y-78773280D01*
X185758080Y-86078890D02*
X184758080Y-86078890D01*
X185662842Y-85031271D02*
X185710461Y-85078890D01*
X185758080Y-85221747D01*
X185758080Y-85316985D01*
X185710461Y-85459842D01*
X185615223Y-85555080D01*
X185519985Y-85602700D01*
X185329509Y-85650319D01*
X185186652Y-85650319D01*
X184996176Y-85602700D01*
X184900938Y-85555080D01*
X184805700Y-85459842D01*
X184758080Y-85316985D01*
X184758080Y-85221747D01*
X184805700Y-85078890D01*
X184853319Y-85031271D01*
X184758080Y-84697938D02*
X184758080Y-84078890D01*
X185139033Y-84412223D01*
X185139033Y-84269366D01*
X185186652Y-84174128D01*
X185234271Y-84126509D01*
X185329509Y-84078890D01*
X185567604Y-84078890D01*
X185662842Y-84126509D01*
X185710461Y-84174128D01*
X185758080Y-84269366D01*
X185758080Y-84555080D01*
X185710461Y-84650319D01*
X185662842Y-84697938D01*
X128303280Y-85723290D02*
X127303280Y-85723290D01*
X128208042Y-84675671D02*
X128255661Y-84723290D01*
X128303280Y-84866147D01*
X128303280Y-84961385D01*
X128255661Y-85104242D01*
X128160423Y-85199480D01*
X128065185Y-85247100D01*
X127874709Y-85294719D01*
X127731852Y-85294719D01*
X127541376Y-85247100D01*
X127446138Y-85199480D01*
X127350900Y-85104242D01*
X127303280Y-84961385D01*
X127303280Y-84866147D01*
X127350900Y-84723290D01*
X127398519Y-84675671D01*
X127398519Y-84294719D02*
X127350900Y-84247100D01*
X127303280Y-84151861D01*
X127303280Y-83913766D01*
X127350900Y-83818528D01*
X127398519Y-83770909D01*
X127493757Y-83723290D01*
X127588995Y-83723290D01*
X127731852Y-83770909D01*
X128303280Y-84342338D01*
X128303280Y-83723290D01*
X189812633Y-85199480D02*
X189479300Y-84723290D01*
X189241204Y-85199480D02*
X189241204Y-84199480D01*
X189622157Y-84199480D01*
X189717395Y-84247100D01*
X189765014Y-84294719D01*
X189812633Y-84389957D01*
X189812633Y-84532814D01*
X189765014Y-84628052D01*
X189717395Y-84675671D01*
X189622157Y-84723290D01*
X189241204Y-84723290D01*
X190669776Y-84532814D02*
X190669776Y-85199480D01*
X190431680Y-84151861D02*
X190193585Y-84866147D01*
X190812633Y-84866147D01*
X183638866Y-95273880D02*
X183638866Y-95988166D01*
X183591247Y-96131023D01*
X183496009Y-96226261D01*
X183353152Y-96273880D01*
X183257914Y-96273880D01*
X184019819Y-95273880D02*
X184638866Y-95273880D01*
X184305533Y-95654833D01*
X184448390Y-95654833D01*
X184543628Y-95702452D01*
X184591247Y-95750071D01*
X184638866Y-95845309D01*
X184638866Y-96083404D01*
X184591247Y-96178642D01*
X184543628Y-96226261D01*
X184448390Y-96273880D01*
X184162676Y-96273880D01*
X184067438Y-96226261D01*
X184019819Y-96178642D01*
X129408323Y-76506342D02*
X129360704Y-76553961D01*
X129217847Y-76601580D01*
X129122609Y-76601580D01*
X128979752Y-76553961D01*
X128884514Y-76458723D01*
X128836895Y-76363485D01*
X128789276Y-76173009D01*
X128789276Y-76030152D01*
X128836895Y-75839676D01*
X128884514Y-75744438D01*
X128979752Y-75649200D01*
X129122609Y-75601580D01*
X129217847Y-75601580D01*
X129360704Y-75649200D01*
X129408323Y-75696819D01*
X129836895Y-76601580D02*
X129836895Y-75601580D01*
X130408323Y-76601580D01*
X130408323Y-75601580D01*
X131408323Y-76601580D02*
X130836895Y-76601580D01*
X131122609Y-76601580D02*
X131122609Y-75601580D01*
X131027371Y-75744438D01*
X130932133Y-75839676D01*
X130836895Y-75887295D01*
X128925723Y-121515142D02*
X128878104Y-121562761D01*
X128735247Y-121610380D01*
X128640009Y-121610380D01*
X128497152Y-121562761D01*
X128401914Y-121467523D01*
X128354295Y-121372285D01*
X128306676Y-121181809D01*
X128306676Y-121038952D01*
X128354295Y-120848476D01*
X128401914Y-120753238D01*
X128497152Y-120658000D01*
X128640009Y-120610380D01*
X128735247Y-120610380D01*
X128878104Y-120658000D01*
X128925723Y-120705619D01*
X129354295Y-121610380D02*
X129354295Y-120610380D01*
X129925723Y-121610380D01*
X129925723Y-120610380D01*
X130354295Y-120705619D02*
X130401914Y-120658000D01*
X130497152Y-120610380D01*
X130735247Y-120610380D01*
X130830485Y-120658000D01*
X130878104Y-120705619D01*
X130925723Y-120800857D01*
X130925723Y-120896095D01*
X130878104Y-121038952D01*
X130306676Y-121610380D01*
X130925723Y-121610380D01*
X120943619Y-78279666D02*
X120229333Y-78279666D01*
X120086476Y-78232047D01*
X119991238Y-78136809D01*
X119943619Y-77993952D01*
X119943619Y-77898714D01*
X120848380Y-78708238D02*
X120896000Y-78755857D01*
X120943619Y-78851095D01*
X120943619Y-79089190D01*
X120896000Y-79184428D01*
X120848380Y-79232047D01*
X120753142Y-79279666D01*
X120657904Y-79279666D01*
X120515047Y-79232047D01*
X119943619Y-78660619D01*
X119943619Y-79279666D01*
%LPC*%
D18*
G36*
X177215800Y-131597400D02*
G01*
X128003300Y-131597400D01*
X127939800Y-121945400D01*
X177215800Y-121945400D01*
X177215800Y-131597400D01*
G37*
X177215800Y-131597400D02*
X128003300Y-131597400D01*
X127939800Y-121945400D01*
X177215800Y-121945400D01*
X177215800Y-131597400D01*
G36*
X176117250Y-65862200D02*
G01*
X176002950Y-75361800D01*
X128739900Y-75298300D01*
X128790700Y-65798700D01*
X176117250Y-65862200D01*
G37*
X176117250Y-65862200D02*
X176002950Y-75361800D01*
X128739900Y-75298300D01*
X128790700Y-65798700D01*
X176117250Y-65862200D01*
D19*
X129794000Y-94932500D03*
X178054000Y-110172500D03*
X132334000Y-94932500D03*
X175514000Y-110172500D03*
X134874000Y-94932500D03*
X172974000Y-110172500D03*
X137414000Y-94932500D03*
X170434000Y-110172500D03*
X139954000Y-94932500D03*
X167894000Y-110172500D03*
X142494000Y-94932500D03*
X165354000Y-110172500D03*
X145034000Y-94932500D03*
X162814000Y-110172500D03*
X147574000Y-94932500D03*
X160274000Y-110172500D03*
X150114000Y-94932500D03*
X157734000Y-110172500D03*
X152654000Y-94932500D03*
X155194000Y-110172500D03*
X155194000Y-94932500D03*
X152654000Y-110172500D03*
X157734000Y-94932500D03*
X150114000Y-110172500D03*
X160274000Y-94932500D03*
X147574000Y-110172500D03*
X162814000Y-94932500D03*
X145034000Y-110172500D03*
X165354000Y-94932500D03*
X142494000Y-110172500D03*
X167894000Y-94932500D03*
X139954000Y-110172500D03*
X170434000Y-94932500D03*
X137414000Y-110172500D03*
X172974000Y-94932500D03*
X134874000Y-110172500D03*
X175514000Y-94932500D03*
X132334000Y-110172500D03*
X178054000Y-94932500D03*
D20*
X129794000Y-110172500D03*
D21*
X184099200Y-117906800D03*
D22*
X181559200Y-117906800D03*
D23*
X190411100Y-111887000D03*
D24*
X187911740Y-110136940D03*
X187911740Y-118137940D03*
D23*
X190411100Y-116387880D03*
D22*
X187413900Y-101600000D03*
D21*
X189953900Y-101600000D03*
X187413900Y-104140000D03*
X189953900Y-104140000D03*
X187413900Y-106680000D03*
X189953900Y-106680000D03*
D19*
X158750000Y-120142000D03*
X143510000Y-112522000D03*
X156210000Y-120142000D03*
X146050000Y-112522000D03*
X153670000Y-120142000D03*
X148590000Y-112522000D03*
X151130000Y-120142000D03*
X151130000Y-112522000D03*
X148590000Y-120142000D03*
X153670000Y-112522000D03*
X146050000Y-120142000D03*
X156210000Y-112522000D03*
X143510000Y-120142000D03*
D20*
X158750000Y-112522000D03*
D19*
X125996700Y-114236500D03*
D23*
X125996700Y-104076500D03*
D19*
X167894000Y-82232500D03*
X170434000Y-82232500D03*
X172974000Y-82232500D03*
X175514000Y-82232500D03*
X178054000Y-82232500D03*
X180594000Y-82232500D03*
D20*
X183134000Y-82232500D03*
G36*
G01*
X182943700Y-67323000D02*
X182943700Y-69073000D01*
G75*
G02*
X182068700Y-69948000I-875000J0D01*
G01*
X180318700Y-69948000D01*
G75*
G02*
X179443700Y-69073000I0J875000D01*
G01*
X179443700Y-67323000D01*
G75*
G02*
X180318700Y-66448000I875000J0D01*
G01*
X182068700Y-66448000D01*
G75*
G02*
X182943700Y-67323000I0J-875000D01*
G01*
G37*
G36*
G01*
X185693700Y-71898000D02*
X185693700Y-73898000D01*
G75*
G02*
X184943700Y-74648000I-750000J0D01*
G01*
X183443700Y-74648000D01*
G75*
G02*
X182693700Y-73898000I0J750000D01*
G01*
X182693700Y-71898000D01*
G75*
G02*
X183443700Y-71148000I750000J0D01*
G01*
X184943700Y-71148000D01*
G75*
G02*
X185693700Y-71898000I0J-750000D01*
G01*
G37*
D25*
X178193700Y-72898000D03*
D26*
X121462800Y-97497900D03*
D27*
X121462800Y-100037900D03*
D26*
X121450100Y-110782100D03*
D27*
X121450100Y-113322100D03*
D26*
X121450100Y-104076500D03*
D27*
X121450100Y-106616500D03*
D19*
X122872500Y-84836000D03*
D23*
X122872500Y-94996000D03*
D19*
X125691900Y-94996000D03*
D23*
X125691900Y-84836000D03*
D19*
X120015000Y-94996000D03*
D23*
X120015000Y-84836000D03*
D28*
X174361500Y-114808000D03*
X169481500Y-114808000D03*
D23*
X126009400Y-101790500D03*
X126009400Y-99290500D03*
X129819400Y-82319500D03*
X129819400Y-79819500D03*
X157721300Y-84785200D03*
X157721300Y-87285200D03*
X155194000Y-84747100D03*
X155194000Y-87247100D03*
X164846000Y-115555400D03*
X164846000Y-113055400D03*
X162052000Y-115593500D03*
X162052000Y-113093500D03*
X179146200Y-115606200D03*
X179146200Y-113106200D03*
D19*
X187439300Y-86385400D03*
D23*
X187439300Y-96545400D03*
X189901200Y-81051400D03*
D20*
X187401200Y-81051400D03*
D19*
X183134000Y-92392500D03*
X160274000Y-84772500D03*
X180594000Y-92392500D03*
X162814000Y-84772500D03*
X178054000Y-92392500D03*
X165354000Y-84772500D03*
X175514000Y-92392500D03*
X167894000Y-84772500D03*
X172974000Y-92392500D03*
X170434000Y-84772500D03*
X170434000Y-92392500D03*
X172974000Y-84772500D03*
X167894000Y-92392500D03*
X175514000Y-84772500D03*
X165354000Y-92392500D03*
X178054000Y-84772500D03*
X162814000Y-92392500D03*
X180594000Y-84772500D03*
X160274000Y-92392500D03*
D20*
X183134000Y-84772500D03*
D19*
X129794000Y-84772500D03*
X152654000Y-92392500D03*
X132334000Y-84772500D03*
X150114000Y-92392500D03*
X134874000Y-84772500D03*
X147574000Y-92392500D03*
X137414000Y-84772500D03*
X145034000Y-92392500D03*
X139954000Y-84772500D03*
X142494000Y-92392500D03*
X142494000Y-84772500D03*
X139954000Y-92392500D03*
X145034000Y-84772500D03*
X137414000Y-92392500D03*
X147574000Y-84772500D03*
X134874000Y-92392500D03*
X150114000Y-84772500D03*
X132334000Y-92392500D03*
X152654000Y-84772500D03*
D20*
X129794000Y-92392500D03*
D19*
X190093600Y-96532700D03*
D23*
X190093600Y-86372700D03*
D21*
X183997600Y-110591600D03*
X183997600Y-108051600D03*
X183997600Y-105511600D03*
X183997600Y-102971600D03*
X183997600Y-100431600D03*
D22*
X183997600Y-97891600D03*
D29*
X174433500Y-70332600D03*
X170473500Y-70332600D03*
X166513500Y-70332600D03*
X162553500Y-70332600D03*
X158593500Y-70332600D03*
X154633500Y-70332600D03*
X150673500Y-70332600D03*
X146713500Y-70332600D03*
X142753500Y-70332600D03*
X138793500Y-70332600D03*
X134833500Y-70332600D03*
X174433500Y-70332600D03*
X170473500Y-70332600D03*
X166513500Y-70332600D03*
X162553500Y-70332600D03*
X158593500Y-70332600D03*
X154633500Y-70332600D03*
X150673500Y-70332600D03*
X146713500Y-70332600D03*
X142753500Y-70332600D03*
X138793500Y-70332600D03*
X134833500Y-70332600D03*
X130873500Y-70332600D03*
X174612300Y-126923800D03*
X170652300Y-126923800D03*
X166692300Y-126923800D03*
X162732300Y-126923800D03*
X158772300Y-126923800D03*
X154812300Y-126923800D03*
X150852300Y-126923800D03*
X146892300Y-126923800D03*
X142932300Y-126923800D03*
X138972300Y-126923800D03*
X135012300Y-126923800D03*
X174612300Y-126923800D03*
X170652300Y-126923800D03*
X166692300Y-126923800D03*
X162732300Y-126923800D03*
X158772300Y-126923800D03*
X154812300Y-126923800D03*
X150852300Y-126923800D03*
X146892300Y-126923800D03*
X142932300Y-126923800D03*
X138972300Y-126923800D03*
X135012300Y-126923800D03*
X131052300Y-126923800D03*
D21*
X120370600Y-75742800D03*
D22*
X120370600Y-73202800D03*
M02*
