G04 #@! TF.GenerationSoftware,KiCad,Pcbnew,(5.1.9)-1*
G04 #@! TF.CreationDate,2021-05-14T21:12:05-04:00*
G04 #@! TF.ProjectId,CBM-SD,43424d2d-5344-42e6-9b69-6361645f7063,rev?*
G04 #@! TF.SameCoordinates,Original*
G04 #@! TF.FileFunction,Soldermask,Bot*
G04 #@! TF.FilePolarity,Negative*
%FSLAX46Y46*%
G04 Gerber Fmt 4.6, Leading zero omitted, Abs format (unit mm)*
G04 Created by KiCad (PCBNEW (5.1.9)-1) date 2021-05-14 21:12:05*
%MOMM*%
%LPD*%
G01*
G04 APERTURE LIST*
G04 #@! TA.AperFunction,Profile*
%ADD10C,0.200660*%
G04 #@! TD*
%ADD11C,0.100000*%
%ADD12O,1.600000X1.600000*%
%ADD13R,1.600000X1.600000*%
%ADD14O,1.700000X1.700000*%
%ADD15R,1.700000X1.700000*%
%ADD16C,1.600000*%
%ADD17C,2.400000*%
%ADD18R,3.500000X3.500000*%
%ADD19C,1.800000*%
%ADD20R,1.800000X1.800000*%
%ADD21C,1.500000*%
%ADD22O,2.410000X8.760000*%
G04 APERTURE END LIST*
D10*
X122337228Y-69011800D02*
G75*
G03*
X122337228Y-69011800I-1687228J0D01*
G01*
X122337228Y-117104827D02*
G75*
G03*
X122337228Y-117104827I-1687228J0D01*
G01*
X192151000Y-120142000D02*
X181165500Y-120142000D01*
X192151000Y-65786000D02*
X117221000Y-65786000D01*
X117221000Y-120230900D02*
X117221000Y-65786000D01*
X128003300Y-120230900D02*
X117221000Y-120230900D01*
X128003300Y-130035300D02*
X128003300Y-120230900D01*
X138669428Y-117106700D02*
G75*
G03*
X138669428Y-117106700I-1687228J0D01*
G01*
X177152300Y-120142000D02*
X177152300Y-120192800D01*
X181165500Y-120142000D02*
X177152300Y-120142000D01*
X192151000Y-114109500D02*
X192151000Y-120142000D01*
D11*
G36*
X176072800Y-65849500D02*
G01*
X176072800Y-75374500D01*
X128828800Y-75323700D01*
X128828800Y-65798700D01*
X128892300Y-65798700D01*
X176072800Y-65849500D01*
G37*
X176072800Y-65849500D02*
X176072800Y-75374500D01*
X128828800Y-75323700D01*
X128828800Y-65798700D01*
X128892300Y-65798700D01*
X176072800Y-65849500D01*
G36*
X177114200Y-131432300D02*
G01*
X127965200Y-131495800D01*
X127965200Y-121970800D01*
X128028700Y-121970800D01*
X177114200Y-121907300D01*
X177114200Y-131432300D01*
G37*
X177114200Y-131432300D02*
X127965200Y-131495800D01*
X127965200Y-121970800D01*
X128028700Y-121970800D01*
X177114200Y-121907300D01*
X177114200Y-131432300D01*
D10*
X177152300Y-130035300D02*
X177152300Y-120192800D01*
X166674800Y-131432300D02*
X175755300Y-131432300D01*
X138925300Y-131432300D02*
X162801300Y-131432300D01*
X129400300Y-131432300D02*
X135051800Y-131432300D01*
X136448800Y-122415300D02*
X136448800Y-130035300D01*
X137528300Y-130035300D02*
X137528300Y-122415300D01*
X164198300Y-122351800D02*
X164198300Y-130035300D01*
X165277800Y-130035300D02*
X165277800Y-122351800D01*
X129400300Y-131432300D02*
G75*
G02*
X128003300Y-130035300I0J1397000D01*
G01*
X136448800Y-130035300D02*
G75*
G02*
X135051800Y-131432300I-1397000J0D01*
G01*
X138925300Y-131432300D02*
G75*
G02*
X137528300Y-130035300I0J1397000D01*
G01*
X164198300Y-130035300D02*
G75*
G02*
X162801300Y-131432300I-1397000J0D01*
G01*
X166674800Y-131432300D02*
G75*
G02*
X165277800Y-130035300I0J1397000D01*
G01*
X177152300Y-130035300D02*
G75*
G02*
X175755300Y-131432300I-1397000J0D01*
G01*
X136448800Y-122415300D02*
X137528300Y-122415300D01*
X165277800Y-122351800D02*
X164198300Y-122351800D01*
X192151000Y-65786000D02*
X192151000Y-114109500D01*
D12*
X129794000Y-94932500D03*
X178054000Y-110172500D03*
X132334000Y-94932500D03*
X175514000Y-110172500D03*
X134874000Y-94932500D03*
X172974000Y-110172500D03*
X137414000Y-94932500D03*
X170434000Y-110172500D03*
X139954000Y-94932500D03*
X167894000Y-110172500D03*
X142494000Y-94932500D03*
X165354000Y-110172500D03*
X145034000Y-94932500D03*
X162814000Y-110172500D03*
X147574000Y-94932500D03*
X160274000Y-110172500D03*
X150114000Y-94932500D03*
X157734000Y-110172500D03*
X152654000Y-94932500D03*
X155194000Y-110172500D03*
X155194000Y-94932500D03*
X152654000Y-110172500D03*
X157734000Y-94932500D03*
X150114000Y-110172500D03*
X160274000Y-94932500D03*
X147574000Y-110172500D03*
X162814000Y-94932500D03*
X145034000Y-110172500D03*
X165354000Y-94932500D03*
X142494000Y-110172500D03*
X167894000Y-94932500D03*
X139954000Y-110172500D03*
X170434000Y-94932500D03*
X137414000Y-110172500D03*
X172974000Y-94932500D03*
X134874000Y-110172500D03*
X175514000Y-94932500D03*
X132334000Y-110172500D03*
X178054000Y-94932500D03*
D13*
X129794000Y-110172500D03*
D14*
X184099200Y-117906800D03*
D15*
X181559200Y-117906800D03*
D16*
X190411100Y-111887000D03*
D17*
X187911740Y-110136940D03*
X187911740Y-118137940D03*
D16*
X190411100Y-116387880D03*
D15*
X187413900Y-101600000D03*
D14*
X189953900Y-101600000D03*
X187413900Y-104140000D03*
X189953900Y-104140000D03*
X187413900Y-106680000D03*
X189953900Y-106680000D03*
D12*
X158750000Y-120142000D03*
X143510000Y-112522000D03*
X156210000Y-120142000D03*
X146050000Y-112522000D03*
X153670000Y-120142000D03*
X148590000Y-112522000D03*
X151130000Y-120142000D03*
X151130000Y-112522000D03*
X148590000Y-120142000D03*
X153670000Y-112522000D03*
X146050000Y-120142000D03*
X156210000Y-112522000D03*
X143510000Y-120142000D03*
D13*
X158750000Y-112522000D03*
D12*
X125996700Y-114236500D03*
D16*
X125996700Y-104076500D03*
D12*
X167894000Y-82232500D03*
X170434000Y-82232500D03*
X172974000Y-82232500D03*
X175514000Y-82232500D03*
X178054000Y-82232500D03*
X180594000Y-82232500D03*
D13*
X183134000Y-82232500D03*
G36*
G01*
X182943700Y-67323000D02*
X182943700Y-69073000D01*
G75*
G02*
X182068700Y-69948000I-875000J0D01*
G01*
X180318700Y-69948000D01*
G75*
G02*
X179443700Y-69073000I0J875000D01*
G01*
X179443700Y-67323000D01*
G75*
G02*
X180318700Y-66448000I875000J0D01*
G01*
X182068700Y-66448000D01*
G75*
G02*
X182943700Y-67323000I0J-875000D01*
G01*
G37*
G36*
G01*
X185693700Y-71898000D02*
X185693700Y-73898000D01*
G75*
G02*
X184943700Y-74648000I-750000J0D01*
G01*
X183443700Y-74648000D01*
G75*
G02*
X182693700Y-73898000I0J750000D01*
G01*
X182693700Y-71898000D01*
G75*
G02*
X183443700Y-71148000I750000J0D01*
G01*
X184943700Y-71148000D01*
G75*
G02*
X185693700Y-71898000I0J-750000D01*
G01*
G37*
D18*
X178193700Y-72898000D03*
D19*
X121462800Y-97497900D03*
D20*
X121462800Y-100037900D03*
D19*
X121450100Y-110782100D03*
D20*
X121450100Y-113322100D03*
D19*
X121450100Y-104076500D03*
D20*
X121450100Y-106616500D03*
D12*
X122872500Y-84836000D03*
D16*
X122872500Y-94996000D03*
D12*
X125691900Y-94996000D03*
D16*
X125691900Y-84836000D03*
D12*
X120015000Y-94996000D03*
D16*
X120015000Y-84836000D03*
D21*
X174361500Y-114808000D03*
X169481500Y-114808000D03*
D16*
X126009400Y-101790500D03*
X126009400Y-99290500D03*
X129819400Y-82319500D03*
X129819400Y-79819500D03*
X157721300Y-84785200D03*
X157721300Y-87285200D03*
X155194000Y-84747100D03*
X155194000Y-87247100D03*
X164846000Y-115555400D03*
X164846000Y-113055400D03*
X162052000Y-115593500D03*
X162052000Y-113093500D03*
X179146200Y-115606200D03*
X179146200Y-113106200D03*
D12*
X187439300Y-86385400D03*
D16*
X187439300Y-96545400D03*
X189901200Y-81051400D03*
D13*
X187401200Y-81051400D03*
D12*
X183134000Y-92392500D03*
X160274000Y-84772500D03*
X180594000Y-92392500D03*
X162814000Y-84772500D03*
X178054000Y-92392500D03*
X165354000Y-84772500D03*
X175514000Y-92392500D03*
X167894000Y-84772500D03*
X172974000Y-92392500D03*
X170434000Y-84772500D03*
X170434000Y-92392500D03*
X172974000Y-84772500D03*
X167894000Y-92392500D03*
X175514000Y-84772500D03*
X165354000Y-92392500D03*
X178054000Y-84772500D03*
X162814000Y-92392500D03*
X180594000Y-84772500D03*
X160274000Y-92392500D03*
D13*
X183134000Y-84772500D03*
D12*
X129794000Y-84772500D03*
X152654000Y-92392500D03*
X132334000Y-84772500D03*
X150114000Y-92392500D03*
X134874000Y-84772500D03*
X147574000Y-92392500D03*
X137414000Y-84772500D03*
X145034000Y-92392500D03*
X139954000Y-84772500D03*
X142494000Y-92392500D03*
X142494000Y-84772500D03*
X139954000Y-92392500D03*
X145034000Y-84772500D03*
X137414000Y-92392500D03*
X147574000Y-84772500D03*
X134874000Y-92392500D03*
X150114000Y-84772500D03*
X132334000Y-92392500D03*
X152654000Y-84772500D03*
D13*
X129794000Y-92392500D03*
D12*
X190093600Y-96532700D03*
D16*
X190093600Y-86372700D03*
D14*
X183997600Y-110591600D03*
X183997600Y-108051600D03*
X183997600Y-105511600D03*
X183997600Y-102971600D03*
X183997600Y-100431600D03*
D15*
X183997600Y-97891600D03*
D22*
X130873500Y-70332600D03*
X131052300Y-126923800D03*
D14*
X120370600Y-75742800D03*
D15*
X120370600Y-73202800D03*
M02*
