G04 #@! TF.GenerationSoftware,KiCad,Pcbnew,(5.1.9)-1*
G04 #@! TF.CreationDate,2021-05-14T21:12:05-04:00*
G04 #@! TF.ProjectId,CBM-SD,43424d2d-5344-42e6-9b69-6361645f7063,rev?*
G04 #@! TF.SameCoordinates,Original*
G04 #@! TF.FileFunction,Copper,L1,Top*
G04 #@! TF.FilePolarity,Positive*
%FSLAX46Y46*%
G04 Gerber Fmt 4.6, Leading zero omitted, Abs format (unit mm)*
G04 Created by KiCad (PCBNEW (5.1.9)-1) date 2021-05-14 21:12:05*
%MOMM*%
%LPD*%
G01*
G04 APERTURE LIST*
G04 #@! TA.AperFunction,Profile*
%ADD10C,0.200660*%
G04 #@! TD*
G04 #@! TA.AperFunction,ComponentPad*
%ADD11O,1.600000X1.600000*%
G04 #@! TD*
G04 #@! TA.AperFunction,ComponentPad*
%ADD12R,1.600000X1.600000*%
G04 #@! TD*
G04 #@! TA.AperFunction,ComponentPad*
%ADD13O,1.700000X1.700000*%
G04 #@! TD*
G04 #@! TA.AperFunction,ComponentPad*
%ADD14R,1.700000X1.700000*%
G04 #@! TD*
G04 #@! TA.AperFunction,ComponentPad*
%ADD15C,1.600000*%
G04 #@! TD*
G04 #@! TA.AperFunction,ComponentPad*
%ADD16C,2.400000*%
G04 #@! TD*
G04 #@! TA.AperFunction,ComponentPad*
%ADD17R,3.500000X3.500000*%
G04 #@! TD*
G04 #@! TA.AperFunction,ComponentPad*
%ADD18C,1.800000*%
G04 #@! TD*
G04 #@! TA.AperFunction,ComponentPad*
%ADD19R,1.800000X1.800000*%
G04 #@! TD*
G04 #@! TA.AperFunction,ComponentPad*
%ADD20C,1.500000*%
G04 #@! TD*
G04 #@! TA.AperFunction,SMDPad,CuDef*
%ADD21O,2.410000X8.760000*%
G04 #@! TD*
G04 #@! TA.AperFunction,ViaPad*
%ADD22C,1.422400*%
G04 #@! TD*
G04 #@! TA.AperFunction,ViaPad*
%ADD23C,1.219200*%
G04 #@! TD*
G04 #@! TA.AperFunction,Conductor*
%ADD24C,0.600000*%
G04 #@! TD*
G04 #@! TA.AperFunction,Conductor*
%ADD25C,0.660400*%
G04 #@! TD*
G04 #@! TA.AperFunction,Conductor*
%ADD26C,0.203200*%
G04 #@! TD*
G04 #@! TA.AperFunction,Conductor*
%ADD27C,0.200000*%
G04 #@! TD*
G04 APERTURE END LIST*
D10*
X122337228Y-69011800D02*
G75*
G03*
X122337228Y-69011800I-1687228J0D01*
G01*
X122337228Y-117104827D02*
G75*
G03*
X122337228Y-117104827I-1687228J0D01*
G01*
X192151000Y-120142000D02*
X181165500Y-120142000D01*
X192151000Y-65786000D02*
X117221000Y-65786000D01*
X117221000Y-120230900D02*
X117221000Y-65786000D01*
X128003300Y-120230900D02*
X117221000Y-120230900D01*
X128003300Y-130035300D02*
X128003300Y-120230900D01*
X138669428Y-117106700D02*
G75*
G03*
X138669428Y-117106700I-1687228J0D01*
G01*
X177152300Y-120142000D02*
X177152300Y-120192800D01*
X181165500Y-120142000D02*
X177152300Y-120142000D01*
X192151000Y-114109500D02*
X192151000Y-120142000D01*
X177152300Y-130035300D02*
X177152300Y-120192800D01*
X166674800Y-131432300D02*
X175755300Y-131432300D01*
X138925300Y-131432300D02*
X162801300Y-131432300D01*
X129400300Y-131432300D02*
X135051800Y-131432300D01*
X136448800Y-122415300D02*
X136448800Y-130035300D01*
X137528300Y-130035300D02*
X137528300Y-122415300D01*
X164198300Y-122351800D02*
X164198300Y-130035300D01*
X165277800Y-130035300D02*
X165277800Y-122351800D01*
X129400300Y-131432300D02*
G75*
G02*
X128003300Y-130035300I0J1397000D01*
G01*
X136448800Y-130035300D02*
G75*
G02*
X135051800Y-131432300I-1397000J0D01*
G01*
X138925300Y-131432300D02*
G75*
G02*
X137528300Y-130035300I0J1397000D01*
G01*
X164198300Y-130035300D02*
G75*
G02*
X162801300Y-131432300I-1397000J0D01*
G01*
X166674800Y-131432300D02*
G75*
G02*
X165277800Y-130035300I0J1397000D01*
G01*
X177152300Y-130035300D02*
G75*
G02*
X175755300Y-131432300I-1397000J0D01*
G01*
X136448800Y-122415300D02*
X137528300Y-122415300D01*
X165277800Y-122351800D02*
X164198300Y-122351800D01*
X192151000Y-65786000D02*
X192151000Y-114109500D01*
D11*
X129794000Y-94932500D03*
X178054000Y-110172500D03*
X132334000Y-94932500D03*
X175514000Y-110172500D03*
X134874000Y-94932500D03*
X172974000Y-110172500D03*
X137414000Y-94932500D03*
X170434000Y-110172500D03*
X139954000Y-94932500D03*
X167894000Y-110172500D03*
X142494000Y-94932500D03*
X165354000Y-110172500D03*
X145034000Y-94932500D03*
X162814000Y-110172500D03*
X147574000Y-94932500D03*
X160274000Y-110172500D03*
X150114000Y-94932500D03*
X157734000Y-110172500D03*
X152654000Y-94932500D03*
X155194000Y-110172500D03*
X155194000Y-94932500D03*
X152654000Y-110172500D03*
X157734000Y-94932500D03*
X150114000Y-110172500D03*
X160274000Y-94932500D03*
X147574000Y-110172500D03*
X162814000Y-94932500D03*
X145034000Y-110172500D03*
X165354000Y-94932500D03*
X142494000Y-110172500D03*
X167894000Y-94932500D03*
X139954000Y-110172500D03*
X170434000Y-94932500D03*
X137414000Y-110172500D03*
X172974000Y-94932500D03*
X134874000Y-110172500D03*
X175514000Y-94932500D03*
X132334000Y-110172500D03*
X178054000Y-94932500D03*
D12*
X129794000Y-110172500D03*
D13*
X184099200Y-117906800D03*
D14*
X181559200Y-117906800D03*
D15*
X190411100Y-111887000D03*
D16*
X187911740Y-110136940D03*
X187911740Y-118137940D03*
D15*
X190411100Y-116387880D03*
D14*
X187413900Y-101600000D03*
D13*
X189953900Y-101600000D03*
X187413900Y-104140000D03*
X189953900Y-104140000D03*
X187413900Y-106680000D03*
X189953900Y-106680000D03*
D11*
X158750000Y-120142000D03*
X143510000Y-112522000D03*
X156210000Y-120142000D03*
X146050000Y-112522000D03*
X153670000Y-120142000D03*
X148590000Y-112522000D03*
X151130000Y-120142000D03*
X151130000Y-112522000D03*
X148590000Y-120142000D03*
X153670000Y-112522000D03*
X146050000Y-120142000D03*
X156210000Y-112522000D03*
X143510000Y-120142000D03*
D12*
X158750000Y-112522000D03*
D11*
X125996700Y-114236500D03*
D15*
X125996700Y-104076500D03*
D11*
X167894000Y-82232500D03*
X170434000Y-82232500D03*
X172974000Y-82232500D03*
X175514000Y-82232500D03*
X178054000Y-82232500D03*
X180594000Y-82232500D03*
D12*
X183134000Y-82232500D03*
G04 #@! TA.AperFunction,ComponentPad*
G36*
G01*
X182943700Y-67323000D02*
X182943700Y-69073000D01*
G75*
G02*
X182068700Y-69948000I-875000J0D01*
G01*
X180318700Y-69948000D01*
G75*
G02*
X179443700Y-69073000I0J875000D01*
G01*
X179443700Y-67323000D01*
G75*
G02*
X180318700Y-66448000I875000J0D01*
G01*
X182068700Y-66448000D01*
G75*
G02*
X182943700Y-67323000I0J-875000D01*
G01*
G37*
G04 #@! TD.AperFunction*
G04 #@! TA.AperFunction,ComponentPad*
G36*
G01*
X185693700Y-71898000D02*
X185693700Y-73898000D01*
G75*
G02*
X184943700Y-74648000I-750000J0D01*
G01*
X183443700Y-74648000D01*
G75*
G02*
X182693700Y-73898000I0J750000D01*
G01*
X182693700Y-71898000D01*
G75*
G02*
X183443700Y-71148000I750000J0D01*
G01*
X184943700Y-71148000D01*
G75*
G02*
X185693700Y-71898000I0J-750000D01*
G01*
G37*
G04 #@! TD.AperFunction*
D17*
X178193700Y-72898000D03*
D18*
X121462800Y-97497900D03*
D19*
X121462800Y-100037900D03*
D18*
X121450100Y-110782100D03*
D19*
X121450100Y-113322100D03*
D18*
X121450100Y-104076500D03*
D19*
X121450100Y-106616500D03*
D11*
X122872500Y-84836000D03*
D15*
X122872500Y-94996000D03*
D11*
X125691900Y-94996000D03*
D15*
X125691900Y-84836000D03*
D11*
X120015000Y-94996000D03*
D15*
X120015000Y-84836000D03*
D20*
X174361500Y-114808000D03*
X169481500Y-114808000D03*
D15*
X126009400Y-101790500D03*
X126009400Y-99290500D03*
X129819400Y-82319500D03*
X129819400Y-79819500D03*
X157721300Y-84785200D03*
X157721300Y-87285200D03*
X155194000Y-84747100D03*
X155194000Y-87247100D03*
X164846000Y-115555400D03*
X164846000Y-113055400D03*
X162052000Y-115593500D03*
X162052000Y-113093500D03*
X179146200Y-115606200D03*
X179146200Y-113106200D03*
D11*
X187439300Y-86385400D03*
D15*
X187439300Y-96545400D03*
X189901200Y-81051400D03*
D12*
X187401200Y-81051400D03*
D11*
X183134000Y-92392500D03*
X160274000Y-84772500D03*
X180594000Y-92392500D03*
X162814000Y-84772500D03*
X178054000Y-92392500D03*
X165354000Y-84772500D03*
X175514000Y-92392500D03*
X167894000Y-84772500D03*
X172974000Y-92392500D03*
X170434000Y-84772500D03*
X170434000Y-92392500D03*
X172974000Y-84772500D03*
X167894000Y-92392500D03*
X175514000Y-84772500D03*
X165354000Y-92392500D03*
X178054000Y-84772500D03*
X162814000Y-92392500D03*
X180594000Y-84772500D03*
X160274000Y-92392500D03*
D12*
X183134000Y-84772500D03*
D11*
X129794000Y-84772500D03*
X152654000Y-92392500D03*
X132334000Y-84772500D03*
X150114000Y-92392500D03*
X134874000Y-84772500D03*
X147574000Y-92392500D03*
X137414000Y-84772500D03*
X145034000Y-92392500D03*
X139954000Y-84772500D03*
X142494000Y-92392500D03*
X142494000Y-84772500D03*
X139954000Y-92392500D03*
X145034000Y-84772500D03*
X137414000Y-92392500D03*
X147574000Y-84772500D03*
X134874000Y-92392500D03*
X150114000Y-84772500D03*
X132334000Y-92392500D03*
X152654000Y-84772500D03*
D12*
X129794000Y-92392500D03*
D11*
X190093600Y-96532700D03*
D15*
X190093600Y-86372700D03*
D13*
X183997600Y-110591600D03*
X183997600Y-108051600D03*
X183997600Y-105511600D03*
X183997600Y-102971600D03*
X183997600Y-100431600D03*
D14*
X183997600Y-97891600D03*
D21*
X174433500Y-70332600D03*
X170473500Y-70332600D03*
X166513500Y-70332600D03*
X162553500Y-70332600D03*
X158593500Y-70332600D03*
X154633500Y-70332600D03*
X150673500Y-70332600D03*
X146713500Y-70332600D03*
X142753500Y-70332600D03*
X138793500Y-70332600D03*
X134833500Y-70332600D03*
X130873500Y-70332600D03*
X174612300Y-126923800D03*
X170652300Y-126923800D03*
X166692300Y-126923800D03*
X162732300Y-126923800D03*
X158772300Y-126923800D03*
X154812300Y-126923800D03*
X150852300Y-126923800D03*
X146892300Y-126923800D03*
X142932300Y-126923800D03*
X138972300Y-126923800D03*
X135012300Y-126923800D03*
X131052300Y-126923800D03*
D13*
X120370600Y-75742800D03*
D14*
X120370600Y-73202800D03*
D22*
X152463500Y-116776500D03*
D23*
X148844000Y-82169000D03*
X149860000Y-88582500D03*
X141287500Y-107886500D03*
X147447000Y-88519000D03*
X147447000Y-88519000D03*
X144970500Y-88582500D03*
X144081500Y-105981500D03*
X142430500Y-105219500D03*
X142494000Y-87122000D03*
X154051000Y-100647500D03*
X153860500Y-89916000D03*
X168084500Y-89217500D03*
X183134000Y-90551000D03*
X171640500Y-96456500D03*
X160528000Y-90106500D03*
X170688000Y-89662000D03*
D22*
X152425400Y-100228400D03*
D23*
X155194000Y-92312500D03*
X174244000Y-108673900D03*
X157734000Y-92392500D03*
X156362400Y-98717100D03*
X145554700Y-105994200D03*
X156718000Y-96748600D03*
X175577500Y-88557100D03*
X180530500Y-94945200D03*
X149961600Y-105714800D03*
X173050200Y-89522300D03*
X181965600Y-93954600D03*
X166966900Y-99555300D03*
X140017500Y-101955600D03*
D22*
X160731200Y-76136500D03*
X183007000Y-113106200D03*
X128790700Y-100838000D03*
X152577800Y-104419400D03*
X175564800Y-104406700D03*
X172974000Y-119011700D03*
X164198300Y-119011700D03*
D23*
X130810000Y-98399600D03*
X146799300Y-104546400D03*
X176618900Y-96964500D03*
X158432500Y-77533500D03*
X178168300Y-100787200D03*
X151396700Y-118135400D03*
X156159200Y-118135400D03*
X154609800Y-77533500D03*
X180319942Y-107518200D03*
X150660100Y-77558900D03*
X169164000Y-99644200D03*
X166878000Y-103187500D03*
X150583900Y-104178100D03*
X148678900Y-77609700D03*
X156400500Y-101663500D03*
X178879500Y-105765600D03*
X178917600Y-103136700D03*
X179616100Y-111099600D03*
X181889400Y-107810300D03*
X175171100Y-117589300D03*
X148069300Y-107581700D03*
X150952200Y-107861100D03*
X181800500Y-105473500D03*
X185356500Y-95770700D03*
X162839400Y-98412300D03*
X124282200Y-96532700D03*
X165354000Y-99631500D03*
X127546100Y-98501200D03*
X147535900Y-102158800D03*
D24*
X171894500Y-101409500D02*
X171894500Y-100825300D01*
X172224700Y-101739700D02*
X171894500Y-101409500D01*
X173507400Y-101739700D02*
X172224700Y-101739700D01*
X173850300Y-102082600D02*
X173507400Y-101739700D01*
X171894500Y-100825300D02*
X172326300Y-100393500D01*
X173850300Y-102793800D02*
X173850300Y-102082600D01*
X172326300Y-100393500D02*
X173786800Y-100393500D01*
X173545500Y-103098600D02*
X173850300Y-102793800D01*
X168592500Y-103098600D02*
X173545500Y-103098600D01*
X177114200Y-100368100D02*
X175171100Y-100368100D01*
X175171100Y-100368100D02*
X174802800Y-100736400D01*
X174802800Y-100736400D02*
X174802800Y-101485700D01*
X174802800Y-101485700D02*
X174802800Y-102577900D01*
X174802800Y-102577900D02*
X175221900Y-102997000D01*
X175221900Y-102997000D02*
X177139600Y-102997000D01*
X177139600Y-102997000D02*
X177546000Y-102590600D01*
X177546000Y-102590600D02*
X177546000Y-102044500D01*
X177546000Y-102044500D02*
X177266600Y-101765100D01*
X177266600Y-101765100D02*
X176072800Y-101765100D01*
D25*
X152654000Y-92392500D02*
X152654000Y-89852500D01*
X152654000Y-94932500D02*
X152654000Y-92392500D01*
X155194000Y-110172500D02*
X155194000Y-102616000D01*
X155194000Y-100076000D02*
X155194000Y-102616000D01*
X152654000Y-94932500D02*
X152654000Y-96012000D01*
X152654000Y-89852500D02*
X152654000Y-84772500D01*
X152400000Y-116713000D02*
X152463500Y-116776500D01*
X183959500Y-82232500D02*
X183134000Y-82232500D01*
X184658000Y-82931000D02*
X183959500Y-82232500D01*
D26*
X120015000Y-94996000D02*
X120015000Y-95821500D01*
X118681500Y-102743000D02*
X121412000Y-105473500D01*
X118681500Y-97472500D02*
X118681500Y-102743000D01*
X174244000Y-114690500D02*
X174361500Y-114808000D01*
X174244000Y-109283500D02*
X174244000Y-114690500D01*
X150114000Y-88836500D02*
X150114000Y-92392500D01*
X149860000Y-88582500D02*
X150114000Y-88836500D01*
X141287500Y-107886500D02*
X141224000Y-107823000D01*
X150114000Y-92900500D02*
X150114000Y-92392500D01*
X151257000Y-95948500D02*
X151257000Y-94043500D01*
X151257000Y-94043500D02*
X150114000Y-92900500D01*
X147574000Y-88646000D02*
X147447000Y-88519000D01*
X147574000Y-92392500D02*
X147574000Y-88646000D01*
X146304000Y-95948500D02*
X146304000Y-94361000D01*
X147574000Y-93091000D02*
X147574000Y-92392500D01*
X146304000Y-94361000D02*
X147574000Y-93091000D01*
X145034000Y-88646000D02*
X145034000Y-92392500D01*
X144970500Y-88582500D02*
X145034000Y-88646000D01*
X143764000Y-96202500D02*
X143764000Y-94424500D01*
X145034000Y-93154500D02*
X145034000Y-92392500D01*
X143764000Y-94424500D02*
X145034000Y-93154500D01*
X143764000Y-105664000D02*
X144081500Y-105981500D01*
X143764000Y-96202500D02*
X143764000Y-105664000D01*
X142430500Y-105219500D02*
X142430500Y-97282000D01*
X142430500Y-97282000D02*
X141224000Y-96075500D01*
X141224000Y-96075500D02*
X141224000Y-94361000D01*
X142494000Y-93091000D02*
X142494000Y-92392500D01*
X141224000Y-94361000D02*
X142494000Y-93091000D01*
X142494000Y-87122000D02*
X142494000Y-92392500D01*
X174612300Y-126923800D02*
X174612300Y-121907300D01*
X165290500Y-84709000D02*
X165354000Y-84772500D01*
X161607500Y-88646000D02*
X165354000Y-84899500D01*
X161607500Y-110617000D02*
X161607500Y-88646000D01*
X165354000Y-84899500D02*
X165354000Y-84772500D01*
X170652300Y-126923800D02*
X170652300Y-122138300D01*
X159067500Y-88709500D02*
X159004000Y-88773000D01*
X166692300Y-126923800D02*
X166692300Y-122305800D01*
X179324000Y-86042500D02*
X178054000Y-84772500D01*
X156527500Y-94488000D02*
X156527500Y-96202500D01*
X156464000Y-94424500D02*
X156527500Y-94488000D01*
X156527500Y-96202500D02*
X156718000Y-96393000D01*
X157607000Y-108013500D02*
X157607000Y-99631500D01*
X156464000Y-110871000D02*
X156464000Y-109156500D01*
X157480000Y-111887000D02*
X156464000Y-110871000D01*
X156464000Y-109156500D02*
X157607000Y-108013500D01*
X162732300Y-126923800D02*
X162732300Y-121658800D01*
X158772300Y-121942300D02*
X158264300Y-121434300D01*
X158772300Y-126923800D02*
X158772300Y-121942300D01*
X154812300Y-126923800D02*
X154812300Y-121831800D01*
X170434000Y-84772500D02*
X170434000Y-88265000D01*
X170434000Y-88265000D02*
X169164000Y-89535000D01*
X154051000Y-100647500D02*
X154051000Y-109029500D01*
X154051000Y-109029500D02*
X153924000Y-109156500D01*
X153924000Y-112268000D02*
X153670000Y-112522000D01*
X153924000Y-109156500D02*
X153924000Y-112268000D01*
X146050000Y-112522000D02*
X146050000Y-111569500D01*
X146050000Y-111569500D02*
X146304000Y-111315500D01*
X146304000Y-111315500D02*
X146304000Y-108458000D01*
X138684000Y-94361000D02*
X139954000Y-93091000D01*
X139954000Y-93091000D02*
X139954000Y-92392500D01*
X138620500Y-95821500D02*
X138684000Y-94361000D01*
X139954000Y-90170000D02*
X139954000Y-92392500D01*
X140589000Y-89535000D02*
X139954000Y-90170000D01*
X141224000Y-82677000D02*
X141224000Y-85407500D01*
X141224000Y-85407500D02*
X140652500Y-85979000D01*
X140652500Y-85979000D02*
X140589000Y-89535000D01*
X137414000Y-93027500D02*
X136144000Y-94297500D01*
X137414000Y-92392500D02*
X137414000Y-93027500D01*
X136144000Y-94297500D02*
X136144000Y-95948500D01*
X134874000Y-93027500D02*
X134874000Y-92392500D01*
X133604000Y-94297500D02*
X134874000Y-93027500D01*
X133604000Y-96075500D02*
X133604000Y-94297500D01*
X133604000Y-88455500D02*
X132334000Y-89725500D01*
X132334000Y-89725500D02*
X132334000Y-92392500D01*
X132334000Y-93091000D02*
X131127500Y-94297500D01*
X132334000Y-92392500D02*
X132334000Y-93091000D01*
X176784000Y-83566000D02*
X176784000Y-93662500D01*
X176530001Y-93916499D02*
X175514000Y-94932500D01*
X175514000Y-82296000D02*
X176784000Y-83566000D01*
X176784000Y-93662500D02*
X176530001Y-93916499D01*
X175514000Y-82232500D02*
X175514000Y-82296000D01*
X174269085Y-93637415D02*
X172974000Y-94932500D01*
X174269085Y-90637585D02*
X174269085Y-93637415D01*
X172974000Y-82232500D02*
X173037500Y-82232500D01*
X173037500Y-82232500D02*
X174244000Y-83439000D01*
X174244000Y-90612500D02*
X174269085Y-90637585D01*
X174244000Y-83439000D02*
X174244000Y-90612500D01*
X167894000Y-82232500D02*
X167894000Y-82359500D01*
X169164000Y-83629500D02*
X169164000Y-88074500D01*
X167894000Y-82359500D02*
X169164000Y-83629500D01*
X153860500Y-95631000D02*
X153924000Y-95631000D01*
X153860500Y-91440000D02*
X153860500Y-95631000D01*
X139954000Y-110172500D02*
X140017500Y-110109000D01*
X140017500Y-110109000D02*
X140017500Y-102552500D01*
X153860500Y-91440000D02*
X153860500Y-89916000D01*
X169164000Y-88074500D02*
X168084500Y-89217500D01*
X183134000Y-89535000D02*
X183134000Y-84772500D01*
X183134000Y-90551000D02*
X183134000Y-84772500D01*
X171677032Y-95594468D02*
X171677032Y-93689468D01*
X172262801Y-93103699D02*
X172974000Y-92392500D01*
X171677032Y-93689468D02*
X172262801Y-93103699D01*
X171640500Y-95631000D02*
X171677032Y-95594468D01*
X171640500Y-96456500D02*
X171640500Y-95631000D01*
X120015000Y-84836000D02*
X120015000Y-87630000D01*
X147574000Y-84772500D02*
X146291155Y-86055345D01*
X146291155Y-86055345D02*
X146291155Y-93675345D01*
X146291155Y-93675345D02*
X145034000Y-94932500D01*
X142494000Y-94932500D02*
X143762912Y-93663588D01*
X143762912Y-93663588D02*
X143827500Y-87566500D01*
X143827500Y-85979000D02*
X145034000Y-84772500D01*
X143827500Y-87566500D02*
X143827500Y-85979000D01*
X165354000Y-92392500D02*
X165544500Y-92392500D01*
X165544500Y-92392500D02*
X166624000Y-93472000D01*
X142494000Y-85344000D02*
X142494000Y-84772500D01*
X141254117Y-86583883D02*
X142494000Y-85344000D01*
X139954000Y-94932500D02*
X141254117Y-93632383D01*
X141254117Y-93632383D02*
X141254117Y-86583883D01*
X139954000Y-89154000D02*
X139954000Y-84772500D01*
X138686977Y-90421023D02*
X139954000Y-89154000D01*
X137414000Y-94932500D02*
X138686977Y-93659523D01*
X138686977Y-93659523D02*
X138686977Y-90421023D01*
X137414000Y-88963500D02*
X137414000Y-84772500D01*
X136207500Y-90170000D02*
X137414000Y-88963500D01*
X136207500Y-93281500D02*
X136207500Y-90170000D01*
X134874000Y-94615000D02*
X136207500Y-93281500D01*
X134874000Y-94932500D02*
X134874000Y-94615000D01*
X133604000Y-93662500D02*
X133223000Y-94043500D01*
X133604000Y-89979500D02*
X133604000Y-93662500D01*
X133223000Y-94043500D02*
X132334000Y-94932500D01*
X134874000Y-84772500D02*
X134874000Y-88709500D01*
X134874000Y-88709500D02*
X133604000Y-89979500D01*
X132334000Y-87058500D02*
X132334000Y-84772500D01*
X170434000Y-82232500D02*
X170434000Y-82740500D01*
X170434000Y-82740500D02*
X171704000Y-84010500D01*
X160274000Y-91186000D02*
X160274000Y-92392500D01*
X160274000Y-92392500D02*
X160274000Y-90360500D01*
X160274000Y-90360500D02*
X160528000Y-90106500D01*
X170688000Y-89662000D02*
X171704000Y-88646000D01*
X171704000Y-88646000D02*
X171704000Y-87122000D01*
X171704000Y-84010500D02*
X171704000Y-87122000D01*
X171704000Y-87122000D02*
X171704000Y-87249000D01*
D24*
X153962100Y-97320100D02*
X153962100Y-98653600D01*
D25*
X152654000Y-96012000D02*
X153962100Y-97320100D01*
X153962100Y-98844100D02*
X155194000Y-100076000D01*
X153962100Y-97320100D02*
X153962100Y-98844100D01*
D24*
X183134000Y-82232500D02*
X183722000Y-82232500D01*
X151130000Y-111696500D02*
X152654000Y-110172500D01*
X151130000Y-112522000D02*
X151130000Y-111696500D01*
X151130000Y-115443000D02*
X152463500Y-116776500D01*
X151130000Y-112522000D02*
X151130000Y-115443000D01*
X183134000Y-92392500D02*
X183184800Y-92392500D01*
X152654000Y-100457000D02*
X152425400Y-100228400D01*
X152654000Y-100482400D02*
X152654000Y-100457000D01*
D25*
X152654000Y-100482400D02*
X152654000Y-102425500D01*
D24*
X184658000Y-90919300D02*
X184658000Y-82931000D01*
D26*
X155194000Y-87247100D02*
X155194000Y-92312500D01*
X174244000Y-108673900D02*
X174244000Y-109283500D01*
X157721300Y-92379800D02*
X157734000Y-92392500D01*
X157721300Y-87285200D02*
X157721300Y-92379800D01*
D27*
X155194000Y-94932500D02*
X155194000Y-97548700D01*
X156362400Y-98717100D02*
X155194000Y-97548700D01*
D26*
X148844000Y-82169000D02*
X148844000Y-101155500D01*
D27*
X149510750Y-103587550D02*
X150939500Y-102158800D01*
X150939500Y-96266000D02*
X151257000Y-95948500D01*
X150939500Y-102158800D02*
X150939500Y-96266000D01*
D26*
X145211800Y-107886500D02*
X146519900Y-106578400D01*
X144233900Y-107886500D02*
X145211800Y-107886500D01*
D27*
X141287500Y-107886500D02*
X144233900Y-107886500D01*
X145554700Y-96697800D02*
X146304000Y-95948500D01*
X145554700Y-105994200D02*
X145554700Y-96697800D01*
D26*
X164084000Y-91440000D02*
X166624000Y-88900000D01*
X164084000Y-110617000D02*
X164084000Y-91440000D01*
X159004000Y-110680500D02*
X159562800Y-111239300D01*
X156718000Y-96393000D02*
X156718000Y-96748600D01*
D27*
X157607000Y-97637600D02*
X156718000Y-96748600D01*
X157607000Y-99631500D02*
X157607000Y-97637600D01*
D26*
X175514000Y-88493600D02*
X175577500Y-88557100D01*
X175514000Y-84772500D02*
X175514000Y-88493600D01*
D27*
X148590000Y-112522000D02*
X148590000Y-111213900D01*
X148590000Y-111213900D02*
X148831300Y-110972600D01*
X148831300Y-110972600D02*
X148831300Y-109537500D01*
X149974300Y-105727500D02*
X149961600Y-105714800D01*
X149974300Y-106159300D02*
X149974300Y-105727500D01*
X149974300Y-106159300D02*
X149974300Y-105930700D01*
D26*
X172974000Y-89446100D02*
X173050200Y-89522300D01*
X172974000Y-84772500D02*
X172974000Y-89446100D01*
D27*
X166966900Y-99555300D02*
X166878000Y-99644200D01*
D26*
X146304000Y-107988100D02*
X146304000Y-108458000D01*
X148634450Y-105657650D02*
X146304000Y-107988100D01*
D27*
X138620500Y-95821500D02*
X138620500Y-97682518D01*
X136144000Y-95948500D02*
X136144000Y-98767900D01*
D26*
X137414000Y-90741500D02*
X137414000Y-92392500D01*
X138684000Y-89471500D02*
X137414000Y-90741500D01*
X138684000Y-83248500D02*
X138684000Y-89471500D01*
D27*
X133604000Y-96075500D02*
X133604000Y-100228400D01*
D26*
X134874000Y-90043000D02*
X134874000Y-92392500D01*
X136144000Y-88773000D02*
X134874000Y-90043000D01*
X136144000Y-83566000D02*
X136144000Y-88773000D01*
D27*
X131052300Y-123252500D02*
X131052300Y-126923800D01*
D26*
X133604000Y-84239100D02*
X133604000Y-88455500D01*
X140017500Y-102552500D02*
X140017500Y-102171500D01*
D27*
X154597100Y-98501200D02*
X156400500Y-100304600D01*
X154597100Y-96304100D02*
X154597100Y-98501200D01*
D26*
X153924000Y-95631000D02*
X154597100Y-96304100D01*
D27*
X140017500Y-101955600D02*
X140017500Y-102171500D01*
D24*
X155194000Y-84747100D02*
X155194000Y-82410300D01*
X155194000Y-82410300D02*
X160794700Y-76809600D01*
X160794700Y-76200000D02*
X160731200Y-76136500D01*
X160794700Y-76809600D02*
X160794700Y-76200000D01*
X184391300Y-117906800D02*
X190411100Y-111887000D01*
X184099200Y-117906800D02*
X184391300Y-117906800D01*
X129794000Y-82344900D02*
X129819400Y-82319500D01*
X129794000Y-84772500D02*
X129794000Y-82344900D01*
X122872500Y-82524600D02*
X123077600Y-82319500D01*
X122872500Y-84836000D02*
X122872500Y-82524600D01*
X123077600Y-82319500D02*
X129819400Y-82319500D01*
X128200150Y-86366350D02*
X129794000Y-84772500D01*
X128790700Y-96393000D02*
X128246658Y-95848958D01*
X128246658Y-95848958D02*
X128200150Y-86366350D01*
X128790700Y-100838000D02*
X128790700Y-96393000D01*
X126009400Y-104063800D02*
X125996700Y-104076500D01*
X126009400Y-101790500D02*
X126009400Y-104063800D01*
X127838200Y-101790500D02*
X128790700Y-100838000D01*
X126009400Y-101790500D02*
X127838200Y-101790500D01*
X184658000Y-92583000D02*
X184658000Y-90919300D01*
X184467500Y-92392500D02*
X184658000Y-92583000D01*
X183134000Y-92392500D02*
X184467500Y-92392500D01*
X152654000Y-104343200D02*
X152577800Y-104419400D01*
D25*
X152654000Y-102425500D02*
X152654000Y-104343200D01*
X152654000Y-104343200D02*
X152654000Y-110172500D01*
D24*
X164198300Y-116203100D02*
X164846000Y-115555400D01*
X164198300Y-119011700D02*
X164198300Y-117119400D01*
X164198300Y-117119400D02*
X164198300Y-116203100D01*
X184315100Y-81051400D02*
X183134000Y-82232500D01*
X183019700Y-109029500D02*
X183997600Y-108051600D01*
X175564800Y-104965500D02*
X179628800Y-109029500D01*
X175564800Y-104406700D02*
X175564800Y-104965500D01*
X122642000Y-82319500D02*
X118262400Y-77939900D01*
X123077600Y-82319500D02*
X122642000Y-82319500D01*
X181876700Y-109029500D02*
X183019700Y-109029500D01*
X158750000Y-114782600D02*
X158750000Y-112522000D01*
X161086800Y-117119400D02*
X158750000Y-114782600D01*
X164198300Y-117119400D02*
X161086800Y-117119400D01*
X187401200Y-81051400D02*
X184315100Y-81051400D01*
X178193700Y-75971400D02*
X183134000Y-80911700D01*
X178193700Y-72898000D02*
X178193700Y-75971400D01*
D25*
X183134000Y-82232500D02*
X183134000Y-80911700D01*
D24*
X184467500Y-92392500D02*
X185432700Y-92392500D01*
X187439300Y-94399100D02*
X187439300Y-96545400D01*
X185432700Y-92392500D02*
X187439300Y-94399100D01*
X187439300Y-96545400D02*
X187439300Y-97167700D01*
X190246000Y-99974400D02*
X190246000Y-101612700D01*
X187439300Y-97167700D02*
X190246000Y-99974400D01*
X183997600Y-108051600D02*
X190919100Y-108051600D01*
X190919100Y-108051600D02*
X191528700Y-107442000D01*
X191528700Y-101257100D02*
X190246000Y-99974400D01*
X191528700Y-107442000D02*
X191528700Y-101257100D01*
X181559200Y-109143800D02*
X181444900Y-109029500D01*
X181559200Y-117906800D02*
X181559200Y-109143800D01*
X181444900Y-109029500D02*
X181876700Y-109029500D01*
X179628800Y-109029500D02*
X181444900Y-109029500D01*
X180467000Y-118999000D02*
X181559200Y-117906800D01*
X172986700Y-118999000D02*
X180467000Y-118999000D01*
X172974000Y-119011700D02*
X172986700Y-118999000D01*
X120370600Y-73202800D02*
X118999000Y-73202800D01*
X118262400Y-73939400D02*
X118262400Y-77939900D01*
X118999000Y-73202800D02*
X118262400Y-73939400D01*
D27*
X118681500Y-96329500D02*
X120015000Y-94996000D01*
X118681500Y-97472500D02*
X118681500Y-96329500D01*
X125691900Y-96621600D02*
X125691900Y-94996000D01*
X124663200Y-99453700D02*
X124663200Y-97650300D01*
X124663200Y-97650300D02*
X125691900Y-96621600D01*
X123964700Y-100152200D02*
X124663200Y-99453700D01*
X123964700Y-109334300D02*
X123964700Y-100152200D01*
X121475500Y-111823500D02*
X123964700Y-109334300D01*
X130810000Y-98399600D02*
X130810000Y-100838000D01*
D26*
X130810000Y-105448100D02*
X125996700Y-110261400D01*
X130810000Y-100838000D02*
X130810000Y-105448100D01*
D27*
X125996700Y-110261400D02*
X125996700Y-114236500D01*
X121475500Y-96393000D02*
X122872500Y-94996000D01*
X121475500Y-99250500D02*
X121475500Y-96393000D01*
X148844000Y-101409500D02*
X148844000Y-101155500D01*
X148844000Y-102412800D02*
X148844000Y-101409500D01*
X147815300Y-103441500D02*
X148844000Y-102412800D01*
X146799300Y-104546400D02*
X147815300Y-103441500D01*
D26*
X146519900Y-106578400D02*
X149510750Y-103587550D01*
X174433500Y-73711800D02*
X166624000Y-81521300D01*
X174433500Y-70332600D02*
X174433500Y-73711800D01*
X166624000Y-88900000D02*
X166624000Y-81521300D01*
D27*
X167881300Y-111975900D02*
X167881300Y-115671600D01*
X167297100Y-111391700D02*
X167881300Y-111975900D01*
X164503100Y-111391700D02*
X167297100Y-111391700D01*
X164084000Y-110972600D02*
X164503100Y-111391700D01*
X164084000Y-110617000D02*
X164084000Y-110972600D01*
X172440600Y-120230900D02*
X173431200Y-120230900D01*
X167881300Y-115671600D02*
X172440600Y-120230900D01*
X174612300Y-121412000D02*
X174612300Y-121907300D01*
X173431200Y-120230900D02*
X174612300Y-121412000D01*
D26*
X170473500Y-76097000D02*
X165290500Y-81280000D01*
X170473500Y-70332600D02*
X170473500Y-76097000D01*
X165290500Y-81280000D02*
X165290500Y-84709000D01*
X165290500Y-81153000D02*
X165290500Y-81280000D01*
D27*
X170652300Y-122024000D02*
X170652300Y-122138300D01*
X170652300Y-119636400D02*
X170652300Y-122024000D01*
X167068500Y-116052600D02*
X170652300Y-119636400D01*
X167068500Y-112458500D02*
X167068500Y-116052600D01*
X166433500Y-111823500D02*
X167068500Y-112458500D01*
X164109400Y-111823500D02*
X166433500Y-111823500D01*
X163677600Y-111391700D02*
X164109400Y-111823500D01*
X161785300Y-111391700D02*
X163677600Y-111391700D01*
X161607500Y-111213900D02*
X161785300Y-111391700D01*
X161607500Y-110617000D02*
X161607500Y-111213900D01*
D26*
X159004000Y-90868500D02*
X159004000Y-88671400D01*
X159004000Y-88773000D02*
X159004000Y-90868500D01*
X159004000Y-90868500D02*
X159004000Y-110680500D01*
X159004000Y-88671400D02*
X161518600Y-86156800D01*
X161518600Y-86156800D02*
X161518600Y-81610200D01*
X166513500Y-76615300D02*
X166513500Y-70332600D01*
X161518600Y-81610200D02*
X166513500Y-76615300D01*
D27*
X160235900Y-111391700D02*
X160058100Y-111391700D01*
X160693100Y-111848900D02*
X160235900Y-111391700D01*
X163461700Y-112356900D02*
X162953700Y-111848900D01*
X163461700Y-113766600D02*
X163461700Y-112356900D01*
X159905700Y-111239300D02*
X159562800Y-111239300D01*
X164007800Y-114312700D02*
X163461700Y-113766600D01*
X162953700Y-111848900D02*
X160693100Y-111848900D01*
X165785800Y-114312700D02*
X164007800Y-114312700D01*
X166357300Y-114884200D02*
X165785800Y-114312700D01*
X160058100Y-111391700D02*
X159905700Y-111239300D01*
X166357300Y-116370100D02*
X166357300Y-114884200D01*
X166692300Y-116705100D02*
X166357300Y-116370100D01*
X166692300Y-126923800D02*
X166692300Y-116705100D01*
D26*
X156464000Y-83464400D02*
X156464000Y-83019900D01*
X156464000Y-82931000D02*
X156464000Y-83464400D01*
X156464000Y-83464400D02*
X156464000Y-94424500D01*
X162553500Y-76930400D02*
X162553500Y-70332600D01*
X156464000Y-83019900D02*
X162553500Y-76930400D01*
D27*
X176618900Y-96964500D02*
X176618900Y-96024700D01*
X176618900Y-96024700D02*
X176822100Y-95821500D01*
X176822100Y-95821500D02*
X176822100Y-94297500D01*
X176822100Y-94297500D02*
X177457100Y-93662500D01*
X178689000Y-93662500D02*
X179324000Y-93027500D01*
X177457100Y-93662500D02*
X178689000Y-93662500D01*
D26*
X179324000Y-93027500D02*
X179324000Y-86042500D01*
X157480000Y-113715800D02*
X157480000Y-111887000D01*
D27*
X162732300Y-120301600D02*
X162732300Y-126923800D01*
X157480000Y-115049300D02*
X162732300Y-120301600D01*
X157480000Y-113715800D02*
X157480000Y-115049300D01*
X158593500Y-77372500D02*
X158432500Y-77533500D01*
X158593500Y-70332600D02*
X158593500Y-77372500D01*
X179768500Y-95707200D02*
X180530500Y-94945200D01*
X179768500Y-95707200D02*
X179755800Y-95707200D01*
X178181000Y-100774500D02*
X178181000Y-97282000D01*
X178168300Y-100787200D02*
X178181000Y-100774500D01*
X179755800Y-95707200D02*
X178181000Y-97282000D01*
X148590000Y-115328700D02*
X151396700Y-118135400D01*
X148590000Y-112522000D02*
X148590000Y-115328700D01*
X158264300Y-121434300D02*
X157908700Y-121434300D01*
X157908700Y-121434300D02*
X157480000Y-121005600D01*
X157480000Y-119456200D02*
X156159200Y-118135400D01*
X157480000Y-121005600D02*
X157480000Y-119456200D01*
D26*
X148831300Y-109537500D02*
X148831300Y-108610400D01*
X149961600Y-105714800D02*
X149936200Y-105714800D01*
X149447250Y-106203750D02*
X149447250Y-107994450D01*
X149936200Y-105714800D02*
X149447250Y-106203750D01*
X148831300Y-108610400D02*
X149447250Y-107994450D01*
D27*
X154633500Y-77509800D02*
X154609800Y-77533500D01*
X154633500Y-70332600D02*
X154633500Y-77509800D01*
D26*
X181965600Y-95275400D02*
X181965600Y-93954600D01*
D27*
X180759100Y-107079042D02*
X180319942Y-107518200D01*
X180759100Y-96481900D02*
X180759100Y-107079042D01*
X181965600Y-95275400D02*
X180759100Y-96481900D01*
X154812300Y-116789900D02*
X156210000Y-115392200D01*
X154812300Y-121831800D02*
X154812300Y-116789900D01*
D26*
X156210000Y-112522000D02*
X156210000Y-115392200D01*
D27*
X150673500Y-77545500D02*
X150660100Y-77558900D01*
X150673500Y-77507400D02*
X150673500Y-77545500D01*
X150673500Y-70332600D02*
X150673500Y-77507400D01*
D26*
X169164000Y-89535000D02*
X169164000Y-99644200D01*
D27*
X150852300Y-122667600D02*
X150852300Y-126923800D01*
X152412700Y-121107200D02*
X150852300Y-122667600D01*
D26*
X153670000Y-115887500D02*
X153670000Y-112522000D01*
D27*
X153670000Y-118059200D02*
X152412700Y-119316500D01*
X153670000Y-115887500D02*
X153670000Y-118059200D01*
X152412700Y-119316500D02*
X152412700Y-121107200D01*
X146892300Y-126923800D02*
X146892300Y-123270300D01*
X146892300Y-123270300D02*
X144818100Y-121196100D01*
X144818100Y-113753900D02*
X146050000Y-112522000D01*
X144818100Y-121196100D02*
X144818100Y-113753900D01*
X166878000Y-99644200D02*
X166878000Y-103187500D01*
D26*
X148634450Y-105657650D02*
X148634450Y-105632250D01*
X150088600Y-104178100D02*
X150583900Y-104178100D01*
X148634450Y-105632250D02*
X150088600Y-104178100D01*
D27*
X146713500Y-75644300D02*
X148678900Y-77609700D01*
X146713500Y-70332600D02*
X146713500Y-75060100D01*
X146713500Y-75060100D02*
X146713500Y-75644300D01*
X142753500Y-81147500D02*
X141224000Y-82677000D01*
X142753500Y-70332600D02*
X142753500Y-81147500D01*
X142932300Y-122396400D02*
X142932300Y-126923800D01*
X142817850Y-122281950D02*
X142932300Y-122396400D01*
D26*
X142817850Y-121685050D02*
X142817850Y-122281950D01*
X141897100Y-120764300D02*
X142817850Y-121685050D01*
X141897100Y-116827300D02*
X141897100Y-120764300D01*
X138722100Y-113652300D02*
X141897100Y-116827300D01*
X138722100Y-109626400D02*
X138722100Y-113652300D01*
X138620500Y-109524800D02*
X138722100Y-109626400D01*
X138620500Y-97682518D02*
X138620500Y-109524800D01*
D27*
X138793500Y-83139000D02*
X138684000Y-83248500D01*
X138793500Y-70332600D02*
X138793500Y-83139000D01*
X138972300Y-121801900D02*
X138972300Y-126923800D01*
X134747000Y-120142000D02*
X134759700Y-120142000D01*
X135337550Y-120719850D02*
X137890250Y-120719850D01*
X134759700Y-120142000D02*
X135337550Y-120719850D01*
X137890250Y-120719850D02*
X138972300Y-121801900D01*
D26*
X136144000Y-98767900D02*
X136144000Y-111963200D01*
X136144000Y-111963200D02*
X133375400Y-114731800D01*
X133375400Y-118656100D02*
X133318250Y-118713250D01*
X133375400Y-114731800D02*
X133375400Y-118656100D01*
D27*
X134747000Y-120142000D02*
X133318250Y-118713250D01*
X136144000Y-77144600D02*
X134833500Y-75834100D01*
X136144000Y-83566000D02*
X136144000Y-77144600D01*
X134833500Y-70332600D02*
X134833500Y-75834100D01*
D26*
X135012300Y-126923800D02*
X135012300Y-122198000D01*
X134334250Y-121519950D02*
X135012300Y-122198000D01*
X134200900Y-121386600D02*
X134334250Y-121519950D01*
X133604000Y-112217200D02*
X133604000Y-100228400D01*
X133604000Y-113118900D02*
X133604000Y-112217200D01*
X132613400Y-114109500D02*
X133604000Y-113118900D01*
X132613400Y-119799100D02*
X132613400Y-114109500D01*
X134334250Y-121519950D02*
X132613400Y-119799100D01*
D27*
X130873500Y-75323700D02*
X130873500Y-70332600D01*
X133604000Y-78054200D02*
X130873500Y-75323700D01*
X133604000Y-84239100D02*
X133604000Y-78054200D01*
X131080328Y-95665472D02*
X131080328Y-96345828D01*
D26*
X131127500Y-94297500D02*
X131080328Y-95665472D01*
X131080328Y-95665472D02*
X131064000Y-96139000D01*
D27*
X131080328Y-96345828D02*
X131889500Y-97155000D01*
X131889500Y-97155000D02*
X131889500Y-100990400D01*
X131052300Y-126923800D02*
X131052300Y-121487200D01*
D26*
X131889500Y-100990400D02*
X131889500Y-108026200D01*
X131889500Y-108026200D02*
X131051300Y-108864400D01*
X131051300Y-126922800D02*
X131052300Y-126923800D01*
X131051300Y-108864400D02*
X131051300Y-126922800D01*
X156400500Y-101663500D02*
X156400500Y-100304600D01*
D27*
X178879500Y-103174800D02*
X178917600Y-103136700D01*
X178879500Y-105765600D02*
X178879500Y-103174800D01*
X176695100Y-113842800D02*
X176695100Y-116065300D01*
X179216050Y-111499650D02*
X179616100Y-111099600D01*
X179038250Y-111499650D02*
X179216050Y-111499650D01*
X179038250Y-111499650D02*
X176695100Y-113842800D01*
X181889400Y-107619800D02*
X182340250Y-107168950D01*
X181889400Y-107810300D02*
X181889400Y-107619800D01*
X182340250Y-107168950D02*
X183997600Y-105511600D01*
X182270400Y-107238800D02*
X182340250Y-107168950D01*
D26*
X175171100Y-117589300D02*
X176695100Y-116065300D01*
D27*
X187706000Y-101612700D02*
X188226700Y-101612700D01*
X184073800Y-105435400D02*
X183997600Y-105511600D01*
X188391800Y-105435400D02*
X184073800Y-105435400D01*
D26*
X188722000Y-105105200D02*
X188391800Y-105435400D01*
X188722000Y-102108000D02*
X188722000Y-105105200D01*
D27*
X188226700Y-101612700D02*
X188722000Y-102108000D01*
X147574000Y-108077000D02*
X147574000Y-108292900D01*
X148069300Y-107581700D02*
X147574000Y-108077000D01*
D26*
X147574000Y-110172500D02*
X147574000Y-108292900D01*
D27*
X183997600Y-100431600D02*
X185293000Y-100431600D01*
X185293000Y-100431600D02*
X185864500Y-101003100D01*
X185864500Y-101003100D02*
X185915300Y-101003100D01*
X185864500Y-101003100D02*
X185864500Y-103428800D01*
X186588400Y-104152700D02*
X187706000Y-104152700D01*
X185864500Y-103428800D02*
X186588400Y-104152700D01*
D26*
X151066500Y-108140500D02*
X150114000Y-109093000D01*
X150952200Y-107861100D02*
X151066500Y-108140500D01*
X150114000Y-109093000D02*
X150114000Y-110172500D01*
D27*
X181800500Y-96774000D02*
X181800500Y-105473500D01*
X182803800Y-95770700D02*
X181800500Y-96774000D01*
X185356500Y-95770700D02*
X182803800Y-95770700D01*
D26*
X162814000Y-100647500D02*
X162814000Y-110172500D01*
X162839400Y-98412300D02*
X162814000Y-100647500D01*
X124269500Y-93129100D02*
X120015000Y-88874600D01*
X124269500Y-94284800D02*
X124269500Y-93129100D01*
X120015000Y-88874600D02*
X120015000Y-84836000D01*
D27*
X124269500Y-95948500D02*
X124269500Y-95732600D01*
X124269500Y-95732600D02*
X124269500Y-94284800D01*
X124269500Y-96520000D02*
X124269500Y-95732600D01*
X124282200Y-96532700D02*
X124269500Y-96520000D01*
D26*
X165354000Y-104203500D02*
X165354000Y-110172500D01*
X165354000Y-99631500D02*
X165354000Y-104203500D01*
D27*
X125691900Y-91516200D02*
X125691900Y-84836000D01*
X127076200Y-92900500D02*
X125691900Y-91516200D01*
X127076200Y-92900500D02*
X127114300Y-92900500D01*
X127114300Y-92900500D02*
X127546100Y-93332300D01*
X127546100Y-93332300D02*
X127546100Y-98501200D01*
X167894000Y-97688400D02*
X166624000Y-96418400D01*
X167894000Y-110172500D02*
X167894000Y-97688400D01*
D26*
X166624000Y-93472000D02*
X166624000Y-96418400D01*
D27*
X129794000Y-94932500D02*
X129794000Y-94780100D01*
X129794000Y-94780100D02*
X131127500Y-93446600D01*
X131127500Y-93446600D02*
X131127500Y-89611200D01*
X132334000Y-88404700D02*
X132334000Y-87058500D01*
X131127500Y-89611200D02*
X132334000Y-88404700D01*
D26*
X147574000Y-101155500D02*
X147574000Y-100901500D01*
X147535900Y-102158800D02*
X147574000Y-101155500D01*
X147574000Y-100901500D02*
X147574000Y-94932500D01*
M02*
