M48
; DRILL file {KiCad (5.1.9)-1} date 05/14/21 21:12:10
; FORMAT={-:-/ absolute / inch / decimal}
; #@! TF.CreationDate,2021-05-14T21:12:10-04:00
; #@! TF.GenerationSoftware,Kicad,Pcbnew,(5.1.9)-1
FMAT,2
INCH
T1C0.0157
T2C0.0315
T3C0.0354
T4C0.0394
T5C0.0630
%
G90
G05
T1
X4.893Y-3.8005
X5.0215Y-3.878
X5.15Y-3.874
X5.5125Y-4.014
X5.5625Y-4.2475
X5.6075Y-4.1425
X5.61Y-3.43
X5.6725Y-4.1725
X5.7075Y-3.4875
X5.7305Y-4.173
X5.7795Y-4.116
X5.805Y-3.485
X5.805Y-3.485
X5.8085Y-4.022
X5.8295Y-4.2355
X5.8535Y-3.0555
X5.86Y-3.235
X5.9Y-3.4875
X5.904Y-4.162
X5.9285Y-4.1015
X5.9315Y-3.0535
X5.943Y-4.2465
X5.9605Y-4.651
X6.0575Y-3.54
X6.065Y-3.9625
X6.087Y-3.0525
X6.11Y-3.6344
X6.148Y-4.651
X6.156Y-3.8865
X6.1575Y-4.0025
X6.17Y-3.809
X6.21Y-3.6375
X6.2375Y-3.0525
X6.32Y-3.5475
X6.411Y-3.8745
X6.51Y-3.9225
X6.57Y-4.0625
X6.5735Y-3.9195
X6.6175Y-3.5125
X6.66Y-3.923
X6.72Y-3.53
X6.7575Y-3.7975
X6.813Y-3.5245
X6.86Y-4.2785
X6.8965Y-4.6295
X6.9125Y-3.4865
X6.9535Y-3.8175
X7.0145Y-3.968
X7.0425Y-4.164
X7.044Y-4.0605
X7.0715Y-4.374
X7.0992Y-4.233
X7.1075Y-3.738
X7.1575Y-4.1525
X7.161Y-4.2445
X7.164Y-3.699
X7.21Y-3.565
X7.2975Y-3.7705
T2
X4.725Y-3.34
X4.725Y-3.74
X4.8375Y-3.34
X4.8375Y-3.74
X4.9485Y-3.34
X4.9485Y-3.74
X4.9605Y-4.0975
X4.9605Y-4.4975
X4.961Y-3.9091
X4.961Y-4.0075
X5.0705Y-3.97
X5.11Y-3.3375
X5.11Y-3.6375
X5.11Y-3.7375
X5.11Y-4.3375
X5.111Y-3.1425
X5.111Y-3.2409
X5.21Y-3.3375
X5.21Y-3.6375
X5.21Y-3.7375
X5.21Y-4.3375
X5.31Y-3.3375
X5.31Y-3.6375
X5.31Y-3.7375
X5.31Y-4.3375
X5.41Y-3.3375
X5.41Y-3.6375
X5.41Y-3.7375
X5.41Y-4.3375
X5.51Y-3.3375
X5.51Y-3.6375
X5.51Y-3.7375
X5.51Y-4.3375
X5.61Y-3.3375
X5.61Y-3.6375
X5.61Y-3.7375
X5.61Y-4.3375
X5.65Y-4.43
X5.65Y-4.73
X5.71Y-3.3375
X5.71Y-3.6375
X5.71Y-3.7375
X5.71Y-4.3375
X5.75Y-4.43
X5.75Y-4.73
X5.81Y-3.3375
X5.81Y-3.6375
X5.81Y-3.7375
X5.81Y-4.3375
X5.85Y-4.43
X5.85Y-4.73
X5.91Y-3.3375
X5.91Y-3.6375
X5.91Y-3.7375
X5.91Y-4.3375
X5.95Y-4.43
X5.95Y-4.73
X6.001Y-3.946
X6.0025Y-4.5975
X6.007Y-4.111
X6.01Y-3.3375
X6.01Y-3.6375
X6.01Y-3.7375
X6.01Y-4.3375
X6.05Y-4.43
X6.05Y-4.73
X6.11Y-3.3365
X6.11Y-3.4349
X6.11Y-3.7375
X6.11Y-4.3375
X6.15Y-4.43
X6.15Y-4.73
X6.2095Y-3.338
X6.2095Y-3.4364
X6.21Y-3.7375
X6.21Y-4.3375
X6.25Y-4.43
X6.25Y-4.73
X6.31Y-3.3375
X6.31Y-3.6375
X6.31Y-3.7375
X6.31Y-4.3375
X6.328Y-2.9975
X6.38Y-4.4525
X6.38Y-4.5509
X6.41Y-3.3375
X6.41Y-3.6375
X6.41Y-3.7375
X6.41Y-4.3375
X6.4645Y-4.6855
X6.49Y-4.451
X6.49Y-4.5494
X6.51Y-3.3375
X6.51Y-3.6375
X6.51Y-3.7375
X6.51Y-4.3375
X6.61Y-3.2375
X6.61Y-3.3375
X6.61Y-3.6375
X6.61Y-3.7375
X6.61Y-4.3375
X6.6725Y-4.52
X6.71Y-3.2375
X6.71Y-3.3375
X6.71Y-3.6375
X6.71Y-3.7375
X6.71Y-4.3375
X6.81Y-3.2375
X6.81Y-3.3375
X6.81Y-3.6375
X6.81Y-3.7375
X6.81Y-4.3375
X6.81Y-4.6855
X6.8646Y-4.52
X6.91Y-3.2375
X6.91Y-3.3375
X6.91Y-3.6375
X6.91Y-3.7375
X6.91Y-4.3375
X6.912Y-4.1105
X7.01Y-3.2375
X7.01Y-3.3375
X7.01Y-3.6375
X7.01Y-3.7375
X7.01Y-4.3375
X7.053Y-4.453
X7.053Y-4.5514
X7.11Y-3.2375
X7.11Y-3.3375
X7.11Y-3.6375
X7.205Y-4.453
X7.21Y-3.2375
X7.21Y-3.3375
X7.21Y-3.6375
X7.378Y-3.191
X7.3795Y-3.401
X7.3795Y-3.801
X7.4764Y-3.191
X7.484Y-3.4005
X7.484Y-3.8005
T3
X4.7815Y-4.0975
X4.7815Y-4.1975
X4.7815Y-4.3615
X4.7815Y-4.4615
X4.782Y-3.8385
X4.782Y-3.9385
T4
X4.739Y-2.882
X4.739Y-2.982
X7.148Y-4.642
X7.244Y-3.854
X7.244Y-3.954
X7.244Y-4.054
X7.244Y-4.154
X7.244Y-4.254
X7.244Y-4.354
X7.248Y-4.642
X7.3785Y-4.0
X7.3785Y-4.1
X7.3785Y-4.2
X7.4785Y-4.0
X7.4785Y-4.1
X7.4785Y-4.2
X7.4965Y-4.405
X7.4965Y-4.5822
T5
X7.3981Y-4.3361
X7.3981Y-4.6511
T4
G00X7.0155Y-2.9094
M15
G01X7.0155Y-2.8306
M16
G05
G00X7.173Y-2.685
M15
G01X7.0942Y-2.685
M16
G05
G00X7.2517Y-2.9094
M15
G01X7.2517Y-2.8306
M16
G05
T0
M30
