G04 #@! TF.GenerationSoftware,KiCad,Pcbnew,8.0.4*
G04 #@! TF.CreationDate,2024-07-27T17:05:36-04:00*
G04 #@! TF.ProjectId,CBM-SD,43424d2d-5344-42e6-9b69-6361645f7063,rev?*
G04 #@! TF.SameCoordinates,Original*
G04 #@! TF.FileFunction,Profile,NP*
%FSLAX46Y46*%
G04 Gerber Fmt 4.6, Leading zero omitted, Abs format (unit mm)*
G04 Created by KiCad (PCBNEW 8.0.4) date 2024-07-27 17:05:36*
%MOMM*%
%LPD*%
G01*
G04 APERTURE LIST*
G04 #@! TA.AperFunction,Profile*
%ADD10C,0.200660*%
G04 #@! TD*
G04 APERTURE END LIST*
D10*
X192151000Y-65786000D02*
X192151000Y-114109500D01*
X192151000Y-114109500D02*
X192151000Y-120142000D01*
X129400300Y-131432300D02*
X135051800Y-131432300D01*
X177152300Y-130035300D02*
X177152300Y-120192800D01*
X138925300Y-131432300D02*
X162801300Y-131432300D01*
X166674800Y-131432300D02*
X175755300Y-131432300D01*
X165277800Y-130035300D02*
X165277800Y-122351800D01*
X136448800Y-122415300D02*
X136448800Y-130035300D01*
X138925300Y-131432300D02*
G75*
G02*
X137528300Y-130035300I0J1397000D01*
G01*
X165277800Y-122351800D02*
X164198300Y-122351800D01*
X136448800Y-130035300D02*
G75*
G02*
X135051800Y-131432300I-1397000J0D01*
G01*
X136448800Y-122415300D02*
X137528300Y-122415300D01*
X164198300Y-122351800D02*
X164198300Y-130035300D01*
X177152300Y-130035300D02*
G75*
G02*
X175755300Y-131432300I-1397000J0D01*
G01*
X164198300Y-130035300D02*
G75*
G02*
X162801300Y-131432300I-1397000J0D01*
G01*
X137528300Y-130035300D02*
X137528300Y-122415300D01*
X166674800Y-131432300D02*
G75*
G02*
X165277800Y-130035300I0J1397000D01*
G01*
X129400300Y-131432300D02*
G75*
G02*
X128003300Y-130035300I0J1397000D01*
G01*
X177152300Y-120142000D02*
X177152300Y-120192800D01*
X117221000Y-120230900D02*
X117221000Y-65786000D01*
X192151000Y-65786000D02*
X117221000Y-65786000D01*
X192151000Y-120142000D02*
X181165500Y-120142000D01*
X121762228Y-68675000D02*
G75*
G02*
X118387772Y-68675000I-1687228J0D01*
G01*
X118387772Y-68675000D02*
G75*
G02*
X121762228Y-68675000I1687228J0D01*
G01*
X121762228Y-117348000D02*
G75*
G02*
X118387772Y-117348000I-1687228J0D01*
G01*
X118387772Y-117348000D02*
G75*
G02*
X121762228Y-117348000I1687228J0D01*
G01*
X128003300Y-120230900D02*
X117221000Y-120230900D01*
X127798228Y-117348000D02*
G75*
G02*
X124423772Y-117348000I-1687228J0D01*
G01*
X124423772Y-117348000D02*
G75*
G02*
X127798228Y-117348000I1687228J0D01*
G01*
X137450228Y-113919000D02*
G75*
G02*
X134075772Y-113919000I-1687228J0D01*
G01*
X134075772Y-113919000D02*
G75*
G02*
X137450228Y-113919000I1687228J0D01*
G01*
X181165500Y-120142000D02*
X177152300Y-120142000D01*
X128003300Y-130035300D02*
X128003300Y-120230900D01*
X190887228Y-68625000D02*
G75*
G02*
X187512772Y-68625000I-1687228J0D01*
G01*
X187512772Y-68625000D02*
G75*
G02*
X190887228Y-68625000I1687228J0D01*
G01*
X190887228Y-117348000D02*
G75*
G02*
X187512772Y-117348000I-1687228J0D01*
G01*
X187512772Y-117348000D02*
G75*
G02*
X190887228Y-117348000I1687228J0D01*
G01*
M02*
