M48
; DRILL file {KiCad 8.0.4} date 2024-07-27T17:05:40-0400
; FORMAT={-:-/ absolute / inch / decimal}
; #@! TF.CreationDate,2024-07-27T17:05:40-04:00
; #@! TF.GenerationSoftware,Kicad,Pcbnew,8.0.4
; #@! TF.FileFunction,Plated,1,2,PTH
FMAT,2
INCH
; #@! TA.AperFunction,Plated,PTH,ViaDrill
T1C0.0157
; #@! TA.AperFunction,Plated,PTH,ViaDrill
T2C0.0315
; #@! TA.AperFunction,Plated,PTH,ComponentDrill
T3C0.0315
; #@! TA.AperFunction,Plated,PTH,ComponentDrill
T4C0.0354
; #@! TA.AperFunction,Plated,PTH,ComponentDrill
T5C0.0394
; #@! TA.AperFunction,Plated,PTH,ComponentDrill
T6C0.0433
; #@! TA.AperFunction,Plated,PTH,ComponentDrill
T7C0.0512
%
G90
G05
T1
X4.98Y-3.83
X5.0215Y-3.878
X5.1486Y-4.1526
X5.15Y-3.874
X5.202Y-4.434
X5.324Y-4.1785
X5.5125Y-4.014
X5.5485Y-4.1425
X5.565Y-4.45
X5.61Y-3.43
X5.622Y-4.1437
X5.666Y-4.224
X5.7075Y-3.4875
X5.7575Y-4.3975
X5.805Y-3.485
X5.8085Y-4.022
X5.825Y-2.995
X5.8597Y-3.2
X5.8656Y-4.1324
X5.9Y-3.4875
X5.9144Y-4.2087
X5.9285Y-4.1015
X5.965Y-3.0425
X6.0575Y-3.54
X6.065Y-3.9625
X6.0896Y-3.0425
X6.11Y-3.6344
X6.156Y-3.8865
X6.1575Y-4.0025
X6.17Y-3.809
X6.1775Y-4.4975
X6.21Y-3.6375
X6.255Y-3.0425
X6.32Y-3.5475
X6.411Y-3.8745
X6.51Y-3.9225
X6.55Y-3.485
X6.57Y-4.0625
X6.5735Y-3.9195
X6.66Y-3.923
X6.72Y-3.53
X6.7575Y-3.7975
X6.813Y-3.5245
X6.83Y-4.47
X6.9125Y-3.4865
X6.9535Y-3.8175
X7.1075Y-3.738
X7.135Y-3.526
X7.1519Y-4.1953
X7.21Y-3.535
X7.31Y-4.0059
X7.3219Y-3.7579
T2
X5.0705Y-3.97
X6.001Y-3.946
X6.007Y-4.111
X6.328Y-2.9975
X6.912Y-4.1105
X6.945Y-4.645
T3
X4.7Y-3.21
X4.7Y-3.61
X4.8108Y-3.12
X4.82Y-3.21
X4.82Y-3.61
X4.9092Y-3.12
X4.94Y-3.21
X4.94Y-3.61
X4.9605Y-4.0975
X4.9605Y-4.4975
X4.961Y-3.9091
X4.961Y-4.0075
X5.11Y-3.3375
X5.11Y-3.6375
X5.11Y-3.7375
X5.11Y-4.3375
X5.21Y-3.3375
X5.21Y-3.6375
X5.21Y-3.7375
X5.21Y-4.3375
X5.31Y-3.3375
X5.31Y-3.6375
X5.31Y-3.7375
X5.31Y-4.3375
X5.41Y-3.3375
X5.41Y-3.6375
X5.41Y-3.7375
X5.41Y-4.3375
X5.51Y-3.3375
X5.51Y-3.6375
X5.51Y-3.7375
X5.51Y-4.3375
X5.61Y-3.3375
X5.61Y-3.6375
X5.61Y-3.7375
X5.61Y-4.3375
X5.71Y-3.3375
X5.71Y-3.6375
X5.71Y-3.7375
X5.71Y-4.3375
X5.81Y-3.3375
X5.81Y-3.6375
X5.81Y-3.7375
X5.81Y-4.3375
X5.91Y-3.3375
X5.91Y-3.6375
X5.91Y-3.7375
X5.91Y-4.3375
X6.01Y-3.3375
X6.01Y-3.6375
X6.01Y-3.7375
X6.01Y-4.3375
X6.01Y-4.445
X6.1084Y-4.445
X6.11Y-3.7375
X6.11Y-4.3375
X6.1211Y-3.2451
X6.1211Y-3.3435
X6.1929Y-3.4272
X6.1929Y-3.5256
X6.21Y-3.7375
X6.21Y-4.3375
X6.31Y-3.3375
X6.31Y-3.6375
X6.31Y-3.7375
X6.31Y-4.3375
X6.41Y-3.3375
X6.41Y-3.6375
X6.41Y-3.7375
X6.41Y-4.3375
X6.51Y-3.3375
X6.51Y-3.6375
X6.51Y-3.7375
X6.51Y-4.3375
X6.61Y-3.2375
X6.61Y-3.3375
X6.61Y-3.6375
X6.61Y-3.7375
X6.61Y-4.3375
X6.71Y-3.2375
X6.71Y-3.3375
X6.71Y-3.6375
X6.71Y-3.7375
X6.71Y-4.3375
X6.81Y-3.2375
X6.81Y-3.3375
X6.81Y-3.6375
X6.81Y-3.7375
X6.81Y-4.3375
X6.91Y-3.2375
X6.91Y-3.3375
X6.91Y-3.6375
X6.91Y-3.7375
X6.91Y-4.3375
X6.9516Y-4.46
X7.01Y-3.2375
X7.01Y-3.3375
X7.01Y-3.6375
X7.01Y-3.7375
X7.01Y-4.3375
X7.0379Y-4.625
X7.05Y-4.46
X7.11Y-3.2375
X7.11Y-3.3375
X7.11Y-3.6375
X7.21Y-3.2375
X7.21Y-3.3375
X7.21Y-3.6375
X7.23Y-4.625
X7.37Y-3.56
X7.37Y-3.96
X7.3734Y-3.35
X7.3766Y-4.485
X7.4719Y-3.35
X7.475Y-4.485
X7.484Y-3.56
X7.484Y-3.96
T4
X4.7815Y-4.0975
X4.7815Y-4.1975
X4.7815Y-4.3615
X4.7815Y-4.4615
X4.782Y-3.8385
X4.782Y-3.9385
T5
X4.917Y-2.879
X4.917Y-2.979
X5.16Y-3.15
X5.26Y-3.15
X5.36Y-3.15
X5.46Y-3.15
X5.56Y-3.15
X5.66Y-3.15
X7.244Y-3.854
X7.244Y-3.954
X7.244Y-4.054
X7.244Y-4.154
X7.244Y-4.254
X7.244Y-4.354
X7.4744Y-4.1396
X7.4744Y-4.3168
T6
X5.11Y-4.6011
X5.11Y-4.735
X5.2659Y-4.6011
X5.2659Y-4.735
X5.4218Y-4.6011
X5.4218Y-4.735
X5.5777Y-4.6011
X5.5777Y-4.735
X5.7336Y-4.6011
X5.7336Y-4.735
X5.8895Y-4.6011
X5.8895Y-4.735
X6.0455Y-4.6011
X6.0455Y-4.735
X6.2014Y-4.6011
X6.2014Y-4.735
X6.3573Y-4.6011
X6.3573Y-4.735
X6.5132Y-4.6011
X6.5132Y-4.735
X6.6691Y-4.6011
X6.6691Y-4.735
X6.825Y-4.6011
X6.825Y-4.735
T7
X7.376Y-4.0904
X7.376Y-4.366
T5
G00X7.0938Y-3.0271
M15
G01X7.0938Y-2.9483
M16
G05
G00X7.2513Y-2.8027
M15
G01X7.1725Y-2.8027
M16
G05
G00X7.33Y-3.0271
M15
G01X7.33Y-2.9483
M16
G05
M30
