G04 #@! TF.GenerationSoftware,KiCad,Pcbnew,8.0.4*
G04 #@! TF.CreationDate,2024-07-27T17:05:36-04:00*
G04 #@! TF.ProjectId,CBM-SD,43424d2d-5344-42e6-9b69-6361645f7063,rev?*
G04 #@! TF.SameCoordinates,Original*
G04 #@! TF.FileFunction,Copper,L2,Bot*
G04 #@! TF.FilePolarity,Positive*
%FSLAX46Y46*%
G04 Gerber Fmt 4.6, Leading zero omitted, Abs format (unit mm)*
G04 Created by KiCad (PCBNEW 8.0.4) date 2024-07-27 17:05:36*
%MOMM*%
%LPD*%
G01*
G04 APERTURE LIST*
G04 Aperture macros list*
%AMRoundRect*
0 Rectangle with rounded corners*
0 $1 Rounding radius*
0 $2 $3 $4 $5 $6 $7 $8 $9 X,Y pos of 4 corners*
0 Add a 4 corners polygon primitive as box body*
4,1,4,$2,$3,$4,$5,$6,$7,$8,$9,$2,$3,0*
0 Add four circle primitives for the rounded corners*
1,1,$1+$1,$2,$3*
1,1,$1+$1,$4,$5*
1,1,$1+$1,$6,$7*
1,1,$1+$1,$8,$9*
0 Add four rect primitives between the rounded corners*
20,1,$1+$1,$2,$3,$4,$5,0*
20,1,$1+$1,$4,$5,$6,$7,0*
20,1,$1+$1,$6,$7,$8,$9,0*
20,1,$1+$1,$8,$9,$2,$3,0*%
G04 Aperture macros list end*
G04 #@! TA.AperFunction,ComponentPad*
%ADD10C,1.600000*%
G04 #@! TD*
G04 #@! TA.AperFunction,ComponentPad*
%ADD11O,1.600000X1.600000*%
G04 #@! TD*
G04 #@! TA.AperFunction,ComponentPad*
%ADD12R,1.600000X1.600000*%
G04 #@! TD*
G04 #@! TA.AperFunction,ComponentPad*
%ADD13C,1.500000*%
G04 #@! TD*
G04 #@! TA.AperFunction,ComponentPad*
%ADD14R,1.800000X1.800000*%
G04 #@! TD*
G04 #@! TA.AperFunction,ComponentPad*
%ADD15C,1.800000*%
G04 #@! TD*
G04 #@! TA.AperFunction,ComponentPad*
%ADD16R,3.500000X3.500000*%
G04 #@! TD*
G04 #@! TA.AperFunction,ComponentPad*
%ADD17RoundRect,0.750000X0.750000X1.000000X-0.750000X1.000000X-0.750000X-1.000000X0.750000X-1.000000X0*%
G04 #@! TD*
G04 #@! TA.AperFunction,ComponentPad*
%ADD18RoundRect,0.875000X0.875000X0.875000X-0.875000X0.875000X-0.875000X-0.875000X0.875000X-0.875000X0*%
G04 #@! TD*
G04 #@! TA.AperFunction,ComponentPad*
%ADD19R,1.700000X1.700000*%
G04 #@! TD*
G04 #@! TA.AperFunction,ComponentPad*
%ADD20O,1.700000X1.700000*%
G04 #@! TD*
G04 #@! TA.AperFunction,SMDPad,CuDef*
%ADD21O,2.410000X8.760000*%
G04 #@! TD*
G04 #@! TA.AperFunction,ConnectorPad*
%ADD22O,2.410000X8.760000*%
G04 #@! TD*
G04 #@! TA.AperFunction,ComponentPad*
%ADD23C,2.200000*%
G04 #@! TD*
G04 #@! TA.AperFunction,ComponentPad*
%ADD24C,1.700000*%
G04 #@! TD*
G04 #@! TA.AperFunction,ComponentPad*
%ADD25RoundRect,0.273700X-0.576300X0.576300X-0.576300X-0.576300X0.576300X-0.576300X0.576300X0.576300X0*%
G04 #@! TD*
G04 #@! TA.AperFunction,ComponentPad*
%ADD26C,1.550000*%
G04 #@! TD*
G04 #@! TA.AperFunction,ViaPad*
%ADD27C,1.422400*%
G04 #@! TD*
G04 #@! TA.AperFunction,ViaPad*
%ADD28C,1.219200*%
G04 #@! TD*
G04 #@! TA.AperFunction,Conductor*
%ADD29C,0.660400*%
G04 #@! TD*
G04 #@! TA.AperFunction,Conductor*
%ADD30C,0.600000*%
G04 #@! TD*
G04 #@! TA.AperFunction,Conductor*
%ADD31C,0.203200*%
G04 #@! TD*
G04 #@! TA.AperFunction,Conductor*
%ADD32C,0.200000*%
G04 #@! TD*
G04 #@! TA.AperFunction,Profile*
%ADD33C,0.200660*%
G04 #@! TD*
G04 APERTURE END LIST*
D10*
X125996700Y-104076500D03*
D11*
X125996700Y-114236500D03*
D12*
X183134000Y-82232500D03*
D11*
X180594000Y-82232500D03*
X178054000Y-82232500D03*
X175514000Y-82232500D03*
X172974000Y-82232500D03*
X170434000Y-82232500D03*
X167894000Y-82232500D03*
D12*
X129794000Y-110172500D03*
D11*
X132334000Y-110172500D03*
X134874000Y-110172500D03*
X137414000Y-110172500D03*
X139954000Y-110172500D03*
X142494000Y-110172500D03*
X145034000Y-110172500D03*
X147574000Y-110172500D03*
X150114000Y-110172500D03*
X152654000Y-110172500D03*
X155194000Y-110172500D03*
X157734000Y-110172500D03*
X160274000Y-110172500D03*
X162814000Y-110172500D03*
X165354000Y-110172500D03*
X167894000Y-110172500D03*
X170434000Y-110172500D03*
X172974000Y-110172500D03*
X175514000Y-110172500D03*
X178054000Y-110172500D03*
X178054000Y-94932500D03*
X175514000Y-94932500D03*
X172974000Y-94932500D03*
X170434000Y-94932500D03*
X167894000Y-94932500D03*
X165354000Y-94932500D03*
X162814000Y-94932500D03*
X160274000Y-94932500D03*
X157734000Y-94932500D03*
X155194000Y-94932500D03*
X152654000Y-94932500D03*
X150114000Y-94932500D03*
X147574000Y-94932500D03*
X145034000Y-94932500D03*
X142494000Y-94932500D03*
X139954000Y-94932500D03*
X137414000Y-94932500D03*
X134874000Y-94932500D03*
X132334000Y-94932500D03*
X129794000Y-94932500D03*
D12*
X129794000Y-92392500D03*
D11*
X132334000Y-92392500D03*
X134874000Y-92392500D03*
X137414000Y-92392500D03*
X139954000Y-92392500D03*
X142494000Y-92392500D03*
X145034000Y-92392500D03*
X147574000Y-92392500D03*
X150114000Y-92392500D03*
X152654000Y-92392500D03*
X152654000Y-84772500D03*
X150114000Y-84772500D03*
X147574000Y-84772500D03*
X145034000Y-84772500D03*
X142494000Y-84772500D03*
X139954000Y-84772500D03*
X137414000Y-84772500D03*
X134874000Y-84772500D03*
X132334000Y-84772500D03*
X129794000Y-84772500D03*
D12*
X183134000Y-84772500D03*
D11*
X180594000Y-84772500D03*
X178054000Y-84772500D03*
X175514000Y-84772500D03*
X172974000Y-84772500D03*
X170434000Y-84772500D03*
X167894000Y-84772500D03*
X165354000Y-84772500D03*
X162814000Y-84772500D03*
X160274000Y-84772500D03*
X160274000Y-92392500D03*
X162814000Y-92392500D03*
X165354000Y-92392500D03*
X167894000Y-92392500D03*
X170434000Y-92392500D03*
X172974000Y-92392500D03*
X175514000Y-92392500D03*
X178054000Y-92392500D03*
X180594000Y-92392500D03*
X183134000Y-92392500D03*
D10*
X124694000Y-79248000D03*
X122194000Y-79248000D03*
X155154000Y-112903000D03*
X152654000Y-112903000D03*
X155475000Y-84925000D03*
X155475000Y-82425000D03*
X157300000Y-89550000D03*
X157300000Y-87050000D03*
X122428000Y-91694000D03*
D11*
X122428000Y-81534000D03*
D10*
X189865000Y-113919000D03*
X187365000Y-113919000D03*
D13*
X178762000Y-117475000D03*
X183642000Y-117475000D03*
D10*
X119380000Y-81534000D03*
D11*
X119380000Y-91694000D03*
D14*
X121450100Y-113322100D03*
D15*
X121450100Y-110782100D03*
D14*
X121450100Y-106616500D03*
D15*
X121450100Y-104076500D03*
D16*
X180182000Y-75887500D03*
D17*
X186182000Y-75887500D03*
D18*
X183182000Y-71187500D03*
D14*
X121462800Y-100037900D03*
D15*
X121462800Y-97497900D03*
D19*
X183997600Y-97891600D03*
D20*
X183997600Y-100431600D03*
X183997600Y-102971600D03*
X183997600Y-105511600D03*
X183997600Y-108051600D03*
X183997600Y-110591600D03*
D10*
X187198000Y-100584000D03*
D11*
X187198000Y-90424000D03*
D10*
X190093600Y-90424000D03*
D11*
X190093600Y-100584000D03*
D10*
X176570000Y-113284000D03*
X179070000Y-113284000D03*
X125476000Y-81534000D03*
D11*
X125476000Y-91694000D03*
D19*
X124891800Y-73126600D03*
D20*
X124891800Y-75666600D03*
D10*
X126009400Y-99290500D03*
X126009400Y-101790500D03*
D12*
X187285621Y-85090000D03*
D10*
X189785621Y-85090000D03*
D21*
X131052300Y-126923800D03*
D22*
X135012300Y-126923800D03*
X138972300Y-126923800D03*
X142932300Y-126923800D03*
X146892300Y-126923800D03*
X150852300Y-126923800D03*
X154812300Y-126923800D03*
X158772300Y-126923800D03*
X162732300Y-126923800D03*
X166692300Y-126923800D03*
X170652300Y-126923800D03*
X174612300Y-126923800D03*
D23*
X187350400Y-103896400D03*
X187350400Y-110896400D03*
D24*
X189850400Y-105146400D03*
X189850400Y-109646400D03*
D19*
X131064000Y-80010000D03*
D20*
X133604000Y-80010000D03*
X136144000Y-80010000D03*
X138684000Y-80010000D03*
X141224000Y-80010000D03*
X143764000Y-80010000D03*
D21*
X130860799Y-70408800D03*
D22*
X134820799Y-70408800D03*
X138780799Y-70408800D03*
X142740799Y-70408800D03*
X146700799Y-70408800D03*
X150660799Y-70408800D03*
X154620799Y-70408800D03*
X158580799Y-70408800D03*
X162540799Y-70408800D03*
X166500799Y-70408800D03*
X170460799Y-70408800D03*
X174420799Y-70408800D03*
D25*
X129794000Y-116869000D03*
D24*
X133754089Y-116869000D03*
X137714180Y-116869000D03*
X141674269Y-116869000D03*
X145634360Y-116869000D03*
X149594449Y-116869000D03*
X153554540Y-116869000D03*
X157514629Y-116869000D03*
X161474720Y-116869000D03*
X165434809Y-116869000D03*
X169394900Y-116869000D03*
X173354999Y-116869000D03*
X129794000Y-120269000D03*
X133754090Y-120269001D03*
X137714180Y-120269000D03*
X141674270Y-120269001D03*
X145634360Y-120269000D03*
X149594450Y-120269001D03*
X153554540Y-120269000D03*
X157514630Y-120269001D03*
X161474720Y-120269000D03*
X165434809Y-120269000D03*
X169394900Y-120269000D03*
D26*
X173355000Y-120269001D03*
D27*
X176403000Y-117983000D03*
X160731200Y-76136500D03*
X152425400Y-100228400D03*
X128790700Y-100838000D03*
X152577800Y-104419400D03*
X175564800Y-104406700D03*
D28*
X155194000Y-92312500D03*
X157734000Y-92392500D03*
X130810000Y-98399600D03*
X156362400Y-98717100D03*
X148837500Y-81280000D03*
X146240500Y-111696500D03*
X149860000Y-88582500D03*
X147447000Y-88519000D03*
X141351000Y-113030000D03*
X132130800Y-112623600D03*
X142800000Y-105250000D03*
X135229600Y-106133900D03*
X144970500Y-88582500D03*
X130774515Y-105476115D03*
X142494000Y-87122000D03*
X140931400Y-105219500D03*
X156718000Y-96748600D03*
X176618900Y-96964500D03*
X173482000Y-113538000D03*
X180530500Y-94945200D03*
X175577500Y-88557100D03*
X158877000Y-77279500D03*
X154675721Y-77279500D03*
X181659506Y-106559506D03*
X181229000Y-89560400D03*
X173050200Y-89522300D03*
X156908500Y-114236500D03*
X151511000Y-77279500D03*
X169164000Y-99644200D03*
X154051000Y-100647500D03*
X166878000Y-103187500D03*
X147955000Y-76073000D03*
X166966900Y-99555300D03*
X150583900Y-104178100D03*
X166370000Y-88519000D03*
X156400500Y-101663500D03*
X140017500Y-101955600D03*
X153860500Y-89916000D03*
X183134000Y-89789000D03*
X143916400Y-107289600D03*
X148987500Y-104962500D03*
X185675000Y-101750000D03*
X150225000Y-106900000D03*
X185975000Y-95450000D03*
X171640500Y-96456500D03*
X162839400Y-98412300D03*
X126492000Y-97282000D03*
X165354000Y-99631500D03*
X127546100Y-98501200D03*
X170688000Y-89662000D03*
X160528000Y-90106500D03*
X147535900Y-102158800D03*
D29*
X158711900Y-76136500D02*
X157734000Y-76136500D01*
X154812300Y-120269701D02*
X154813000Y-120269001D01*
D30*
X149594451Y-120269000D02*
X149594450Y-120269001D01*
X191547460Y-85058540D02*
X191547460Y-100452540D01*
D29*
X160083500Y-76136500D02*
X160731200Y-76136500D01*
D30*
X176390300Y-119494300D02*
X190893700Y-119494300D01*
D29*
X137280000Y-77125000D02*
X126350200Y-77125000D01*
X157926500Y-82425000D02*
X160274000Y-84772500D01*
X117793089Y-80326911D02*
X117793089Y-97473089D01*
X158593500Y-70332600D02*
X158593500Y-76018100D01*
X154633500Y-75858800D02*
X154355800Y-76136500D01*
X155575000Y-76136500D02*
X154355800Y-76136500D01*
D30*
X162623500Y-76136500D02*
X162553500Y-76066500D01*
D29*
X154812300Y-126923800D02*
X154812300Y-122301000D01*
D30*
X191547460Y-100452540D02*
X191547460Y-104933460D01*
D29*
X125222000Y-96520000D02*
X125222000Y-98503100D01*
D30*
X170511500Y-76136500D02*
X170473500Y-76098500D01*
X176390300Y-117995700D02*
X176403000Y-117983000D01*
X175818800Y-120065800D02*
X176390300Y-119494300D01*
D29*
X118872000Y-98552000D02*
X118872000Y-100076000D01*
X141732000Y-77978000D02*
X138133000Y-77978000D01*
D30*
X157514631Y-120269000D02*
X157514630Y-120269001D01*
X174433500Y-75958500D02*
X174433500Y-70332600D01*
X169394901Y-120269001D02*
X169394900Y-120269000D01*
X170511500Y-76136500D02*
X166916100Y-76136500D01*
X191547460Y-113252540D02*
X191547460Y-104933460D01*
D29*
X122453400Y-75666600D02*
X117793089Y-80326911D01*
X118872000Y-100076000D02*
X118910100Y-100037900D01*
X155154000Y-119928001D02*
X154813000Y-120269001D01*
D30*
X166513500Y-75733900D02*
X166916100Y-76136500D01*
D29*
X118910100Y-100037900D02*
X121462800Y-100037900D01*
D30*
X190893700Y-119494300D02*
X191516000Y-118872000D01*
D29*
X159577500Y-84772500D02*
X157300000Y-87050000D01*
D30*
X175615599Y-120269001D02*
X174498000Y-120269001D01*
D29*
X150673500Y-70332600D02*
X150673500Y-75108500D01*
D30*
X152654000Y-96100900D02*
X152654000Y-94932500D01*
X151003000Y-120269000D02*
X149594451Y-120269000D01*
D29*
X155475000Y-82425000D02*
X157926500Y-82425000D01*
D30*
X191289360Y-105191560D02*
X189917680Y-105191560D01*
D29*
X118872000Y-111760000D02*
X120434100Y-113322100D01*
D30*
X190881000Y-113919000D02*
X189865000Y-113919000D01*
X174611500Y-76136500D02*
X170511500Y-76136500D01*
X191516000Y-113284000D02*
X190881000Y-113919000D01*
D29*
X118935500Y-106616500D02*
X121450100Y-106616500D01*
D30*
X191547460Y-85058540D02*
X191516000Y-85090000D01*
X162623500Y-76136500D02*
X160731200Y-76136500D01*
D29*
X166692300Y-120337300D02*
X166624000Y-120269000D01*
D30*
X184975000Y-79200000D02*
X177975000Y-79200000D01*
X161474720Y-120269000D02*
X158877000Y-120269000D01*
D29*
X174612300Y-126923800D02*
X174612300Y-120383301D01*
X125984000Y-95758000D02*
X125222000Y-96520000D01*
X138133000Y-77978000D02*
X137280000Y-77125000D01*
D30*
X191547460Y-100452540D02*
X191416000Y-100584000D01*
D29*
X155154000Y-110212500D02*
X155194000Y-110172500D01*
D30*
X178054000Y-110172500D02*
X175514000Y-110172500D01*
D29*
X166692300Y-126923800D02*
X166692300Y-120337300D01*
X170652300Y-126923800D02*
X170652300Y-120431701D01*
D30*
X174498000Y-120269001D02*
X173355000Y-120269001D01*
D29*
X155154000Y-112903000D02*
X155154000Y-110212500D01*
X128270000Y-95758000D02*
X125984000Y-95758000D01*
D30*
X191416000Y-100584000D02*
X190093600Y-100584000D01*
D29*
X150673500Y-75108500D02*
X151701500Y-76136500D01*
X151701500Y-76136500D02*
X154355800Y-76136500D01*
D30*
X186182000Y-77993000D02*
X184975000Y-79200000D01*
X186182000Y-75887500D02*
X186182000Y-77993000D01*
D29*
X124891800Y-75666600D02*
X122453400Y-75666600D01*
X158772300Y-126923800D02*
X158772300Y-120373700D01*
X118872000Y-106680000D02*
X118872000Y-111760000D01*
X151066500Y-96570800D02*
X129163582Y-96642418D01*
D30*
X166916100Y-76136500D02*
X162623500Y-76136500D01*
D29*
X118872000Y-106680000D02*
X118935500Y-106616500D01*
X158593500Y-76018100D02*
X158711900Y-76136500D01*
D30*
X176390300Y-119494300D02*
X176390300Y-117995700D01*
X165434809Y-120269000D02*
X162941000Y-120269000D01*
X162687000Y-120269000D02*
X161474720Y-120269000D01*
X178054000Y-110172500D02*
X183578500Y-110172500D01*
X183578500Y-110172500D02*
X183997600Y-110591600D01*
D29*
X126350200Y-77125000D02*
X124891800Y-75666600D01*
X154812300Y-122301000D02*
X154812300Y-120269701D01*
D30*
X157514630Y-120269001D02*
X154813000Y-120269001D01*
X154813000Y-120269001D02*
X153554541Y-120269001D01*
X166624000Y-120269000D02*
X165434809Y-120269000D01*
D29*
X162732300Y-126923800D02*
X162732300Y-122039800D01*
X125222000Y-98503100D02*
X126009400Y-99290500D01*
D30*
X166513500Y-70332600D02*
X166513500Y-75733900D01*
X188663500Y-75887500D02*
X186182000Y-75887500D01*
X158877000Y-120269000D02*
X157514631Y-120269000D01*
D29*
X174612300Y-120383301D02*
X174498000Y-120269001D01*
X120434100Y-113322100D02*
X121450100Y-113322100D01*
D30*
X191547460Y-85058540D02*
X191547460Y-78771460D01*
D29*
X170652300Y-120431701D02*
X170815000Y-120269001D01*
D30*
X191516000Y-85090000D02*
X189785621Y-85090000D01*
D29*
X155154000Y-112903000D02*
X155154000Y-119928001D01*
X150852300Y-126923800D02*
X150852300Y-120419700D01*
X160274000Y-84772500D02*
X159577500Y-84772500D01*
D30*
X191516000Y-113284000D02*
X191547460Y-113252540D01*
D29*
X154633500Y-70332600D02*
X154633500Y-75858800D01*
X118872000Y-100076000D02*
X118872000Y-106680000D01*
D30*
X191516000Y-118872000D02*
X191516000Y-113284000D01*
X170815000Y-120269001D02*
X169394901Y-120269001D01*
D29*
X159004000Y-76136500D02*
X158711900Y-76136500D01*
D30*
X177975000Y-79200000D02*
X174911500Y-76136500D01*
D29*
X124891800Y-79050200D02*
X124694000Y-79248000D01*
X124891800Y-75666600D02*
X124891800Y-79050200D01*
D30*
X169394900Y-120269000D02*
X166624000Y-120269000D01*
X191547460Y-78771460D02*
X188663500Y-75887500D01*
X153554541Y-120269001D02*
X153554540Y-120269000D01*
X162553500Y-76066500D02*
X162553500Y-70332600D01*
X152184100Y-96570800D02*
X152654000Y-96100900D01*
D29*
X162732300Y-122039800D02*
X162941000Y-121831100D01*
X162941000Y-121831100D02*
X162941000Y-120269000D01*
D30*
X191547460Y-104933460D02*
X191289360Y-105191560D01*
X162941000Y-120269000D02*
X162687000Y-120269000D01*
D29*
X157734000Y-76136500D02*
X155575000Y-76136500D01*
X129163582Y-96642418D02*
X129154418Y-96642418D01*
D30*
X170473500Y-76098500D02*
X170473500Y-70332600D01*
X153554540Y-120269000D02*
X151003000Y-120269000D01*
X174611500Y-76136500D02*
X174433500Y-75958500D01*
D29*
X143764000Y-80010000D02*
X141732000Y-77978000D01*
D30*
X151066500Y-96570800D02*
X152184100Y-96570800D01*
D29*
X129154418Y-96642418D02*
X128270000Y-95758000D01*
X159004000Y-76136500D02*
X160083500Y-76136500D01*
D30*
X173355000Y-120269001D02*
X170815000Y-120269001D01*
D29*
X117793089Y-97473089D02*
X118872000Y-98552000D01*
D30*
X175818800Y-120065800D02*
X175615599Y-120269001D01*
X174911500Y-76136500D02*
X174611500Y-76136500D01*
X152654000Y-112629000D02*
X152654000Y-110172500D01*
X152577800Y-104419400D02*
X175552100Y-104419400D01*
X152425400Y-100228400D02*
X129400300Y-100228400D01*
X175552100Y-104419400D02*
X175564800Y-104406700D01*
X129400300Y-100228400D02*
X128790700Y-100838000D01*
D31*
X187365000Y-113919000D02*
X183809000Y-117475000D01*
D32*
X176657000Y-115316000D02*
X181483000Y-115316000D01*
X159884200Y-112322700D02*
X173663700Y-112322700D01*
X181483000Y-115316000D02*
X183642000Y-117475000D01*
X173663700Y-112322700D02*
X176657000Y-115316000D01*
D31*
X183809000Y-117475000D02*
X183642000Y-117475000D01*
D32*
X157734000Y-110172500D02*
X159884200Y-112322700D01*
X160274000Y-110172500D02*
X161861500Y-111760000D01*
X161861500Y-111760000D02*
X177546000Y-111760000D01*
X177546000Y-111760000D02*
X179070000Y-113284000D01*
D31*
X179070000Y-117167000D02*
X178762000Y-117475000D01*
X150114000Y-94932500D02*
X150118098Y-94932500D01*
X153799820Y-93706680D02*
X155194000Y-92312500D01*
X150118098Y-94932500D02*
X151343918Y-93706680D01*
X151343918Y-93706680D02*
X153799820Y-93706680D01*
X155194000Y-94932500D02*
X157734000Y-92392500D01*
D32*
X130810000Y-98399600D02*
X131051300Y-98158300D01*
X131051300Y-98158300D02*
X131457700Y-98158300D01*
X154800300Y-98158300D02*
X155359100Y-98717100D01*
X155359100Y-98717100D02*
X156362400Y-98717100D01*
X131457700Y-98158300D02*
X154800300Y-98158300D01*
X148837500Y-81280000D02*
X148837500Y-78437500D01*
X148837500Y-78437500D02*
X146713500Y-76313500D01*
D31*
X146892300Y-126923800D02*
X146892300Y-121526940D01*
X146892300Y-126923800D02*
X147066000Y-126750100D01*
X146892300Y-121526940D02*
X145634360Y-120269000D01*
D32*
X146713500Y-76313500D02*
X146713500Y-70332600D01*
X143764000Y-118179271D02*
X141674270Y-120269001D01*
X146240500Y-112712500D02*
X143764000Y-115189000D01*
X143081470Y-121793000D02*
X143081470Y-126774630D01*
D31*
X149860000Y-88582500D02*
X148844000Y-87566500D01*
D32*
X143764000Y-115189000D02*
X143764000Y-118179271D01*
X143081470Y-121793000D02*
X143081470Y-121676201D01*
X147175000Y-82137000D02*
X148844000Y-83806000D01*
X146240500Y-111696500D02*
X146240500Y-112712500D01*
X142753500Y-73665500D02*
X144272000Y-75184000D01*
X143081470Y-126774630D02*
X142932300Y-126923800D01*
X144272000Y-75197000D02*
X147175000Y-78100000D01*
X144272000Y-75184000D02*
X144272000Y-75197000D01*
X143081470Y-121676201D02*
X141674270Y-120269001D01*
X147175000Y-78100000D02*
X147175000Y-82137000D01*
X148844000Y-83806000D02*
X148844000Y-87566500D01*
X142753500Y-70332600D02*
X142753500Y-73665500D01*
X146450000Y-81708000D02*
X146304000Y-81854000D01*
D31*
X147447000Y-88519000D02*
X147193000Y-88519000D01*
D32*
X146304000Y-84074000D02*
X146304000Y-81854000D01*
D31*
X147193000Y-88519000D02*
X146304000Y-87630000D01*
D32*
X146450000Y-78625000D02*
X143517000Y-75692000D01*
X143517000Y-75692000D02*
X139292000Y-75692000D01*
X138793500Y-75193500D02*
X138793500Y-70332600D01*
D31*
X139827000Y-118156180D02*
X137714180Y-120269000D01*
X139827000Y-114554000D02*
X139827000Y-118156180D01*
D32*
X138972300Y-126923800D02*
X138972300Y-121903500D01*
D31*
X138972300Y-121793000D02*
X138972300Y-121903500D01*
D32*
X146450000Y-78625000D02*
X146450000Y-81708000D01*
D31*
X138972300Y-121527120D02*
X137714180Y-120269000D01*
D32*
X139292000Y-75692000D02*
X138793500Y-75193500D01*
D31*
X138972300Y-121793000D02*
X138972300Y-121527120D01*
X146304000Y-87630000D02*
X146304000Y-84582000D01*
X141351000Y-113030000D02*
X139827000Y-114554000D01*
X146304000Y-84582000D02*
X146304000Y-84074000D01*
D32*
X135572500Y-75692000D02*
X134833500Y-74953000D01*
X134833500Y-74953000D02*
X134833500Y-70332600D01*
D31*
X135012300Y-121527211D02*
X135012300Y-126923800D01*
D32*
X138083000Y-75692000D02*
X135572500Y-75692000D01*
X138691000Y-76300000D02*
X138083000Y-75692000D01*
D31*
X141814500Y-106235500D02*
X142800000Y-105250000D01*
D32*
X145950000Y-78900000D02*
X143377000Y-76327000D01*
X141097000Y-76327000D02*
X141070000Y-76300000D01*
X145950000Y-81450000D02*
X145950000Y-78900000D01*
X141070000Y-76300000D02*
X138691000Y-76300000D01*
D31*
X143764000Y-87376000D02*
X143764000Y-83636000D01*
X132080000Y-118594911D02*
X133754090Y-120269001D01*
X135331200Y-106235500D02*
X141814500Y-106235500D01*
X133754090Y-120269001D02*
X135012300Y-121527211D01*
D32*
X143764000Y-83636000D02*
X145950000Y-81450000D01*
X143377000Y-76327000D02*
X141097000Y-76327000D01*
D31*
X135229600Y-106133900D02*
X135331200Y-106235500D01*
X132080000Y-112674400D02*
X132080000Y-118594911D01*
X144970500Y-88582500D02*
X143764000Y-87376000D01*
X132130800Y-112623600D02*
X132080000Y-112674400D01*
D32*
X137775000Y-76300000D02*
X138310000Y-76835000D01*
X145400000Y-81168000D02*
X143256000Y-83312000D01*
X138310000Y-76835000D02*
X142985000Y-76835000D01*
X130873500Y-75348500D02*
X131825000Y-76300000D01*
D31*
X141224000Y-84074000D02*
X141986000Y-83312000D01*
D32*
X145400000Y-79250000D02*
X145400000Y-81168000D01*
D31*
X142494000Y-87122000D02*
X141224000Y-85852000D01*
X130774515Y-105476115D02*
X130774515Y-105476114D01*
D32*
X143256000Y-83312000D02*
X142240000Y-83312000D01*
X130873500Y-70332600D02*
X130873500Y-75348500D01*
D31*
X141224000Y-85852000D02*
X141224000Y-84074000D01*
X131031129Y-105219500D02*
X140931400Y-105219500D01*
D32*
X131825000Y-76300000D02*
X137775000Y-76300000D01*
X142985000Y-76835000D02*
X145400000Y-79250000D01*
D31*
X131052300Y-121527300D02*
X129794000Y-120269000D01*
X141986000Y-83312000D02*
X142240000Y-83312000D01*
X131052300Y-126923800D02*
X131052300Y-121527300D01*
X130774515Y-105476114D02*
X131031129Y-105219500D01*
D32*
X159918400Y-96748600D02*
X160667700Y-97497900D01*
X170307000Y-97497900D02*
X170637200Y-97828100D01*
X156718000Y-96748600D02*
X159918400Y-96748600D01*
X160667700Y-97497900D02*
X170307000Y-97497900D01*
X174320200Y-97828100D02*
X175183800Y-96964500D01*
X170637200Y-97828100D02*
X174320200Y-97828100D01*
X175183800Y-96964500D02*
X176618900Y-96964500D01*
X159131000Y-77533500D02*
X170243500Y-77533500D01*
X180733700Y-95148400D02*
X180530500Y-94945200D01*
X184713070Y-93505830D02*
X183070500Y-95148400D01*
X170243500Y-77533500D02*
X174244000Y-81534000D01*
X183070500Y-95148400D02*
X180733700Y-95148400D01*
D31*
X174244000Y-83502500D02*
X174244000Y-81546700D01*
D32*
X172085000Y-114935000D02*
X173482000Y-113538000D01*
X157514629Y-116869000D02*
X159448629Y-114935000D01*
X174244000Y-81534000D02*
X174244000Y-81546700D01*
D31*
X175514000Y-84772500D02*
X174244000Y-83502500D01*
D32*
X183476900Y-88557100D02*
X184713070Y-89793270D01*
X184713070Y-89793270D02*
X184713070Y-93505830D01*
X159448629Y-114935000D02*
X172085000Y-114935000D01*
X175577500Y-88557100D02*
X183476900Y-88557100D01*
X158877000Y-77279500D02*
X159131000Y-77533500D01*
D31*
X179969012Y-108250000D02*
X181659506Y-106559506D01*
D32*
X169236622Y-78495122D02*
X171634150Y-80892650D01*
D31*
X172974000Y-84772500D02*
X172974000Y-84328000D01*
X172974000Y-84328000D02*
X171704000Y-83058000D01*
X171704000Y-80962500D02*
X171634150Y-80892650D01*
X157625000Y-108250000D02*
X179969012Y-108250000D01*
X171704000Y-83058000D02*
X171704000Y-80962500D01*
X156908500Y-114236500D02*
X156908500Y-112331500D01*
X156486000Y-109389000D02*
X157625000Y-108250000D01*
X173050200Y-89522300D02*
X173088300Y-89560400D01*
X173088300Y-89560400D02*
X181229000Y-89560400D01*
D32*
X154675721Y-77279500D02*
X155891343Y-78495122D01*
D31*
X156908500Y-112331500D02*
X156486000Y-111909000D01*
D32*
X155891343Y-78495122D02*
X169236622Y-78495122D01*
D31*
X156486000Y-111909000D02*
X156486000Y-109389000D01*
X169164000Y-83058000D02*
X169164000Y-81470500D01*
X170434000Y-84772500D02*
X170434000Y-84328000D01*
X154051000Y-100647500D02*
X161099500Y-100647500D01*
D32*
X161099500Y-100647500D02*
X167233600Y-100647500D01*
X151511000Y-77279500D02*
X153354000Y-79122500D01*
X153354000Y-79122500D02*
X166816000Y-79122500D01*
D31*
X170434000Y-84328000D02*
X169164000Y-83058000D01*
D32*
X166816000Y-79122500D02*
X169164000Y-81470500D01*
X167233600Y-100647500D02*
X168160700Y-100647500D01*
X168160700Y-100647500D02*
X169164000Y-99644200D01*
X162941000Y-79756000D02*
X165760400Y-82575400D01*
X185591450Y-94062550D02*
X183203850Y-96450150D01*
D31*
X185591450Y-89071450D02*
X183451500Y-86931500D01*
X180594000Y-96894650D02*
X181038500Y-96450150D01*
D32*
X148844000Y-76073000D02*
X152527000Y-79756000D01*
X167919400Y-84772500D02*
X170078400Y-86931500D01*
X179171600Y-98329750D02*
X180594000Y-96907350D01*
X183203850Y-96450150D02*
X182429150Y-96450150D01*
D31*
X167894000Y-84709000D02*
X165760400Y-82575400D01*
D32*
X167894000Y-84772500D02*
X167919400Y-84772500D01*
X151836700Y-103136700D02*
X166827200Y-103136700D01*
X185591450Y-89071450D02*
X185591450Y-94062550D01*
X166966900Y-99555300D02*
X168192450Y-98329750D01*
D31*
X150795300Y-104178100D02*
X151836700Y-103136700D01*
X183451500Y-86931500D02*
X170078400Y-86931500D01*
X180594000Y-96907350D02*
X180594000Y-96894650D01*
X181038500Y-96450150D02*
X182429150Y-96450150D01*
D32*
X168192450Y-98329750D02*
X179171600Y-98329750D01*
D31*
X150583900Y-104178100D02*
X150795300Y-104178100D01*
D32*
X166827200Y-103136700D02*
X166878000Y-103187500D01*
X147955000Y-76073000D02*
X148844000Y-76073000D01*
D31*
X167894000Y-84772500D02*
X167894000Y-84709000D01*
D32*
X152527000Y-79756000D02*
X162941000Y-79756000D01*
X166007698Y-87567302D02*
X166269202Y-87567302D01*
D31*
X184848500Y-89217500D02*
X184594500Y-88963500D01*
D32*
X182956200Y-95948500D02*
X185115790Y-93788910D01*
X164125000Y-83850000D02*
X164125000Y-85684604D01*
D31*
X178054000Y-94932500D02*
X178244500Y-94932500D01*
D32*
X154061500Y-80825000D02*
X161100000Y-80825000D01*
X164125000Y-85684604D02*
X166007698Y-87567302D01*
X179247800Y-95948500D02*
X182956200Y-95948500D01*
X178231800Y-94932500D02*
X179247800Y-95948500D01*
X178054000Y-94932500D02*
X178231800Y-94932500D01*
D31*
X183197500Y-87630000D02*
X166269202Y-87567302D01*
D32*
X161100000Y-80825000D02*
X164125000Y-83850000D01*
X184848500Y-89255600D02*
X184848500Y-89217500D01*
X150114000Y-84772500D02*
X154061500Y-80825000D01*
X185115790Y-89522890D02*
X184848500Y-89255600D01*
X185115790Y-93788910D02*
X185115790Y-89522890D01*
D31*
X184594500Y-88963500D02*
X183197500Y-87630000D01*
X173609000Y-93599000D02*
X174307500Y-92900500D01*
X172275500Y-93599000D02*
X173609000Y-93599000D01*
X174307500Y-91694000D02*
X174815500Y-91186000D01*
X174307500Y-92900500D02*
X174307500Y-91694000D01*
X176847500Y-91186000D02*
X176911000Y-91249500D01*
X170942000Y-94932500D02*
X172275500Y-93599000D01*
X176911000Y-91249500D02*
X178054000Y-92392500D01*
X170434000Y-94932500D02*
X170942000Y-94932500D01*
X174815500Y-91186000D02*
X176847500Y-91186000D01*
D32*
X128117600Y-101955600D02*
X140017500Y-101955600D01*
X127254000Y-93218000D02*
X124460000Y-96012000D01*
X126746000Y-100584000D02*
X128117600Y-101955600D01*
X127254000Y-85090000D02*
X127254000Y-93218000D01*
X171650050Y-98732950D02*
X168719500Y-101663500D01*
X180619400Y-97891600D02*
X179778050Y-98732950D01*
D31*
X154584000Y-89916000D02*
X153860500Y-89916000D01*
X166370000Y-88519000D02*
X166076000Y-88225000D01*
D32*
X124460000Y-99822000D02*
X125222000Y-100584000D01*
X140893800Y-101079300D02*
X150952200Y-101079300D01*
X183616600Y-97891600D02*
X180619400Y-97891600D01*
X131064000Y-81280000D02*
X127254000Y-85090000D01*
X124460000Y-96012000D02*
X124460000Y-99822000D01*
X156400500Y-101663500D02*
X151536400Y-101663500D01*
X140017500Y-101955600D02*
X140893800Y-101079300D01*
X131064000Y-80010000D02*
X131064000Y-81280000D01*
X179778050Y-98732950D02*
X171650050Y-98732950D01*
D31*
X166076000Y-88225000D02*
X156275000Y-88225000D01*
D32*
X168719500Y-101663500D02*
X156400500Y-101663500D01*
X151536400Y-101663500D02*
X150952200Y-101079300D01*
X125222000Y-100584000D02*
X126746000Y-100584000D01*
D31*
X156275000Y-88225000D02*
X154584000Y-89916000D01*
X183134000Y-89789000D02*
X182245000Y-90678000D01*
X169481500Y-93599000D02*
X171259500Y-93599000D01*
X171259500Y-93599000D02*
X171704000Y-93154500D01*
X171704000Y-90678000D02*
X164592000Y-90678000D01*
X164147500Y-91122500D02*
X156146500Y-91122500D01*
X182245000Y-90678000D02*
X171704000Y-90678000D01*
X156146500Y-91122500D02*
X155954186Y-90930186D01*
X131254500Y-90932000D02*
X129794000Y-92392500D01*
X155448000Y-90932000D02*
X131254500Y-90932000D01*
X155954186Y-90930186D02*
X155703814Y-90930186D01*
X164592000Y-90678000D02*
X164147500Y-91122500D01*
X167894000Y-94932500D02*
X168148000Y-94932500D01*
X171704000Y-93154500D02*
X171704000Y-90678000D01*
X168148000Y-94932500D02*
X169481500Y-93599000D01*
X155703814Y-90930186D02*
X155448000Y-90932000D01*
D32*
X128524000Y-81788000D02*
X124119289Y-86192711D01*
D31*
X125929520Y-107289600D02*
X123797760Y-105157840D01*
D32*
X136144000Y-80010000D02*
X134366000Y-78232000D01*
X124119289Y-94320711D02*
X123592720Y-94847280D01*
X123797760Y-105157840D02*
X123592720Y-104952800D01*
X123592720Y-94847280D02*
X123592720Y-104952800D01*
X128524000Y-79502000D02*
X128524000Y-81788000D01*
X124119289Y-86192711D02*
X124119289Y-94320711D01*
X178945000Y-106680000D02*
X182653400Y-102971600D01*
D31*
X147775600Y-107289600D02*
X148336000Y-107850000D01*
X143916400Y-107289600D02*
X125929520Y-107289600D01*
D32*
X134366000Y-78232000D02*
X129794000Y-78232000D01*
X152146000Y-106680000D02*
X178945000Y-106680000D01*
X182653400Y-102971600D02*
X183997600Y-102971600D01*
D31*
X143916400Y-107289600D02*
X147775600Y-107289600D01*
D32*
X150976000Y-107850000D02*
X152146000Y-106680000D01*
X148336000Y-107850000D02*
X150976000Y-107850000D01*
X129794000Y-78232000D02*
X128524000Y-79502000D01*
D31*
X167703500Y-92392500D02*
X167894000Y-92392500D01*
X165354000Y-94932500D02*
X165354000Y-94742000D01*
X165354000Y-94742000D02*
X167703500Y-92392500D01*
D32*
X152908000Y-107442000D02*
X151825000Y-108525000D01*
X183997600Y-105511600D02*
X181138400Y-105511600D01*
X146681500Y-108525000D02*
X145034000Y-110172500D01*
X128120800Y-79334989D02*
X129626989Y-77828800D01*
X143014700Y-108153200D02*
X125983520Y-108153200D01*
X123189520Y-105359200D02*
X123189520Y-94680269D01*
X136502800Y-77828800D02*
X138684000Y-80010000D01*
X129626989Y-77828800D02*
X136502800Y-77828800D01*
X145034000Y-110172500D02*
X143014700Y-108153200D01*
X181138400Y-105511600D02*
X179208000Y-107442000D01*
X151825000Y-108525000D02*
X146681500Y-108525000D01*
X123698000Y-94171789D02*
X123698000Y-85852000D01*
X125983520Y-108153200D02*
X123189520Y-105359200D01*
X179208000Y-107442000D02*
X152908000Y-107442000D01*
X123698000Y-85852000D02*
X128120800Y-81429200D01*
X123189520Y-94680269D02*
X123698000Y-94171789D01*
X128120800Y-81429200D02*
X128120800Y-79334989D01*
D31*
X164846000Y-91122500D02*
X169164000Y-91122500D01*
X162814000Y-94742000D02*
X164084000Y-93472000D01*
X164084000Y-93472000D02*
X164084000Y-91884500D01*
X169164000Y-91122500D02*
X170434000Y-92392500D01*
X162814000Y-94932500D02*
X162814000Y-94742000D01*
X164084000Y-91884500D02*
X164846000Y-91122500D01*
D32*
X123995440Y-104245440D02*
X125175000Y-105425000D01*
X129286000Y-79502000D02*
X129286000Y-82042000D01*
X123995440Y-95460560D02*
X123995440Y-104245440D01*
X129286000Y-82042000D02*
X126746000Y-84582000D01*
X182681600Y-100431600D02*
X177606600Y-105506600D01*
X126746000Y-92710000D02*
X123995440Y-95460560D01*
X126746000Y-84582000D02*
X126746000Y-92710000D01*
X125175000Y-105425000D02*
X126900000Y-105425000D01*
X183997600Y-100431600D02*
X182681600Y-100431600D01*
X128375000Y-103950000D02*
X146700000Y-103950000D01*
X147975000Y-103950000D02*
X146700000Y-103950000D01*
X177606600Y-105506600D02*
X149531600Y-105506600D01*
X149531600Y-105506600D02*
X148987500Y-104962500D01*
X132334000Y-78740000D02*
X130048000Y-78740000D01*
X148987500Y-104962500D02*
X147975000Y-103950000D01*
X130048000Y-78740000D02*
X129286000Y-79502000D01*
X133604000Y-80010000D02*
X132334000Y-78740000D01*
X126900000Y-105425000D02*
X128375000Y-103950000D01*
X160274000Y-95605600D02*
X161658300Y-96989900D01*
X161658300Y-96989900D02*
X170675300Y-96989900D01*
D31*
X175514000Y-92392500D02*
X175514000Y-92646500D01*
D32*
X173012100Y-97370900D02*
X174244000Y-96139000D01*
X171056300Y-97370900D02*
X173012100Y-97370900D01*
D31*
X175514000Y-92646500D02*
X174244000Y-93916500D01*
X174244000Y-93916500D02*
X174244000Y-96139000D01*
D32*
X160274000Y-94932500D02*
X160274000Y-95605600D01*
X170675300Y-96989900D02*
X171056300Y-97370900D01*
X150225000Y-106900000D02*
X150664913Y-106460087D01*
X150664913Y-106460087D02*
X150714913Y-106460087D01*
D31*
X180035200Y-86258400D02*
X182854600Y-86258400D01*
X183489600Y-86258400D02*
X183667400Y-86258400D01*
D32*
X189917680Y-109653680D02*
X189917680Y-109692440D01*
X182750000Y-101700000D02*
X185625000Y-101700000D01*
X185675000Y-105411000D02*
X189917680Y-109653680D01*
X150714913Y-106460087D02*
X151130000Y-106045000D01*
X185995769Y-88396269D02*
X183857900Y-86258400D01*
D31*
X182854600Y-86258400D02*
X183489600Y-86258400D01*
D32*
X185675000Y-101750000D02*
X185675000Y-105411000D01*
D31*
X178054000Y-82232500D02*
X178054000Y-82473800D01*
X179324000Y-83743800D02*
X179324000Y-85547200D01*
X179324000Y-85547200D02*
X180035200Y-86258400D01*
D32*
X151130000Y-106045000D02*
X178405000Y-106045000D01*
D31*
X178054000Y-82473800D02*
X179324000Y-83743800D01*
D32*
X185995769Y-95429231D02*
X185995769Y-88396269D01*
X185625000Y-101700000D02*
X185675000Y-101750000D01*
X183857900Y-86258400D02*
X182854600Y-86258400D01*
X178405000Y-106045000D02*
X182750000Y-101700000D01*
X185975000Y-95450000D02*
X185995769Y-95429231D01*
D31*
X162115500Y-96456500D02*
X171640500Y-96456500D01*
X161544000Y-95885000D02*
X162115500Y-96456500D01*
X159067500Y-93662500D02*
X160845500Y-93662500D01*
X161544000Y-94361000D02*
X161544000Y-95885000D01*
X157797500Y-94932500D02*
X159067500Y-93662500D01*
X160845500Y-93662500D02*
X161544000Y-94361000D01*
X157734000Y-94932500D02*
X157797500Y-94932500D01*
D32*
X159448500Y-97713800D02*
X159544193Y-97808607D01*
X160147886Y-98412300D02*
X162839400Y-98412300D01*
X159544193Y-97808607D02*
X160147886Y-98412300D01*
D31*
X128524000Y-97282000D02*
X128727200Y-97485200D01*
D32*
X155714700Y-97485200D02*
X155943300Y-97713800D01*
X128727200Y-97485200D02*
X155714700Y-97485200D01*
D31*
X126492000Y-97282000D02*
X128524000Y-97282000D01*
D32*
X155943300Y-97713800D02*
X159448500Y-97713800D01*
X154432000Y-99631500D02*
X154216100Y-99415600D01*
X154216100Y-99402900D02*
X153873200Y-99060000D01*
X153873200Y-99060000D02*
X133172200Y-99060000D01*
X128409700Y-99364800D02*
X127546100Y-98501200D01*
X154216100Y-99415600D02*
X154216100Y-99402900D01*
X133172200Y-99060000D02*
X132867400Y-99364800D01*
X132867400Y-99364800D02*
X128409700Y-99364800D01*
X165354000Y-99631500D02*
X154432000Y-99631500D01*
D31*
X160591500Y-90170000D02*
X170370500Y-90170000D01*
X170370500Y-90170000D02*
X170688000Y-89852500D01*
X170688000Y-89852500D02*
X170688000Y-89662000D01*
X160528000Y-90106500D02*
X160591500Y-90170000D01*
D32*
X157238700Y-102654100D02*
X148031200Y-102654100D01*
X187198000Y-97028000D02*
X185026000Y-99200000D01*
X169196900Y-102196900D02*
X157695900Y-102196900D01*
X185026000Y-99200000D02*
X172168800Y-99200000D01*
X187198000Y-90424000D02*
X190093600Y-90424000D01*
X148031200Y-102654100D02*
X147535900Y-102158800D01*
X157695900Y-102196900D02*
X157238700Y-102654100D01*
X187198000Y-90424000D02*
X187198000Y-97028000D01*
X169196900Y-102171900D02*
X169196900Y-102196900D01*
X172168800Y-99200000D02*
X169196900Y-102171900D01*
D33*
X192151000Y-65786000D02*
X192151000Y-114109500D01*
X192151000Y-114109500D02*
X192151000Y-120142000D01*
X129400300Y-131432300D02*
X135051800Y-131432300D01*
X177152300Y-130035300D02*
X177152300Y-120192800D01*
X138925300Y-131432300D02*
X162801300Y-131432300D01*
X166674800Y-131432300D02*
X175755300Y-131432300D01*
X165277800Y-130035300D02*
X165277800Y-122351800D01*
X136448800Y-122415300D02*
X136448800Y-130035300D01*
X138925300Y-131432300D02*
G75*
G02*
X137528300Y-130035300I0J1397000D01*
G01*
X165277800Y-122351800D02*
X164198300Y-122351800D01*
X136448800Y-130035300D02*
G75*
G02*
X135051800Y-131432300I-1397000J0D01*
G01*
X136448800Y-122415300D02*
X137528300Y-122415300D01*
X164198300Y-122351800D02*
X164198300Y-130035300D01*
X177152300Y-130035300D02*
G75*
G02*
X175755300Y-131432300I-1397000J0D01*
G01*
X164198300Y-130035300D02*
G75*
G02*
X162801300Y-131432300I-1397000J0D01*
G01*
X137528300Y-130035300D02*
X137528300Y-122415300D01*
X166674800Y-131432300D02*
G75*
G02*
X165277800Y-130035300I0J1397000D01*
G01*
X129400300Y-131432300D02*
G75*
G02*
X128003300Y-130035300I0J1397000D01*
G01*
X177152300Y-120142000D02*
X177152300Y-120192800D01*
X117221000Y-120230900D02*
X117221000Y-65786000D01*
X192151000Y-65786000D02*
X117221000Y-65786000D01*
X192151000Y-120142000D02*
X181165500Y-120142000D01*
X121762228Y-68675000D02*
G75*
G02*
X118387772Y-68675000I-1687228J0D01*
G01*
X118387772Y-68675000D02*
G75*
G02*
X121762228Y-68675000I1687228J0D01*
G01*
X121762228Y-117348000D02*
G75*
G02*
X118387772Y-117348000I-1687228J0D01*
G01*
X118387772Y-117348000D02*
G75*
G02*
X121762228Y-117348000I1687228J0D01*
G01*
X128003300Y-120230900D02*
X117221000Y-120230900D01*
X127798228Y-117348000D02*
G75*
G02*
X124423772Y-117348000I-1687228J0D01*
G01*
X124423772Y-117348000D02*
G75*
G02*
X127798228Y-117348000I1687228J0D01*
G01*
X137450228Y-113919000D02*
G75*
G02*
X134075772Y-113919000I-1687228J0D01*
G01*
X134075772Y-113919000D02*
G75*
G02*
X137450228Y-113919000I1687228J0D01*
G01*
X181165500Y-120142000D02*
X177152300Y-120142000D01*
X128003300Y-130035300D02*
X128003300Y-120230900D01*
X190887228Y-68625000D02*
G75*
G02*
X187512772Y-68625000I-1687228J0D01*
G01*
X187512772Y-68625000D02*
G75*
G02*
X190887228Y-68625000I1687228J0D01*
G01*
X190887228Y-117348000D02*
G75*
G02*
X187512772Y-117348000I-1687228J0D01*
G01*
X187512772Y-117348000D02*
G75*
G02*
X190887228Y-117348000I1687228J0D01*
G01*
M02*
