G04 #@! TF.GenerationSoftware,KiCad,Pcbnew,8.0.4*
G04 #@! TF.CreationDate,2024-07-27T17:05:36-04:00*
G04 #@! TF.ProjectId,CBM-SD,43424d2d-5344-42e6-9b69-6361645f7063,rev?*
G04 #@! TF.SameCoordinates,Original*
G04 #@! TF.FileFunction,Legend,Top*
G04 #@! TF.FilePolarity,Positive*
%FSLAX46Y46*%
G04 Gerber Fmt 4.6, Leading zero omitted, Abs format (unit mm)*
G04 Created by KiCad (PCBNEW 8.0.4) date 2024-07-27 17:05:36*
%MOMM*%
%LPD*%
G01*
G04 APERTURE LIST*
G04 Aperture macros list*
%AMRoundRect*
0 Rectangle with rounded corners*
0 $1 Rounding radius*
0 $2 $3 $4 $5 $6 $7 $8 $9 X,Y pos of 4 corners*
0 Add a 4 corners polygon primitive as box body*
4,1,4,$2,$3,$4,$5,$6,$7,$8,$9,$2,$3,0*
0 Add four circle primitives for the rounded corners*
1,1,$1+$1,$2,$3*
1,1,$1+$1,$4,$5*
1,1,$1+$1,$6,$7*
1,1,$1+$1,$8,$9*
0 Add four rect primitives between the rounded corners*
20,1,$1+$1,$2,$3,$4,$5,0*
20,1,$1+$1,$4,$5,$6,$7,0*
20,1,$1+$1,$6,$7,$8,$9,0*
20,1,$1+$1,$8,$9,$2,$3,0*%
G04 Aperture macros list end*
%ADD10C,0.381000*%
%ADD11C,0.203200*%
%ADD12C,0.250000*%
%ADD13C,0.200000*%
%ADD14C,0.400000*%
%ADD15C,0.140000*%
%ADD16C,0.150000*%
%ADD17C,0.120000*%
%ADD18C,0.100000*%
%ADD19C,1.600000*%
%ADD20O,1.600000X1.600000*%
%ADD21R,1.600000X1.600000*%
%ADD22C,1.500000*%
%ADD23R,1.800000X1.800000*%
%ADD24C,1.800000*%
%ADD25R,3.500000X3.500000*%
%ADD26RoundRect,0.750000X0.750000X1.000000X-0.750000X1.000000X-0.750000X-1.000000X0.750000X-1.000000X0*%
%ADD27RoundRect,0.875000X0.875000X0.875000X-0.875000X0.875000X-0.875000X-0.875000X0.875000X-0.875000X0*%
%ADD28R,1.700000X1.700000*%
%ADD29O,1.700000X1.700000*%
%ADD30O,2.410000X8.760000*%
%ADD31C,2.200000*%
%ADD32C,1.700000*%
%ADD33RoundRect,0.273700X-0.576300X0.576300X-0.576300X-0.576300X0.576300X-0.576300X0.576300X0.576300X0*%
%ADD34C,1.550000*%
G04 #@! TA.AperFunction,Profile*
%ADD35C,0.200660*%
G04 #@! TD*
G04 APERTURE END LIST*
D10*
X182549800Y-88620600D02*
X180975000Y-89458800D01*
X180975000Y-88874600D01*
X177368200Y-88874600D01*
X177368200Y-88366600D01*
X180975000Y-88366600D01*
X180975000Y-87934800D01*
X182549800Y-88620600D01*
G36*
X182549800Y-88620600D02*
G01*
X180975000Y-89458800D01*
X180975000Y-88874600D01*
X177368200Y-88874600D01*
X177368200Y-88366600D01*
X180975000Y-88366600D01*
X180975000Y-87934800D01*
X182549800Y-88620600D01*
G37*
X131749800Y-88341200D02*
X135356600Y-88341200D01*
X135356600Y-88823800D01*
X131749800Y-88823800D01*
X131749800Y-89255600D01*
X130175000Y-88569800D01*
X131749800Y-87731600D01*
X131749800Y-88341200D01*
G36*
X131749800Y-88341200D02*
G01*
X135356600Y-88341200D01*
X135356600Y-88823800D01*
X131749800Y-88823800D01*
X131749800Y-89255600D01*
X130175000Y-88569800D01*
X131749800Y-87731600D01*
X131749800Y-88341200D01*
G37*
X117729999Y-71476985D02*
X126492000Y-71475600D01*
X126492000Y-77304900D02*
X117729999Y-77306285D01*
X126492000Y-71539100D02*
X126492000Y-71475600D01*
X126492000Y-77304900D02*
X126492000Y-71539100D01*
D11*
X179249476Y-67268453D02*
X178765666Y-67268453D01*
X178765666Y-67268453D02*
X178717285Y-67752263D01*
X178717285Y-67752263D02*
X178765666Y-67703882D01*
X178765666Y-67703882D02*
X178862428Y-67655501D01*
X178862428Y-67655501D02*
X179104333Y-67655501D01*
X179104333Y-67655501D02*
X179201095Y-67703882D01*
X179201095Y-67703882D02*
X179249476Y-67752263D01*
X179249476Y-67752263D02*
X179297857Y-67849025D01*
X179297857Y-67849025D02*
X179297857Y-68090930D01*
X179297857Y-68090930D02*
X179249476Y-68187692D01*
X179249476Y-68187692D02*
X179201095Y-68236073D01*
X179201095Y-68236073D02*
X179104333Y-68284453D01*
X179104333Y-68284453D02*
X178862428Y-68284453D01*
X178862428Y-68284453D02*
X178765666Y-68236073D01*
X178765666Y-68236073D02*
X178717285Y-68187692D01*
X179588142Y-67268453D02*
X179926809Y-68284453D01*
X179926809Y-68284453D02*
X180265476Y-67268453D01*
X181378237Y-68284453D02*
X181378237Y-67268453D01*
X181378237Y-67268453D02*
X181620142Y-67268453D01*
X181620142Y-67268453D02*
X181765285Y-67316834D01*
X181765285Y-67316834D02*
X181862047Y-67413596D01*
X181862047Y-67413596D02*
X181910428Y-67510358D01*
X181910428Y-67510358D02*
X181958809Y-67703882D01*
X181958809Y-67703882D02*
X181958809Y-67849025D01*
X181958809Y-67849025D02*
X181910428Y-68042549D01*
X181910428Y-68042549D02*
X181862047Y-68139311D01*
X181862047Y-68139311D02*
X181765285Y-68236073D01*
X181765285Y-68236073D02*
X181620142Y-68284453D01*
X181620142Y-68284453D02*
X181378237Y-68284453D01*
X182974809Y-68187692D02*
X182926428Y-68236073D01*
X182926428Y-68236073D02*
X182781285Y-68284453D01*
X182781285Y-68284453D02*
X182684523Y-68284453D01*
X182684523Y-68284453D02*
X182539380Y-68236073D01*
X182539380Y-68236073D02*
X182442618Y-68139311D01*
X182442618Y-68139311D02*
X182394237Y-68042549D01*
X182394237Y-68042549D02*
X182345856Y-67849025D01*
X182345856Y-67849025D02*
X182345856Y-67703882D01*
X182345856Y-67703882D02*
X182394237Y-67510358D01*
X182394237Y-67510358D02*
X182442618Y-67413596D01*
X182442618Y-67413596D02*
X182539380Y-67316834D01*
X182539380Y-67316834D02*
X182684523Y-67268453D01*
X182684523Y-67268453D02*
X182781285Y-67268453D01*
X182781285Y-67268453D02*
X182926428Y-67316834D01*
X182926428Y-67316834D02*
X182974809Y-67365215D01*
X183410237Y-67897406D02*
X184184333Y-67897406D01*
D12*
X117866852Y-95904090D02*
X119106852Y-95904090D01*
X119106852Y-95904090D02*
X119106852Y-96376471D01*
X119106852Y-96376471D02*
X119047804Y-96494566D01*
X119047804Y-96494566D02*
X118988757Y-96553613D01*
X118988757Y-96553613D02*
X118870661Y-96612661D01*
X118870661Y-96612661D02*
X118693519Y-96612661D01*
X118693519Y-96612661D02*
X118575423Y-96553613D01*
X118575423Y-96553613D02*
X118516376Y-96494566D01*
X118516376Y-96494566D02*
X118457328Y-96376471D01*
X118457328Y-96376471D02*
X118457328Y-95904090D01*
X119106852Y-97380280D02*
X119106852Y-97616471D01*
X119106852Y-97616471D02*
X119047804Y-97734566D01*
X119047804Y-97734566D02*
X118929709Y-97852661D01*
X118929709Y-97852661D02*
X118693519Y-97911709D01*
X118693519Y-97911709D02*
X118280185Y-97911709D01*
X118280185Y-97911709D02*
X118043995Y-97852661D01*
X118043995Y-97852661D02*
X117925900Y-97734566D01*
X117925900Y-97734566D02*
X117866852Y-97616471D01*
X117866852Y-97616471D02*
X117866852Y-97380280D01*
X117866852Y-97380280D02*
X117925900Y-97262185D01*
X117925900Y-97262185D02*
X118043995Y-97144090D01*
X118043995Y-97144090D02*
X118280185Y-97085042D01*
X118280185Y-97085042D02*
X118693519Y-97085042D01*
X118693519Y-97085042D02*
X118929709Y-97144090D01*
X118929709Y-97144090D02*
X119047804Y-97262185D01*
X119047804Y-97262185D02*
X119106852Y-97380280D01*
X119106852Y-98325042D02*
X117866852Y-98620280D01*
X117866852Y-98620280D02*
X118752566Y-98856471D01*
X118752566Y-98856471D02*
X117866852Y-99092661D01*
X117866852Y-99092661D02*
X119106852Y-99387900D01*
X118516376Y-99860281D02*
X118516376Y-100273614D01*
X117866852Y-100450757D02*
X117866852Y-99860281D01*
X117866852Y-99860281D02*
X119106852Y-99860281D01*
X119106852Y-99860281D02*
X119106852Y-100450757D01*
X117866852Y-101690757D02*
X118457328Y-101277424D01*
X117866852Y-100982186D02*
X119106852Y-100982186D01*
X119106852Y-100982186D02*
X119106852Y-101454567D01*
X119106852Y-101454567D02*
X119047804Y-101572662D01*
X119047804Y-101572662D02*
X118988757Y-101631709D01*
X118988757Y-101631709D02*
X118870661Y-101690757D01*
X118870661Y-101690757D02*
X118693519Y-101690757D01*
X118693519Y-101690757D02*
X118575423Y-101631709D01*
X118575423Y-101631709D02*
X118516376Y-101572662D01*
X118516376Y-101572662D02*
X118457328Y-101454567D01*
X118457328Y-101454567D02*
X118457328Y-100982186D01*
D11*
X120637905Y-75272734D02*
X120541143Y-75224353D01*
X120541143Y-75224353D02*
X120396000Y-75224353D01*
X120396000Y-75224353D02*
X120250857Y-75272734D01*
X120250857Y-75272734D02*
X120154095Y-75369496D01*
X120154095Y-75369496D02*
X120105714Y-75466258D01*
X120105714Y-75466258D02*
X120057333Y-75659782D01*
X120057333Y-75659782D02*
X120057333Y-75804925D01*
X120057333Y-75804925D02*
X120105714Y-75998449D01*
X120105714Y-75998449D02*
X120154095Y-76095211D01*
X120154095Y-76095211D02*
X120250857Y-76191973D01*
X120250857Y-76191973D02*
X120396000Y-76240353D01*
X120396000Y-76240353D02*
X120492762Y-76240353D01*
X120492762Y-76240353D02*
X120637905Y-76191973D01*
X120637905Y-76191973D02*
X120686286Y-76143592D01*
X120686286Y-76143592D02*
X120686286Y-75804925D01*
X120686286Y-75804925D02*
X120492762Y-75804925D01*
X121121714Y-76240353D02*
X121121714Y-75224353D01*
X121121714Y-75224353D02*
X121702286Y-76240353D01*
X121702286Y-76240353D02*
X121702286Y-75224353D01*
X122186095Y-76240353D02*
X122186095Y-75224353D01*
X122186095Y-75224353D02*
X122428000Y-75224353D01*
X122428000Y-75224353D02*
X122573143Y-75272734D01*
X122573143Y-75272734D02*
X122669905Y-75369496D01*
X122669905Y-75369496D02*
X122718286Y-75466258D01*
X122718286Y-75466258D02*
X122766667Y-75659782D01*
X122766667Y-75659782D02*
X122766667Y-75804925D01*
X122766667Y-75804925D02*
X122718286Y-75998449D01*
X122718286Y-75998449D02*
X122669905Y-76095211D01*
X122669905Y-76095211D02*
X122573143Y-76191973D01*
X122573143Y-76191973D02*
X122428000Y-76240353D01*
X122428000Y-76240353D02*
X122186095Y-76240353D01*
D12*
X118567176Y-103853486D02*
X118567176Y-104266819D01*
X117917652Y-104443962D02*
X117917652Y-103853486D01*
X117917652Y-103853486D02*
X119157652Y-103853486D01*
X119157652Y-103853486D02*
X119157652Y-104443962D01*
X117917652Y-105683962D02*
X118508128Y-105270629D01*
X117917652Y-104975391D02*
X119157652Y-104975391D01*
X119157652Y-104975391D02*
X119157652Y-105447772D01*
X119157652Y-105447772D02*
X119098604Y-105565867D01*
X119098604Y-105565867D02*
X119039557Y-105624914D01*
X119039557Y-105624914D02*
X118921461Y-105683962D01*
X118921461Y-105683962D02*
X118744319Y-105683962D01*
X118744319Y-105683962D02*
X118626223Y-105624914D01*
X118626223Y-105624914D02*
X118567176Y-105565867D01*
X118567176Y-105565867D02*
X118508128Y-105447772D01*
X118508128Y-105447772D02*
X118508128Y-104975391D01*
X117917652Y-106923962D02*
X118508128Y-106510629D01*
X117917652Y-106215391D02*
X119157652Y-106215391D01*
X119157652Y-106215391D02*
X119157652Y-106687772D01*
X119157652Y-106687772D02*
X119098604Y-106805867D01*
X119098604Y-106805867D02*
X119039557Y-106864914D01*
X119039557Y-106864914D02*
X118921461Y-106923962D01*
X118921461Y-106923962D02*
X118744319Y-106923962D01*
X118744319Y-106923962D02*
X118626223Y-106864914D01*
X118626223Y-106864914D02*
X118567176Y-106805867D01*
X118567176Y-106805867D02*
X118508128Y-106687772D01*
X118508128Y-106687772D02*
X118508128Y-106215391D01*
X182553143Y-113330857D02*
X182496000Y-113388000D01*
X182496000Y-113388000D02*
X182324572Y-113445142D01*
X182324572Y-113445142D02*
X182210286Y-113445142D01*
X182210286Y-113445142D02*
X182038857Y-113388000D01*
X182038857Y-113388000D02*
X181924572Y-113273714D01*
X181924572Y-113273714D02*
X181867429Y-113159428D01*
X181867429Y-113159428D02*
X181810286Y-112930857D01*
X181810286Y-112930857D02*
X181810286Y-112759428D01*
X181810286Y-112759428D02*
X181867429Y-112530857D01*
X181867429Y-112530857D02*
X181924572Y-112416571D01*
X181924572Y-112416571D02*
X182038857Y-112302285D01*
X182038857Y-112302285D02*
X182210286Y-112245142D01*
X182210286Y-112245142D02*
X182324572Y-112245142D01*
X182324572Y-112245142D02*
X182496000Y-112302285D01*
X182496000Y-112302285D02*
X182553143Y-112359428D01*
X183010286Y-113102285D02*
X183581715Y-113102285D01*
X182896000Y-113445142D02*
X183296000Y-112245142D01*
X183296000Y-112245142D02*
X183696000Y-113445142D01*
X184781714Y-113445142D02*
X184381714Y-112873714D01*
X184096000Y-113445142D02*
X184096000Y-112245142D01*
X184096000Y-112245142D02*
X184553143Y-112245142D01*
X184553143Y-112245142D02*
X184667428Y-112302285D01*
X184667428Y-112302285D02*
X184724571Y-112359428D01*
X184724571Y-112359428D02*
X184781714Y-112473714D01*
X184781714Y-112473714D02*
X184781714Y-112645142D01*
X184781714Y-112645142D02*
X184724571Y-112759428D01*
X184724571Y-112759428D02*
X184667428Y-112816571D01*
X184667428Y-112816571D02*
X184553143Y-112873714D01*
X184553143Y-112873714D02*
X184096000Y-112873714D01*
X185296000Y-113445142D02*
X185296000Y-112245142D01*
X185296000Y-112245142D02*
X185581714Y-112245142D01*
X185581714Y-112245142D02*
X185753143Y-112302285D01*
X185753143Y-112302285D02*
X185867428Y-112416571D01*
X185867428Y-112416571D02*
X185924571Y-112530857D01*
X185924571Y-112530857D02*
X185981714Y-112759428D01*
X185981714Y-112759428D02*
X185981714Y-112930857D01*
X185981714Y-112930857D02*
X185924571Y-113159428D01*
X185924571Y-113159428D02*
X185867428Y-113273714D01*
X185867428Y-113273714D02*
X185753143Y-113388000D01*
X185753143Y-113388000D02*
X185581714Y-113445142D01*
X185581714Y-113445142D02*
X185296000Y-113445142D01*
D13*
X186997381Y-107686480D02*
X186630714Y-107162671D01*
X186368809Y-107686480D02*
X186368809Y-106586480D01*
X186368809Y-106586480D02*
X186787857Y-106586480D01*
X186787857Y-106586480D02*
X186892619Y-106638861D01*
X186892619Y-106638861D02*
X186945000Y-106691242D01*
X186945000Y-106691242D02*
X186997381Y-106796004D01*
X186997381Y-106796004D02*
X186997381Y-106953147D01*
X186997381Y-106953147D02*
X186945000Y-107057909D01*
X186945000Y-107057909D02*
X186892619Y-107110290D01*
X186892619Y-107110290D02*
X186787857Y-107162671D01*
X186787857Y-107162671D02*
X186368809Y-107162671D01*
X187468809Y-107110290D02*
X187835476Y-107110290D01*
X187992619Y-107686480D02*
X187468809Y-107686480D01*
X187468809Y-107686480D02*
X187468809Y-106586480D01*
X187468809Y-106586480D02*
X187992619Y-106586480D01*
X188411666Y-107634100D02*
X188568809Y-107686480D01*
X188568809Y-107686480D02*
X188830714Y-107686480D01*
X188830714Y-107686480D02*
X188935476Y-107634100D01*
X188935476Y-107634100D02*
X188987857Y-107581719D01*
X188987857Y-107581719D02*
X189040238Y-107476957D01*
X189040238Y-107476957D02*
X189040238Y-107372195D01*
X189040238Y-107372195D02*
X188987857Y-107267433D01*
X188987857Y-107267433D02*
X188935476Y-107215052D01*
X188935476Y-107215052D02*
X188830714Y-107162671D01*
X188830714Y-107162671D02*
X188621190Y-107110290D01*
X188621190Y-107110290D02*
X188516428Y-107057909D01*
X188516428Y-107057909D02*
X188464047Y-107005528D01*
X188464047Y-107005528D02*
X188411666Y-106900766D01*
X188411666Y-106900766D02*
X188411666Y-106796004D01*
X188411666Y-106796004D02*
X188464047Y-106691242D01*
X188464047Y-106691242D02*
X188516428Y-106638861D01*
X188516428Y-106638861D02*
X188621190Y-106586480D01*
X188621190Y-106586480D02*
X188883095Y-106586480D01*
X188883095Y-106586480D02*
X189040238Y-106638861D01*
X189511666Y-107110290D02*
X189878333Y-107110290D01*
X190035476Y-107686480D02*
X189511666Y-107686480D01*
X189511666Y-107686480D02*
X189511666Y-106586480D01*
X189511666Y-106586480D02*
X190035476Y-106586480D01*
X190349761Y-106586480D02*
X190978333Y-106586480D01*
X190664047Y-107686480D02*
X190664047Y-106586480D01*
D14*
X149237157Y-78066700D02*
X149037157Y-78166700D01*
X149037157Y-78166700D02*
X148637157Y-78166700D01*
X148637157Y-78166700D02*
X148437157Y-78066700D01*
X148437157Y-78066700D02*
X148337157Y-77966700D01*
X148337157Y-77966700D02*
X148237157Y-77766700D01*
X148237157Y-77766700D02*
X148237157Y-77166700D01*
X148237157Y-77166700D02*
X148337157Y-76966700D01*
X148337157Y-76966700D02*
X148437157Y-76866700D01*
X148437157Y-76866700D02*
X148637157Y-76766700D01*
X148637157Y-76766700D02*
X149037157Y-76766700D01*
X149037157Y-76766700D02*
X149237157Y-76866700D01*
X150137157Y-78166700D02*
X150137157Y-76066700D01*
X150137157Y-76866700D02*
X150337157Y-76766700D01*
X150337157Y-76766700D02*
X150737157Y-76766700D01*
X150737157Y-76766700D02*
X150937157Y-76866700D01*
X150937157Y-76866700D02*
X151037157Y-76966700D01*
X151037157Y-76966700D02*
X151137157Y-77166700D01*
X151137157Y-77166700D02*
X151137157Y-77766700D01*
X151137157Y-77766700D02*
X151037157Y-77966700D01*
X151037157Y-77966700D02*
X150937157Y-78066700D01*
X150937157Y-78066700D02*
X150737157Y-78166700D01*
X150737157Y-78166700D02*
X150337157Y-78166700D01*
X150337157Y-78166700D02*
X150137157Y-78066700D01*
X152037157Y-78166700D02*
X152037157Y-76766700D01*
X152037157Y-76966700D02*
X152137157Y-76866700D01*
X152137157Y-76866700D02*
X152337157Y-76766700D01*
X152337157Y-76766700D02*
X152637157Y-76766700D01*
X152637157Y-76766700D02*
X152837157Y-76866700D01*
X152837157Y-76866700D02*
X152937157Y-77066700D01*
X152937157Y-77066700D02*
X152937157Y-78166700D01*
X152937157Y-77066700D02*
X153037157Y-76866700D01*
X153037157Y-76866700D02*
X153237157Y-76766700D01*
X153237157Y-76766700D02*
X153537157Y-76766700D01*
X153537157Y-76766700D02*
X153737157Y-76866700D01*
X153737157Y-76866700D02*
X153837157Y-77066700D01*
X153837157Y-77066700D02*
X153837157Y-78166700D01*
X154737157Y-78066700D02*
X155037157Y-78166700D01*
X155037157Y-78166700D02*
X155537157Y-78166700D01*
X155537157Y-78166700D02*
X155737157Y-78066700D01*
X155737157Y-78066700D02*
X155837157Y-77966700D01*
X155837157Y-77966700D02*
X155937157Y-77766700D01*
X155937157Y-77766700D02*
X155937157Y-77566700D01*
X155937157Y-77566700D02*
X155837157Y-77366700D01*
X155837157Y-77366700D02*
X155737157Y-77266700D01*
X155737157Y-77266700D02*
X155537157Y-77166700D01*
X155537157Y-77166700D02*
X155137157Y-77066700D01*
X155137157Y-77066700D02*
X154937157Y-76966700D01*
X154937157Y-76966700D02*
X154837157Y-76866700D01*
X154837157Y-76866700D02*
X154737157Y-76666700D01*
X154737157Y-76666700D02*
X154737157Y-76466700D01*
X154737157Y-76466700D02*
X154837157Y-76266700D01*
X154837157Y-76266700D02*
X154937157Y-76166700D01*
X154937157Y-76166700D02*
X155137157Y-76066700D01*
X155137157Y-76066700D02*
X155637157Y-76066700D01*
X155637157Y-76066700D02*
X155937157Y-76166700D01*
X156837157Y-78166700D02*
X156837157Y-76066700D01*
X156837157Y-76066700D02*
X157337157Y-76066700D01*
X157337157Y-76066700D02*
X157637157Y-76166700D01*
X157637157Y-76166700D02*
X157837157Y-76366700D01*
X157837157Y-76366700D02*
X157937157Y-76566700D01*
X157937157Y-76566700D02*
X158037157Y-76966700D01*
X158037157Y-76966700D02*
X158037157Y-77266700D01*
X158037157Y-77266700D02*
X157937157Y-77666700D01*
X157937157Y-77666700D02*
X157837157Y-77866700D01*
X157837157Y-77866700D02*
X157637157Y-78066700D01*
X157637157Y-78066700D02*
X157337157Y-78166700D01*
X157337157Y-78166700D02*
X156837157Y-78166700D01*
X158937157Y-77366700D02*
X160537157Y-77366700D01*
X161537157Y-78166700D02*
X161537157Y-76766700D01*
X161537157Y-76966700D02*
X161637157Y-76866700D01*
X161637157Y-76866700D02*
X161837157Y-76766700D01*
X161837157Y-76766700D02*
X162137157Y-76766700D01*
X162137157Y-76766700D02*
X162337157Y-76866700D01*
X162337157Y-76866700D02*
X162437157Y-77066700D01*
X162437157Y-77066700D02*
X162437157Y-78166700D01*
X162437157Y-77066700D02*
X162537157Y-76866700D01*
X162537157Y-76866700D02*
X162737157Y-76766700D01*
X162737157Y-76766700D02*
X163037157Y-76766700D01*
X163037157Y-76766700D02*
X163237157Y-76866700D01*
X163237157Y-76866700D02*
X163337157Y-77066700D01*
X163337157Y-77066700D02*
X163337157Y-78166700D01*
X164337157Y-78166700D02*
X164337157Y-76766700D01*
X164337157Y-76066700D02*
X164237157Y-76166700D01*
X164237157Y-76166700D02*
X164337157Y-76266700D01*
X164337157Y-76266700D02*
X164437157Y-76166700D01*
X164437157Y-76166700D02*
X164337157Y-76066700D01*
X164337157Y-76066700D02*
X164337157Y-76266700D01*
X165337157Y-76766700D02*
X165337157Y-78166700D01*
X165337157Y-76966700D02*
X165437157Y-76866700D01*
X165437157Y-76866700D02*
X165637157Y-76766700D01*
X165637157Y-76766700D02*
X165937157Y-76766700D01*
X165937157Y-76766700D02*
X166137157Y-76866700D01*
X166137157Y-76866700D02*
X166237157Y-77066700D01*
X166237157Y-77066700D02*
X166237157Y-78166700D01*
X167237157Y-78166700D02*
X167237157Y-76766700D01*
X167237157Y-76066700D02*
X167137157Y-76166700D01*
X167137157Y-76166700D02*
X167237157Y-76266700D01*
X167237157Y-76266700D02*
X167337157Y-76166700D01*
X167337157Y-76166700D02*
X167237157Y-76066700D01*
X167237157Y-76066700D02*
X167237157Y-76266700D01*
D13*
X149210189Y-79081219D02*
X149543522Y-80081219D01*
X149543522Y-80081219D02*
X149876855Y-79081219D01*
X150733998Y-80081219D02*
X150162570Y-80081219D01*
X150448284Y-80081219D02*
X150448284Y-79081219D01*
X150448284Y-79081219D02*
X150353046Y-79224076D01*
X150353046Y-79224076D02*
X150257808Y-79319314D01*
X150257808Y-79319314D02*
X150162570Y-79366933D01*
X151162570Y-79985980D02*
X151210189Y-80033600D01*
X151210189Y-80033600D02*
X151162570Y-80081219D01*
X151162570Y-80081219D02*
X151114951Y-80033600D01*
X151114951Y-80033600D02*
X151162570Y-79985980D01*
X151162570Y-79985980D02*
X151162570Y-80081219D01*
X151591141Y-79176457D02*
X151638760Y-79128838D01*
X151638760Y-79128838D02*
X151733998Y-79081219D01*
X151733998Y-79081219D02*
X151972093Y-79081219D01*
X151972093Y-79081219D02*
X152067331Y-79128838D01*
X152067331Y-79128838D02*
X152114950Y-79176457D01*
X152114950Y-79176457D02*
X152162569Y-79271695D01*
X152162569Y-79271695D02*
X152162569Y-79366933D01*
X152162569Y-79366933D02*
X152114950Y-79509790D01*
X152114950Y-79509790D02*
X151543522Y-80081219D01*
X151543522Y-80081219D02*
X152162569Y-80081219D01*
X152495903Y-79414552D02*
X152733998Y-80081219D01*
X152733998Y-80081219D02*
X152972093Y-79414552D01*
X154114951Y-80081219D02*
X154114951Y-79081219D01*
X154114951Y-79462171D02*
X154210189Y-79414552D01*
X154210189Y-79414552D02*
X154400665Y-79414552D01*
X154400665Y-79414552D02*
X154495903Y-79462171D01*
X154495903Y-79462171D02*
X154543522Y-79509790D01*
X154543522Y-79509790D02*
X154591141Y-79605028D01*
X154591141Y-79605028D02*
X154591141Y-79890742D01*
X154591141Y-79890742D02*
X154543522Y-79985980D01*
X154543522Y-79985980D02*
X154495903Y-80033600D01*
X154495903Y-80033600D02*
X154400665Y-80081219D01*
X154400665Y-80081219D02*
X154210189Y-80081219D01*
X154210189Y-80081219D02*
X154114951Y-80033600D01*
X154924475Y-79414552D02*
X155162570Y-80081219D01*
X155400665Y-79414552D02*
X155162570Y-80081219D01*
X155162570Y-80081219D02*
X155067332Y-80319314D01*
X155067332Y-80319314D02*
X155019713Y-80366933D01*
X155019713Y-80366933D02*
X154924475Y-80414552D01*
X156495904Y-80033600D02*
X156638761Y-80081219D01*
X156638761Y-80081219D02*
X156876856Y-80081219D01*
X156876856Y-80081219D02*
X156972094Y-80033600D01*
X156972094Y-80033600D02*
X157019713Y-79985980D01*
X157019713Y-79985980D02*
X157067332Y-79890742D01*
X157067332Y-79890742D02*
X157067332Y-79795504D01*
X157067332Y-79795504D02*
X157019713Y-79700266D01*
X157019713Y-79700266D02*
X156972094Y-79652647D01*
X156972094Y-79652647D02*
X156876856Y-79605028D01*
X156876856Y-79605028D02*
X156686380Y-79557409D01*
X156686380Y-79557409D02*
X156591142Y-79509790D01*
X156591142Y-79509790D02*
X156543523Y-79462171D01*
X156543523Y-79462171D02*
X156495904Y-79366933D01*
X156495904Y-79366933D02*
X156495904Y-79271695D01*
X156495904Y-79271695D02*
X156543523Y-79176457D01*
X156543523Y-79176457D02*
X156591142Y-79128838D01*
X156591142Y-79128838D02*
X156686380Y-79081219D01*
X156686380Y-79081219D02*
X156924475Y-79081219D01*
X156924475Y-79081219D02*
X157067332Y-79128838D01*
X157353047Y-79414552D02*
X157733999Y-79414552D01*
X157495904Y-79081219D02*
X157495904Y-79938361D01*
X157495904Y-79938361D02*
X157543523Y-80033600D01*
X157543523Y-80033600D02*
X157638761Y-80081219D01*
X157638761Y-80081219D02*
X157733999Y-80081219D01*
X158448285Y-80033600D02*
X158353047Y-80081219D01*
X158353047Y-80081219D02*
X158162571Y-80081219D01*
X158162571Y-80081219D02*
X158067333Y-80033600D01*
X158067333Y-80033600D02*
X158019714Y-79938361D01*
X158019714Y-79938361D02*
X158019714Y-79557409D01*
X158019714Y-79557409D02*
X158067333Y-79462171D01*
X158067333Y-79462171D02*
X158162571Y-79414552D01*
X158162571Y-79414552D02*
X158353047Y-79414552D01*
X158353047Y-79414552D02*
X158448285Y-79462171D01*
X158448285Y-79462171D02*
X158495904Y-79557409D01*
X158495904Y-79557409D02*
X158495904Y-79652647D01*
X158495904Y-79652647D02*
X158019714Y-79747885D01*
X158829238Y-79414552D02*
X159067333Y-80081219D01*
X159067333Y-80081219D02*
X159305428Y-79414552D01*
X160067333Y-80033600D02*
X159972095Y-80081219D01*
X159972095Y-80081219D02*
X159781619Y-80081219D01*
X159781619Y-80081219D02*
X159686381Y-80033600D01*
X159686381Y-80033600D02*
X159638762Y-79938361D01*
X159638762Y-79938361D02*
X159638762Y-79557409D01*
X159638762Y-79557409D02*
X159686381Y-79462171D01*
X159686381Y-79462171D02*
X159781619Y-79414552D01*
X159781619Y-79414552D02*
X159972095Y-79414552D01*
X159972095Y-79414552D02*
X160067333Y-79462171D01*
X160067333Y-79462171D02*
X160114952Y-79557409D01*
X160114952Y-79557409D02*
X160114952Y-79652647D01*
X160114952Y-79652647D02*
X159638762Y-79747885D01*
X161591143Y-79081219D02*
X161591143Y-79795504D01*
X161591143Y-79795504D02*
X161543524Y-79938361D01*
X161543524Y-79938361D02*
X161448286Y-80033600D01*
X161448286Y-80033600D02*
X161305429Y-80081219D01*
X161305429Y-80081219D02*
X161210191Y-80081219D01*
X162067334Y-79985980D02*
X162114953Y-80033600D01*
X162114953Y-80033600D02*
X162067334Y-80081219D01*
X162067334Y-80081219D02*
X162019715Y-80033600D01*
X162019715Y-80033600D02*
X162067334Y-79985980D01*
X162067334Y-79985980D02*
X162067334Y-80081219D01*
X163829238Y-79128838D02*
X163734000Y-79081219D01*
X163734000Y-79081219D02*
X163591143Y-79081219D01*
X163591143Y-79081219D02*
X163448286Y-79128838D01*
X163448286Y-79128838D02*
X163353048Y-79224076D01*
X163353048Y-79224076D02*
X163305429Y-79319314D01*
X163305429Y-79319314D02*
X163257810Y-79509790D01*
X163257810Y-79509790D02*
X163257810Y-79652647D01*
X163257810Y-79652647D02*
X163305429Y-79843123D01*
X163305429Y-79843123D02*
X163353048Y-79938361D01*
X163353048Y-79938361D02*
X163448286Y-80033600D01*
X163448286Y-80033600D02*
X163591143Y-80081219D01*
X163591143Y-80081219D02*
X163686381Y-80081219D01*
X163686381Y-80081219D02*
X163829238Y-80033600D01*
X163829238Y-80033600D02*
X163876857Y-79985980D01*
X163876857Y-79985980D02*
X163876857Y-79652647D01*
X163876857Y-79652647D02*
X163686381Y-79652647D01*
X164305429Y-80081219D02*
X164305429Y-79414552D01*
X164305429Y-79605028D02*
X164353048Y-79509790D01*
X164353048Y-79509790D02*
X164400667Y-79462171D01*
X164400667Y-79462171D02*
X164495905Y-79414552D01*
X164495905Y-79414552D02*
X164591143Y-79414552D01*
X165353048Y-80081219D02*
X165353048Y-79557409D01*
X165353048Y-79557409D02*
X165305429Y-79462171D01*
X165305429Y-79462171D02*
X165210191Y-79414552D01*
X165210191Y-79414552D02*
X165019715Y-79414552D01*
X165019715Y-79414552D02*
X164924477Y-79462171D01*
X165353048Y-80033600D02*
X165257810Y-80081219D01*
X165257810Y-80081219D02*
X165019715Y-80081219D01*
X165019715Y-80081219D02*
X164924477Y-80033600D01*
X164924477Y-80033600D02*
X164876858Y-79938361D01*
X164876858Y-79938361D02*
X164876858Y-79843123D01*
X164876858Y-79843123D02*
X164924477Y-79747885D01*
X164924477Y-79747885D02*
X165019715Y-79700266D01*
X165019715Y-79700266D02*
X165257810Y-79700266D01*
X165257810Y-79700266D02*
X165353048Y-79652647D01*
X165734001Y-79414552D02*
X165972096Y-80081219D01*
X166210191Y-79414552D02*
X165972096Y-80081219D01*
X165972096Y-80081219D02*
X165876858Y-80319314D01*
X165876858Y-80319314D02*
X165829239Y-80366933D01*
X165829239Y-80366933D02*
X165734001Y-80414552D01*
D15*
X130417474Y-82747767D02*
X130531760Y-82785862D01*
X130531760Y-82785862D02*
X130569855Y-82823958D01*
X130569855Y-82823958D02*
X130607951Y-82900148D01*
X130607951Y-82900148D02*
X130607951Y-83014434D01*
X130607951Y-83014434D02*
X130569855Y-83090624D01*
X130569855Y-83090624D02*
X130531760Y-83128720D01*
X130531760Y-83128720D02*
X130455570Y-83166815D01*
X130455570Y-83166815D02*
X130150808Y-83166815D01*
X130150808Y-83166815D02*
X130150808Y-82366815D01*
X130150808Y-82366815D02*
X130417474Y-82366815D01*
X130417474Y-82366815D02*
X130493665Y-82404910D01*
X130493665Y-82404910D02*
X130531760Y-82443005D01*
X130531760Y-82443005D02*
X130569855Y-82519196D01*
X130569855Y-82519196D02*
X130569855Y-82595386D01*
X130569855Y-82595386D02*
X130531760Y-82671577D01*
X130531760Y-82671577D02*
X130493665Y-82709672D01*
X130493665Y-82709672D02*
X130417474Y-82747767D01*
X130417474Y-82747767D02*
X130150808Y-82747767D01*
X131293665Y-83166815D02*
X131293665Y-82747767D01*
X131293665Y-82747767D02*
X131255570Y-82671577D01*
X131255570Y-82671577D02*
X131179379Y-82633481D01*
X131179379Y-82633481D02*
X131026998Y-82633481D01*
X131026998Y-82633481D02*
X130950808Y-82671577D01*
X131293665Y-83128720D02*
X131217474Y-83166815D01*
X131217474Y-83166815D02*
X131026998Y-83166815D01*
X131026998Y-83166815D02*
X130950808Y-83128720D01*
X130950808Y-83128720D02*
X130912712Y-83052529D01*
X130912712Y-83052529D02*
X130912712Y-82976339D01*
X130912712Y-82976339D02*
X130950808Y-82900148D01*
X130950808Y-82900148D02*
X131026998Y-82862053D01*
X131026998Y-82862053D02*
X131217474Y-82862053D01*
X131217474Y-82862053D02*
X131293665Y-82823958D01*
X131636522Y-83128720D02*
X131712713Y-83166815D01*
X131712713Y-83166815D02*
X131865094Y-83166815D01*
X131865094Y-83166815D02*
X131941284Y-83128720D01*
X131941284Y-83128720D02*
X131979380Y-83052529D01*
X131979380Y-83052529D02*
X131979380Y-83014434D01*
X131979380Y-83014434D02*
X131941284Y-82938243D01*
X131941284Y-82938243D02*
X131865094Y-82900148D01*
X131865094Y-82900148D02*
X131750808Y-82900148D01*
X131750808Y-82900148D02*
X131674618Y-82862053D01*
X131674618Y-82862053D02*
X131636522Y-82785862D01*
X131636522Y-82785862D02*
X131636522Y-82747767D01*
X131636522Y-82747767D02*
X131674618Y-82671577D01*
X131674618Y-82671577D02*
X131750808Y-82633481D01*
X131750808Y-82633481D02*
X131865094Y-82633481D01*
X131865094Y-82633481D02*
X131941284Y-82671577D01*
X132626999Y-83128720D02*
X132550808Y-83166815D01*
X132550808Y-83166815D02*
X132398427Y-83166815D01*
X132398427Y-83166815D02*
X132322237Y-83128720D01*
X132322237Y-83128720D02*
X132284141Y-83052529D01*
X132284141Y-83052529D02*
X132284141Y-82747767D01*
X132284141Y-82747767D02*
X132322237Y-82671577D01*
X132322237Y-82671577D02*
X132398427Y-82633481D01*
X132398427Y-82633481D02*
X132550808Y-82633481D01*
X132550808Y-82633481D02*
X132626999Y-82671577D01*
X132626999Y-82671577D02*
X132665094Y-82747767D01*
X132665094Y-82747767D02*
X132665094Y-82823958D01*
X132665094Y-82823958D02*
X132284141Y-82900148D01*
X133350808Y-83166815D02*
X133350808Y-82366815D01*
X133350808Y-83128720D02*
X133274617Y-83166815D01*
X133274617Y-83166815D02*
X133122236Y-83166815D01*
X133122236Y-83166815D02*
X133046046Y-83128720D01*
X133046046Y-83128720D02*
X133007951Y-83090624D01*
X133007951Y-83090624D02*
X132969855Y-83014434D01*
X132969855Y-83014434D02*
X132969855Y-82785862D01*
X132969855Y-82785862D02*
X133007951Y-82709672D01*
X133007951Y-82709672D02*
X133046046Y-82671577D01*
X133046046Y-82671577D02*
X133122236Y-82633481D01*
X133122236Y-82633481D02*
X133274617Y-82633481D01*
X133274617Y-82633481D02*
X133350808Y-82671577D01*
X134455570Y-83166815D02*
X134379380Y-83128720D01*
X134379380Y-83128720D02*
X134341285Y-83090624D01*
X134341285Y-83090624D02*
X134303189Y-83014434D01*
X134303189Y-83014434D02*
X134303189Y-82785862D01*
X134303189Y-82785862D02*
X134341285Y-82709672D01*
X134341285Y-82709672D02*
X134379380Y-82671577D01*
X134379380Y-82671577D02*
X134455570Y-82633481D01*
X134455570Y-82633481D02*
X134569856Y-82633481D01*
X134569856Y-82633481D02*
X134646047Y-82671577D01*
X134646047Y-82671577D02*
X134684142Y-82709672D01*
X134684142Y-82709672D02*
X134722237Y-82785862D01*
X134722237Y-82785862D02*
X134722237Y-83014434D01*
X134722237Y-83014434D02*
X134684142Y-83090624D01*
X134684142Y-83090624D02*
X134646047Y-83128720D01*
X134646047Y-83128720D02*
X134569856Y-83166815D01*
X134569856Y-83166815D02*
X134455570Y-83166815D01*
X135065095Y-82633481D02*
X135065095Y-83166815D01*
X135065095Y-82709672D02*
X135103190Y-82671577D01*
X135103190Y-82671577D02*
X135179380Y-82633481D01*
X135179380Y-82633481D02*
X135293666Y-82633481D01*
X135293666Y-82633481D02*
X135369857Y-82671577D01*
X135369857Y-82671577D02*
X135407952Y-82747767D01*
X135407952Y-82747767D02*
X135407952Y-83166815D01*
X136398429Y-83166815D02*
X136398429Y-82366815D01*
X136398429Y-82366815D02*
X136703191Y-82366815D01*
X136703191Y-82366815D02*
X136779381Y-82404910D01*
X136779381Y-82404910D02*
X136817476Y-82443005D01*
X136817476Y-82443005D02*
X136855572Y-82519196D01*
X136855572Y-82519196D02*
X136855572Y-82633481D01*
X136855572Y-82633481D02*
X136817476Y-82709672D01*
X136817476Y-82709672D02*
X136779381Y-82747767D01*
X136779381Y-82747767D02*
X136703191Y-82785862D01*
X136703191Y-82785862D02*
X136398429Y-82785862D01*
X137198429Y-82747767D02*
X137465095Y-82747767D01*
X137579381Y-83166815D02*
X137198429Y-83166815D01*
X137198429Y-83166815D02*
X137198429Y-82366815D01*
X137198429Y-82366815D02*
X137579381Y-82366815D01*
X137807953Y-82366815D02*
X138265096Y-82366815D01*
X138036524Y-83166815D02*
X138036524Y-82366815D01*
X138493667Y-83128720D02*
X138607953Y-83166815D01*
X138607953Y-83166815D02*
X138798429Y-83166815D01*
X138798429Y-83166815D02*
X138874620Y-83128720D01*
X138874620Y-83128720D02*
X138912715Y-83090624D01*
X138912715Y-83090624D02*
X138950810Y-83014434D01*
X138950810Y-83014434D02*
X138950810Y-82938243D01*
X138950810Y-82938243D02*
X138912715Y-82862053D01*
X138912715Y-82862053D02*
X138874620Y-82823958D01*
X138874620Y-82823958D02*
X138798429Y-82785862D01*
X138798429Y-82785862D02*
X138646048Y-82747767D01*
X138646048Y-82747767D02*
X138569858Y-82709672D01*
X138569858Y-82709672D02*
X138531763Y-82671577D01*
X138531763Y-82671577D02*
X138493667Y-82595386D01*
X138493667Y-82595386D02*
X138493667Y-82519196D01*
X138493667Y-82519196D02*
X138531763Y-82443005D01*
X138531763Y-82443005D02*
X138569858Y-82404910D01*
X138569858Y-82404910D02*
X138646048Y-82366815D01*
X138646048Y-82366815D02*
X138836525Y-82366815D01*
X138836525Y-82366815D02*
X138950810Y-82404910D01*
X139293668Y-83166815D02*
X139293668Y-82366815D01*
X139293668Y-82366815D02*
X139484144Y-82366815D01*
X139484144Y-82366815D02*
X139598430Y-82404910D01*
X139598430Y-82404910D02*
X139674620Y-82481100D01*
X139674620Y-82481100D02*
X139712715Y-82557291D01*
X139712715Y-82557291D02*
X139750811Y-82709672D01*
X139750811Y-82709672D02*
X139750811Y-82823958D01*
X139750811Y-82823958D02*
X139712715Y-82976339D01*
X139712715Y-82976339D02*
X139674620Y-83052529D01*
X139674620Y-83052529D02*
X139598430Y-83128720D01*
X139598430Y-83128720D02*
X139484144Y-83166815D01*
X139484144Y-83166815D02*
X139293668Y-83166815D01*
X140093668Y-82862053D02*
X140703192Y-82862053D01*
X140398430Y-83166815D02*
X140398430Y-82557291D01*
X141693668Y-83166815D02*
X141693668Y-82366815D01*
X141693668Y-82671577D02*
X141769858Y-82633481D01*
X141769858Y-82633481D02*
X141922239Y-82633481D01*
X141922239Y-82633481D02*
X141998430Y-82671577D01*
X141998430Y-82671577D02*
X142036525Y-82709672D01*
X142036525Y-82709672D02*
X142074620Y-82785862D01*
X142074620Y-82785862D02*
X142074620Y-83014434D01*
X142074620Y-83014434D02*
X142036525Y-83090624D01*
X142036525Y-83090624D02*
X141998430Y-83128720D01*
X141998430Y-83128720D02*
X141922239Y-83166815D01*
X141922239Y-83166815D02*
X141769858Y-83166815D01*
X141769858Y-83166815D02*
X141693668Y-83128720D01*
X142341287Y-82633481D02*
X142531763Y-83166815D01*
X142722240Y-82633481D02*
X142531763Y-83166815D01*
X142531763Y-83166815D02*
X142455573Y-83357291D01*
X142455573Y-83357291D02*
X142417478Y-83395386D01*
X142417478Y-83395386D02*
X142341287Y-83433481D01*
X143636526Y-83166815D02*
X143636526Y-82366815D01*
X143636526Y-82366815D02*
X144093669Y-83166815D01*
X144093669Y-83166815D02*
X144093669Y-82366815D01*
X144474621Y-83166815D02*
X144474621Y-82633481D01*
X144474621Y-82366815D02*
X144436525Y-82404910D01*
X144436525Y-82404910D02*
X144474621Y-82443005D01*
X144474621Y-82443005D02*
X144512716Y-82404910D01*
X144512716Y-82404910D02*
X144474621Y-82366815D01*
X144474621Y-82366815D02*
X144474621Y-82443005D01*
X144969858Y-83166815D02*
X144893668Y-83128720D01*
X144893668Y-83128720D02*
X144855573Y-83052529D01*
X144855573Y-83052529D02*
X144855573Y-82366815D01*
X145236525Y-83128720D02*
X145312716Y-83166815D01*
X145312716Y-83166815D02*
X145465097Y-83166815D01*
X145465097Y-83166815D02*
X145541287Y-83128720D01*
X145541287Y-83128720D02*
X145579383Y-83052529D01*
X145579383Y-83052529D02*
X145579383Y-83014434D01*
X145579383Y-83014434D02*
X145541287Y-82938243D01*
X145541287Y-82938243D02*
X145465097Y-82900148D01*
X145465097Y-82900148D02*
X145350811Y-82900148D01*
X145350811Y-82900148D02*
X145274621Y-82862053D01*
X145274621Y-82862053D02*
X145236525Y-82785862D01*
X145236525Y-82785862D02*
X145236525Y-82747767D01*
X145236525Y-82747767D02*
X145274621Y-82671577D01*
X145274621Y-82671577D02*
X145350811Y-82633481D01*
X145350811Y-82633481D02*
X145465097Y-82633481D01*
X145465097Y-82633481D02*
X145541287Y-82671577D01*
X146531764Y-82747767D02*
X146798430Y-82747767D01*
X146912716Y-83166815D02*
X146531764Y-83166815D01*
X146531764Y-83166815D02*
X146531764Y-82366815D01*
X146531764Y-82366815D02*
X146912716Y-82366815D01*
X147255574Y-83166815D02*
X147255574Y-82633481D01*
X147255574Y-82366815D02*
X147217478Y-82404910D01*
X147217478Y-82404910D02*
X147255574Y-82443005D01*
X147255574Y-82443005D02*
X147293669Y-82404910D01*
X147293669Y-82404910D02*
X147255574Y-82366815D01*
X147255574Y-82366815D02*
X147255574Y-82443005D01*
X147750811Y-83166815D02*
X147674621Y-83128720D01*
X147674621Y-83128720D02*
X147636526Y-83052529D01*
X147636526Y-83052529D02*
X147636526Y-82366815D01*
X148360336Y-83128720D02*
X148284145Y-83166815D01*
X148284145Y-83166815D02*
X148131764Y-83166815D01*
X148131764Y-83166815D02*
X148055574Y-83128720D01*
X148055574Y-83128720D02*
X148017478Y-83052529D01*
X148017478Y-83052529D02*
X148017478Y-82747767D01*
X148017478Y-82747767D02*
X148055574Y-82671577D01*
X148055574Y-82671577D02*
X148131764Y-82633481D01*
X148131764Y-82633481D02*
X148284145Y-82633481D01*
X148284145Y-82633481D02*
X148360336Y-82671577D01*
X148360336Y-82671577D02*
X148398431Y-82747767D01*
X148398431Y-82747767D02*
X148398431Y-82823958D01*
X148398431Y-82823958D02*
X148017478Y-82900148D01*
X148741288Y-83166815D02*
X148741288Y-82633481D01*
X148741288Y-82785862D02*
X148779383Y-82709672D01*
X148779383Y-82709672D02*
X148817478Y-82671577D01*
X148817478Y-82671577D02*
X148893669Y-82633481D01*
X148893669Y-82633481D02*
X148969859Y-82633481D01*
X149198430Y-83128720D02*
X149274621Y-83166815D01*
X149274621Y-83166815D02*
X149427002Y-83166815D01*
X149427002Y-83166815D02*
X149503192Y-83128720D01*
X149503192Y-83128720D02*
X149541288Y-83052529D01*
X149541288Y-83052529D02*
X149541288Y-83014434D01*
X149541288Y-83014434D02*
X149503192Y-82938243D01*
X149503192Y-82938243D02*
X149427002Y-82900148D01*
X149427002Y-82900148D02*
X149312716Y-82900148D01*
X149312716Y-82900148D02*
X149236526Y-82862053D01*
X149236526Y-82862053D02*
X149198430Y-82785862D01*
X149198430Y-82785862D02*
X149198430Y-82747767D01*
X149198430Y-82747767D02*
X149236526Y-82671577D01*
X149236526Y-82671577D02*
X149312716Y-82633481D01*
X149312716Y-82633481D02*
X149427002Y-82633481D01*
X149427002Y-82633481D02*
X149503192Y-82671577D01*
D12*
X181293269Y-98624532D02*
X181245650Y-98698818D01*
X181245650Y-98698818D02*
X181102793Y-98773103D01*
X181102793Y-98773103D02*
X181007555Y-98773103D01*
X181007555Y-98773103D02*
X180864698Y-98698818D01*
X180864698Y-98698818D02*
X180769460Y-98550246D01*
X180769460Y-98550246D02*
X180721841Y-98401675D01*
X180721841Y-98401675D02*
X180674222Y-98104532D01*
X180674222Y-98104532D02*
X180674222Y-97881675D01*
X180674222Y-97881675D02*
X180721841Y-97584532D01*
X180721841Y-97584532D02*
X180769460Y-97435960D01*
X180769460Y-97435960D02*
X180864698Y-97287389D01*
X180864698Y-97287389D02*
X181007555Y-97213103D01*
X181007555Y-97213103D02*
X181102793Y-97213103D01*
X181102793Y-97213103D02*
X181245650Y-97287389D01*
X181245650Y-97287389D02*
X181293269Y-97361675D01*
X181674222Y-98698818D02*
X181817079Y-98773103D01*
X181817079Y-98773103D02*
X182055174Y-98773103D01*
X182055174Y-98773103D02*
X182150412Y-98698818D01*
X182150412Y-98698818D02*
X182198031Y-98624532D01*
X182198031Y-98624532D02*
X182245650Y-98475960D01*
X182245650Y-98475960D02*
X182245650Y-98327389D01*
X182245650Y-98327389D02*
X182198031Y-98178818D01*
X182198031Y-98178818D02*
X182150412Y-98104532D01*
X182150412Y-98104532D02*
X182055174Y-98030246D01*
X182055174Y-98030246D02*
X181864698Y-97955960D01*
X181864698Y-97955960D02*
X181769460Y-97881675D01*
X181769460Y-97881675D02*
X181721841Y-97807389D01*
X181721841Y-97807389D02*
X181674222Y-97658818D01*
X181674222Y-97658818D02*
X181674222Y-97510246D01*
X181674222Y-97510246D02*
X181721841Y-97361675D01*
X181721841Y-97361675D02*
X181769460Y-97287389D01*
X181769460Y-97287389D02*
X181864698Y-97213103D01*
X181864698Y-97213103D02*
X182102793Y-97213103D01*
X182102793Y-97213103D02*
X182245650Y-97287389D01*
X180436126Y-101136045D02*
X180388507Y-101210331D01*
X180388507Y-101210331D02*
X180245650Y-101284616D01*
X180245650Y-101284616D02*
X180150412Y-101284616D01*
X180150412Y-101284616D02*
X180007555Y-101210331D01*
X180007555Y-101210331D02*
X179912317Y-101061759D01*
X179912317Y-101061759D02*
X179864698Y-100913188D01*
X179864698Y-100913188D02*
X179817079Y-100616045D01*
X179817079Y-100616045D02*
X179817079Y-100393188D01*
X179817079Y-100393188D02*
X179864698Y-100096045D01*
X179864698Y-100096045D02*
X179912317Y-99947473D01*
X179912317Y-99947473D02*
X180007555Y-99798902D01*
X180007555Y-99798902D02*
X180150412Y-99724616D01*
X180150412Y-99724616D02*
X180245650Y-99724616D01*
X180245650Y-99724616D02*
X180388507Y-99798902D01*
X180388507Y-99798902D02*
X180436126Y-99873188D01*
X181340888Y-101284616D02*
X180864698Y-101284616D01*
X180864698Y-101284616D02*
X180864698Y-99724616D01*
X181674222Y-101284616D02*
X181674222Y-99724616D01*
X182245650Y-101284616D02*
X181817079Y-100393188D01*
X182245650Y-99724616D02*
X181674222Y-100616045D01*
X180483746Y-103796129D02*
X180483746Y-102236129D01*
X180483746Y-102236129D02*
X180817079Y-103350415D01*
X180817079Y-103350415D02*
X181150412Y-102236129D01*
X181150412Y-102236129D02*
X181150412Y-103796129D01*
X181817079Y-102236129D02*
X182007555Y-102236129D01*
X182007555Y-102236129D02*
X182102793Y-102310415D01*
X182102793Y-102310415D02*
X182198031Y-102458986D01*
X182198031Y-102458986D02*
X182245650Y-102756129D01*
X182245650Y-102756129D02*
X182245650Y-103276129D01*
X182245650Y-103276129D02*
X182198031Y-103573272D01*
X182198031Y-103573272D02*
X182102793Y-103721844D01*
X182102793Y-103721844D02*
X182007555Y-103796129D01*
X182007555Y-103796129D02*
X181817079Y-103796129D01*
X181817079Y-103796129D02*
X181721841Y-103721844D01*
X181721841Y-103721844D02*
X181626603Y-103573272D01*
X181626603Y-103573272D02*
X181578984Y-103276129D01*
X181578984Y-103276129D02*
X181578984Y-102756129D01*
X181578984Y-102756129D02*
X181626603Y-102458986D01*
X181626603Y-102458986D02*
X181721841Y-102310415D01*
X181721841Y-102310415D02*
X181817079Y-102236129D01*
X180102794Y-106307642D02*
X180102794Y-104747642D01*
X180102794Y-104747642D02*
X180436127Y-105861928D01*
X180436127Y-105861928D02*
X180769460Y-104747642D01*
X180769460Y-104747642D02*
X180769460Y-106307642D01*
X181245651Y-106307642D02*
X181245651Y-104747642D01*
X181674222Y-106233357D02*
X181817079Y-106307642D01*
X181817079Y-106307642D02*
X182055174Y-106307642D01*
X182055174Y-106307642D02*
X182150412Y-106233357D01*
X182150412Y-106233357D02*
X182198031Y-106159071D01*
X182198031Y-106159071D02*
X182245650Y-106010499D01*
X182245650Y-106010499D02*
X182245650Y-105861928D01*
X182245650Y-105861928D02*
X182198031Y-105713357D01*
X182198031Y-105713357D02*
X182150412Y-105639071D01*
X182150412Y-105639071D02*
X182055174Y-105564785D01*
X182055174Y-105564785D02*
X181864698Y-105490499D01*
X181864698Y-105490499D02*
X181769460Y-105416214D01*
X181769460Y-105416214D02*
X181721841Y-105341928D01*
X181721841Y-105341928D02*
X181674222Y-105193357D01*
X181674222Y-105193357D02*
X181674222Y-105044785D01*
X181674222Y-105044785D02*
X181721841Y-104896214D01*
X181721841Y-104896214D02*
X181769460Y-104821928D01*
X181769460Y-104821928D02*
X181864698Y-104747642D01*
X181864698Y-104747642D02*
X182102793Y-104747642D01*
X182102793Y-104747642D02*
X182245650Y-104821928D01*
X181340888Y-107259155D02*
X180864698Y-107259155D01*
X180864698Y-107259155D02*
X180817079Y-108002012D01*
X180817079Y-108002012D02*
X180864698Y-107927727D01*
X180864698Y-107927727D02*
X180959936Y-107853441D01*
X180959936Y-107853441D02*
X181198031Y-107853441D01*
X181198031Y-107853441D02*
X181293269Y-107927727D01*
X181293269Y-107927727D02*
X181340888Y-108002012D01*
X181340888Y-108002012D02*
X181388507Y-108150584D01*
X181388507Y-108150584D02*
X181388507Y-108522012D01*
X181388507Y-108522012D02*
X181340888Y-108670584D01*
X181340888Y-108670584D02*
X181293269Y-108744870D01*
X181293269Y-108744870D02*
X181198031Y-108819155D01*
X181198031Y-108819155D02*
X180959936Y-108819155D01*
X180959936Y-108819155D02*
X180864698Y-108744870D01*
X180864698Y-108744870D02*
X180817079Y-108670584D01*
X181674222Y-107259155D02*
X182007555Y-108819155D01*
X182007555Y-108819155D02*
X182340888Y-107259155D01*
X180150412Y-109844954D02*
X180055174Y-109770668D01*
X180055174Y-109770668D02*
X179912317Y-109770668D01*
X179912317Y-109770668D02*
X179769460Y-109844954D01*
X179769460Y-109844954D02*
X179674222Y-109993525D01*
X179674222Y-109993525D02*
X179626603Y-110142097D01*
X179626603Y-110142097D02*
X179578984Y-110439240D01*
X179578984Y-110439240D02*
X179578984Y-110662097D01*
X179578984Y-110662097D02*
X179626603Y-110959240D01*
X179626603Y-110959240D02*
X179674222Y-111107811D01*
X179674222Y-111107811D02*
X179769460Y-111256383D01*
X179769460Y-111256383D02*
X179912317Y-111330668D01*
X179912317Y-111330668D02*
X180007555Y-111330668D01*
X180007555Y-111330668D02*
X180150412Y-111256383D01*
X180150412Y-111256383D02*
X180198031Y-111182097D01*
X180198031Y-111182097D02*
X180198031Y-110662097D01*
X180198031Y-110662097D02*
X180007555Y-110662097D01*
X180626603Y-111330668D02*
X180626603Y-109770668D01*
X180626603Y-109770668D02*
X181198031Y-111330668D01*
X181198031Y-111330668D02*
X181198031Y-109770668D01*
X181674222Y-111330668D02*
X181674222Y-109770668D01*
X181674222Y-109770668D02*
X181912317Y-109770668D01*
X181912317Y-109770668D02*
X182055174Y-109844954D01*
X182055174Y-109844954D02*
X182150412Y-109993525D01*
X182150412Y-109993525D02*
X182198031Y-110142097D01*
X182198031Y-110142097D02*
X182245650Y-110439240D01*
X182245650Y-110439240D02*
X182245650Y-110662097D01*
X182245650Y-110662097D02*
X182198031Y-110959240D01*
X182198031Y-110959240D02*
X182150412Y-111107811D01*
X182150412Y-111107811D02*
X182055174Y-111256383D01*
X182055174Y-111256383D02*
X181912317Y-111330668D01*
X181912317Y-111330668D02*
X181674222Y-111330668D01*
D16*
X184114228Y-67138095D02*
X184161847Y-67090476D01*
X184161847Y-67090476D02*
X184304704Y-66995238D01*
X184304704Y-66995238D02*
X184399942Y-66947619D01*
X184399942Y-66947619D02*
X184542800Y-66900000D01*
X184542800Y-66900000D02*
X184780895Y-66852381D01*
X184780895Y-66852381D02*
X184971371Y-66852381D01*
X184971371Y-66852381D02*
X185209466Y-66900000D01*
X185209466Y-66900000D02*
X185352323Y-66947619D01*
X185352323Y-66947619D02*
X185447561Y-66995238D01*
X185447561Y-66995238D02*
X185590419Y-67090476D01*
X185590419Y-67090476D02*
X185638038Y-67138095D01*
X184876133Y-67519048D02*
X184876133Y-68280953D01*
X184495180Y-67900000D02*
X185257085Y-67900000D01*
X184114228Y-68661905D02*
X184161847Y-68709524D01*
X184161847Y-68709524D02*
X184304704Y-68804762D01*
X184304704Y-68804762D02*
X184399942Y-68852381D01*
X184399942Y-68852381D02*
X184542800Y-68900000D01*
X184542800Y-68900000D02*
X184780895Y-68947619D01*
X184780895Y-68947619D02*
X184971371Y-68947619D01*
X184971371Y-68947619D02*
X185209466Y-68900000D01*
X185209466Y-68900000D02*
X185352323Y-68852381D01*
X185352323Y-68852381D02*
X185447561Y-68804762D01*
X185447561Y-68804762D02*
X185590419Y-68709524D01*
X185590419Y-68709524D02*
X185638038Y-68661905D01*
D11*
X119851714Y-72970406D02*
X120625810Y-72970406D01*
X120238762Y-73357453D02*
X120238762Y-72583358D01*
X121593429Y-72341453D02*
X121109619Y-72341453D01*
X121109619Y-72341453D02*
X121061238Y-72825263D01*
X121061238Y-72825263D02*
X121109619Y-72776882D01*
X121109619Y-72776882D02*
X121206381Y-72728501D01*
X121206381Y-72728501D02*
X121448286Y-72728501D01*
X121448286Y-72728501D02*
X121545048Y-72776882D01*
X121545048Y-72776882D02*
X121593429Y-72825263D01*
X121593429Y-72825263D02*
X121641810Y-72922025D01*
X121641810Y-72922025D02*
X121641810Y-73163930D01*
X121641810Y-73163930D02*
X121593429Y-73260692D01*
X121593429Y-73260692D02*
X121545048Y-73309073D01*
X121545048Y-73309073D02*
X121448286Y-73357453D01*
X121448286Y-73357453D02*
X121206381Y-73357453D01*
X121206381Y-73357453D02*
X121109619Y-73309073D01*
X121109619Y-73309073D02*
X121061238Y-73260692D01*
X121932095Y-72341453D02*
X122270762Y-73357453D01*
X122270762Y-73357453D02*
X122609429Y-72341453D01*
D16*
X158373694Y-113100295D02*
X158640361Y-113900295D01*
X158640361Y-113900295D02*
X158907027Y-113100295D01*
X159478456Y-113862200D02*
X159402265Y-113900295D01*
X159402265Y-113900295D02*
X159249884Y-113900295D01*
X159249884Y-113900295D02*
X159173694Y-113862200D01*
X159173694Y-113862200D02*
X159135598Y-113786009D01*
X159135598Y-113786009D02*
X159135598Y-113481247D01*
X159135598Y-113481247D02*
X159173694Y-113405057D01*
X159173694Y-113405057D02*
X159249884Y-113366961D01*
X159249884Y-113366961D02*
X159402265Y-113366961D01*
X159402265Y-113366961D02*
X159478456Y-113405057D01*
X159478456Y-113405057D02*
X159516551Y-113481247D01*
X159516551Y-113481247D02*
X159516551Y-113557438D01*
X159516551Y-113557438D02*
X159135598Y-113633628D01*
X159859408Y-113900295D02*
X159859408Y-113366961D01*
X159859408Y-113519342D02*
X159897503Y-113443152D01*
X159897503Y-113443152D02*
X159935598Y-113405057D01*
X159935598Y-113405057D02*
X160011789Y-113366961D01*
X160011789Y-113366961D02*
X160087979Y-113366961D01*
X160240360Y-113366961D02*
X160545122Y-113366961D01*
X160354646Y-113100295D02*
X160354646Y-113786009D01*
X160354646Y-113786009D02*
X160392741Y-113862200D01*
X160392741Y-113862200D02*
X160468931Y-113900295D01*
X160468931Y-113900295D02*
X160545122Y-113900295D01*
X160811789Y-113900295D02*
X160811789Y-113366961D01*
X160811789Y-113100295D02*
X160773693Y-113138390D01*
X160773693Y-113138390D02*
X160811789Y-113176485D01*
X160811789Y-113176485D02*
X160849884Y-113138390D01*
X160849884Y-113138390D02*
X160811789Y-113100295D01*
X160811789Y-113100295D02*
X160811789Y-113176485D01*
X161535598Y-113862200D02*
X161459407Y-113900295D01*
X161459407Y-113900295D02*
X161307026Y-113900295D01*
X161307026Y-113900295D02*
X161230836Y-113862200D01*
X161230836Y-113862200D02*
X161192741Y-113824104D01*
X161192741Y-113824104D02*
X161154645Y-113747914D01*
X161154645Y-113747914D02*
X161154645Y-113519342D01*
X161154645Y-113519342D02*
X161192741Y-113443152D01*
X161192741Y-113443152D02*
X161230836Y-113405057D01*
X161230836Y-113405057D02*
X161307026Y-113366961D01*
X161307026Y-113366961D02*
X161459407Y-113366961D01*
X161459407Y-113366961D02*
X161535598Y-113405057D01*
X162221312Y-113900295D02*
X162221312Y-113481247D01*
X162221312Y-113481247D02*
X162183217Y-113405057D01*
X162183217Y-113405057D02*
X162107026Y-113366961D01*
X162107026Y-113366961D02*
X161954645Y-113366961D01*
X161954645Y-113366961D02*
X161878455Y-113405057D01*
X162221312Y-113862200D02*
X162145121Y-113900295D01*
X162145121Y-113900295D02*
X161954645Y-113900295D01*
X161954645Y-113900295D02*
X161878455Y-113862200D01*
X161878455Y-113862200D02*
X161840359Y-113786009D01*
X161840359Y-113786009D02*
X161840359Y-113709819D01*
X161840359Y-113709819D02*
X161878455Y-113633628D01*
X161878455Y-113633628D02*
X161954645Y-113595533D01*
X161954645Y-113595533D02*
X162145121Y-113595533D01*
X162145121Y-113595533D02*
X162221312Y-113557438D01*
X162716550Y-113900295D02*
X162640360Y-113862200D01*
X162640360Y-113862200D02*
X162602265Y-113786009D01*
X162602265Y-113786009D02*
X162602265Y-113100295D01*
X163630837Y-113900295D02*
X163630837Y-113100295D01*
X164011789Y-113481247D02*
X164278455Y-113481247D01*
X164392741Y-113900295D02*
X164011789Y-113900295D01*
X164011789Y-113900295D02*
X164011789Y-113100295D01*
X164011789Y-113100295D02*
X164392741Y-113100295D01*
X164735599Y-113481247D02*
X165002265Y-113481247D01*
X165116551Y-113900295D02*
X164735599Y-113900295D01*
X164735599Y-113900295D02*
X164735599Y-113100295D01*
X164735599Y-113100295D02*
X165116551Y-113100295D01*
X165459409Y-113481247D02*
X165726075Y-113481247D01*
X165840361Y-113900295D02*
X165459409Y-113900295D01*
X165459409Y-113900295D02*
X165459409Y-113100295D01*
X165459409Y-113100295D02*
X165840361Y-113100295D01*
X167249886Y-113824104D02*
X167211790Y-113862200D01*
X167211790Y-113862200D02*
X167097505Y-113900295D01*
X167097505Y-113900295D02*
X167021314Y-113900295D01*
X167021314Y-113900295D02*
X166907028Y-113862200D01*
X166907028Y-113862200D02*
X166830838Y-113786009D01*
X166830838Y-113786009D02*
X166792743Y-113709819D01*
X166792743Y-113709819D02*
X166754647Y-113557438D01*
X166754647Y-113557438D02*
X166754647Y-113443152D01*
X166754647Y-113443152D02*
X166792743Y-113290771D01*
X166792743Y-113290771D02*
X166830838Y-113214580D01*
X166830838Y-113214580D02*
X166907028Y-113138390D01*
X166907028Y-113138390D02*
X167021314Y-113100295D01*
X167021314Y-113100295D02*
X167097505Y-113100295D01*
X167097505Y-113100295D02*
X167211790Y-113138390D01*
X167211790Y-113138390D02*
X167249886Y-113176485D01*
X167707028Y-113900295D02*
X167630838Y-113862200D01*
X167630838Y-113862200D02*
X167592743Y-113824104D01*
X167592743Y-113824104D02*
X167554647Y-113747914D01*
X167554647Y-113747914D02*
X167554647Y-113519342D01*
X167554647Y-113519342D02*
X167592743Y-113443152D01*
X167592743Y-113443152D02*
X167630838Y-113405057D01*
X167630838Y-113405057D02*
X167707028Y-113366961D01*
X167707028Y-113366961D02*
X167821314Y-113366961D01*
X167821314Y-113366961D02*
X167897505Y-113405057D01*
X167897505Y-113405057D02*
X167935600Y-113443152D01*
X167935600Y-113443152D02*
X167973695Y-113519342D01*
X167973695Y-113519342D02*
X167973695Y-113747914D01*
X167973695Y-113747914D02*
X167935600Y-113824104D01*
X167935600Y-113824104D02*
X167897505Y-113862200D01*
X167897505Y-113862200D02*
X167821314Y-113900295D01*
X167821314Y-113900295D02*
X167707028Y-113900295D01*
X168316553Y-113366961D02*
X168316553Y-113900295D01*
X168316553Y-113443152D02*
X168354648Y-113405057D01*
X168354648Y-113405057D02*
X168430838Y-113366961D01*
X168430838Y-113366961D02*
X168545124Y-113366961D01*
X168545124Y-113366961D02*
X168621315Y-113405057D01*
X168621315Y-113405057D02*
X168659410Y-113481247D01*
X168659410Y-113481247D02*
X168659410Y-113900295D01*
X169040363Y-113366961D02*
X169040363Y-113900295D01*
X169040363Y-113443152D02*
X169078458Y-113405057D01*
X169078458Y-113405057D02*
X169154648Y-113366961D01*
X169154648Y-113366961D02*
X169268934Y-113366961D01*
X169268934Y-113366961D02*
X169345125Y-113405057D01*
X169345125Y-113405057D02*
X169383220Y-113481247D01*
X169383220Y-113481247D02*
X169383220Y-113900295D01*
X170068935Y-113862200D02*
X169992744Y-113900295D01*
X169992744Y-113900295D02*
X169840363Y-113900295D01*
X169840363Y-113900295D02*
X169764173Y-113862200D01*
X169764173Y-113862200D02*
X169726077Y-113786009D01*
X169726077Y-113786009D02*
X169726077Y-113481247D01*
X169726077Y-113481247D02*
X169764173Y-113405057D01*
X169764173Y-113405057D02*
X169840363Y-113366961D01*
X169840363Y-113366961D02*
X169992744Y-113366961D01*
X169992744Y-113366961D02*
X170068935Y-113405057D01*
X170068935Y-113405057D02*
X170107030Y-113481247D01*
X170107030Y-113481247D02*
X170107030Y-113557438D01*
X170107030Y-113557438D02*
X169726077Y-113633628D01*
X170792744Y-113862200D02*
X170716553Y-113900295D01*
X170716553Y-113900295D02*
X170564172Y-113900295D01*
X170564172Y-113900295D02*
X170487982Y-113862200D01*
X170487982Y-113862200D02*
X170449887Y-113824104D01*
X170449887Y-113824104D02*
X170411791Y-113747914D01*
X170411791Y-113747914D02*
X170411791Y-113519342D01*
X170411791Y-113519342D02*
X170449887Y-113443152D01*
X170449887Y-113443152D02*
X170487982Y-113405057D01*
X170487982Y-113405057D02*
X170564172Y-113366961D01*
X170564172Y-113366961D02*
X170716553Y-113366961D01*
X170716553Y-113366961D02*
X170792744Y-113405057D01*
X171021315Y-113366961D02*
X171326077Y-113366961D01*
X171135601Y-113100295D02*
X171135601Y-113786009D01*
X171135601Y-113786009D02*
X171173696Y-113862200D01*
X171173696Y-113862200D02*
X171249886Y-113900295D01*
X171249886Y-113900295D02*
X171326077Y-113900295D01*
X171707029Y-113900295D02*
X171630839Y-113862200D01*
X171630839Y-113862200D02*
X171592744Y-113824104D01*
X171592744Y-113824104D02*
X171554648Y-113747914D01*
X171554648Y-113747914D02*
X171554648Y-113519342D01*
X171554648Y-113519342D02*
X171592744Y-113443152D01*
X171592744Y-113443152D02*
X171630839Y-113405057D01*
X171630839Y-113405057D02*
X171707029Y-113366961D01*
X171707029Y-113366961D02*
X171821315Y-113366961D01*
X171821315Y-113366961D02*
X171897506Y-113405057D01*
X171897506Y-113405057D02*
X171935601Y-113443152D01*
X171935601Y-113443152D02*
X171973696Y-113519342D01*
X171973696Y-113519342D02*
X171973696Y-113747914D01*
X171973696Y-113747914D02*
X171935601Y-113824104D01*
X171935601Y-113824104D02*
X171897506Y-113862200D01*
X171897506Y-113862200D02*
X171821315Y-113900295D01*
X171821315Y-113900295D02*
X171707029Y-113900295D01*
X172316554Y-113900295D02*
X172316554Y-113366961D01*
X172316554Y-113519342D02*
X172354649Y-113443152D01*
X172354649Y-113443152D02*
X172392744Y-113405057D01*
X172392744Y-113405057D02*
X172468935Y-113366961D01*
X172468935Y-113366961D02*
X172545125Y-113366961D01*
X160240216Y-115475057D02*
X160202121Y-115436961D01*
X160202121Y-115436961D02*
X160125930Y-115322676D01*
X160125930Y-115322676D02*
X160087835Y-115246485D01*
X160087835Y-115246485D02*
X160049740Y-115132200D01*
X160049740Y-115132200D02*
X160011645Y-114941723D01*
X160011645Y-114941723D02*
X160011645Y-114789342D01*
X160011645Y-114789342D02*
X160049740Y-114598866D01*
X160049740Y-114598866D02*
X160087835Y-114484580D01*
X160087835Y-114484580D02*
X160125930Y-114408390D01*
X160125930Y-114408390D02*
X160202121Y-114294104D01*
X160202121Y-114294104D02*
X160240216Y-114256009D01*
X160544978Y-115170295D02*
X160544978Y-114370295D01*
X160925930Y-114636961D02*
X160925930Y-115170295D01*
X160925930Y-114713152D02*
X160964025Y-114675057D01*
X160964025Y-114675057D02*
X161040215Y-114636961D01*
X161040215Y-114636961D02*
X161154501Y-114636961D01*
X161154501Y-114636961D02*
X161230692Y-114675057D01*
X161230692Y-114675057D02*
X161268787Y-114751247D01*
X161268787Y-114751247D02*
X161268787Y-115170295D01*
X161611644Y-115132200D02*
X161687835Y-115170295D01*
X161687835Y-115170295D02*
X161840216Y-115170295D01*
X161840216Y-115170295D02*
X161916406Y-115132200D01*
X161916406Y-115132200D02*
X161954502Y-115056009D01*
X161954502Y-115056009D02*
X161954502Y-115017914D01*
X161954502Y-115017914D02*
X161916406Y-114941723D01*
X161916406Y-114941723D02*
X161840216Y-114903628D01*
X161840216Y-114903628D02*
X161725930Y-114903628D01*
X161725930Y-114903628D02*
X161649740Y-114865533D01*
X161649740Y-114865533D02*
X161611644Y-114789342D01*
X161611644Y-114789342D02*
X161611644Y-114751247D01*
X161611644Y-114751247D02*
X161649740Y-114675057D01*
X161649740Y-114675057D02*
X161725930Y-114636961D01*
X161725930Y-114636961D02*
X161840216Y-114636961D01*
X161840216Y-114636961D02*
X161916406Y-114675057D01*
X162183073Y-114636961D02*
X162487835Y-114636961D01*
X162297359Y-114370295D02*
X162297359Y-115056009D01*
X162297359Y-115056009D02*
X162335454Y-115132200D01*
X162335454Y-115132200D02*
X162411644Y-115170295D01*
X162411644Y-115170295D02*
X162487835Y-115170295D01*
X163097359Y-115170295D02*
X163097359Y-114751247D01*
X163097359Y-114751247D02*
X163059264Y-114675057D01*
X163059264Y-114675057D02*
X162983073Y-114636961D01*
X162983073Y-114636961D02*
X162830692Y-114636961D01*
X162830692Y-114636961D02*
X162754502Y-114675057D01*
X163097359Y-115132200D02*
X163021168Y-115170295D01*
X163021168Y-115170295D02*
X162830692Y-115170295D01*
X162830692Y-115170295D02*
X162754502Y-115132200D01*
X162754502Y-115132200D02*
X162716406Y-115056009D01*
X162716406Y-115056009D02*
X162716406Y-114979819D01*
X162716406Y-114979819D02*
X162754502Y-114903628D01*
X162754502Y-114903628D02*
X162830692Y-114865533D01*
X162830692Y-114865533D02*
X163021168Y-114865533D01*
X163021168Y-114865533D02*
X163097359Y-114827438D01*
X163592597Y-115170295D02*
X163516407Y-115132200D01*
X163516407Y-115132200D02*
X163478312Y-115056009D01*
X163478312Y-115056009D02*
X163478312Y-114370295D01*
X164011645Y-115170295D02*
X163935455Y-115132200D01*
X163935455Y-115132200D02*
X163897360Y-115056009D01*
X163897360Y-115056009D02*
X163897360Y-114370295D01*
X165040217Y-115170295D02*
X164964027Y-115132200D01*
X164964027Y-115132200D02*
X164925932Y-115094104D01*
X164925932Y-115094104D02*
X164887836Y-115017914D01*
X164887836Y-115017914D02*
X164887836Y-114789342D01*
X164887836Y-114789342D02*
X164925932Y-114713152D01*
X164925932Y-114713152D02*
X164964027Y-114675057D01*
X164964027Y-114675057D02*
X165040217Y-114636961D01*
X165040217Y-114636961D02*
X165154503Y-114636961D01*
X165154503Y-114636961D02*
X165230694Y-114675057D01*
X165230694Y-114675057D02*
X165268789Y-114713152D01*
X165268789Y-114713152D02*
X165306884Y-114789342D01*
X165306884Y-114789342D02*
X165306884Y-115017914D01*
X165306884Y-115017914D02*
X165268789Y-115094104D01*
X165268789Y-115094104D02*
X165230694Y-115132200D01*
X165230694Y-115132200D02*
X165154503Y-115170295D01*
X165154503Y-115170295D02*
X165040217Y-115170295D01*
X165649742Y-114636961D02*
X165649742Y-115170295D01*
X165649742Y-114713152D02*
X165687837Y-114675057D01*
X165687837Y-114675057D02*
X165764027Y-114636961D01*
X165764027Y-114636961D02*
X165878313Y-114636961D01*
X165878313Y-114636961D02*
X165954504Y-114675057D01*
X165954504Y-114675057D02*
X165992599Y-114751247D01*
X165992599Y-114751247D02*
X165992599Y-115170295D01*
X166983076Y-115170295D02*
X166983076Y-114370295D01*
X166983076Y-114675057D02*
X167059266Y-114636961D01*
X167059266Y-114636961D02*
X167211647Y-114636961D01*
X167211647Y-114636961D02*
X167287838Y-114675057D01*
X167287838Y-114675057D02*
X167325933Y-114713152D01*
X167325933Y-114713152D02*
X167364028Y-114789342D01*
X167364028Y-114789342D02*
X167364028Y-115017914D01*
X167364028Y-115017914D02*
X167325933Y-115094104D01*
X167325933Y-115094104D02*
X167287838Y-115132200D01*
X167287838Y-115132200D02*
X167211647Y-115170295D01*
X167211647Y-115170295D02*
X167059266Y-115170295D01*
X167059266Y-115170295D02*
X166983076Y-115132200D01*
X167821171Y-115170295D02*
X167744981Y-115132200D01*
X167744981Y-115132200D02*
X167706886Y-115094104D01*
X167706886Y-115094104D02*
X167668790Y-115017914D01*
X167668790Y-115017914D02*
X167668790Y-114789342D01*
X167668790Y-114789342D02*
X167706886Y-114713152D01*
X167706886Y-114713152D02*
X167744981Y-114675057D01*
X167744981Y-114675057D02*
X167821171Y-114636961D01*
X167821171Y-114636961D02*
X167935457Y-114636961D01*
X167935457Y-114636961D02*
X168011648Y-114675057D01*
X168011648Y-114675057D02*
X168049743Y-114713152D01*
X168049743Y-114713152D02*
X168087838Y-114789342D01*
X168087838Y-114789342D02*
X168087838Y-115017914D01*
X168087838Y-115017914D02*
X168049743Y-115094104D01*
X168049743Y-115094104D02*
X168011648Y-115132200D01*
X168011648Y-115132200D02*
X167935457Y-115170295D01*
X167935457Y-115170295D02*
X167821171Y-115170295D01*
X168316410Y-114636961D02*
X168621172Y-114636961D01*
X168430696Y-114370295D02*
X168430696Y-115056009D01*
X168430696Y-115056009D02*
X168468791Y-115132200D01*
X168468791Y-115132200D02*
X168544981Y-115170295D01*
X168544981Y-115170295D02*
X168621172Y-115170295D01*
X168773553Y-114636961D02*
X169078315Y-114636961D01*
X168887839Y-114370295D02*
X168887839Y-115056009D01*
X168887839Y-115056009D02*
X168925934Y-115132200D01*
X168925934Y-115132200D02*
X169002124Y-115170295D01*
X169002124Y-115170295D02*
X169078315Y-115170295D01*
X169459267Y-115170295D02*
X169383077Y-115132200D01*
X169383077Y-115132200D02*
X169344982Y-115094104D01*
X169344982Y-115094104D02*
X169306886Y-115017914D01*
X169306886Y-115017914D02*
X169306886Y-114789342D01*
X169306886Y-114789342D02*
X169344982Y-114713152D01*
X169344982Y-114713152D02*
X169383077Y-114675057D01*
X169383077Y-114675057D02*
X169459267Y-114636961D01*
X169459267Y-114636961D02*
X169573553Y-114636961D01*
X169573553Y-114636961D02*
X169649744Y-114675057D01*
X169649744Y-114675057D02*
X169687839Y-114713152D01*
X169687839Y-114713152D02*
X169725934Y-114789342D01*
X169725934Y-114789342D02*
X169725934Y-115017914D01*
X169725934Y-115017914D02*
X169687839Y-115094104D01*
X169687839Y-115094104D02*
X169649744Y-115132200D01*
X169649744Y-115132200D02*
X169573553Y-115170295D01*
X169573553Y-115170295D02*
X169459267Y-115170295D01*
X170068792Y-115170295D02*
X170068792Y-114636961D01*
X170068792Y-114713152D02*
X170106887Y-114675057D01*
X170106887Y-114675057D02*
X170183077Y-114636961D01*
X170183077Y-114636961D02*
X170297363Y-114636961D01*
X170297363Y-114636961D02*
X170373554Y-114675057D01*
X170373554Y-114675057D02*
X170411649Y-114751247D01*
X170411649Y-114751247D02*
X170411649Y-115170295D01*
X170411649Y-114751247D02*
X170449744Y-114675057D01*
X170449744Y-114675057D02*
X170525935Y-114636961D01*
X170525935Y-114636961D02*
X170640220Y-114636961D01*
X170640220Y-114636961D02*
X170716411Y-114675057D01*
X170716411Y-114675057D02*
X170754506Y-114751247D01*
X170754506Y-114751247D02*
X170754506Y-115170295D01*
X171059268Y-115475057D02*
X171097363Y-115436961D01*
X171097363Y-115436961D02*
X171173554Y-115322676D01*
X171173554Y-115322676D02*
X171211649Y-115246485D01*
X171211649Y-115246485D02*
X171249744Y-115132200D01*
X171249744Y-115132200D02*
X171287840Y-114941723D01*
X171287840Y-114941723D02*
X171287840Y-114789342D01*
X171287840Y-114789342D02*
X171249744Y-114598866D01*
X171249744Y-114598866D02*
X171211649Y-114484580D01*
X171211649Y-114484580D02*
X171173554Y-114408390D01*
X171173554Y-114408390D02*
X171097363Y-114294104D01*
X171097363Y-114294104D02*
X171059268Y-114256009D01*
D14*
X136747809Y-87486938D02*
X138081142Y-87486938D01*
X138081142Y-87486938D02*
X137223999Y-89486938D01*
X139795428Y-87486938D02*
X138843047Y-87486938D01*
X138843047Y-87486938D02*
X138747809Y-88439319D01*
X138747809Y-88439319D02*
X138843047Y-88344080D01*
X138843047Y-88344080D02*
X139033523Y-88248842D01*
X139033523Y-88248842D02*
X139509714Y-88248842D01*
X139509714Y-88248842D02*
X139700190Y-88344080D01*
X139700190Y-88344080D02*
X139795428Y-88439319D01*
X139795428Y-88439319D02*
X139890666Y-88629795D01*
X139890666Y-88629795D02*
X139890666Y-89105985D01*
X139890666Y-89105985D02*
X139795428Y-89296461D01*
X139795428Y-89296461D02*
X139700190Y-89391700D01*
X139700190Y-89391700D02*
X139509714Y-89486938D01*
X139509714Y-89486938D02*
X139033523Y-89486938D01*
X139033523Y-89486938D02*
X138843047Y-89391700D01*
X138843047Y-89391700D02*
X138747809Y-89296461D01*
X141795428Y-89486938D02*
X140652571Y-89486938D01*
X141223999Y-89486938D02*
X141223999Y-87486938D01*
X141223999Y-87486938D02*
X141033523Y-87772652D01*
X141033523Y-87772652D02*
X140843047Y-87963128D01*
X140843047Y-87963128D02*
X140652571Y-88058366D01*
X143509714Y-87486938D02*
X143128761Y-87486938D01*
X143128761Y-87486938D02*
X142938285Y-87582176D01*
X142938285Y-87582176D02*
X142843047Y-87677414D01*
X142843047Y-87677414D02*
X142652571Y-87963128D01*
X142652571Y-87963128D02*
X142557333Y-88344080D01*
X142557333Y-88344080D02*
X142557333Y-89105985D01*
X142557333Y-89105985D02*
X142652571Y-89296461D01*
X142652571Y-89296461D02*
X142747809Y-89391700D01*
X142747809Y-89391700D02*
X142938285Y-89486938D01*
X142938285Y-89486938D02*
X143319238Y-89486938D01*
X143319238Y-89486938D02*
X143509714Y-89391700D01*
X143509714Y-89391700D02*
X143604952Y-89296461D01*
X143604952Y-89296461D02*
X143700190Y-89105985D01*
X143700190Y-89105985D02*
X143700190Y-88629795D01*
X143700190Y-88629795D02*
X143604952Y-88439319D01*
X143604952Y-88439319D02*
X143509714Y-88344080D01*
X143509714Y-88344080D02*
X143319238Y-88248842D01*
X143319238Y-88248842D02*
X142938285Y-88248842D01*
X142938285Y-88248842D02*
X142747809Y-88344080D01*
X142747809Y-88344080D02*
X142652571Y-88439319D01*
X142652571Y-88439319D02*
X142557333Y-88629795D01*
X144938285Y-87486938D02*
X145128762Y-87486938D01*
X145128762Y-87486938D02*
X145319238Y-87582176D01*
X145319238Y-87582176D02*
X145414476Y-87677414D01*
X145414476Y-87677414D02*
X145509714Y-87867890D01*
X145509714Y-87867890D02*
X145604952Y-88248842D01*
X145604952Y-88248842D02*
X145604952Y-88725033D01*
X145604952Y-88725033D02*
X145509714Y-89105985D01*
X145509714Y-89105985D02*
X145414476Y-89296461D01*
X145414476Y-89296461D02*
X145319238Y-89391700D01*
X145319238Y-89391700D02*
X145128762Y-89486938D01*
X145128762Y-89486938D02*
X144938285Y-89486938D01*
X144938285Y-89486938D02*
X144747809Y-89391700D01*
X144747809Y-89391700D02*
X144652571Y-89296461D01*
X144652571Y-89296461D02*
X144557333Y-89105985D01*
X144557333Y-89105985D02*
X144462095Y-88725033D01*
X144462095Y-88725033D02*
X144462095Y-88248842D01*
X144462095Y-88248842D02*
X144557333Y-87867890D01*
X144557333Y-87867890D02*
X144652571Y-87677414D01*
X144652571Y-87677414D02*
X144747809Y-87582176D01*
X144747809Y-87582176D02*
X144938285Y-87486938D01*
D12*
X131695332Y-77766003D02*
X131769618Y-77813622D01*
X131769618Y-77813622D02*
X131843903Y-77956479D01*
X131843903Y-77956479D02*
X131843903Y-78051717D01*
X131843903Y-78051717D02*
X131769618Y-78194574D01*
X131769618Y-78194574D02*
X131621046Y-78289812D01*
X131621046Y-78289812D02*
X131472475Y-78337431D01*
X131472475Y-78337431D02*
X131175332Y-78385050D01*
X131175332Y-78385050D02*
X130952475Y-78385050D01*
X130952475Y-78385050D02*
X130655332Y-78337431D01*
X130655332Y-78337431D02*
X130506760Y-78289812D01*
X130506760Y-78289812D02*
X130358189Y-78194574D01*
X130358189Y-78194574D02*
X130283903Y-78051717D01*
X130283903Y-78051717D02*
X130283903Y-77956479D01*
X130283903Y-77956479D02*
X130358189Y-77813622D01*
X130358189Y-77813622D02*
X130432475Y-77766003D01*
X131769618Y-77385050D02*
X131843903Y-77242193D01*
X131843903Y-77242193D02*
X131843903Y-77004098D01*
X131843903Y-77004098D02*
X131769618Y-76908860D01*
X131769618Y-76908860D02*
X131695332Y-76861241D01*
X131695332Y-76861241D02*
X131546760Y-76813622D01*
X131546760Y-76813622D02*
X131398189Y-76813622D01*
X131398189Y-76813622D02*
X131249618Y-76861241D01*
X131249618Y-76861241D02*
X131175332Y-76908860D01*
X131175332Y-76908860D02*
X131101046Y-77004098D01*
X131101046Y-77004098D02*
X131026760Y-77194574D01*
X131026760Y-77194574D02*
X130952475Y-77289812D01*
X130952475Y-77289812D02*
X130878189Y-77337431D01*
X130878189Y-77337431D02*
X130729618Y-77385050D01*
X130729618Y-77385050D02*
X130581046Y-77385050D01*
X130581046Y-77385050D02*
X130432475Y-77337431D01*
X130432475Y-77337431D02*
X130358189Y-77289812D01*
X130358189Y-77289812D02*
X130283903Y-77194574D01*
X130283903Y-77194574D02*
X130283903Y-76956479D01*
X130283903Y-76956479D02*
X130358189Y-76813622D01*
X134206845Y-77766003D02*
X134281131Y-77813622D01*
X134281131Y-77813622D02*
X134355416Y-77956479D01*
X134355416Y-77956479D02*
X134355416Y-78051717D01*
X134355416Y-78051717D02*
X134281131Y-78194574D01*
X134281131Y-78194574D02*
X134132559Y-78289812D01*
X134132559Y-78289812D02*
X133983988Y-78337431D01*
X133983988Y-78337431D02*
X133686845Y-78385050D01*
X133686845Y-78385050D02*
X133463988Y-78385050D01*
X133463988Y-78385050D02*
X133166845Y-78337431D01*
X133166845Y-78337431D02*
X133018273Y-78289812D01*
X133018273Y-78289812D02*
X132869702Y-78194574D01*
X132869702Y-78194574D02*
X132795416Y-78051717D01*
X132795416Y-78051717D02*
X132795416Y-77956479D01*
X132795416Y-77956479D02*
X132869702Y-77813622D01*
X132869702Y-77813622D02*
X132943988Y-77766003D01*
X134355416Y-76861241D02*
X134355416Y-77337431D01*
X134355416Y-77337431D02*
X132795416Y-77337431D01*
X134355416Y-76527907D02*
X132795416Y-76527907D01*
X134355416Y-75956479D02*
X133463988Y-76385050D01*
X132795416Y-75956479D02*
X133686845Y-76527907D01*
X136866929Y-78337431D02*
X135306929Y-78337431D01*
X135306929Y-78337431D02*
X136421215Y-78004098D01*
X136421215Y-78004098D02*
X135306929Y-77670765D01*
X135306929Y-77670765D02*
X136866929Y-77670765D01*
X135306929Y-77004098D02*
X135306929Y-76813622D01*
X135306929Y-76813622D02*
X135381215Y-76718384D01*
X135381215Y-76718384D02*
X135529786Y-76623146D01*
X135529786Y-76623146D02*
X135826929Y-76575527D01*
X135826929Y-76575527D02*
X136346929Y-76575527D01*
X136346929Y-76575527D02*
X136644072Y-76623146D01*
X136644072Y-76623146D02*
X136792644Y-76718384D01*
X136792644Y-76718384D02*
X136866929Y-76813622D01*
X136866929Y-76813622D02*
X136866929Y-77004098D01*
X136866929Y-77004098D02*
X136792644Y-77099336D01*
X136792644Y-77099336D02*
X136644072Y-77194574D01*
X136644072Y-77194574D02*
X136346929Y-77242193D01*
X136346929Y-77242193D02*
X135826929Y-77242193D01*
X135826929Y-77242193D02*
X135529786Y-77194574D01*
X135529786Y-77194574D02*
X135381215Y-77099336D01*
X135381215Y-77099336D02*
X135306929Y-77004098D01*
X139378442Y-78337431D02*
X137818442Y-78337431D01*
X137818442Y-78337431D02*
X138932728Y-78004098D01*
X138932728Y-78004098D02*
X137818442Y-77670765D01*
X137818442Y-77670765D02*
X139378442Y-77670765D01*
X139378442Y-77194574D02*
X137818442Y-77194574D01*
X139304157Y-76766003D02*
X139378442Y-76623146D01*
X139378442Y-76623146D02*
X139378442Y-76385051D01*
X139378442Y-76385051D02*
X139304157Y-76289813D01*
X139304157Y-76289813D02*
X139229871Y-76242194D01*
X139229871Y-76242194D02*
X139081299Y-76194575D01*
X139081299Y-76194575D02*
X138932728Y-76194575D01*
X138932728Y-76194575D02*
X138784157Y-76242194D01*
X138784157Y-76242194D02*
X138709871Y-76289813D01*
X138709871Y-76289813D02*
X138635585Y-76385051D01*
X138635585Y-76385051D02*
X138561299Y-76575527D01*
X138561299Y-76575527D02*
X138487014Y-76670765D01*
X138487014Y-76670765D02*
X138412728Y-76718384D01*
X138412728Y-76718384D02*
X138264157Y-76766003D01*
X138264157Y-76766003D02*
X138115585Y-76766003D01*
X138115585Y-76766003D02*
X137967014Y-76718384D01*
X137967014Y-76718384D02*
X137892728Y-76670765D01*
X137892728Y-76670765D02*
X137818442Y-76575527D01*
X137818442Y-76575527D02*
X137818442Y-76337432D01*
X137818442Y-76337432D02*
X137892728Y-76194575D01*
X140329955Y-77861241D02*
X140329955Y-78337431D01*
X140329955Y-78337431D02*
X141072812Y-78385050D01*
X141072812Y-78385050D02*
X140998527Y-78337431D01*
X140998527Y-78337431D02*
X140924241Y-78242193D01*
X140924241Y-78242193D02*
X140924241Y-78004098D01*
X140924241Y-78004098D02*
X140998527Y-77908860D01*
X140998527Y-77908860D02*
X141072812Y-77861241D01*
X141072812Y-77861241D02*
X141221384Y-77813622D01*
X141221384Y-77813622D02*
X141592812Y-77813622D01*
X141592812Y-77813622D02*
X141741384Y-77861241D01*
X141741384Y-77861241D02*
X141815670Y-77908860D01*
X141815670Y-77908860D02*
X141889955Y-78004098D01*
X141889955Y-78004098D02*
X141889955Y-78242193D01*
X141889955Y-78242193D02*
X141815670Y-78337431D01*
X141815670Y-78337431D02*
X141741384Y-78385050D01*
X140329955Y-77527907D02*
X141889955Y-77194574D01*
X141889955Y-77194574D02*
X140329955Y-76861241D01*
X142915754Y-77813622D02*
X142841468Y-77908860D01*
X142841468Y-77908860D02*
X142841468Y-78051717D01*
X142841468Y-78051717D02*
X142915754Y-78194574D01*
X142915754Y-78194574D02*
X143064325Y-78289812D01*
X143064325Y-78289812D02*
X143212897Y-78337431D01*
X143212897Y-78337431D02*
X143510040Y-78385050D01*
X143510040Y-78385050D02*
X143732897Y-78385050D01*
X143732897Y-78385050D02*
X144030040Y-78337431D01*
X144030040Y-78337431D02*
X144178611Y-78289812D01*
X144178611Y-78289812D02*
X144327183Y-78194574D01*
X144327183Y-78194574D02*
X144401468Y-78051717D01*
X144401468Y-78051717D02*
X144401468Y-77956479D01*
X144401468Y-77956479D02*
X144327183Y-77813622D01*
X144327183Y-77813622D02*
X144252897Y-77766003D01*
X144252897Y-77766003D02*
X143732897Y-77766003D01*
X143732897Y-77766003D02*
X143732897Y-77956479D01*
X144401468Y-77337431D02*
X142841468Y-77337431D01*
X142841468Y-77337431D02*
X144401468Y-76766003D01*
X144401468Y-76766003D02*
X142841468Y-76766003D01*
X144401468Y-76289812D02*
X142841468Y-76289812D01*
X142841468Y-76289812D02*
X142841468Y-76051717D01*
X142841468Y-76051717D02*
X142915754Y-75908860D01*
X142915754Y-75908860D02*
X143064325Y-75813622D01*
X143064325Y-75813622D02*
X143212897Y-75766003D01*
X143212897Y-75766003D02*
X143510040Y-75718384D01*
X143510040Y-75718384D02*
X143732897Y-75718384D01*
X143732897Y-75718384D02*
X144030040Y-75766003D01*
X144030040Y-75766003D02*
X144178611Y-75813622D01*
X144178611Y-75813622D02*
X144327183Y-75908860D01*
X144327183Y-75908860D02*
X144401468Y-76051717D01*
X144401468Y-76051717D02*
X144401468Y-76289812D01*
D16*
X170231284Y-78632485D02*
X170269380Y-78594390D01*
X170269380Y-78594390D02*
X170345570Y-78556295D01*
X170345570Y-78556295D02*
X170536046Y-78556295D01*
X170536046Y-78556295D02*
X170612237Y-78594390D01*
X170612237Y-78594390D02*
X170650332Y-78632485D01*
X170650332Y-78632485D02*
X170688427Y-78708676D01*
X170688427Y-78708676D02*
X170688427Y-78784866D01*
X170688427Y-78784866D02*
X170650332Y-78899152D01*
X170650332Y-78899152D02*
X170193189Y-79356295D01*
X170193189Y-79356295D02*
X170688427Y-79356295D01*
X171183666Y-78556295D02*
X171259856Y-78556295D01*
X171259856Y-78556295D02*
X171336047Y-78594390D01*
X171336047Y-78594390D02*
X171374142Y-78632485D01*
X171374142Y-78632485D02*
X171412237Y-78708676D01*
X171412237Y-78708676D02*
X171450332Y-78861057D01*
X171450332Y-78861057D02*
X171450332Y-79051533D01*
X171450332Y-79051533D02*
X171412237Y-79203914D01*
X171412237Y-79203914D02*
X171374142Y-79280104D01*
X171374142Y-79280104D02*
X171336047Y-79318200D01*
X171336047Y-79318200D02*
X171259856Y-79356295D01*
X171259856Y-79356295D02*
X171183666Y-79356295D01*
X171183666Y-79356295D02*
X171107475Y-79318200D01*
X171107475Y-79318200D02*
X171069380Y-79280104D01*
X171069380Y-79280104D02*
X171031285Y-79203914D01*
X171031285Y-79203914D02*
X170993189Y-79051533D01*
X170993189Y-79051533D02*
X170993189Y-78861057D01*
X170993189Y-78861057D02*
X171031285Y-78708676D01*
X171031285Y-78708676D02*
X171069380Y-78632485D01*
X171069380Y-78632485D02*
X171107475Y-78594390D01*
X171107475Y-78594390D02*
X171183666Y-78556295D01*
X171755094Y-78632485D02*
X171793190Y-78594390D01*
X171793190Y-78594390D02*
X171869380Y-78556295D01*
X171869380Y-78556295D02*
X172059856Y-78556295D01*
X172059856Y-78556295D02*
X172136047Y-78594390D01*
X172136047Y-78594390D02*
X172174142Y-78632485D01*
X172174142Y-78632485D02*
X172212237Y-78708676D01*
X172212237Y-78708676D02*
X172212237Y-78784866D01*
X172212237Y-78784866D02*
X172174142Y-78899152D01*
X172174142Y-78899152D02*
X171716999Y-79356295D01*
X171716999Y-79356295D02*
X172212237Y-79356295D01*
X172897952Y-78822961D02*
X172897952Y-79356295D01*
X172707476Y-78518200D02*
X172516999Y-79089628D01*
X172516999Y-79089628D02*
X173012238Y-79089628D01*
X173317000Y-79051533D02*
X173926524Y-79051533D01*
X174459857Y-78556295D02*
X174536047Y-78556295D01*
X174536047Y-78556295D02*
X174612238Y-78594390D01*
X174612238Y-78594390D02*
X174650333Y-78632485D01*
X174650333Y-78632485D02*
X174688428Y-78708676D01*
X174688428Y-78708676D02*
X174726523Y-78861057D01*
X174726523Y-78861057D02*
X174726523Y-79051533D01*
X174726523Y-79051533D02*
X174688428Y-79203914D01*
X174688428Y-79203914D02*
X174650333Y-79280104D01*
X174650333Y-79280104D02*
X174612238Y-79318200D01*
X174612238Y-79318200D02*
X174536047Y-79356295D01*
X174536047Y-79356295D02*
X174459857Y-79356295D01*
X174459857Y-79356295D02*
X174383666Y-79318200D01*
X174383666Y-79318200D02*
X174345571Y-79280104D01*
X174345571Y-79280104D02*
X174307476Y-79203914D01*
X174307476Y-79203914D02*
X174269380Y-79051533D01*
X174269380Y-79051533D02*
X174269380Y-78861057D01*
X174269380Y-78861057D02*
X174307476Y-78708676D01*
X174307476Y-78708676D02*
X174345571Y-78632485D01*
X174345571Y-78632485D02*
X174383666Y-78594390D01*
X174383666Y-78594390D02*
X174459857Y-78556295D01*
X174993190Y-78556295D02*
X175526524Y-78556295D01*
X175526524Y-78556295D02*
X175183666Y-79356295D01*
X175831286Y-79051533D02*
X176440810Y-79051533D01*
X176783666Y-78632485D02*
X176821762Y-78594390D01*
X176821762Y-78594390D02*
X176897952Y-78556295D01*
X176897952Y-78556295D02*
X177088428Y-78556295D01*
X177088428Y-78556295D02*
X177164619Y-78594390D01*
X177164619Y-78594390D02*
X177202714Y-78632485D01*
X177202714Y-78632485D02*
X177240809Y-78708676D01*
X177240809Y-78708676D02*
X177240809Y-78784866D01*
X177240809Y-78784866D02*
X177202714Y-78899152D01*
X177202714Y-78899152D02*
X176745571Y-79356295D01*
X176745571Y-79356295D02*
X177240809Y-79356295D01*
X177507476Y-78556295D02*
X178040810Y-78556295D01*
X178040810Y-78556295D02*
X177697952Y-79356295D01*
D14*
X133186904Y-101073065D02*
X134139285Y-101073065D01*
X132996428Y-101644494D02*
X133663094Y-99644494D01*
X133663094Y-99644494D02*
X134329761Y-101644494D01*
X134710714Y-99644494D02*
X135853571Y-99644494D01*
X135282142Y-101644494D02*
X135282142Y-99644494D01*
X136520238Y-101644494D02*
X136520238Y-100311160D01*
X136520238Y-100501636D02*
X136615476Y-100406398D01*
X136615476Y-100406398D02*
X136805952Y-100311160D01*
X136805952Y-100311160D02*
X137091667Y-100311160D01*
X137091667Y-100311160D02*
X137282143Y-100406398D01*
X137282143Y-100406398D02*
X137377381Y-100596875D01*
X137377381Y-100596875D02*
X137377381Y-101644494D01*
X137377381Y-100596875D02*
X137472619Y-100406398D01*
X137472619Y-100406398D02*
X137663095Y-100311160D01*
X137663095Y-100311160D02*
X137948809Y-100311160D01*
X137948809Y-100311160D02*
X138139286Y-100406398D01*
X138139286Y-100406398D02*
X138234524Y-100596875D01*
X138234524Y-100596875D02*
X138234524Y-101644494D01*
X139948810Y-101549256D02*
X139758334Y-101644494D01*
X139758334Y-101644494D02*
X139377381Y-101644494D01*
X139377381Y-101644494D02*
X139186905Y-101549256D01*
X139186905Y-101549256D02*
X139091667Y-101358779D01*
X139091667Y-101358779D02*
X139091667Y-100596875D01*
X139091667Y-100596875D02*
X139186905Y-100406398D01*
X139186905Y-100406398D02*
X139377381Y-100311160D01*
X139377381Y-100311160D02*
X139758334Y-100311160D01*
X139758334Y-100311160D02*
X139948810Y-100406398D01*
X139948810Y-100406398D02*
X140044048Y-100596875D01*
X140044048Y-100596875D02*
X140044048Y-100787351D01*
X140044048Y-100787351D02*
X139091667Y-100977827D01*
X141758334Y-100311160D02*
X141758334Y-101930208D01*
X141758334Y-101930208D02*
X141663096Y-102120684D01*
X141663096Y-102120684D02*
X141567858Y-102215922D01*
X141567858Y-102215922D02*
X141377381Y-102311160D01*
X141377381Y-102311160D02*
X141091667Y-102311160D01*
X141091667Y-102311160D02*
X140901191Y-102215922D01*
X141758334Y-101549256D02*
X141567858Y-101644494D01*
X141567858Y-101644494D02*
X141186905Y-101644494D01*
X141186905Y-101644494D02*
X140996429Y-101549256D01*
X140996429Y-101549256D02*
X140901191Y-101454017D01*
X140901191Y-101454017D02*
X140805953Y-101263541D01*
X140805953Y-101263541D02*
X140805953Y-100692113D01*
X140805953Y-100692113D02*
X140901191Y-100501636D01*
X140901191Y-100501636D02*
X140996429Y-100406398D01*
X140996429Y-100406398D02*
X141186905Y-100311160D01*
X141186905Y-100311160D02*
X141567858Y-100311160D01*
X141567858Y-100311160D02*
X141758334Y-100406398D01*
X143567858Y-101644494D02*
X143567858Y-100596875D01*
X143567858Y-100596875D02*
X143472620Y-100406398D01*
X143472620Y-100406398D02*
X143282144Y-100311160D01*
X143282144Y-100311160D02*
X142901191Y-100311160D01*
X142901191Y-100311160D02*
X142710715Y-100406398D01*
X143567858Y-101549256D02*
X143377382Y-101644494D01*
X143377382Y-101644494D02*
X142901191Y-101644494D01*
X142901191Y-101644494D02*
X142710715Y-101549256D01*
X142710715Y-101549256D02*
X142615477Y-101358779D01*
X142615477Y-101358779D02*
X142615477Y-101168303D01*
X142615477Y-101168303D02*
X142710715Y-100977827D01*
X142710715Y-100977827D02*
X142901191Y-100882589D01*
X142901191Y-100882589D02*
X143377382Y-100882589D01*
X143377382Y-100882589D02*
X143567858Y-100787351D01*
X135139285Y-104864382D02*
X133996428Y-104864382D01*
X134567856Y-104864382D02*
X134567856Y-102864382D01*
X134567856Y-102864382D02*
X134377380Y-103150096D01*
X134377380Y-103150096D02*
X134186904Y-103340572D01*
X134186904Y-103340572D02*
X133996428Y-103435810D01*
X135901190Y-103054858D02*
X135996428Y-102959620D01*
X135996428Y-102959620D02*
X136186904Y-102864382D01*
X136186904Y-102864382D02*
X136663095Y-102864382D01*
X136663095Y-102864382D02*
X136853571Y-102959620D01*
X136853571Y-102959620D02*
X136948809Y-103054858D01*
X136948809Y-103054858D02*
X137044047Y-103245334D01*
X137044047Y-103245334D02*
X137044047Y-103435810D01*
X137044047Y-103435810D02*
X136948809Y-103721524D01*
X136948809Y-103721524D02*
X135805952Y-104864382D01*
X135805952Y-104864382D02*
X137044047Y-104864382D01*
X138186904Y-103721524D02*
X137996428Y-103626286D01*
X137996428Y-103626286D02*
X137901190Y-103531048D01*
X137901190Y-103531048D02*
X137805952Y-103340572D01*
X137805952Y-103340572D02*
X137805952Y-103245334D01*
X137805952Y-103245334D02*
X137901190Y-103054858D01*
X137901190Y-103054858D02*
X137996428Y-102959620D01*
X137996428Y-102959620D02*
X138186904Y-102864382D01*
X138186904Y-102864382D02*
X138567857Y-102864382D01*
X138567857Y-102864382D02*
X138758333Y-102959620D01*
X138758333Y-102959620D02*
X138853571Y-103054858D01*
X138853571Y-103054858D02*
X138948809Y-103245334D01*
X138948809Y-103245334D02*
X138948809Y-103340572D01*
X138948809Y-103340572D02*
X138853571Y-103531048D01*
X138853571Y-103531048D02*
X138758333Y-103626286D01*
X138758333Y-103626286D02*
X138567857Y-103721524D01*
X138567857Y-103721524D02*
X138186904Y-103721524D01*
X138186904Y-103721524D02*
X137996428Y-103816763D01*
X137996428Y-103816763D02*
X137901190Y-103912001D01*
X137901190Y-103912001D02*
X137805952Y-104102477D01*
X137805952Y-104102477D02*
X137805952Y-104483429D01*
X137805952Y-104483429D02*
X137901190Y-104673905D01*
X137901190Y-104673905D02*
X137996428Y-104769144D01*
X137996428Y-104769144D02*
X138186904Y-104864382D01*
X138186904Y-104864382D02*
X138567857Y-104864382D01*
X138567857Y-104864382D02*
X138758333Y-104769144D01*
X138758333Y-104769144D02*
X138853571Y-104673905D01*
X138853571Y-104673905D02*
X138948809Y-104483429D01*
X138948809Y-104483429D02*
X138948809Y-104102477D01*
X138948809Y-104102477D02*
X138853571Y-103912001D01*
X138853571Y-103912001D02*
X138758333Y-103816763D01*
X138758333Y-103816763D02*
X138567857Y-103721524D01*
X140663095Y-103531048D02*
X140663095Y-104864382D01*
X140186904Y-102769144D02*
X139710714Y-104197715D01*
X139710714Y-104197715D02*
X140948809Y-104197715D01*
X141710714Y-104864382D02*
X141710714Y-102864382D01*
X141710714Y-102864382D02*
X142472619Y-102864382D01*
X142472619Y-102864382D02*
X142663095Y-102959620D01*
X142663095Y-102959620D02*
X142758333Y-103054858D01*
X142758333Y-103054858D02*
X142853571Y-103245334D01*
X142853571Y-103245334D02*
X142853571Y-103531048D01*
X142853571Y-103531048D02*
X142758333Y-103721524D01*
X142758333Y-103721524D02*
X142663095Y-103816763D01*
X142663095Y-103816763D02*
X142472619Y-103912001D01*
X142472619Y-103912001D02*
X141710714Y-103912001D01*
D12*
X118516376Y-110356543D02*
X118457328Y-110533686D01*
X118457328Y-110533686D02*
X118398280Y-110592733D01*
X118398280Y-110592733D02*
X118280185Y-110651781D01*
X118280185Y-110651781D02*
X118103042Y-110651781D01*
X118103042Y-110651781D02*
X117984947Y-110592733D01*
X117984947Y-110592733D02*
X117925900Y-110533686D01*
X117925900Y-110533686D02*
X117866852Y-110415591D01*
X117866852Y-110415591D02*
X117866852Y-109943210D01*
X117866852Y-109943210D02*
X119106852Y-109943210D01*
X119106852Y-109943210D02*
X119106852Y-110356543D01*
X119106852Y-110356543D02*
X119047804Y-110474638D01*
X119047804Y-110474638D02*
X118988757Y-110533686D01*
X118988757Y-110533686D02*
X118870661Y-110592733D01*
X118870661Y-110592733D02*
X118752566Y-110592733D01*
X118752566Y-110592733D02*
X118634471Y-110533686D01*
X118634471Y-110533686D02*
X118575423Y-110474638D01*
X118575423Y-110474638D02*
X118516376Y-110356543D01*
X118516376Y-110356543D02*
X118516376Y-109943210D01*
X119106852Y-111183210D02*
X118103042Y-111183210D01*
X118103042Y-111183210D02*
X117984947Y-111242257D01*
X117984947Y-111242257D02*
X117925900Y-111301305D01*
X117925900Y-111301305D02*
X117866852Y-111419400D01*
X117866852Y-111419400D02*
X117866852Y-111655591D01*
X117866852Y-111655591D02*
X117925900Y-111773686D01*
X117925900Y-111773686D02*
X117984947Y-111832733D01*
X117984947Y-111832733D02*
X118103042Y-111891781D01*
X118103042Y-111891781D02*
X119106852Y-111891781D01*
X117925900Y-112423210D02*
X117866852Y-112600353D01*
X117866852Y-112600353D02*
X117866852Y-112895591D01*
X117866852Y-112895591D02*
X117925900Y-113013686D01*
X117925900Y-113013686D02*
X117984947Y-113072734D01*
X117984947Y-113072734D02*
X118103042Y-113131781D01*
X118103042Y-113131781D02*
X118221138Y-113131781D01*
X118221138Y-113131781D02*
X118339233Y-113072734D01*
X118339233Y-113072734D02*
X118398280Y-113013686D01*
X118398280Y-113013686D02*
X118457328Y-112895591D01*
X118457328Y-112895591D02*
X118516376Y-112659400D01*
X118516376Y-112659400D02*
X118575423Y-112541305D01*
X118575423Y-112541305D02*
X118634471Y-112482258D01*
X118634471Y-112482258D02*
X118752566Y-112423210D01*
X118752566Y-112423210D02*
X118870661Y-112423210D01*
X118870661Y-112423210D02*
X118988757Y-112482258D01*
X118988757Y-112482258D02*
X119047804Y-112541305D01*
X119047804Y-112541305D02*
X119106852Y-112659400D01*
X119106852Y-112659400D02*
X119106852Y-112954639D01*
X119106852Y-112954639D02*
X119047804Y-113131781D01*
X118457328Y-113899400D02*
X117866852Y-113899400D01*
X119106852Y-113486067D02*
X118457328Y-113899400D01*
X118457328Y-113899400D02*
X119106852Y-114312733D01*
X146604857Y-80590856D02*
X146662000Y-80647999D01*
X146662000Y-80647999D02*
X146719142Y-80819427D01*
X146719142Y-80819427D02*
X146719142Y-80933713D01*
X146719142Y-80933713D02*
X146662000Y-81105142D01*
X146662000Y-81105142D02*
X146547714Y-81219427D01*
X146547714Y-81219427D02*
X146433428Y-81276570D01*
X146433428Y-81276570D02*
X146204857Y-81333713D01*
X146204857Y-81333713D02*
X146033428Y-81333713D01*
X146033428Y-81333713D02*
X145804857Y-81276570D01*
X145804857Y-81276570D02*
X145690571Y-81219427D01*
X145690571Y-81219427D02*
X145576285Y-81105142D01*
X145576285Y-81105142D02*
X145519142Y-80933713D01*
X145519142Y-80933713D02*
X145519142Y-80819427D01*
X145519142Y-80819427D02*
X145576285Y-80647999D01*
X145576285Y-80647999D02*
X145633428Y-80590856D01*
X146376285Y-80133713D02*
X146376285Y-79562285D01*
X146719142Y-80247999D02*
X145519142Y-79847999D01*
X145519142Y-79847999D02*
X146719142Y-79447999D01*
X146719142Y-78362285D02*
X146147714Y-78762285D01*
X146719142Y-79047999D02*
X145519142Y-79047999D01*
X145519142Y-79047999D02*
X145519142Y-78590856D01*
X145519142Y-78590856D02*
X145576285Y-78476571D01*
X145576285Y-78476571D02*
X145633428Y-78419428D01*
X145633428Y-78419428D02*
X145747714Y-78362285D01*
X145747714Y-78362285D02*
X145919142Y-78362285D01*
X145919142Y-78362285D02*
X146033428Y-78419428D01*
X146033428Y-78419428D02*
X146090571Y-78476571D01*
X146090571Y-78476571D02*
X146147714Y-78590856D01*
X146147714Y-78590856D02*
X146147714Y-79047999D01*
X146719142Y-77847999D02*
X145519142Y-77847999D01*
X145519142Y-77847999D02*
X145519142Y-77562285D01*
X145519142Y-77562285D02*
X145576285Y-77390856D01*
X145576285Y-77390856D02*
X145690571Y-77276571D01*
X145690571Y-77276571D02*
X145804857Y-77219428D01*
X145804857Y-77219428D02*
X146033428Y-77162285D01*
X146033428Y-77162285D02*
X146204857Y-77162285D01*
X146204857Y-77162285D02*
X146433428Y-77219428D01*
X146433428Y-77219428D02*
X146547714Y-77276571D01*
X146547714Y-77276571D02*
X146662000Y-77390856D01*
X146662000Y-77390856D02*
X146719142Y-77562285D01*
X146719142Y-77562285D02*
X146719142Y-77847999D01*
D14*
X176180190Y-89678061D02*
X174846857Y-89678061D01*
X174846857Y-89678061D02*
X175704000Y-87678061D01*
X173132571Y-89678061D02*
X174084952Y-89678061D01*
X174084952Y-89678061D02*
X174180190Y-88725680D01*
X174180190Y-88725680D02*
X174084952Y-88820919D01*
X174084952Y-88820919D02*
X173894476Y-88916157D01*
X173894476Y-88916157D02*
X173418285Y-88916157D01*
X173418285Y-88916157D02*
X173227809Y-88820919D01*
X173227809Y-88820919D02*
X173132571Y-88725680D01*
X173132571Y-88725680D02*
X173037333Y-88535204D01*
X173037333Y-88535204D02*
X173037333Y-88059014D01*
X173037333Y-88059014D02*
X173132571Y-87868538D01*
X173132571Y-87868538D02*
X173227809Y-87773300D01*
X173227809Y-87773300D02*
X173418285Y-87678061D01*
X173418285Y-87678061D02*
X173894476Y-87678061D01*
X173894476Y-87678061D02*
X174084952Y-87773300D01*
X174084952Y-87773300D02*
X174180190Y-87868538D01*
X171132571Y-87678061D02*
X172275428Y-87678061D01*
X171704000Y-87678061D02*
X171704000Y-89678061D01*
X171704000Y-89678061D02*
X171894476Y-89392347D01*
X171894476Y-89392347D02*
X172084952Y-89201871D01*
X172084952Y-89201871D02*
X172275428Y-89106633D01*
X169418285Y-89678061D02*
X169799238Y-89678061D01*
X169799238Y-89678061D02*
X169989714Y-89582823D01*
X169989714Y-89582823D02*
X170084952Y-89487585D01*
X170084952Y-89487585D02*
X170275428Y-89201871D01*
X170275428Y-89201871D02*
X170370666Y-88820919D01*
X170370666Y-88820919D02*
X170370666Y-88059014D01*
X170370666Y-88059014D02*
X170275428Y-87868538D01*
X170275428Y-87868538D02*
X170180190Y-87773300D01*
X170180190Y-87773300D02*
X169989714Y-87678061D01*
X169989714Y-87678061D02*
X169608761Y-87678061D01*
X169608761Y-87678061D02*
X169418285Y-87773300D01*
X169418285Y-87773300D02*
X169323047Y-87868538D01*
X169323047Y-87868538D02*
X169227809Y-88059014D01*
X169227809Y-88059014D02*
X169227809Y-88535204D01*
X169227809Y-88535204D02*
X169323047Y-88725680D01*
X169323047Y-88725680D02*
X169418285Y-88820919D01*
X169418285Y-88820919D02*
X169608761Y-88916157D01*
X169608761Y-88916157D02*
X169989714Y-88916157D01*
X169989714Y-88916157D02*
X170180190Y-88820919D01*
X170180190Y-88820919D02*
X170275428Y-88725680D01*
X170275428Y-88725680D02*
X170370666Y-88535204D01*
X167323047Y-87678061D02*
X168465904Y-87678061D01*
X167894476Y-87678061D02*
X167894476Y-89678061D01*
X167894476Y-89678061D02*
X168084952Y-89392347D01*
X168084952Y-89392347D02*
X168275428Y-89201871D01*
X168275428Y-89201871D02*
X168465904Y-89106633D01*
D16*
X126438819Y-108624666D02*
X126438819Y-109100856D01*
X126438819Y-109100856D02*
X125438819Y-109100856D01*
X126438819Y-107767523D02*
X126438819Y-108338951D01*
X126438819Y-108053237D02*
X125438819Y-108053237D01*
X125438819Y-108053237D02*
X125581676Y-108148475D01*
X125581676Y-108148475D02*
X125676914Y-108243713D01*
X125676914Y-108243713D02*
X125724533Y-108338951D01*
X164179333Y-83385819D02*
X163846000Y-82909628D01*
X163607905Y-83385819D02*
X163607905Y-82385819D01*
X163607905Y-82385819D02*
X163988857Y-82385819D01*
X163988857Y-82385819D02*
X164084095Y-82433438D01*
X164084095Y-82433438D02*
X164131714Y-82481057D01*
X164131714Y-82481057D02*
X164179333Y-82576295D01*
X164179333Y-82576295D02*
X164179333Y-82719152D01*
X164179333Y-82719152D02*
X164131714Y-82814390D01*
X164131714Y-82814390D02*
X164084095Y-82862009D01*
X164084095Y-82862009D02*
X163988857Y-82909628D01*
X163988857Y-82909628D02*
X163607905Y-82909628D01*
X165179333Y-83385819D02*
X164846000Y-82909628D01*
X164607905Y-83385819D02*
X164607905Y-82385819D01*
X164607905Y-82385819D02*
X164988857Y-82385819D01*
X164988857Y-82385819D02*
X165084095Y-82433438D01*
X165084095Y-82433438D02*
X165131714Y-82481057D01*
X165131714Y-82481057D02*
X165179333Y-82576295D01*
X165179333Y-82576295D02*
X165179333Y-82719152D01*
X165179333Y-82719152D02*
X165131714Y-82814390D01*
X165131714Y-82814390D02*
X165084095Y-82862009D01*
X165084095Y-82862009D02*
X164988857Y-82909628D01*
X164988857Y-82909628D02*
X164607905Y-82909628D01*
X166131714Y-83385819D02*
X165560286Y-83385819D01*
X165846000Y-83385819D02*
X165846000Y-82385819D01*
X165846000Y-82385819D02*
X165750762Y-82528676D01*
X165750762Y-82528676D02*
X165655524Y-82623914D01*
X165655524Y-82623914D02*
X165560286Y-82671533D01*
X129613819Y-113371189D02*
X128613819Y-113371189D01*
X129518580Y-112323571D02*
X129566200Y-112371190D01*
X129566200Y-112371190D02*
X129613819Y-112514047D01*
X129613819Y-112514047D02*
X129613819Y-112609285D01*
X129613819Y-112609285D02*
X129566200Y-112752142D01*
X129566200Y-112752142D02*
X129470961Y-112847380D01*
X129470961Y-112847380D02*
X129375723Y-112894999D01*
X129375723Y-112894999D02*
X129185247Y-112942618D01*
X129185247Y-112942618D02*
X129042390Y-112942618D01*
X129042390Y-112942618D02*
X128851914Y-112894999D01*
X128851914Y-112894999D02*
X128756676Y-112847380D01*
X128756676Y-112847380D02*
X128661438Y-112752142D01*
X128661438Y-112752142D02*
X128613819Y-112609285D01*
X128613819Y-112609285D02*
X128613819Y-112514047D01*
X128613819Y-112514047D02*
X128661438Y-112371190D01*
X128661438Y-112371190D02*
X128709057Y-112323571D01*
X129613819Y-111371190D02*
X129613819Y-111942618D01*
X129613819Y-111656904D02*
X128613819Y-111656904D01*
X128613819Y-111656904D02*
X128756676Y-111752142D01*
X128756676Y-111752142D02*
X128851914Y-111847380D01*
X128851914Y-111847380D02*
X128899533Y-111942618D01*
X128305719Y-85723289D02*
X127305719Y-85723289D01*
X128210480Y-84675671D02*
X128258100Y-84723290D01*
X128258100Y-84723290D02*
X128305719Y-84866147D01*
X128305719Y-84866147D02*
X128305719Y-84961385D01*
X128305719Y-84961385D02*
X128258100Y-85104242D01*
X128258100Y-85104242D02*
X128162861Y-85199480D01*
X128162861Y-85199480D02*
X128067623Y-85247099D01*
X128067623Y-85247099D02*
X127877147Y-85294718D01*
X127877147Y-85294718D02*
X127734290Y-85294718D01*
X127734290Y-85294718D02*
X127543814Y-85247099D01*
X127543814Y-85247099D02*
X127448576Y-85199480D01*
X127448576Y-85199480D02*
X127353338Y-85104242D01*
X127353338Y-85104242D02*
X127305719Y-84961385D01*
X127305719Y-84961385D02*
X127305719Y-84866147D01*
X127305719Y-84866147D02*
X127353338Y-84723290D01*
X127353338Y-84723290D02*
X127400957Y-84675671D01*
X127400957Y-84294718D02*
X127353338Y-84247099D01*
X127353338Y-84247099D02*
X127305719Y-84151861D01*
X127305719Y-84151861D02*
X127305719Y-83913766D01*
X127305719Y-83913766D02*
X127353338Y-83818528D01*
X127353338Y-83818528D02*
X127400957Y-83770909D01*
X127400957Y-83770909D02*
X127496195Y-83723290D01*
X127496195Y-83723290D02*
X127591433Y-83723290D01*
X127591433Y-83723290D02*
X127734290Y-83770909D01*
X127734290Y-83770909D02*
X128305719Y-84342337D01*
X128305719Y-84342337D02*
X128305719Y-83723290D01*
X185874819Y-89622189D02*
X184874819Y-89622189D01*
X185779580Y-88574571D02*
X185827200Y-88622190D01*
X185827200Y-88622190D02*
X185874819Y-88765047D01*
X185874819Y-88765047D02*
X185874819Y-88860285D01*
X185874819Y-88860285D02*
X185827200Y-89003142D01*
X185827200Y-89003142D02*
X185731961Y-89098380D01*
X185731961Y-89098380D02*
X185636723Y-89145999D01*
X185636723Y-89145999D02*
X185446247Y-89193618D01*
X185446247Y-89193618D02*
X185303390Y-89193618D01*
X185303390Y-89193618D02*
X185112914Y-89145999D01*
X185112914Y-89145999D02*
X185017676Y-89098380D01*
X185017676Y-89098380D02*
X184922438Y-89003142D01*
X184922438Y-89003142D02*
X184874819Y-88860285D01*
X184874819Y-88860285D02*
X184874819Y-88765047D01*
X184874819Y-88765047D02*
X184922438Y-88622190D01*
X184922438Y-88622190D02*
X184970057Y-88574571D01*
X184874819Y-88241237D02*
X184874819Y-87622190D01*
X184874819Y-87622190D02*
X185255771Y-87955523D01*
X185255771Y-87955523D02*
X185255771Y-87812666D01*
X185255771Y-87812666D02*
X185303390Y-87717428D01*
X185303390Y-87717428D02*
X185351009Y-87669809D01*
X185351009Y-87669809D02*
X185446247Y-87622190D01*
X185446247Y-87622190D02*
X185684342Y-87622190D01*
X185684342Y-87622190D02*
X185779580Y-87669809D01*
X185779580Y-87669809D02*
X185827200Y-87717428D01*
X185827200Y-87717428D02*
X185874819Y-87812666D01*
X185874819Y-87812666D02*
X185874819Y-88098380D01*
X185874819Y-88098380D02*
X185827200Y-88193618D01*
X185827200Y-88193618D02*
X185779580Y-88241237D01*
X119858333Y-79659580D02*
X119810714Y-79707200D01*
X119810714Y-79707200D02*
X119667857Y-79754819D01*
X119667857Y-79754819D02*
X119572619Y-79754819D01*
X119572619Y-79754819D02*
X119429762Y-79707200D01*
X119429762Y-79707200D02*
X119334524Y-79611961D01*
X119334524Y-79611961D02*
X119286905Y-79516723D01*
X119286905Y-79516723D02*
X119239286Y-79326247D01*
X119239286Y-79326247D02*
X119239286Y-79183390D01*
X119239286Y-79183390D02*
X119286905Y-78992914D01*
X119286905Y-78992914D02*
X119334524Y-78897676D01*
X119334524Y-78897676D02*
X119429762Y-78802438D01*
X119429762Y-78802438D02*
X119572619Y-78754819D01*
X119572619Y-78754819D02*
X119667857Y-78754819D01*
X119667857Y-78754819D02*
X119810714Y-78802438D01*
X119810714Y-78802438D02*
X119858333Y-78850057D01*
X120715476Y-78754819D02*
X120525000Y-78754819D01*
X120525000Y-78754819D02*
X120429762Y-78802438D01*
X120429762Y-78802438D02*
X120382143Y-78850057D01*
X120382143Y-78850057D02*
X120286905Y-78992914D01*
X120286905Y-78992914D02*
X120239286Y-79183390D01*
X120239286Y-79183390D02*
X120239286Y-79564342D01*
X120239286Y-79564342D02*
X120286905Y-79659580D01*
X120286905Y-79659580D02*
X120334524Y-79707200D01*
X120334524Y-79707200D02*
X120429762Y-79754819D01*
X120429762Y-79754819D02*
X120620238Y-79754819D01*
X120620238Y-79754819D02*
X120715476Y-79707200D01*
X120715476Y-79707200D02*
X120763095Y-79659580D01*
X120763095Y-79659580D02*
X120810714Y-79564342D01*
X120810714Y-79564342D02*
X120810714Y-79326247D01*
X120810714Y-79326247D02*
X120763095Y-79231009D01*
X120763095Y-79231009D02*
X120715476Y-79183390D01*
X120715476Y-79183390D02*
X120620238Y-79135771D01*
X120620238Y-79135771D02*
X120429762Y-79135771D01*
X120429762Y-79135771D02*
X120334524Y-79183390D01*
X120334524Y-79183390D02*
X120286905Y-79231009D01*
X120286905Y-79231009D02*
X120239286Y-79326247D01*
X150277533Y-113211780D02*
X150229914Y-113259400D01*
X150229914Y-113259400D02*
X150087057Y-113307019D01*
X150087057Y-113307019D02*
X149991819Y-113307019D01*
X149991819Y-113307019D02*
X149848962Y-113259400D01*
X149848962Y-113259400D02*
X149753724Y-113164161D01*
X149753724Y-113164161D02*
X149706105Y-113068923D01*
X149706105Y-113068923D02*
X149658486Y-112878447D01*
X149658486Y-112878447D02*
X149658486Y-112735590D01*
X149658486Y-112735590D02*
X149706105Y-112545114D01*
X149706105Y-112545114D02*
X149753724Y-112449876D01*
X149753724Y-112449876D02*
X149848962Y-112354638D01*
X149848962Y-112354638D02*
X149991819Y-112307019D01*
X149991819Y-112307019D02*
X150087057Y-112307019D01*
X150087057Y-112307019D02*
X150229914Y-112354638D01*
X150229914Y-112354638D02*
X150277533Y-112402257D01*
X150610867Y-112307019D02*
X151229914Y-112307019D01*
X151229914Y-112307019D02*
X150896581Y-112687971D01*
X150896581Y-112687971D02*
X151039438Y-112687971D01*
X151039438Y-112687971D02*
X151134676Y-112735590D01*
X151134676Y-112735590D02*
X151182295Y-112783209D01*
X151182295Y-112783209D02*
X151229914Y-112878447D01*
X151229914Y-112878447D02*
X151229914Y-113116542D01*
X151229914Y-113116542D02*
X151182295Y-113211780D01*
X151182295Y-113211780D02*
X151134676Y-113259400D01*
X151134676Y-113259400D02*
X151039438Y-113307019D01*
X151039438Y-113307019D02*
X150753724Y-113307019D01*
X150753724Y-113307019D02*
X150658486Y-113259400D01*
X150658486Y-113259400D02*
X150610867Y-113211780D01*
X152868333Y-82655580D02*
X152820714Y-82703200D01*
X152820714Y-82703200D02*
X152677857Y-82750819D01*
X152677857Y-82750819D02*
X152582619Y-82750819D01*
X152582619Y-82750819D02*
X152439762Y-82703200D01*
X152439762Y-82703200D02*
X152344524Y-82607961D01*
X152344524Y-82607961D02*
X152296905Y-82512723D01*
X152296905Y-82512723D02*
X152249286Y-82322247D01*
X152249286Y-82322247D02*
X152249286Y-82179390D01*
X152249286Y-82179390D02*
X152296905Y-81988914D01*
X152296905Y-81988914D02*
X152344524Y-81893676D01*
X152344524Y-81893676D02*
X152439762Y-81798438D01*
X152439762Y-81798438D02*
X152582619Y-81750819D01*
X152582619Y-81750819D02*
X152677857Y-81750819D01*
X152677857Y-81750819D02*
X152820714Y-81798438D01*
X152820714Y-81798438D02*
X152868333Y-81846057D01*
X153725476Y-82084152D02*
X153725476Y-82750819D01*
X153487381Y-81703200D02*
X153249286Y-82417485D01*
X153249286Y-82417485D02*
X153868333Y-82417485D01*
X158434580Y-85066666D02*
X158482200Y-85114285D01*
X158482200Y-85114285D02*
X158529819Y-85257142D01*
X158529819Y-85257142D02*
X158529819Y-85352380D01*
X158529819Y-85352380D02*
X158482200Y-85495237D01*
X158482200Y-85495237D02*
X158386961Y-85590475D01*
X158386961Y-85590475D02*
X158291723Y-85638094D01*
X158291723Y-85638094D02*
X158101247Y-85685713D01*
X158101247Y-85685713D02*
X157958390Y-85685713D01*
X157958390Y-85685713D02*
X157767914Y-85638094D01*
X157767914Y-85638094D02*
X157672676Y-85590475D01*
X157672676Y-85590475D02*
X157577438Y-85495237D01*
X157577438Y-85495237D02*
X157529819Y-85352380D01*
X157529819Y-85352380D02*
X157529819Y-85257142D01*
X157529819Y-85257142D02*
X157577438Y-85114285D01*
X157577438Y-85114285D02*
X157625057Y-85066666D01*
X157529819Y-84161904D02*
X157529819Y-84638094D01*
X157529819Y-84638094D02*
X158006009Y-84685713D01*
X158006009Y-84685713D02*
X157958390Y-84638094D01*
X157958390Y-84638094D02*
X157910771Y-84542856D01*
X157910771Y-84542856D02*
X157910771Y-84304761D01*
X157910771Y-84304761D02*
X157958390Y-84209523D01*
X157958390Y-84209523D02*
X158006009Y-84161904D01*
X158006009Y-84161904D02*
X158101247Y-84114285D01*
X158101247Y-84114285D02*
X158339342Y-84114285D01*
X158339342Y-84114285D02*
X158434580Y-84161904D01*
X158434580Y-84161904D02*
X158482200Y-84209523D01*
X158482200Y-84209523D02*
X158529819Y-84304761D01*
X158529819Y-84304761D02*
X158529819Y-84542856D01*
X158529819Y-84542856D02*
X158482200Y-84638094D01*
X158482200Y-84638094D02*
X158434580Y-84685713D01*
X122261333Y-93926819D02*
X121928000Y-93450628D01*
X121689905Y-93926819D02*
X121689905Y-92926819D01*
X121689905Y-92926819D02*
X122070857Y-92926819D01*
X122070857Y-92926819D02*
X122166095Y-92974438D01*
X122166095Y-92974438D02*
X122213714Y-93022057D01*
X122213714Y-93022057D02*
X122261333Y-93117295D01*
X122261333Y-93117295D02*
X122261333Y-93260152D01*
X122261333Y-93260152D02*
X122213714Y-93355390D01*
X122213714Y-93355390D02*
X122166095Y-93403009D01*
X122166095Y-93403009D02*
X122070857Y-93450628D01*
X122070857Y-93450628D02*
X121689905Y-93450628D01*
X122594667Y-92926819D02*
X123213714Y-92926819D01*
X123213714Y-92926819D02*
X122880381Y-93307771D01*
X122880381Y-93307771D02*
X123023238Y-93307771D01*
X123023238Y-93307771D02*
X123118476Y-93355390D01*
X123118476Y-93355390D02*
X123166095Y-93403009D01*
X123166095Y-93403009D02*
X123213714Y-93498247D01*
X123213714Y-93498247D02*
X123213714Y-93736342D01*
X123213714Y-93736342D02*
X123166095Y-93831580D01*
X123166095Y-93831580D02*
X123118476Y-93879200D01*
X123118476Y-93879200D02*
X123023238Y-93926819D01*
X123023238Y-93926819D02*
X122737524Y-93926819D01*
X122737524Y-93926819D02*
X122642286Y-93879200D01*
X122642286Y-93879200D02*
X122594667Y-93831580D01*
X185380333Y-114786580D02*
X185332714Y-114834200D01*
X185332714Y-114834200D02*
X185189857Y-114881819D01*
X185189857Y-114881819D02*
X185094619Y-114881819D01*
X185094619Y-114881819D02*
X184951762Y-114834200D01*
X184951762Y-114834200D02*
X184856524Y-114738961D01*
X184856524Y-114738961D02*
X184808905Y-114643723D01*
X184808905Y-114643723D02*
X184761286Y-114453247D01*
X184761286Y-114453247D02*
X184761286Y-114310390D01*
X184761286Y-114310390D02*
X184808905Y-114119914D01*
X184808905Y-114119914D02*
X184856524Y-114024676D01*
X184856524Y-114024676D02*
X184951762Y-113929438D01*
X184951762Y-113929438D02*
X185094619Y-113881819D01*
X185094619Y-113881819D02*
X185189857Y-113881819D01*
X185189857Y-113881819D02*
X185332714Y-113929438D01*
X185332714Y-113929438D02*
X185380333Y-113977057D01*
X186332714Y-114881819D02*
X185761286Y-114881819D01*
X186047000Y-114881819D02*
X186047000Y-113881819D01*
X186047000Y-113881819D02*
X185951762Y-114024676D01*
X185951762Y-114024676D02*
X185856524Y-114119914D01*
X185856524Y-114119914D02*
X185761286Y-114167533D01*
X180546476Y-116929819D02*
X181213142Y-117929819D01*
X181213142Y-116929819D02*
X180546476Y-117929819D01*
X182117904Y-117929819D02*
X181546476Y-117929819D01*
X181832190Y-117929819D02*
X181832190Y-116929819D01*
X181832190Y-116929819D02*
X181736952Y-117072676D01*
X181736952Y-117072676D02*
X181641714Y-117167914D01*
X181641714Y-117167914D02*
X181546476Y-117215533D01*
X119314933Y-93876019D02*
X118981600Y-93399828D01*
X118743505Y-93876019D02*
X118743505Y-92876019D01*
X118743505Y-92876019D02*
X119124457Y-92876019D01*
X119124457Y-92876019D02*
X119219695Y-92923638D01*
X119219695Y-92923638D02*
X119267314Y-92971257D01*
X119267314Y-92971257D02*
X119314933Y-93066495D01*
X119314933Y-93066495D02*
X119314933Y-93209352D01*
X119314933Y-93209352D02*
X119267314Y-93304590D01*
X119267314Y-93304590D02*
X119219695Y-93352209D01*
X119219695Y-93352209D02*
X119124457Y-93399828D01*
X119124457Y-93399828D02*
X118743505Y-93399828D01*
X120267314Y-93876019D02*
X119695886Y-93876019D01*
X119981600Y-93876019D02*
X119981600Y-92876019D01*
X119981600Y-92876019D02*
X119886362Y-93018876D01*
X119886362Y-93018876D02*
X119791124Y-93114114D01*
X119791124Y-93114114D02*
X119695886Y-93161733D01*
X121588305Y-115669219D02*
X121588305Y-114669219D01*
X121588305Y-114669219D02*
X121826400Y-114669219D01*
X121826400Y-114669219D02*
X121969257Y-114716838D01*
X121969257Y-114716838D02*
X122064495Y-114812076D01*
X122064495Y-114812076D02*
X122112114Y-114907314D01*
X122112114Y-114907314D02*
X122159733Y-115097790D01*
X122159733Y-115097790D02*
X122159733Y-115240647D01*
X122159733Y-115240647D02*
X122112114Y-115431123D01*
X122112114Y-115431123D02*
X122064495Y-115526361D01*
X122064495Y-115526361D02*
X121969257Y-115621600D01*
X121969257Y-115621600D02*
X121826400Y-115669219D01*
X121826400Y-115669219D02*
X121588305Y-115669219D01*
X122540686Y-114764457D02*
X122588305Y-114716838D01*
X122588305Y-114716838D02*
X122683543Y-114669219D01*
X122683543Y-114669219D02*
X122921638Y-114669219D01*
X122921638Y-114669219D02*
X123016876Y-114716838D01*
X123016876Y-114716838D02*
X123064495Y-114764457D01*
X123064495Y-114764457D02*
X123112114Y-114859695D01*
X123112114Y-114859695D02*
X123112114Y-114954933D01*
X123112114Y-114954933D02*
X123064495Y-115097790D01*
X123064495Y-115097790D02*
X122493067Y-115669219D01*
X122493067Y-115669219D02*
X123112114Y-115669219D01*
X121639105Y-108963619D02*
X121639105Y-107963619D01*
X121639105Y-107963619D02*
X121877200Y-107963619D01*
X121877200Y-107963619D02*
X122020057Y-108011238D01*
X122020057Y-108011238D02*
X122115295Y-108106476D01*
X122115295Y-108106476D02*
X122162914Y-108201714D01*
X122162914Y-108201714D02*
X122210533Y-108392190D01*
X122210533Y-108392190D02*
X122210533Y-108535047D01*
X122210533Y-108535047D02*
X122162914Y-108725523D01*
X122162914Y-108725523D02*
X122115295Y-108820761D01*
X122115295Y-108820761D02*
X122020057Y-108916000D01*
X122020057Y-108916000D02*
X121877200Y-108963619D01*
X121877200Y-108963619D02*
X121639105Y-108963619D01*
X123162914Y-108963619D02*
X122591486Y-108963619D01*
X122877200Y-108963619D02*
X122877200Y-107963619D01*
X122877200Y-107963619D02*
X122781962Y-108106476D01*
X122781962Y-108106476D02*
X122686724Y-108201714D01*
X122686724Y-108201714D02*
X122591486Y-108249333D01*
X176990476Y-72098819D02*
X176990476Y-72813104D01*
X176990476Y-72813104D02*
X176942857Y-72955961D01*
X176942857Y-72955961D02*
X176847619Y-73051200D01*
X176847619Y-73051200D02*
X176704762Y-73098819D01*
X176704762Y-73098819D02*
X176609524Y-73098819D01*
X177990476Y-73098819D02*
X177419048Y-73098819D01*
X177704762Y-73098819D02*
X177704762Y-72098819D01*
X177704762Y-72098819D02*
X177609524Y-72241676D01*
X177609524Y-72241676D02*
X177514286Y-72336914D01*
X177514286Y-72336914D02*
X177419048Y-72384533D01*
X178609524Y-72098819D02*
X178704762Y-72098819D01*
X178704762Y-72098819D02*
X178800000Y-72146438D01*
X178800000Y-72146438D02*
X178847619Y-72194057D01*
X178847619Y-72194057D02*
X178895238Y-72289295D01*
X178895238Y-72289295D02*
X178942857Y-72479771D01*
X178942857Y-72479771D02*
X178942857Y-72717866D01*
X178942857Y-72717866D02*
X178895238Y-72908342D01*
X178895238Y-72908342D02*
X178847619Y-73003580D01*
X178847619Y-73003580D02*
X178800000Y-73051200D01*
X178800000Y-73051200D02*
X178704762Y-73098819D01*
X178704762Y-73098819D02*
X178609524Y-73098819D01*
X178609524Y-73098819D02*
X178514286Y-73051200D01*
X178514286Y-73051200D02*
X178466667Y-73003580D01*
X178466667Y-73003580D02*
X178419048Y-72908342D01*
X178419048Y-72908342D02*
X178371429Y-72717866D01*
X178371429Y-72717866D02*
X178371429Y-72479771D01*
X178371429Y-72479771D02*
X178419048Y-72289295D01*
X178419048Y-72289295D02*
X178466667Y-72194057D01*
X178466667Y-72194057D02*
X178514286Y-72146438D01*
X178514286Y-72146438D02*
X178609524Y-72098819D01*
X121791505Y-102461219D02*
X121791505Y-101461219D01*
X121791505Y-101461219D02*
X122029600Y-101461219D01*
X122029600Y-101461219D02*
X122172457Y-101508838D01*
X122172457Y-101508838D02*
X122267695Y-101604076D01*
X122267695Y-101604076D02*
X122315314Y-101699314D01*
X122315314Y-101699314D02*
X122362933Y-101889790D01*
X122362933Y-101889790D02*
X122362933Y-102032647D01*
X122362933Y-102032647D02*
X122315314Y-102223123D01*
X122315314Y-102223123D02*
X122267695Y-102318361D01*
X122267695Y-102318361D02*
X122172457Y-102413600D01*
X122172457Y-102413600D02*
X122029600Y-102461219D01*
X122029600Y-102461219D02*
X121791505Y-102461219D01*
X122696267Y-101461219D02*
X123315314Y-101461219D01*
X123315314Y-101461219D02*
X122981981Y-101842171D01*
X122981981Y-101842171D02*
X123124838Y-101842171D01*
X123124838Y-101842171D02*
X123220076Y-101889790D01*
X123220076Y-101889790D02*
X123267695Y-101937409D01*
X123267695Y-101937409D02*
X123315314Y-102032647D01*
X123315314Y-102032647D02*
X123315314Y-102270742D01*
X123315314Y-102270742D02*
X123267695Y-102365980D01*
X123267695Y-102365980D02*
X123220076Y-102413600D01*
X123220076Y-102413600D02*
X123124838Y-102461219D01*
X123124838Y-102461219D02*
X122839124Y-102461219D01*
X122839124Y-102461219D02*
X122743886Y-102413600D01*
X122743886Y-102413600D02*
X122696267Y-102365980D01*
X183638866Y-95276319D02*
X183638866Y-95990604D01*
X183638866Y-95990604D02*
X183591247Y-96133461D01*
X183591247Y-96133461D02*
X183496009Y-96228700D01*
X183496009Y-96228700D02*
X183353152Y-96276319D01*
X183353152Y-96276319D02*
X183257914Y-96276319D01*
X184019819Y-95276319D02*
X184638866Y-95276319D01*
X184638866Y-95276319D02*
X184305533Y-95657271D01*
X184305533Y-95657271D02*
X184448390Y-95657271D01*
X184448390Y-95657271D02*
X184543628Y-95704890D01*
X184543628Y-95704890D02*
X184591247Y-95752509D01*
X184591247Y-95752509D02*
X184638866Y-95847747D01*
X184638866Y-95847747D02*
X184638866Y-96085842D01*
X184638866Y-96085842D02*
X184591247Y-96181080D01*
X184591247Y-96181080D02*
X184543628Y-96228700D01*
X184543628Y-96228700D02*
X184448390Y-96276319D01*
X184448390Y-96276319D02*
X184162676Y-96276319D01*
X184162676Y-96276319D02*
X184067438Y-96228700D01*
X184067438Y-96228700D02*
X184019819Y-96181080D01*
X188453733Y-102512019D02*
X188120400Y-102035828D01*
X187882305Y-102512019D02*
X187882305Y-101512019D01*
X187882305Y-101512019D02*
X188263257Y-101512019D01*
X188263257Y-101512019D02*
X188358495Y-101559638D01*
X188358495Y-101559638D02*
X188406114Y-101607257D01*
X188406114Y-101607257D02*
X188453733Y-101702495D01*
X188453733Y-101702495D02*
X188453733Y-101845352D01*
X188453733Y-101845352D02*
X188406114Y-101940590D01*
X188406114Y-101940590D02*
X188358495Y-101988209D01*
X188358495Y-101988209D02*
X188263257Y-102035828D01*
X188263257Y-102035828D02*
X187882305Y-102035828D01*
X189358495Y-101512019D02*
X188882305Y-101512019D01*
X188882305Y-101512019D02*
X188834686Y-101988209D01*
X188834686Y-101988209D02*
X188882305Y-101940590D01*
X188882305Y-101940590D02*
X188977543Y-101892971D01*
X188977543Y-101892971D02*
X189215638Y-101892971D01*
X189215638Y-101892971D02*
X189310876Y-101940590D01*
X189310876Y-101940590D02*
X189358495Y-101988209D01*
X189358495Y-101988209D02*
X189406114Y-102083447D01*
X189406114Y-102083447D02*
X189406114Y-102321542D01*
X189406114Y-102321542D02*
X189358495Y-102416780D01*
X189358495Y-102416780D02*
X189310876Y-102464400D01*
X189310876Y-102464400D02*
X189215638Y-102512019D01*
X189215638Y-102512019D02*
X188977543Y-102512019D01*
X188977543Y-102512019D02*
X188882305Y-102464400D01*
X188882305Y-102464400D02*
X188834686Y-102416780D01*
X190841333Y-102816819D02*
X190508000Y-102340628D01*
X190269905Y-102816819D02*
X190269905Y-101816819D01*
X190269905Y-101816819D02*
X190650857Y-101816819D01*
X190650857Y-101816819D02*
X190746095Y-101864438D01*
X190746095Y-101864438D02*
X190793714Y-101912057D01*
X190793714Y-101912057D02*
X190841333Y-102007295D01*
X190841333Y-102007295D02*
X190841333Y-102150152D01*
X190841333Y-102150152D02*
X190793714Y-102245390D01*
X190793714Y-102245390D02*
X190746095Y-102293009D01*
X190746095Y-102293009D02*
X190650857Y-102340628D01*
X190650857Y-102340628D02*
X190269905Y-102340628D01*
X191698476Y-102150152D02*
X191698476Y-102816819D01*
X191460381Y-101769200D02*
X191222286Y-102483485D01*
X191222286Y-102483485D02*
X191841333Y-102483485D01*
X181120580Y-113476066D02*
X181168200Y-113523685D01*
X181168200Y-113523685D02*
X181215819Y-113666542D01*
X181215819Y-113666542D02*
X181215819Y-113761780D01*
X181215819Y-113761780D02*
X181168200Y-113904637D01*
X181168200Y-113904637D02*
X181072961Y-113999875D01*
X181072961Y-113999875D02*
X180977723Y-114047494D01*
X180977723Y-114047494D02*
X180787247Y-114095113D01*
X180787247Y-114095113D02*
X180644390Y-114095113D01*
X180644390Y-114095113D02*
X180453914Y-114047494D01*
X180453914Y-114047494D02*
X180358676Y-113999875D01*
X180358676Y-113999875D02*
X180263438Y-113904637D01*
X180263438Y-113904637D02*
X180215819Y-113761780D01*
X180215819Y-113761780D02*
X180215819Y-113666542D01*
X180215819Y-113666542D02*
X180263438Y-113523685D01*
X180263438Y-113523685D02*
X180311057Y-113476066D01*
X180311057Y-113095113D02*
X180263438Y-113047494D01*
X180263438Y-113047494D02*
X180215819Y-112952256D01*
X180215819Y-112952256D02*
X180215819Y-112714161D01*
X180215819Y-112714161D02*
X180263438Y-112618923D01*
X180263438Y-112618923D02*
X180311057Y-112571304D01*
X180311057Y-112571304D02*
X180406295Y-112523685D01*
X180406295Y-112523685D02*
X180501533Y-112523685D01*
X180501533Y-112523685D02*
X180644390Y-112571304D01*
X180644390Y-112571304D02*
X181215819Y-113142732D01*
X181215819Y-113142732D02*
X181215819Y-112523685D01*
X125461733Y-93977619D02*
X125128400Y-93501428D01*
X124890305Y-93977619D02*
X124890305Y-92977619D01*
X124890305Y-92977619D02*
X125271257Y-92977619D01*
X125271257Y-92977619D02*
X125366495Y-93025238D01*
X125366495Y-93025238D02*
X125414114Y-93072857D01*
X125414114Y-93072857D02*
X125461733Y-93168095D01*
X125461733Y-93168095D02*
X125461733Y-93310952D01*
X125461733Y-93310952D02*
X125414114Y-93406190D01*
X125414114Y-93406190D02*
X125366495Y-93453809D01*
X125366495Y-93453809D02*
X125271257Y-93501428D01*
X125271257Y-93501428D02*
X124890305Y-93501428D01*
X125842686Y-93072857D02*
X125890305Y-93025238D01*
X125890305Y-93025238D02*
X125985543Y-92977619D01*
X125985543Y-92977619D02*
X126223638Y-92977619D01*
X126223638Y-92977619D02*
X126318876Y-93025238D01*
X126318876Y-93025238D02*
X126366495Y-93072857D01*
X126366495Y-93072857D02*
X126414114Y-93168095D01*
X126414114Y-93168095D02*
X126414114Y-93263333D01*
X126414114Y-93263333D02*
X126366495Y-93406190D01*
X126366495Y-93406190D02*
X125795067Y-93977619D01*
X125795067Y-93977619D02*
X126414114Y-93977619D01*
X124416666Y-69504819D02*
X124416666Y-70219104D01*
X124416666Y-70219104D02*
X124369047Y-70361961D01*
X124369047Y-70361961D02*
X124273809Y-70457200D01*
X124273809Y-70457200D02*
X124130952Y-70504819D01*
X124130952Y-70504819D02*
X124035714Y-70504819D01*
X124845238Y-69600057D02*
X124892857Y-69552438D01*
X124892857Y-69552438D02*
X124988095Y-69504819D01*
X124988095Y-69504819D02*
X125226190Y-69504819D01*
X125226190Y-69504819D02*
X125321428Y-69552438D01*
X125321428Y-69552438D02*
X125369047Y-69600057D01*
X125369047Y-69600057D02*
X125416666Y-69695295D01*
X125416666Y-69695295D02*
X125416666Y-69790533D01*
X125416666Y-69790533D02*
X125369047Y-69933390D01*
X125369047Y-69933390D02*
X124797619Y-70504819D01*
X124797619Y-70504819D02*
X125416666Y-70504819D01*
X126356280Y-97345166D02*
X126403900Y-97392785D01*
X126403900Y-97392785D02*
X126451519Y-97535642D01*
X126451519Y-97535642D02*
X126451519Y-97630880D01*
X126451519Y-97630880D02*
X126403900Y-97773737D01*
X126403900Y-97773737D02*
X126308661Y-97868975D01*
X126308661Y-97868975D02*
X126213423Y-97916594D01*
X126213423Y-97916594D02*
X126022947Y-97964213D01*
X126022947Y-97964213D02*
X125880090Y-97964213D01*
X125880090Y-97964213D02*
X125689614Y-97916594D01*
X125689614Y-97916594D02*
X125594376Y-97868975D01*
X125594376Y-97868975D02*
X125499138Y-97773737D01*
X125499138Y-97773737D02*
X125451519Y-97630880D01*
X125451519Y-97630880D02*
X125451519Y-97535642D01*
X125451519Y-97535642D02*
X125499138Y-97392785D01*
X125499138Y-97392785D02*
X125546757Y-97345166D01*
X125451519Y-97011832D02*
X125451519Y-96345166D01*
X125451519Y-96345166D02*
X126451519Y-96773737D01*
X187892763Y-81049580D02*
X187845144Y-81097200D01*
X187845144Y-81097200D02*
X187702287Y-81144819D01*
X187702287Y-81144819D02*
X187607049Y-81144819D01*
X187607049Y-81144819D02*
X187464192Y-81097200D01*
X187464192Y-81097200D02*
X187368954Y-81001961D01*
X187368954Y-81001961D02*
X187321335Y-80906723D01*
X187321335Y-80906723D02*
X187273716Y-80716247D01*
X187273716Y-80716247D02*
X187273716Y-80573390D01*
X187273716Y-80573390D02*
X187321335Y-80382914D01*
X187321335Y-80382914D02*
X187368954Y-80287676D01*
X187368954Y-80287676D02*
X187464192Y-80192438D01*
X187464192Y-80192438D02*
X187607049Y-80144819D01*
X187607049Y-80144819D02*
X187702287Y-80144819D01*
X187702287Y-80144819D02*
X187845144Y-80192438D01*
X187845144Y-80192438D02*
X187892763Y-80240057D01*
X188845144Y-81144819D02*
X188273716Y-81144819D01*
X188559430Y-81144819D02*
X188559430Y-80144819D01*
X188559430Y-80144819D02*
X188464192Y-80287676D01*
X188464192Y-80287676D02*
X188368954Y-80382914D01*
X188368954Y-80382914D02*
X188273716Y-80430533D01*
X189178478Y-80144819D02*
X189845144Y-80144819D01*
X189845144Y-80144819D02*
X189416573Y-81144819D01*
X155952323Y-133404780D02*
X155904704Y-133452400D01*
X155904704Y-133452400D02*
X155761847Y-133500019D01*
X155761847Y-133500019D02*
X155666609Y-133500019D01*
X155666609Y-133500019D02*
X155523752Y-133452400D01*
X155523752Y-133452400D02*
X155428514Y-133357161D01*
X155428514Y-133357161D02*
X155380895Y-133261923D01*
X155380895Y-133261923D02*
X155333276Y-133071447D01*
X155333276Y-133071447D02*
X155333276Y-132928590D01*
X155333276Y-132928590D02*
X155380895Y-132738114D01*
X155380895Y-132738114D02*
X155428514Y-132642876D01*
X155428514Y-132642876D02*
X155523752Y-132547638D01*
X155523752Y-132547638D02*
X155666609Y-132500019D01*
X155666609Y-132500019D02*
X155761847Y-132500019D01*
X155761847Y-132500019D02*
X155904704Y-132547638D01*
X155904704Y-132547638D02*
X155952323Y-132595257D01*
X156380895Y-133500019D02*
X156380895Y-132500019D01*
X156380895Y-132500019D02*
X156952323Y-133500019D01*
X156952323Y-133500019D02*
X156952323Y-132500019D01*
X157380895Y-132595257D02*
X157428514Y-132547638D01*
X157428514Y-132547638D02*
X157523752Y-132500019D01*
X157523752Y-132500019D02*
X157761847Y-132500019D01*
X157761847Y-132500019D02*
X157857085Y-132547638D01*
X157857085Y-132547638D02*
X157904704Y-132595257D01*
X157904704Y-132595257D02*
X157952323Y-132690495D01*
X157952323Y-132690495D02*
X157952323Y-132785733D01*
X157952323Y-132785733D02*
X157904704Y-132928590D01*
X157904704Y-132928590D02*
X157333276Y-133500019D01*
X157333276Y-133500019D02*
X157952323Y-133500019D01*
X190246095Y-112294200D02*
X190388952Y-112341819D01*
X190388952Y-112341819D02*
X190627047Y-112341819D01*
X190627047Y-112341819D02*
X190722285Y-112294200D01*
X190722285Y-112294200D02*
X190769904Y-112246580D01*
X190769904Y-112246580D02*
X190817523Y-112151342D01*
X190817523Y-112151342D02*
X190817523Y-112056104D01*
X190817523Y-112056104D02*
X190769904Y-111960866D01*
X190769904Y-111960866D02*
X190722285Y-111913247D01*
X190722285Y-111913247D02*
X190627047Y-111865628D01*
X190627047Y-111865628D02*
X190436571Y-111818009D01*
X190436571Y-111818009D02*
X190341333Y-111770390D01*
X190341333Y-111770390D02*
X190293714Y-111722771D01*
X190293714Y-111722771D02*
X190246095Y-111627533D01*
X190246095Y-111627533D02*
X190246095Y-111532295D01*
X190246095Y-111532295D02*
X190293714Y-111437057D01*
X190293714Y-111437057D02*
X190341333Y-111389438D01*
X190341333Y-111389438D02*
X190436571Y-111341819D01*
X190436571Y-111341819D02*
X190674666Y-111341819D01*
X190674666Y-111341819D02*
X190817523Y-111389438D01*
X191674666Y-111675152D02*
X191674666Y-112341819D01*
X191436571Y-111294200D02*
X191198476Y-112008485D01*
X191198476Y-112008485D02*
X191817523Y-112008485D01*
X128188819Y-80343333D02*
X128903104Y-80343333D01*
X128903104Y-80343333D02*
X129045961Y-80390952D01*
X129045961Y-80390952D02*
X129141200Y-80486190D01*
X129141200Y-80486190D02*
X129188819Y-80629047D01*
X129188819Y-80629047D02*
X129188819Y-80724285D01*
X128522152Y-79438571D02*
X129188819Y-79438571D01*
X128141200Y-79676666D02*
X128855485Y-79914761D01*
X128855485Y-79914761D02*
X128855485Y-79295714D01*
X125420523Y-67542580D02*
X125372904Y-67590200D01*
X125372904Y-67590200D02*
X125230047Y-67637819D01*
X125230047Y-67637819D02*
X125134809Y-67637819D01*
X125134809Y-67637819D02*
X124991952Y-67590200D01*
X124991952Y-67590200D02*
X124896714Y-67494961D01*
X124896714Y-67494961D02*
X124849095Y-67399723D01*
X124849095Y-67399723D02*
X124801476Y-67209247D01*
X124801476Y-67209247D02*
X124801476Y-67066390D01*
X124801476Y-67066390D02*
X124849095Y-66875914D01*
X124849095Y-66875914D02*
X124896714Y-66780676D01*
X124896714Y-66780676D02*
X124991952Y-66685438D01*
X124991952Y-66685438D02*
X125134809Y-66637819D01*
X125134809Y-66637819D02*
X125230047Y-66637819D01*
X125230047Y-66637819D02*
X125372904Y-66685438D01*
X125372904Y-66685438D02*
X125420523Y-66733057D01*
X125849095Y-67637819D02*
X125849095Y-66637819D01*
X125849095Y-66637819D02*
X126420523Y-67637819D01*
X126420523Y-67637819D02*
X126420523Y-66637819D01*
X127420523Y-67637819D02*
X126849095Y-67637819D01*
X127134809Y-67637819D02*
X127134809Y-66637819D01*
X127134809Y-66637819D02*
X127039571Y-66780676D01*
X127039571Y-66780676D02*
X126944333Y-66875914D01*
X126944333Y-66875914D02*
X126849095Y-66923533D01*
D17*
X124226700Y-105536500D02*
X124226700Y-112776500D01*
X124226700Y-112776500D02*
X127766700Y-112776500D01*
X125996700Y-105116500D02*
X125996700Y-105536500D01*
X125996700Y-113196500D02*
X125996700Y-112776500D01*
X127766700Y-105536500D02*
X124226700Y-105536500D01*
X127766700Y-112776500D02*
X127766700Y-105536500D01*
X166454000Y-80832500D02*
X166454000Y-83632500D01*
X166454000Y-83632500D02*
X184574000Y-83632500D01*
X181864000Y-83632500D02*
X181864000Y-80832500D01*
X184574000Y-80832500D02*
X166454000Y-80832500D01*
X184574000Y-83632500D02*
X184574000Y-80832500D01*
X128464000Y-96092500D02*
X128464000Y-101552500D01*
X128464000Y-103552500D02*
X128464000Y-109012500D01*
X128464000Y-109012500D02*
X179384000Y-109012500D01*
X179384000Y-96092500D02*
X128464000Y-96092500D01*
X179384000Y-109012500D02*
X179384000Y-96092500D01*
X128464000Y-101552500D02*
G75*
G02*
X128464000Y-103552500I0J-1000000D01*
G01*
X128464000Y-85932500D02*
X128464000Y-87582500D01*
X128464000Y-89582500D02*
X128464000Y-91232500D01*
X128464000Y-91232500D02*
X153984000Y-91232500D01*
X153984000Y-85932500D02*
X128464000Y-85932500D01*
X153984000Y-91232500D02*
X153984000Y-85932500D01*
X128464000Y-87582500D02*
G75*
G02*
X128464000Y-89582500I0J-1000000D01*
G01*
X158944000Y-85932500D02*
X158944000Y-91232500D01*
X158944000Y-91232500D02*
X184464000Y-91232500D01*
X184464000Y-85932500D02*
X158944000Y-85932500D01*
X184464000Y-87582500D02*
X184464000Y-85932500D01*
X184464000Y-91232500D02*
X184464000Y-89582500D01*
X184464000Y-89582500D02*
G75*
G02*
X184464000Y-87582500I0J1000000D01*
G01*
X121424000Y-78453000D02*
X121424000Y-77828000D01*
X121424000Y-80668000D02*
X121424000Y-80043000D01*
X125464000Y-77828000D02*
X121424000Y-77828000D01*
X125464000Y-78453000D02*
X125464000Y-77828000D01*
X125464000Y-80668000D02*
X121424000Y-80668000D01*
X125464000Y-80668000D02*
X125464000Y-80043000D01*
X151884000Y-112108000D02*
X151884000Y-111483000D01*
X151884000Y-114323000D02*
X151884000Y-113698000D01*
X155924000Y-111483000D02*
X151884000Y-111483000D01*
X155924000Y-112108000D02*
X155924000Y-111483000D01*
X155924000Y-114323000D02*
X151884000Y-114323000D01*
X155924000Y-114323000D02*
X155924000Y-113698000D01*
X154055000Y-81655000D02*
X154680000Y-81655000D01*
X154055000Y-85695000D02*
X154055000Y-81655000D01*
X154055000Y-85695000D02*
X154680000Y-85695000D01*
X156270000Y-81655000D02*
X156895000Y-81655000D01*
X156270000Y-85695000D02*
X156895000Y-85695000D01*
X156895000Y-85695000D02*
X156895000Y-81655000D01*
X155880000Y-86280000D02*
X156505000Y-86280000D01*
X155880000Y-90320000D02*
X155880000Y-86280000D01*
X155880000Y-90320000D02*
X156505000Y-90320000D01*
X158095000Y-86280000D02*
X158720000Y-86280000D01*
X158095000Y-90320000D02*
X158720000Y-90320000D01*
X158720000Y-90320000D02*
X158720000Y-86280000D01*
X121058000Y-83344000D02*
X121058000Y-89884000D01*
X121058000Y-89884000D02*
X123798000Y-89884000D01*
X122428000Y-82574000D02*
X122428000Y-83344000D01*
X122428000Y-90654000D02*
X122428000Y-89884000D01*
X123798000Y-83344000D02*
X121058000Y-83344000D01*
X123798000Y-89884000D02*
X123798000Y-83344000D01*
X186595000Y-113124000D02*
X186595000Y-112499000D01*
X186595000Y-115339000D02*
X186595000Y-114714000D01*
X190635000Y-112499000D02*
X186595000Y-112499000D01*
X190635000Y-113124000D02*
X190635000Y-112499000D01*
X190635000Y-115339000D02*
X186595000Y-115339000D01*
X190635000Y-115339000D02*
X190635000Y-114714000D01*
X178002000Y-114950000D02*
X184402000Y-114950000D01*
X178002000Y-120000000D02*
X184402000Y-120000000D01*
X178002000Y-120000000D02*
G75*
G02*
X178002000Y-114950000I0J2525000D01*
G01*
X184402000Y-114950000D02*
G75*
G02*
X184402000Y-120000000I0J-2525000D01*
G01*
X118010000Y-83344000D02*
X118010000Y-89884000D01*
X118010000Y-89884000D02*
X120750000Y-89884000D01*
X119380000Y-82574000D02*
X119380000Y-83344000D01*
X119380000Y-90654000D02*
X119380000Y-89884000D01*
X120750000Y-83344000D02*
X118010000Y-83344000D01*
X120750000Y-89884000D02*
X120750000Y-83344000D01*
X120214100Y-113612100D02*
X120370100Y-113612100D01*
X122530100Y-113612100D02*
X122686100Y-113612100D01*
X120214584Y-113612100D02*
G75*
G02*
X120371492Y-110379765I1235516J1560000D01*
G01*
X120370100Y-113093061D02*
G75*
G02*
X120370263Y-111010970I1080000J1040961D01*
G01*
X122528708Y-110379765D02*
G75*
G02*
X122685616Y-113612100I-1078608J-1672335D01*
G01*
X122529937Y-111010970D02*
G75*
G02*
X122530100Y-113093061I-1079837J-1041130D01*
G01*
X120214100Y-106906500D02*
X120370100Y-106906500D01*
X122530100Y-106906500D02*
X122686100Y-106906500D01*
X120214584Y-106906500D02*
G75*
G02*
X120371492Y-103674165I1235516J1560000D01*
G01*
X120370100Y-106387461D02*
G75*
G02*
X120370263Y-104305370I1080000J1040961D01*
G01*
X122528708Y-103674165D02*
G75*
G02*
X122685616Y-106906500I-1078608J-1672335D01*
G01*
X122529937Y-104305370D02*
G75*
G02*
X122530100Y-106387461I-1079837J-1041130D01*
G01*
X179082000Y-79637500D02*
X179082000Y-80687500D01*
X179282000Y-71287500D02*
X181182000Y-71287500D01*
X179282000Y-73987500D02*
X179282000Y-71287500D01*
X179282000Y-80487500D02*
X179282000Y-77887500D01*
X180132000Y-80687500D02*
X179082000Y-80687500D01*
X185182000Y-71287500D02*
X193982000Y-71287500D01*
X193982000Y-71287500D02*
X193982000Y-80487500D01*
X193982000Y-80487500D02*
X179282000Y-80487500D01*
X120226800Y-100327900D02*
X120382800Y-100327900D01*
X122542800Y-100327900D02*
X122698800Y-100327900D01*
X120227284Y-100327900D02*
G75*
G02*
X120384192Y-97095565I1235516J1560000D01*
G01*
X120382800Y-99808861D02*
G75*
G02*
X120382963Y-97726770I1080000J1040961D01*
G01*
X122541408Y-97095565D02*
G75*
G02*
X122698316Y-100327900I-1078608J-1672335D01*
G01*
X122542637Y-97726770D02*
G75*
G02*
X122542800Y-99808861I-1079837J-1041130D01*
G01*
X182667600Y-96561600D02*
X183997600Y-96561600D01*
X182667600Y-97891600D02*
X182667600Y-96561600D01*
X182667600Y-99161600D02*
X182667600Y-111921600D01*
X182667600Y-99161600D02*
X185327600Y-99161600D01*
X182667600Y-111921600D02*
X185327600Y-111921600D01*
X185327600Y-99161600D02*
X185327600Y-111921600D01*
X185828000Y-92234000D02*
X185828000Y-98774000D01*
X185828000Y-98774000D02*
X188568000Y-98774000D01*
X187198000Y-91464000D02*
X187198000Y-92234000D01*
X187198000Y-99544000D02*
X187198000Y-98774000D01*
X188568000Y-92234000D02*
X185828000Y-92234000D01*
X188568000Y-98774000D02*
X188568000Y-92234000D01*
X188723600Y-92234000D02*
X188723600Y-98774000D01*
X188723600Y-98774000D02*
X191463600Y-98774000D01*
X190093600Y-91464000D02*
X190093600Y-92234000D01*
X190093600Y-99544000D02*
X190093600Y-98774000D01*
X191463600Y-92234000D02*
X188723600Y-92234000D01*
X191463600Y-98774000D02*
X191463600Y-92234000D01*
X175800000Y-111864000D02*
X175800000Y-112489000D01*
X175800000Y-111864000D02*
X179840000Y-111864000D01*
X175800000Y-114079000D02*
X175800000Y-114704000D01*
X175800000Y-114704000D02*
X179840000Y-114704000D01*
X179840000Y-111864000D02*
X179840000Y-112489000D01*
X179840000Y-114079000D02*
X179840000Y-114704000D01*
X124106000Y-83344000D02*
X124106000Y-89884000D01*
X124106000Y-89884000D02*
X126846000Y-89884000D01*
X125476000Y-82574000D02*
X125476000Y-83344000D01*
X125476000Y-90654000D02*
X125476000Y-89884000D01*
X126846000Y-83344000D02*
X124106000Y-83344000D01*
X126846000Y-89884000D02*
X126846000Y-83344000D01*
X123561800Y-71796600D02*
X124891800Y-71796600D01*
X123561800Y-73126600D02*
X123561800Y-71796600D01*
X123561800Y-74396600D02*
X123561800Y-76996600D01*
X123561800Y-74396600D02*
X126221800Y-74396600D01*
X123561800Y-76996600D02*
X126221800Y-76996600D01*
X126221800Y-74396600D02*
X126221800Y-76996600D01*
X124589400Y-98520500D02*
X124589400Y-102560500D01*
X125214400Y-98520500D02*
X124589400Y-98520500D01*
X125214400Y-102560500D02*
X124589400Y-102560500D01*
X127429400Y-98520500D02*
X126804400Y-98520500D01*
X127429400Y-98520500D02*
X127429400Y-102560500D01*
X127429400Y-102560500D02*
X126804400Y-102560500D01*
X185035380Y-83251000D02*
X185665380Y-83251000D01*
X185350380Y-82936000D02*
X185350380Y-83566000D01*
X188535621Y-81860000D02*
X188535621Y-88320000D01*
X188575621Y-81860000D02*
X188575621Y-88320000D01*
X188615621Y-81860000D02*
X188615621Y-88320000D01*
X188655621Y-81862000D02*
X188655621Y-88318000D01*
X188695621Y-81863000D02*
X188695621Y-88317000D01*
X188735621Y-81866000D02*
X188735621Y-88314000D01*
X188775621Y-81868000D02*
X188775621Y-84050000D01*
X188775621Y-86130000D02*
X188775621Y-88312000D01*
X188815621Y-81872000D02*
X188815621Y-84050000D01*
X188815621Y-86130000D02*
X188815621Y-88308000D01*
X188855621Y-81875000D02*
X188855621Y-84050000D01*
X188855621Y-86130000D02*
X188855621Y-88305000D01*
X188895621Y-81879000D02*
X188895621Y-84050000D01*
X188895621Y-86130000D02*
X188895621Y-88301000D01*
X188935621Y-81884000D02*
X188935621Y-84050000D01*
X188935621Y-86130000D02*
X188935621Y-88296000D01*
X188975621Y-81889000D02*
X188975621Y-84050000D01*
X188975621Y-86130000D02*
X188975621Y-88291000D01*
X189015621Y-81895000D02*
X189015621Y-84050000D01*
X189015621Y-86130000D02*
X189015621Y-88285000D01*
X189055621Y-81901000D02*
X189055621Y-84050000D01*
X189055621Y-86130000D02*
X189055621Y-88279000D01*
X189095621Y-81908000D02*
X189095621Y-84050000D01*
X189095621Y-86130000D02*
X189095621Y-88272000D01*
X189135621Y-81915000D02*
X189135621Y-84050000D01*
X189135621Y-86130000D02*
X189135621Y-88265000D01*
X189175621Y-81923000D02*
X189175621Y-84050000D01*
X189175621Y-86130000D02*
X189175621Y-88257000D01*
X189215621Y-81931000D02*
X189215621Y-84050000D01*
X189215621Y-86130000D02*
X189215621Y-88249000D01*
X189256621Y-81940000D02*
X189256621Y-84050000D01*
X189256621Y-86130000D02*
X189256621Y-88240000D01*
X189296621Y-81949000D02*
X189296621Y-84050000D01*
X189296621Y-86130000D02*
X189296621Y-88231000D01*
X189336621Y-81959000D02*
X189336621Y-84050000D01*
X189336621Y-86130000D02*
X189336621Y-88221000D01*
X189376621Y-81969000D02*
X189376621Y-84050000D01*
X189376621Y-86130000D02*
X189376621Y-88211000D01*
X189416621Y-81980000D02*
X189416621Y-84050000D01*
X189416621Y-86130000D02*
X189416621Y-88200000D01*
X189456621Y-81992000D02*
X189456621Y-84050000D01*
X189456621Y-86130000D02*
X189456621Y-88188000D01*
X189496621Y-82004000D02*
X189496621Y-84050000D01*
X189496621Y-86130000D02*
X189496621Y-88176000D01*
X189536621Y-82016000D02*
X189536621Y-84050000D01*
X189536621Y-86130000D02*
X189536621Y-88164000D01*
X189576621Y-82029000D02*
X189576621Y-84050000D01*
X189576621Y-86130000D02*
X189576621Y-88151000D01*
X189616621Y-82043000D02*
X189616621Y-84050000D01*
X189616621Y-86130000D02*
X189616621Y-88137000D01*
X189656621Y-82057000D02*
X189656621Y-84050000D01*
X189656621Y-86130000D02*
X189656621Y-88123000D01*
X189696621Y-82072000D02*
X189696621Y-84050000D01*
X189696621Y-86130000D02*
X189696621Y-88108000D01*
X189736621Y-82088000D02*
X189736621Y-84050000D01*
X189736621Y-86130000D02*
X189736621Y-88092000D01*
X189776621Y-82104000D02*
X189776621Y-84050000D01*
X189776621Y-86130000D02*
X189776621Y-88076000D01*
X189816621Y-82120000D02*
X189816621Y-84050000D01*
X189816621Y-86130000D02*
X189816621Y-88060000D01*
X189856621Y-82138000D02*
X189856621Y-84050000D01*
X189856621Y-86130000D02*
X189856621Y-88042000D01*
X189896621Y-82156000D02*
X189896621Y-84050000D01*
X189896621Y-86130000D02*
X189896621Y-88024000D01*
X189936621Y-82174000D02*
X189936621Y-84050000D01*
X189936621Y-86130000D02*
X189936621Y-88006000D01*
X189976621Y-82194000D02*
X189976621Y-84050000D01*
X189976621Y-86130000D02*
X189976621Y-87986000D01*
X190016621Y-82214000D02*
X190016621Y-84050000D01*
X190016621Y-86130000D02*
X190016621Y-87966000D01*
X190056621Y-82234000D02*
X190056621Y-84050000D01*
X190056621Y-86130000D02*
X190056621Y-87946000D01*
X190096621Y-82256000D02*
X190096621Y-84050000D01*
X190096621Y-86130000D02*
X190096621Y-87924000D01*
X190136621Y-82278000D02*
X190136621Y-84050000D01*
X190136621Y-86130000D02*
X190136621Y-87902000D01*
X190176621Y-82300000D02*
X190176621Y-84050000D01*
X190176621Y-86130000D02*
X190176621Y-87880000D01*
X190216621Y-82324000D02*
X190216621Y-84050000D01*
X190216621Y-86130000D02*
X190216621Y-87856000D01*
X190256621Y-82348000D02*
X190256621Y-84050000D01*
X190256621Y-86130000D02*
X190256621Y-87832000D01*
X190296621Y-82374000D02*
X190296621Y-84050000D01*
X190296621Y-86130000D02*
X190296621Y-87806000D01*
X190336621Y-82400000D02*
X190336621Y-84050000D01*
X190336621Y-86130000D02*
X190336621Y-87780000D01*
X190376621Y-82426000D02*
X190376621Y-84050000D01*
X190376621Y-86130000D02*
X190376621Y-87754000D01*
X190416621Y-82454000D02*
X190416621Y-84050000D01*
X190416621Y-86130000D02*
X190416621Y-87726000D01*
X190456621Y-82483000D02*
X190456621Y-84050000D01*
X190456621Y-86130000D02*
X190456621Y-87697000D01*
X190496621Y-82512000D02*
X190496621Y-84050000D01*
X190496621Y-86130000D02*
X190496621Y-87668000D01*
X190536621Y-82542000D02*
X190536621Y-84050000D01*
X190536621Y-86130000D02*
X190536621Y-87638000D01*
X190576621Y-82574000D02*
X190576621Y-84050000D01*
X190576621Y-86130000D02*
X190576621Y-87606000D01*
X190616621Y-82606000D02*
X190616621Y-84050000D01*
X190616621Y-86130000D02*
X190616621Y-87574000D01*
X190656621Y-82640000D02*
X190656621Y-84050000D01*
X190656621Y-86130000D02*
X190656621Y-87540000D01*
X190696621Y-82674000D02*
X190696621Y-84050000D01*
X190696621Y-86130000D02*
X190696621Y-87506000D01*
X190736621Y-82710000D02*
X190736621Y-84050000D01*
X190736621Y-86130000D02*
X190736621Y-87470000D01*
X190776621Y-82747000D02*
X190776621Y-84050000D01*
X190776621Y-86130000D02*
X190776621Y-87433000D01*
X190816621Y-82785000D02*
X190816621Y-84050000D01*
X190816621Y-86130000D02*
X190816621Y-87395000D01*
X190856621Y-82825000D02*
X190856621Y-87355000D01*
X190896621Y-82866000D02*
X190896621Y-87314000D01*
X190936621Y-82908000D02*
X190936621Y-87272000D01*
X190976621Y-82953000D02*
X190976621Y-87227000D01*
X191016621Y-82998000D02*
X191016621Y-87182000D01*
X191056621Y-83046000D02*
X191056621Y-87134000D01*
X191096621Y-83095000D02*
X191096621Y-87085000D01*
X191136621Y-83146000D02*
X191136621Y-87034000D01*
X191176621Y-83200000D02*
X191176621Y-86980000D01*
X191216621Y-83256000D02*
X191216621Y-86924000D01*
X191256621Y-83314000D02*
X191256621Y-86866000D01*
X191296621Y-83376000D02*
X191296621Y-86804000D01*
X191336621Y-83440000D02*
X191336621Y-86740000D01*
X191376621Y-83509000D02*
X191376621Y-86671000D01*
X191416621Y-83581000D02*
X191416621Y-86599000D01*
X191456621Y-83658000D02*
X191456621Y-86522000D01*
X191496621Y-83740000D02*
X191496621Y-86440000D01*
X191536621Y-83828000D02*
X191536621Y-86352000D01*
X191576621Y-83925000D02*
X191576621Y-86255000D01*
X191616621Y-84031000D02*
X191616621Y-86149000D01*
X191656621Y-84150000D02*
X191656621Y-86030000D01*
X191696621Y-84288000D02*
X191696621Y-85892000D01*
X191736621Y-84457000D02*
X191736621Y-85723000D01*
X191776621Y-84688000D02*
X191776621Y-85492000D01*
X191805621Y-85090000D02*
G75*
G02*
X185265621Y-85090000I-3270000J0D01*
G01*
X185265621Y-85090000D02*
G75*
G02*
X191805621Y-85090000I3270000J0D01*
G01*
X185730400Y-104416400D02*
X185730400Y-103526400D01*
X185730400Y-104416400D02*
X186080400Y-104416400D01*
X185730400Y-110376400D02*
X186080400Y-110376400D01*
X185730400Y-111266400D02*
X185730400Y-110376400D01*
X186030400Y-103526400D02*
X185730400Y-103526400D01*
X186030400Y-111266400D02*
X185730400Y-111266400D01*
X188280400Y-104906400D02*
X188280400Y-109886400D01*
X188670400Y-111266400D02*
X192520400Y-111266400D01*
X192520400Y-103526400D02*
X188670400Y-103526400D01*
X192520400Y-111266400D02*
X192520400Y-103526400D01*
X129734000Y-81340000D02*
X129734000Y-80010000D01*
X131064000Y-81340000D02*
X129734000Y-81340000D01*
X132334000Y-78680000D02*
X145094000Y-78680000D01*
X132334000Y-81340000D02*
X132334000Y-78680000D01*
X132334000Y-81340000D02*
X145094000Y-81340000D01*
X145094000Y-81340000D02*
X145094000Y-78680000D01*
%LPC*%
D18*
X177215800Y-131597400D02*
X128003300Y-131597400D01*
X127939800Y-121945400D01*
X177215800Y-121945400D01*
X177215800Y-131597400D01*
G36*
X177215800Y-131597400D02*
G01*
X128003300Y-131597400D01*
X127939800Y-121945400D01*
X177215800Y-121945400D01*
X177215800Y-131597400D01*
G37*
X176117250Y-65862200D02*
X176002950Y-75361800D01*
X128739900Y-75298300D01*
X128790700Y-65798700D01*
X176117250Y-65862200D01*
G36*
X176117250Y-65862200D02*
G01*
X176002950Y-75361800D01*
X128739900Y-75298300D01*
X128790700Y-65798700D01*
X176117250Y-65862200D01*
G37*
D19*
X125996700Y-104076500D03*
D20*
X125996700Y-114236500D03*
D21*
X183134000Y-82232500D03*
D20*
X180594000Y-82232500D03*
X178054000Y-82232500D03*
X175514000Y-82232500D03*
X172974000Y-82232500D03*
X170434000Y-82232500D03*
X167894000Y-82232500D03*
D21*
X129794000Y-110172500D03*
D20*
X132334000Y-110172500D03*
X134874000Y-110172500D03*
X137414000Y-110172500D03*
X139954000Y-110172500D03*
X142494000Y-110172500D03*
X145034000Y-110172500D03*
X147574000Y-110172500D03*
X150114000Y-110172500D03*
X152654000Y-110172500D03*
X155194000Y-110172500D03*
X157734000Y-110172500D03*
X160274000Y-110172500D03*
X162814000Y-110172500D03*
X165354000Y-110172500D03*
X167894000Y-110172500D03*
X170434000Y-110172500D03*
X172974000Y-110172500D03*
X175514000Y-110172500D03*
X178054000Y-110172500D03*
X178054000Y-94932500D03*
X175514000Y-94932500D03*
X172974000Y-94932500D03*
X170434000Y-94932500D03*
X167894000Y-94932500D03*
X165354000Y-94932500D03*
X162814000Y-94932500D03*
X160274000Y-94932500D03*
X157734000Y-94932500D03*
X155194000Y-94932500D03*
X152654000Y-94932500D03*
X150114000Y-94932500D03*
X147574000Y-94932500D03*
X145034000Y-94932500D03*
X142494000Y-94932500D03*
X139954000Y-94932500D03*
X137414000Y-94932500D03*
X134874000Y-94932500D03*
X132334000Y-94932500D03*
X129794000Y-94932500D03*
D21*
X129794000Y-92392500D03*
D20*
X132334000Y-92392500D03*
X134874000Y-92392500D03*
X137414000Y-92392500D03*
X139954000Y-92392500D03*
X142494000Y-92392500D03*
X145034000Y-92392500D03*
X147574000Y-92392500D03*
X150114000Y-92392500D03*
X152654000Y-92392500D03*
X152654000Y-84772500D03*
X150114000Y-84772500D03*
X147574000Y-84772500D03*
X145034000Y-84772500D03*
X142494000Y-84772500D03*
X139954000Y-84772500D03*
X137414000Y-84772500D03*
X134874000Y-84772500D03*
X132334000Y-84772500D03*
X129794000Y-84772500D03*
D21*
X183134000Y-84772500D03*
D20*
X180594000Y-84772500D03*
X178054000Y-84772500D03*
X175514000Y-84772500D03*
X172974000Y-84772500D03*
X170434000Y-84772500D03*
X167894000Y-84772500D03*
X165354000Y-84772500D03*
X162814000Y-84772500D03*
X160274000Y-84772500D03*
X160274000Y-92392500D03*
X162814000Y-92392500D03*
X165354000Y-92392500D03*
X167894000Y-92392500D03*
X170434000Y-92392500D03*
X172974000Y-92392500D03*
X175514000Y-92392500D03*
X178054000Y-92392500D03*
X180594000Y-92392500D03*
X183134000Y-92392500D03*
D19*
X124694000Y-79248000D03*
X122194000Y-79248000D03*
X155154000Y-112903000D03*
X152654000Y-112903000D03*
X155475000Y-84925000D03*
X155475000Y-82425000D03*
X157300000Y-89550000D03*
X157300000Y-87050000D03*
X122428000Y-91694000D03*
D20*
X122428000Y-81534000D03*
D19*
X189865000Y-113919000D03*
X187365000Y-113919000D03*
D22*
X178762000Y-117475000D03*
X183642000Y-117475000D03*
D19*
X119380000Y-81534000D03*
D20*
X119380000Y-91694000D03*
D23*
X121450100Y-113322100D03*
D24*
X121450100Y-110782100D03*
D23*
X121450100Y-106616500D03*
D24*
X121450100Y-104076500D03*
D25*
X180182000Y-75887500D03*
D26*
X186182000Y-75887500D03*
D27*
X183182000Y-71187500D03*
D23*
X121462800Y-100037900D03*
D24*
X121462800Y-97497900D03*
D28*
X183997600Y-97891600D03*
D29*
X183997600Y-100431600D03*
X183997600Y-102971600D03*
X183997600Y-105511600D03*
X183997600Y-108051600D03*
X183997600Y-110591600D03*
D19*
X187198000Y-100584000D03*
D20*
X187198000Y-90424000D03*
D19*
X190093600Y-90424000D03*
D20*
X190093600Y-100584000D03*
D19*
X176570000Y-113284000D03*
X179070000Y-113284000D03*
X125476000Y-81534000D03*
D20*
X125476000Y-91694000D03*
D28*
X124891800Y-73126600D03*
D29*
X124891800Y-75666600D03*
D19*
X126009400Y-99290500D03*
X126009400Y-101790500D03*
D21*
X187285621Y-85090000D03*
D19*
X189785621Y-85090000D03*
D30*
X131052300Y-126923800D03*
X135012300Y-126923800D03*
X138972300Y-126923800D03*
X142932300Y-126923800D03*
X146892300Y-126923800D03*
X150852300Y-126923800D03*
X154812300Y-126923800D03*
X158772300Y-126923800D03*
X162732300Y-126923800D03*
X166692300Y-126923800D03*
X170652300Y-126923800D03*
X174612300Y-126923800D03*
D31*
X187350400Y-103896400D03*
X187350400Y-110896400D03*
D32*
X189850400Y-105146400D03*
X189850400Y-109646400D03*
D28*
X131064000Y-80010000D03*
D29*
X133604000Y-80010000D03*
X136144000Y-80010000D03*
X138684000Y-80010000D03*
X141224000Y-80010000D03*
X143764000Y-80010000D03*
D30*
X130860799Y-70408800D03*
X134820799Y-70408800D03*
X138780799Y-70408800D03*
X142740799Y-70408800D03*
X146700799Y-70408800D03*
X150660799Y-70408800D03*
X154620799Y-70408800D03*
X158580799Y-70408800D03*
X162540799Y-70408800D03*
X166500799Y-70408800D03*
X170460799Y-70408800D03*
X174420799Y-70408800D03*
D33*
X129794000Y-116869000D03*
D32*
X133754089Y-116869000D03*
X137714180Y-116869000D03*
X141674269Y-116869000D03*
X145634360Y-116869000D03*
X149594449Y-116869000D03*
X153554540Y-116869000D03*
X157514629Y-116869000D03*
X161474720Y-116869000D03*
X165434809Y-116869000D03*
X169394900Y-116869000D03*
X173354999Y-116869000D03*
X129794000Y-120269000D03*
X133754090Y-120269001D03*
X137714180Y-120269000D03*
X141674270Y-120269001D03*
X145634360Y-120269000D03*
X149594450Y-120269001D03*
X153554540Y-120269000D03*
X157514630Y-120269001D03*
X161474720Y-120269000D03*
X165434809Y-120269000D03*
X169394900Y-120269000D03*
D34*
X173355000Y-120269001D03*
%LPD*%
D35*
X192151000Y-65786000D02*
X192151000Y-114109500D01*
X192151000Y-114109500D02*
X192151000Y-120142000D01*
X129400300Y-131432300D02*
X135051800Y-131432300D01*
X177152300Y-130035300D02*
X177152300Y-120192800D01*
X138925300Y-131432300D02*
X162801300Y-131432300D01*
X166674800Y-131432300D02*
X175755300Y-131432300D01*
X165277800Y-130035300D02*
X165277800Y-122351800D01*
X136448800Y-122415300D02*
X136448800Y-130035300D01*
X138925300Y-131432300D02*
G75*
G02*
X137528300Y-130035300I0J1397000D01*
G01*
X165277800Y-122351800D02*
X164198300Y-122351800D01*
X136448800Y-130035300D02*
G75*
G02*
X135051800Y-131432300I-1397000J0D01*
G01*
X136448800Y-122415300D02*
X137528300Y-122415300D01*
X164198300Y-122351800D02*
X164198300Y-130035300D01*
X177152300Y-130035300D02*
G75*
G02*
X175755300Y-131432300I-1397000J0D01*
G01*
X164198300Y-130035300D02*
G75*
G02*
X162801300Y-131432300I-1397000J0D01*
G01*
X137528300Y-130035300D02*
X137528300Y-122415300D01*
X166674800Y-131432300D02*
G75*
G02*
X165277800Y-130035300I0J1397000D01*
G01*
X129400300Y-131432300D02*
G75*
G02*
X128003300Y-130035300I0J1397000D01*
G01*
X177152300Y-120142000D02*
X177152300Y-120192800D01*
X117221000Y-120230900D02*
X117221000Y-65786000D01*
X192151000Y-65786000D02*
X117221000Y-65786000D01*
X192151000Y-120142000D02*
X181165500Y-120142000D01*
X121762228Y-68675000D02*
G75*
G02*
X118387772Y-68675000I-1687228J0D01*
G01*
X118387772Y-68675000D02*
G75*
G02*
X121762228Y-68675000I1687228J0D01*
G01*
X121762228Y-117348000D02*
G75*
G02*
X118387772Y-117348000I-1687228J0D01*
G01*
X118387772Y-117348000D02*
G75*
G02*
X121762228Y-117348000I1687228J0D01*
G01*
X128003300Y-120230900D02*
X117221000Y-120230900D01*
X127798228Y-117348000D02*
G75*
G02*
X124423772Y-117348000I-1687228J0D01*
G01*
X124423772Y-117348000D02*
G75*
G02*
X127798228Y-117348000I1687228J0D01*
G01*
X137450228Y-113919000D02*
G75*
G02*
X134075772Y-113919000I-1687228J0D01*
G01*
X134075772Y-113919000D02*
G75*
G02*
X137450228Y-113919000I1687228J0D01*
G01*
X181165500Y-120142000D02*
X177152300Y-120142000D01*
X128003300Y-130035300D02*
X128003300Y-120230900D01*
X190887228Y-68625000D02*
G75*
G02*
X187512772Y-68625000I-1687228J0D01*
G01*
X187512772Y-68625000D02*
G75*
G02*
X190887228Y-68625000I1687228J0D01*
G01*
X190887228Y-117348000D02*
G75*
G02*
X187512772Y-117348000I-1687228J0D01*
G01*
X187512772Y-117348000D02*
G75*
G02*
X190887228Y-117348000I1687228J0D01*
G01*
M02*
