%TF.GenerationSoftware,KiCad,Pcbnew,8.0.4*%
%TF.CreationDate,2024-07-27T17:05:49-04:00*%
%TF.ProjectId,CBM-SD,43424d2d-5344-42e6-9b69-6361645f7063,rev?*%
%TF.SameCoordinates,Original*%
%TF.FileFunction,Drillmap*%
%TF.FilePolarity,Positive*%
%FSLAX45Y45*%
G04 Gerber Fmt 4.5, Leading zero omitted, Abs format (unit mm)*
G04 Created by KiCad (PCBNEW 8.0.4) date 2024-07-27 17:05:49*
%MOMM*%
%LPD*%
G01*
G04 APERTURE LIST*
%ADD10C,0.200660*%
%ADD11C,0.200000*%
%ADD12C,0.100000*%
%ADD13C,0.110000*%
%ADD14C,0.130000*%
G04 APERTURE END LIST*
D10*
X19215100Y-6578600D02*
X19215100Y-11410950D01*
X19215100Y-11410950D02*
X19215100Y-12014200D01*
X12940030Y-13143230D02*
X13505180Y-13143230D01*
X17715230Y-13003530D02*
X17715230Y-12019280D01*
X13892530Y-13143230D02*
X16280130Y-13143230D01*
X16667480Y-13143230D02*
X17575530Y-13143230D01*
X16527780Y-13003530D02*
X16527780Y-12235180D01*
X13644880Y-12241530D02*
X13644880Y-13003530D01*
X13892530Y-13143230D02*
G75*
G02*
X13752830Y-13003530I0J139700D01*
G01*
X16527780Y-12235180D02*
X16419830Y-12235180D01*
X13644880Y-13003530D02*
G75*
G02*
X13505180Y-13143230I-139700J0D01*
G01*
X13644880Y-12241530D02*
X13752830Y-12241530D01*
X16419830Y-12235180D02*
X16419830Y-13003530D01*
X17715230Y-13003530D02*
G75*
G02*
X17575530Y-13143230I-139700J0D01*
G01*
X16419830Y-13003530D02*
G75*
G02*
X16280130Y-13143230I-139700J0D01*
G01*
X13752830Y-13003530D02*
X13752830Y-12241530D01*
X16667480Y-13143230D02*
G75*
G02*
X16527780Y-13003530I0J139700D01*
G01*
X12940030Y-13143230D02*
G75*
G02*
X12800330Y-13003530I0J139700D01*
G01*
X17715230Y-12014200D02*
X17715230Y-12019280D01*
X11722100Y-12023090D02*
X11722100Y-6578600D01*
X19215100Y-6578600D02*
X11722100Y-6578600D01*
X19215100Y-12014200D02*
X18116550Y-12014200D01*
X12176223Y-6867500D02*
G75*
G02*
X11838777Y-6867500I-168723J0D01*
G01*
X11838777Y-6867500D02*
G75*
G02*
X12176223Y-6867500I168723J0D01*
G01*
X12176223Y-11734800D02*
G75*
G02*
X11838777Y-11734800I-168723J0D01*
G01*
X11838777Y-11734800D02*
G75*
G02*
X12176223Y-11734800I168723J0D01*
G01*
X12800330Y-12023090D02*
X11722100Y-12023090D01*
X12779823Y-11734800D02*
G75*
G02*
X12442377Y-11734800I-168723J0D01*
G01*
X12442377Y-11734800D02*
G75*
G02*
X12779823Y-11734800I168723J0D01*
G01*
X13745023Y-11391900D02*
G75*
G02*
X13407577Y-11391900I-168723J0D01*
G01*
X13407577Y-11391900D02*
G75*
G02*
X13745023Y-11391900I168723J0D01*
G01*
X18116550Y-12014200D02*
X17715230Y-12014200D01*
X12800330Y-13003530D02*
X12800330Y-12023090D01*
X19088723Y-6862500D02*
G75*
G02*
X18751277Y-6862500I-168723J0D01*
G01*
X18751277Y-6862500D02*
G75*
G02*
X19088723Y-6862500I168723J0D01*
G01*
X19088723Y-11734800D02*
G75*
G02*
X18751277Y-11734800I-168723J0D01*
G01*
X18751277Y-11734800D02*
G75*
G02*
X19088723Y-11734800I168723J0D01*
G01*
D11*
D12*
X12629200Y-9708200D02*
X12669200Y-9748200D01*
X12669200Y-9708200D02*
X12629200Y-9748200D01*
X12734610Y-9830120D02*
X12774610Y-9870120D01*
X12774610Y-9830120D02*
X12734610Y-9870120D01*
X13057451Y-10527612D02*
X13097451Y-10567612D01*
X13097451Y-10527612D02*
X13057451Y-10567612D01*
X13061000Y-9819960D02*
X13101000Y-9859960D01*
X13101000Y-9819960D02*
X13061000Y-9859960D01*
X13193080Y-11242360D02*
X13233080Y-11282360D01*
X13233080Y-11242360D02*
X13193080Y-11282360D01*
X13502960Y-10593390D02*
X13542960Y-10633390D01*
X13542960Y-10593390D02*
X13502960Y-10633390D01*
X13981750Y-10175560D02*
X14021750Y-10215560D01*
X14021750Y-10175560D02*
X13981750Y-10215560D01*
X14073140Y-10501950D02*
X14113140Y-10541950D01*
X14113140Y-10501950D02*
X14073140Y-10541950D01*
X14115100Y-11283000D02*
X14155100Y-11323000D01*
X14155100Y-11283000D02*
X14115100Y-11323000D01*
X14229400Y-8692200D02*
X14269400Y-8732200D01*
X14269400Y-8692200D02*
X14229400Y-8732200D01*
X14260000Y-10505000D02*
X14300000Y-10545000D01*
X14300000Y-10505000D02*
X14260000Y-10545000D01*
X14371640Y-10708960D02*
X14411640Y-10748960D01*
X14411640Y-10708960D02*
X14371640Y-10748960D01*
X14477050Y-8838250D02*
X14517050Y-8878250D01*
X14517050Y-8838250D02*
X14477050Y-8878250D01*
X14604050Y-11149650D02*
X14644050Y-11189650D01*
X14644050Y-11149650D02*
X14604050Y-11189650D01*
X14724700Y-8831900D02*
X14764700Y-8871900D01*
X14764700Y-8831900D02*
X14724700Y-8871900D01*
X14733590Y-10195880D02*
X14773590Y-10235880D01*
X14773590Y-10195880D02*
X14733590Y-10235880D01*
X14775500Y-7587300D02*
X14815500Y-7627300D01*
X14815500Y-7587300D02*
X14775500Y-7627300D01*
X14863750Y-8108000D02*
X14903750Y-8148000D01*
X14903750Y-8108000D02*
X14863750Y-8148000D01*
X14878750Y-10476250D02*
X14918750Y-10516250D01*
X14918750Y-10476250D02*
X14878750Y-10516250D01*
X14966000Y-8838250D02*
X15006000Y-8878250D01*
X15006000Y-8838250D02*
X14966000Y-8878250D01*
X15002500Y-10670000D02*
X15042500Y-10710000D01*
X15042500Y-10670000D02*
X15002500Y-10710000D01*
X15038390Y-10397810D02*
X15078390Y-10437810D01*
X15078390Y-10397810D02*
X15038390Y-10437810D01*
X15131100Y-7707950D02*
X15171100Y-7747950D01*
X15171100Y-7707950D02*
X15131100Y-7747950D01*
X15366050Y-8971600D02*
X15406050Y-9011600D01*
X15406050Y-8971600D02*
X15366050Y-9011600D01*
X15385100Y-10044750D02*
X15425100Y-10084750D01*
X15425100Y-10044750D02*
X15385100Y-10084750D01*
X15447572Y-7707950D02*
X15487572Y-7747950D01*
X15487572Y-7707950D02*
X15447572Y-7747950D01*
X15499400Y-9211250D02*
X15539400Y-9251250D01*
X15539400Y-9211250D02*
X15499400Y-9251250D01*
X15616240Y-9851710D02*
X15656240Y-9891710D01*
X15656240Y-9851710D02*
X15616240Y-9891710D01*
X15620050Y-10146350D02*
X15660050Y-10186350D01*
X15660050Y-10146350D02*
X15620050Y-10186350D01*
X15651800Y-9654860D02*
X15691800Y-9694860D01*
X15691800Y-9654860D02*
X15651800Y-9694860D01*
X15670850Y-11403650D02*
X15710850Y-11443650D01*
X15710850Y-11403650D02*
X15670850Y-11443650D01*
X15753400Y-9219250D02*
X15793400Y-9259250D01*
X15793400Y-9219250D02*
X15753400Y-9259250D01*
X15867700Y-7707950D02*
X15907700Y-7747950D01*
X15907700Y-7707950D02*
X15867700Y-7747950D01*
X16032800Y-8990650D02*
X16072800Y-9030650D01*
X16072800Y-8990650D02*
X16032800Y-9030650D01*
X16263940Y-9821230D02*
X16303940Y-9861230D01*
X16303940Y-9821230D02*
X16263940Y-9861230D01*
X16515400Y-9943150D02*
X16555400Y-9983150D01*
X16555400Y-9943150D02*
X16515400Y-9983150D01*
X16617000Y-8831900D02*
X16657000Y-8871900D01*
X16657000Y-8831900D02*
X16617000Y-8871900D01*
X16667800Y-10298750D02*
X16707800Y-10338750D01*
X16707800Y-10298750D02*
X16667800Y-10338750D01*
X16676690Y-9935530D02*
X16716690Y-9975530D01*
X16716690Y-9935530D02*
X16676690Y-9975530D01*
X16896400Y-9944420D02*
X16936400Y-9984420D01*
X16936400Y-9944420D02*
X16896400Y-9984420D01*
X17048800Y-8946200D02*
X17088800Y-8986200D01*
X17088800Y-8946200D02*
X17048800Y-8986200D01*
X17144050Y-9625650D02*
X17184050Y-9665650D01*
X17184050Y-9625650D02*
X17144050Y-9665650D01*
X17285020Y-8932230D02*
X17325020Y-8972230D01*
X17325020Y-8932230D02*
X17285020Y-8972230D01*
X17328200Y-11333800D02*
X17368200Y-11373800D01*
X17368200Y-11333800D02*
X17328200Y-11373800D01*
X17537750Y-8835710D02*
X17577750Y-8875710D01*
X17577750Y-8835710D02*
X17537750Y-8875710D01*
X17641890Y-9676450D02*
X17681890Y-9716450D01*
X17681890Y-9676450D02*
X17641890Y-9716450D01*
X18033050Y-9474520D02*
X18073050Y-9514520D01*
X18073050Y-9474520D02*
X18033050Y-9514520D01*
X18102900Y-8936040D02*
X18142900Y-8976040D01*
X18142900Y-8936040D02*
X18102900Y-8976040D01*
X18145951Y-10635951D02*
X18185951Y-10675951D01*
X18185951Y-10635951D02*
X18145951Y-10675951D01*
X18293400Y-8958900D02*
X18333400Y-8998900D01*
X18333400Y-8958900D02*
X18293400Y-8998900D01*
X18547500Y-10155000D02*
X18587500Y-10195000D01*
X18587500Y-10155000D02*
X18547500Y-10195000D01*
X18577500Y-9525000D02*
X18617500Y-9565000D01*
X18617500Y-9525000D02*
X18577500Y-9565000D01*
X12919070Y-10083800D02*
G75*
G02*
X12839070Y-10083800I-40000J0D01*
G01*
X12839070Y-10083800D02*
G75*
G02*
X12919070Y-10083800I40000J0D01*
G01*
X15282540Y-10022840D02*
G75*
G02*
X15202540Y-10022840I-40000J0D01*
G01*
X15202540Y-10022840D02*
G75*
G02*
X15282540Y-10022840I40000J0D01*
G01*
X15297780Y-10441940D02*
G75*
G02*
X15217780Y-10441940I-40000J0D01*
G01*
X15217780Y-10441940D02*
G75*
G02*
X15297780Y-10441940I40000J0D01*
G01*
X16113120Y-7613650D02*
G75*
G02*
X16033120Y-7613650I-40000J0D01*
G01*
X16033120Y-7613650D02*
G75*
G02*
X16113120Y-7613650I40000J0D01*
G01*
X17596480Y-10440670D02*
G75*
G02*
X17516480Y-10440670I-40000J0D01*
G01*
X17516480Y-10440670D02*
G75*
G02*
X17596480Y-10440670I40000J0D01*
G01*
X17680300Y-11798300D02*
G75*
G02*
X17600300Y-11798300I-40000J0D01*
G01*
X17600300Y-11798300D02*
G75*
G02*
X17680300Y-11798300I40000J0D01*
G01*
X11938000Y-8113400D02*
X11938000Y-8193400D01*
X11898000Y-8153400D02*
X11978000Y-8153400D01*
X11938000Y-9129400D02*
X11938000Y-9209400D01*
X11898000Y-9169400D02*
X11978000Y-9169400D01*
X12219400Y-7884800D02*
X12219400Y-7964800D01*
X12179400Y-7924800D02*
X12259400Y-7924800D01*
X12242800Y-8113400D02*
X12242800Y-8193400D01*
X12202800Y-8153400D02*
X12282800Y-8153400D01*
X12242800Y-9129400D02*
X12242800Y-9209400D01*
X12202800Y-9169400D02*
X12282800Y-9169400D01*
X12469400Y-7884800D02*
X12469400Y-7964800D01*
X12429400Y-7924800D02*
X12509400Y-7924800D01*
X12547600Y-8113400D02*
X12547600Y-8193400D01*
X12507600Y-8153400D02*
X12587600Y-8153400D01*
X12547600Y-9129400D02*
X12547600Y-9209400D01*
X12507600Y-9169400D02*
X12587600Y-9169400D01*
X12599670Y-10367650D02*
X12599670Y-10447650D01*
X12559670Y-10407650D02*
X12639670Y-10407650D01*
X12599670Y-11383650D02*
X12599670Y-11463650D01*
X12559670Y-11423650D02*
X12639670Y-11423650D01*
X12600940Y-9889050D02*
X12600940Y-9969050D01*
X12560940Y-9929050D02*
X12640940Y-9929050D01*
X12600940Y-10139050D02*
X12600940Y-10219050D01*
X12560940Y-10179050D02*
X12640940Y-10179050D01*
X12979400Y-8437250D02*
X12979400Y-8517250D01*
X12939400Y-8477250D02*
X13019400Y-8477250D01*
X12979400Y-9199250D02*
X12979400Y-9279250D01*
X12939400Y-9239250D02*
X13019400Y-9239250D01*
X12979400Y-9453250D02*
X12979400Y-9533250D01*
X12939400Y-9493250D02*
X13019400Y-9493250D01*
X12979400Y-10977250D02*
X12979400Y-11057250D01*
X12939400Y-11017250D02*
X13019400Y-11017250D01*
X13233400Y-8437250D02*
X13233400Y-8517250D01*
X13193400Y-8477250D02*
X13273400Y-8477250D01*
X13233400Y-9199250D02*
X13233400Y-9279250D01*
X13193400Y-9239250D02*
X13273400Y-9239250D01*
X13233400Y-9453250D02*
X13233400Y-9533250D01*
X13193400Y-9493250D02*
X13273400Y-9493250D01*
X13233400Y-10977250D02*
X13233400Y-11057250D01*
X13193400Y-11017250D02*
X13273400Y-11017250D01*
X13487400Y-8437250D02*
X13487400Y-8517250D01*
X13447400Y-8477250D02*
X13527400Y-8477250D01*
X13487400Y-9199250D02*
X13487400Y-9279250D01*
X13447400Y-9239250D02*
X13527400Y-9239250D01*
X13487400Y-9453250D02*
X13487400Y-9533250D01*
X13447400Y-9493250D02*
X13527400Y-9493250D01*
X13487400Y-10977250D02*
X13487400Y-11057250D01*
X13447400Y-11017250D02*
X13527400Y-11017250D01*
X13741400Y-8437250D02*
X13741400Y-8517250D01*
X13701400Y-8477250D02*
X13781400Y-8477250D01*
X13741400Y-9199250D02*
X13741400Y-9279250D01*
X13701400Y-9239250D02*
X13781400Y-9239250D01*
X13741400Y-9453250D02*
X13741400Y-9533250D01*
X13701400Y-9493250D02*
X13781400Y-9493250D01*
X13741400Y-10977250D02*
X13741400Y-11057250D01*
X13701400Y-11017250D02*
X13781400Y-11017250D01*
X13995400Y-8437250D02*
X13995400Y-8517250D01*
X13955400Y-8477250D02*
X14035400Y-8477250D01*
X13995400Y-9199250D02*
X13995400Y-9279250D01*
X13955400Y-9239250D02*
X14035400Y-9239250D01*
X13995400Y-9453250D02*
X13995400Y-9533250D01*
X13955400Y-9493250D02*
X14035400Y-9493250D01*
X13995400Y-10977250D02*
X13995400Y-11057250D01*
X13955400Y-11017250D02*
X14035400Y-11017250D01*
X14249400Y-8437250D02*
X14249400Y-8517250D01*
X14209400Y-8477250D02*
X14289400Y-8477250D01*
X14249400Y-9199250D02*
X14249400Y-9279250D01*
X14209400Y-9239250D02*
X14289400Y-9239250D01*
X14249400Y-9453250D02*
X14249400Y-9533250D01*
X14209400Y-9493250D02*
X14289400Y-9493250D01*
X14249400Y-10977250D02*
X14249400Y-11057250D01*
X14209400Y-11017250D02*
X14289400Y-11017250D01*
X14503400Y-8437250D02*
X14503400Y-8517250D01*
X14463400Y-8477250D02*
X14543400Y-8477250D01*
X14503400Y-9199250D02*
X14503400Y-9279250D01*
X14463400Y-9239250D02*
X14543400Y-9239250D01*
X14503400Y-9453250D02*
X14503400Y-9533250D01*
X14463400Y-9493250D02*
X14543400Y-9493250D01*
X14503400Y-10977250D02*
X14503400Y-11057250D01*
X14463400Y-11017250D02*
X14543400Y-11017250D01*
X14757400Y-8437250D02*
X14757400Y-8517250D01*
X14717400Y-8477250D02*
X14797400Y-8477250D01*
X14757400Y-9199250D02*
X14757400Y-9279250D01*
X14717400Y-9239250D02*
X14797400Y-9239250D01*
X14757400Y-9453250D02*
X14757400Y-9533250D01*
X14717400Y-9493250D02*
X14797400Y-9493250D01*
X14757400Y-10977250D02*
X14757400Y-11057250D01*
X14717400Y-11017250D02*
X14797400Y-11017250D01*
X15011400Y-8437250D02*
X15011400Y-8517250D01*
X14971400Y-8477250D02*
X15051400Y-8477250D01*
X15011400Y-9199250D02*
X15011400Y-9279250D01*
X14971400Y-9239250D02*
X15051400Y-9239250D01*
X15011400Y-9453250D02*
X15011400Y-9533250D01*
X14971400Y-9493250D02*
X15051400Y-9493250D01*
X15011400Y-10977250D02*
X15011400Y-11057250D01*
X14971400Y-11017250D02*
X15051400Y-11017250D01*
X15265400Y-8437250D02*
X15265400Y-8517250D01*
X15225400Y-8477250D02*
X15305400Y-8477250D01*
X15265400Y-9199250D02*
X15265400Y-9279250D01*
X15225400Y-9239250D02*
X15305400Y-9239250D01*
X15265400Y-9453250D02*
X15265400Y-9533250D01*
X15225400Y-9493250D02*
X15305400Y-9493250D01*
X15265400Y-10977250D02*
X15265400Y-11057250D01*
X15225400Y-11017250D02*
X15305400Y-11017250D01*
X15265400Y-11250300D02*
X15265400Y-11330300D01*
X15225400Y-11290300D02*
X15305400Y-11290300D01*
X15515400Y-11250300D02*
X15515400Y-11330300D01*
X15475400Y-11290300D02*
X15555400Y-11290300D01*
X15519400Y-9453250D02*
X15519400Y-9533250D01*
X15479400Y-9493250D02*
X15559400Y-9493250D01*
X15519400Y-10977250D02*
X15519400Y-11057250D01*
X15479400Y-11017250D02*
X15559400Y-11017250D01*
X15547500Y-8202500D02*
X15547500Y-8282500D01*
X15507500Y-8242500D02*
X15587500Y-8242500D01*
X15547500Y-8452500D02*
X15547500Y-8532500D01*
X15507500Y-8492500D02*
X15587500Y-8492500D01*
X15730000Y-8665000D02*
X15730000Y-8745000D01*
X15690000Y-8705000D02*
X15770000Y-8705000D01*
X15730000Y-8915000D02*
X15730000Y-8995000D01*
X15690000Y-8955000D02*
X15770000Y-8955000D01*
X15773400Y-9453250D02*
X15773400Y-9533250D01*
X15733400Y-9493250D02*
X15813400Y-9493250D01*
X15773400Y-10977250D02*
X15773400Y-11057250D01*
X15733400Y-11017250D02*
X15813400Y-11017250D01*
X16027400Y-8437250D02*
X16027400Y-8517250D01*
X15987400Y-8477250D02*
X16067400Y-8477250D01*
X16027400Y-9199250D02*
X16027400Y-9279250D01*
X15987400Y-9239250D02*
X16067400Y-9239250D01*
X16027400Y-9453250D02*
X16027400Y-9533250D01*
X15987400Y-9493250D02*
X16067400Y-9493250D01*
X16027400Y-10977250D02*
X16027400Y-11057250D01*
X15987400Y-11017250D02*
X16067400Y-11017250D01*
X16281400Y-8437250D02*
X16281400Y-8517250D01*
X16241400Y-8477250D02*
X16321400Y-8477250D01*
X16281400Y-9199250D02*
X16281400Y-9279250D01*
X16241400Y-9239250D02*
X16321400Y-9239250D01*
X16281400Y-9453250D02*
X16281400Y-9533250D01*
X16241400Y-9493250D02*
X16321400Y-9493250D01*
X16281400Y-10977250D02*
X16281400Y-11057250D01*
X16241400Y-11017250D02*
X16321400Y-11017250D01*
X16535400Y-8437250D02*
X16535400Y-8517250D01*
X16495400Y-8477250D02*
X16575400Y-8477250D01*
X16535400Y-9199250D02*
X16535400Y-9279250D01*
X16495400Y-9239250D02*
X16575400Y-9239250D01*
X16535400Y-9453250D02*
X16535400Y-9533250D01*
X16495400Y-9493250D02*
X16575400Y-9493250D01*
X16535400Y-10977250D02*
X16535400Y-11057250D01*
X16495400Y-11017250D02*
X16575400Y-11017250D01*
X16789400Y-8183250D02*
X16789400Y-8263250D01*
X16749400Y-8223250D02*
X16829400Y-8223250D01*
X16789400Y-8437250D02*
X16789400Y-8517250D01*
X16749400Y-8477250D02*
X16829400Y-8477250D01*
X16789400Y-9199250D02*
X16789400Y-9279250D01*
X16749400Y-9239250D02*
X16829400Y-9239250D01*
X16789400Y-9453250D02*
X16789400Y-9533250D01*
X16749400Y-9493250D02*
X16829400Y-9493250D01*
X16789400Y-10977250D02*
X16789400Y-11057250D01*
X16749400Y-11017250D02*
X16829400Y-11017250D01*
X17043400Y-8183250D02*
X17043400Y-8263250D01*
X17003400Y-8223250D02*
X17083400Y-8223250D01*
X17043400Y-8437250D02*
X17043400Y-8517250D01*
X17003400Y-8477250D02*
X17083400Y-8477250D01*
X17043400Y-9199250D02*
X17043400Y-9279250D01*
X17003400Y-9239250D02*
X17083400Y-9239250D01*
X17043400Y-9453250D02*
X17043400Y-9533250D01*
X17003400Y-9493250D02*
X17083400Y-9493250D01*
X17043400Y-10977250D02*
X17043400Y-11057250D01*
X17003400Y-11017250D02*
X17083400Y-11017250D01*
X17297400Y-8183250D02*
X17297400Y-8263250D01*
X17257400Y-8223250D02*
X17337400Y-8223250D01*
X17297400Y-8437250D02*
X17297400Y-8517250D01*
X17257400Y-8477250D02*
X17337400Y-8477250D01*
X17297400Y-9199250D02*
X17297400Y-9279250D01*
X17257400Y-9239250D02*
X17337400Y-9239250D01*
X17297400Y-9453250D02*
X17297400Y-9533250D01*
X17257400Y-9493250D02*
X17337400Y-9493250D01*
X17297400Y-10977250D02*
X17297400Y-11057250D01*
X17257400Y-11017250D02*
X17337400Y-11017250D01*
X17551400Y-8183250D02*
X17551400Y-8263250D01*
X17511400Y-8223250D02*
X17591400Y-8223250D01*
X17551400Y-8437250D02*
X17551400Y-8517250D01*
X17511400Y-8477250D02*
X17591400Y-8477250D01*
X17551400Y-9199250D02*
X17551400Y-9279250D01*
X17511400Y-9239250D02*
X17591400Y-9239250D01*
X17551400Y-9453250D02*
X17551400Y-9533250D01*
X17511400Y-9493250D02*
X17591400Y-9493250D01*
X17551400Y-10977250D02*
X17551400Y-11057250D01*
X17511400Y-11017250D02*
X17591400Y-11017250D01*
X17657000Y-11288400D02*
X17657000Y-11368400D01*
X17617000Y-11328400D02*
X17697000Y-11328400D01*
X17805400Y-8183250D02*
X17805400Y-8263250D01*
X17765400Y-8223250D02*
X17845400Y-8223250D01*
X17805400Y-8437250D02*
X17805400Y-8517250D01*
X17765400Y-8477250D02*
X17845400Y-8477250D01*
X17805400Y-9199250D02*
X17805400Y-9279250D01*
X17765400Y-9239250D02*
X17845400Y-9239250D01*
X17805400Y-9453250D02*
X17805400Y-9533250D01*
X17765400Y-9493250D02*
X17845400Y-9493250D01*
X17805400Y-10977250D02*
X17805400Y-11057250D01*
X17765400Y-11017250D02*
X17845400Y-11017250D01*
X17876200Y-11707500D02*
X17876200Y-11787500D01*
X17836200Y-11747500D02*
X17916200Y-11747500D01*
X17907000Y-11288400D02*
X17907000Y-11368400D01*
X17867000Y-11328400D02*
X17947000Y-11328400D01*
X18059400Y-8183250D02*
X18059400Y-8263250D01*
X18019400Y-8223250D02*
X18099400Y-8223250D01*
X18059400Y-8437250D02*
X18059400Y-8517250D01*
X18019400Y-8477250D02*
X18099400Y-8477250D01*
X18059400Y-9199250D02*
X18059400Y-9279250D01*
X18019400Y-9239250D02*
X18099400Y-9239250D01*
X18313400Y-8183250D02*
X18313400Y-8263250D01*
X18273400Y-8223250D02*
X18353400Y-8223250D01*
X18313400Y-8437250D02*
X18313400Y-8517250D01*
X18273400Y-8477250D02*
X18353400Y-8477250D01*
X18313400Y-9199250D02*
X18313400Y-9279250D01*
X18273400Y-9239250D02*
X18353400Y-9239250D01*
X18364200Y-11707500D02*
X18364200Y-11787500D01*
X18324200Y-11747500D02*
X18404200Y-11747500D01*
X18719800Y-9002400D02*
X18719800Y-9082400D01*
X18679800Y-9042400D02*
X18759800Y-9042400D01*
X18719800Y-10018400D02*
X18719800Y-10098400D01*
X18679800Y-10058400D02*
X18759800Y-10058400D01*
X18728562Y-8469000D02*
X18728562Y-8549000D01*
X18688562Y-8509000D02*
X18768562Y-8509000D01*
X18736500Y-11351900D02*
X18736500Y-11431900D01*
X18696500Y-11391900D02*
X18776500Y-11391900D01*
X18978562Y-8469000D02*
X18978562Y-8549000D01*
X18938562Y-8509000D02*
X19018562Y-8509000D01*
X18986500Y-11351900D02*
X18986500Y-11431900D01*
X18946500Y-11391900D02*
X19026500Y-11391900D01*
X19009360Y-9002400D02*
X19009360Y-9082400D01*
X18969360Y-9042400D02*
X19049360Y-9042400D01*
X19009360Y-10018400D02*
X19009360Y-10098400D01*
X18969360Y-10058400D02*
X19049360Y-10058400D01*
X12176830Y-10439470D02*
X12176830Y-10375830D01*
X12113190Y-10375830D01*
X12113190Y-10439470D01*
X12176830Y-10439470D01*
X12176830Y-10693470D02*
X12176830Y-10629830D01*
X12113190Y-10629830D01*
X12113190Y-10693470D01*
X12176830Y-10693470D01*
X12176830Y-11110030D02*
X12176830Y-11046390D01*
X12113190Y-11046390D01*
X12113190Y-11110030D01*
X12176830Y-11110030D01*
X12176830Y-11364030D02*
X12176830Y-11300390D01*
X12113190Y-11300390D01*
X12113190Y-11364030D01*
X12176830Y-11364030D01*
X12178100Y-9781610D02*
X12178100Y-9717970D01*
X12114460Y-9717970D01*
X12114460Y-9781610D01*
X12178100Y-9781610D01*
X12178100Y-10035610D02*
X12178100Y-9971970D01*
X12114460Y-9971970D01*
X12114460Y-10035610D01*
X12178100Y-10035610D01*
X12489180Y-7362660D02*
X12539180Y-7312660D01*
X12489180Y-7262660D01*
X12439180Y-7312660D01*
X12489180Y-7362660D01*
X12489180Y-7616660D02*
X12539180Y-7566660D01*
X12489180Y-7516660D01*
X12439180Y-7566660D01*
X12489180Y-7616660D01*
X13106400Y-8051000D02*
X13156400Y-8001000D01*
X13106400Y-7951000D01*
X13056400Y-8001000D01*
X13106400Y-8051000D01*
X13360400Y-8051000D02*
X13410400Y-8001000D01*
X13360400Y-7951000D01*
X13310400Y-8001000D01*
X13360400Y-8051000D01*
X13614400Y-8051000D02*
X13664400Y-8001000D01*
X13614400Y-7951000D01*
X13564400Y-8001000D01*
X13614400Y-8051000D01*
X13868400Y-8051000D02*
X13918400Y-8001000D01*
X13868400Y-7951000D01*
X13818400Y-8001000D01*
X13868400Y-8051000D01*
X14122400Y-8051000D02*
X14172400Y-8001000D01*
X14122400Y-7951000D01*
X14072400Y-8001000D01*
X14122400Y-8051000D01*
X14376400Y-8051000D02*
X14426400Y-8001000D01*
X14376400Y-7951000D01*
X14326400Y-8001000D01*
X14376400Y-8051000D01*
X18018200Y-7638750D02*
X18068200Y-7588750D01*
X18018200Y-7538750D01*
X17968200Y-7588750D01*
X18018200Y-7638750D01*
X18068200Y-7688750D02*
X18068200Y-7488750D01*
X17968200Y-7488750D02*
G75*
G02*
X18068200Y-7488750I50000J0D01*
G01*
X17968200Y-7488750D02*
X17968200Y-7688750D01*
X17968200Y-7688750D02*
G75*
G03*
X18068200Y-7688750I50000J0D01*
G01*
X18318200Y-7168750D02*
X18368200Y-7118750D01*
X18318200Y-7068750D01*
X18268200Y-7118750D01*
X18318200Y-7168750D01*
X18418200Y-7068750D02*
X18218200Y-7068750D01*
X18218200Y-7168750D02*
G75*
G02*
X18218200Y-7068750I0J50000D01*
G01*
X18218200Y-7168750D02*
X18418200Y-7168750D01*
X18418200Y-7168750D02*
G75*
G03*
X18418200Y-7068750I0J50000D01*
G01*
X18399760Y-9839160D02*
X18449760Y-9789160D01*
X18399760Y-9739160D01*
X18349760Y-9789160D01*
X18399760Y-9839160D01*
X18399760Y-10093160D02*
X18449760Y-10043160D01*
X18399760Y-9993160D01*
X18349760Y-10043160D01*
X18399760Y-10093160D01*
X18399760Y-10347160D02*
X18449760Y-10297160D01*
X18399760Y-10247160D01*
X18349760Y-10297160D01*
X18399760Y-10347160D01*
X18399760Y-10601160D02*
X18449760Y-10551160D01*
X18399760Y-10501160D01*
X18349760Y-10551160D01*
X18399760Y-10601160D01*
X18399760Y-10855160D02*
X18449760Y-10805160D01*
X18399760Y-10755160D01*
X18349760Y-10805160D01*
X18399760Y-10855160D01*
X18399760Y-11109160D02*
X18449760Y-11059160D01*
X18399760Y-11009160D01*
X18349760Y-11059160D01*
X18399760Y-11109160D01*
X18618200Y-7638750D02*
X18668200Y-7588750D01*
X18618200Y-7538750D01*
X18568200Y-7588750D01*
X18618200Y-7638750D01*
X18668200Y-7688750D02*
X18668200Y-7488750D01*
X18568200Y-7488750D02*
G75*
G02*
X18668200Y-7488750I50000J0D01*
G01*
X18568200Y-7488750D02*
X18568200Y-7688750D01*
X18568200Y-7688750D02*
G75*
G03*
X18668200Y-7688750I50000J0D01*
G01*
X18985040Y-10564640D02*
X19035040Y-10514640D01*
X18985040Y-10464640D01*
X18935040Y-10514640D01*
X18985040Y-10564640D01*
X18985040Y-11014640D02*
X19035040Y-10964640D01*
X18985040Y-10914640D01*
X18935040Y-10964640D01*
X18985040Y-11014640D01*
D13*
X12924400Y-11631900D02*
X13034400Y-11741900D01*
X13034400Y-11631900D02*
X12924400Y-11741900D01*
X13034400Y-11686900D02*
G75*
G02*
X12924400Y-11686900I-55000J0D01*
G01*
X12924400Y-11686900D02*
G75*
G02*
X13034400Y-11686900I55000J0D01*
G01*
X12924400Y-11971900D02*
X13034400Y-12081900D01*
X13034400Y-11971900D02*
X12924400Y-12081900D01*
X13034400Y-12026900D02*
G75*
G02*
X12924400Y-12026900I-55000J0D01*
G01*
X12924400Y-12026900D02*
G75*
G02*
X13034400Y-12026900I55000J0D01*
G01*
X13320409Y-11631900D02*
X13430409Y-11741900D01*
X13430409Y-11631900D02*
X13320409Y-11741900D01*
X13430409Y-11686900D02*
G75*
G02*
X13320409Y-11686900I-55000J0D01*
G01*
X13320409Y-11686900D02*
G75*
G02*
X13430409Y-11686900I55000J0D01*
G01*
X13320409Y-11971900D02*
X13430409Y-12081900D01*
X13430409Y-11971900D02*
X13320409Y-12081900D01*
X13430409Y-12026900D02*
G75*
G02*
X13320409Y-12026900I-55000J0D01*
G01*
X13320409Y-12026900D02*
G75*
G02*
X13430409Y-12026900I55000J0D01*
G01*
X13716418Y-11631900D02*
X13826418Y-11741900D01*
X13826418Y-11631900D02*
X13716418Y-11741900D01*
X13826418Y-11686900D02*
G75*
G02*
X13716418Y-11686900I-55000J0D01*
G01*
X13716418Y-11686900D02*
G75*
G02*
X13826418Y-11686900I55000J0D01*
G01*
X13716418Y-11971900D02*
X13826418Y-12081900D01*
X13826418Y-11971900D02*
X13716418Y-12081900D01*
X13826418Y-12026900D02*
G75*
G02*
X13716418Y-12026900I-55000J0D01*
G01*
X13716418Y-12026900D02*
G75*
G02*
X13826418Y-12026900I55000J0D01*
G01*
X14112427Y-11631900D02*
X14222427Y-11741900D01*
X14222427Y-11631900D02*
X14112427Y-11741900D01*
X14222427Y-11686900D02*
G75*
G02*
X14112427Y-11686900I-55000J0D01*
G01*
X14112427Y-11686900D02*
G75*
G02*
X14222427Y-11686900I55000J0D01*
G01*
X14112427Y-11971900D02*
X14222427Y-12081900D01*
X14222427Y-11971900D02*
X14112427Y-12081900D01*
X14222427Y-12026900D02*
G75*
G02*
X14112427Y-12026900I-55000J0D01*
G01*
X14112427Y-12026900D02*
G75*
G02*
X14222427Y-12026900I55000J0D01*
G01*
X14508436Y-11631900D02*
X14618436Y-11741900D01*
X14618436Y-11631900D02*
X14508436Y-11741900D01*
X14618436Y-11686900D02*
G75*
G02*
X14508436Y-11686900I-55000J0D01*
G01*
X14508436Y-11686900D02*
G75*
G02*
X14618436Y-11686900I55000J0D01*
G01*
X14508436Y-11971900D02*
X14618436Y-12081900D01*
X14618436Y-11971900D02*
X14508436Y-12081900D01*
X14618436Y-12026900D02*
G75*
G02*
X14508436Y-12026900I-55000J0D01*
G01*
X14508436Y-12026900D02*
G75*
G02*
X14618436Y-12026900I55000J0D01*
G01*
X14904445Y-11631900D02*
X15014445Y-11741900D01*
X15014445Y-11631900D02*
X14904445Y-11741900D01*
X15014445Y-11686900D02*
G75*
G02*
X14904445Y-11686900I-55000J0D01*
G01*
X14904445Y-11686900D02*
G75*
G02*
X15014445Y-11686900I55000J0D01*
G01*
X14904445Y-11971900D02*
X15014445Y-12081900D01*
X15014445Y-11971900D02*
X14904445Y-12081900D01*
X15014445Y-12026900D02*
G75*
G02*
X14904445Y-12026900I-55000J0D01*
G01*
X14904445Y-12026900D02*
G75*
G02*
X15014445Y-12026900I55000J0D01*
G01*
X15300454Y-11631900D02*
X15410454Y-11741900D01*
X15410454Y-11631900D02*
X15300454Y-11741900D01*
X15410454Y-11686900D02*
G75*
G02*
X15300454Y-11686900I-55000J0D01*
G01*
X15300454Y-11686900D02*
G75*
G02*
X15410454Y-11686900I55000J0D01*
G01*
X15300454Y-11971900D02*
X15410454Y-12081900D01*
X15410454Y-11971900D02*
X15300454Y-12081900D01*
X15410454Y-12026900D02*
G75*
G02*
X15300454Y-12026900I-55000J0D01*
G01*
X15300454Y-12026900D02*
G75*
G02*
X15410454Y-12026900I55000J0D01*
G01*
X15696463Y-11631900D02*
X15806463Y-11741900D01*
X15806463Y-11631900D02*
X15696463Y-11741900D01*
X15806463Y-11686900D02*
G75*
G02*
X15696463Y-11686900I-55000J0D01*
G01*
X15696463Y-11686900D02*
G75*
G02*
X15806463Y-11686900I55000J0D01*
G01*
X15696463Y-11971900D02*
X15806463Y-12081900D01*
X15806463Y-11971900D02*
X15696463Y-12081900D01*
X15806463Y-12026900D02*
G75*
G02*
X15696463Y-12026900I-55000J0D01*
G01*
X15696463Y-12026900D02*
G75*
G02*
X15806463Y-12026900I55000J0D01*
G01*
X16092472Y-11631900D02*
X16202472Y-11741900D01*
X16202472Y-11631900D02*
X16092472Y-11741900D01*
X16202472Y-11686900D02*
G75*
G02*
X16092472Y-11686900I-55000J0D01*
G01*
X16092472Y-11686900D02*
G75*
G02*
X16202472Y-11686900I55000J0D01*
G01*
X16092472Y-11971900D02*
X16202472Y-12081900D01*
X16202472Y-11971900D02*
X16092472Y-12081900D01*
X16202472Y-12026900D02*
G75*
G02*
X16092472Y-12026900I-55000J0D01*
G01*
X16092472Y-12026900D02*
G75*
G02*
X16202472Y-12026900I55000J0D01*
G01*
X16488481Y-11631900D02*
X16598481Y-11741900D01*
X16598481Y-11631900D02*
X16488481Y-11741900D01*
X16598481Y-11686900D02*
G75*
G02*
X16488481Y-11686900I-55000J0D01*
G01*
X16488481Y-11686900D02*
G75*
G02*
X16598481Y-11686900I55000J0D01*
G01*
X16488481Y-11971900D02*
X16598481Y-12081900D01*
X16598481Y-11971900D02*
X16488481Y-12081900D01*
X16598481Y-12026900D02*
G75*
G02*
X16488481Y-12026900I-55000J0D01*
G01*
X16488481Y-12026900D02*
G75*
G02*
X16598481Y-12026900I55000J0D01*
G01*
X16884490Y-11631900D02*
X16994490Y-11741900D01*
X16994490Y-11631900D02*
X16884490Y-11741900D01*
X16994490Y-11686900D02*
G75*
G02*
X16884490Y-11686900I-55000J0D01*
G01*
X16884490Y-11686900D02*
G75*
G02*
X16994490Y-11686900I55000J0D01*
G01*
X16884490Y-11971900D02*
X16994490Y-12081900D01*
X16994490Y-11971900D02*
X16884490Y-12081900D01*
X16994490Y-12026900D02*
G75*
G02*
X16884490Y-12026900I-55000J0D01*
G01*
X16884490Y-12026900D02*
G75*
G02*
X16994490Y-12026900I55000J0D01*
G01*
X17280500Y-11631900D02*
X17390500Y-11741900D01*
X17390500Y-11631900D02*
X17280500Y-11741900D01*
X17390500Y-11686900D02*
G75*
G02*
X17280500Y-11686900I-55000J0D01*
G01*
X17280500Y-11686900D02*
G75*
G02*
X17390500Y-11686900I55000J0D01*
G01*
X17280500Y-11971900D02*
X17390500Y-12081900D01*
X17390500Y-11971900D02*
X17280500Y-12081900D01*
X17390500Y-12026900D02*
G75*
G02*
X17280500Y-12026900I-55000J0D01*
G01*
X17280500Y-12026900D02*
G75*
G02*
X17390500Y-12026900I55000J0D01*
G01*
D14*
X18670040Y-10324640D02*
X18800040Y-10454640D01*
X18800040Y-10324640D02*
X18670040Y-10454640D01*
X18735040Y-10324640D02*
X18735040Y-10454640D01*
X18670040Y-10389640D02*
X18800040Y-10389640D01*
X18670040Y-11024640D02*
X18800040Y-11154640D01*
X18800040Y-11024640D02*
X18670040Y-11154640D01*
X18735040Y-11024640D02*
X18735040Y-11154640D01*
X18670040Y-11089640D02*
X18800040Y-11089640D01*
D11*
X11972844Y-13464747D02*
X11972844Y-13264747D01*
X11972844Y-13264747D02*
X12020463Y-13264747D01*
X12020463Y-13264747D02*
X12049034Y-13274271D01*
X12049034Y-13274271D02*
X12068082Y-13293318D01*
X12068082Y-13293318D02*
X12077606Y-13312366D01*
X12077606Y-13312366D02*
X12087129Y-13350461D01*
X12087129Y-13350461D02*
X12087129Y-13379032D01*
X12087129Y-13379032D02*
X12077606Y-13417128D01*
X12077606Y-13417128D02*
X12068082Y-13436175D01*
X12068082Y-13436175D02*
X12049034Y-13455223D01*
X12049034Y-13455223D02*
X12020463Y-13464747D01*
X12020463Y-13464747D02*
X11972844Y-13464747D01*
X12172844Y-13464747D02*
X12172844Y-13331413D01*
X12172844Y-13369509D02*
X12182368Y-13350461D01*
X12182368Y-13350461D02*
X12191891Y-13340937D01*
X12191891Y-13340937D02*
X12210939Y-13331413D01*
X12210939Y-13331413D02*
X12229987Y-13331413D01*
X12296653Y-13464747D02*
X12296653Y-13331413D01*
X12296653Y-13264747D02*
X12287129Y-13274271D01*
X12287129Y-13274271D02*
X12296653Y-13283794D01*
X12296653Y-13283794D02*
X12306177Y-13274271D01*
X12306177Y-13274271D02*
X12296653Y-13264747D01*
X12296653Y-13264747D02*
X12296653Y-13283794D01*
X12420463Y-13464747D02*
X12401415Y-13455223D01*
X12401415Y-13455223D02*
X12391891Y-13436175D01*
X12391891Y-13436175D02*
X12391891Y-13264747D01*
X12525225Y-13464747D02*
X12506177Y-13455223D01*
X12506177Y-13455223D02*
X12496653Y-13436175D01*
X12496653Y-13436175D02*
X12496653Y-13264747D01*
X12753796Y-13464747D02*
X12753796Y-13264747D01*
X12753796Y-13264747D02*
X12820463Y-13407604D01*
X12820463Y-13407604D02*
X12887129Y-13264747D01*
X12887129Y-13264747D02*
X12887129Y-13464747D01*
X13068082Y-13464747D02*
X13068082Y-13359985D01*
X13068082Y-13359985D02*
X13058558Y-13340937D01*
X13058558Y-13340937D02*
X13039510Y-13331413D01*
X13039510Y-13331413D02*
X13001415Y-13331413D01*
X13001415Y-13331413D02*
X12982368Y-13340937D01*
X13068082Y-13455223D02*
X13049034Y-13464747D01*
X13049034Y-13464747D02*
X13001415Y-13464747D01*
X13001415Y-13464747D02*
X12982368Y-13455223D01*
X12982368Y-13455223D02*
X12972844Y-13436175D01*
X12972844Y-13436175D02*
X12972844Y-13417128D01*
X12972844Y-13417128D02*
X12982368Y-13398080D01*
X12982368Y-13398080D02*
X13001415Y-13388556D01*
X13001415Y-13388556D02*
X13049034Y-13388556D01*
X13049034Y-13388556D02*
X13068082Y-13379032D01*
X13163320Y-13331413D02*
X13163320Y-13531413D01*
X13163320Y-13340937D02*
X13182368Y-13331413D01*
X13182368Y-13331413D02*
X13220463Y-13331413D01*
X13220463Y-13331413D02*
X13239510Y-13340937D01*
X13239510Y-13340937D02*
X13249034Y-13350461D01*
X13249034Y-13350461D02*
X13258558Y-13369509D01*
X13258558Y-13369509D02*
X13258558Y-13426651D01*
X13258558Y-13426651D02*
X13249034Y-13445699D01*
X13249034Y-13445699D02*
X13239510Y-13455223D01*
X13239510Y-13455223D02*
X13220463Y-13464747D01*
X13220463Y-13464747D02*
X13182368Y-13464747D01*
X13182368Y-13464747D02*
X13163320Y-13455223D01*
X13344272Y-13445699D02*
X13353796Y-13455223D01*
X13353796Y-13455223D02*
X13344272Y-13464747D01*
X13344272Y-13464747D02*
X13334749Y-13455223D01*
X13334749Y-13455223D02*
X13344272Y-13445699D01*
X13344272Y-13445699D02*
X13344272Y-13464747D01*
X13344272Y-13340937D02*
X13353796Y-13350461D01*
X13353796Y-13350461D02*
X13344272Y-13359985D01*
X13344272Y-13359985D02*
X13334749Y-13350461D01*
X13334749Y-13350461D02*
X13344272Y-13340937D01*
X13344272Y-13340937D02*
X13344272Y-13359985D01*
D12*
X11672067Y-13773263D02*
X11712067Y-13813263D01*
X11712067Y-13773263D02*
X11672067Y-13813263D01*
D11*
X12010939Y-13684747D02*
X12029987Y-13684747D01*
X12029987Y-13684747D02*
X12049034Y-13694271D01*
X12049034Y-13694271D02*
X12058558Y-13703794D01*
X12058558Y-13703794D02*
X12068082Y-13722842D01*
X12068082Y-13722842D02*
X12077606Y-13760937D01*
X12077606Y-13760937D02*
X12077606Y-13808556D01*
X12077606Y-13808556D02*
X12068082Y-13846651D01*
X12068082Y-13846651D02*
X12058558Y-13865699D01*
X12058558Y-13865699D02*
X12049034Y-13875223D01*
X12049034Y-13875223D02*
X12029987Y-13884747D01*
X12029987Y-13884747D02*
X12010939Y-13884747D01*
X12010939Y-13884747D02*
X11991891Y-13875223D01*
X11991891Y-13875223D02*
X11982368Y-13865699D01*
X11982368Y-13865699D02*
X11972844Y-13846651D01*
X11972844Y-13846651D02*
X11963320Y-13808556D01*
X11963320Y-13808556D02*
X11963320Y-13760937D01*
X11963320Y-13760937D02*
X11972844Y-13722842D01*
X11972844Y-13722842D02*
X11982368Y-13703794D01*
X11982368Y-13703794D02*
X11991891Y-13694271D01*
X11991891Y-13694271D02*
X12010939Y-13684747D01*
X12163320Y-13865699D02*
X12172844Y-13875223D01*
X12172844Y-13875223D02*
X12163320Y-13884747D01*
X12163320Y-13884747D02*
X12153796Y-13875223D01*
X12153796Y-13875223D02*
X12163320Y-13865699D01*
X12163320Y-13865699D02*
X12163320Y-13884747D01*
X12344272Y-13751413D02*
X12344272Y-13884747D01*
X12296653Y-13675223D02*
X12249034Y-13818080D01*
X12249034Y-13818080D02*
X12372844Y-13818080D01*
X12487129Y-13684747D02*
X12506177Y-13684747D01*
X12506177Y-13684747D02*
X12525225Y-13694271D01*
X12525225Y-13694271D02*
X12534749Y-13703794D01*
X12534749Y-13703794D02*
X12544272Y-13722842D01*
X12544272Y-13722842D02*
X12553796Y-13760937D01*
X12553796Y-13760937D02*
X12553796Y-13808556D01*
X12553796Y-13808556D02*
X12544272Y-13846651D01*
X12544272Y-13846651D02*
X12534749Y-13865699D01*
X12534749Y-13865699D02*
X12525225Y-13875223D01*
X12525225Y-13875223D02*
X12506177Y-13884747D01*
X12506177Y-13884747D02*
X12487129Y-13884747D01*
X12487129Y-13884747D02*
X12468082Y-13875223D01*
X12468082Y-13875223D02*
X12458558Y-13865699D01*
X12458558Y-13865699D02*
X12449034Y-13846651D01*
X12449034Y-13846651D02*
X12439510Y-13808556D01*
X12439510Y-13808556D02*
X12439510Y-13760937D01*
X12439510Y-13760937D02*
X12449034Y-13722842D01*
X12449034Y-13722842D02*
X12458558Y-13703794D01*
X12458558Y-13703794D02*
X12468082Y-13694271D01*
X12468082Y-13694271D02*
X12487129Y-13684747D01*
X12677606Y-13684747D02*
X12696653Y-13684747D01*
X12696653Y-13684747D02*
X12715701Y-13694271D01*
X12715701Y-13694271D02*
X12725225Y-13703794D01*
X12725225Y-13703794D02*
X12734749Y-13722842D01*
X12734749Y-13722842D02*
X12744272Y-13760937D01*
X12744272Y-13760937D02*
X12744272Y-13808556D01*
X12744272Y-13808556D02*
X12734749Y-13846651D01*
X12734749Y-13846651D02*
X12725225Y-13865699D01*
X12725225Y-13865699D02*
X12715701Y-13875223D01*
X12715701Y-13875223D02*
X12696653Y-13884747D01*
X12696653Y-13884747D02*
X12677606Y-13884747D01*
X12677606Y-13884747D02*
X12658558Y-13875223D01*
X12658558Y-13875223D02*
X12649034Y-13865699D01*
X12649034Y-13865699D02*
X12639510Y-13846651D01*
X12639510Y-13846651D02*
X12629987Y-13808556D01*
X12629987Y-13808556D02*
X12629987Y-13760937D01*
X12629987Y-13760937D02*
X12639510Y-13722842D01*
X12639510Y-13722842D02*
X12649034Y-13703794D01*
X12649034Y-13703794D02*
X12658558Y-13694271D01*
X12658558Y-13694271D02*
X12677606Y-13684747D01*
X12829987Y-13884747D02*
X12829987Y-13751413D01*
X12829987Y-13770461D02*
X12839510Y-13760937D01*
X12839510Y-13760937D02*
X12858558Y-13751413D01*
X12858558Y-13751413D02*
X12887130Y-13751413D01*
X12887130Y-13751413D02*
X12906177Y-13760937D01*
X12906177Y-13760937D02*
X12915701Y-13779985D01*
X12915701Y-13779985D02*
X12915701Y-13884747D01*
X12915701Y-13779985D02*
X12925225Y-13760937D01*
X12925225Y-13760937D02*
X12944272Y-13751413D01*
X12944272Y-13751413D02*
X12972844Y-13751413D01*
X12972844Y-13751413D02*
X12991891Y-13760937D01*
X12991891Y-13760937D02*
X13001415Y-13779985D01*
X13001415Y-13779985D02*
X13001415Y-13884747D01*
X13096653Y-13884747D02*
X13096653Y-13751413D01*
X13096653Y-13770461D02*
X13106177Y-13760937D01*
X13106177Y-13760937D02*
X13125225Y-13751413D01*
X13125225Y-13751413D02*
X13153796Y-13751413D01*
X13153796Y-13751413D02*
X13172844Y-13760937D01*
X13172844Y-13760937D02*
X13182368Y-13779985D01*
X13182368Y-13779985D02*
X13182368Y-13884747D01*
X13182368Y-13779985D02*
X13191891Y-13760937D01*
X13191891Y-13760937D02*
X13210939Y-13751413D01*
X13210939Y-13751413D02*
X13239510Y-13751413D01*
X13239510Y-13751413D02*
X13258558Y-13760937D01*
X13258558Y-13760937D02*
X13268082Y-13779985D01*
X13268082Y-13779985D02*
X13268082Y-13884747D01*
X13658558Y-13675223D02*
X13487130Y-13932366D01*
X13915701Y-13684747D02*
X13934749Y-13684747D01*
X13934749Y-13684747D02*
X13953796Y-13694271D01*
X13953796Y-13694271D02*
X13963320Y-13703794D01*
X13963320Y-13703794D02*
X13972844Y-13722842D01*
X13972844Y-13722842D02*
X13982368Y-13760937D01*
X13982368Y-13760937D02*
X13982368Y-13808556D01*
X13982368Y-13808556D02*
X13972844Y-13846651D01*
X13972844Y-13846651D02*
X13963320Y-13865699D01*
X13963320Y-13865699D02*
X13953796Y-13875223D01*
X13953796Y-13875223D02*
X13934749Y-13884747D01*
X13934749Y-13884747D02*
X13915701Y-13884747D01*
X13915701Y-13884747D02*
X13896653Y-13875223D01*
X13896653Y-13875223D02*
X13887130Y-13865699D01*
X13887130Y-13865699D02*
X13877606Y-13846651D01*
X13877606Y-13846651D02*
X13868082Y-13808556D01*
X13868082Y-13808556D02*
X13868082Y-13760937D01*
X13868082Y-13760937D02*
X13877606Y-13722842D01*
X13877606Y-13722842D02*
X13887130Y-13703794D01*
X13887130Y-13703794D02*
X13896653Y-13694271D01*
X13896653Y-13694271D02*
X13915701Y-13684747D01*
X14068082Y-13865699D02*
X14077606Y-13875223D01*
X14077606Y-13875223D02*
X14068082Y-13884747D01*
X14068082Y-13884747D02*
X14058558Y-13875223D01*
X14058558Y-13875223D02*
X14068082Y-13865699D01*
X14068082Y-13865699D02*
X14068082Y-13884747D01*
X14201415Y-13684747D02*
X14220463Y-13684747D01*
X14220463Y-13684747D02*
X14239511Y-13694271D01*
X14239511Y-13694271D02*
X14249034Y-13703794D01*
X14249034Y-13703794D02*
X14258558Y-13722842D01*
X14258558Y-13722842D02*
X14268082Y-13760937D01*
X14268082Y-13760937D02*
X14268082Y-13808556D01*
X14268082Y-13808556D02*
X14258558Y-13846651D01*
X14258558Y-13846651D02*
X14249034Y-13865699D01*
X14249034Y-13865699D02*
X14239511Y-13875223D01*
X14239511Y-13875223D02*
X14220463Y-13884747D01*
X14220463Y-13884747D02*
X14201415Y-13884747D01*
X14201415Y-13884747D02*
X14182368Y-13875223D01*
X14182368Y-13875223D02*
X14172844Y-13865699D01*
X14172844Y-13865699D02*
X14163320Y-13846651D01*
X14163320Y-13846651D02*
X14153796Y-13808556D01*
X14153796Y-13808556D02*
X14153796Y-13760937D01*
X14153796Y-13760937D02*
X14163320Y-13722842D01*
X14163320Y-13722842D02*
X14172844Y-13703794D01*
X14172844Y-13703794D02*
X14182368Y-13694271D01*
X14182368Y-13694271D02*
X14201415Y-13684747D01*
X14458558Y-13884747D02*
X14344273Y-13884747D01*
X14401415Y-13884747D02*
X14401415Y-13684747D01*
X14401415Y-13684747D02*
X14382368Y-13713318D01*
X14382368Y-13713318D02*
X14363320Y-13732366D01*
X14363320Y-13732366D02*
X14344273Y-13741890D01*
X14639511Y-13684747D02*
X14544273Y-13684747D01*
X14544273Y-13684747D02*
X14534749Y-13779985D01*
X14534749Y-13779985D02*
X14544273Y-13770461D01*
X14544273Y-13770461D02*
X14563320Y-13760937D01*
X14563320Y-13760937D02*
X14610939Y-13760937D01*
X14610939Y-13760937D02*
X14629987Y-13770461D01*
X14629987Y-13770461D02*
X14639511Y-13779985D01*
X14639511Y-13779985D02*
X14649034Y-13799032D01*
X14649034Y-13799032D02*
X14649034Y-13846651D01*
X14649034Y-13846651D02*
X14639511Y-13865699D01*
X14639511Y-13865699D02*
X14629987Y-13875223D01*
X14629987Y-13875223D02*
X14610939Y-13884747D01*
X14610939Y-13884747D02*
X14563320Y-13884747D01*
X14563320Y-13884747D02*
X14544273Y-13875223D01*
X14544273Y-13875223D02*
X14534749Y-13865699D01*
X14715701Y-13684747D02*
X14849034Y-13684747D01*
X14849034Y-13684747D02*
X14763320Y-13884747D01*
X14915701Y-13684747D02*
X14915701Y-13722842D01*
X14991892Y-13684747D02*
X14991892Y-13722842D01*
X15287130Y-13960937D02*
X15277606Y-13951413D01*
X15277606Y-13951413D02*
X15258558Y-13922842D01*
X15258558Y-13922842D02*
X15249035Y-13903794D01*
X15249035Y-13903794D02*
X15239511Y-13875223D01*
X15239511Y-13875223D02*
X15229987Y-13827604D01*
X15229987Y-13827604D02*
X15229987Y-13789509D01*
X15229987Y-13789509D02*
X15239511Y-13741890D01*
X15239511Y-13741890D02*
X15249035Y-13713318D01*
X15249035Y-13713318D02*
X15258558Y-13694271D01*
X15258558Y-13694271D02*
X15277606Y-13665699D01*
X15277606Y-13665699D02*
X15287130Y-13656175D01*
X15458558Y-13684747D02*
X15363320Y-13684747D01*
X15363320Y-13684747D02*
X15353796Y-13779985D01*
X15353796Y-13779985D02*
X15363320Y-13770461D01*
X15363320Y-13770461D02*
X15382368Y-13760937D01*
X15382368Y-13760937D02*
X15429987Y-13760937D01*
X15429987Y-13760937D02*
X15449035Y-13770461D01*
X15449035Y-13770461D02*
X15458558Y-13779985D01*
X15458558Y-13779985D02*
X15468082Y-13799032D01*
X15468082Y-13799032D02*
X15468082Y-13846651D01*
X15468082Y-13846651D02*
X15458558Y-13865699D01*
X15458558Y-13865699D02*
X15449035Y-13875223D01*
X15449035Y-13875223D02*
X15429987Y-13884747D01*
X15429987Y-13884747D02*
X15382368Y-13884747D01*
X15382368Y-13884747D02*
X15363320Y-13875223D01*
X15363320Y-13875223D02*
X15353796Y-13865699D01*
X15544273Y-13703794D02*
X15553796Y-13694271D01*
X15553796Y-13694271D02*
X15572844Y-13684747D01*
X15572844Y-13684747D02*
X15620463Y-13684747D01*
X15620463Y-13684747D02*
X15639511Y-13694271D01*
X15639511Y-13694271D02*
X15649035Y-13703794D01*
X15649035Y-13703794D02*
X15658558Y-13722842D01*
X15658558Y-13722842D02*
X15658558Y-13741890D01*
X15658558Y-13741890D02*
X15649035Y-13770461D01*
X15649035Y-13770461D02*
X15534749Y-13884747D01*
X15534749Y-13884747D02*
X15658558Y-13884747D01*
X15896654Y-13884747D02*
X15896654Y-13684747D01*
X15982368Y-13884747D02*
X15982368Y-13779985D01*
X15982368Y-13779985D02*
X15972844Y-13760937D01*
X15972844Y-13760937D02*
X15953797Y-13751413D01*
X15953797Y-13751413D02*
X15925225Y-13751413D01*
X15925225Y-13751413D02*
X15906177Y-13760937D01*
X15906177Y-13760937D02*
X15896654Y-13770461D01*
X16106177Y-13884747D02*
X16087130Y-13875223D01*
X16087130Y-13875223D02*
X16077606Y-13865699D01*
X16077606Y-13865699D02*
X16068082Y-13846651D01*
X16068082Y-13846651D02*
X16068082Y-13789509D01*
X16068082Y-13789509D02*
X16077606Y-13770461D01*
X16077606Y-13770461D02*
X16087130Y-13760937D01*
X16087130Y-13760937D02*
X16106177Y-13751413D01*
X16106177Y-13751413D02*
X16134749Y-13751413D01*
X16134749Y-13751413D02*
X16153797Y-13760937D01*
X16153797Y-13760937D02*
X16163320Y-13770461D01*
X16163320Y-13770461D02*
X16172844Y-13789509D01*
X16172844Y-13789509D02*
X16172844Y-13846651D01*
X16172844Y-13846651D02*
X16163320Y-13865699D01*
X16163320Y-13865699D02*
X16153797Y-13875223D01*
X16153797Y-13875223D02*
X16134749Y-13884747D01*
X16134749Y-13884747D02*
X16106177Y-13884747D01*
X16287130Y-13884747D02*
X16268082Y-13875223D01*
X16268082Y-13875223D02*
X16258558Y-13856175D01*
X16258558Y-13856175D02*
X16258558Y-13684747D01*
X16439511Y-13875223D02*
X16420463Y-13884747D01*
X16420463Y-13884747D02*
X16382368Y-13884747D01*
X16382368Y-13884747D02*
X16363320Y-13875223D01*
X16363320Y-13875223D02*
X16353797Y-13856175D01*
X16353797Y-13856175D02*
X16353797Y-13779985D01*
X16353797Y-13779985D02*
X16363320Y-13760937D01*
X16363320Y-13760937D02*
X16382368Y-13751413D01*
X16382368Y-13751413D02*
X16420463Y-13751413D01*
X16420463Y-13751413D02*
X16439511Y-13760937D01*
X16439511Y-13760937D02*
X16449035Y-13779985D01*
X16449035Y-13779985D02*
X16449035Y-13799032D01*
X16449035Y-13799032D02*
X16353797Y-13818080D01*
X16525225Y-13875223D02*
X16544273Y-13884747D01*
X16544273Y-13884747D02*
X16582368Y-13884747D01*
X16582368Y-13884747D02*
X16601416Y-13875223D01*
X16601416Y-13875223D02*
X16610939Y-13856175D01*
X16610939Y-13856175D02*
X16610939Y-13846651D01*
X16610939Y-13846651D02*
X16601416Y-13827604D01*
X16601416Y-13827604D02*
X16582368Y-13818080D01*
X16582368Y-13818080D02*
X16553797Y-13818080D01*
X16553797Y-13818080D02*
X16534749Y-13808556D01*
X16534749Y-13808556D02*
X16525225Y-13789509D01*
X16525225Y-13789509D02*
X16525225Y-13779985D01*
X16525225Y-13779985D02*
X16534749Y-13760937D01*
X16534749Y-13760937D02*
X16553797Y-13751413D01*
X16553797Y-13751413D02*
X16582368Y-13751413D01*
X16582368Y-13751413D02*
X16601416Y-13760937D01*
X16677606Y-13960937D02*
X16687130Y-13951413D01*
X16687130Y-13951413D02*
X16706178Y-13922842D01*
X16706178Y-13922842D02*
X16715701Y-13903794D01*
X16715701Y-13903794D02*
X16725225Y-13875223D01*
X16725225Y-13875223D02*
X16734749Y-13827604D01*
X16734749Y-13827604D02*
X16734749Y-13789509D01*
X16734749Y-13789509D02*
X16725225Y-13741890D01*
X16725225Y-13741890D02*
X16715701Y-13713318D01*
X16715701Y-13713318D02*
X16706178Y-13694271D01*
X16706178Y-13694271D02*
X16687130Y-13665699D01*
X16687130Y-13665699D02*
X16677606Y-13656175D01*
D12*
X11712067Y-14057263D02*
G75*
G02*
X11632067Y-14057263I-40000J0D01*
G01*
X11632067Y-14057263D02*
G75*
G02*
X11712067Y-14057263I40000J0D01*
G01*
D11*
X12010939Y-13948747D02*
X12029987Y-13948747D01*
X12029987Y-13948747D02*
X12049034Y-13958271D01*
X12049034Y-13958271D02*
X12058558Y-13967794D01*
X12058558Y-13967794D02*
X12068082Y-13986842D01*
X12068082Y-13986842D02*
X12077606Y-14024937D01*
X12077606Y-14024937D02*
X12077606Y-14072556D01*
X12077606Y-14072556D02*
X12068082Y-14110651D01*
X12068082Y-14110651D02*
X12058558Y-14129699D01*
X12058558Y-14129699D02*
X12049034Y-14139223D01*
X12049034Y-14139223D02*
X12029987Y-14148747D01*
X12029987Y-14148747D02*
X12010939Y-14148747D01*
X12010939Y-14148747D02*
X11991891Y-14139223D01*
X11991891Y-14139223D02*
X11982368Y-14129699D01*
X11982368Y-14129699D02*
X11972844Y-14110651D01*
X11972844Y-14110651D02*
X11963320Y-14072556D01*
X11963320Y-14072556D02*
X11963320Y-14024937D01*
X11963320Y-14024937D02*
X11972844Y-13986842D01*
X11972844Y-13986842D02*
X11982368Y-13967794D01*
X11982368Y-13967794D02*
X11991891Y-13958271D01*
X11991891Y-13958271D02*
X12010939Y-13948747D01*
X12163320Y-14129699D02*
X12172844Y-14139223D01*
X12172844Y-14139223D02*
X12163320Y-14148747D01*
X12163320Y-14148747D02*
X12153796Y-14139223D01*
X12153796Y-14139223D02*
X12163320Y-14129699D01*
X12163320Y-14129699D02*
X12163320Y-14148747D01*
X12287129Y-14034461D02*
X12268082Y-14024937D01*
X12268082Y-14024937D02*
X12258558Y-14015413D01*
X12258558Y-14015413D02*
X12249034Y-13996366D01*
X12249034Y-13996366D02*
X12249034Y-13986842D01*
X12249034Y-13986842D02*
X12258558Y-13967794D01*
X12258558Y-13967794D02*
X12268082Y-13958271D01*
X12268082Y-13958271D02*
X12287129Y-13948747D01*
X12287129Y-13948747D02*
X12325225Y-13948747D01*
X12325225Y-13948747D02*
X12344272Y-13958271D01*
X12344272Y-13958271D02*
X12353796Y-13967794D01*
X12353796Y-13967794D02*
X12363320Y-13986842D01*
X12363320Y-13986842D02*
X12363320Y-13996366D01*
X12363320Y-13996366D02*
X12353796Y-14015413D01*
X12353796Y-14015413D02*
X12344272Y-14024937D01*
X12344272Y-14024937D02*
X12325225Y-14034461D01*
X12325225Y-14034461D02*
X12287129Y-14034461D01*
X12287129Y-14034461D02*
X12268082Y-14043985D01*
X12268082Y-14043985D02*
X12258558Y-14053509D01*
X12258558Y-14053509D02*
X12249034Y-14072556D01*
X12249034Y-14072556D02*
X12249034Y-14110651D01*
X12249034Y-14110651D02*
X12258558Y-14129699D01*
X12258558Y-14129699D02*
X12268082Y-14139223D01*
X12268082Y-14139223D02*
X12287129Y-14148747D01*
X12287129Y-14148747D02*
X12325225Y-14148747D01*
X12325225Y-14148747D02*
X12344272Y-14139223D01*
X12344272Y-14139223D02*
X12353796Y-14129699D01*
X12353796Y-14129699D02*
X12363320Y-14110651D01*
X12363320Y-14110651D02*
X12363320Y-14072556D01*
X12363320Y-14072556D02*
X12353796Y-14053509D01*
X12353796Y-14053509D02*
X12344272Y-14043985D01*
X12344272Y-14043985D02*
X12325225Y-14034461D01*
X12487129Y-13948747D02*
X12506177Y-13948747D01*
X12506177Y-13948747D02*
X12525225Y-13958271D01*
X12525225Y-13958271D02*
X12534749Y-13967794D01*
X12534749Y-13967794D02*
X12544272Y-13986842D01*
X12544272Y-13986842D02*
X12553796Y-14024937D01*
X12553796Y-14024937D02*
X12553796Y-14072556D01*
X12553796Y-14072556D02*
X12544272Y-14110651D01*
X12544272Y-14110651D02*
X12534749Y-14129699D01*
X12534749Y-14129699D02*
X12525225Y-14139223D01*
X12525225Y-14139223D02*
X12506177Y-14148747D01*
X12506177Y-14148747D02*
X12487129Y-14148747D01*
X12487129Y-14148747D02*
X12468082Y-14139223D01*
X12468082Y-14139223D02*
X12458558Y-14129699D01*
X12458558Y-14129699D02*
X12449034Y-14110651D01*
X12449034Y-14110651D02*
X12439510Y-14072556D01*
X12439510Y-14072556D02*
X12439510Y-14024937D01*
X12439510Y-14024937D02*
X12449034Y-13986842D01*
X12449034Y-13986842D02*
X12458558Y-13967794D01*
X12458558Y-13967794D02*
X12468082Y-13958271D01*
X12468082Y-13958271D02*
X12487129Y-13948747D01*
X12677606Y-13948747D02*
X12696653Y-13948747D01*
X12696653Y-13948747D02*
X12715701Y-13958271D01*
X12715701Y-13958271D02*
X12725225Y-13967794D01*
X12725225Y-13967794D02*
X12734749Y-13986842D01*
X12734749Y-13986842D02*
X12744272Y-14024937D01*
X12744272Y-14024937D02*
X12744272Y-14072556D01*
X12744272Y-14072556D02*
X12734749Y-14110651D01*
X12734749Y-14110651D02*
X12725225Y-14129699D01*
X12725225Y-14129699D02*
X12715701Y-14139223D01*
X12715701Y-14139223D02*
X12696653Y-14148747D01*
X12696653Y-14148747D02*
X12677606Y-14148747D01*
X12677606Y-14148747D02*
X12658558Y-14139223D01*
X12658558Y-14139223D02*
X12649034Y-14129699D01*
X12649034Y-14129699D02*
X12639510Y-14110651D01*
X12639510Y-14110651D02*
X12629987Y-14072556D01*
X12629987Y-14072556D02*
X12629987Y-14024937D01*
X12629987Y-14024937D02*
X12639510Y-13986842D01*
X12639510Y-13986842D02*
X12649034Y-13967794D01*
X12649034Y-13967794D02*
X12658558Y-13958271D01*
X12658558Y-13958271D02*
X12677606Y-13948747D01*
X12829987Y-14148747D02*
X12829987Y-14015413D01*
X12829987Y-14034461D02*
X12839510Y-14024937D01*
X12839510Y-14024937D02*
X12858558Y-14015413D01*
X12858558Y-14015413D02*
X12887130Y-14015413D01*
X12887130Y-14015413D02*
X12906177Y-14024937D01*
X12906177Y-14024937D02*
X12915701Y-14043985D01*
X12915701Y-14043985D02*
X12915701Y-14148747D01*
X12915701Y-14043985D02*
X12925225Y-14024937D01*
X12925225Y-14024937D02*
X12944272Y-14015413D01*
X12944272Y-14015413D02*
X12972844Y-14015413D01*
X12972844Y-14015413D02*
X12991891Y-14024937D01*
X12991891Y-14024937D02*
X13001415Y-14043985D01*
X13001415Y-14043985D02*
X13001415Y-14148747D01*
X13096653Y-14148747D02*
X13096653Y-14015413D01*
X13096653Y-14034461D02*
X13106177Y-14024937D01*
X13106177Y-14024937D02*
X13125225Y-14015413D01*
X13125225Y-14015413D02*
X13153796Y-14015413D01*
X13153796Y-14015413D02*
X13172844Y-14024937D01*
X13172844Y-14024937D02*
X13182368Y-14043985D01*
X13182368Y-14043985D02*
X13182368Y-14148747D01*
X13182368Y-14043985D02*
X13191891Y-14024937D01*
X13191891Y-14024937D02*
X13210939Y-14015413D01*
X13210939Y-14015413D02*
X13239510Y-14015413D01*
X13239510Y-14015413D02*
X13258558Y-14024937D01*
X13258558Y-14024937D02*
X13268082Y-14043985D01*
X13268082Y-14043985D02*
X13268082Y-14148747D01*
X13658558Y-13939223D02*
X13487130Y-14196366D01*
X13915701Y-13948747D02*
X13934749Y-13948747D01*
X13934749Y-13948747D02*
X13953796Y-13958271D01*
X13953796Y-13958271D02*
X13963320Y-13967794D01*
X13963320Y-13967794D02*
X13972844Y-13986842D01*
X13972844Y-13986842D02*
X13982368Y-14024937D01*
X13982368Y-14024937D02*
X13982368Y-14072556D01*
X13982368Y-14072556D02*
X13972844Y-14110651D01*
X13972844Y-14110651D02*
X13963320Y-14129699D01*
X13963320Y-14129699D02*
X13953796Y-14139223D01*
X13953796Y-14139223D02*
X13934749Y-14148747D01*
X13934749Y-14148747D02*
X13915701Y-14148747D01*
X13915701Y-14148747D02*
X13896653Y-14139223D01*
X13896653Y-14139223D02*
X13887130Y-14129699D01*
X13887130Y-14129699D02*
X13877606Y-14110651D01*
X13877606Y-14110651D02*
X13868082Y-14072556D01*
X13868082Y-14072556D02*
X13868082Y-14024937D01*
X13868082Y-14024937D02*
X13877606Y-13986842D01*
X13877606Y-13986842D02*
X13887130Y-13967794D01*
X13887130Y-13967794D02*
X13896653Y-13958271D01*
X13896653Y-13958271D02*
X13915701Y-13948747D01*
X14068082Y-14129699D02*
X14077606Y-14139223D01*
X14077606Y-14139223D02*
X14068082Y-14148747D01*
X14068082Y-14148747D02*
X14058558Y-14139223D01*
X14058558Y-14139223D02*
X14068082Y-14129699D01*
X14068082Y-14129699D02*
X14068082Y-14148747D01*
X14201415Y-13948747D02*
X14220463Y-13948747D01*
X14220463Y-13948747D02*
X14239511Y-13958271D01*
X14239511Y-13958271D02*
X14249034Y-13967794D01*
X14249034Y-13967794D02*
X14258558Y-13986842D01*
X14258558Y-13986842D02*
X14268082Y-14024937D01*
X14268082Y-14024937D02*
X14268082Y-14072556D01*
X14268082Y-14072556D02*
X14258558Y-14110651D01*
X14258558Y-14110651D02*
X14249034Y-14129699D01*
X14249034Y-14129699D02*
X14239511Y-14139223D01*
X14239511Y-14139223D02*
X14220463Y-14148747D01*
X14220463Y-14148747D02*
X14201415Y-14148747D01*
X14201415Y-14148747D02*
X14182368Y-14139223D01*
X14182368Y-14139223D02*
X14172844Y-14129699D01*
X14172844Y-14129699D02*
X14163320Y-14110651D01*
X14163320Y-14110651D02*
X14153796Y-14072556D01*
X14153796Y-14072556D02*
X14153796Y-14024937D01*
X14153796Y-14024937D02*
X14163320Y-13986842D01*
X14163320Y-13986842D02*
X14172844Y-13967794D01*
X14172844Y-13967794D02*
X14182368Y-13958271D01*
X14182368Y-13958271D02*
X14201415Y-13948747D01*
X14334749Y-13948747D02*
X14458558Y-13948747D01*
X14458558Y-13948747D02*
X14391892Y-14024937D01*
X14391892Y-14024937D02*
X14420463Y-14024937D01*
X14420463Y-14024937D02*
X14439511Y-14034461D01*
X14439511Y-14034461D02*
X14449034Y-14043985D01*
X14449034Y-14043985D02*
X14458558Y-14063032D01*
X14458558Y-14063032D02*
X14458558Y-14110651D01*
X14458558Y-14110651D02*
X14449034Y-14129699D01*
X14449034Y-14129699D02*
X14439511Y-14139223D01*
X14439511Y-14139223D02*
X14420463Y-14148747D01*
X14420463Y-14148747D02*
X14363320Y-14148747D01*
X14363320Y-14148747D02*
X14344273Y-14139223D01*
X14344273Y-14139223D02*
X14334749Y-14129699D01*
X14649034Y-14148747D02*
X14534749Y-14148747D01*
X14591892Y-14148747D02*
X14591892Y-13948747D01*
X14591892Y-13948747D02*
X14572844Y-13977318D01*
X14572844Y-13977318D02*
X14553796Y-13996366D01*
X14553796Y-13996366D02*
X14534749Y-14005890D01*
X14829987Y-13948747D02*
X14734749Y-13948747D01*
X14734749Y-13948747D02*
X14725225Y-14043985D01*
X14725225Y-14043985D02*
X14734749Y-14034461D01*
X14734749Y-14034461D02*
X14753796Y-14024937D01*
X14753796Y-14024937D02*
X14801415Y-14024937D01*
X14801415Y-14024937D02*
X14820463Y-14034461D01*
X14820463Y-14034461D02*
X14829987Y-14043985D01*
X14829987Y-14043985D02*
X14839511Y-14063032D01*
X14839511Y-14063032D02*
X14839511Y-14110651D01*
X14839511Y-14110651D02*
X14829987Y-14129699D01*
X14829987Y-14129699D02*
X14820463Y-14139223D01*
X14820463Y-14139223D02*
X14801415Y-14148747D01*
X14801415Y-14148747D02*
X14753796Y-14148747D01*
X14753796Y-14148747D02*
X14734749Y-14139223D01*
X14734749Y-14139223D02*
X14725225Y-14129699D01*
X14915701Y-13948747D02*
X14915701Y-13986842D01*
X14991892Y-13948747D02*
X14991892Y-13986842D01*
X15287130Y-14224937D02*
X15277606Y-14215413D01*
X15277606Y-14215413D02*
X15258558Y-14186842D01*
X15258558Y-14186842D02*
X15249035Y-14167794D01*
X15249035Y-14167794D02*
X15239511Y-14139223D01*
X15239511Y-14139223D02*
X15229987Y-14091604D01*
X15229987Y-14091604D02*
X15229987Y-14053509D01*
X15229987Y-14053509D02*
X15239511Y-14005890D01*
X15239511Y-14005890D02*
X15249035Y-13977318D01*
X15249035Y-13977318D02*
X15258558Y-13958271D01*
X15258558Y-13958271D02*
X15277606Y-13929699D01*
X15277606Y-13929699D02*
X15287130Y-13920175D01*
X15449035Y-13948747D02*
X15410939Y-13948747D01*
X15410939Y-13948747D02*
X15391892Y-13958271D01*
X15391892Y-13958271D02*
X15382368Y-13967794D01*
X15382368Y-13967794D02*
X15363320Y-13996366D01*
X15363320Y-13996366D02*
X15353796Y-14034461D01*
X15353796Y-14034461D02*
X15353796Y-14110651D01*
X15353796Y-14110651D02*
X15363320Y-14129699D01*
X15363320Y-14129699D02*
X15372844Y-14139223D01*
X15372844Y-14139223D02*
X15391892Y-14148747D01*
X15391892Y-14148747D02*
X15429987Y-14148747D01*
X15429987Y-14148747D02*
X15449035Y-14139223D01*
X15449035Y-14139223D02*
X15458558Y-14129699D01*
X15458558Y-14129699D02*
X15468082Y-14110651D01*
X15468082Y-14110651D02*
X15468082Y-14063032D01*
X15468082Y-14063032D02*
X15458558Y-14043985D01*
X15458558Y-14043985D02*
X15449035Y-14034461D01*
X15449035Y-14034461D02*
X15429987Y-14024937D01*
X15429987Y-14024937D02*
X15391892Y-14024937D01*
X15391892Y-14024937D02*
X15372844Y-14034461D01*
X15372844Y-14034461D02*
X15363320Y-14043985D01*
X15363320Y-14043985D02*
X15353796Y-14063032D01*
X15706177Y-14148747D02*
X15706177Y-13948747D01*
X15791892Y-14148747D02*
X15791892Y-14043985D01*
X15791892Y-14043985D02*
X15782368Y-14024937D01*
X15782368Y-14024937D02*
X15763320Y-14015413D01*
X15763320Y-14015413D02*
X15734749Y-14015413D01*
X15734749Y-14015413D02*
X15715701Y-14024937D01*
X15715701Y-14024937D02*
X15706177Y-14034461D01*
X15915701Y-14148747D02*
X15896654Y-14139223D01*
X15896654Y-14139223D02*
X15887130Y-14129699D01*
X15887130Y-14129699D02*
X15877606Y-14110651D01*
X15877606Y-14110651D02*
X15877606Y-14053509D01*
X15877606Y-14053509D02*
X15887130Y-14034461D01*
X15887130Y-14034461D02*
X15896654Y-14024937D01*
X15896654Y-14024937D02*
X15915701Y-14015413D01*
X15915701Y-14015413D02*
X15944273Y-14015413D01*
X15944273Y-14015413D02*
X15963320Y-14024937D01*
X15963320Y-14024937D02*
X15972844Y-14034461D01*
X15972844Y-14034461D02*
X15982368Y-14053509D01*
X15982368Y-14053509D02*
X15982368Y-14110651D01*
X15982368Y-14110651D02*
X15972844Y-14129699D01*
X15972844Y-14129699D02*
X15963320Y-14139223D01*
X15963320Y-14139223D02*
X15944273Y-14148747D01*
X15944273Y-14148747D02*
X15915701Y-14148747D01*
X16096654Y-14148747D02*
X16077606Y-14139223D01*
X16077606Y-14139223D02*
X16068082Y-14120175D01*
X16068082Y-14120175D02*
X16068082Y-13948747D01*
X16249035Y-14139223D02*
X16229987Y-14148747D01*
X16229987Y-14148747D02*
X16191892Y-14148747D01*
X16191892Y-14148747D02*
X16172844Y-14139223D01*
X16172844Y-14139223D02*
X16163320Y-14120175D01*
X16163320Y-14120175D02*
X16163320Y-14043985D01*
X16163320Y-14043985D02*
X16172844Y-14024937D01*
X16172844Y-14024937D02*
X16191892Y-14015413D01*
X16191892Y-14015413D02*
X16229987Y-14015413D01*
X16229987Y-14015413D02*
X16249035Y-14024937D01*
X16249035Y-14024937D02*
X16258558Y-14043985D01*
X16258558Y-14043985D02*
X16258558Y-14063032D01*
X16258558Y-14063032D02*
X16163320Y-14082080D01*
X16334749Y-14139223D02*
X16353797Y-14148747D01*
X16353797Y-14148747D02*
X16391892Y-14148747D01*
X16391892Y-14148747D02*
X16410939Y-14139223D01*
X16410939Y-14139223D02*
X16420463Y-14120175D01*
X16420463Y-14120175D02*
X16420463Y-14110651D01*
X16420463Y-14110651D02*
X16410939Y-14091604D01*
X16410939Y-14091604D02*
X16391892Y-14082080D01*
X16391892Y-14082080D02*
X16363320Y-14082080D01*
X16363320Y-14082080D02*
X16344273Y-14072556D01*
X16344273Y-14072556D02*
X16334749Y-14053509D01*
X16334749Y-14053509D02*
X16334749Y-14043985D01*
X16334749Y-14043985D02*
X16344273Y-14024937D01*
X16344273Y-14024937D02*
X16363320Y-14015413D01*
X16363320Y-14015413D02*
X16391892Y-14015413D01*
X16391892Y-14015413D02*
X16410939Y-14024937D01*
X16487130Y-14224937D02*
X16496654Y-14215413D01*
X16496654Y-14215413D02*
X16515701Y-14186842D01*
X16515701Y-14186842D02*
X16525225Y-14167794D01*
X16525225Y-14167794D02*
X16534749Y-14139223D01*
X16534749Y-14139223D02*
X16544273Y-14091604D01*
X16544273Y-14091604D02*
X16544273Y-14053509D01*
X16544273Y-14053509D02*
X16534749Y-14005890D01*
X16534749Y-14005890D02*
X16525225Y-13977318D01*
X16525225Y-13977318D02*
X16515701Y-13958271D01*
X16515701Y-13958271D02*
X16496654Y-13929699D01*
X16496654Y-13929699D02*
X16487130Y-13920175D01*
D12*
X11672067Y-14281263D02*
X11672067Y-14361263D01*
X11632067Y-14321263D02*
X11712067Y-14321263D01*
D11*
X12010939Y-14212747D02*
X12029987Y-14212747D01*
X12029987Y-14212747D02*
X12049034Y-14222271D01*
X12049034Y-14222271D02*
X12058558Y-14231794D01*
X12058558Y-14231794D02*
X12068082Y-14250842D01*
X12068082Y-14250842D02*
X12077606Y-14288937D01*
X12077606Y-14288937D02*
X12077606Y-14336556D01*
X12077606Y-14336556D02*
X12068082Y-14374651D01*
X12068082Y-14374651D02*
X12058558Y-14393699D01*
X12058558Y-14393699D02*
X12049034Y-14403223D01*
X12049034Y-14403223D02*
X12029987Y-14412747D01*
X12029987Y-14412747D02*
X12010939Y-14412747D01*
X12010939Y-14412747D02*
X11991891Y-14403223D01*
X11991891Y-14403223D02*
X11982368Y-14393699D01*
X11982368Y-14393699D02*
X11972844Y-14374651D01*
X11972844Y-14374651D02*
X11963320Y-14336556D01*
X11963320Y-14336556D02*
X11963320Y-14288937D01*
X11963320Y-14288937D02*
X11972844Y-14250842D01*
X11972844Y-14250842D02*
X11982368Y-14231794D01*
X11982368Y-14231794D02*
X11991891Y-14222271D01*
X11991891Y-14222271D02*
X12010939Y-14212747D01*
X12163320Y-14393699D02*
X12172844Y-14403223D01*
X12172844Y-14403223D02*
X12163320Y-14412747D01*
X12163320Y-14412747D02*
X12153796Y-14403223D01*
X12153796Y-14403223D02*
X12163320Y-14393699D01*
X12163320Y-14393699D02*
X12163320Y-14412747D01*
X12287129Y-14298461D02*
X12268082Y-14288937D01*
X12268082Y-14288937D02*
X12258558Y-14279413D01*
X12258558Y-14279413D02*
X12249034Y-14260366D01*
X12249034Y-14260366D02*
X12249034Y-14250842D01*
X12249034Y-14250842D02*
X12258558Y-14231794D01*
X12258558Y-14231794D02*
X12268082Y-14222271D01*
X12268082Y-14222271D02*
X12287129Y-14212747D01*
X12287129Y-14212747D02*
X12325225Y-14212747D01*
X12325225Y-14212747D02*
X12344272Y-14222271D01*
X12344272Y-14222271D02*
X12353796Y-14231794D01*
X12353796Y-14231794D02*
X12363320Y-14250842D01*
X12363320Y-14250842D02*
X12363320Y-14260366D01*
X12363320Y-14260366D02*
X12353796Y-14279413D01*
X12353796Y-14279413D02*
X12344272Y-14288937D01*
X12344272Y-14288937D02*
X12325225Y-14298461D01*
X12325225Y-14298461D02*
X12287129Y-14298461D01*
X12287129Y-14298461D02*
X12268082Y-14307985D01*
X12268082Y-14307985D02*
X12258558Y-14317509D01*
X12258558Y-14317509D02*
X12249034Y-14336556D01*
X12249034Y-14336556D02*
X12249034Y-14374651D01*
X12249034Y-14374651D02*
X12258558Y-14393699D01*
X12258558Y-14393699D02*
X12268082Y-14403223D01*
X12268082Y-14403223D02*
X12287129Y-14412747D01*
X12287129Y-14412747D02*
X12325225Y-14412747D01*
X12325225Y-14412747D02*
X12344272Y-14403223D01*
X12344272Y-14403223D02*
X12353796Y-14393699D01*
X12353796Y-14393699D02*
X12363320Y-14374651D01*
X12363320Y-14374651D02*
X12363320Y-14336556D01*
X12363320Y-14336556D02*
X12353796Y-14317509D01*
X12353796Y-14317509D02*
X12344272Y-14307985D01*
X12344272Y-14307985D02*
X12325225Y-14298461D01*
X12487129Y-14212747D02*
X12506177Y-14212747D01*
X12506177Y-14212747D02*
X12525225Y-14222271D01*
X12525225Y-14222271D02*
X12534749Y-14231794D01*
X12534749Y-14231794D02*
X12544272Y-14250842D01*
X12544272Y-14250842D02*
X12553796Y-14288937D01*
X12553796Y-14288937D02*
X12553796Y-14336556D01*
X12553796Y-14336556D02*
X12544272Y-14374651D01*
X12544272Y-14374651D02*
X12534749Y-14393699D01*
X12534749Y-14393699D02*
X12525225Y-14403223D01*
X12525225Y-14403223D02*
X12506177Y-14412747D01*
X12506177Y-14412747D02*
X12487129Y-14412747D01*
X12487129Y-14412747D02*
X12468082Y-14403223D01*
X12468082Y-14403223D02*
X12458558Y-14393699D01*
X12458558Y-14393699D02*
X12449034Y-14374651D01*
X12449034Y-14374651D02*
X12439510Y-14336556D01*
X12439510Y-14336556D02*
X12439510Y-14288937D01*
X12439510Y-14288937D02*
X12449034Y-14250842D01*
X12449034Y-14250842D02*
X12458558Y-14231794D01*
X12458558Y-14231794D02*
X12468082Y-14222271D01*
X12468082Y-14222271D02*
X12487129Y-14212747D01*
X12677606Y-14212747D02*
X12696653Y-14212747D01*
X12696653Y-14212747D02*
X12715701Y-14222271D01*
X12715701Y-14222271D02*
X12725225Y-14231794D01*
X12725225Y-14231794D02*
X12734749Y-14250842D01*
X12734749Y-14250842D02*
X12744272Y-14288937D01*
X12744272Y-14288937D02*
X12744272Y-14336556D01*
X12744272Y-14336556D02*
X12734749Y-14374651D01*
X12734749Y-14374651D02*
X12725225Y-14393699D01*
X12725225Y-14393699D02*
X12715701Y-14403223D01*
X12715701Y-14403223D02*
X12696653Y-14412747D01*
X12696653Y-14412747D02*
X12677606Y-14412747D01*
X12677606Y-14412747D02*
X12658558Y-14403223D01*
X12658558Y-14403223D02*
X12649034Y-14393699D01*
X12649034Y-14393699D02*
X12639510Y-14374651D01*
X12639510Y-14374651D02*
X12629987Y-14336556D01*
X12629987Y-14336556D02*
X12629987Y-14288937D01*
X12629987Y-14288937D02*
X12639510Y-14250842D01*
X12639510Y-14250842D02*
X12649034Y-14231794D01*
X12649034Y-14231794D02*
X12658558Y-14222271D01*
X12658558Y-14222271D02*
X12677606Y-14212747D01*
X12829987Y-14412747D02*
X12829987Y-14279413D01*
X12829987Y-14298461D02*
X12839510Y-14288937D01*
X12839510Y-14288937D02*
X12858558Y-14279413D01*
X12858558Y-14279413D02*
X12887130Y-14279413D01*
X12887130Y-14279413D02*
X12906177Y-14288937D01*
X12906177Y-14288937D02*
X12915701Y-14307985D01*
X12915701Y-14307985D02*
X12915701Y-14412747D01*
X12915701Y-14307985D02*
X12925225Y-14288937D01*
X12925225Y-14288937D02*
X12944272Y-14279413D01*
X12944272Y-14279413D02*
X12972844Y-14279413D01*
X12972844Y-14279413D02*
X12991891Y-14288937D01*
X12991891Y-14288937D02*
X13001415Y-14307985D01*
X13001415Y-14307985D02*
X13001415Y-14412747D01*
X13096653Y-14412747D02*
X13096653Y-14279413D01*
X13096653Y-14298461D02*
X13106177Y-14288937D01*
X13106177Y-14288937D02*
X13125225Y-14279413D01*
X13125225Y-14279413D02*
X13153796Y-14279413D01*
X13153796Y-14279413D02*
X13172844Y-14288937D01*
X13172844Y-14288937D02*
X13182368Y-14307985D01*
X13182368Y-14307985D02*
X13182368Y-14412747D01*
X13182368Y-14307985D02*
X13191891Y-14288937D01*
X13191891Y-14288937D02*
X13210939Y-14279413D01*
X13210939Y-14279413D02*
X13239510Y-14279413D01*
X13239510Y-14279413D02*
X13258558Y-14288937D01*
X13258558Y-14288937D02*
X13268082Y-14307985D01*
X13268082Y-14307985D02*
X13268082Y-14412747D01*
X13658558Y-14203223D02*
X13487130Y-14460366D01*
X13915701Y-14212747D02*
X13934749Y-14212747D01*
X13934749Y-14212747D02*
X13953796Y-14222271D01*
X13953796Y-14222271D02*
X13963320Y-14231794D01*
X13963320Y-14231794D02*
X13972844Y-14250842D01*
X13972844Y-14250842D02*
X13982368Y-14288937D01*
X13982368Y-14288937D02*
X13982368Y-14336556D01*
X13982368Y-14336556D02*
X13972844Y-14374651D01*
X13972844Y-14374651D02*
X13963320Y-14393699D01*
X13963320Y-14393699D02*
X13953796Y-14403223D01*
X13953796Y-14403223D02*
X13934749Y-14412747D01*
X13934749Y-14412747D02*
X13915701Y-14412747D01*
X13915701Y-14412747D02*
X13896653Y-14403223D01*
X13896653Y-14403223D02*
X13887130Y-14393699D01*
X13887130Y-14393699D02*
X13877606Y-14374651D01*
X13877606Y-14374651D02*
X13868082Y-14336556D01*
X13868082Y-14336556D02*
X13868082Y-14288937D01*
X13868082Y-14288937D02*
X13877606Y-14250842D01*
X13877606Y-14250842D02*
X13887130Y-14231794D01*
X13887130Y-14231794D02*
X13896653Y-14222271D01*
X13896653Y-14222271D02*
X13915701Y-14212747D01*
X14068082Y-14393699D02*
X14077606Y-14403223D01*
X14077606Y-14403223D02*
X14068082Y-14412747D01*
X14068082Y-14412747D02*
X14058558Y-14403223D01*
X14058558Y-14403223D02*
X14068082Y-14393699D01*
X14068082Y-14393699D02*
X14068082Y-14412747D01*
X14201415Y-14212747D02*
X14220463Y-14212747D01*
X14220463Y-14212747D02*
X14239511Y-14222271D01*
X14239511Y-14222271D02*
X14249034Y-14231794D01*
X14249034Y-14231794D02*
X14258558Y-14250842D01*
X14258558Y-14250842D02*
X14268082Y-14288937D01*
X14268082Y-14288937D02*
X14268082Y-14336556D01*
X14268082Y-14336556D02*
X14258558Y-14374651D01*
X14258558Y-14374651D02*
X14249034Y-14393699D01*
X14249034Y-14393699D02*
X14239511Y-14403223D01*
X14239511Y-14403223D02*
X14220463Y-14412747D01*
X14220463Y-14412747D02*
X14201415Y-14412747D01*
X14201415Y-14412747D02*
X14182368Y-14403223D01*
X14182368Y-14403223D02*
X14172844Y-14393699D01*
X14172844Y-14393699D02*
X14163320Y-14374651D01*
X14163320Y-14374651D02*
X14153796Y-14336556D01*
X14153796Y-14336556D02*
X14153796Y-14288937D01*
X14153796Y-14288937D02*
X14163320Y-14250842D01*
X14163320Y-14250842D02*
X14172844Y-14231794D01*
X14172844Y-14231794D02*
X14182368Y-14222271D01*
X14182368Y-14222271D02*
X14201415Y-14212747D01*
X14334749Y-14212747D02*
X14458558Y-14212747D01*
X14458558Y-14212747D02*
X14391892Y-14288937D01*
X14391892Y-14288937D02*
X14420463Y-14288937D01*
X14420463Y-14288937D02*
X14439511Y-14298461D01*
X14439511Y-14298461D02*
X14449034Y-14307985D01*
X14449034Y-14307985D02*
X14458558Y-14327032D01*
X14458558Y-14327032D02*
X14458558Y-14374651D01*
X14458558Y-14374651D02*
X14449034Y-14393699D01*
X14449034Y-14393699D02*
X14439511Y-14403223D01*
X14439511Y-14403223D02*
X14420463Y-14412747D01*
X14420463Y-14412747D02*
X14363320Y-14412747D01*
X14363320Y-14412747D02*
X14344273Y-14403223D01*
X14344273Y-14403223D02*
X14334749Y-14393699D01*
X14649034Y-14412747D02*
X14534749Y-14412747D01*
X14591892Y-14412747D02*
X14591892Y-14212747D01*
X14591892Y-14212747D02*
X14572844Y-14241318D01*
X14572844Y-14241318D02*
X14553796Y-14260366D01*
X14553796Y-14260366D02*
X14534749Y-14269890D01*
X14829987Y-14212747D02*
X14734749Y-14212747D01*
X14734749Y-14212747D02*
X14725225Y-14307985D01*
X14725225Y-14307985D02*
X14734749Y-14298461D01*
X14734749Y-14298461D02*
X14753796Y-14288937D01*
X14753796Y-14288937D02*
X14801415Y-14288937D01*
X14801415Y-14288937D02*
X14820463Y-14298461D01*
X14820463Y-14298461D02*
X14829987Y-14307985D01*
X14829987Y-14307985D02*
X14839511Y-14327032D01*
X14839511Y-14327032D02*
X14839511Y-14374651D01*
X14839511Y-14374651D02*
X14829987Y-14393699D01*
X14829987Y-14393699D02*
X14820463Y-14403223D01*
X14820463Y-14403223D02*
X14801415Y-14412747D01*
X14801415Y-14412747D02*
X14753796Y-14412747D01*
X14753796Y-14412747D02*
X14734749Y-14403223D01*
X14734749Y-14403223D02*
X14725225Y-14393699D01*
X14915701Y-14212747D02*
X14915701Y-14250842D01*
X14991892Y-14212747D02*
X14991892Y-14250842D01*
X15287130Y-14488937D02*
X15277606Y-14479413D01*
X15277606Y-14479413D02*
X15258558Y-14450842D01*
X15258558Y-14450842D02*
X15249035Y-14431794D01*
X15249035Y-14431794D02*
X15239511Y-14403223D01*
X15239511Y-14403223D02*
X15229987Y-14355604D01*
X15229987Y-14355604D02*
X15229987Y-14317509D01*
X15229987Y-14317509D02*
X15239511Y-14269890D01*
X15239511Y-14269890D02*
X15249035Y-14241318D01*
X15249035Y-14241318D02*
X15258558Y-14222271D01*
X15258558Y-14222271D02*
X15277606Y-14193699D01*
X15277606Y-14193699D02*
X15287130Y-14184175D01*
X15468082Y-14412747D02*
X15353796Y-14412747D01*
X15410939Y-14412747D02*
X15410939Y-14212747D01*
X15410939Y-14212747D02*
X15391892Y-14241318D01*
X15391892Y-14241318D02*
X15372844Y-14260366D01*
X15372844Y-14260366D02*
X15353796Y-14269890D01*
X15658558Y-14412747D02*
X15544273Y-14412747D01*
X15601415Y-14412747D02*
X15601415Y-14212747D01*
X15601415Y-14212747D02*
X15582368Y-14241318D01*
X15582368Y-14241318D02*
X15563320Y-14260366D01*
X15563320Y-14260366D02*
X15544273Y-14269890D01*
X15725225Y-14212747D02*
X15858558Y-14212747D01*
X15858558Y-14212747D02*
X15772844Y-14412747D01*
X16087130Y-14412747D02*
X16087130Y-14212747D01*
X16172844Y-14412747D02*
X16172844Y-14307985D01*
X16172844Y-14307985D02*
X16163320Y-14288937D01*
X16163320Y-14288937D02*
X16144273Y-14279413D01*
X16144273Y-14279413D02*
X16115701Y-14279413D01*
X16115701Y-14279413D02*
X16096654Y-14288937D01*
X16096654Y-14288937D02*
X16087130Y-14298461D01*
X16296654Y-14412747D02*
X16277606Y-14403223D01*
X16277606Y-14403223D02*
X16268082Y-14393699D01*
X16268082Y-14393699D02*
X16258558Y-14374651D01*
X16258558Y-14374651D02*
X16258558Y-14317509D01*
X16258558Y-14317509D02*
X16268082Y-14298461D01*
X16268082Y-14298461D02*
X16277606Y-14288937D01*
X16277606Y-14288937D02*
X16296654Y-14279413D01*
X16296654Y-14279413D02*
X16325225Y-14279413D01*
X16325225Y-14279413D02*
X16344273Y-14288937D01*
X16344273Y-14288937D02*
X16353797Y-14298461D01*
X16353797Y-14298461D02*
X16363320Y-14317509D01*
X16363320Y-14317509D02*
X16363320Y-14374651D01*
X16363320Y-14374651D02*
X16353797Y-14393699D01*
X16353797Y-14393699D02*
X16344273Y-14403223D01*
X16344273Y-14403223D02*
X16325225Y-14412747D01*
X16325225Y-14412747D02*
X16296654Y-14412747D01*
X16477606Y-14412747D02*
X16458558Y-14403223D01*
X16458558Y-14403223D02*
X16449035Y-14384175D01*
X16449035Y-14384175D02*
X16449035Y-14212747D01*
X16629987Y-14403223D02*
X16610939Y-14412747D01*
X16610939Y-14412747D02*
X16572844Y-14412747D01*
X16572844Y-14412747D02*
X16553797Y-14403223D01*
X16553797Y-14403223D02*
X16544273Y-14384175D01*
X16544273Y-14384175D02*
X16544273Y-14307985D01*
X16544273Y-14307985D02*
X16553797Y-14288937D01*
X16553797Y-14288937D02*
X16572844Y-14279413D01*
X16572844Y-14279413D02*
X16610939Y-14279413D01*
X16610939Y-14279413D02*
X16629987Y-14288937D01*
X16629987Y-14288937D02*
X16639511Y-14307985D01*
X16639511Y-14307985D02*
X16639511Y-14327032D01*
X16639511Y-14327032D02*
X16544273Y-14346080D01*
X16715701Y-14403223D02*
X16734749Y-14412747D01*
X16734749Y-14412747D02*
X16772844Y-14412747D01*
X16772844Y-14412747D02*
X16791892Y-14403223D01*
X16791892Y-14403223D02*
X16801416Y-14384175D01*
X16801416Y-14384175D02*
X16801416Y-14374651D01*
X16801416Y-14374651D02*
X16791892Y-14355604D01*
X16791892Y-14355604D02*
X16772844Y-14346080D01*
X16772844Y-14346080D02*
X16744273Y-14346080D01*
X16744273Y-14346080D02*
X16725225Y-14336556D01*
X16725225Y-14336556D02*
X16715701Y-14317509D01*
X16715701Y-14317509D02*
X16715701Y-14307985D01*
X16715701Y-14307985D02*
X16725225Y-14288937D01*
X16725225Y-14288937D02*
X16744273Y-14279413D01*
X16744273Y-14279413D02*
X16772844Y-14279413D01*
X16772844Y-14279413D02*
X16791892Y-14288937D01*
X16868082Y-14488937D02*
X16877606Y-14479413D01*
X16877606Y-14479413D02*
X16896654Y-14450842D01*
X16896654Y-14450842D02*
X16906178Y-14431794D01*
X16906178Y-14431794D02*
X16915701Y-14403223D01*
X16915701Y-14403223D02*
X16925225Y-14355604D01*
X16925225Y-14355604D02*
X16925225Y-14317509D01*
X16925225Y-14317509D02*
X16915701Y-14269890D01*
X16915701Y-14269890D02*
X16906178Y-14241318D01*
X16906178Y-14241318D02*
X16896654Y-14222271D01*
X16896654Y-14222271D02*
X16877606Y-14193699D01*
X16877606Y-14193699D02*
X16868082Y-14184175D01*
D12*
X11698887Y-14617083D02*
X11698887Y-14553443D01*
X11635247Y-14553443D01*
X11635247Y-14617083D01*
X11698887Y-14617083D01*
D11*
X12010939Y-14476747D02*
X12029987Y-14476747D01*
X12029987Y-14476747D02*
X12049034Y-14486271D01*
X12049034Y-14486271D02*
X12058558Y-14495794D01*
X12058558Y-14495794D02*
X12068082Y-14514842D01*
X12068082Y-14514842D02*
X12077606Y-14552937D01*
X12077606Y-14552937D02*
X12077606Y-14600556D01*
X12077606Y-14600556D02*
X12068082Y-14638651D01*
X12068082Y-14638651D02*
X12058558Y-14657699D01*
X12058558Y-14657699D02*
X12049034Y-14667223D01*
X12049034Y-14667223D02*
X12029987Y-14676747D01*
X12029987Y-14676747D02*
X12010939Y-14676747D01*
X12010939Y-14676747D02*
X11991891Y-14667223D01*
X11991891Y-14667223D02*
X11982368Y-14657699D01*
X11982368Y-14657699D02*
X11972844Y-14638651D01*
X11972844Y-14638651D02*
X11963320Y-14600556D01*
X11963320Y-14600556D02*
X11963320Y-14552937D01*
X11963320Y-14552937D02*
X11972844Y-14514842D01*
X11972844Y-14514842D02*
X11982368Y-14495794D01*
X11982368Y-14495794D02*
X11991891Y-14486271D01*
X11991891Y-14486271D02*
X12010939Y-14476747D01*
X12163320Y-14657699D02*
X12172844Y-14667223D01*
X12172844Y-14667223D02*
X12163320Y-14676747D01*
X12163320Y-14676747D02*
X12153796Y-14667223D01*
X12153796Y-14667223D02*
X12163320Y-14657699D01*
X12163320Y-14657699D02*
X12163320Y-14676747D01*
X12268082Y-14676747D02*
X12306177Y-14676747D01*
X12306177Y-14676747D02*
X12325225Y-14667223D01*
X12325225Y-14667223D02*
X12334749Y-14657699D01*
X12334749Y-14657699D02*
X12353796Y-14629128D01*
X12353796Y-14629128D02*
X12363320Y-14591032D01*
X12363320Y-14591032D02*
X12363320Y-14514842D01*
X12363320Y-14514842D02*
X12353796Y-14495794D01*
X12353796Y-14495794D02*
X12344272Y-14486271D01*
X12344272Y-14486271D02*
X12325225Y-14476747D01*
X12325225Y-14476747D02*
X12287129Y-14476747D01*
X12287129Y-14476747D02*
X12268082Y-14486271D01*
X12268082Y-14486271D02*
X12258558Y-14495794D01*
X12258558Y-14495794D02*
X12249034Y-14514842D01*
X12249034Y-14514842D02*
X12249034Y-14562461D01*
X12249034Y-14562461D02*
X12258558Y-14581509D01*
X12258558Y-14581509D02*
X12268082Y-14591032D01*
X12268082Y-14591032D02*
X12287129Y-14600556D01*
X12287129Y-14600556D02*
X12325225Y-14600556D01*
X12325225Y-14600556D02*
X12344272Y-14591032D01*
X12344272Y-14591032D02*
X12353796Y-14581509D01*
X12353796Y-14581509D02*
X12363320Y-14562461D01*
X12487129Y-14476747D02*
X12506177Y-14476747D01*
X12506177Y-14476747D02*
X12525225Y-14486271D01*
X12525225Y-14486271D02*
X12534749Y-14495794D01*
X12534749Y-14495794D02*
X12544272Y-14514842D01*
X12544272Y-14514842D02*
X12553796Y-14552937D01*
X12553796Y-14552937D02*
X12553796Y-14600556D01*
X12553796Y-14600556D02*
X12544272Y-14638651D01*
X12544272Y-14638651D02*
X12534749Y-14657699D01*
X12534749Y-14657699D02*
X12525225Y-14667223D01*
X12525225Y-14667223D02*
X12506177Y-14676747D01*
X12506177Y-14676747D02*
X12487129Y-14676747D01*
X12487129Y-14676747D02*
X12468082Y-14667223D01*
X12468082Y-14667223D02*
X12458558Y-14657699D01*
X12458558Y-14657699D02*
X12449034Y-14638651D01*
X12449034Y-14638651D02*
X12439510Y-14600556D01*
X12439510Y-14600556D02*
X12439510Y-14552937D01*
X12439510Y-14552937D02*
X12449034Y-14514842D01*
X12449034Y-14514842D02*
X12458558Y-14495794D01*
X12458558Y-14495794D02*
X12468082Y-14486271D01*
X12468082Y-14486271D02*
X12487129Y-14476747D01*
X12677606Y-14476747D02*
X12696653Y-14476747D01*
X12696653Y-14476747D02*
X12715701Y-14486271D01*
X12715701Y-14486271D02*
X12725225Y-14495794D01*
X12725225Y-14495794D02*
X12734749Y-14514842D01*
X12734749Y-14514842D02*
X12744272Y-14552937D01*
X12744272Y-14552937D02*
X12744272Y-14600556D01*
X12744272Y-14600556D02*
X12734749Y-14638651D01*
X12734749Y-14638651D02*
X12725225Y-14657699D01*
X12725225Y-14657699D02*
X12715701Y-14667223D01*
X12715701Y-14667223D02*
X12696653Y-14676747D01*
X12696653Y-14676747D02*
X12677606Y-14676747D01*
X12677606Y-14676747D02*
X12658558Y-14667223D01*
X12658558Y-14667223D02*
X12649034Y-14657699D01*
X12649034Y-14657699D02*
X12639510Y-14638651D01*
X12639510Y-14638651D02*
X12629987Y-14600556D01*
X12629987Y-14600556D02*
X12629987Y-14552937D01*
X12629987Y-14552937D02*
X12639510Y-14514842D01*
X12639510Y-14514842D02*
X12649034Y-14495794D01*
X12649034Y-14495794D02*
X12658558Y-14486271D01*
X12658558Y-14486271D02*
X12677606Y-14476747D01*
X12829987Y-14676747D02*
X12829987Y-14543413D01*
X12829987Y-14562461D02*
X12839510Y-14552937D01*
X12839510Y-14552937D02*
X12858558Y-14543413D01*
X12858558Y-14543413D02*
X12887130Y-14543413D01*
X12887130Y-14543413D02*
X12906177Y-14552937D01*
X12906177Y-14552937D02*
X12915701Y-14571985D01*
X12915701Y-14571985D02*
X12915701Y-14676747D01*
X12915701Y-14571985D02*
X12925225Y-14552937D01*
X12925225Y-14552937D02*
X12944272Y-14543413D01*
X12944272Y-14543413D02*
X12972844Y-14543413D01*
X12972844Y-14543413D02*
X12991891Y-14552937D01*
X12991891Y-14552937D02*
X13001415Y-14571985D01*
X13001415Y-14571985D02*
X13001415Y-14676747D01*
X13096653Y-14676747D02*
X13096653Y-14543413D01*
X13096653Y-14562461D02*
X13106177Y-14552937D01*
X13106177Y-14552937D02*
X13125225Y-14543413D01*
X13125225Y-14543413D02*
X13153796Y-14543413D01*
X13153796Y-14543413D02*
X13172844Y-14552937D01*
X13172844Y-14552937D02*
X13182368Y-14571985D01*
X13182368Y-14571985D02*
X13182368Y-14676747D01*
X13182368Y-14571985D02*
X13191891Y-14552937D01*
X13191891Y-14552937D02*
X13210939Y-14543413D01*
X13210939Y-14543413D02*
X13239510Y-14543413D01*
X13239510Y-14543413D02*
X13258558Y-14552937D01*
X13258558Y-14552937D02*
X13268082Y-14571985D01*
X13268082Y-14571985D02*
X13268082Y-14676747D01*
X13658558Y-14467223D02*
X13487130Y-14724366D01*
X13915701Y-14476747D02*
X13934749Y-14476747D01*
X13934749Y-14476747D02*
X13953796Y-14486271D01*
X13953796Y-14486271D02*
X13963320Y-14495794D01*
X13963320Y-14495794D02*
X13972844Y-14514842D01*
X13972844Y-14514842D02*
X13982368Y-14552937D01*
X13982368Y-14552937D02*
X13982368Y-14600556D01*
X13982368Y-14600556D02*
X13972844Y-14638651D01*
X13972844Y-14638651D02*
X13963320Y-14657699D01*
X13963320Y-14657699D02*
X13953796Y-14667223D01*
X13953796Y-14667223D02*
X13934749Y-14676747D01*
X13934749Y-14676747D02*
X13915701Y-14676747D01*
X13915701Y-14676747D02*
X13896653Y-14667223D01*
X13896653Y-14667223D02*
X13887130Y-14657699D01*
X13887130Y-14657699D02*
X13877606Y-14638651D01*
X13877606Y-14638651D02*
X13868082Y-14600556D01*
X13868082Y-14600556D02*
X13868082Y-14552937D01*
X13868082Y-14552937D02*
X13877606Y-14514842D01*
X13877606Y-14514842D02*
X13887130Y-14495794D01*
X13887130Y-14495794D02*
X13896653Y-14486271D01*
X13896653Y-14486271D02*
X13915701Y-14476747D01*
X14068082Y-14657699D02*
X14077606Y-14667223D01*
X14077606Y-14667223D02*
X14068082Y-14676747D01*
X14068082Y-14676747D02*
X14058558Y-14667223D01*
X14058558Y-14667223D02*
X14068082Y-14657699D01*
X14068082Y-14657699D02*
X14068082Y-14676747D01*
X14201415Y-14476747D02*
X14220463Y-14476747D01*
X14220463Y-14476747D02*
X14239511Y-14486271D01*
X14239511Y-14486271D02*
X14249034Y-14495794D01*
X14249034Y-14495794D02*
X14258558Y-14514842D01*
X14258558Y-14514842D02*
X14268082Y-14552937D01*
X14268082Y-14552937D02*
X14268082Y-14600556D01*
X14268082Y-14600556D02*
X14258558Y-14638651D01*
X14258558Y-14638651D02*
X14249034Y-14657699D01*
X14249034Y-14657699D02*
X14239511Y-14667223D01*
X14239511Y-14667223D02*
X14220463Y-14676747D01*
X14220463Y-14676747D02*
X14201415Y-14676747D01*
X14201415Y-14676747D02*
X14182368Y-14667223D01*
X14182368Y-14667223D02*
X14172844Y-14657699D01*
X14172844Y-14657699D02*
X14163320Y-14638651D01*
X14163320Y-14638651D02*
X14153796Y-14600556D01*
X14153796Y-14600556D02*
X14153796Y-14552937D01*
X14153796Y-14552937D02*
X14163320Y-14514842D01*
X14163320Y-14514842D02*
X14172844Y-14495794D01*
X14172844Y-14495794D02*
X14182368Y-14486271D01*
X14182368Y-14486271D02*
X14201415Y-14476747D01*
X14334749Y-14476747D02*
X14458558Y-14476747D01*
X14458558Y-14476747D02*
X14391892Y-14552937D01*
X14391892Y-14552937D02*
X14420463Y-14552937D01*
X14420463Y-14552937D02*
X14439511Y-14562461D01*
X14439511Y-14562461D02*
X14449034Y-14571985D01*
X14449034Y-14571985D02*
X14458558Y-14591032D01*
X14458558Y-14591032D02*
X14458558Y-14638651D01*
X14458558Y-14638651D02*
X14449034Y-14657699D01*
X14449034Y-14657699D02*
X14439511Y-14667223D01*
X14439511Y-14667223D02*
X14420463Y-14676747D01*
X14420463Y-14676747D02*
X14363320Y-14676747D01*
X14363320Y-14676747D02*
X14344273Y-14667223D01*
X14344273Y-14667223D02*
X14334749Y-14657699D01*
X14639511Y-14476747D02*
X14544273Y-14476747D01*
X14544273Y-14476747D02*
X14534749Y-14571985D01*
X14534749Y-14571985D02*
X14544273Y-14562461D01*
X14544273Y-14562461D02*
X14563320Y-14552937D01*
X14563320Y-14552937D02*
X14610939Y-14552937D01*
X14610939Y-14552937D02*
X14629987Y-14562461D01*
X14629987Y-14562461D02*
X14639511Y-14571985D01*
X14639511Y-14571985D02*
X14649034Y-14591032D01*
X14649034Y-14591032D02*
X14649034Y-14638651D01*
X14649034Y-14638651D02*
X14639511Y-14657699D01*
X14639511Y-14657699D02*
X14629987Y-14667223D01*
X14629987Y-14667223D02*
X14610939Y-14676747D01*
X14610939Y-14676747D02*
X14563320Y-14676747D01*
X14563320Y-14676747D02*
X14544273Y-14667223D01*
X14544273Y-14667223D02*
X14534749Y-14657699D01*
X14820463Y-14543413D02*
X14820463Y-14676747D01*
X14772844Y-14467223D02*
X14725225Y-14610080D01*
X14725225Y-14610080D02*
X14849034Y-14610080D01*
X14915701Y-14476747D02*
X14915701Y-14514842D01*
X14991892Y-14476747D02*
X14991892Y-14514842D01*
X15287130Y-14752937D02*
X15277606Y-14743413D01*
X15277606Y-14743413D02*
X15258558Y-14714842D01*
X15258558Y-14714842D02*
X15249035Y-14695794D01*
X15249035Y-14695794D02*
X15239511Y-14667223D01*
X15239511Y-14667223D02*
X15229987Y-14619604D01*
X15229987Y-14619604D02*
X15229987Y-14581509D01*
X15229987Y-14581509D02*
X15239511Y-14533890D01*
X15239511Y-14533890D02*
X15249035Y-14505318D01*
X15249035Y-14505318D02*
X15258558Y-14486271D01*
X15258558Y-14486271D02*
X15277606Y-14457699D01*
X15277606Y-14457699D02*
X15287130Y-14448175D01*
X15449035Y-14476747D02*
X15410939Y-14476747D01*
X15410939Y-14476747D02*
X15391892Y-14486271D01*
X15391892Y-14486271D02*
X15382368Y-14495794D01*
X15382368Y-14495794D02*
X15363320Y-14524366D01*
X15363320Y-14524366D02*
X15353796Y-14562461D01*
X15353796Y-14562461D02*
X15353796Y-14638651D01*
X15353796Y-14638651D02*
X15363320Y-14657699D01*
X15363320Y-14657699D02*
X15372844Y-14667223D01*
X15372844Y-14667223D02*
X15391892Y-14676747D01*
X15391892Y-14676747D02*
X15429987Y-14676747D01*
X15429987Y-14676747D02*
X15449035Y-14667223D01*
X15449035Y-14667223D02*
X15458558Y-14657699D01*
X15458558Y-14657699D02*
X15468082Y-14638651D01*
X15468082Y-14638651D02*
X15468082Y-14591032D01*
X15468082Y-14591032D02*
X15458558Y-14571985D01*
X15458558Y-14571985D02*
X15449035Y-14562461D01*
X15449035Y-14562461D02*
X15429987Y-14552937D01*
X15429987Y-14552937D02*
X15391892Y-14552937D01*
X15391892Y-14552937D02*
X15372844Y-14562461D01*
X15372844Y-14562461D02*
X15363320Y-14571985D01*
X15363320Y-14571985D02*
X15353796Y-14591032D01*
X15706177Y-14676747D02*
X15706177Y-14476747D01*
X15791892Y-14676747D02*
X15791892Y-14571985D01*
X15791892Y-14571985D02*
X15782368Y-14552937D01*
X15782368Y-14552937D02*
X15763320Y-14543413D01*
X15763320Y-14543413D02*
X15734749Y-14543413D01*
X15734749Y-14543413D02*
X15715701Y-14552937D01*
X15715701Y-14552937D02*
X15706177Y-14562461D01*
X15915701Y-14676747D02*
X15896654Y-14667223D01*
X15896654Y-14667223D02*
X15887130Y-14657699D01*
X15887130Y-14657699D02*
X15877606Y-14638651D01*
X15877606Y-14638651D02*
X15877606Y-14581509D01*
X15877606Y-14581509D02*
X15887130Y-14562461D01*
X15887130Y-14562461D02*
X15896654Y-14552937D01*
X15896654Y-14552937D02*
X15915701Y-14543413D01*
X15915701Y-14543413D02*
X15944273Y-14543413D01*
X15944273Y-14543413D02*
X15963320Y-14552937D01*
X15963320Y-14552937D02*
X15972844Y-14562461D01*
X15972844Y-14562461D02*
X15982368Y-14581509D01*
X15982368Y-14581509D02*
X15982368Y-14638651D01*
X15982368Y-14638651D02*
X15972844Y-14657699D01*
X15972844Y-14657699D02*
X15963320Y-14667223D01*
X15963320Y-14667223D02*
X15944273Y-14676747D01*
X15944273Y-14676747D02*
X15915701Y-14676747D01*
X16096654Y-14676747D02*
X16077606Y-14667223D01*
X16077606Y-14667223D02*
X16068082Y-14648175D01*
X16068082Y-14648175D02*
X16068082Y-14476747D01*
X16249035Y-14667223D02*
X16229987Y-14676747D01*
X16229987Y-14676747D02*
X16191892Y-14676747D01*
X16191892Y-14676747D02*
X16172844Y-14667223D01*
X16172844Y-14667223D02*
X16163320Y-14648175D01*
X16163320Y-14648175D02*
X16163320Y-14571985D01*
X16163320Y-14571985D02*
X16172844Y-14552937D01*
X16172844Y-14552937D02*
X16191892Y-14543413D01*
X16191892Y-14543413D02*
X16229987Y-14543413D01*
X16229987Y-14543413D02*
X16249035Y-14552937D01*
X16249035Y-14552937D02*
X16258558Y-14571985D01*
X16258558Y-14571985D02*
X16258558Y-14591032D01*
X16258558Y-14591032D02*
X16163320Y-14610080D01*
X16334749Y-14667223D02*
X16353797Y-14676747D01*
X16353797Y-14676747D02*
X16391892Y-14676747D01*
X16391892Y-14676747D02*
X16410939Y-14667223D01*
X16410939Y-14667223D02*
X16420463Y-14648175D01*
X16420463Y-14648175D02*
X16420463Y-14638651D01*
X16420463Y-14638651D02*
X16410939Y-14619604D01*
X16410939Y-14619604D02*
X16391892Y-14610080D01*
X16391892Y-14610080D02*
X16363320Y-14610080D01*
X16363320Y-14610080D02*
X16344273Y-14600556D01*
X16344273Y-14600556D02*
X16334749Y-14581509D01*
X16334749Y-14581509D02*
X16334749Y-14571985D01*
X16334749Y-14571985D02*
X16344273Y-14552937D01*
X16344273Y-14552937D02*
X16363320Y-14543413D01*
X16363320Y-14543413D02*
X16391892Y-14543413D01*
X16391892Y-14543413D02*
X16410939Y-14552937D01*
X16487130Y-14752937D02*
X16496654Y-14743413D01*
X16496654Y-14743413D02*
X16515701Y-14714842D01*
X16515701Y-14714842D02*
X16525225Y-14695794D01*
X16525225Y-14695794D02*
X16534749Y-14667223D01*
X16534749Y-14667223D02*
X16544273Y-14619604D01*
X16544273Y-14619604D02*
X16544273Y-14581509D01*
X16544273Y-14581509D02*
X16534749Y-14533890D01*
X16534749Y-14533890D02*
X16525225Y-14505318D01*
X16525225Y-14505318D02*
X16515701Y-14486271D01*
X16515701Y-14486271D02*
X16496654Y-14457699D01*
X16496654Y-14457699D02*
X16487130Y-14448175D01*
D12*
X11662067Y-14899263D02*
X11712067Y-14849263D01*
X11662067Y-14799263D01*
X11612067Y-14849263D01*
X11662067Y-14899263D01*
D11*
X12077606Y-14940747D02*
X11963320Y-14940747D01*
X12020463Y-14940747D02*
X12020463Y-14740747D01*
X12020463Y-14740747D02*
X12001415Y-14769318D01*
X12001415Y-14769318D02*
X11982368Y-14788366D01*
X11982368Y-14788366D02*
X11963320Y-14797890D01*
X12163320Y-14921699D02*
X12172844Y-14931223D01*
X12172844Y-14931223D02*
X12163320Y-14940747D01*
X12163320Y-14940747D02*
X12153796Y-14931223D01*
X12153796Y-14931223D02*
X12163320Y-14921699D01*
X12163320Y-14921699D02*
X12163320Y-14940747D01*
X12296653Y-14740747D02*
X12315701Y-14740747D01*
X12315701Y-14740747D02*
X12334749Y-14750271D01*
X12334749Y-14750271D02*
X12344272Y-14759794D01*
X12344272Y-14759794D02*
X12353796Y-14778842D01*
X12353796Y-14778842D02*
X12363320Y-14816937D01*
X12363320Y-14816937D02*
X12363320Y-14864556D01*
X12363320Y-14864556D02*
X12353796Y-14902651D01*
X12353796Y-14902651D02*
X12344272Y-14921699D01*
X12344272Y-14921699D02*
X12334749Y-14931223D01*
X12334749Y-14931223D02*
X12315701Y-14940747D01*
X12315701Y-14940747D02*
X12296653Y-14940747D01*
X12296653Y-14940747D02*
X12277606Y-14931223D01*
X12277606Y-14931223D02*
X12268082Y-14921699D01*
X12268082Y-14921699D02*
X12258558Y-14902651D01*
X12258558Y-14902651D02*
X12249034Y-14864556D01*
X12249034Y-14864556D02*
X12249034Y-14816937D01*
X12249034Y-14816937D02*
X12258558Y-14778842D01*
X12258558Y-14778842D02*
X12268082Y-14759794D01*
X12268082Y-14759794D02*
X12277606Y-14750271D01*
X12277606Y-14750271D02*
X12296653Y-14740747D01*
X12487129Y-14740747D02*
X12506177Y-14740747D01*
X12506177Y-14740747D02*
X12525225Y-14750271D01*
X12525225Y-14750271D02*
X12534749Y-14759794D01*
X12534749Y-14759794D02*
X12544272Y-14778842D01*
X12544272Y-14778842D02*
X12553796Y-14816937D01*
X12553796Y-14816937D02*
X12553796Y-14864556D01*
X12553796Y-14864556D02*
X12544272Y-14902651D01*
X12544272Y-14902651D02*
X12534749Y-14921699D01*
X12534749Y-14921699D02*
X12525225Y-14931223D01*
X12525225Y-14931223D02*
X12506177Y-14940747D01*
X12506177Y-14940747D02*
X12487129Y-14940747D01*
X12487129Y-14940747D02*
X12468082Y-14931223D01*
X12468082Y-14931223D02*
X12458558Y-14921699D01*
X12458558Y-14921699D02*
X12449034Y-14902651D01*
X12449034Y-14902651D02*
X12439510Y-14864556D01*
X12439510Y-14864556D02*
X12439510Y-14816937D01*
X12439510Y-14816937D02*
X12449034Y-14778842D01*
X12449034Y-14778842D02*
X12458558Y-14759794D01*
X12458558Y-14759794D02*
X12468082Y-14750271D01*
X12468082Y-14750271D02*
X12487129Y-14740747D01*
X12677606Y-14740747D02*
X12696653Y-14740747D01*
X12696653Y-14740747D02*
X12715701Y-14750271D01*
X12715701Y-14750271D02*
X12725225Y-14759794D01*
X12725225Y-14759794D02*
X12734749Y-14778842D01*
X12734749Y-14778842D02*
X12744272Y-14816937D01*
X12744272Y-14816937D02*
X12744272Y-14864556D01*
X12744272Y-14864556D02*
X12734749Y-14902651D01*
X12734749Y-14902651D02*
X12725225Y-14921699D01*
X12725225Y-14921699D02*
X12715701Y-14931223D01*
X12715701Y-14931223D02*
X12696653Y-14940747D01*
X12696653Y-14940747D02*
X12677606Y-14940747D01*
X12677606Y-14940747D02*
X12658558Y-14931223D01*
X12658558Y-14931223D02*
X12649034Y-14921699D01*
X12649034Y-14921699D02*
X12639510Y-14902651D01*
X12639510Y-14902651D02*
X12629987Y-14864556D01*
X12629987Y-14864556D02*
X12629987Y-14816937D01*
X12629987Y-14816937D02*
X12639510Y-14778842D01*
X12639510Y-14778842D02*
X12649034Y-14759794D01*
X12649034Y-14759794D02*
X12658558Y-14750271D01*
X12658558Y-14750271D02*
X12677606Y-14740747D01*
X12829987Y-14940747D02*
X12829987Y-14807413D01*
X12829987Y-14826461D02*
X12839510Y-14816937D01*
X12839510Y-14816937D02*
X12858558Y-14807413D01*
X12858558Y-14807413D02*
X12887130Y-14807413D01*
X12887130Y-14807413D02*
X12906177Y-14816937D01*
X12906177Y-14816937D02*
X12915701Y-14835985D01*
X12915701Y-14835985D02*
X12915701Y-14940747D01*
X12915701Y-14835985D02*
X12925225Y-14816937D01*
X12925225Y-14816937D02*
X12944272Y-14807413D01*
X12944272Y-14807413D02*
X12972844Y-14807413D01*
X12972844Y-14807413D02*
X12991891Y-14816937D01*
X12991891Y-14816937D02*
X13001415Y-14835985D01*
X13001415Y-14835985D02*
X13001415Y-14940747D01*
X13096653Y-14940747D02*
X13096653Y-14807413D01*
X13096653Y-14826461D02*
X13106177Y-14816937D01*
X13106177Y-14816937D02*
X13125225Y-14807413D01*
X13125225Y-14807413D02*
X13153796Y-14807413D01*
X13153796Y-14807413D02*
X13172844Y-14816937D01*
X13172844Y-14816937D02*
X13182368Y-14835985D01*
X13182368Y-14835985D02*
X13182368Y-14940747D01*
X13182368Y-14835985D02*
X13191891Y-14816937D01*
X13191891Y-14816937D02*
X13210939Y-14807413D01*
X13210939Y-14807413D02*
X13239510Y-14807413D01*
X13239510Y-14807413D02*
X13258558Y-14816937D01*
X13258558Y-14816937D02*
X13268082Y-14835985D01*
X13268082Y-14835985D02*
X13268082Y-14940747D01*
X13658558Y-14731223D02*
X13487130Y-14988366D01*
X13915701Y-14740747D02*
X13934749Y-14740747D01*
X13934749Y-14740747D02*
X13953796Y-14750271D01*
X13953796Y-14750271D02*
X13963320Y-14759794D01*
X13963320Y-14759794D02*
X13972844Y-14778842D01*
X13972844Y-14778842D02*
X13982368Y-14816937D01*
X13982368Y-14816937D02*
X13982368Y-14864556D01*
X13982368Y-14864556D02*
X13972844Y-14902651D01*
X13972844Y-14902651D02*
X13963320Y-14921699D01*
X13963320Y-14921699D02*
X13953796Y-14931223D01*
X13953796Y-14931223D02*
X13934749Y-14940747D01*
X13934749Y-14940747D02*
X13915701Y-14940747D01*
X13915701Y-14940747D02*
X13896653Y-14931223D01*
X13896653Y-14931223D02*
X13887130Y-14921699D01*
X13887130Y-14921699D02*
X13877606Y-14902651D01*
X13877606Y-14902651D02*
X13868082Y-14864556D01*
X13868082Y-14864556D02*
X13868082Y-14816937D01*
X13868082Y-14816937D02*
X13877606Y-14778842D01*
X13877606Y-14778842D02*
X13887130Y-14759794D01*
X13887130Y-14759794D02*
X13896653Y-14750271D01*
X13896653Y-14750271D02*
X13915701Y-14740747D01*
X14068082Y-14921699D02*
X14077606Y-14931223D01*
X14077606Y-14931223D02*
X14068082Y-14940747D01*
X14068082Y-14940747D02*
X14058558Y-14931223D01*
X14058558Y-14931223D02*
X14068082Y-14921699D01*
X14068082Y-14921699D02*
X14068082Y-14940747D01*
X14201415Y-14740747D02*
X14220463Y-14740747D01*
X14220463Y-14740747D02*
X14239511Y-14750271D01*
X14239511Y-14750271D02*
X14249034Y-14759794D01*
X14249034Y-14759794D02*
X14258558Y-14778842D01*
X14258558Y-14778842D02*
X14268082Y-14816937D01*
X14268082Y-14816937D02*
X14268082Y-14864556D01*
X14268082Y-14864556D02*
X14258558Y-14902651D01*
X14258558Y-14902651D02*
X14249034Y-14921699D01*
X14249034Y-14921699D02*
X14239511Y-14931223D01*
X14239511Y-14931223D02*
X14220463Y-14940747D01*
X14220463Y-14940747D02*
X14201415Y-14940747D01*
X14201415Y-14940747D02*
X14182368Y-14931223D01*
X14182368Y-14931223D02*
X14172844Y-14921699D01*
X14172844Y-14921699D02*
X14163320Y-14902651D01*
X14163320Y-14902651D02*
X14153796Y-14864556D01*
X14153796Y-14864556D02*
X14153796Y-14816937D01*
X14153796Y-14816937D02*
X14163320Y-14778842D01*
X14163320Y-14778842D02*
X14172844Y-14759794D01*
X14172844Y-14759794D02*
X14182368Y-14750271D01*
X14182368Y-14750271D02*
X14201415Y-14740747D01*
X14334749Y-14740747D02*
X14458558Y-14740747D01*
X14458558Y-14740747D02*
X14391892Y-14816937D01*
X14391892Y-14816937D02*
X14420463Y-14816937D01*
X14420463Y-14816937D02*
X14439511Y-14826461D01*
X14439511Y-14826461D02*
X14449034Y-14835985D01*
X14449034Y-14835985D02*
X14458558Y-14855032D01*
X14458558Y-14855032D02*
X14458558Y-14902651D01*
X14458558Y-14902651D02*
X14449034Y-14921699D01*
X14449034Y-14921699D02*
X14439511Y-14931223D01*
X14439511Y-14931223D02*
X14420463Y-14940747D01*
X14420463Y-14940747D02*
X14363320Y-14940747D01*
X14363320Y-14940747D02*
X14344273Y-14931223D01*
X14344273Y-14931223D02*
X14334749Y-14921699D01*
X14553796Y-14940747D02*
X14591892Y-14940747D01*
X14591892Y-14940747D02*
X14610939Y-14931223D01*
X14610939Y-14931223D02*
X14620463Y-14921699D01*
X14620463Y-14921699D02*
X14639511Y-14893128D01*
X14639511Y-14893128D02*
X14649034Y-14855032D01*
X14649034Y-14855032D02*
X14649034Y-14778842D01*
X14649034Y-14778842D02*
X14639511Y-14759794D01*
X14639511Y-14759794D02*
X14629987Y-14750271D01*
X14629987Y-14750271D02*
X14610939Y-14740747D01*
X14610939Y-14740747D02*
X14572844Y-14740747D01*
X14572844Y-14740747D02*
X14553796Y-14750271D01*
X14553796Y-14750271D02*
X14544273Y-14759794D01*
X14544273Y-14759794D02*
X14534749Y-14778842D01*
X14534749Y-14778842D02*
X14534749Y-14826461D01*
X14534749Y-14826461D02*
X14544273Y-14845509D01*
X14544273Y-14845509D02*
X14553796Y-14855032D01*
X14553796Y-14855032D02*
X14572844Y-14864556D01*
X14572844Y-14864556D02*
X14610939Y-14864556D01*
X14610939Y-14864556D02*
X14629987Y-14855032D01*
X14629987Y-14855032D02*
X14639511Y-14845509D01*
X14639511Y-14845509D02*
X14649034Y-14826461D01*
X14820463Y-14807413D02*
X14820463Y-14940747D01*
X14772844Y-14731223D02*
X14725225Y-14874080D01*
X14725225Y-14874080D02*
X14849034Y-14874080D01*
X14915701Y-14740747D02*
X14915701Y-14778842D01*
X14991892Y-14740747D02*
X14991892Y-14778842D01*
X15287130Y-15016937D02*
X15277606Y-15007413D01*
X15277606Y-15007413D02*
X15258558Y-14978842D01*
X15258558Y-14978842D02*
X15249035Y-14959794D01*
X15249035Y-14959794D02*
X15239511Y-14931223D01*
X15239511Y-14931223D02*
X15229987Y-14883604D01*
X15229987Y-14883604D02*
X15229987Y-14845509D01*
X15229987Y-14845509D02*
X15239511Y-14797890D01*
X15239511Y-14797890D02*
X15249035Y-14769318D01*
X15249035Y-14769318D02*
X15258558Y-14750271D01*
X15258558Y-14750271D02*
X15277606Y-14721699D01*
X15277606Y-14721699D02*
X15287130Y-14712175D01*
X15468082Y-14940747D02*
X15353796Y-14940747D01*
X15410939Y-14940747D02*
X15410939Y-14740747D01*
X15410939Y-14740747D02*
X15391892Y-14769318D01*
X15391892Y-14769318D02*
X15372844Y-14788366D01*
X15372844Y-14788366D02*
X15353796Y-14797890D01*
X15639511Y-14740747D02*
X15601415Y-14740747D01*
X15601415Y-14740747D02*
X15582368Y-14750271D01*
X15582368Y-14750271D02*
X15572844Y-14759794D01*
X15572844Y-14759794D02*
X15553796Y-14788366D01*
X15553796Y-14788366D02*
X15544273Y-14826461D01*
X15544273Y-14826461D02*
X15544273Y-14902651D01*
X15544273Y-14902651D02*
X15553796Y-14921699D01*
X15553796Y-14921699D02*
X15563320Y-14931223D01*
X15563320Y-14931223D02*
X15582368Y-14940747D01*
X15582368Y-14940747D02*
X15620463Y-14940747D01*
X15620463Y-14940747D02*
X15639511Y-14931223D01*
X15639511Y-14931223D02*
X15649035Y-14921699D01*
X15649035Y-14921699D02*
X15658558Y-14902651D01*
X15658558Y-14902651D02*
X15658558Y-14855032D01*
X15658558Y-14855032D02*
X15649035Y-14835985D01*
X15649035Y-14835985D02*
X15639511Y-14826461D01*
X15639511Y-14826461D02*
X15620463Y-14816937D01*
X15620463Y-14816937D02*
X15582368Y-14816937D01*
X15582368Y-14816937D02*
X15563320Y-14826461D01*
X15563320Y-14826461D02*
X15553796Y-14835985D01*
X15553796Y-14835985D02*
X15544273Y-14855032D01*
X15896654Y-14940747D02*
X15896654Y-14740747D01*
X15982368Y-14940747D02*
X15982368Y-14835985D01*
X15982368Y-14835985D02*
X15972844Y-14816937D01*
X15972844Y-14816937D02*
X15953797Y-14807413D01*
X15953797Y-14807413D02*
X15925225Y-14807413D01*
X15925225Y-14807413D02*
X15906177Y-14816937D01*
X15906177Y-14816937D02*
X15896654Y-14826461D01*
X16106177Y-14940747D02*
X16087130Y-14931223D01*
X16087130Y-14931223D02*
X16077606Y-14921699D01*
X16077606Y-14921699D02*
X16068082Y-14902651D01*
X16068082Y-14902651D02*
X16068082Y-14845509D01*
X16068082Y-14845509D02*
X16077606Y-14826461D01*
X16077606Y-14826461D02*
X16087130Y-14816937D01*
X16087130Y-14816937D02*
X16106177Y-14807413D01*
X16106177Y-14807413D02*
X16134749Y-14807413D01*
X16134749Y-14807413D02*
X16153797Y-14816937D01*
X16153797Y-14816937D02*
X16163320Y-14826461D01*
X16163320Y-14826461D02*
X16172844Y-14845509D01*
X16172844Y-14845509D02*
X16172844Y-14902651D01*
X16172844Y-14902651D02*
X16163320Y-14921699D01*
X16163320Y-14921699D02*
X16153797Y-14931223D01*
X16153797Y-14931223D02*
X16134749Y-14940747D01*
X16134749Y-14940747D02*
X16106177Y-14940747D01*
X16287130Y-14940747D02*
X16268082Y-14931223D01*
X16268082Y-14931223D02*
X16258558Y-14912175D01*
X16258558Y-14912175D02*
X16258558Y-14740747D01*
X16439511Y-14931223D02*
X16420463Y-14940747D01*
X16420463Y-14940747D02*
X16382368Y-14940747D01*
X16382368Y-14940747D02*
X16363320Y-14931223D01*
X16363320Y-14931223D02*
X16353797Y-14912175D01*
X16353797Y-14912175D02*
X16353797Y-14835985D01*
X16353797Y-14835985D02*
X16363320Y-14816937D01*
X16363320Y-14816937D02*
X16382368Y-14807413D01*
X16382368Y-14807413D02*
X16420463Y-14807413D01*
X16420463Y-14807413D02*
X16439511Y-14816937D01*
X16439511Y-14816937D02*
X16449035Y-14835985D01*
X16449035Y-14835985D02*
X16449035Y-14855032D01*
X16449035Y-14855032D02*
X16353797Y-14874080D01*
X16525225Y-14931223D02*
X16544273Y-14940747D01*
X16544273Y-14940747D02*
X16582368Y-14940747D01*
X16582368Y-14940747D02*
X16601416Y-14931223D01*
X16601416Y-14931223D02*
X16610939Y-14912175D01*
X16610939Y-14912175D02*
X16610939Y-14902651D01*
X16610939Y-14902651D02*
X16601416Y-14883604D01*
X16601416Y-14883604D02*
X16582368Y-14874080D01*
X16582368Y-14874080D02*
X16553797Y-14874080D01*
X16553797Y-14874080D02*
X16534749Y-14864556D01*
X16534749Y-14864556D02*
X16525225Y-14845509D01*
X16525225Y-14845509D02*
X16525225Y-14835985D01*
X16525225Y-14835985D02*
X16534749Y-14816937D01*
X16534749Y-14816937D02*
X16553797Y-14807413D01*
X16553797Y-14807413D02*
X16582368Y-14807413D01*
X16582368Y-14807413D02*
X16601416Y-14816937D01*
X16849035Y-14864556D02*
X17001416Y-14864556D01*
X16925225Y-14940747D02*
X16925225Y-14788366D01*
X17229987Y-14740747D02*
X17353797Y-14740747D01*
X17353797Y-14740747D02*
X17287130Y-14816937D01*
X17287130Y-14816937D02*
X17315702Y-14816937D01*
X17315702Y-14816937D02*
X17334749Y-14826461D01*
X17334749Y-14826461D02*
X17344273Y-14835985D01*
X17344273Y-14835985D02*
X17353797Y-14855032D01*
X17353797Y-14855032D02*
X17353797Y-14902651D01*
X17353797Y-14902651D02*
X17344273Y-14921699D01*
X17344273Y-14921699D02*
X17334749Y-14931223D01*
X17334749Y-14931223D02*
X17315702Y-14940747D01*
X17315702Y-14940747D02*
X17258559Y-14940747D01*
X17258559Y-14940747D02*
X17239511Y-14931223D01*
X17239511Y-14931223D02*
X17229987Y-14921699D01*
X17582368Y-14931223D02*
X17601416Y-14940747D01*
X17601416Y-14940747D02*
X17639511Y-14940747D01*
X17639511Y-14940747D02*
X17658559Y-14931223D01*
X17658559Y-14931223D02*
X17668083Y-14912175D01*
X17668083Y-14912175D02*
X17668083Y-14902651D01*
X17668083Y-14902651D02*
X17658559Y-14883604D01*
X17658559Y-14883604D02*
X17639511Y-14874080D01*
X17639511Y-14874080D02*
X17610940Y-14874080D01*
X17610940Y-14874080D02*
X17591892Y-14864556D01*
X17591892Y-14864556D02*
X17582368Y-14845509D01*
X17582368Y-14845509D02*
X17582368Y-14835985D01*
X17582368Y-14835985D02*
X17591892Y-14816937D01*
X17591892Y-14816937D02*
X17610940Y-14807413D01*
X17610940Y-14807413D02*
X17639511Y-14807413D01*
X17639511Y-14807413D02*
X17658559Y-14816937D01*
X17782368Y-14940747D02*
X17763321Y-14931223D01*
X17763321Y-14931223D02*
X17753797Y-14912175D01*
X17753797Y-14912175D02*
X17753797Y-14740747D01*
X17887130Y-14940747D02*
X17868083Y-14931223D01*
X17868083Y-14931223D02*
X17858559Y-14921699D01*
X17858559Y-14921699D02*
X17849035Y-14902651D01*
X17849035Y-14902651D02*
X17849035Y-14845509D01*
X17849035Y-14845509D02*
X17858559Y-14826461D01*
X17858559Y-14826461D02*
X17868083Y-14816937D01*
X17868083Y-14816937D02*
X17887130Y-14807413D01*
X17887130Y-14807413D02*
X17915702Y-14807413D01*
X17915702Y-14807413D02*
X17934749Y-14816937D01*
X17934749Y-14816937D02*
X17944273Y-14826461D01*
X17944273Y-14826461D02*
X17953797Y-14845509D01*
X17953797Y-14845509D02*
X17953797Y-14902651D01*
X17953797Y-14902651D02*
X17944273Y-14921699D01*
X17944273Y-14921699D02*
X17934749Y-14931223D01*
X17934749Y-14931223D02*
X17915702Y-14940747D01*
X17915702Y-14940747D02*
X17887130Y-14940747D01*
X18010940Y-14807413D02*
X18087130Y-14807413D01*
X18039511Y-14740747D02*
X18039511Y-14912175D01*
X18039511Y-14912175D02*
X18049035Y-14931223D01*
X18049035Y-14931223D02*
X18068083Y-14940747D01*
X18068083Y-14940747D02*
X18087130Y-14940747D01*
X18144273Y-14931223D02*
X18163321Y-14940747D01*
X18163321Y-14940747D02*
X18201416Y-14940747D01*
X18201416Y-14940747D02*
X18220464Y-14931223D01*
X18220464Y-14931223D02*
X18229987Y-14912175D01*
X18229987Y-14912175D02*
X18229987Y-14902651D01*
X18229987Y-14902651D02*
X18220464Y-14883604D01*
X18220464Y-14883604D02*
X18201416Y-14874080D01*
X18201416Y-14874080D02*
X18172844Y-14874080D01*
X18172844Y-14874080D02*
X18153797Y-14864556D01*
X18153797Y-14864556D02*
X18144273Y-14845509D01*
X18144273Y-14845509D02*
X18144273Y-14835985D01*
X18144273Y-14835985D02*
X18153797Y-14816937D01*
X18153797Y-14816937D02*
X18172844Y-14807413D01*
X18172844Y-14807413D02*
X18201416Y-14807413D01*
X18201416Y-14807413D02*
X18220464Y-14816937D01*
X18296654Y-15016937D02*
X18306178Y-15007413D01*
X18306178Y-15007413D02*
X18325225Y-14978842D01*
X18325225Y-14978842D02*
X18334749Y-14959794D01*
X18334749Y-14959794D02*
X18344273Y-14931223D01*
X18344273Y-14931223D02*
X18353797Y-14883604D01*
X18353797Y-14883604D02*
X18353797Y-14845509D01*
X18353797Y-14845509D02*
X18344273Y-14797890D01*
X18344273Y-14797890D02*
X18334749Y-14769318D01*
X18334749Y-14769318D02*
X18325225Y-14750271D01*
X18325225Y-14750271D02*
X18306178Y-14721699D01*
X18306178Y-14721699D02*
X18296654Y-14712175D01*
D13*
X11602067Y-15058263D02*
X11712067Y-15168263D01*
X11712067Y-15058263D02*
X11602067Y-15168263D01*
X11712067Y-15113263D02*
G75*
G02*
X11602067Y-15113263I-55000J0D01*
G01*
X11602067Y-15113263D02*
G75*
G02*
X11712067Y-15113263I55000J0D01*
G01*
D11*
X12077606Y-15204747D02*
X11963320Y-15204747D01*
X12020463Y-15204747D02*
X12020463Y-15004747D01*
X12020463Y-15004747D02*
X12001415Y-15033318D01*
X12001415Y-15033318D02*
X11982368Y-15052366D01*
X11982368Y-15052366D02*
X11963320Y-15061890D01*
X12163320Y-15185699D02*
X12172844Y-15195223D01*
X12172844Y-15195223D02*
X12163320Y-15204747D01*
X12163320Y-15204747D02*
X12153796Y-15195223D01*
X12153796Y-15195223D02*
X12163320Y-15185699D01*
X12163320Y-15185699D02*
X12163320Y-15204747D01*
X12363320Y-15204747D02*
X12249034Y-15204747D01*
X12306177Y-15204747D02*
X12306177Y-15004747D01*
X12306177Y-15004747D02*
X12287129Y-15033318D01*
X12287129Y-15033318D02*
X12268082Y-15052366D01*
X12268082Y-15052366D02*
X12249034Y-15061890D01*
X12487129Y-15004747D02*
X12506177Y-15004747D01*
X12506177Y-15004747D02*
X12525225Y-15014271D01*
X12525225Y-15014271D02*
X12534749Y-15023794D01*
X12534749Y-15023794D02*
X12544272Y-15042842D01*
X12544272Y-15042842D02*
X12553796Y-15080937D01*
X12553796Y-15080937D02*
X12553796Y-15128556D01*
X12553796Y-15128556D02*
X12544272Y-15166651D01*
X12544272Y-15166651D02*
X12534749Y-15185699D01*
X12534749Y-15185699D02*
X12525225Y-15195223D01*
X12525225Y-15195223D02*
X12506177Y-15204747D01*
X12506177Y-15204747D02*
X12487129Y-15204747D01*
X12487129Y-15204747D02*
X12468082Y-15195223D01*
X12468082Y-15195223D02*
X12458558Y-15185699D01*
X12458558Y-15185699D02*
X12449034Y-15166651D01*
X12449034Y-15166651D02*
X12439510Y-15128556D01*
X12439510Y-15128556D02*
X12439510Y-15080937D01*
X12439510Y-15080937D02*
X12449034Y-15042842D01*
X12449034Y-15042842D02*
X12458558Y-15023794D01*
X12458558Y-15023794D02*
X12468082Y-15014271D01*
X12468082Y-15014271D02*
X12487129Y-15004747D01*
X12677606Y-15004747D02*
X12696653Y-15004747D01*
X12696653Y-15004747D02*
X12715701Y-15014271D01*
X12715701Y-15014271D02*
X12725225Y-15023794D01*
X12725225Y-15023794D02*
X12734749Y-15042842D01*
X12734749Y-15042842D02*
X12744272Y-15080937D01*
X12744272Y-15080937D02*
X12744272Y-15128556D01*
X12744272Y-15128556D02*
X12734749Y-15166651D01*
X12734749Y-15166651D02*
X12725225Y-15185699D01*
X12725225Y-15185699D02*
X12715701Y-15195223D01*
X12715701Y-15195223D02*
X12696653Y-15204747D01*
X12696653Y-15204747D02*
X12677606Y-15204747D01*
X12677606Y-15204747D02*
X12658558Y-15195223D01*
X12658558Y-15195223D02*
X12649034Y-15185699D01*
X12649034Y-15185699D02*
X12639510Y-15166651D01*
X12639510Y-15166651D02*
X12629987Y-15128556D01*
X12629987Y-15128556D02*
X12629987Y-15080937D01*
X12629987Y-15080937D02*
X12639510Y-15042842D01*
X12639510Y-15042842D02*
X12649034Y-15023794D01*
X12649034Y-15023794D02*
X12658558Y-15014271D01*
X12658558Y-15014271D02*
X12677606Y-15004747D01*
X12829987Y-15204747D02*
X12829987Y-15071413D01*
X12829987Y-15090461D02*
X12839510Y-15080937D01*
X12839510Y-15080937D02*
X12858558Y-15071413D01*
X12858558Y-15071413D02*
X12887130Y-15071413D01*
X12887130Y-15071413D02*
X12906177Y-15080937D01*
X12906177Y-15080937D02*
X12915701Y-15099985D01*
X12915701Y-15099985D02*
X12915701Y-15204747D01*
X12915701Y-15099985D02*
X12925225Y-15080937D01*
X12925225Y-15080937D02*
X12944272Y-15071413D01*
X12944272Y-15071413D02*
X12972844Y-15071413D01*
X12972844Y-15071413D02*
X12991891Y-15080937D01*
X12991891Y-15080937D02*
X13001415Y-15099985D01*
X13001415Y-15099985D02*
X13001415Y-15204747D01*
X13096653Y-15204747D02*
X13096653Y-15071413D01*
X13096653Y-15090461D02*
X13106177Y-15080937D01*
X13106177Y-15080937D02*
X13125225Y-15071413D01*
X13125225Y-15071413D02*
X13153796Y-15071413D01*
X13153796Y-15071413D02*
X13172844Y-15080937D01*
X13172844Y-15080937D02*
X13182368Y-15099985D01*
X13182368Y-15099985D02*
X13182368Y-15204747D01*
X13182368Y-15099985D02*
X13191891Y-15080937D01*
X13191891Y-15080937D02*
X13210939Y-15071413D01*
X13210939Y-15071413D02*
X13239510Y-15071413D01*
X13239510Y-15071413D02*
X13258558Y-15080937D01*
X13258558Y-15080937D02*
X13268082Y-15099985D01*
X13268082Y-15099985D02*
X13268082Y-15204747D01*
X13658558Y-14995223D02*
X13487130Y-15252366D01*
X13915701Y-15004747D02*
X13934749Y-15004747D01*
X13934749Y-15004747D02*
X13953796Y-15014271D01*
X13953796Y-15014271D02*
X13963320Y-15023794D01*
X13963320Y-15023794D02*
X13972844Y-15042842D01*
X13972844Y-15042842D02*
X13982368Y-15080937D01*
X13982368Y-15080937D02*
X13982368Y-15128556D01*
X13982368Y-15128556D02*
X13972844Y-15166651D01*
X13972844Y-15166651D02*
X13963320Y-15185699D01*
X13963320Y-15185699D02*
X13953796Y-15195223D01*
X13953796Y-15195223D02*
X13934749Y-15204747D01*
X13934749Y-15204747D02*
X13915701Y-15204747D01*
X13915701Y-15204747D02*
X13896653Y-15195223D01*
X13896653Y-15195223D02*
X13887130Y-15185699D01*
X13887130Y-15185699D02*
X13877606Y-15166651D01*
X13877606Y-15166651D02*
X13868082Y-15128556D01*
X13868082Y-15128556D02*
X13868082Y-15080937D01*
X13868082Y-15080937D02*
X13877606Y-15042842D01*
X13877606Y-15042842D02*
X13887130Y-15023794D01*
X13887130Y-15023794D02*
X13896653Y-15014271D01*
X13896653Y-15014271D02*
X13915701Y-15004747D01*
X14068082Y-15185699D02*
X14077606Y-15195223D01*
X14077606Y-15195223D02*
X14068082Y-15204747D01*
X14068082Y-15204747D02*
X14058558Y-15195223D01*
X14058558Y-15195223D02*
X14068082Y-15185699D01*
X14068082Y-15185699D02*
X14068082Y-15204747D01*
X14201415Y-15004747D02*
X14220463Y-15004747D01*
X14220463Y-15004747D02*
X14239511Y-15014271D01*
X14239511Y-15014271D02*
X14249034Y-15023794D01*
X14249034Y-15023794D02*
X14258558Y-15042842D01*
X14258558Y-15042842D02*
X14268082Y-15080937D01*
X14268082Y-15080937D02*
X14268082Y-15128556D01*
X14268082Y-15128556D02*
X14258558Y-15166651D01*
X14258558Y-15166651D02*
X14249034Y-15185699D01*
X14249034Y-15185699D02*
X14239511Y-15195223D01*
X14239511Y-15195223D02*
X14220463Y-15204747D01*
X14220463Y-15204747D02*
X14201415Y-15204747D01*
X14201415Y-15204747D02*
X14182368Y-15195223D01*
X14182368Y-15195223D02*
X14172844Y-15185699D01*
X14172844Y-15185699D02*
X14163320Y-15166651D01*
X14163320Y-15166651D02*
X14153796Y-15128556D01*
X14153796Y-15128556D02*
X14153796Y-15080937D01*
X14153796Y-15080937D02*
X14163320Y-15042842D01*
X14163320Y-15042842D02*
X14172844Y-15023794D01*
X14172844Y-15023794D02*
X14182368Y-15014271D01*
X14182368Y-15014271D02*
X14201415Y-15004747D01*
X14439511Y-15071413D02*
X14439511Y-15204747D01*
X14391892Y-14995223D02*
X14344273Y-15138080D01*
X14344273Y-15138080D02*
X14468082Y-15138080D01*
X14525225Y-15004747D02*
X14649034Y-15004747D01*
X14649034Y-15004747D02*
X14582368Y-15080937D01*
X14582368Y-15080937D02*
X14610939Y-15080937D01*
X14610939Y-15080937D02*
X14629987Y-15090461D01*
X14629987Y-15090461D02*
X14639511Y-15099985D01*
X14639511Y-15099985D02*
X14649034Y-15119032D01*
X14649034Y-15119032D02*
X14649034Y-15166651D01*
X14649034Y-15166651D02*
X14639511Y-15185699D01*
X14639511Y-15185699D02*
X14629987Y-15195223D01*
X14629987Y-15195223D02*
X14610939Y-15204747D01*
X14610939Y-15204747D02*
X14553796Y-15204747D01*
X14553796Y-15204747D02*
X14534749Y-15195223D01*
X14534749Y-15195223D02*
X14525225Y-15185699D01*
X14715701Y-15004747D02*
X14839511Y-15004747D01*
X14839511Y-15004747D02*
X14772844Y-15080937D01*
X14772844Y-15080937D02*
X14801415Y-15080937D01*
X14801415Y-15080937D02*
X14820463Y-15090461D01*
X14820463Y-15090461D02*
X14829987Y-15099985D01*
X14829987Y-15099985D02*
X14839511Y-15119032D01*
X14839511Y-15119032D02*
X14839511Y-15166651D01*
X14839511Y-15166651D02*
X14829987Y-15185699D01*
X14829987Y-15185699D02*
X14820463Y-15195223D01*
X14820463Y-15195223D02*
X14801415Y-15204747D01*
X14801415Y-15204747D02*
X14744273Y-15204747D01*
X14744273Y-15204747D02*
X14725225Y-15195223D01*
X14725225Y-15195223D02*
X14715701Y-15185699D01*
X14915701Y-15004747D02*
X14915701Y-15042842D01*
X14991892Y-15004747D02*
X14991892Y-15042842D01*
X15287130Y-15280937D02*
X15277606Y-15271413D01*
X15277606Y-15271413D02*
X15258558Y-15242842D01*
X15258558Y-15242842D02*
X15249035Y-15223794D01*
X15249035Y-15223794D02*
X15239511Y-15195223D01*
X15239511Y-15195223D02*
X15229987Y-15147604D01*
X15229987Y-15147604D02*
X15229987Y-15109509D01*
X15229987Y-15109509D02*
X15239511Y-15061890D01*
X15239511Y-15061890D02*
X15249035Y-15033318D01*
X15249035Y-15033318D02*
X15258558Y-15014271D01*
X15258558Y-15014271D02*
X15277606Y-14985699D01*
X15277606Y-14985699D02*
X15287130Y-14976175D01*
X15353796Y-15023794D02*
X15363320Y-15014271D01*
X15363320Y-15014271D02*
X15382368Y-15004747D01*
X15382368Y-15004747D02*
X15429987Y-15004747D01*
X15429987Y-15004747D02*
X15449035Y-15014271D01*
X15449035Y-15014271D02*
X15458558Y-15023794D01*
X15458558Y-15023794D02*
X15468082Y-15042842D01*
X15468082Y-15042842D02*
X15468082Y-15061890D01*
X15468082Y-15061890D02*
X15458558Y-15090461D01*
X15458558Y-15090461D02*
X15344273Y-15204747D01*
X15344273Y-15204747D02*
X15468082Y-15204747D01*
X15639511Y-15071413D02*
X15639511Y-15204747D01*
X15591892Y-14995223D02*
X15544273Y-15138080D01*
X15544273Y-15138080D02*
X15668082Y-15138080D01*
X15896654Y-15204747D02*
X15896654Y-15004747D01*
X15982368Y-15204747D02*
X15982368Y-15099985D01*
X15982368Y-15099985D02*
X15972844Y-15080937D01*
X15972844Y-15080937D02*
X15953797Y-15071413D01*
X15953797Y-15071413D02*
X15925225Y-15071413D01*
X15925225Y-15071413D02*
X15906177Y-15080937D01*
X15906177Y-15080937D02*
X15896654Y-15090461D01*
X16106177Y-15204747D02*
X16087130Y-15195223D01*
X16087130Y-15195223D02*
X16077606Y-15185699D01*
X16077606Y-15185699D02*
X16068082Y-15166651D01*
X16068082Y-15166651D02*
X16068082Y-15109509D01*
X16068082Y-15109509D02*
X16077606Y-15090461D01*
X16077606Y-15090461D02*
X16087130Y-15080937D01*
X16087130Y-15080937D02*
X16106177Y-15071413D01*
X16106177Y-15071413D02*
X16134749Y-15071413D01*
X16134749Y-15071413D02*
X16153797Y-15080937D01*
X16153797Y-15080937D02*
X16163320Y-15090461D01*
X16163320Y-15090461D02*
X16172844Y-15109509D01*
X16172844Y-15109509D02*
X16172844Y-15166651D01*
X16172844Y-15166651D02*
X16163320Y-15185699D01*
X16163320Y-15185699D02*
X16153797Y-15195223D01*
X16153797Y-15195223D02*
X16134749Y-15204747D01*
X16134749Y-15204747D02*
X16106177Y-15204747D01*
X16287130Y-15204747D02*
X16268082Y-15195223D01*
X16268082Y-15195223D02*
X16258558Y-15176175D01*
X16258558Y-15176175D02*
X16258558Y-15004747D01*
X16439511Y-15195223D02*
X16420463Y-15204747D01*
X16420463Y-15204747D02*
X16382368Y-15204747D01*
X16382368Y-15204747D02*
X16363320Y-15195223D01*
X16363320Y-15195223D02*
X16353797Y-15176175D01*
X16353797Y-15176175D02*
X16353797Y-15099985D01*
X16353797Y-15099985D02*
X16363320Y-15080937D01*
X16363320Y-15080937D02*
X16382368Y-15071413D01*
X16382368Y-15071413D02*
X16420463Y-15071413D01*
X16420463Y-15071413D02*
X16439511Y-15080937D01*
X16439511Y-15080937D02*
X16449035Y-15099985D01*
X16449035Y-15099985D02*
X16449035Y-15119032D01*
X16449035Y-15119032D02*
X16353797Y-15138080D01*
X16525225Y-15195223D02*
X16544273Y-15204747D01*
X16544273Y-15204747D02*
X16582368Y-15204747D01*
X16582368Y-15204747D02*
X16601416Y-15195223D01*
X16601416Y-15195223D02*
X16610939Y-15176175D01*
X16610939Y-15176175D02*
X16610939Y-15166651D01*
X16610939Y-15166651D02*
X16601416Y-15147604D01*
X16601416Y-15147604D02*
X16582368Y-15138080D01*
X16582368Y-15138080D02*
X16553797Y-15138080D01*
X16553797Y-15138080D02*
X16534749Y-15128556D01*
X16534749Y-15128556D02*
X16525225Y-15109509D01*
X16525225Y-15109509D02*
X16525225Y-15099985D01*
X16525225Y-15099985D02*
X16534749Y-15080937D01*
X16534749Y-15080937D02*
X16553797Y-15071413D01*
X16553797Y-15071413D02*
X16582368Y-15071413D01*
X16582368Y-15071413D02*
X16601416Y-15080937D01*
X16677606Y-15280937D02*
X16687130Y-15271413D01*
X16687130Y-15271413D02*
X16706178Y-15242842D01*
X16706178Y-15242842D02*
X16715701Y-15223794D01*
X16715701Y-15223794D02*
X16725225Y-15195223D01*
X16725225Y-15195223D02*
X16734749Y-15147604D01*
X16734749Y-15147604D02*
X16734749Y-15109509D01*
X16734749Y-15109509D02*
X16725225Y-15061890D01*
X16725225Y-15061890D02*
X16715701Y-15033318D01*
X16715701Y-15033318D02*
X16706178Y-15014271D01*
X16706178Y-15014271D02*
X16687130Y-14985699D01*
X16687130Y-14985699D02*
X16677606Y-14976175D01*
D14*
X11582067Y-15312263D02*
X11712067Y-15442263D01*
X11712067Y-15312263D02*
X11582067Y-15442263D01*
X11647067Y-15312263D02*
X11647067Y-15442263D01*
X11582067Y-15377263D02*
X11712067Y-15377263D01*
D11*
X12077606Y-15468747D02*
X11963320Y-15468747D01*
X12020463Y-15468747D02*
X12020463Y-15268747D01*
X12020463Y-15268747D02*
X12001415Y-15297318D01*
X12001415Y-15297318D02*
X11982368Y-15316366D01*
X11982368Y-15316366D02*
X11963320Y-15325890D01*
X12163320Y-15449699D02*
X12172844Y-15459223D01*
X12172844Y-15459223D02*
X12163320Y-15468747D01*
X12163320Y-15468747D02*
X12153796Y-15459223D01*
X12153796Y-15459223D02*
X12163320Y-15449699D01*
X12163320Y-15449699D02*
X12163320Y-15468747D01*
X12239510Y-15268747D02*
X12363320Y-15268747D01*
X12363320Y-15268747D02*
X12296653Y-15344937D01*
X12296653Y-15344937D02*
X12325225Y-15344937D01*
X12325225Y-15344937D02*
X12344272Y-15354461D01*
X12344272Y-15354461D02*
X12353796Y-15363985D01*
X12353796Y-15363985D02*
X12363320Y-15383032D01*
X12363320Y-15383032D02*
X12363320Y-15430651D01*
X12363320Y-15430651D02*
X12353796Y-15449699D01*
X12353796Y-15449699D02*
X12344272Y-15459223D01*
X12344272Y-15459223D02*
X12325225Y-15468747D01*
X12325225Y-15468747D02*
X12268082Y-15468747D01*
X12268082Y-15468747D02*
X12249034Y-15459223D01*
X12249034Y-15459223D02*
X12239510Y-15449699D01*
X12487129Y-15268747D02*
X12506177Y-15268747D01*
X12506177Y-15268747D02*
X12525225Y-15278271D01*
X12525225Y-15278271D02*
X12534749Y-15287794D01*
X12534749Y-15287794D02*
X12544272Y-15306842D01*
X12544272Y-15306842D02*
X12553796Y-15344937D01*
X12553796Y-15344937D02*
X12553796Y-15392556D01*
X12553796Y-15392556D02*
X12544272Y-15430651D01*
X12544272Y-15430651D02*
X12534749Y-15449699D01*
X12534749Y-15449699D02*
X12525225Y-15459223D01*
X12525225Y-15459223D02*
X12506177Y-15468747D01*
X12506177Y-15468747D02*
X12487129Y-15468747D01*
X12487129Y-15468747D02*
X12468082Y-15459223D01*
X12468082Y-15459223D02*
X12458558Y-15449699D01*
X12458558Y-15449699D02*
X12449034Y-15430651D01*
X12449034Y-15430651D02*
X12439510Y-15392556D01*
X12439510Y-15392556D02*
X12439510Y-15344937D01*
X12439510Y-15344937D02*
X12449034Y-15306842D01*
X12449034Y-15306842D02*
X12458558Y-15287794D01*
X12458558Y-15287794D02*
X12468082Y-15278271D01*
X12468082Y-15278271D02*
X12487129Y-15268747D01*
X12677606Y-15268747D02*
X12696653Y-15268747D01*
X12696653Y-15268747D02*
X12715701Y-15278271D01*
X12715701Y-15278271D02*
X12725225Y-15287794D01*
X12725225Y-15287794D02*
X12734749Y-15306842D01*
X12734749Y-15306842D02*
X12744272Y-15344937D01*
X12744272Y-15344937D02*
X12744272Y-15392556D01*
X12744272Y-15392556D02*
X12734749Y-15430651D01*
X12734749Y-15430651D02*
X12725225Y-15449699D01*
X12725225Y-15449699D02*
X12715701Y-15459223D01*
X12715701Y-15459223D02*
X12696653Y-15468747D01*
X12696653Y-15468747D02*
X12677606Y-15468747D01*
X12677606Y-15468747D02*
X12658558Y-15459223D01*
X12658558Y-15459223D02*
X12649034Y-15449699D01*
X12649034Y-15449699D02*
X12639510Y-15430651D01*
X12639510Y-15430651D02*
X12629987Y-15392556D01*
X12629987Y-15392556D02*
X12629987Y-15344937D01*
X12629987Y-15344937D02*
X12639510Y-15306842D01*
X12639510Y-15306842D02*
X12649034Y-15287794D01*
X12649034Y-15287794D02*
X12658558Y-15278271D01*
X12658558Y-15278271D02*
X12677606Y-15268747D01*
X12829987Y-15468747D02*
X12829987Y-15335413D01*
X12829987Y-15354461D02*
X12839510Y-15344937D01*
X12839510Y-15344937D02*
X12858558Y-15335413D01*
X12858558Y-15335413D02*
X12887130Y-15335413D01*
X12887130Y-15335413D02*
X12906177Y-15344937D01*
X12906177Y-15344937D02*
X12915701Y-15363985D01*
X12915701Y-15363985D02*
X12915701Y-15468747D01*
X12915701Y-15363985D02*
X12925225Y-15344937D01*
X12925225Y-15344937D02*
X12944272Y-15335413D01*
X12944272Y-15335413D02*
X12972844Y-15335413D01*
X12972844Y-15335413D02*
X12991891Y-15344937D01*
X12991891Y-15344937D02*
X13001415Y-15363985D01*
X13001415Y-15363985D02*
X13001415Y-15468747D01*
X13096653Y-15468747D02*
X13096653Y-15335413D01*
X13096653Y-15354461D02*
X13106177Y-15344937D01*
X13106177Y-15344937D02*
X13125225Y-15335413D01*
X13125225Y-15335413D02*
X13153796Y-15335413D01*
X13153796Y-15335413D02*
X13172844Y-15344937D01*
X13172844Y-15344937D02*
X13182368Y-15363985D01*
X13182368Y-15363985D02*
X13182368Y-15468747D01*
X13182368Y-15363985D02*
X13191891Y-15344937D01*
X13191891Y-15344937D02*
X13210939Y-15335413D01*
X13210939Y-15335413D02*
X13239510Y-15335413D01*
X13239510Y-15335413D02*
X13258558Y-15344937D01*
X13258558Y-15344937D02*
X13268082Y-15363985D01*
X13268082Y-15363985D02*
X13268082Y-15468747D01*
X13658558Y-15259223D02*
X13487130Y-15516366D01*
X13915701Y-15268747D02*
X13934749Y-15268747D01*
X13934749Y-15268747D02*
X13953796Y-15278271D01*
X13953796Y-15278271D02*
X13963320Y-15287794D01*
X13963320Y-15287794D02*
X13972844Y-15306842D01*
X13972844Y-15306842D02*
X13982368Y-15344937D01*
X13982368Y-15344937D02*
X13982368Y-15392556D01*
X13982368Y-15392556D02*
X13972844Y-15430651D01*
X13972844Y-15430651D02*
X13963320Y-15449699D01*
X13963320Y-15449699D02*
X13953796Y-15459223D01*
X13953796Y-15459223D02*
X13934749Y-15468747D01*
X13934749Y-15468747D02*
X13915701Y-15468747D01*
X13915701Y-15468747D02*
X13896653Y-15459223D01*
X13896653Y-15459223D02*
X13887130Y-15449699D01*
X13887130Y-15449699D02*
X13877606Y-15430651D01*
X13877606Y-15430651D02*
X13868082Y-15392556D01*
X13868082Y-15392556D02*
X13868082Y-15344937D01*
X13868082Y-15344937D02*
X13877606Y-15306842D01*
X13877606Y-15306842D02*
X13887130Y-15287794D01*
X13887130Y-15287794D02*
X13896653Y-15278271D01*
X13896653Y-15278271D02*
X13915701Y-15268747D01*
X14068082Y-15449699D02*
X14077606Y-15459223D01*
X14077606Y-15459223D02*
X14068082Y-15468747D01*
X14068082Y-15468747D02*
X14058558Y-15459223D01*
X14058558Y-15459223D02*
X14068082Y-15449699D01*
X14068082Y-15449699D02*
X14068082Y-15468747D01*
X14201415Y-15268747D02*
X14220463Y-15268747D01*
X14220463Y-15268747D02*
X14239511Y-15278271D01*
X14239511Y-15278271D02*
X14249034Y-15287794D01*
X14249034Y-15287794D02*
X14258558Y-15306842D01*
X14258558Y-15306842D02*
X14268082Y-15344937D01*
X14268082Y-15344937D02*
X14268082Y-15392556D01*
X14268082Y-15392556D02*
X14258558Y-15430651D01*
X14258558Y-15430651D02*
X14249034Y-15449699D01*
X14249034Y-15449699D02*
X14239511Y-15459223D01*
X14239511Y-15459223D02*
X14220463Y-15468747D01*
X14220463Y-15468747D02*
X14201415Y-15468747D01*
X14201415Y-15468747D02*
X14182368Y-15459223D01*
X14182368Y-15459223D02*
X14172844Y-15449699D01*
X14172844Y-15449699D02*
X14163320Y-15430651D01*
X14163320Y-15430651D02*
X14153796Y-15392556D01*
X14153796Y-15392556D02*
X14153796Y-15344937D01*
X14153796Y-15344937D02*
X14163320Y-15306842D01*
X14163320Y-15306842D02*
X14172844Y-15287794D01*
X14172844Y-15287794D02*
X14182368Y-15278271D01*
X14182368Y-15278271D02*
X14201415Y-15268747D01*
X14449034Y-15268747D02*
X14353796Y-15268747D01*
X14353796Y-15268747D02*
X14344273Y-15363985D01*
X14344273Y-15363985D02*
X14353796Y-15354461D01*
X14353796Y-15354461D02*
X14372844Y-15344937D01*
X14372844Y-15344937D02*
X14420463Y-15344937D01*
X14420463Y-15344937D02*
X14439511Y-15354461D01*
X14439511Y-15354461D02*
X14449034Y-15363985D01*
X14449034Y-15363985D02*
X14458558Y-15383032D01*
X14458558Y-15383032D02*
X14458558Y-15430651D01*
X14458558Y-15430651D02*
X14449034Y-15449699D01*
X14449034Y-15449699D02*
X14439511Y-15459223D01*
X14439511Y-15459223D02*
X14420463Y-15468747D01*
X14420463Y-15468747D02*
X14372844Y-15468747D01*
X14372844Y-15468747D02*
X14353796Y-15459223D01*
X14353796Y-15459223D02*
X14344273Y-15449699D01*
X14649034Y-15468747D02*
X14534749Y-15468747D01*
X14591892Y-15468747D02*
X14591892Y-15268747D01*
X14591892Y-15268747D02*
X14572844Y-15297318D01*
X14572844Y-15297318D02*
X14553796Y-15316366D01*
X14553796Y-15316366D02*
X14534749Y-15325890D01*
X14725225Y-15287794D02*
X14734749Y-15278271D01*
X14734749Y-15278271D02*
X14753796Y-15268747D01*
X14753796Y-15268747D02*
X14801415Y-15268747D01*
X14801415Y-15268747D02*
X14820463Y-15278271D01*
X14820463Y-15278271D02*
X14829987Y-15287794D01*
X14829987Y-15287794D02*
X14839511Y-15306842D01*
X14839511Y-15306842D02*
X14839511Y-15325890D01*
X14839511Y-15325890D02*
X14829987Y-15354461D01*
X14829987Y-15354461D02*
X14715701Y-15468747D01*
X14715701Y-15468747D02*
X14839511Y-15468747D01*
X14915701Y-15268747D02*
X14915701Y-15306842D01*
X14991892Y-15268747D02*
X14991892Y-15306842D01*
X15287130Y-15544937D02*
X15277606Y-15535413D01*
X15277606Y-15535413D02*
X15258558Y-15506842D01*
X15258558Y-15506842D02*
X15249035Y-15487794D01*
X15249035Y-15487794D02*
X15239511Y-15459223D01*
X15239511Y-15459223D02*
X15229987Y-15411604D01*
X15229987Y-15411604D02*
X15229987Y-15373509D01*
X15229987Y-15373509D02*
X15239511Y-15325890D01*
X15239511Y-15325890D02*
X15249035Y-15297318D01*
X15249035Y-15297318D02*
X15258558Y-15278271D01*
X15258558Y-15278271D02*
X15277606Y-15249699D01*
X15277606Y-15249699D02*
X15287130Y-15240175D01*
X15353796Y-15287794D02*
X15363320Y-15278271D01*
X15363320Y-15278271D02*
X15382368Y-15268747D01*
X15382368Y-15268747D02*
X15429987Y-15268747D01*
X15429987Y-15268747D02*
X15449035Y-15278271D01*
X15449035Y-15278271D02*
X15458558Y-15287794D01*
X15458558Y-15287794D02*
X15468082Y-15306842D01*
X15468082Y-15306842D02*
X15468082Y-15325890D01*
X15468082Y-15325890D02*
X15458558Y-15354461D01*
X15458558Y-15354461D02*
X15344273Y-15468747D01*
X15344273Y-15468747D02*
X15468082Y-15468747D01*
X15706177Y-15468747D02*
X15706177Y-15268747D01*
X15791892Y-15468747D02*
X15791892Y-15363985D01*
X15791892Y-15363985D02*
X15782368Y-15344937D01*
X15782368Y-15344937D02*
X15763320Y-15335413D01*
X15763320Y-15335413D02*
X15734749Y-15335413D01*
X15734749Y-15335413D02*
X15715701Y-15344937D01*
X15715701Y-15344937D02*
X15706177Y-15354461D01*
X15915701Y-15468747D02*
X15896654Y-15459223D01*
X15896654Y-15459223D02*
X15887130Y-15449699D01*
X15887130Y-15449699D02*
X15877606Y-15430651D01*
X15877606Y-15430651D02*
X15877606Y-15373509D01*
X15877606Y-15373509D02*
X15887130Y-15354461D01*
X15887130Y-15354461D02*
X15896654Y-15344937D01*
X15896654Y-15344937D02*
X15915701Y-15335413D01*
X15915701Y-15335413D02*
X15944273Y-15335413D01*
X15944273Y-15335413D02*
X15963320Y-15344937D01*
X15963320Y-15344937D02*
X15972844Y-15354461D01*
X15972844Y-15354461D02*
X15982368Y-15373509D01*
X15982368Y-15373509D02*
X15982368Y-15430651D01*
X15982368Y-15430651D02*
X15972844Y-15449699D01*
X15972844Y-15449699D02*
X15963320Y-15459223D01*
X15963320Y-15459223D02*
X15944273Y-15468747D01*
X15944273Y-15468747D02*
X15915701Y-15468747D01*
X16096654Y-15468747D02*
X16077606Y-15459223D01*
X16077606Y-15459223D02*
X16068082Y-15440175D01*
X16068082Y-15440175D02*
X16068082Y-15268747D01*
X16249035Y-15459223D02*
X16229987Y-15468747D01*
X16229987Y-15468747D02*
X16191892Y-15468747D01*
X16191892Y-15468747D02*
X16172844Y-15459223D01*
X16172844Y-15459223D02*
X16163320Y-15440175D01*
X16163320Y-15440175D02*
X16163320Y-15363985D01*
X16163320Y-15363985D02*
X16172844Y-15344937D01*
X16172844Y-15344937D02*
X16191892Y-15335413D01*
X16191892Y-15335413D02*
X16229987Y-15335413D01*
X16229987Y-15335413D02*
X16249035Y-15344937D01*
X16249035Y-15344937D02*
X16258558Y-15363985D01*
X16258558Y-15363985D02*
X16258558Y-15383032D01*
X16258558Y-15383032D02*
X16163320Y-15402080D01*
X16334749Y-15459223D02*
X16353797Y-15468747D01*
X16353797Y-15468747D02*
X16391892Y-15468747D01*
X16391892Y-15468747D02*
X16410939Y-15459223D01*
X16410939Y-15459223D02*
X16420463Y-15440175D01*
X16420463Y-15440175D02*
X16420463Y-15430651D01*
X16420463Y-15430651D02*
X16410939Y-15411604D01*
X16410939Y-15411604D02*
X16391892Y-15402080D01*
X16391892Y-15402080D02*
X16363320Y-15402080D01*
X16363320Y-15402080D02*
X16344273Y-15392556D01*
X16344273Y-15392556D02*
X16334749Y-15373509D01*
X16334749Y-15373509D02*
X16334749Y-15363985D01*
X16334749Y-15363985D02*
X16344273Y-15344937D01*
X16344273Y-15344937D02*
X16363320Y-15335413D01*
X16363320Y-15335413D02*
X16391892Y-15335413D01*
X16391892Y-15335413D02*
X16410939Y-15344937D01*
X16487130Y-15544937D02*
X16496654Y-15535413D01*
X16496654Y-15535413D02*
X16515701Y-15506842D01*
X16515701Y-15506842D02*
X16525225Y-15487794D01*
X16525225Y-15487794D02*
X16534749Y-15459223D01*
X16534749Y-15459223D02*
X16544273Y-15411604D01*
X16544273Y-15411604D02*
X16544273Y-15373509D01*
X16544273Y-15373509D02*
X16534749Y-15325890D01*
X16534749Y-15325890D02*
X16525225Y-15297318D01*
X16525225Y-15297318D02*
X16515701Y-15278271D01*
X16515701Y-15278271D02*
X16496654Y-15249699D01*
X16496654Y-15249699D02*
X16487130Y-15240175D01*
M02*
