%TF.GenerationSoftware,KiCad,Pcbnew,8.0.4*%
%TF.CreationDate,2024-07-27T17:05:49-04:00*%
%TF.ProjectId,CBM-SD,43424d2d-5344-42e6-9b69-6361645f7063,rev?*%
%TF.SameCoordinates,Original*%
%TF.FileFunction,Drillmap*%
%TF.FilePolarity,Positive*%
%FSLAX45Y45*%
G04 Gerber Fmt 4.5, Leading zero omitted, Abs format (unit mm)*
G04 Created by KiCad (PCBNEW 8.0.4) date 2024-07-27 17:05:49*
%MOMM*%
%LPD*%
G01*
G04 APERTURE LIST*
%ADD10C,0.200660*%
%ADD11C,0.200000*%
G04 APERTURE END LIST*
D10*
X19215100Y-6578600D02*
X19215100Y-11410950D01*
X19215100Y-11410950D02*
X19215100Y-12014200D01*
X12940030Y-13143230D02*
X13505180Y-13143230D01*
X17715230Y-13003530D02*
X17715230Y-12019280D01*
X13892530Y-13143230D02*
X16280130Y-13143230D01*
X16667480Y-13143230D02*
X17575530Y-13143230D01*
X16527780Y-13003530D02*
X16527780Y-12235180D01*
X13644880Y-12241530D02*
X13644880Y-13003530D01*
X13892530Y-13143230D02*
G75*
G02*
X13752830Y-13003530I0J139700D01*
G01*
X16527780Y-12235180D02*
X16419830Y-12235180D01*
X13644880Y-13003530D02*
G75*
G02*
X13505180Y-13143230I-139700J0D01*
G01*
X13644880Y-12241530D02*
X13752830Y-12241530D01*
X16419830Y-12235180D02*
X16419830Y-13003530D01*
X17715230Y-13003530D02*
G75*
G02*
X17575530Y-13143230I-139700J0D01*
G01*
X16419830Y-13003530D02*
G75*
G02*
X16280130Y-13143230I-139700J0D01*
G01*
X13752830Y-13003530D02*
X13752830Y-12241530D01*
X16667480Y-13143230D02*
G75*
G02*
X16527780Y-13003530I0J139700D01*
G01*
X12940030Y-13143230D02*
G75*
G02*
X12800330Y-13003530I0J139700D01*
G01*
X17715230Y-12014200D02*
X17715230Y-12019280D01*
X11722100Y-12023090D02*
X11722100Y-6578600D01*
X19215100Y-6578600D02*
X11722100Y-6578600D01*
X19215100Y-12014200D02*
X18116550Y-12014200D01*
X12176223Y-6867500D02*
G75*
G02*
X11838777Y-6867500I-168723J0D01*
G01*
X11838777Y-6867500D02*
G75*
G02*
X12176223Y-6867500I168723J0D01*
G01*
X12176223Y-11734800D02*
G75*
G02*
X11838777Y-11734800I-168723J0D01*
G01*
X11838777Y-11734800D02*
G75*
G02*
X12176223Y-11734800I168723J0D01*
G01*
X12800330Y-12023090D02*
X11722100Y-12023090D01*
X12779823Y-11734800D02*
G75*
G02*
X12442377Y-11734800I-168723J0D01*
G01*
X12442377Y-11734800D02*
G75*
G02*
X12779823Y-11734800I168723J0D01*
G01*
X13745023Y-11391900D02*
G75*
G02*
X13407577Y-11391900I-168723J0D01*
G01*
X13407577Y-11391900D02*
G75*
G02*
X13745023Y-11391900I168723J0D01*
G01*
X18116550Y-12014200D02*
X17715230Y-12014200D01*
X12800330Y-13003530D02*
X12800330Y-12023090D01*
X19088723Y-6862500D02*
G75*
G02*
X18751277Y-6862500I-168723J0D01*
G01*
X18751277Y-6862500D02*
G75*
G02*
X19088723Y-6862500I168723J0D01*
G01*
X19088723Y-11734800D02*
G75*
G02*
X18751277Y-11734800I-168723J0D01*
G01*
X18751277Y-11734800D02*
G75*
G02*
X19088723Y-11734800I168723J0D01*
G01*
D11*
X11972844Y-13464747D02*
X11972844Y-13264747D01*
X11972844Y-13264747D02*
X12020463Y-13264747D01*
X12020463Y-13264747D02*
X12049034Y-13274271D01*
X12049034Y-13274271D02*
X12068082Y-13293318D01*
X12068082Y-13293318D02*
X12077606Y-13312366D01*
X12077606Y-13312366D02*
X12087129Y-13350461D01*
X12087129Y-13350461D02*
X12087129Y-13379032D01*
X12087129Y-13379032D02*
X12077606Y-13417128D01*
X12077606Y-13417128D02*
X12068082Y-13436175D01*
X12068082Y-13436175D02*
X12049034Y-13455223D01*
X12049034Y-13455223D02*
X12020463Y-13464747D01*
X12020463Y-13464747D02*
X11972844Y-13464747D01*
X12172844Y-13464747D02*
X12172844Y-13331413D01*
X12172844Y-13369509D02*
X12182368Y-13350461D01*
X12182368Y-13350461D02*
X12191891Y-13340937D01*
X12191891Y-13340937D02*
X12210939Y-13331413D01*
X12210939Y-13331413D02*
X12229987Y-13331413D01*
X12296653Y-13464747D02*
X12296653Y-13331413D01*
X12296653Y-13264747D02*
X12287129Y-13274271D01*
X12287129Y-13274271D02*
X12296653Y-13283794D01*
X12296653Y-13283794D02*
X12306177Y-13274271D01*
X12306177Y-13274271D02*
X12296653Y-13264747D01*
X12296653Y-13264747D02*
X12296653Y-13283794D01*
X12420463Y-13464747D02*
X12401415Y-13455223D01*
X12401415Y-13455223D02*
X12391891Y-13436175D01*
X12391891Y-13436175D02*
X12391891Y-13264747D01*
X12525225Y-13464747D02*
X12506177Y-13455223D01*
X12506177Y-13455223D02*
X12496653Y-13436175D01*
X12496653Y-13436175D02*
X12496653Y-13264747D01*
X12753796Y-13464747D02*
X12753796Y-13264747D01*
X12753796Y-13264747D02*
X12820463Y-13407604D01*
X12820463Y-13407604D02*
X12887129Y-13264747D01*
X12887129Y-13264747D02*
X12887129Y-13464747D01*
X13068082Y-13464747D02*
X13068082Y-13359985D01*
X13068082Y-13359985D02*
X13058558Y-13340937D01*
X13058558Y-13340937D02*
X13039510Y-13331413D01*
X13039510Y-13331413D02*
X13001415Y-13331413D01*
X13001415Y-13331413D02*
X12982368Y-13340937D01*
X13068082Y-13455223D02*
X13049034Y-13464747D01*
X13049034Y-13464747D02*
X13001415Y-13464747D01*
X13001415Y-13464747D02*
X12982368Y-13455223D01*
X12982368Y-13455223D02*
X12972844Y-13436175D01*
X12972844Y-13436175D02*
X12972844Y-13417128D01*
X12972844Y-13417128D02*
X12982368Y-13398080D01*
X12982368Y-13398080D02*
X13001415Y-13388556D01*
X13001415Y-13388556D02*
X13049034Y-13388556D01*
X13049034Y-13388556D02*
X13068082Y-13379032D01*
X13163320Y-13331413D02*
X13163320Y-13531413D01*
X13163320Y-13340937D02*
X13182368Y-13331413D01*
X13182368Y-13331413D02*
X13220463Y-13331413D01*
X13220463Y-13331413D02*
X13239510Y-13340937D01*
X13239510Y-13340937D02*
X13249034Y-13350461D01*
X13249034Y-13350461D02*
X13258558Y-13369509D01*
X13258558Y-13369509D02*
X13258558Y-13426651D01*
X13258558Y-13426651D02*
X13249034Y-13445699D01*
X13249034Y-13445699D02*
X13239510Y-13455223D01*
X13239510Y-13455223D02*
X13220463Y-13464747D01*
X13220463Y-13464747D02*
X13182368Y-13464747D01*
X13182368Y-13464747D02*
X13163320Y-13455223D01*
X13344272Y-13445699D02*
X13353796Y-13455223D01*
X13353796Y-13455223D02*
X13344272Y-13464747D01*
X13344272Y-13464747D02*
X13334749Y-13455223D01*
X13334749Y-13455223D02*
X13344272Y-13445699D01*
X13344272Y-13445699D02*
X13344272Y-13464747D01*
X13344272Y-13340937D02*
X13353796Y-13350461D01*
X13353796Y-13350461D02*
X13344272Y-13359985D01*
X13344272Y-13359985D02*
X13334749Y-13350461D01*
X13334749Y-13350461D02*
X13344272Y-13340937D01*
X13344272Y-13340937D02*
X13344272Y-13359985D01*
M02*
